<?xml version="1.0" encoding="utf-8"?>
<!--Generator: Adobe Illustrator 23.0.2, SVG Export Plug-In . SVG Version: 6.00 Build 0)-->
<svg xmlns="http://www.w3.org/2000/svg" xmlns:xlink="http://www.w3.org/1999/xlink" id="Layer_1" x="0px" y="0px" style="enable-background:new 0 0 509.8 164.4" version="1.1" viewBox="0 0 509.8 164.4" xml:space="preserve">
    <style type="text/css">
        .st0{fill:#ffffff;} .st1{fill:#ffffff;}
    </style>
    <title>
        Artboard 1
    </title>
    <path d="M114.6,32.8c-0.4,4.2-4.1,7.3-8.3,6.9c-4.2-0.4-7.3-4.1-6.9-8.3c0.4-4.2,4.1-7.3,8.3-6.9
	C111.9,24.9,114.9,28.6,114.6,32.8C114.6,32.8,114.6,32.8,114.6,32.8 M116.2,22.7L116.2,22.7C104.6,11,81.2,8.3,35.9,27.9
	c-0.2,0.1-0.8,0.4-0.8,0.4c-1.2,0.8-2,2.1-2,3.6c-0.1,2.3,1.7,4.2,4,4.2c0.1,0,0.1,0,0.2,0c0.7-0.1,1.4-0.3,2-0.6
	C46,33.1,78.7,24.2,96,39.8c0.6,0.5,1.1,0.9,1.6,1.4s1,1,1.4,1.6c15.5,17.3,6.6,50.1,4.1,56.7c-0.3,0.6-0.5,1.3-0.6,2
	c-0.1,2.3,1.7,4.2,4,4.2c0.1,0,0.2,0,0.2,0c1.5,0,2.8-0.8,3.6-2c0.2-0.3,0.3-0.6,0.4-0.9C130.4,57.6,127.8,34.3,116.2,22.7" class="st0"/>
    <path d="M138.7,10.8c-0.5,5.4-5.3,9.5-10.7,9c-5.4-0.5-9.5-5.3-9-10.7c0.5-5.4,5.3-9.5,10.7-9
	C135.1,0.5,139.2,5.3,138.7,10.8" class="st0"/>
    <path d="M93.6,51.2c-0.3,2.9-2.8,5-5.6,4.7s-5-2.8-4.7-5.6c0.3-2.9,2.8-5,5.6-4.7c0,0,0,0,0,0
	C91.7,45.8,93.8,48.3,93.6,51.2C93.6,51.2,93.6,51.2,93.6,51.2" class="st0"/>
    <path d="M79,64.3c-0.2,2.1-2.1,3.7-4.2,3.6c-2.1-0.2-3.7-2.1-3.6-4.2c0.2-2.1,2.1-3.7,4.2-3.6c0,0,0,0,0,0
	C77.6,60.3,79.2,62.2,79,64.3" class="st0"/>
    <rect width="509.8" height="0.6" y="123" class="st1"/>
    <path d="M219.6,23.1h-6.3c-2,0.1-3.6,1.8-3.5,3.8v50.2l-38.9-52.8c-1.6-2.2-2.8-2.4-4.2-2.4h-0.8
	c-2,0.1-3.5,1.7-3.5,3.7v78c-0.1,2,1.5,3.7,3.5,3.8h6.2c2-0.1,3.6-1.8,3.5-3.8V51.9l39,54.4c1.5,2.1,2.8,2.3,4.2,2.3h0.9
	c2-0.1,3.5-1.7,3.5-3.7v-78C223.2,24.9,221.6,23.2,219.6,23.1z" class="st0"/>
    <path d="M247.9,23.1h-6.5c-2,0.1-3.5,1.8-3.5,3.8v76.7c-0.1,2,1.5,3.7,3.5,3.8h6.5c2-0.1,3.5-1.8,3.5-3.8V26.9
	C251.5,24.9,249.9,23.2,247.9,23.1z" class="st0"/>
    <path d="M292.9,23.1h-22.6c-2,0.1-3.6,1.8-3.5,3.8v76.7c-0.1,2,1.5,3.7,3.5,3.8h6.4c2-0.1,3.5-1.8,3.5-3.8V78h12.8
	c13.1,0,23.7-12.4,23.7-27.7C316.6,35.3,306,23.1,292.9,23.1z M303.2,50.2c0,7.4-4.6,13.2-10.6,13.2h-12.5V37.9h12.5
	C298.6,37.9,303.2,43.3,303.2,50.2z" class="st0"/>
    <path d="M381.3,23.1h-6.5c-2,0.1-3.6,1.8-3.5,3.8v30.7h-33V26.9c0.1-2-1.5-3.7-3.5-3.8h-6.5c-2,0.1-3.5,1.8-3.5,3.8
	v76.7c-0.1,2,1.5,3.7,3.5,3.8h6.5c2-0.1,3.6-1.8,3.5-3.8V71.7h33v31.9c-0.1,2,1.5,3.7,3.5,3.8h6.5c2-0.1,3.5-1.8,3.5-3.8V26.9
	C384.8,24.9,383.3,23.2,381.3,23.1z" class="st0"/>
    <path d="M0.1,134.9c0-0.3,0.3-0.6,0.6-0.6H1c0.4-0.1,0.8,0.1,1,0.5l13.6,15.8h0.1v-15.3c0-0.3,0.3-0.6,0.6-0.6
	c0,0,0,0,0,0h2.1c0.3,0,0.6,0.3,0.6,0.6V157c0,0.3-0.3,0.6-0.6,0.6H18c-0.4,0-0.7-0.1-0.9-0.4L3.4,140.9H3.4v15.8
	c0,0.3-0.3,0.6-0.6,0.6h-2c-0.3,0-0.6-0.3-0.6-0.6L0.1,134.9z" class="st0"/>
    <path d="M30.8,142c4.3-0.1,7.9,3.3,8,7.6c0.1,4.3-3.3,7.9-7.6,8c-4.3,0.1-7.9-3.3-8-7.6c0-0.1,0-0.1,0-0.2
	C23.2,145.5,26.6,142.1,30.8,142z M30.8,154.6c2.6,0.2,4.9-1.8,5-4.5c0.2-2.6-1.8-4.9-4.5-5c-2.6-0.2-4.9,1.8-5,4.5
	c0,0.1,0,0.2,0,0.2c-0.1,2.5,1.8,4.6,4.3,4.8C30.7,154.6,30.8,154.6,30.8,154.6z" class="st0"/>
    <path d="M42,143c0-0.4,0.3-0.7,0.7-0.7h0.8c0.3,0,0.6,0.2,0.7,0.5l0.3,1.4c1.1-1.4,2.8-2.2,4.5-2.2
	c1.4,0,3.2,0.4,2.7,1.4L51,145c-0.1,0.3-0.5,0.5-0.8,0.4c0,0-0.1,0-0.1,0c-0.4-0.2-0.9-0.3-1.3-0.3c-1.4,0-2.8,0.8-3.5,2v9.5
	c0,0.6-0.4,0.7-1,0.7h-1.5c-0.4,0-0.7-0.3-0.7-0.7L42,143z" class="st0"/>
    <path d="M53.4,143.2c-0.2-0.2-0.1-0.6,0.1-0.7c0.1-0.1,0.3-0.1,0.4-0.1h2c0.3,0,0.6,0.2,0.6,0.4l2.5,8.6h0.1l4-9
	c0.1-0.2,0.4-0.4,0.6-0.4H64c0.3,0,0.5,0.1,0.7,0.4l4,9h0.1l2.4-8.6c0.2-0.4,0.8-0.4,1.1-0.4h1.4c0.5,0,0.8,0.4,0.6,0.8l-4.3,14
	c-0.1,0.3-0.4,0.4-0.7,0.4h-0.1c-0.3,0-0.5-0.1-0.6-0.4l-4.6-10.2h-0.1l-4.6,10.2c-0.1,0.2-0.3,0.4-0.6,0.4h-0.2
	c-0.3,0-0.5-0.1-0.6-0.4L53.4,143.2z" class="st0"/>
    <path d="M84.2,142c3.7-0.1,6.7,2.8,6.8,6.5c0,0.1,0,0.2,0,0.4c0,0.3,0,0.7-0.1,1c0,0.4-0.3,0.6-0.7,0.6H80
	c0.2,2.3,2.1,4.1,4.5,4.1c1.3,0,2.6-0.4,3.7-1.3c0.3-0.2,0.6-0.3,0.9,0.1l0.9,1.4c0.3,0.3,0.4,0.6-0.1,1c-1.6,1.2-3.5,1.9-5.5,1.8
	c-4.5,0-7.5-3.6-7.5-7.8S79.7,142,84.2,142z M87.8,148.2c-0.1-1.9-1.7-3.5-3.7-3.4c0,0,0,0,0,0c-2-0.1-3.8,1.4-4,3.4H87.8z" class="st0"/>
    <path d="M107.8,157.4c0,4.7-3,7-6.9,7c-1.9,0-3.7-0.7-5.2-1.9c-0.2-0.2-0.3-0.6-0.2-0.8l0.8-1.4
	c0.1-0.3,0.5-0.5,0.8-0.3c0.1,0,0.1,0.1,0.2,0.1c1,0.9,2.2,1.3,3.5,1.4c2,0,3.7-1,3.7-4v-0.8c-1.2,0.7-2.5,1-3.8,1.1
	c-4.1,0-7.2-3.5-7.2-7.8s3-7.8,7.1-7.8c1.7,0,3.4,0.6,4.7,1.8l0.4-0.9c0.1-0.3,0.2-0.5,0.6-0.5h0.9c0.4,0,0.7,0.3,0.7,0.7V157.4z
	 M101.1,154.6c1.3,0,2.5-0.4,3.5-1.2v-6.2c-0.8-1.3-2.1-2.1-3.6-2.1c-2.6,0-4.2,2.2-4.2,4.7C96.7,152.3,98.6,154.4,101.1,154.6z" class="st0"/>
    <path d="M111.8,136.9c0-1.2,0.9-2.2,2.1-2.2c0,0,0,0,0,0c1.2-0.1,2.3,0.8,2.3,2c0.1,1.2-0.8,2.3-2,2.3
	c-0.1,0-0.2,0-0.3,0C112.8,139.1,111.8,138.2,111.8,136.9C111.8,137,111.8,137,111.8,136.9z M112.4,143c0-0.4,0.3-0.7,0.7-0.7h1.8
	c0.4,0,0.7,0.3,0.7,0.7v13.5c0,0.4-0.3,0.7-0.7,0.7h-1.8c-0.4,0-0.7-0.3-0.7-0.7V143z" class="st0"/>
    <path d="M125,147.8c1,0,2,0.2,3,0.5c0.1-2.4-0.5-3.4-2.4-3.4c-1.4,0-2.8,0.3-4.2,0.7c-0.4,0.1-0.7-0.2-0.8-0.5
	c0,0,0-0.1,0-0.1l-0.3-1.2c-0.1-0.3,0.1-0.7,0.4-0.9c0,0,0,0,0.1,0c1.7-0.6,3.4-0.9,5.1-0.9c4.8,0,5.3,2.9,5.3,6.6v8
	c0,0.4-0.3,0.7-0.7,0.7h-1.1c-0.3,0-0.5-0.1-0.6-0.5l-0.4-1c-1.2,1.2-2.9,1.9-4.6,1.9c-2.5,0.1-4.7-1.8-4.8-4.4c0-0.2,0-0.4,0-0.6
	C119,149.9,121.1,147.8,125,147.8z M124.5,155c1.4-0.1,2.6-0.7,3.5-1.8v-2.5c-0.9-0.4-1.8-0.5-2.7-0.5c-1.8,0-3.1,0.9-3.1,2.4
	c-0.1,1.2,0.8,2.2,2,2.3C124.3,155,124.4,155,124.5,155z" class="st0"/>
    <path d="M135.6,143c0-0.4,0.3-0.7,0.7-0.7h0.8c0.3,0,0.6,0.2,0.6,0.4l0.5,1.3c1.3-1.4,3.1-2.1,5-2.1
	c4.6,0,5.8,3.2,5.8,7.1v7.5c0,0.4-0.3,0.7-0.7,0.7h-1.8c-0.4,0-0.7-0.3-0.7-0.7v-7.6c0-2.4-1-3.9-3-3.9c-1.6,0-3.1,0.8-3.9,2.2v9.3
	c0,0.5-0.3,0.7-0.9,0.7h-1.7c-0.4,0-0.7-0.3-0.7-0.7L135.6,143z" class="st0"/>
    <path d="M161.8,135.2c0-0.3,0.3-0.6,0.6-0.6h2.2c0.3,0,0.6,0.3,0.6,0.6v21.4c0,0.3-0.3,0.6-0.6,0.6h-2.1
	c-0.3,0-0.6-0.3-0.6-0.6L161.8,135.2z" class="st0"/>
    <path d="M170.4,143c0-0.4,0.3-0.7,0.7-0.7h0.8c0.3,0,0.6,0.2,0.6,0.4l0.5,1.3c1.3-1.4,3.1-2.1,5-2.1
	c4.6,0,5.8,3.2,5.8,7.1v7.5c0,0.4-0.3,0.7-0.7,0.7h-1.8c-0.4,0-0.7-0.3-0.7-0.7v-7.6c0-2.4-1-3.9-2.9-3.9c-1.6,0-3.1,0.8-4,2.1v9.3
	c0,0.5-0.3,0.7-0.9,0.7h-1.6c-0.4,0-0.7-0.3-0.7-0.7V143z" class="st0"/>
    <path d="M187.5,156.1c-0.3-0.1-0.4-0.5-0.3-0.8l0.7-1.4c0.2-0.3,0.6-0.4,0.9-0.3c0,0,0.1,0,0.1,0.1
	c1.1,0.7,2.4,1.1,3.7,1.1c1.3,0,2-0.6,2-1.5c0-1-1.1-1.6-3.2-2.6c-2.3-1-4-2.3-4-4.7c0-1.9,1.3-4.1,5-4.1c1.5,0,3,0.3,4.4,1.1
	c0.4,0.2,0.5,0.7,0.3,1.1l-0.5,1c-0.2,0.3-0.6,0.5-0.9,0.3c0,0-0.1,0-0.1,0c-1-0.5-2.1-0.7-3.2-0.7c-1.3,0-1.9,0.6-1.9,1.3
	c0,1,1.1,1.6,2.6,2.2c2.8,1.2,4.8,2.2,4.8,5c0,2.3-2,4.4-5.3,4.4C190.7,157.7,189,157.1,187.5,156.1z" class="st0"/>
    <path d="M202.2,145.1h-1.7c-0.4,0-0.7-0.3-0.7-0.7V143c0-0.4,0.3-0.7,0.6-0.7c0,0,0,0,0.1,0h1.7v-4.2
	c0-0.4,0.3-0.7,0.7-0.7h1.8c0.4,0,0.7,0.3,0.7,0.7c0,0,0,0,0,0v4.2h4c0.4,0,0.7,0.3,0.7,0.7c0,0,0,0,0,0v1.3c0,0.4-0.3,0.7-0.7,0.7
	h-4v8c0,1.3,0.5,1.5,1.2,1.5c0.8,0,1.7-0.3,2.4-0.7c0.3-0.2,0.6-0.1,0.8,0.1c0,0.1,0.1,0.1,0.1,0.2l0.6,1.5c0.2,0.4,0,0.6-0.4,0.9
	c-1.3,0.7-2.7,1-4.1,1.1c-3,0-3.8-1.8-3.8-4.5V145.1z" class="st0"/>
    <path d="M213,136.9c0-1.2,0.9-2.2,2.1-2.2c0,0,0,0,0,0c1.2-0.1,2.3,0.8,2.3,2c0.1,1.2-0.8,2.3-2,2.3c-0.1,0-0.2,0-0.3,0
	C213.9,139.1,213,138.2,213,136.9C213,137,213,137,213,136.9z M213.5,143c0-0.4,0.3-0.7,0.7-0.7h1.8c0.4,0,0.7,0.3,0.7,0.7v13.5
	c0,0.4-0.3,0.7-0.7,0.7h-1.8c-0.4,0-0.7-0.3-0.7-0.7V143z" class="st0"/>
    <path d="M222.3,145.1h-1.7c-0.4,0-0.7-0.3-0.7-0.7V143c0-0.4,0.3-0.7,0.6-0.7c0,0,0,0,0.1,0h1.7v-4.2
	c0-0.4,0.3-0.7,0.7-0.7h1.9c0.4,0,0.7,0.3,0.7,0.7c0,0,0,0,0,0v4.2h4c0.4,0,0.7,0.3,0.7,0.7c0,0,0,0,0,0v1.3c0,0.4-0.3,0.7-0.7,0.7
	h-4v8c0,1.3,0.5,1.5,1.2,1.5c0.8,0,1.7-0.3,2.4-0.7c0.3-0.2,0.6-0.1,0.8,0.1c0,0.1,0.1,0.1,0.1,0.2l0.6,1.5c0.2,0.4,0,0.6-0.4,0.9
	c-1.3,0.7-2.7,1-4.1,1.1c-3,0-3.8-1.8-3.8-4.5L222.3,145.1z" class="st0"/>
    <path d="M233.4,143c0-0.4,0.3-0.7,0.7-0.7h1.8c0.4,0,0.7,0.3,0.7,0.7v8c0,2.5,1,3.6,2.9,3.6c1.6,0,3-1,3.5-2.5v-9.1
	c0-0.6,0.3-0.7,0.8-0.7h1.7c0.4,0,0.7,0.3,0.8,0.7v13.5c0,0.4-0.4,0.7-0.8,0.7h-0.8c-0.4,0-0.5-0.3-0.7-0.6l-0.4-1.1
	c-1.2,1.3-2.9,2.1-4.7,2c-4.5,0-5.6-2.9-5.6-6.9L233.4,143z" class="st0"/>
    <path d="M251.8,145.1h-1.7c-0.4,0-0.7-0.3-0.7-0.7V143c0-0.4,0.3-0.7,0.7-0.7c0,0,0,0,0.1,0h1.7v-4.2
	c0-0.4,0.3-0.7,0.7-0.7h1.9c0.4,0,0.7,0.3,0.7,0.7c0,0,0,0,0,0v4.2h4c0.4,0,0.7,0.3,0.7,0.7c0,0,0,0,0,0v1.3c0,0.4-0.3,0.7-0.7,0.7
	h-4v8c0,1.3,0.5,1.5,1.2,1.5c0.8,0,1.7-0.3,2.4-0.7c0.3-0.2,0.6-0.1,0.8,0.1c0,0.1,0.1,0.1,0.1,0.2l0.6,1.5c0.2,0.4,0,0.6-0.4,0.9
	c-1.3,0.7-2.7,1-4.1,1.1c-3,0-3.8-1.8-3.8-4.5L251.8,145.1z" class="st0"/>
    <path d="M269.7,142c3.7-0.1,6.7,2.8,6.8,6.5c0,0.1,0,0.3,0,0.4c0,0.3,0,0.8-0.1,1c0,0.4-0.3,0.6-0.7,0.6h-10.3
	c0.2,2.3,2.1,4.1,4.5,4.1c1.3,0,2.6-0.4,3.7-1.3c0.3-0.2,0.6-0.3,0.9,0.1l0.9,1.4c0.3,0.3,0.4,0.6-0.1,1c-1.6,1.2-3.5,1.9-5.5,1.8
	c-4.5,0-7.5-3.6-7.5-7.8S265.2,142,269.7,142z M273.3,148.2c-0.1-1.9-1.7-3.5-3.7-3.4c0,0,0,0,0,0c-2-0.1-3.8,1.4-4,3.4H273.3z" class="st0"/>
    <path d="M294.4,142c4.3-0.1,7.9,3.3,8,7.6c0.1,4.3-3.3,7.9-7.6,8c-4.3,0.1-7.9-3.3-8-7.6c0-0.1,0-0.1,0-0.2
	C286.7,145.5,290.1,142.1,294.4,142z M294.4,154.6c2.6,0.2,4.9-1.8,5-4.5c0.2-2.6-1.8-4.9-4.5-5c-2.6-0.2-4.9,1.8-5,4.5
	c0,0.1,0,0.2,0,0.2c-0.1,2.5,1.8,4.6,4.3,4.8C294.2,154.6,294.3,154.6,294.4,154.6z" class="st0"/>
    <path d="M306.8,145.3h-2c-0.4,0-0.7-0.3-0.7-0.7V143c0-0.4,0.3-0.7,0.6-0.7c0,0,0,0,0.1,0h2v-1.7c0-4,1.9-6.3,5.5-6.3
	c1.5,0,3,0.5,4.2,1.5c0.2,0.2,0.3,0.6,0.1,0.8l-0.9,1.4c-0.2,0.4-0.6,0.4-1,0.1c-0.7-0.5-1.5-0.8-2.4-0.8c-1.7,0-2.4,1.4-2.4,3.2
	v1.7h4.2c0.4,0,0.7,0.3,0.7,0.7c0,0,0,0,0,0v1.6c0,0.4-0.3,0.7-0.7,0.7h-4.2v11.2c0,0.4-0.3,0.7-0.7,0.7h-1.8
	c-0.4,0-0.7-0.3-0.7-0.7L306.8,145.3z" class="st0"/>
    <path d="M326.4,135.2c0-0.3,0.3-0.6,0.6-0.6h7.4c4,0,7.2,3.2,7.2,7.2s-3.2,7.2-7.2,7.2l0,0h-4.7v7.6
	c0,0.3-0.3,0.6-0.6,0.6H327c-0.3,0-0.6-0.3-0.6-0.6L326.4,135.2z M334.3,145.9c2.2,0,4-1.8,4-4c0,0,0-0.1,0-0.1
	c0-2.1-1.7-3.9-3.9-3.9c0,0-0.1,0-0.1,0h-4.6v8L334.3,145.9z" class="st0"/>
    <path d="M344.6,143c0-0.4,0.3-0.7,0.7-0.7h1.8c0.4,0,0.7,0.3,0.7,0.7v8c0,2.5,1,3.6,2.9,3.6c1.6,0,3-1,3.5-2.5v-9.1
	c0-0.6,0.3-0.7,0.9-0.7h1.6c0.4,0,0.7,0.3,0.7,0.7v13.5c0,0.4-0.3,0.7-0.7,0.7h-0.8c-0.4,0-0.5-0.3-0.7-0.6l-0.4-1.1
	c-1.2,1.3-2.9,2.1-4.7,2c-4.5,0-5.6-2.9-5.6-6.9L344.6,143z" class="st0"/>
    <path d="M362,135.3c0-0.4,0.3-0.7,0.7-0.7h1.8c0.4,0,0.7,0.3,0.7,0.7v7.4c1.2-0.5,2.5-0.7,3.8-0.8
	c4.1,0.1,7.4,3.5,7.4,7.6c0,0.1,0,0.1,0,0.2c0,4.3-3,7.8-7,7.8c-1.8,0-3.6-0.8-4.9-2.1l-0.3,1.1c-0.1,0.4-0.3,0.6-0.7,0.6h-0.8
	c-0.4,0-0.7-0.3-0.7-0.7L362,135.3z M368.9,154.6c2.4,0,4.2-2.2,4.2-4.8c0.1-2.5-1.9-4.6-4.5-4.7c-1.2,0-2.4,0.3-3.4,0.8v6.5
	C365.9,153.7,367.3,154.5,368.9,154.6L368.9,154.6z" class="st0"/>
    <path d="M380,135.3c0-0.4,0.3-0.7,0.7-0.7h1.8c0.4,0,0.7,0.3,0.7,0.7v21.2c0,0.4-0.3,0.7-0.7,0.7h-1.8
	c-0.4,0-0.7-0.3-0.7-0.7V135.3z" class="st0"/>
    <path d="M387.4,136.9c0-1.2,0.9-2.2,2.1-2.2c0,0,0,0,0,0c1.2-0.1,2.3,0.8,2.3,2c0.1,1.2-0.8,2.3-2,2.3
	c-0.1,0-0.2,0-0.3,0C388.3,139.1,387.4,138.2,387.4,136.9C387.4,137,387.4,137,387.4,136.9z M387.9,143c0-0.4,0.3-0.7,0.7-0.7h1.8
	c0.4,0,0.7,0.3,0.7,0.7v13.5c0,0.4-0.3,0.7-0.7,0.7h-1.8c-0.4,0-0.7-0.3-0.7-0.7V143z" class="st0"/>
    <path d="M402.4,142c2.1-0.1,4.2,0.9,5.4,2.6c0.3,0.3,0.2,0.8-0.1,1c0,0,0,0,0,0l-1.2,1.1c-0.4,0.4-0.7,0.1-1-0.2
	c-1.9-1.7-4.8-1.5-6.5,0.4s-1.5,4.8,0.4,6.5c0.8,0.7,1.8,1.1,2.9,1.2c1.9,0,2.7-1.1,3.5-1.9c0.2-0.3,0.7-0.3,1-0.1c0,0,0,0,0,0
	l1,0.8c0.4,0.3,0.5,0.7,0.2,1.1c-1.3,2-3.5,3.1-5.8,3.1c-4.2,0-7.6-3.4-7.7-7.6c0-0.1,0-0.1,0-0.2C394.7,145.5,398.1,142,402.4,142z
	" class="st0"/>
    <path d="M420.1,135.2c0-0.3,0.3-0.6,0.6-0.6h2.1c0.3,0,0.6,0.3,0.6,0.6c0,0,0,0,0,0v9h11.9v-9c0-0.3,0.3-0.6,0.6-0.6
	h2.1c0.3,0,0.6,0.3,0.6,0.6v21.4c0,0.3-0.3,0.6-0.6,0.6h-2.1c-0.3,0-0.6-0.3-0.6-0.6v-9.3h-11.9v9.4c0,0.3-0.3,0.6-0.6,0.6
	c0,0,0,0,0,0h-2.1c-0.3,0-0.6-0.3-0.6-0.6V135.2z" class="st0"/>
    <path d="M450.2,142c3.7-0.1,6.7,2.8,6.8,6.5c0,0.1,0,0.3,0,0.4c0,0.3,0,0.8-0.1,1c0,0.4-0.3,0.6-0.7,0.6H446
	c0.2,2.3,2.1,4.1,4.5,4.1c1.3,0,2.6-0.4,3.7-1.3c0.3-0.2,0.6-0.3,0.9,0.1l0.9,1.4c0.2,0.3,0.4,0.6-0.1,1c-1.6,1.2-3.5,1.9-5.5,1.8
	c-4.5,0-7.5-3.6-7.5-7.8S445.7,142,450.2,142z M453.8,148.2c-0.1-1.9-1.7-3.5-3.7-3.4c0,0,0,0,0,0c-2-0.1-3.8,1.4-4,3.4H453.8z" class="st0"/>
    <path d="M465.3,147.8c1,0,2,0.2,3,0.5c0.1-2.4-0.5-3.4-2.4-3.4c-1.4,0-2.8,0.3-4.2,0.7c-0.4,0.1-0.7-0.1-0.8-0.5
	c0,0,0-0.1,0-0.1l-0.3-1.2c-0.1-0.3,0.1-0.7,0.4-0.8c0,0,0.1,0,0.1,0c1.7-0.6,3.4-0.9,5.2-0.9c4.8,0,5.2,2.9,5.2,6.6v8
	c0,0.4-0.3,0.7-0.7,0.7h-1.1c-0.3,0-0.5-0.1-0.6-0.5l-0.4-1c-1.2,1.2-2.9,1.9-4.6,1.9c-2.5,0.1-4.7-1.8-4.8-4.4c0-0.2,0-0.4,0-0.6
	C459.3,149.9,461.5,147.8,465.3,147.8z M464.8,155c1.4-0.1,2.6-0.7,3.5-1.8v-2.5c-0.9-0.3-1.8-0.5-2.7-0.5c-1.8,0-3.1,0.9-3.1,2.4
	c-0.1,1.2,0.8,2.2,2.1,2.3C464.6,155,464.7,155,464.8,155z" class="st0"/>
    <path d="M476,135.3c0-0.4,0.3-0.7,0.7-0.7h1.8c0.4,0,0.7,0.3,0.7,0.7v21.2c0,0.4-0.3,0.7-0.7,0.7h-1.8
	c-0.4,0-0.7-0.3-0.7-0.7V135.3z" class="st0"/>
    <path d="M484.9,145.1h-1.7c-0.4,0-0.7-0.3-0.7-0.7V143c0-0.4,0.3-0.7,0.6-0.7c0,0,0,0,0.1,0h1.7v-4.2
	c0-0.4,0.3-0.7,0.7-0.7l0,0h1.8c0.4,0,0.7,0.3,0.7,0.7c0,0,0,0,0,0v4.2h4c0.4,0,0.7,0.3,0.7,0.7c0,0,0,0,0,0v1.3
	c0,0.4-0.3,0.7-0.7,0.7h-4v8c0,1.3,0.5,1.5,1.2,1.5c0.8,0,1.7-0.3,2.4-0.7c0.3-0.2,0.6-0.1,0.8,0.1c0,0.1,0.1,0.1,0.1,0.2l0.6,1.5
	c0.2,0.4,0,0.6-0.4,0.9c-1.3,0.7-2.7,1-4.1,1.1c-3,0-3.8-1.8-3.8-4.5L484.9,145.1z" class="st0"/>
    <path d="M496.2,135.3c0-0.4,0.3-0.7,0.7-0.7h1.8c0.4,0,0.7,0.3,0.7,0.7v8.2c1.2-1,2.8-1.5,4.3-1.6c4.2,0,5.8,3,5.8,7.1
	v7.5c0,0.4-0.3,0.7-0.7,0.7H507c-0.4,0-0.7-0.3-0.7-0.7V149c0-2.5-1-3.9-3-3.9c-1.6,0-3.1,0.8-3.9,2.2v9.3c0,0.4-0.3,0.7-0.7,0.7
	c0,0-0.1,0-0.1,0h-1.8c-0.4,0-0.7-0.3-0.7-0.7L496.2,135.3z" class="st0"/>
</svg>
