<svg xmlns="http://www.w3.org/2000/svg" width="20" height="20" viewBox="0 0 20 20"><defs><style>.a{fill:#fa5044;}.b{fill:#fff;}</style></defs><g transform="translate(-1041 -1219)"><g transform="translate(-97)"><g transform="translate(1138 1219)"><rect class="a" width="20" height="20"/></g></g><path class="b" d="M13.775,8.554c-.333-.555-1.222-.778-2.555-.778-.444,0-.889.111-1.444.111a7.8,7.8,0,0,1-1-.667A8.023,8.023,0,0,1,7,4.332V4.221c.444-1.444.778-3.222,0-4A1.579,1.579,0,0,0,6.332,0H6.11c-.444,0-.778.444-.889.889a5.156,5.156,0,0,0,.222,3.666A23.5,23.5,0,0,1,4.221,7.776c-.444.778-.778,1.444-1.111,2-.444.222-.778.444-1,.555A4.276,4.276,0,0,0,0,12.664a1,1,0,0,0,.111.555v.111l.555.333c.111.111.222.111.444.111.889,0,2-1.111,3.333-3.444.111-.111.111-.111.222-.111a18.292,18.292,0,0,1,4.444-.889,8.008,8.008,0,0,0,3.333.778,2.218,2.218,0,0,0,1-.222,6.8,6.8,0,0,0,.444-.667A1.409,1.409,0,0,0,13.775,8.554Zm-13,4.221A5.474,5.474,0,0,1,2.222,11a2.428,2.428,0,0,1,.555-.333C2.111,12,1.444,12.664.778,12.775ZM6.11.555A.109.109,0,0,0,6.221.444l.111.111V.667a1.735,1.735,0,0,1,0,1.111V2A4.123,4.123,0,0,1,6.11,3,4.519,4.519,0,0,1,6.11.555ZM4.666,9.443H4.444c.222-.444.444-.778.667-1.222A23.135,23.135,0,0,0,6.221,5.554,11.294,11.294,0,0,0,7.887,8.11a1.534,1.534,0,0,0,.444.333A16.806,16.806,0,0,0,4.666,9.443Zm8.443-.222h-.333a5.963,5.963,0,0,1-2.111-.555V8.554h.222c1.555,0,2,.333,2.111.444a.109.109,0,0,0,.111.111Z" transform="translate(1044 1222)"/></g></svg>