<?xml version="1.0" encoding="UTF-8"?>
<svg width="159px" height="44px" viewBox="0 0 159 44" version="1.1" xmlns="http://www.w3.org/2000/svg" xmlns:xlink="http://www.w3.org/1999/xlink">
    <!-- Generator: sketchtool 63.1 (101010) - https://sketch.com -->
    <title>9AFFB633-B3FD-4D1C-9792-4C5A47556928</title>
    <desc>Created with sketchtool.</desc>
    <g id="Page-1" stroke="none" stroke-width="1" fill="none" fill-rule="evenodd">
        <g id="Desktop_Microsite_DGS_03" transform="translate(-342.000000, -2151.000000)" fill-rule="nonzero">
            <g id="dgs_logo" transform="translate(342.000000, 2151.000000)">
                <path d="M3.78782609,10.3304348 C10.7130435,12.3965217 17.7530435,12.2052174 21.5791304,11.5547826 C25.1756522,10.9426087 29.1165217,9.90956522 31.6034783,8.22608696 C31.6034783,8.22608696 31.6034783,8.22608696 31.6417391,8.22608696 C32.1008696,7.92 32.56,7.57565217 32.9043478,7.19304348 C35.0086957,4.93565217 34.1286957,2.33391304 32.3304348,1.2626087 C30.5321739,0.191304348 27.7773913,1.07130435 20.5843478,2.1426087 C14.8069565,3.0226087 12.013913,2.94608696 7.76695652,1.91304348 C5.28,4.05565217 3.29043478,6.73391304 2.02782609,9.75652174 C2.56347826,9.98608696 3.17565217,10.1773913 3.78782609,10.3304348 C3.78782609,10.3304348 3.78782609,10.3304348 3.78782609,10.3304348" id="Path" fill="#005F30"></path>
                <path d="M4.20869565,22.1530435 C8.87652174,24.1043478 14.386087,25.3286957 20.9286957,24.8313043 C25.9026087,24.4486957 31.0295652,23.3773913 34.0521739,22.2295652 C34.0521739,22.2295652 34.0904348,22.2295652 34.0904348,22.2295652 C35.0469565,21.8469565 35.8121739,21.4643478 36.2713043,21.0817391 C38.0695652,19.5513043 38.6434783,16.6817391 36.7686957,16.0313043 C34.893913,15.3808696 32.8278261,16.1843478 27.28,16.9878261 C21.4643478,17.8295652 10.56,17.0643478 4.32347826,14.2330435 C3.17565217,13.6973913 2.10434783,13.1234783 1.03304348,12.5113043 C0.573913043,14.2713043 0.306086957,16.146087 0.306086957,18.0591304 C0.306086957,18.8243478 0.344347826,19.5895652 0.420869565,20.3547826 C1.60695652,21.0052174 2.86956522,21.6173913 4.20869565,22.1530435 C4.20869565,22.1530435 4.20869565,22.1530435 4.20869565,22.1530435" id="Path" fill="#005F30"></path>
                <path d="M12.1286957,35.0086957 C12.1286957,35.0086957 12.1286957,35.0086957 12.1286957,35.0086957 C18.2886957,36.4626087 23.186087,35.2 26.8591304,34.3965217 C28.0834783,34.1286957 29.2695652,33.6695652 30.3408696,33.1721739 C30.3408696,33.1721739 30.3408696,33.1721739 30.3408696,33.1721739 C32.3686957,32.1773913 34.013913,30.9147826 34.7026087,29.8817391 C34.7026087,29.8817391 34.7026087,29.8817391 34.7026087,29.8817391 C34.8556522,29.6521739 34.9704348,29.4226087 35.0086957,29.2313043 C35.1234783,28.8486957 35.1617391,28.5043478 35.1617391,28.2365217 C35.1617391,27.3947826 34.5878261,27.0121739 32.8278261,27.2417391 C30.4556522,27.5095652 24.0278261,30.3408696 15.5721739,29.5756522 C9.48869565,29.0017391 4.62956522,26.2852174 1.2626087,24.2956522 C2.2573913,27.5095652 3.97913043,30.4173913 6.27478261,32.7895652 C7.5373913,33.4782609 8.87652174,34.0521739 10.3686957,34.5495652 C10.9426087,34.7408696 11.5547826,34.893913 12.1286957,35.0086957" id="Path" fill="#005F30"></path>
                <path d="M31.6034783,8.22608696 C29.1165217,9.90956522 25.1756522,10.9808696 21.5408696,11.5930435 C17.7530435,12.2434783 10.6747826,12.4347826 3.74956522,10.3686957 C3.52,11.4782609 3.78782609,12.7408696 4.8973913,13.9269565 C5.28,14.3095652 5.70086957,14.6921739 6.19826087,15.0365217 C12.5495652,17.2173913 21.9617391,17.7530435 27.2417391,17.026087 C32.8278261,16.2226087 34.893913,15.4191304 36.7304348,16.0695652 C36.7686957,16.0695652 36.8069565,16.1078261 36.8452174,16.1078261 C39.0643478,15.1895652 40.8626087,14.386087 42.3547826,13.6208696 C41.7426087,10.7130435 40.5182609,8.03478261 38.8730435,5.70086957 C37.3808696,6.38956522 35.8886957,7.00173913 34.4730435,7.38434783 C33.44,7.69043478 32.4834783,7.95826087 31.6034783,8.22608696" id="Path" fill="#D20A11"></path>
                <path d="M21.5408696,11.5930435 C25.1373913,10.9808696 29.1165217,9.94782609 31.6034783,8.22608696 C31.6034783,8.22608696 31.6034783,8.22608696 31.5652174,8.22608696 C29.0782609,9.90956522 25.1373913,10.9426087 21.5408696,11.5930435 C17.7530435,12.2434783 10.6747826,12.4347826 3.74956522,10.3686957 C3.74956522,10.3686957 3.74956522,10.3686957 3.74956522,10.3686957 C10.6747826,12.4347826 17.7530435,12.2052174 21.5408696,11.5930435" id="Path" fill="#D20A11"></path>
                <path d="M37.9547826,21.1582609 C36.8069565,21.5791304 35.506087,21.9234783 34.0904348,22.2295652 C31.0678261,23.3773913 25.9026087,24.4869565 20.9286957,24.8695652 C14.386087,25.3669565 8.83826087,24.1426087 4.20869565,22.1913043 C4.05565217,23.3008696 4.4,24.3721739 5.54782609,25.2521739 C6.77217391,26.1704348 10.866087,28.5043478 15.533913,29.613913 C15.533913,29.613913 15.533913,29.613913 15.533913,29.613913 C23.9895652,30.3791304 30.4173913,27.5478261 32.7895652,27.28 C34.5495652,27.0886957 35.1234783,27.4330435 35.1234783,28.2747826 C35.1234783,28.5426087 35.0469565,28.8869565 34.9704348,29.2695652 C34.9321739,29.4608696 34.8173913,29.6904348 34.6643478,29.8817391 C36.6921739,29.3843478 38.6052174,28.6956522 40.3652174,27.9304348 C41.8191304,25.213913 42.6608696,22.1147826 42.7756522,18.8626087 C41.3217391,19.7043478 39.6765217,20.5078261 37.9547826,21.1582609" id="Path" fill="#D20A11"></path>
                <path d="M20.9286957,24.8313043 C14.386087,25.3286957 8.83826087,24.1043478 4.20869565,22.1530435 C4.20869565,22.1530435 4.20869565,22.1530435 4.20869565,22.1530435 C8.87652174,24.1043478 14.386087,25.3669565 20.9286957,24.8313043 C25.9408696,24.4486957 31.106087,23.3773913 34.0904348,22.1913043 C34.0904348,22.1913043 34.0521739,22.1913043 34.0521739,22.1913043 C31.0678261,23.3773913 25.9026087,24.4486957 20.9286957,24.8313043" id="Path" fill="#D20A11"></path>
                <path d="M34.7026087,29.8817391 C34.7026087,29.8817391 34.7026087,29.8817391 34.7026087,29.8817391 C34.8556522,29.6521739 34.9704348,29.4608696 35.0086957,29.2695652 C35.1234783,28.8869565 35.1617391,28.5426087 35.1617391,28.2747826 C35.1617391,28.5426087 35.0852174,28.8869565 35.0086957,29.2695652 C34.9704348,29.4226087 34.8556522,29.6521739 34.7026087,29.8817391" id="Path" fill="#D20A11"></path>
                <path d="M30.3408696,33.1721739 C29.2313043,33.7078261 28.0452174,34.1669565 26.8208696,34.4347826 C23.186087,35.2382609 18.2886957,36.5008696 12.0904348,35.0469565 C13.6208696,36.4243478 16.3373913,37.84 19.36,38.4521739 C20.6991304,38.72 22.2295652,39.026087 23.9130435,39.2173913 C30.1878261,38.5286957 35.6591304,35.0852174 39.0643478,30.1495652 C36.386087,31.5269565 33.4017391,32.7895652 30.4173913,33.1721739 C30.4173913,33.133913 30.3791304,33.1721739 30.3408696,33.1721739" id="Path" fill="#D20A11"></path>
                <path d="M26.8208696,34.3965217 C23.186087,35.2 18.2886957,36.5008696 12.0904348,35.0086957 C12.0904348,35.0086957 12.0904348,35.0086957 12.0904348,35.0086957 C18.2886957,36.5008696 23.186087,35.2382609 26.8208696,34.3965217 C28.0452174,34.1286957 29.2313043,33.6695652 30.3408696,33.1721739 C30.3408696,33.1721739 30.3408696,33.1721739 30.3408696,33.1721739 C29.2313043,33.7078261 28.0452174,34.1286957 26.8208696,34.3965217" id="Path" fill="#D20A11"></path>
                <path d="M21.5408696,11.5547826 C25.1373913,10.9426087 29.0782609,9.90956522 31.5652174,8.22608696 C26.4,9.64173913 23.6834783,9.83304348 17.2173913,8.87652174 C10.0243478,7.80521739 7.26956522,6.92521739 5.47130435,7.99652174 C4.62956522,8.49391304 3.97913043,9.33565217 3.74956522,10.3304348 C10.6747826,12.4347826 17.7530435,12.2052174 21.5408696,11.5547826" id="Path" fill="#811000"></path>
                <path d="M36.7304348,16.1078261 C36.7686957,16.0695652 36.8452174,16.0695652 36.8834783,16.0313043 C36.8452174,16.0313043 36.8069565,15.9930435 36.7686957,15.9930435 C34.893913,15.3426087 32.8278261,16.146087 27.28,16.9495652 C22,17.7147826 12.626087,17.1791304 6.23652174,14.96 C8.72347826,16.6434783 12.626087,17.6382609 16.2226087,18.2504348 C20.5078261,19.053913 29.0017391,19.2069565 36.7304348,16.1078261" id="Path" fill="#003E1B"></path>
                <path d="M20.9286957,24.8313043 C25.9026087,24.4486957 31.0295652,23.3773913 34.0521739,22.2295652 C27.7391304,23.4921739 19.5513043,23.3008696 14.8452174,22.2678261 C9.33565217,21.0817391 7.34608696,20.1252174 5.43304348,20.6608696 C4.66782609,20.8521739 4.28521739,21.426087 4.17043478,22.1530435 C8.87652174,24.1043478 14.386087,25.3286957 20.9286957,24.8313043" id="Path" fill="#811000"></path>
                <path d="M32.8278261,27.2417391 C30.4556522,27.5095652 24.0278261,30.3408696 15.5721739,29.5756522 C15.5721739,29.5756522 15.5721739,29.5756522 15.5721739,29.5756522 C17.2173913,29.9582609 18.9391304,30.3026087 20.6608696,30.5704348 C25.9026087,31.3356522 30.6086957,30.9530435 34.7408696,29.8817391 C34.893913,29.6521739 35.0086957,29.4226087 35.0469565,29.2313043 C35.3913043,27.7391304 35.2,26.973913 32.8278261,27.2417391" id="Path" fill="#003E1B"></path>
                <path d="M13.1234783,31.4886957 C10.7513043,31.2973913 10.56,32.0626087 11.0191304,33.5547826 C11.133913,33.9756522 11.5165217,34.4730435 12.1286957,35.0086957 C18.3269565,36.5008696 23.186087,35.2 26.8591304,34.3965217 C28.0834783,34.1286957 29.2695652,33.6695652 30.3408696,33.1721739 C21.9617391,34.2434783 15.4573913,31.68 13.1234783,31.4886957" id="Path" fill="#811000"></path>
                <path d="M55.6313043,40.9773913 L56.9321739,40.9773913 C57.4678261,40.9773913 57.8886957,40.9008696 58.2330435,40.7095652 C58.5773913,40.5182609 58.8452174,40.2886957 59.0747826,40.0208696 C59.266087,39.7147826 59.4191304,39.4086957 59.4956522,39.026087 C59.5721739,38.6434783 59.6104348,38.2608696 59.6104348,37.8782609 C59.6104348,37.4956522 59.5721739,37.1130435 59.4956522,36.7304348 C59.4191304,36.3478261 59.266087,36.0417391 59.0747826,35.7356522 C58.8834783,35.4295652 58.6156522,35.2 58.2330435,35.0469565 C57.8886957,34.8556522 57.4678261,34.7791304 56.9321739,34.7791304 L55.5930435,34.7791304 L55.5930435,40.9773913 L55.6313043,40.9773913 Z M55.0191304,34.2434783 L57.0852174,34.2434783 C57.6591304,34.2434783 58.1565217,34.3582609 58.5773913,34.5495652 C58.9982609,34.7408696 59.3043478,35.0086957 59.5721739,35.3530435 C59.84,35.6973913 60.0313043,36.08 60.146087,36.5008696 C60.2608696,36.9217391 60.3373913,37.3808696 60.3373913,37.8782609 C60.3373913,38.3373913 60.2608696,38.7965217 60.146087,39.2173913 C60.0313043,39.6382609 59.84,40.0208696 59.5721739,40.3652174 C59.3043478,40.7095652 58.9982609,40.9773913 58.5773913,41.2069565 C58.1565217,41.3982609 57.6591304,41.5130435 57.0469565,41.5130435 L55.0191304,41.5130435 L55.0191304,34.2434783 Z" id="Shape" fill="#575756"></path>
                <path d="M62.0113834,35.8504348 L62.7386561,35.8504348 L62.7386561,41.5130435 L62.0113834,41.5130435 L62.0113834,35.8504348 Z M62.3295652,34.5495652 C62.1932016,34.5495652 62.0568379,34.5113043 61.9659289,34.4347826 C61.8750198,34.3582609 61.8295652,34.2434783 61.8295652,34.0904348 C61.8295652,33.9756522 61.8750198,33.8608696 61.9659289,33.746087 C62.0568379,33.6695652 62.1932016,33.6313043 62.3295652,33.6313043 C62.4659289,33.6313043 62.6022925,33.6695652 62.6932016,33.746087 C62.7841107,33.8226087 62.8295652,33.9373913 62.8295652,34.0904348 C62.8295652,34.2052174 62.7841107,34.32 62.6932016,34.4347826 C62.6022925,34.5113043 62.5113834,34.5495652 62.3295652,34.5495652" id="Shape" fill="#575756"></path>
                <path d="M64.5078261,35.8504348 L65.12,35.8504348 L65.12,36.4626087 C65.2730435,36.2330435 65.5026087,36.08 65.7321739,35.9652174 C65.9617391,35.8504348 66.2295652,35.773913 66.5356522,35.773913 C66.6121739,35.773913 66.6886957,35.773913 66.8034783,35.8121739 C66.88,35.8121739 66.9947826,35.8504348 67.0713043,35.8886957 L67.0713043,36.4626087 C66.9947826,36.4626087 66.9182609,36.4243478 66.8034783,36.386087 C66.6886957,36.3478261 66.6121739,36.3478261 66.4973913,36.3478261 C66.1530435,36.3478261 65.8852174,36.4243478 65.693913,36.5391304 C65.4643478,36.653913 65.3113043,36.8069565 65.1582609,36.96 L65.1582609,41.5130435 L64.546087,41.5130435 L64.546087,35.8504348 L64.5078261,35.8504348 Z" id="Path" fill="#575756"></path>
                <path d="M69.9791304,36.2713043 C69.7878261,36.2713043 69.6347826,36.3095652 69.4052174,36.3478261 C69.213913,36.386087 69.0226087,36.5008696 68.8695652,36.6156522 C68.7165217,36.7686957 68.5634783,36.9217391 68.4486957,37.1513043 C68.333913,37.3808696 68.2573913,37.6869565 68.1808696,38.0313043 L71.3565217,38.0313043 L71.3565217,37.9547826 C71.3565217,37.7252174 71.3182609,37.4956522 71.28,37.3043478 C71.2034783,37.1130435 71.1269565,36.9217391 71.0121739,36.7686957 C70.8973913,36.6156522 70.7443478,36.5008696 70.5530435,36.386087 C70.4,36.3095652 70.2086957,36.2713043 69.9791304,36.2713043 M70.1321739,41.5895652 C69.7113043,41.5895652 69.3286957,41.5130435 68.9843478,41.3982609 C68.64,41.2452174 68.3721739,41.053913 68.1808696,40.8243478 C67.9513043,40.5565217 67.7982609,40.2504348 67.6834783,39.906087 C67.5686957,39.5617391 67.5304348,39.1408696 67.5304348,38.72 C67.5304348,38.2608696 67.6069565,37.8782609 67.6834783,37.533913 C67.7982609,37.1895652 67.9513043,36.8452174 68.1808696,36.6156522 C68.3721739,36.3478261 68.64,36.1565217 68.946087,36.0034783 C69.2521739,35.8504348 69.5965217,35.773913 69.9791304,35.773913 C70.3617391,35.773913 70.6678261,35.8504348 70.9356522,36.0034783 C71.2034783,36.1565217 71.3947826,36.3478261 71.5478261,36.5773913 C71.7008696,36.8069565 71.8156522,37.0747826 71.8921739,37.3426087 C71.9686957,37.6104348 72.0069565,37.9165217 72.0069565,38.1843478 L72.0069565,38.3756522 C72.0069565,38.4521739 72.0069565,38.5286957 72.0069565,38.6052174 L68.1808696,38.6052174 L68.1808696,38.7582609 C68.1808696,39.1026087 68.2191304,39.4086957 68.2956522,39.7147826 C68.3721739,40.0208696 68.4869565,40.2504348 68.64,40.48 C68.7930435,40.7095652 69.0226087,40.8626087 69.2521739,40.9773913 C69.52,41.0921739 69.7878261,41.1686957 70.1704348,41.1686957 C70.4765217,41.1686957 70.7826087,41.1304348 71.0121739,41.053913 C71.2417391,40.9773913 71.4713043,40.9008696 71.7008696,40.786087 L71.7008696,41.3217391 C71.5478261,41.3982609 71.3565217,41.4747826 71.0886957,41.5513043 C70.7826087,41.5513043 70.4765217,41.5895652 70.1321739,41.5895652" id="Shape" fill="#575756"></path>
                <path d="M74.7234783,43.8086957 C74.6086957,43.8086957 74.493913,43.8086957 74.3791304,43.7704348 C74.2643478,43.7321739 74.1495652,43.7321739 74.1113043,43.693913 L74.1113043,43.3113043 C74.1495652,43.3495652 74.2643478,43.3495652 74.3408696,43.3878261 C74.4556522,43.426087 74.5704348,43.426087 74.7234783,43.426087 C74.9147826,43.426087 75.0678261,43.3878261 75.1826087,43.3113043 C75.3356522,43.2347826 75.373913,43.12 75.373913,42.9286957 C75.373913,42.7373913 75.2973913,42.5843478 75.1443478,42.546087 C74.9913043,42.4695652 74.7617391,42.4695652 74.5704348,42.4695652 L74.9147826,41.5895652 C74.3026087,41.4747826 73.8434783,41.1686957 73.4608696,40.7095652 C73.1165217,40.2121739 72.9252174,39.6 72.9252174,38.8347826 C72.9252174,38.413913 72.9634783,38.0313043 73.0782609,37.6486957 C73.1930435,37.266087 73.3078261,36.96 73.5373913,36.6921739 C73.7286957,36.4243478 73.9965217,36.1947826 74.3026087,36.0417391 C74.6086957,35.8886957 74.9530435,35.8121739 75.373913,35.8121739 C75.68,35.8121739 75.986087,35.8504348 76.2156522,35.8886957 C76.4452174,35.9652174 76.6365217,36.0034783 76.7513043,36.1182609 L76.7513043,36.653913 C76.5982609,36.5773913 76.4069565,36.5008696 76.1773913,36.4243478 C75.9478261,36.3478261 75.7182609,36.3478261 75.4121739,36.3478261 C75.0678261,36.3478261 74.8,36.4243478 74.5704348,36.5391304 C74.3408696,36.653913 74.1495652,36.8452174 73.9965217,37.0747826 C73.8434783,37.3043478 73.7286957,37.5721739 73.6521739,37.8782609 C73.5756522,38.1843478 73.5373913,38.5286957 73.5373913,38.9113043 C73.5373913,39.6765217 73.7286957,40.2504348 74.0730435,40.6330435 C74.4556522,41.0156522 74.9147826,41.2069565 75.4886957,41.2069565 C75.7947826,41.2069565 76.0626087,41.1686957 76.2921739,41.1304348 C76.4834783,41.0921739 76.6747826,41.0156522 76.8278261,40.9008696 L76.8278261,41.3982609 C76.6747826,41.4747826 76.4834783,41.5513043 76.253913,41.6278261 C76.0243478,41.7043478 75.7565217,41.7043478 75.4121739,41.7043478 L75.3356522,41.7043478 L75.1443478,42.24 C75.4121739,42.2782609 75.6034783,42.3547826 75.7182609,42.5078261 C75.8330435,42.6608696 75.9095652,42.813913 75.9095652,43.0052174 C75.9095652,43.2730435 75.7947826,43.5026087 75.6034783,43.6556522 C75.373913,43.7321739 75.0678261,43.8086957 74.7234783,43.8086957" id="Path" fill="#575756"></path>
                <path d="M79.4678261,41.0921739 C79.7356522,41.0921739 80.0034783,41.053913 80.2330435,40.9391304 C80.4626087,40.8243478 80.653913,40.7095652 80.7686957,40.5947826 L80.7686957,38.8347826 C80.6921739,38.8347826 80.6156522,38.8347826 80.4626087,38.8347826 C80.3095652,38.8347826 80.2330435,38.8347826 80.1565217,38.8347826 C79.5443478,38.8347826 79.0852174,38.9495652 78.7791304,39.1408696 C78.4347826,39.3321739 78.2817391,39.6382609 78.2817391,40.0591304 C78.2817391,40.4034783 78.3965217,40.6713043 78.626087,40.8626087 C78.8173913,40.9773913 79.0852174,41.0921739 79.4678261,41.0921739 M78.1286957,34.5495652 C78.2434783,34.3965217 78.3965217,34.2817391 78.5495652,34.1286957 C78.7408696,34.013913 78.9321739,33.9373913 79.2,33.9373913 C79.3147826,33.9373913 79.4295652,33.9373913 79.5443478,33.9756522 C79.6591304,34.013913 79.7356522,34.0521739 79.8121739,34.0904348 C79.8886957,34.1286957 79.9652174,34.1669565 80.0417391,34.2052174 C80.1182609,34.2434783 80.1947826,34.2434783 80.3095652,34.2434783 C80.4626087,34.2434783 80.6156522,34.2052174 80.7304348,34.0904348 C80.8452174,33.9756522 80.9217391,33.8991304 80.96,33.8608696 L81.3043478,34.1669565 C81.1895652,34.32 81.0365217,34.4347826 80.8834783,34.5878261 C80.6921739,34.7026087 80.5008696,34.7791304 80.2330435,34.7791304 C80.1182609,34.7791304 80.0034783,34.7791304 79.9269565,34.7408696 C79.8504348,34.7026087 79.7356522,34.6643478 79.6591304,34.626087 C79.5826087,34.5878261 79.506087,34.5495652 79.4295652,34.5113043 C79.3530435,34.4730435 79.2382609,34.4730435 79.1617391,34.4730435 C79.0086957,34.4730435 78.8556522,34.5113043 78.7791304,34.626087 C78.6643478,34.7408696 78.5878261,34.8173913 78.5495652,34.8556522 L78.1286957,34.5495652 Z M79.3530435,41.5895652 C78.8173913,41.5895652 78.3582609,41.4365217 78.0521739,41.1686957 C77.746087,40.8626087 77.5930435,40.5182609 77.5930435,40.0591304 C77.5930435,39.5234783 77.8226087,39.1026087 78.2434783,38.7965217 C78.6643478,38.4904348 79.2765217,38.3373913 80.08,38.3373913 C80.1565217,38.3373913 80.2713043,38.3373913 80.4243478,38.3373913 C80.5391304,38.3373913 80.653913,38.3373913 80.7686957,38.3373913 L80.7686957,37.533913 C80.7686957,37.0747826 80.653913,36.7686957 80.4626087,36.5773913 C80.2713043,36.386087 79.9269565,36.3095652 79.4295652,36.3095652 C79.1617391,36.3095652 78.893913,36.3478261 78.6643478,36.4243478 C78.4347826,36.5008696 78.2434783,36.5773913 78.0904348,36.653913 L78.0904348,36.1182609 C78.2817391,36.0417391 78.4730435,35.9652174 78.7408696,35.8886957 C79.0086957,35.8121739 79.2765217,35.773913 79.5443478,35.773913 C79.8121739,35.773913 80.0417391,35.8121739 80.2713043,35.8504348 C80.5008696,35.8886957 80.6921739,36.0034783 80.8452174,36.1182609 C80.9982609,36.2330435 81.1513043,36.4243478 81.2278261,36.6156522 C81.3426087,36.8069565 81.3808696,37.0747826 81.3808696,37.3808696 L81.3808696,40.5565217 C81.3808696,40.7478261 81.4191304,40.9008696 81.4956522,40.9773913 C81.5721739,41.053913 81.6869565,41.1304348 81.84,41.1304348 C81.8782609,41.1304348 81.9165217,41.1304348 81.9547826,41.1304348 C81.9930435,41.1304348 82.0313043,41.1304348 82.0695652,41.1304348 L82.0695652,41.5895652 C81.9930435,41.5895652 81.9547826,41.6278261 81.8782609,41.6278261 C81.8017391,41.6278261 81.7252174,41.666087 81.6486957,41.666087 C81.4573913,41.666087 81.266087,41.6278261 81.1513043,41.5130435 C80.9982609,41.3982609 80.9217391,41.2452174 80.8452174,41.053913 C80.6921739,41.2069565 80.5008696,41.36 80.2330435,41.4747826 C79.9652174,41.5513043 79.6591304,41.5895652 79.3530435,41.5895652" id="Shape" fill="#575756"></path>
                <path d="M85.1686957,41.0921739 C85.5130435,41.0921739 85.8191304,41.0156522 86.0486957,40.8626087 C86.2782609,40.7095652 86.4695652,40.5182609 86.5843478,40.2886957 C86.6991304,40.0591304 86.813913,39.7913043 86.8521739,39.5234783 C86.8904348,39.2556522 86.9286957,38.9495652 86.9286957,38.72 C86.9286957,38.4521739 86.8904348,38.1843478 86.8521739,37.8782609 C86.813913,37.5721739 86.6991304,37.3426087 86.5843478,37.1130435 C86.4695652,36.8834783 86.2782609,36.6921739 86.0486957,36.5391304 C85.8191304,36.386087 85.5130435,36.3095652 85.1686957,36.3095652 C84.8243478,36.3095652 84.5182609,36.386087 84.2886957,36.5391304 C84.0591304,36.6921739 83.906087,36.8834783 83.7530435,37.1130435 C83.6382609,37.3426087 83.5234783,37.6104348 83.4852174,37.9165217 C83.4469565,38.2226087 83.4086957,38.4904348 83.4086957,38.7582609 C83.4086957,39.026087 83.4469565,39.293913 83.4852174,39.6 C83.5234783,39.8678261 83.6382609,40.1356522 83.7530435,40.3652174 C83.8678261,40.5947826 84.0591304,40.786087 84.2886957,40.9391304 C84.5182609,41.0156522 84.8243478,41.0921739 85.1686957,41.0921739 M85.1686957,41.5895652 C84.7478261,41.5895652 84.4034783,41.5130435 84.0973913,41.36 C83.7913043,41.2069565 83.5617391,41.0156522 83.3704348,40.7478261 C83.1791304,40.48 83.026087,40.173913 82.9495652,39.8295652 C82.8730435,39.4852174 82.8347826,39.1026087 82.8347826,38.6817391 C82.8347826,38.2991304 82.8730435,37.9165217 82.9878261,37.5721739 C83.0643478,37.2278261 83.2173913,36.9217391 83.4086957,36.6156522 C83.6,36.3478261 83.8295652,36.1182609 84.1356522,35.9652174 C84.4417391,35.8121739 84.786087,35.7356522 85.2069565,35.7356522 C85.6278261,35.7356522 85.9721739,35.8121739 86.2782609,35.9652174 C86.5843478,36.1182609 86.813913,36.3095652 87.0052174,36.5773913 C87.1965217,36.8452174 87.3495652,37.1513043 87.426087,37.4956522 C87.5026087,37.84 87.5791304,38.2226087 87.5791304,38.6434783 C87.5791304,39.026087 87.5408696,39.3704348 87.426087,39.7530435 C87.3495652,40.0973913 87.1965217,40.4034783 87.0052174,40.6713043 C86.813913,40.9391304 86.546087,41.1686957 86.2782609,41.3217391 C85.933913,41.5130435 85.5895652,41.5895652 85.1686957,41.5895652" id="Shape" fill="#575756"></path>
                <rect id="Rectangle" fill="#575756" x="88.8034783" y="37.8782609" width="2.21913043" height="1"></rect>
                <path d="M95.7669565,41.5895652 C95.2695652,41.5895652 94.8104348,41.5130435 94.3895652,41.36 C93.9686957,41.2069565 93.6243478,40.9773913 93.3182609,40.6713043 C93.0121739,40.3652174 92.7826087,39.9826087 92.6295652,39.5234783 C92.4765217,39.0643478 92.4,38.5669565 92.4,37.9547826 C92.4,37.4191304 92.4765217,36.9217391 92.5913043,36.4626087 C92.7443478,36.0034783 92.9356522,35.5826087 93.2417391,35.2382609 C93.5095652,34.893913 93.8921739,34.626087 94.3130435,34.4347826 C94.733913,34.2434783 95.2313043,34.1286957 95.8052174,34.1286957 C96.226087,34.1286957 96.5321739,34.1669565 96.8,34.2434783 C97.0678261,34.32 97.2591304,34.3965217 97.4121739,34.4730435 L97.4121739,35.0469565 C97.2208696,34.9321739 96.9913043,34.8556522 96.7234783,34.7791304 C96.4556522,34.7026087 96.1878261,34.7026087 95.8434783,34.7026087 C95.346087,34.7026087 94.9634783,34.7791304 94.5808696,34.9704348 C94.2365217,35.1234783 93.9304348,35.3530435 93.7008696,35.6591304 C93.4713043,35.9652174 93.3182609,36.3095652 93.2034783,36.6921739 C93.0886957,37.0747826 93.0504348,37.533913 93.0504348,37.9930435 C93.0504348,39.026087 93.28,39.7913043 93.7773913,40.2886957 C94.2747826,40.8243478 94.9252174,41.053913 95.7669565,41.053913 C96.0730435,41.053913 96.3408696,41.0156522 96.5704348,40.9773913 C96.8,40.9391304 96.9913043,40.9008696 97.1443478,40.8243478 L97.1443478,38.4521739 L95.7669565,38.4521739 L95.7669565,37.9547826 L97.7182609,37.9547826 L97.7182609,41.2069565 C97.5269565,41.2834783 97.2591304,41.36 96.9530435,41.4747826 C96.6852174,41.5513043 96.2643478,41.5895652 95.7669565,41.5895652" id="Path" fill="#575756"></path>
                <path d="M101.582609,36.2713043 C101.391304,36.2713043 101.238261,36.3095652 101.046957,36.3478261 C100.855652,36.386087 100.664348,36.5008696 100.511304,36.6156522 C100.358261,36.7686957 100.205217,36.9217391 100.090435,37.1513043 C99.9756522,37.3808696 99.8991304,37.6869565 99.8226087,38.0313043 L103.036522,38.0313043 L103.036522,37.9547826 C103.036522,37.7252174 102.998261,37.4956522 102.96,37.3043478 C102.883478,37.1130435 102.806957,36.9217391 102.692174,36.7686957 C102.577391,36.6156522 102.424348,36.5008696 102.233043,36.386087 C102.003478,36.3095652 101.812174,36.2713043 101.582609,36.2713043 M101.773913,41.5895652 C101.353043,41.5895652 100.970435,41.5130435 100.626087,41.3982609 C100.281739,41.2452174 100.013913,41.053913 99.8226087,40.8243478 C99.5930435,40.5565217 99.44,40.2504348 99.3252174,39.906087 C99.2104348,39.5617391 99.1721739,39.1408696 99.1721739,38.72 C99.1721739,38.2608696 99.2104348,37.8782609 99.3252174,37.533913 C99.44,37.1895652 99.5930435,36.8452174 99.8226087,36.6156522 C100.013913,36.3478261 100.281739,36.1565217 100.587826,36.0034783 C100.893913,35.8504348 101.238261,35.773913 101.582609,35.773913 C101.965217,35.773913 102.271304,35.8504348 102.53913,36.0034783 C102.806957,36.1565217 102.998261,36.3478261 103.151304,36.5773913 C103.304348,36.8069565 103.41913,37.0747826 103.495652,37.3426087 C103.572174,37.6104348 103.610435,37.9165217 103.610435,38.1843478 L103.610435,38.3756522 C103.610435,38.4521739 103.610435,38.5286957 103.610435,38.6052174 L99.7843478,38.6052174 L99.7843478,38.7582609 C99.7843478,39.1026087 99.8226087,39.4086957 99.8991304,39.7147826 C99.9756522,40.0208696 100.090435,40.2504348 100.243478,40.48 C100.396522,40.7095652 100.626087,40.8626087 100.855652,40.9773913 C101.123478,41.0921739 101.429565,41.1686957 101.773913,41.1686957 C102.118261,41.1686957 102.386087,41.1304348 102.615652,41.053913 C102.845217,40.9773913 103.074783,40.9008696 103.304348,40.786087 L103.304348,41.3217391 C103.151304,41.3982609 102.96,41.4747826 102.692174,41.5513043 C102.386087,41.5513043 102.08,41.5895652 101.773913,41.5895652" id="Shape" fill="#575756"></path>
                <path d="M104.987826,35.8504348 L105.6,35.8504348 L105.6,36.4626087 C105.753043,36.2330435 105.982609,36.08 106.212174,35.9652174 C106.441739,35.8504348 106.709565,35.773913 107.015652,35.773913 C107.092174,35.773913 107.168696,35.773913 107.283478,35.8121739 C107.36,35.8121739 107.474783,35.8504348 107.551304,35.8886957 L107.551304,36.4626087 C107.474783,36.4626087 107.398261,36.4243478 107.283478,36.386087 C107.168696,36.3478261 107.092174,36.3478261 106.977391,36.3478261 C106.633043,36.3478261 106.365217,36.4243478 106.173913,36.5391304 C105.982609,36.653913 105.791304,36.8069565 105.638261,36.96 L105.638261,41.5130435 L105.026087,41.5130435 L105.026087,35.8504348 L104.987826,35.8504348 Z" id="Path" fill="#575756"></path>
                <path d="M109.693913,41.0921739 C109.961739,41.0921739 110.229565,41.053913 110.45913,40.9391304 C110.688696,40.8243478 110.88,40.7095652 110.994783,40.5947826 L110.994783,38.8347826 C110.918261,38.8347826 110.841739,38.8347826 110.688696,38.8347826 C110.535652,38.8347826 110.45913,38.8347826 110.382609,38.8347826 C109.770435,38.8347826 109.311304,38.9495652 108.966957,39.1408696 C108.622609,39.3321739 108.469565,39.6382609 108.469565,40.0591304 C108.469565,40.4034783 108.584348,40.6713043 108.813913,40.8626087 C109.043478,40.9773913 109.349565,41.0921739 109.693913,41.0921739 M109.617391,41.5895652 C109.081739,41.5895652 108.622609,41.4365217 108.316522,41.1686957 C108.010435,40.8626087 107.857391,40.5182609 107.857391,40.0591304 C107.857391,39.5234783 108.086957,39.1026087 108.507826,38.7965217 C108.928696,38.4904348 109.54087,38.3373913 110.344348,38.3373913 C110.42087,38.3373913 110.535652,38.3373913 110.688696,38.3373913 C110.803478,38.3373913 110.918261,38.3373913 111.033043,38.3373913 L111.033043,37.533913 C111.033043,37.0747826 110.918261,36.7686957 110.726957,36.5773913 C110.535652,36.386087 110.191304,36.3095652 109.693913,36.3095652 C109.426087,36.3095652 109.158261,36.3478261 108.928696,36.4243478 C108.69913,36.5008696 108.507826,36.5773913 108.354783,36.653913 L108.354783,36.1182609 C108.546087,36.0417391 108.737391,35.9652174 109.005217,35.8886957 C109.273043,35.8121739 109.54087,35.773913 109.808696,35.773913 C110.076522,35.773913 110.306087,35.8121739 110.535652,35.8504348 C110.765217,35.8886957 110.956522,36.0034783 111.109565,36.1182609 C111.262609,36.2330435 111.415652,36.4243478 111.492174,36.6156522 C111.606957,36.8069565 111.645217,37.0747826 111.645217,37.3808696 L111.645217,40.5565217 C111.645217,40.7478261 111.683478,40.9008696 111.76,40.9773913 C111.836522,41.053913 111.951304,41.1304348 112.104348,41.1304348 C112.142609,41.1304348 112.18087,41.1304348 112.21913,41.1304348 C112.257391,41.1304348 112.295652,41.1304348 112.333913,41.1304348 L112.333913,41.5895652 C112.257391,41.5895652 112.21913,41.6278261 112.142609,41.6278261 C112.066087,41.6278261 111.989565,41.666087 111.913043,41.666087 C111.721739,41.666087 111.530435,41.6278261 111.415652,41.5130435 C111.262609,41.3982609 111.186087,41.2452174 111.109565,41.053913 C110.956522,41.2069565 110.765217,41.36 110.497391,41.4747826 C110.191304,41.5513043 109.885217,41.5895652 109.617391,41.5895652" id="Shape" fill="#575756"></path>
                <rect id="Rectangle" fill="#575756" x="113.52" y="33.5930435" width="1" height="7.92"></rect>
                <path d="M120.713043,41.053913 C120.98087,41.053913 121.210435,41.0156522 121.44,40.9391304 C121.669565,40.8626087 121.86087,40.7478261 122.013913,40.5947826 L122.013913,36.5391304 C121.89913,36.4626087 121.746087,36.4243478 121.554783,36.3478261 C121.363478,36.3095652 121.133913,36.2713043 120.904348,36.2713043 C120.598261,36.2713043 120.292174,36.3095652 120.062609,36.4626087 C119.833043,36.5773913 119.603478,36.7304348 119.450435,36.96 C119.297391,37.1895652 119.144348,37.4191304 119.067826,37.7252174 C118.991304,38.0313043 118.953043,38.3373913 118.953043,38.72 C118.953043,39.0643478 118.991304,39.3704348 119.029565,39.6382609 C119.106087,39.9443478 119.182609,40.173913 119.335652,40.4034783 C119.488696,40.6330435 119.68,40.786087 119.909565,40.9391304 C120.062609,40.9773913 120.368696,41.053913 120.713043,41.053913 M120.598261,41.5895652 C119.833043,41.5895652 119.25913,41.3217391 118.838261,40.8243478 C118.417391,40.3269565 118.226087,39.6 118.226087,38.6817391 C118.226087,38.2608696 118.302609,37.8782609 118.417391,37.533913 C118.532174,37.1895652 118.685217,36.8452174 118.914783,36.5773913 C119.144348,36.3095652 119.412174,36.1182609 119.718261,35.9652174 C120.024348,35.8121739 120.406957,35.7356522 120.789565,35.7356522 C121.057391,35.7356522 121.325217,35.773913 121.516522,35.8121739 C121.746087,35.8886957 121.89913,35.9269565 121.975652,36.0034783 L121.975652,33.5547826 L122.587826,33.5547826 L122.587826,41.4747826 L121.975652,41.4747826 L121.975652,41.0156522 C121.89913,41.1304348 121.707826,41.2452174 121.478261,41.36 C121.248696,41.5130435 120.942609,41.5895652 120.598261,41.5895652" id="Shape" fill="#575756"></path>
                <path d="M125.84,41.0921739 C126.107826,41.0921739 126.375652,41.053913 126.605217,40.9391304 C126.834783,40.8243478 127.026087,40.7095652 127.14087,40.5947826 L127.14087,38.8347826 C127.064348,38.8347826 126.949565,38.8347826 126.834783,38.8347826 C126.681739,38.8347826 126.605217,38.8347826 126.528696,38.8347826 C125.916522,38.8347826 125.457391,38.9495652 125.113043,39.1408696 C124.768696,39.3321739 124.615652,39.6382609 124.615652,40.0591304 C124.615652,40.4034783 124.730435,40.6713043 124.921739,40.8626087 C125.189565,40.9773913 125.457391,41.0921739 125.84,41.0921739 M125.725217,41.5895652 C125.189565,41.5895652 124.730435,41.4365217 124.424348,41.1686957 C124.118261,40.8626087 123.965217,40.5182609 123.965217,40.0591304 C123.965217,39.5234783 124.194783,39.1026087 124.615652,38.7965217 C125.036522,38.4904348 125.648696,38.3373913 126.413913,38.3373913 C126.490435,38.3373913 126.605217,38.3373913 126.758261,38.3373913 C126.873043,38.3373913 127.026087,38.3373913 127.102609,38.3373913 L127.102609,37.533913 C127.102609,37.0747826 126.987826,36.7686957 126.796522,36.5773913 C126.605217,36.386087 126.26087,36.3095652 125.763478,36.3095652 C125.495652,36.3095652 125.227826,36.3478261 124.998261,36.4243478 C124.768696,36.5008696 124.577391,36.5773913 124.424348,36.653913 L124.424348,36.1182609 C124.615652,36.0417391 124.806957,35.9652174 125.074783,35.8886957 C125.342609,35.8121739 125.610435,35.773913 125.878261,35.773913 C126.146087,35.773913 126.375652,35.8121739 126.605217,35.8504348 C126.834783,35.8886957 127.026087,36.0034783 127.17913,36.1182609 C127.332174,36.2330435 127.485217,36.4243478 127.561739,36.6156522 C127.676522,36.8069565 127.714783,37.0747826 127.714783,37.3808696 L127.714783,40.5565217 C127.714783,40.7478261 127.753043,40.9008696 127.829565,40.9773913 C127.906087,41.053913 128.02087,41.1304348 128.173913,41.1304348 C128.212174,41.1304348 128.250435,41.1304348 128.288696,41.1304348 C128.326957,41.1304348 128.365217,41.1304348 128.403478,41.1304348 L128.403478,41.5895652 C128.326957,41.5895652 128.288696,41.6278261 128.212174,41.6278261 C128.135652,41.6278261 128.05913,41.666087 127.982609,41.666087 C127.791304,41.666087 127.6,41.6278261 127.485217,41.5130435 C127.332174,41.3982609 127.255652,41.2452174 127.17913,41.053913 C127.026087,41.2069565 126.834783,41.36 126.566957,41.4747826 C126.337391,41.5513043 126.031304,41.5895652 125.725217,41.5895652" id="Shape" fill="#575756"></path>
                <path d="M133.874783,41.5895652 C133.492174,41.5895652 133.147826,41.5513043 132.803478,41.4747826 C132.45913,41.3982609 132.191304,41.3217391 132,41.2452174 L132,40.6713043 C132.114783,40.7095652 132.229565,40.7478261 132.382609,40.8243478 C132.535652,40.8626087 132.688696,40.9008696 132.841739,40.9391304 C132.994783,40.9773913 133.147826,41.0156522 133.33913,41.0156522 C133.492174,41.053913 133.683478,41.053913 133.836522,41.053913 C134.066087,41.053913 134.295652,41.0156522 134.486957,40.9773913 C134.678261,40.9391304 134.869565,40.8243478 135.022609,40.7095652 C135.175652,40.5947826 135.290435,40.4417391 135.366957,40.2886957 C135.443478,40.0973913 135.481739,39.906087 135.481739,39.6382609 C135.481739,39.4086957 135.443478,39.2173913 135.366957,39.0643478 C135.290435,38.9113043 135.175652,38.7582609 135.022609,38.6434783 C134.869565,38.5286957 134.678261,38.3756522 134.448696,38.2608696 C134.21913,38.146087 133.989565,38.0313043 133.683478,37.8782609 C133.492174,37.8017391 133.30087,37.6869565 133.109565,37.5721739 C132.918261,37.4573913 132.765217,37.3426087 132.612174,37.1895652 C132.45913,37.0365217 132.344348,36.8834783 132.267826,36.653913 C132.191304,36.4626087 132.114783,36.1947826 132.114783,35.8886957 C132.114783,35.3147826 132.306087,34.8556522 132.688696,34.5495652 C133.071304,34.2434783 133.606957,34.0904348 134.21913,34.0904348 C134.563478,34.0904348 134.907826,34.1286957 135.175652,34.2052174 C135.481739,34.2817391 135.673043,34.3582609 135.826087,34.3965217 L135.826087,34.9704348 C135.673043,34.893913 135.443478,34.8173913 135.137391,34.7408696 C134.831304,34.6643478 134.563478,34.626087 134.21913,34.626087 C133.76,34.626087 133.377391,34.7408696 133.109565,34.9704348 C132.841739,35.2 132.688696,35.506087 132.688696,35.8886957 C132.688696,36.08 132.726957,36.2713043 132.803478,36.386087 C132.88,36.5391304 132.956522,36.653913 133.071304,36.7686957 C133.186087,36.8834783 133.33913,36.9982609 133.530435,37.0747826 C133.721739,37.1895652 133.951304,37.266087 134.18087,37.3808696 C134.372174,37.4573913 134.601739,37.5721739 134.831304,37.6869565 C135.06087,37.8017391 135.252174,37.9547826 135.443478,38.1078261 C135.634783,38.2608696 135.787826,38.4521739 135.902609,38.72 C136.017391,38.9495652 136.093913,39.2556522 136.093913,39.5617391 C136.093913,39.8678261 136.055652,40.0973913 135.94087,40.3652174 C135.826087,40.5947826 135.673043,40.8243478 135.481739,40.9773913 C135.290435,41.1686957 135.06087,41.2834783 134.793043,41.3982609 C134.525217,41.5513043 134.21913,41.5895652 133.874783,41.5895652" id="Path" fill="#575756"></path>
                <path d="M139.001739,41.0921739 C139.269565,41.0921739 139.537391,41.053913 139.766957,40.9391304 C139.996522,40.8243478 140.187826,40.7095652 140.302609,40.5947826 L140.302609,38.8347826 C140.226087,38.8347826 140.111304,38.8347826 139.996522,38.8347826 C139.843478,38.8347826 139.766957,38.8347826 139.690435,38.8347826 C139.078261,38.8347826 138.61913,38.9495652 138.274783,39.1408696 C137.930435,39.3321739 137.777391,39.6382609 137.777391,40.0591304 C137.777391,40.4034783 137.892174,40.6713043 138.083478,40.8626087 C138.313043,40.9773913 138.61913,41.0921739 139.001739,41.0921739 M138.886957,41.5895652 C138.351304,41.5895652 137.892174,41.4365217 137.586087,41.1686957 C137.28,40.8626087 137.126957,40.5182609 137.126957,40.0591304 C137.126957,39.5234783 137.356522,39.1026087 137.777391,38.7965217 C138.198261,38.4904348 138.810435,38.3373913 139.575652,38.3373913 C139.652174,38.3373913 139.766957,38.3373913 139.92,38.3373913 C140.034783,38.3373913 140.187826,38.3373913 140.264348,38.3373913 L140.264348,37.533913 C140.264348,37.0747826 140.149565,36.7686957 139.958261,36.5773913 C139.766957,36.386087 139.422609,36.3095652 138.925217,36.3095652 C138.657391,36.3095652 138.389565,36.3478261 138.16,36.4243478 C137.930435,36.5008696 137.73913,36.5773913 137.586087,36.653913 L137.586087,36.1182609 C137.777391,36.0417391 137.968696,35.9652174 138.236522,35.8886957 C138.504348,35.8121739 138.772174,35.773913 139.04,35.773913 C139.307826,35.773913 139.537391,35.8121739 139.766957,35.8504348 C139.996522,35.8886957 140.187826,36.0034783 140.34087,36.1182609 C140.493913,36.2330435 140.646957,36.4243478 140.723478,36.6156522 C140.838261,36.8069565 140.876522,37.0747826 140.876522,37.3808696 L140.876522,40.5565217 C140.876522,40.7478261 140.914783,40.9008696 140.991304,40.9773913 C141.067826,41.053913 141.182609,41.1304348 141.335652,41.1304348 C141.373913,41.1304348 141.412174,41.1304348 141.450435,41.1304348 C141.488696,41.1304348 141.526957,41.1304348 141.565217,41.1304348 L141.565217,41.5895652 C141.488696,41.5895652 141.450435,41.6278261 141.373913,41.6278261 C141.297391,41.6278261 141.22087,41.666087 141.144348,41.666087 C140.953043,41.666087 140.761739,41.6278261 140.646957,41.5130435 C140.493913,41.3982609 140.417391,41.2452174 140.34087,41.053913 C140.187826,41.2069565 139.996522,41.36 139.728696,41.4747826 C139.46087,41.5513043 139.154783,41.5895652 138.886957,41.5895652" id="Shape" fill="#575756"></path>
                <path d="M145.582609,33.6313043 L146.462609,33.6313043 L145.046957,35.0086957 L144.473043,35.0086957 L145.582609,33.6313043 Z M144.549565,41.5895652 C144.205217,41.5895652 143.937391,41.5513043 143.669565,41.4365217 C143.44,41.3217391 143.248696,41.2069565 143.095652,41.0156522 C142.942609,40.8243478 142.866087,40.6330435 142.789565,40.3652174 C142.713043,40.1356522 142.713043,39.8678261 142.713043,39.5617391 L142.713043,35.8121739 L143.286957,35.8121739 L143.286957,39.4086957 C143.286957,39.6382609 143.325217,39.8678261 143.363478,40.0591304 C143.401739,40.2504348 143.478261,40.4417391 143.593043,40.5565217 C143.707826,40.7095652 143.822609,40.8243478 144.013913,40.9008696 C144.205217,40.9773913 144.396522,41.0156522 144.702609,41.0156522 C145.008696,41.0156522 145.276522,40.9773913 145.506087,40.8626087 C145.735652,40.7478261 145.965217,40.6713043 146.118261,40.5565217 L146.118261,35.773913 L146.730435,35.773913 L146.730435,41.4365217 L146.156522,41.4365217 L146.156522,40.9773913 C146.08,41.0156522 146.003478,41.0921739 145.888696,41.1686957 C145.773913,41.2452174 145.65913,41.2834783 145.506087,41.36 C145.353043,41.3982609 145.2,41.4747826 145.046957,41.5130435 C144.932174,41.5895652 144.74087,41.5895652 144.549565,41.5895652" id="Shape" fill="#575756"></path>
                <path d="M150.633043,41.053913 C150.90087,41.053913 151.130435,41.0156522 151.36,40.9391304 C151.589565,40.8626087 151.78087,40.7478261 151.933913,40.5947826 L151.933913,36.5391304 C151.81913,36.4626087 151.666087,36.4243478 151.474783,36.3478261 C151.283478,36.3095652 151.053913,36.2713043 150.824348,36.2713043 C150.48,36.2713043 150.212174,36.3095652 149.982609,36.4626087 C149.753043,36.5773913 149.523478,36.7304348 149.370435,36.96 C149.217391,37.1895652 149.064348,37.4191304 148.987826,37.7252174 C148.911304,38.0313043 148.873043,38.3373913 148.873043,38.72 C148.873043,39.0643478 148.911304,39.3704348 148.949565,39.6382609 C149.026087,39.9443478 149.102609,40.173913 149.255652,40.4034783 C149.408696,40.6330435 149.6,40.786087 149.829565,40.9391304 C150.02087,40.9773913 150.326957,41.053913 150.633043,41.053913 M150.518261,41.5895652 C149.753043,41.5895652 149.17913,41.3217391 148.758261,40.8243478 C148.337391,40.3269565 148.146087,39.6 148.146087,38.6817391 C148.146087,38.2608696 148.222609,37.8782609 148.337391,37.533913 C148.452174,37.1895652 148.605217,36.8452174 148.834783,36.5773913 C149.064348,36.3095652 149.332174,36.1182609 149.638261,35.9652174 C149.944348,35.8121739 150.326957,35.7356522 150.709565,35.7356522 C150.977391,35.7356522 151.206957,35.773913 151.436522,35.8121739 C151.666087,35.8886957 151.81913,35.9269565 151.895652,36.0034783 L151.895652,33.5547826 L152.507826,33.5547826 L152.507826,41.4747826 L151.895652,41.4747826 L151.895652,41.0156522 C151.81913,41.1304348 151.627826,41.2452174 151.398261,41.36 C151.168696,41.5130435 150.862609,41.5895652 150.518261,41.5895652" id="Shape" fill="#575756"></path>
                <path d="M156.410435,36.2713043 C156.21913,36.2713043 156.066087,36.3095652 155.836522,36.3478261 C155.645217,36.386087 155.453913,36.5008696 155.30087,36.6156522 C155.147826,36.7686957 154.994783,36.9217391 154.88,37.1513043 C154.765217,37.3808696 154.688696,37.6869565 154.612174,38.0313043 L157.787826,38.0313043 L157.787826,37.9547826 C157.787826,37.7252174 157.749565,37.4956522 157.711304,37.3043478 C157.634783,37.1130435 157.558261,36.9217391 157.443478,36.7686957 C157.328696,36.6156522 157.175652,36.5008696 156.984348,36.386087 C156.831304,36.3095652 156.64,36.2713043 156.410435,36.2713043 M156.601739,41.5895652 C156.18087,41.5895652 155.798261,41.5130435 155.453913,41.3982609 C155.147826,41.2452174 154.841739,41.053913 154.650435,40.8243478 C154.42087,40.5565217 154.267826,40.2504348 154.153043,39.906087 C154.038261,39.5617391 154,39.1408696 154,38.72 C154,38.2608696 154.038261,37.8782609 154.153043,37.533913 C154.267826,37.1895652 154.42087,36.8452174 154.650435,36.6156522 C154.841739,36.3478261 155.109565,36.1565217 155.415652,36.0034783 C155.721739,35.8504348 156.066087,35.773913 156.448696,35.773913 C156.831304,35.773913 157.137391,35.8504348 157.405217,36.0034783 C157.673043,36.1565217 157.864348,36.3478261 158.017391,36.5773913 C158.170435,36.8069565 158.285217,37.0747826 158.361739,37.3426087 C158.438261,37.6104348 158.476522,37.9165217 158.476522,38.1843478 L158.476522,38.3756522 C158.476522,38.4521739 158.476522,38.5286957 158.476522,38.6052174 L154.650435,38.6052174 L154.650435,38.7582609 C154.650435,39.1026087 154.688696,39.4086957 154.765217,39.7147826 C154.841739,40.0208696 154.956522,40.2504348 155.109565,40.48 C155.262609,40.7095652 155.492174,40.8626087 155.721739,40.9773913 C155.989565,41.0921739 156.257391,41.1686957 156.64,41.1686957 C156.946087,41.1686957 157.252174,41.1304348 157.481739,41.053913 C157.711304,40.9773913 157.94087,40.9008696 158.170435,40.786087 L158.170435,41.3217391 C158.017391,41.3982609 157.826087,41.4747826 157.558261,41.5513043 C157.213913,41.5513043 156.907826,41.5895652 156.601739,41.5895652" id="Shape" fill="#575756"></path>
                <path d="M63.7808696,23.2626087 C70.2469565,23.2626087 71.7773913,19.36 71.7773913,14.4626087 C71.7773913,9.56521739 70.3234783,5.58608696 64.0486957,5.58608696 L61.026087,5.58608696 L61.026087,23.2626087 L63.7808696,23.2626087 Z M54.9808696,0.688695652 L64.5843478,0.688695652 C74.493913,0.688695652 78.1286957,7.30782609 78.1286957,14.4626087 C78.1286957,21.1965217 74.6469565,28.2365217 64.4695652,28.2365217 L55.0191304,28.2365217 L55.0191304,0.688695652 L54.9808696,0.688695652 Z" id="Shape" fill="#575756"></path>
                <path d="M81.84,14.7686957 C81.84,7.07826087 86.0486957,0.306086957 95.9965217,0.306086957 C99.5930435,0.306086957 101.926957,0.91826087 103.725217,1.72173913 L103.725217,6.88695652 C101.544348,5.85391304 99.2486957,5.28 96.3026087,5.28 C90.946087,5.28 88.2678261,8.64695652 88.2678261,14.7304348 C88.2678261,20.6608696 91.0991304,23.6834783 96.1495652,23.6834783 C97.5269565,23.6834783 98.4069565,23.4921739 99.3252174,23.186087 L99.3252174,17.7530435 L95.04,17.7530435 L95.04,13.2 L105.17913,13.2 L105.17913,26.8973913 C102.806957,27.7391304 99.9756522,28.5428027 95.8434783,28.5428027 C86.7373913,28.5808696 81.84,22.9565217 81.84,14.7686957" id="Path" fill="#575756"></path>
                <path d="M110.038261,27.0121739 L110.038261,21.7321739 C112.027826,22.6504348 114.591304,23.6069565 117.231304,23.6069565 C120.292174,23.6069565 121.822609,22.5356522 121.822609,20.5078261 C121.822609,18.1356522 119.756522,17.8678261 115.586087,16.0313043 C112.754783,14.7304348 110.076522,12.7408696 110.076522,8.14956522 C110.076522,2.79304348 114.093913,0.267826087 119.68,0.267826087 C122.664348,0.267826087 125.151304,0.956521739 126.566957,1.49217391 L126.566957,6.61913043 C125.151304,5.96869565 122.626087,5.16521739 120.10087,5.16521739 C117.346087,5.16521739 116.083478,6.19826087 116.083478,7.95826087 C116.083478,9.83304348 117.613913,10.4069565 120.406957,11.44 C124.003478,13.2382609 128.135652,14.0417391 128.135652,20.24 C128.135652,25.5965217 123.926957,28.5043478 118.302609,28.5043478 C114.897391,28.5426087 112.142609,27.9304348 110.038261,27.0121739" id="Path" fill="#575756"></path>
                <path d="M137.394783,11.4017391 C137.624348,11.4017391 137.815652,11.3634783 138.006957,11.2869565 C138.198261,11.2104348 138.351304,11.133913 138.504348,11.0191304 L138.504348,7.57565217 C138.389565,7.5373913 138.274783,7.46086957 138.121739,7.4226087 C137.968696,7.38434783 137.777391,7.34608696 137.547826,7.34608696 C137.28,7.34608696 137.012174,7.38434783 136.82087,7.49913043 C136.629565,7.61391304 136.438261,7.72869565 136.285217,7.92 C136.132174,8.11130435 136.017391,8.3026087 135.94087,8.57043478 C135.864348,8.83826087 135.826087,9.10608696 135.826087,9.41217391 C135.826087,9.68 135.864348,9.94782609 135.902609,10.1773913 C135.94087,10.4069565 136.055652,10.6365217 136.170435,10.8278261 C136.285217,11.0191304 136.438261,11.1721739 136.667826,11.2869565 C136.85913,11.3634783 137.126957,11.4017391 137.394783,11.4017391 M137.318261,11.8608696 C136.667826,11.8608696 136.170435,11.6313043 135.826087,11.2104348 C135.481739,10.7895652 135.328696,10.1773913 135.328696,9.37391304 C135.328696,9.02956522 135.366957,8.68521739 135.481739,8.37913043 C135.596522,8.07304348 135.711304,7.80521739 135.902609,7.57565217 C136.093913,7.34608696 136.323478,7.15478261 136.591304,7.04 C136.85913,6.92521739 137.165217,6.84869565 137.509565,6.84869565 C137.73913,6.84869565 137.968696,6.88695652 138.121739,6.92521739 C138.313043,6.96347826 138.427826,7.04 138.504348,7.07826087 L138.504348,5.01217391 L139.001739,5.01217391 L139.001739,11.746087 L138.504348,11.746087 L138.504348,11.3634783 C138.427826,11.44 138.274783,11.5547826 138.083478,11.6695652 C137.853913,11.8226087 137.586087,11.8608696 137.318261,11.8608696" id="Shape" fill="#575756"></path>
                <path d="M142.10087,7.30782609 C141.947826,7.30782609 141.794783,7.34608696 141.641739,7.38434783 C141.488696,7.4226087 141.335652,7.49913043 141.182609,7.61391304 C141.029565,7.72869565 140.914783,7.88173913 140.8,8.07304348 C140.685217,8.26434783 140.608696,8.53217391 140.570435,8.83826087 L143.286957,8.83826087 L143.286957,8.8 C143.286957,8.60869565 143.248696,8.4173913 143.210435,8.26434783 C143.172174,8.07304348 143.095652,7.92 142.98087,7.80521739 C142.866087,7.65217391 142.751304,7.57565217 142.598261,7.46086957 C142.483478,7.34608696 142.292174,7.30782609 142.10087,7.30782609 M142.253913,11.8608696 C141.871304,11.8608696 141.565217,11.7843478 141.297391,11.6695652 C141.029565,11.5547826 140.8,11.4017391 140.608696,11.1721739 C140.417391,10.9426087 140.302609,10.7130435 140.187826,10.4069565 C140.111304,10.1008696 140.034783,9.75652174 140.034783,9.41217391 C140.034783,9.02956522 140.073043,8.68521739 140.187826,8.37913043 C140.264348,8.07304348 140.417391,7.80521739 140.608696,7.57565217 C140.8,7.34608696 140.991304,7.19304348 141.25913,7.07826087 C141.526957,6.96347826 141.794783,6.88695652 142.13913,6.88695652 C142.445217,6.88695652 142.713043,6.96347826 142.942609,7.07826087 C143.172174,7.19304348 143.325217,7.34608696 143.478261,7.5373913 C143.631304,7.72869565 143.707826,7.95826087 143.784348,8.18782609 C143.86087,8.4173913 143.86087,8.68521739 143.86087,8.91478261 L143.86087,9.06782609 C143.86087,9.10608696 143.86087,9.1826087 143.86087,9.25913043 L140.608696,9.25913043 L140.608696,9.37391304 C140.608696,9.64173913 140.646957,9.90956522 140.723478,10.1773913 C140.8,10.4452174 140.876522,10.6365217 141.029565,10.8278261 C141.182609,11.0191304 141.335652,11.1721739 141.565217,11.2486957 C141.794783,11.3634783 142.024348,11.4017391 142.330435,11.4017391 C142.598261,11.4017391 142.866087,11.3634783 143.057391,11.3252174 C143.248696,11.2869565 143.44,11.2104348 143.631304,11.0956522 L143.631304,11.5547826 C143.516522,11.6313043 143.325217,11.6695652 143.095652,11.746087 C142.789565,11.8226087 142.56,11.8608696 142.253913,11.8608696" id="Shape" fill="#575756"></path>
                <path d="M146.003478,11.8608696 C145.812174,11.8608696 145.582609,11.8226087 145.314783,11.7843478 C145.046957,11.746087 144.855652,11.6695652 144.664348,11.5930435 L144.664348,11.133913 C144.817391,11.2104348 145.008696,11.2869565 145.238261,11.3252174 C145.467826,11.4017391 145.697391,11.4017391 145.926957,11.4017391 C146.309565,11.4017391 146.577391,11.3252174 146.806957,11.1721739 C146.998261,11.0191304 147.113043,10.7895652 147.113043,10.4834783 C147.113043,10.3304348 147.074783,10.2156522 147.036522,10.1008696 C146.998261,9.98608696 146.921739,9.90956522 146.806957,9.83304348 C146.730435,9.75652174 146.577391,9.68 146.462609,9.64173913 C146.309565,9.60347826 146.156522,9.52695652 146.003478,9.45043478 C145.812174,9.37391304 145.62087,9.2973913 145.467826,9.22086957 C145.314783,9.14434783 145.161739,9.02956522 145.046957,8.95304348 C144.932174,8.83826087 144.855652,8.72347826 144.77913,8.57043478 C144.702609,8.4173913 144.702609,8.26434783 144.702609,8.07304348 C144.702609,7.65217391 144.855652,7.30782609 145.123478,7.11652174 C145.391304,6.92521739 145.773913,6.81043478 146.233043,6.81043478 C146.50087,6.81043478 146.730435,6.84869565 146.921739,6.88695652 C147.113043,6.92521739 147.266087,7.00173913 147.38087,7.04 L147.38087,7.49913043 C147.266087,7.46086957 147.113043,7.38434783 146.921739,7.34608696 C146.692174,7.26956522 146.50087,7.26956522 146.271304,7.26956522 C145.926957,7.26956522 145.697391,7.34608696 145.506087,7.46086957 C145.314783,7.61391304 145.238261,7.80521739 145.238261,8.07304348 C145.238261,8.18782609 145.276522,8.3026087 145.314783,8.4173913 C145.353043,8.53217391 145.429565,8.60869565 145.544348,8.64695652 C145.62087,8.72347826 145.735652,8.76173913 145.850435,8.83826087 C145.965217,8.87652174 146.118261,8.95304348 146.233043,8.99130435 C146.386087,9.06782609 146.577391,9.10608696 146.730435,9.1826087 C146.883478,9.25913043 147.036522,9.33565217 147.189565,9.45043478 C147.342609,9.56521739 147.41913,9.68 147.533913,9.83304348 C147.610435,9.98608696 147.648696,10.1773913 147.648696,10.4069565 C147.648696,10.6365217 147.610435,10.8278261 147.533913,10.9808696 C147.457391,11.133913 147.342609,11.2869565 147.189565,11.4017391 C147.036522,11.5165217 146.883478,11.6313043 146.692174,11.6695652 C146.50087,11.8226087 146.271304,11.8608696 146.003478,11.8608696" id="Path" fill="#575756"></path>
                <path d="M150.403478,11.4017391 C150.633043,11.4017391 150.824348,11.3634783 151.015652,11.2869565 C151.206957,11.2104348 151.36,11.133913 151.513043,11.0191304 L151.513043,7.57565217 C151.398261,7.5373913 151.283478,7.46086957 151.130435,7.4226087 C150.977391,7.38434783 150.786087,7.34608696 150.556522,7.34608696 C150.288696,7.34608696 150.02087,7.38434783 149.829565,7.49913043 C149.638261,7.61391304 149.446957,7.72869565 149.293913,7.92 C149.14087,8.11130435 149.026087,8.3026087 148.949565,8.57043478 C148.873043,8.83826087 148.834783,9.10608696 148.834783,9.41217391 C148.834783,9.68 148.873043,9.94782609 148.911304,10.1773913 C148.949565,10.4069565 149.064348,10.6365217 149.17913,10.8278261 C149.293913,11.0191304 149.446957,11.1721739 149.676522,11.2869565 C149.906087,11.3634783 150.135652,11.4017391 150.403478,11.4017391 M150.326957,11.8608696 C149.676522,11.8608696 149.17913,11.6313043 148.834783,11.2104348 C148.490435,10.7895652 148.337391,10.1773913 148.337391,9.37391304 C148.337391,9.02956522 148.375652,8.68521739 148.490435,8.37913043 C148.605217,8.07304348 148.72,7.80521739 148.911304,7.57565217 C149.102609,7.34608696 149.332174,7.15478261 149.6,7.04 C149.867826,6.92521739 150.173913,6.84869565 150.518261,6.84869565 C150.747826,6.84869565 150.93913,6.88695652 151.130435,6.92521739 C151.321739,6.96347826 151.436522,7.04 151.513043,7.07826087 L151.513043,5.01217391 L152.010435,5.01217391 L152.010435,11.746087 L151.513043,11.746087 L151.513043,11.3634783 C151.436522,11.44 151.283478,11.5547826 151.092174,11.6695652 C150.862609,11.8226087 150.633043,11.8608696 150.326957,11.8608696" id="Shape" fill="#575756"></path>
                <path d="M155.147826,7.30782609 C154.994783,7.30782609 154.841739,7.34608696 154.688696,7.38434783 C154.535652,7.4226087 154.382609,7.49913043 154.229565,7.61391304 C154.076522,7.72869565 153.961739,7.88173913 153.846957,8.07304348 C153.732174,8.26434783 153.655652,8.53217391 153.617391,8.83826087 L156.333913,8.83826087 L156.333913,8.8 C156.333913,8.60869565 156.295652,8.4173913 156.257391,8.26434783 C156.21913,8.07304348 156.142609,7.92 156.027826,7.80521739 C155.913043,7.65217391 155.798261,7.57565217 155.645217,7.46086957 C155.530435,7.34608696 155.33913,7.30782609 155.147826,7.30782609 M155.30087,11.8608696 C154.918261,11.8608696 154.612174,11.7843478 154.344348,11.6695652 C154.076522,11.5547826 153.846957,11.4017391 153.655652,11.1721739 C153.464348,10.9426087 153.349565,10.7130435 153.234783,10.4069565 C153.158261,10.1008696 153.081739,9.75652174 153.081739,9.41217391 C153.081739,9.02956522 153.12,8.68521739 153.234783,8.37913043 C153.349565,8.07304348 153.464348,7.80521739 153.655652,7.57565217 C153.846957,7.34608696 154.038261,7.19304348 154.306087,7.07826087 C154.573913,6.96347826 154.841739,6.88695652 155.186087,6.88695652 C155.492174,6.88695652 155.76,6.96347826 155.989565,7.07826087 C156.21913,7.19304348 156.372174,7.34608696 156.525217,7.5373913 C156.678261,7.72869565 156.754783,7.95826087 156.831304,8.18782609 C156.907826,8.4173913 156.907826,8.68521739 156.907826,8.91478261 L156.907826,9.06782609 C156.907826,9.10608696 156.907826,9.1826087 156.907826,9.25913043 L153.655652,9.25913043 L153.655652,9.37391304 C153.655652,9.64173913 153.693913,9.90956522 153.770435,10.1773913 C153.846957,10.4452174 153.923478,10.6365217 154.076522,10.8278261 C154.229565,11.0191304 154.382609,11.1721739 154.612174,11.2486957 C154.841739,11.3634783 155.071304,11.4017391 155.377391,11.4017391 C155.645217,11.4017391 155.913043,11.3634783 156.104348,11.3252174 C156.295652,11.2869565 156.486957,11.2104348 156.678261,11.0956522 L156.678261,11.5547826 C156.563478,11.6313043 156.372174,11.6695652 156.142609,11.746087 C155.836522,11.8226087 155.568696,11.8608696 155.30087,11.8608696" id="Shape" fill="#575756"></path>
                <path d="M137.012174,16.8347826 C136.591304,17.0643478 135.864348,17.2556522 135.443478,17.3704348 L135.443478,16.6434783 C135.94087,16.5669565 136.782609,16.2608696 137.203478,15.9165217 L137.930435,15.9165217 L137.930435,23.2626087 L137.050435,23.2626087 L137.050435,16.8347826 L137.012174,16.8347826 Z" id="Path" fill="#575756"></path>
                <path d="M142.368696,19.0156522 C142.942609,18.7478261 143.593043,18.3269565 143.593043,17.5617391 C143.593043,16.9495652 142.98087,16.5286957 142.292174,16.5286957 C141.565217,16.5286957 140.991304,16.9113043 140.991304,17.5234783 C140.991304,18.3269565 141.641739,18.6330435 142.368696,19.0156522 M143.669565,21.3878261 C143.669565,20.6991304 143.057391,20.2782609 142.13913,19.7808696 C141.450435,20.1252174 140.8,20.546087 140.8,21.426087 C140.8,22.1530435 141.526957,22.6121739 142.292174,22.6121739 C143.095652,22.6121739 143.669565,22.1913043 143.669565,21.3878261 M139.92,21.4643478 C139.92,20.4313043 140.608696,19.8956522 141.526957,19.4365217 C140.685217,18.9773913 140.073043,18.5565217 140.073043,17.6 C140.073043,16.6052174 141.067826,15.84 142.215652,15.84 C143.593043,15.84 144.396522,16.5669565 144.396522,17.5234783 C144.396522,18.5565217 143.707826,18.9773913 142.942609,19.36 C143.822609,19.8191304 144.549565,20.2017391 144.549565,21.3878261 C144.549565,22.6504348 143.478261,23.3773913 142.253913,23.3773913 C140.838261,23.3773913 139.92,22.3826087 139.92,21.4643478" id="Shape" fill="#575756"></path>
                <path d="M149.944348,19.3982609 C149.944348,19.2452174 149.982609,19.0921739 149.982609,18.9391304 C149.982609,17.5617391 149.408696,16.5669565 148.452174,16.5669565 C147.457391,16.5669565 146.96,17.293913 146.96,18.2886957 C146.96,19.2834783 147.457391,19.933913 148.375652,19.933913 C149.064348,19.933913 149.561739,19.7043478 149.944348,19.3982609 M146.424348,23.186087 L146.424348,22.3826087 C146.692174,22.4973913 147.113043,22.6121739 147.686957,22.6121739 C148.949565,22.6121739 149.829565,21.8086957 149.944348,20.0486957 C149.561739,20.3930435 148.834783,20.6608696 148.26087,20.6608696 C146.883478,20.6608696 146.041739,19.7808696 146.041739,18.3269565 C146.041739,17.026087 146.883478,15.84 148.375652,15.84 C150.05913,15.84 150.90087,17.1791304 150.90087,19.36 C150.90087,22.1147826 149.523478,23.3773913 147.801739,23.3773913 C147.189565,23.3773913 146.692174,23.2626087 146.424348,23.186087" id="Shape" fill="#575756"></path>
                <path d="M156.295652,19.3982609 C156.295652,19.2452174 156.333913,19.0921739 156.333913,18.9391304 C156.333913,17.5617391 155.76,16.5669565 154.803478,16.5669565 C153.808696,16.5669565 153.311304,17.293913 153.311304,18.2886957 C153.311304,19.2834783 153.808696,19.933913 154.726957,19.933913 C155.415652,19.933913 155.913043,19.7043478 156.295652,19.3982609 M152.775652,23.186087 L152.775652,22.3826087 C153.043478,22.4973913 153.464348,22.6121739 154.038261,22.6121739 C155.30087,22.6121739 156.18087,21.8086957 156.295652,20.0486957 C155.913043,20.3930435 155.186087,20.6608696 154.612174,20.6608696 C153.234783,20.6608696 152.393043,19.7808696 152.393043,18.3269565 C152.393043,17.026087 153.234783,15.84 154.726957,15.84 C156.410435,15.84 157.252174,17.1791304 157.252174,19.36 C157.252174,22.1147826 155.874783,23.3773913 154.153043,23.3773913 C153.54087,23.3773913 153.043478,23.2626087 152.775652,23.186087" id="Shape" fill="#575756"></path>
                <rect id="Rectangle" fill="#575756" x="134.21913" y="27.8156522" width="24.066087" height="1"></rect>
                <rect id="Rectangle" fill="#575756" x="134.21913" y="0.688695652" width="24.066087" height="1"></rect>
            </g>
        </g>
    </g>
</svg>