<?xml version="1.0" encoding="UTF-8"?>
<svg width="55px" height="44px" viewBox="0 0 55 44" version="1.1" xmlns="http://www.w3.org/2000/svg" xmlns:xlink="http://www.w3.org/1999/xlink">
    <!-- Generator: Sketch 63.1 (92452) - https://sketch.com -->
    <title>easy-icon copy</title>
    <desc>Created with Sketch.</desc>
    <g id="Page-1" stroke="none" stroke-width="1" fill="none" fill-rule="evenodd">
        <g id="easy-icon-copy" fill="#FFFFFF" fill-rule="nonzero">
            <path d="M54.5732072,20.1742129 C51.8329567,16.7561697 48.9261779,13.8445034 45.9596788,11.6014845 C45.1087687,10.978302 43.9178705,11.1443464 43.269053,11.9766327 C42.6202354,12.8089191 42.7477185,14.006996 43.5570786,14.6834776 C45.9057007,16.4765117 48.2543228,18.7736208 50.5466698,21.4620211 C47.3045377,25.2161142 36.234431,36.7016598 22.5400694,33.7888425 C21.5340092,33.5644256 20.4728225,34.2929177 20.2431284,35.3010677 C20.0308917,36.3536105 20.7049111,37.3808647 21.7533671,37.6027803 C23.517761,37.9775306 25.3165792,38.1653852 27.1201695,38.1632831 C43.055197,38.1632831 54.1253037,23.2596586 54.6294823,22.5875586 C55.1325123,21.8544631 55.1325123,20.8463129 54.5732072,20.1742129 Z" id="Path"></path>
            <path d="M34.4564195,15.9775553 C30.9745903,12.6652432 25.477353,12.6292448 21.9514133,15.8956671 C18.4254736,19.1620893 18.106985,24.5857623 21.2269217,28.2333309 C21.7280742,28.825954 22.3061042,29.3506903 22.9460682,29.7939743 C25.4035152,31.5027666 28.5572458,31.8993972 31.3694408,30.8533443 C34.1816356,29.8072915 36.2880399,27.454047 36.9954847,24.5680091 C37.3313831,23.1975477 35.7288679,22.1475136 34.5555562,22.9543454 L34.5403941,22.9658717 C34.1831165,23.1056824 33.9233471,23.4167907 33.8522688,23.7899928 C33.4912589,25.6778844 32.1795824,27.2527989 30.3743211,27.9659239 C28.6938078,28.6413342 26.7867911,28.4739458 25.2530371,27.5164032 L34.4855773,18.3922877 C34.8102588,18.0705794 34.9901561,17.6332024 34.9846701,17.1788637 C34.979184,16.7245252 34.7887768,16.2915153 34.4564195,15.9775553 L34.4564195,15.9775553 Z M22.7711212,24.4688842 C21.7968726,22.3619171 22.249953,19.8785127 23.9074519,18.2404792 C25.5649506,16.6024458 28.0778661,16.1546863 30.2098707,17.1174935 L22.7711212,24.4688842 Z" id="Shape"></path>
            <path d="M16.8443336,29.7667211 C16.8439848,29.7636917 16.8439848,29.7606325 16.8443336,29.7576031 L16.7724504,29.8294076 C16.7199238,29.8675188 16.6696365,29.908618 16.6218379,29.9525012 L15.2891456,31.2734779 C11.5728966,29.1649301 7.91255682,26.0066678 4.41880357,21.9069673 C5.91808241,20.1312282 9.14027678,16.6355981 13.5285769,13.8055853 C21.027253,8.97872082 28.5259291,7.92330724 35.8032507,10.7533201 L36.3532144,10.203958 L36.3691884,10.2153555 L35.4563855,11.1271599 C34.697044,11.885356 34.6967887,13.1148899 35.4558151,13.8734007 C36.2148415,14.6319115 37.4457218,14.6321667 38.2050633,13.8739706 L47.9720547,4.11880343 C48.0153589,4.07042689 48.05611,4.01982913 48.0941422,3.96721595 L48.8049875,3.25828805 C49.582011,2.53682283 49.582011,1.32070372 48.8049875,0.539971218 C48.0195419,-0.179990406 46.81323,-0.179990406 46.0277845,0.539971218 L38.8075133,7.75348368 C29.9190947,3.70735172 20.4236621,4.70577751 11.3663749,10.5869158 C4.6447223,14.9704154 0.53482707,20.518745 0.368240534,20.7466961 C-0.131519076,21.4681615 -0.131519076,22.4677269 0.423008709,23.1333441 C4.25678105,27.9043606 8.31190811,31.5675347 12.4218033,34.1194474 L6.03218277,40.5020779 C5.25401827,41.2224035 5.25401827,42.4396623 6.03218277,43.2203948 C6.80964878,43.9605487 8.0319197,43.9605487 8.8093857,43.2203948 L9.44606577,42.5844113 C9.49832149,42.5459507 9.54859024,42.5048666 9.59667824,42.4613176 L19.3636698,32.7061506 C20.0888339,31.9909342 20.1362802,30.8371352 19.4722822,30.0649189 C18.808284,29.2927025 17.6592908,29.1654248 16.8420516,29.7735597 L16.8443336,29.7667211 Z" id="Path"></path>
        </g>
    </g>
</svg>