<svg xmlns="http://www.w3.org/2000/svg" xmlns:xlink="http://www.w3.org/1999/xlink" width="115" height="28" viewBox="0 0 115 28">
    <defs>
        <path id="a" d="M.396.25h2.377v19.816H.396z"/>
    </defs>
    <g fill="none" fill-rule="evenodd">
        <path fill="#1D1D1B" d="M14.931 6.37c.089 1.275-.592 2.698-2.31 3.005-1.005.18-1.773.314-2.41.426l-.248.044-.58 2.406 1.201-.212c.639-.112 1.408-.247 2.416-.427 2.624-.469 4.326-2.69 4.138-5.403-.161-2.314-1.749-4.687-4.924-5.7l-.534 2.218c2.101.722 3.151 2.2 3.251 3.643M2.36 11.613c-.156-1.204-.282-3.756.186-5.67.464-1.897 1.602-3.818 6.517-3.664.527.017 1.014.071 1.467.153L11.064.22A12.153 12.153 0 0 0 9.13.01C4.18-.146 1.35 1.59.401 5.392c-.6 2.398-.425 5.855-.132 8.667.348-1.035 1.074-1.885 2.091-2.446M16.036 19.303c-.246-.16-.547-.24-.901-.242l-7.105-.024c-.097 0-.187-.004-.282-.006l-.544 2.257c.35.015.708.026 1.085.027l6.745.022c.478.002.825-.068 1.042-.212.216-.143.325-.466.327-.966.001-.411-.121-.696-.367-.856"/>
        <path fill="#1D1D1B" d="M8.688 10.071c-1.226.222-2.253.428-4.754.962a5.716 5.716 0 0 0-1.573.58c-1.018.56-1.744 1.411-2.092 2.446a4.623 4.623 0 0 0-.226 1.78c.153 2.403 2.087 5.092 5.37 5.342l.586.042.54-2.242c-.313-.018-.633-.04-.963-.064-1.963-.15-3.233-1.758-3.326-3.226-.08-1.26.677-2.124 2.135-2.436 1.8-.384 2.827-.596 3.72-.768.433-.083.835-.157 1.278-.236l.58-2.406c-.48.084-.887.156-1.275.226M24.811 9.014c-.622 0-1.22.043-1.772.13-.552.084-1.042.2-1.456.344-.408.142-.735.302-.969.476-.21.156-.316.315-.316.472v7.869c.016.151.232.281.41.36.296.133.683.249 1.15.342.473.095 1.014.173 1.606.232.595.059 1.2.094 1.796.103.076.003.148.004.22.004.349 0 .679-.037.98-.11.35-.086.66-.267.918-.54.264-.276.474-.678.625-1.192.154-.522.237-1.225.247-2.09v-1.539c0-.795-.05-1.477-.145-2.027-.095-.544-.23-1.003-.401-1.363-.168-.353-.364-.63-.582-.824a2.28 2.28 0 0 0-.711-.435 2.92 2.92 0 0 0-.788-.178 9.911 9.911 0 0 0-.812-.034m-5.29 17.93c-.142 0-.305-.01-.482-.03a1.474 1.474 0 0 1-.53-.158 1.132 1.132 0 0 1-.42-.38c-.11-.169-.168-.401-.168-.692V9.857c0-.37.128-.704.381-.993.243-.277.567-.523.966-.732a7.063 7.063 0 0 1 1.38-.526c.516-.142 1.066-.259 1.632-.346A21.386 21.386 0 0 1 24 7.066a23.313 23.313 0 0 1 1.654-.062c1.004 0 1.843.189 2.493.56a3.95 3.95 0 0 1 1.53 1.578c.358.666.61 1.466.746 2.379.135.904.203 1.911.203 2.993v.138c0 .917-.059 1.786-.175 2.58-.118.807-.358 1.52-.714 2.123a3.845 3.845 0 0 1-1.523 1.445c-.649.348-1.51.524-2.559.524-.424 0-.887-.007-1.377-.02a18.16 18.16 0 0 1-1.475-.104c-.49-.054-.971-.136-1.43-.24a6.014 6.014 0 0 1-1.075-.35V26c0 .194-.013.346-.038.467a.64.64 0 0 1-.144.31.473.473 0 0 1-.271.144 1.983 1.983 0 0 1-.324.023M38.196 8.987c-.87 0-1.576.109-2.097.324-.512.213-.913.529-1.19.939-.28.415-.468.937-.557 1.549a14.95 14.95 0 0 0-.139 2.153v.425c0 .803.047 1.528.139 2.152.09.613.277 1.134.557 1.55.277.41.678.728 1.191.944.52.22 1.225.332 2.096.332h.28c.87 0 1.576-.11 2.096-.325.512-.213.913-.528 1.19-.938.28-.415.47-.937.565-1.55.096-.625.144-1.354.144-2.165v-.425c0-.803-.048-1.527-.144-2.153-.094-.612-.284-1.134-.566-1.55-.276-.409-.677-.724-1.189-.938-.521-.215-1.226-.324-2.097-.324h-.279zm.098 12.35c-.955 0-1.788-.088-2.477-.264-.69-.178-1.285-.431-1.766-.754a4.122 4.122 0 0 1-1.167-1.165 5.405 5.405 0 0 1-.666-1.465 8.903 8.903 0 0 1-.305-1.68 21.11 21.11 0 0 1-.077-1.81v-.056c0-.615.026-1.224.077-1.81.052-.592.155-1.157.305-1.68.152-.528.375-1.02.666-1.466.292-.447.685-.84 1.167-1.164.48-.323 1.075-.577 1.766-.754.689-.176 1.522-.265 2.477-.265h.083c.956 0 1.791.09 2.483.265.697.177 1.29.431 1.767.754.477.325.87.716 1.167 1.164.294.444.52.936.673 1.465.15.524.253 1.09.305 1.68.05.587.076 1.197.076 1.811v.055c0 .615-.025 1.224-.076 1.812a8.87 8.87 0 0 1-.305 1.68 5.286 5.286 0 0 1-.673 1.465c-.297.448-.69.84-1.167 1.163-.476.324-1.07.577-1.767.755-.692.176-1.527.265-2.483.265h-.083zM47.491 21.338c-.293 0-.557-.042-.786-.125-.268-.098-.409-.304-.409-.598V9.609c0-.32.103-.618.306-.883.197-.255.465-.484.8-.68a5.86 5.86 0 0 1 1.143-.5c.428-.138.89-.25 1.373-.334.48-.083.978-.14 1.48-.173a17.94 17.94 0 0 1 1.47-.035c.531.019.994.078 1.378.176.389.1.716.23.973.387.262.16.46.346.587.551.13.209.195.428.195.653 0 .084-.01.17-.032.258a.882.882 0 0 1-.115.266.635.635 0 0 1-.262.227.947.947 0 0 1-.424.083c-.19 0-.355-.038-.491-.114-.115-.062-.25-.132-.406-.21a3.097 3.097 0 0 0-.594-.202c-.245-.062-.593-.092-1.035-.092-.872 0-1.578.054-2.1.162-.521.106-.928.232-1.21.373-.27.135-.448.27-.532.404-.115.183-.127.262-.127.288v10.4c0 .16-.04.29-.12.386a.801.801 0 0 1-.285.215 1.19 1.19 0 0 1-.378.101c-.13.015-.264.022-.399.022M63.32 21.338a9.57 9.57 0 0 1-1.742-.16 4.686 4.686 0 0 1-1.588-.595 3.326 3.326 0 0 1-1.164-1.208c-.294-.512-.443-1.182-.443-1.99V9.17h-.074c-.107 0-.211-.004-.312-.013a1.286 1.286 0 0 1-.483-.13.841.841 0 0 1-.356-.35c-.087-.153-.129-.352-.129-.606 0-.206.03-.366.09-.49a.615.615 0 0 1 .3-.296c.122-.057.28-.094.467-.11.142-.01.309-.017.497-.02V5.022c0-.386.225-.54.414-.6.227-.073.49-.11.782-.11.135 0 .27.007.398.022.138.015.264.046.373.092a.71.71 0 0 1 .291.22c.08.1.119.227.119.376v2.134h4.387c.138 0 .304-.004.497-.014l.111-.002c.167 0 .328.018.478.054.193.046.363.132.504.256.155.136.234.346.234.622 0 .242-.065.473-.193.686-.14.232-.33.356-.563.367-.092.01-.258.014-.502.014H60.76v7.777c0 .46.056.854.167 1.168.108.306.275.555.497.74.225.187.516.323.866.405.36.085.794.127 1.294.127.477 0 .877-.05 1.188-.147.316-.099.583-.206.793-.318.212-.112.387-.219.522-.317.162-.12.32-.18.47-.18.327 0 .55.09.665.268.102.16.154.35.154.566 0 .27-.112.536-.332.793-.21.245-.5.468-.862.663a5.49 5.49 0 0 1-1.273.472 6.595 6.595 0 0 1-1.59.183M73.564 21.31c-1.068 0-1.953-.17-2.63-.508a3.922 3.922 0 0 1-1.61-1.458c-.384-.621-.65-1.384-.792-2.267-.14-.873-.211-1.87-.211-2.96V7.658c0-.15.04-.275.12-.372a.742.742 0 0 1 .29-.21c.11-.047.237-.076.377-.086.13-.01.26-.014.394-.014.3 0 .566.034.787.102.186.057.409.204.409.58l-.028 5.75c0 1.046.037 1.958.11 2.71.074.742.23 1.36.47 1.839.231.466.57.814 1.007 1.034.444.223 1.057.336 1.823.336.776 0 1.443-.014 1.982-.041.539-.027.987-.068 1.333-.122a4.25 4.25 0 0 0 .797-.186c.175-.066.304-.14.382-.222a.456.456 0 0 0 .132-.246 2.17 2.17 0 0 0 .027-.344V7.66c0-.15.04-.274.121-.372.074-.09.17-.16.289-.21a1.19 1.19 0 0 1 .377-.086c.13-.01.26-.014.395-.014.29 0 .552.034.779.101.272.083.416.283.416.58v11.418c0 .518-.213.935-.634 1.24-.4.29-.947.51-1.629.655-.668.142-1.466.236-2.374.278-.903.04-1.883.062-2.909.062M89.196 8.973c-.825 0-1.52.054-2.067.162-.536.106-.966.275-1.278.505-.308.226-.53.52-.66.873-.133.364-.201.818-.201 1.35 0 .532.068.986.202 1.35.13.353.351.647.659.872.311.23.742.4 1.278.506.547.107 1.243.162 2.067.162.834 0 1.534-.055 2.081-.162.537-.106.97-.276 1.287-.506.312-.226.535-.52.665-.873.134-.363.201-.817.201-1.349 0-.538-.082-.996-.246-1.362a2.061 2.061 0 0 0-.742-.878c-.337-.227-.776-.393-1.304-.494-.538-.104-1.191-.156-1.942-.156m0 10.95c-.824 0-1.52.054-2.067.162-.536.106-.966.276-1.278.505-.308.226-.53.522-.66.88-.133.369-.201.825-.201 1.356 0 .532.068.986.202 1.35.13.353.351.647.659.873.312.23.742.4 1.278.505.547.108 1.242.162 2.067.162.835 0 1.535-.054 2.081-.162.536-.105.969-.275 1.287-.506.312-.225.535-.519.665-.872.134-.364.201-.818.201-1.35 0-.537-.082-.995-.246-1.361a2.063 2.063 0 0 0-.742-.878c-.337-.228-.776-.396-1.305-.502-.538-.108-1.19-.162-1.94-.162m0 7.735c-1.177 0-2.191-.087-3.015-.257-.834-.173-1.525-.456-2.056-.84a3.4 3.4 0 0 1-1.175-1.515c-.243-.608-.366-1.355-.366-2.22 0-.79.104-1.485.308-2.063a3.424 3.424 0 0 1 .987-1.47c.446-.388 1.029-.688 1.733-.894.664-.194 1.473-.318 2.402-.37v-1.356c-.93-.05-1.738-.174-2.403-.37-.703-.205-1.286-.505-1.732-.892a3.42 3.42 0 0 1-.987-1.472c-.204-.578-.308-1.276-.308-2.076 0-.79.104-1.485.308-2.063a3.422 3.422 0 0 1 .987-1.471c.446-.387 1.026-.688 1.726-.893.66-.195 1.466-.32 2.395-.37v-.809c0-.298.138-.518.4-.635.23-.104.498-.157.795-.157.28 0 .54.053.774.156a.65.65 0 0 1 .408.636v.81c.911.06 1.71.19 2.375.39.703.21 1.29.512 1.744.898.458.39.798.882 1.01 1.464.208.576.314 1.263.314 2.044 0 .798-.103 1.497-.307 2.076a3.407 3.407 0 0 1-.995 1.472c-.45.387-1.033.685-1.733.886-.66.19-1.465.312-2.394.363v1.37c.91.06 1.706.188 2.367.383.7.206 1.285.508 1.739.9a3.48 3.48 0 0 1 1.008 1.47c.209.575.315 1.263.315 2.043 0 .865-.123 1.612-.365 2.22a3.404 3.404 0 0 1-1.176 1.514c-.53.385-1.224.668-2.062.84-.83.171-1.846.258-3.022.258M103.53 8.987c-.311 0-.628.016-.942.047-.308.031-.611.102-.9.212a2.94 2.94 0 0 0-.814.474c-.25.203-.471.483-.658.833-.189.354-.342.8-.455 1.327-.114.53-.172 1.173-.172 1.913v1.402c0 .884.076 1.608.226 2.154.147.535.366.956.651 1.25.283.291.64.492 1.059.595.433.107.943.161 1.517.161.863-.009 1.639-.06 2.305-.15.673-.091 1.288-.16 1.828-.207a1.832 1.832 0 0 1 .38.008v-7.304c0-.176-.012-.37-.034-.578a2.028 2.028 0 0 0-.552-1.17 2.251 2.251 0 0 0-.692-.486 4.882 4.882 0 0 0-1.113-.347c-.445-.09-.995-.134-1.634-.134m-1.075 12.35c-1.151 0-2.083-.175-2.769-.522-.69-.35-1.227-.835-1.596-1.445-.366-.603-.607-1.318-.716-2.125a19.334 19.334 0 0 1-.162-2.58v-.137c0-1.231.105-2.327.31-3.257.208-.938.542-1.733.992-2.363a4.264 4.264 0 0 1 1.743-1.432c.699-.313 1.55-.472 2.534-.472.532 0 1.082.021 1.636.062.556.042 1.102.117 1.622.223a8.07 8.07 0 0 1 1.49.454c.473.197.89.455 1.239.765.351.313.635.698.841 1.143.207.446.313.977.313 1.58v8.738c0 .26-.051.478-.152.644-.1.166-.237.301-.41.403-.166.1-.366.169-.592.204-.215.033-.446.05-.684.05h-.018l-.902-.247c-.57.047-1.259.11-2.046.19-.814.083-1.713.125-2.673.125"/>
        <g transform="translate(112.155 1.258)">
            <mask id="b" fill="#fff">
                <use xlink:href="#a"/>
            </mask>
            <path fill="#1D1D1B" d="M1.591 20.066a2.3 2.3 0 0 1-.786-.125c-.268-.097-.41-.304-.41-.598V.973C.396.694.458.505.584.4.703.298.91.25 1.23.25c.156 0 .324.017.5.051.181.035.35.096.5.18.158.087.288.205.388.35.103.15.156.342.156.569v17.943c0 .159-.04.289-.121.386a.803.803 0 0 1-.284.214 1.2 1.2 0 0 1-.378.102c-.13.014-.264.021-.399.021" mask="url(#b)"/>
        </g>
    </g>
</svg>
