<?xml version="1.0" encoding="UTF-8"?>
<svg width="24px" height="24px" viewBox="0 0 24 24" version="1.1" xmlns="http://www.w3.org/2000/svg" xmlns:xlink="http://www.w3.org/1999/xlink">
    <!-- Generator: sketchtool 63.1 (101010) - https://sketch.com -->
    <title>7D8700E6-F88A-44B3-8960-C07D54DBBF05</title>
    <desc>Created with sketchtool.</desc>
    <g id="Page-1" stroke="none" stroke-width="1" fill="none" fill-rule="evenodd">
        <g id="Desktop_Microsite_DGS" transform="translate(-1214.000000, -86.000000)" fill="#FFFFFF" fill-rule="nonzero">
            <g id="Group-14">
                <g id="Group-2" transform="translate(1113.000000, 30.000000)">
                    <g id="facebook" transform="translate(101.000000, 56.000000)">
                        <path d="M22.2691027,-1.36424191e-15 L1.73089588,-1.36424191e-15 C0.774902298,-1.36424191e-15 1.36424191e-15,0.774902298 1.36424191e-15,1.73089588 L1.36424191e-15,22.2691027 C1.36424191e-15,23.2250963 0.774902298,24 1.73089588,24 L12.8203117,24 L12.8203117,14.7187491 L9.70312442,14.7187491 L9.70312442,11.0859368 L12.8203117,11.0859368 L12.8203117,8.41241406 C12.8203117,5.31207245 14.7130728,3.62457255 17.4786977,3.62457255 C18.8032826,3.62457255 19.9416492,3.7232664 20.2734363,3.76739481 L20.2734363,7.00781208 L18.3663929,7.00781208 C16.8616323,7.00781208 16.5703115,7.72283888 16.5703115,8.77221627 L16.5703115,11.0859368 L20.1679675,11.0859368 L19.6992176,14.7187491 L16.5703115,14.7187491 L16.5703115,24 L22.2691027,24 C23.2250963,24 24,23.2250963 24,22.2691027 L24,1.73089588 C24,0.774902298 23.2250963,-1.36424191e-15 22.2691027,-1.36424191e-15 Z" id="Path"></path>
                    </g>
                </g>
            </g>
        </g>
    </g>
</svg>