<svg xmlns="http://www.w3.org/2000/svg" xmlns:xlink="http://www.w3.org/1999/xlink" width="119" height="44" viewBox="0 0 119 44">
    <defs>
        <path id="a" d="M.314.023h9.71v12.195H.314z"/>
        <path id="c" d="M0 43.593h118.85V.023H0z"/>
    </defs>
    <g fill="none" fill-rule="evenodd">
        <path fill="#383434" d="M31.638 32.92h87.203v-.668H31.638z"/>
        <g transform="translate(0 .384)">
            <path fill="#005F29" d="M10.024.023C3.374 2.16 0 7.79 0 16.474v13.172s1.112-8.467 10.024-10.908V.023z"/>
            <path fill="#D70025" d="M10.765 2.511S15.827.601 23.03.195c0 0-.022 5.995-.215 10.865-.607 15.389-14.41 7.482-21.173 15.666 1.357-3.542 5.973-6.063 9.123-6.682V2.51z"/>
            <path fill="#005F29" d="M8.898 24.485s-7.335.593-7.962 4.762c-.494 3.267 7.962 3.352 7.962 3.352v-8.114z"/>
            <mask id="b" fill="#fff">
                <use xlink:href="#a"/>
            </mask>
            <path fill="#4BB32F" d="M.314 12.218c1.519-3.534 4.092-7.15 9.71-9.413V.023C4.532 1.787 1.282 5.94.314 12.218" mask="url(#b)"/>
            <path fill="#F2B300" d="M10.2 18.638v.095c0 .01-.004.02-.014.02h-.145c-.009 0-.017-.01-.017-.02v-1.79l.177.012v1.683zm-.244-.012a6.619 6.619 0 0 1-5.043-2.868l-.029-.042v-.002c.054-.025.107-.045.162-.064a6.463 6.463 0 0 0 4.886 2.81l.024.166zm-5.408-3.361c-.032-.002-.05-.016-.056-.026a7.95 7.95 0 0 0-.078-.14c-.003-.001-.003-.005-.003-.008a.188.188 0 0 1 .048-.097 6.538 6.538 0 0 1-.688-2.533c.057-.029.112-.051.165-.067.052.887.283 1.727.655 2.488.088-.06.203-.12.334-.178a5.997 5.997 0 0 1-.614-2.382.867.867 0 0 1 .17.002 5.84 5.84 0 0 0 .602 2.315 6.85 6.85 0 0 1 .704-.237c.228-.065.46-.126.7-.18.02.058.043.115.068.17-.25.055-.491.116-.725.186-.014 0-.026.004-.039.008l-.008.002c-.012.006-.022.008-.037.012-.002 0-.004 0-.004.002a.22.22 0 0 0-.037.01l-.004.002c-.012.002-.025.007-.039.009-.002.004-.004.004-.006.004-.027.008-.053.016-.078.026h-.006c-.012.006-.027.008-.039.014h-.002l-.039.015H5.49c-.014.006-.026.008-.04.014-.03.01-.056.018-.082.028h-.003c-.067.027-.135.05-.196.078-.057.025-.108.045-.16.07-.006.001-.014.006-.022.01h-.003l-.022.01-.024.012a2.528 2.528 0 0 0-.11.055l-.02.012h-.001c-.009.002-.013.006-.019.01h-.002a.104.104 0 0 1-.018.01c-.033.021-.062.037-.089.056a.55.55 0 0 0-.139.13l-.002.007h-.002c-.008.013-.022.038-.02.05.002.015.01.023.032.03zm.287.414c-.012.012-.037.055.018.09-.028-.009-.06-.025-.077-.051-.017-.029-.074-.118-.074-.118v-.01a.148.148 0 0 1 .039-.074c.002-.002.002-.007.004-.007 0-.002.002-.002.002-.002a.692.692 0 0 1 .134-.112l.014-.01h.001c.007-.004.01-.008.015-.008l.002-.004c.01-.006.022-.012.033-.02h.002c.006-.002.01-.006.017-.01l.002-.003c.005-.004.01-.008.016-.008l.001-.002c.013-.008.025-.016.04-.02l.001-.002c.007-.005.013-.006.02-.01l.001-.003a.683.683 0 0 1 .09-.046.566.566 0 0 0 .074-.037l.159-.066.062-.026c.01-.002.02-.008.03-.01 0-.002.003-.002.003-.002l.065-.025h.002a.18.18 0 0 1 .031-.01c.002-.002.002-.002.006-.002l.065-.024h.006a.136.136 0 0 1 .03-.01c.001-.003.005-.003.007-.003.023-.008.045-.016.068-.022l.009-.004c.01-.002.018-.008.028-.008a.013.013 0 0 0 .008-.004c.024-.004.047-.015.072-.02.004-.003.008-.003.01-.003a.103.103 0 0 0 .027-.01h.012c.012-.006.025-.008.037-.012.264-.075.521-.139.782-.196.03.057.061.114.094.17-.289.056-.565.126-.834.203-.415.112-1.011.353-1.154.55zm-1.07-3.308l-.033.039c-.012.018-.053.07-.018.106-.015-.01-.047-.027-.047-.055v-.18-.003a.267.267 0 0 1 .071-.105c.005-.004.008-.005.015-.014.042-.039.104-.082.176-.122.001-.002.003-.002.006-.004.004-.004.01-.006.016-.01.002-.003.004-.003.006-.005a.036.036 0 0 0 .016-.008l.007-.004c.004-.002.01-.006.016-.006l.006-.006.019-.009c0-.001.003-.003.006-.003l.018-.01h.006l.05-.027c.003-.002.008-.002.008-.004l.02-.008.009-.004a.075.075 0 0 0 .017-.01c.005 0 .009 0 .009-.003l.02-.008.008-.004a.175.175 0 0 1 .025-.01l.004-.004.061-.025c0-.002.002-.002.002-.002.064-.024.13-.05.2-.075.005-.004.013-.006.022-.01l.014-.004c.008-.005.016-.007.025-.01.006-.002.008-.002.014-.002a.133.133 0 0 1 .037-.015c.014-.004.026-.01.041-.014l.01-.002c.01-.006.02-.008.03-.012l.015-.007.027-.008a.1.1 0 0 1 .016-.006c.008-.002.016-.004.024-.008.006-.002.013-.002.017-.004l.026-.008a.125.125 0 0 0 .017-.006.171.171 0 0 0 .026-.008.053.053 0 0 1 .019-.005.061.061 0 0 1 .024-.008c.008-.002.013-.006.019-.006l.026-.006c.007-.004.013-.004.02-.006a.113.113 0 0 0 .023-.01.065.065 0 0 0 .021-.004c.008-.002.019-.004.026-.008.005-.002.013-.002.02-.007l.026-.006c.006-.002.014-.002.018-.004.01-.004.02-.008.028-.008a.085.085 0 0 0 .02-.006.159.159 0 0 0 .032-.008.352.352 0 0 1 .051-.014c.004-.003.008-.003.01-.003a.553.553 0 0 1 .05-.014h.005a.353.353 0 0 1 .043-.01.158.158 0 0 1 .017-.006l.03-.008c.009-.002.013-.005.02-.005a.085.085 0 0 0 .032-.01c.006 0 .012 0 .018-.003l.031-.007.02-.006.03-.006a.088.088 0 0 1 .021-.004l.03-.008.02-.004c.01-.003.02-.007.03-.007a.194.194 0 0 0 .023-.006c.01-.004.02-.004.03-.006l.023-.006.031-.006c.006-.004.014-.004.022-.004.01-.004.019-.004.03-.008.007 0 .014 0 .02-.004l.032-.006a.32.32 0 0 0 .022-.007c.013-.002.023-.002.034-.006.006 0 .014-.004.022-.004.01-.002.022-.004.035-.008l.018-.002c.019-.004.035-.008.053-.01.072-.016.148-.029.222-.043v.184c-.066.014-.131.024-.195.036-.542.108-1.122.261-1.574.433a7.236 7.236 0 0 0-.168.067 2.31 2.31 0 0 0-.373.19.877.877 0 0 0-.14.106c-.008.008-.02.016-.027.024zm13.35-.093v.183c0 .028-.03.045-.044.055.034-.037-.004-.088-.02-.106-.008-.014-.02-.025-.033-.039L17 12.353c0-.003-.002-.003-.004-.004l-.027-.025a1.328 1.328 0 0 0-.118-.083 2.402 2.402 0 0 0-.369-.188l-.037-.016c-.038-.017-.08-.03-.12-.047l-.013-.006a10.555 10.555 0 0 0-1.766-.47v-.183c.073.014.145.027.219.043.016.002.035.006.053.01l.017.002c.011.004.024.006.036.008.006 0 .015.004.02.004.013.004.023.004.036.006l.02.007a1.962 1.962 0 0 1 .053.01c.01.004.02.004.028.008.011 0 .018 0 .024.004l.03.006a.336.336 0 0 1 .023.006c.01.002.02.002.03.006a.298.298 0 0 0 .051.013l.023.004.028.008c.007 0 .015.002.023.004l.029.006.02.006.031.008c.006.002.015.002.018.002.012.007.025.008.035.01a.04.04 0 0 1 .017.005c.014.004.026.006.04.012a.418.418 0 0 1 .057.012h.007c.015.006.027.008.041.013.006.001.01.004.014.004.013.003.023.005.033.01.006 0 .012.002.016.004a.08.08 0 0 0 .031.006.06.06 0 0 0 .019.008c.007 0 .018.004.028.008.006 0 .01.002.019.004l.026.006.019.007c.008.004.018.006.027.008a.057.057 0 0 0 .018.004.139.139 0 0 0 .026.01c.007 0 .012.002.018.004.011.002.019.006.027.008.007 0 .013.004.016.006.011 0 .02.004.03.008.006 0 .012.003.015.005.011.004.021.006.03.008l.014.006a.18.18 0 0 1 .03.01c.003 0 .007 0 .012.002.011.004.023.006.035.012.003 0 .003.002.007.002.027.008.054.019.082.029.001 0 .004 0 .006.002.012.004.022.008.035.01.004.004.006.004.01.006.008 0 .018.006.028.01.005 0 .008 0 .012.002l.025.01.014.005.025.01c.066.022.129.047.188.071.004.003.009.004.013.006a.33.33 0 0 1 .018.007l.012.005c.006.005.014.007.021.01.004 0 .004 0 .008.003l.027.012.01.004c.004.002.012.004.019.009a.016.016 0 0 0 .008.003c.007.003.011.007.017.009.003 0 .007.004.011.004.006.002.01.006.017.008.001.002.006.002.01.004l.014.01c.004.002.006.002.01.002l.018.01.007.002.025.013.008.004c.004.001.01.006.014.008l.01.006.012.006c.003.002.009.004.01.006l.013.006.008.004.012.009.01.006c.072.04.132.083.177.122.004.006.01.01.012.012a.244.244 0 0 1 .074.109zm0-.57v.176c0 .022-.012.037-.035.043.027-.027-.007-.07-.037-.103a.337.337 0 0 1-.017-.016c-.005-.004-.008-.01-.013-.012a.764.764 0 0 0-.169-.13h-.002a.113.113 0 0 0-.016-.013l-.004-.002-.016-.008-.004-.002-.018-.01-.003-.002c-.006-.004-.013-.006-.018-.01l-.002-.002c-.006-.002-.015-.008-.02-.013h-.003l-.02-.01-.002-.002c-.009-.004-.015-.006-.02-.01 0 0-.003 0-.005-.002a.085.085 0 0 1-.02-.01c-.003 0-.003-.002-.004-.002-.007-.005-.015-.007-.024-.01l-.001-.003a.067.067 0 0 1-.02-.01h-.003l-.025-.012h-.003a.28.28 0 0 0-.023-.012h-.002c-.008-.004-.017-.009-.024-.01h-.003c-.006-.006-.013-.009-.024-.014 0 0-.003 0-.003-.003a.045.045 0 0 1-.023-.008c-.003 0-.003-.002-.003-.002-.065-.027-.135-.055-.206-.082l-.042-.012c-.001-.002-.001-.002-.004-.002l-.038-.014c-.002 0-.002 0-.002-.002a.337.337 0 0 1-.043-.014h-.003a.37.37 0 0 1-.042-.017h-.002l-.043-.014a.331.331 0 0 0-.043-.014h-.004l-.088-.03h-.004c-.017-.005-.031-.011-.043-.013l-.005-.002-.045-.014h-.002c-.014-.004-.03-.008-.045-.015h-.002l-.045-.014h-.006c-.012-.006-.028-.008-.043-.014h-.004c-.03-.008-.064-.02-.095-.029h-.003l-.045-.012h-.005c-.016-.006-.03-.008-.047-.014h-.002c-.014-.004-.032-.01-.049-.012-.016-.007-.03-.009-.049-.013 0 0-.002 0-.002-.002-.017-.002-.03-.008-.047-.012h-.005a.469.469 0 0 0-.046-.01l-.003-.002a.397.397 0 0 0-.048-.01l-.002-.002a.205.205 0 0 1-.048-.013h-.003c-.017-.004-.032-.008-.047-.01h-.005l-.049-.012h-.002l-.047-.01-.005-.002a.345.345 0 0 1-.044-.01s-.004-.003-.007-.003l-.044-.008h-.002c-.019-.004-.035-.008-.051-.01h-.003a.203.203 0 0 0-.047-.01c-.002 0-.004 0-.004-.002a.399.399 0 0 0-.047-.008h-.002l-.049-.01c-.06-.013-.12-.023-.182-.033v-.186l.217.04a9.747 9.747 0 0 1 1.49.397 5.796 5.796 0 0 0-.739-2.133c-.002 0-.002-.002-.002-.002-.004-.002-.006-.01-.008-.015.03 0 .1-.004.194-.002a6.01 6.01 0 0 1 .737 2.219c.154.061.288.124.395.186a6.37 6.37 0 0 0-.687-2.364c.071.012.144.029.219.049v-.002l.026.059c.35.73.567 1.533.622 2.38a.3.3 0 0 1 .105.13zm-.102.753c-.003.03-.003.061-.007.092a6.547 6.547 0 0 1-.659 2.394c.043.092.053.165.025.224 0 0-.055.08-.082.123-.027.038-.037.057-.083.063.031-.008.085-.074.062-.175a.278.278 0 0 0-.014-.052h-.002a.314.314 0 0 0-.047-.083 2.092 2.092 0 0 0-.176-.23h-.002c-.005-.009-.01-.013-.014-.02h-.003a.093.093 0 0 0-.016-.021v-.003a5.755 5.755 0 0 0-.27-.273c0-.002-.002-.002-.005-.002-.007-.01-.018-.018-.026-.028h-.002c-.03-.031-.063-.06-.096-.09-.002-.002-.004-.002-.004-.004l-.029-.027-.004-.002-.104-.092c-.002-.002-.002-.004-.002-.006-.012-.008-.023-.018-.033-.026a6.222 6.222 0 0 0-.115-.096l-.006-.006a.197.197 0 0 0-.03-.024l-.007-.007-.037-.028v-.002c-.026-.02-.05-.043-.075-.064a.028.028 0 0 1-.008-.006l-.034-.024c-.002-.004-.006-.006-.008-.006a.202.202 0 0 0-.035-.029l-.003-.004-.041-.032-.037-.029c-.004-.004-.01-.006-.01-.01a.175.175 0 0 1-.031-.025c-.003 0-.006-.004-.01-.006a1.984 1.984 0 0 1-.033-.026c-.002-.004-.006-.004-.009-.006a1.298 1.298 0 0 1-.04-.03c0-.003 0-.003-.002-.003l-.04-.033a.034.034 0 0 0-.011-.008l-.029-.022a.05.05 0 0 1-.012-.01c-.01-.009-.02-.015-.031-.023-.002-.004-.006-.006-.01-.008-.014-.01-.029-.023-.04-.033-.004 0-.004-.002-.005-.004-.013-.008-.025-.018-.04-.026-.001-.002-.007-.009-.01-.01-.01-.009-.02-.015-.03-.023l-.014-.01a.172.172 0 0 1-.03-.023c-.003-.004-.01-.006-.013-.01-.015-.01-.03-.018-.041-.032.012-.072.022-.143.028-.219.539.394.995.76 1.32 1.071a5.819 5.819 0 0 0 .422-1.554v-.002l.01-.067v-.012l.007-.06c.002-.008.002-.02.003-.03l.004-.045c0-.014.003-.027.005-.041V12.5c.002-.013.004-.025.004-.04l.002-.032.002-.03.006-.076c.041-.002.098-.006.17 0a6.015 6.015 0 0 1-.503 2.143c.11.113.2.215.268.306a6.36 6.36 0 0 0 .603-2.38c.056.017.11.041.169.07zm-1.417 3.67c-.014.021-.03.04-.047.058l-.002.002a6.629 6.629 0 0 1-4.78 2.44v.101a.02.02 0 0 1-.006.015c-.002 0-.006.005-.014.005h-.141c-.01 0-.017-.01-.017-.02V16.951c.062 0 .119-.004.178-.01v.975a5.933 5.933 0 0 0 3.838-1.746c.002-.002.004-.002.004-.004.12-.122.237-.249.349-.383.061.016.12.037.175.055a6.081 6.081 0 0 1-4.366 2.248v.377a6.457 6.457 0 0 0 4.702-2.446c.064.05.107.09.127.115zm.189-.169c.01.041.005.078-.015.1 0 0-.053.09-.074.118a.146.146 0 0 1-.114.072c.014-.008.12-.017.059-.177a.791.791 0 0 0-.092-.163h.002a4.023 4.023 0 0 0-.38-.4 14.06 14.06 0 0 0-1.055-.863c.029-.055.055-.114.082-.171.522.387.95.734 1.23 1.007a.88.88 0 0 1 .062.063c.001.002.004.002.004.004.004.006.012.01.016.017a.037.037 0 0 0 .004.004c.004.004.01.008.015.016l.004.002c.003.006.01.012.014.017.002 0 .002.001.004.003.004.006.01.01.012.015.002.002.004.004.004.006.007.004.01.008.015.014l.003.002c.007.006.01.012.015.019v.002a.289.289 0 0 1 .03.032l.002.004.015.017c0 .002 0 .002.002.002l.01.014.004.006a.827.827 0 0 1 .103.165l.004.01c0 .003.002.003.002.003l.002.008c.002.002.002.006.002.006l.009.026zm-5.76-9.986V5.32c0-.01.007-.017.016-.017h.145c.01 0 .015.006.015.016v1.989l-.177-.002v-1.33zm-6.358 5.908v-.172-.004a.31.31 0 0 1 .106-.13 6.553 6.553 0 0 1 .46-2.015l.011-.02a.27.27 0 0 1 .014-.035v-.002l.028-.067c.003-.006.005-.013.01-.017.027.009.087.025.158.055a6.34 6.34 0 0 0-.499 1.979c.106-.062.242-.125.395-.186a6.02 6.02 0 0 1 .426-1.586c.045.04.088.087.129.136a5.58 5.58 0 0 0-.372 1.38c.405-.146.922-.285 1.487-.393.072-.017.148-.028.222-.041v.184l-.187.034-.049.01h-.002a.294.294 0 0 0-.045.009c-.002.002-.004.002-.006.002a.155.155 0 0 0-.045.01h-.004c-.017.002-.033.006-.05.01h-.002l-.048.008s0 .002-.002.002a.461.461 0 0 1-.045.01c-.003 0-.004.003-.007.003l-.047.01h-.002a.958.958 0 0 1-.05.012.303.303 0 0 0-.048.01h-.004c-.016.004-.03.01-.047.013H5.55a1.07 1.07 0 0 0-.1.024h-.003c-.016.004-.03.01-.045.012l-.004.002c-.016.004-.033.006-.049.013-.016.002-.033.008-.049.012h-.002a.45.45 0 0 0-.047.014h-.005c-.014.002-.028.008-.044.012H5.2l-.098.029c-.017.006-.033.008-.048.014h-.002l-.047.014h-.002c-.014.007-.03.01-.045.015l-.047.014h-.002l-.045.014h-.002c-.03.01-.061.019-.09.03H4.77a.389.389 0 0 0-.046.015h-.002l-.04.014h-.003c-.028.013-.059.02-.088.03l-.001.003-.04.012-.002.002-.04.014a1.919 1.919 0 0 0-.179.072c-.008.002-.016.006-.026.01l-.004.002c-.008.002-.017.008-.022.008-.002 0-.005.003-.005.003a.856.856 0 0 0-.05.024h-.003a.247.247 0 0 1-.027.012h-.001l-.025.012-.024.013-.023.01-.004.002-.023.012H4.09a.513.513 0 0 1-.045.022h-.002l-.02.015H4.02l-.041.024c-.01.002-.015.008-.02.01h-.003c-.006.006-.012.009-.021.015a.888.888 0 0 0-.165.128c-.004.002-.006.006-.01.01-.037.037-.09.086-.06.12-.018-.005-.034-.02-.034-.042zM16.22 8.845a.469.469 0 0 1 .135.09l.099.17c.018.032-.005.073-.047.087.024-.008.05-.039-.017-.08l-.058-.03-.007-.004a4.67 4.67 0 0 0-.78-.286v.002c-.08-.022-.162-.045-.25-.067v-.002a20.158 20.158 0 0 0-.75-.173V8.37c.034.006.068.014.099.022h.006l.027.007c.004 0 .006.002.01.004l.025.002c0 .002.006.002.008.002.01.004.018.004.027.006l.01.002.022.006.014.002a.23.23 0 0 0 .023.006c.004 0 .01 0 .014.002a.065.065 0 0 0 .02.004l.034.01c.002 0 .005 0 .007.002.011 0 .02.003.03.005.001.002.006.002.01.004l.024.004c.004.002.007.004.01.004l.025.004.01.004.025.006a.717.717 0 0 0 .037.008l.006.002.03.007h.004c.011.006.023.008.035.01l.26.067c.013.004.027.006.037.01l.078.02c.039.013.073.021.11.031.12.037.227.074.326.106.102.037.19.067.258.102l.012.004h.002zm-5.63-3.422V5.32c0-.004.001-.01.005-.012 0 0 .005-.004.01-.004h.142c.012 0 .018.006.018.016v.11a6.643 6.643 0 0 1 5.066 2.817 1.046 1.046 0 0 1 .207.12s.102.172.131.208c.025.032.004.076-.029.092.022-.016.033-.037-.032-.092a.468.468 0 0 0-.068-.049l-.015-.01c-.007-.004-.011-.008-.02-.012-.086-.051-.19-.1-.307-.15-.012-.005-.023-.007-.032-.013-.003 0-.003-.003-.005-.003a.567.567 0 0 0-.032-.012l-.004-.002-.033-.012c-.012-.002-.023-.008-.035-.012l-.006-.002c-.01-.004-.022-.006-.035-.012-.01-.005-.022-.01-.035-.013l-.004-.002c-.013-.004-.024-.006-.035-.012-.001-.002-.003-.002-.006-.004a1.013 1.013 0 0 1-.074-.022c-.001 0-.004 0-.006-.002a.177.177 0 0 1-.036-.013h-.002l-.037-.012h-.002l-.04-.013c-.002-.002-.003-.002-.005-.002-.013-.001-.027-.008-.04-.01-.013-.004-.026-.008-.038-.014h-.005l-.04-.01-.005-.002a5.35 5.35 0 0 0-.335-.09c-.019-.004-.037-.01-.058-.012l-.055-.016a.499.499 0 0 1-.054-.01H14.6c-.02-.007-.037-.01-.054-.015h-.001v-.418c.108.102.21.206.311.312.249.065.475.137.665.206a6.464 6.464 0 0 0-4.757-2.506v.371a6.086 6.086 0 0 1 3.454 1.336h-.279a5.907 5.907 0 0 0-3.175-1.163v1.159h-.176V5.424zm-4.397 10.76a5.91 5.91 0 0 0 3.655 1.72l.027.173a6.082 6.082 0 0 1-4.418-2.491c.111-.004.19.006.222.01.155.202.32.394.5.575l.014.013zM4.184 9.498c-.012-.051-.002-.102.007-.112l.084-.158.002-.006a.229.229 0 0 1 .112-.032h.01a.226.226 0 0 1 .037-.004c.043 0 .092.006.147.012.107.019.234.045.38.09.05.014.106.032.163.05.02.005.039.013.06.02a.16.16 0 0 1 .03.01c.01.001.02.008.029.01.01.002.02.008.03.008l.002.001c.011.005.02.009.029.011h.002a.52.52 0 0 1 .029.012h.002l.03.01c0 .002.002.002.002.002.01.002.021.009.031.01h.003c.009.007.02.01.03.013h.002c.01.006.02.008.03.012 0 0 0 .002.003.002.01.002.02.006.029.01h.003c.01.006.021.008.03.015.001 0 .003 0 .005.002.008.002.02.004.03.008.001.002.001.004.004.004.01.002.02.008.028.008l.006.004.028.01c.003.002.005.002.006.004l.03.01c.004 0 .005.002.007.002.01.007.02.009.027.013.002.002.007.002.008.002l.027.01c.004.002.006.004.01.004a.053.053 0 0 0 .027.01.01.01 0 0 0 .008.004c.01.004.019.01.029.012.001.003.004.005.008.005a.145.145 0 0 1 .027.01.017.017 0 0 0 .01.004l.024.01.012.006c.008.002.017.007.025.01.006 0 .008.003.014.005.009.003.017.008.025.01l.012.006.025.01c.004.002.008.004.012.008.009.002.018.007.025.009.004.001.01.006.014.006.008.004.016.008.024.01a.041.041 0 0 0 .015.008l.023.01c.005 0 .01.004.016.006a.067.067 0 0 1 .022.01c.007.003.012.003.017.007l.028.011c.005.003.007.003.01.007.015.006.027.012.042.014v.196a12.287 12.287 0 0 0-1.196-.471 1.924 1.924 0 0 0-.164-.051h.002a2.808 2.808 0 0 0-.378-.084c-.006 0-.011 0-.017-.002h-.002l-.014-.002h-.016c-.003 0-.004 0-.004-.002h-.019c-.002 0-.006 0-.01-.002H4.38c-.018 0-.04 0-.058.002-.063.006-.118.035-.137.14zM9.85 6.159c-1.12.1-2.147.512-2.999 1.147h-.276a6.045 6.045 0 0 1 3.3-1.32l-.025.173zM4.796 8.39l.005-.002h.006c.002-.004.003-.004.008-.004h.008l.004-.002c.002 0 .006 0 .008-.002h.002c.008 0 .016-.002.025-.004a.7.7 0 0 1 .098-.006h.012c.03 0 .062.002.097.004l.02.004.002.002c.02.002.043.004.066.008.008 0 .014.002.024.004.022.005.047.01.072.013l.024.006h.002l.078.018c.088.02.185.049.287.082l.029.008c.003.002.006.002.008.002.01.004.018.008.029.01l.005.004c.031.009.062.02.09.03l.017.005.025.008.016.008c.008 0 .016.004.024.009l.04.011c.005.005.014.007.02.009l.022.008c.009.002.014.006.023.008a.129.129 0 0 1 .025.01c.007 0 .012.004.018.007l.045.018c.004.002.006.004.01.004.013.006.024.008.037.014a.07.07 0 0 0 .016.006l.035.013c.004.004.008.004.015.006l.047.02v-.375l-.164.034-.144.033-.042-.014-.02-.006-.021-.009-.025-.008c-.004-.002-.008-.004-.014-.004-.008-.006-.017-.006-.025-.01-.006-.002-.01-.004-.016-.004a6.262 6.262 0 0 0-.305-.094h-.005a.054.054 0 0 1-.024-.006c-.004 0-.004 0-.006-.002a.124.124 0 0 1-.027-.004s0-.002-.002-.002c-.01-.004-.02-.004-.029-.006-.002 0-.002 0-.003-.002 0 .002 0 .002.003.002a.818.818 0 0 0 .038-.012c.002 0 .002-.002.002-.002a.378.378 0 0 1 .039-.01s.002-.003.004-.003a2.792 2.792 0 0 1 .127-.039v-.002c.014-.003.028-.006.043-.012h.001c.187-.055.392-.108.615-.157v-.183l-.005.002c.003-.002.005-.002.005-.004v-.235a7.638 7.638 0 0 0-.316.314 6.62 6.62 0 0 0-.67.21A6.472 6.472 0 0 1 9.93 5.607l.026-.171a6.622 6.622 0 0 0-4.973 2.767.397.397 0 0 0-.211.057c0 .004 0 .006-.002.006l-.097.173a.158.158 0 0 0-.007.084c.007-.06.045-.108.13-.133z"/>
            <path fill="#EFEF00" d="M4.35 11.27a6.028 6.028 0 0 1 .426-1.587 1.116 1.116 0 0 0-.322-.205 6.338 6.338 0 0 0-.499 1.978c.106-.062.242-.125.395-.186zm11.623 3.196c.11.112.2.214.268.305a6.36 6.36 0 0 0 .603-2.38 1.475 1.475 0 0 0-.368-.069 6.02 6.02 0 0 1-.503 2.144zm-11.048.238a6 6 0 0 1-.614-2.382 1.4 1.4 0 0 0-.375.071c.052.888.283 1.728.655 2.488.088-.059.203-.12.334-.177zm5.842 3.382v.377a6.457 6.457 0 0 0 4.702-2.446 1.516 1.516 0 0 0-.336-.18 6.08 6.08 0 0 1-4.366 2.249zm-5.31-2.5a1.523 1.523 0 0 0-.41.064 6.464 6.464 0 0 0 4.885 2.809l-.057-.383a6.08 6.08 0 0 1-4.418-2.49zm5.308-9.61a6.086 6.086 0 0 1 3.454 1.335h.327v.282c.108.102.21.206.311.312.249.065.475.137.665.206a6.463 6.463 0 0 0-4.757-2.506v.371zm5.378 3.116a2.863 2.863 0 0 0-.445-.04 6.01 6.01 0 0 1 .737 2.218c.154.06.288.124.395.186a6.363 6.363 0 0 0-.687-2.364zM5.255 8.119A6.473 6.473 0 0 1 9.93 5.607l-.056.38a6.046 6.046 0 0 0-3.3 1.319H6.24v.289a7.627 7.627 0 0 0-.316.314 6.729 6.729 0 0 0-.67.21zM16.04 8.525c-.303-.198-.907-.382-1.494-.514v.36c.736.152 1.393.342 1.68.478l-.186-.324zM5.932 8.421c.099-.022.201-.047.308-.067v-.339c-.33.074-.627.155-.869.237.158.039.347.093.561.17M6.242 10.95l-.187.034c-.935.18-1.983.508-2.284.812a.148.148 0 0 1-.033.028v.35c.264-.26 1.167-.58 2.282-.8.072-.016.148-.029.222-.043v-.381zM17.013 11.796c-.301-.304-1.347-.632-2.285-.812-.06-.012-.12-.022-.182-.032v.38c.074.013.145.026.219.042 1.111.22 2.01.538 2.278.797v-.346c-.013-.01-.022-.02-.03-.029M6.555 14.392c-.25.055-.491.117-.725.186-.563.159-1.173.408-1.29.6l-.004.005.205.333c.125-.153.545-.378 1.206-.565.264-.075.521-.139.782-.196a3.325 3.325 0 0 1-.174-.363"/>
            <mask id="d" fill="#fff">
                <use xlink:href="#c"/>
            </mask>
            <path fill="#EFEF00" d="M10.2 7.308h.39V5.393h-.39zM10.387 16.96c-.062 0-.126-.002-.187-.005v1.738h.39v-1.742a2.118 2.118 0 0 1-.203.008M16.206 15.047c-.256-.4-.922-.969-1.713-1.562-.055.346-.158.679-.295.993.88.652 1.49 1.188 1.578 1.458l.493-.754a.319.319 0 0 0-.063-.135M6.24 8.73c-.578-.236-1.008-.356-1.268-.36H4.96a.6.6 0 0 0-.164.02l-.409.8c.014 0 .033-.004.05-.004.316 0 .965.218 1.805.587L6.24 8.73z" mask="url(#d)"/>
            <path fill="#070606" d="M15.65 16.099c0-.004-.003-.006-.003-.012l-.006-.012a.23.23 0 0 0-.02-.05c-.056-.114-.213-.295-.45-.513-.003-.002-.005-.005-.005-.007 0 0-.004 0-.004-.002v.002a13.36 13.36 0 0 0-1.046-.856 4.182 4.182 0 0 1-2.102 1.98 15.73 15.73 0 0 0 1.736-.24c.176-.027.472-.09.806-.17a6.38 6.38 0 0 0 .402-.436c.366.09.582.285.638.349-.03.038-.064.077-.097.12h.048c.014 0 .026 0 .04-.004.023-.008.096-.023.064-.147-.002 0-.002 0-.002-.002zm1.424-3.66h-.003v-.003l-.001-.004c-.003 0-.003 0-.003-.002l-.001-.002v-.004h-.004v-.002l-.002-.002v-.002l-.002-.002v-.002h-.004s0-.004-.003-.004l-.006-.008-.023-.025c-.011-.016-.029-.03-.046-.046a2.186 2.186 0 0 0-.53-.294c-.041-.019-.088-.035-.133-.053v.069c-.598.185-1.319.324-1.767.402v.377c0 .117-.007.233-.016.347a16.234 16.234 0 0 0 1.73-.363c.021-.163.036-.329.046-.494.125-.01.406-.01.707.139-.002.03-.002.061-.007.092a.584.584 0 0 0 .07-.041c.014-.025.008-.05 0-.07 0 0-.002 0-.002-.004zm-.92 2.92h.02c.013 0 .027 0 .038-.004.031-.013.078-.078.057-.173l-.115.177zm-.005-6.7c.016-.013.018-.036-.041-.085a.492.492 0 0 0-.068-.049l.082.145a.06.06 0 0 0 .027-.01zm.931 3.268c.027-.027-.006-.07-.037-.102v.107c.015 0 .03-.001.041-.005h-.004zm-2.534-2.98v.75c.45-.09.846-.187 1.156-.275a5.896 5.896 0 0 0-.198-.369c.088.002.442-.028.858.088v-.002l.026.059c.004 0 .008-.004.012-.004.005 0 .009-.002.013-.004.02-.01.043-.039-.023-.078a1.235 1.235 0 0 0-.057-.03c-.227-.119-.582-.237-1.038-.355a.347.347 0 0 1 .019.029 8.777 8.777 0 0 1-.768.191zM4.537 15.183c-.009.015-.023.039-.02.051.001.015.01.023.031.03l-.014-.001c.019.004.037.004.056.004l-.053-.084zm2.925.55l-.042-.04a25.922 25.922 0 0 1-1.93-.365.184.184 0 0 1-.02-.024c-.299.116-.54.246-.635.375-.012.012-.036.055.018.09H4.85l.094.038-.06-.094c.367-.169.721-.128.795-.118.157.21.33.406.513.588.717.179 1.585.33 2.537.421-.471-.21-.901-.51-1.267-.87zm2.494 2.893l.068.006v-.714c-.06-.004-.116-.01-.176-.016l.108.724zm-3.715-5.802v-.37c-.447-.077-1.169-.215-1.766-.401v-.069c-.07.026-.133.053-.194.08-.056.021-.109.046-.158.069l-.004.004c-.004.001-.006.001-.01.004a1.392 1.392 0 0 0-.318.206c-.012.008-.022.02-.03.028l-.023.027a.024.024 0 0 1-.006.008l-.002.004h-.002v.002h-.002l-.002.004v.004H3.72v.004l-.002.002h-.002v.003l-.003.001v.005h-.002v.003h-.003v.008l-.002.002v.005l-.003.002v.002l-.002.004v.004H3.7V12.494l.002.001v.005h.002l.003.003v.003h.002v.008c.02.012.043.026.07.038l-.007-.091c.305-.15.587-.15.71-.137.008.166.023.329.045.491.452.127 1.052.258 1.732.364a3.283 3.283 0 0 1-.017-.355zm-2.02-3.228c.025-.06.047-.116.074-.174.082.02.393.117.61.398-.052.12-.096.24-.135.365.231.2.532.428.903.693.114-.026.228-.049.348-.071.071-.016.147-.029.22-.04v-.798c-.446-.198-.839-.355-1.158-.46H5.08c-.004-.003-.01-.003-.015-.005a.099.099 0 0 0-.015-.006h-.005c-.29-.094-.514-.143-.667-.143-.018 0-.04 0-.058.002-.004 0-.006 0-.007.002H4.3l-.01.002v.002c-.05.012-.09.045-.107.135-.002-.008-.002-.012-.002-.018 0 .008 0 .014.002.024.008.027.02.057.037.092zm5.803-4.166c-.025.004-.045.004-.068.004l-.108.73c.06-.01.117-.015.176-.019V5.43zm-6.286 6.503v-.108c-.03.034-.061.075-.037.102.01.004.023.006.037.006zm.95-3.333a.3.3 0 0 1-.02-.079c.005-.057.042-.106.128-.13l-.108.21z" mask="url(#d)"/>
            <path fill="#FEFEFE" d="M10.372 17.017c-2.51 0-4.194-2.119-4.194-4.097V7.283h8.39v5.637c0 1.978-1.684 4.097-4.196 4.097" mask="url(#d)"/>
            <path fill="#D70025" d="M12.702 12.92c0 .956-.882 2.235-2.33 2.235-1.447 0-2.325-1.279-2.325-2.235V9.143h4.655v3.777zM6.458 7.563v5.357c0 1.841 1.573 3.815 3.914 3.815 2.344 0 3.916-1.974 3.916-3.815V7.563h-7.83z" mask="url(#d)"/>
            <path fill="#EFEF00" d="M7.031 8.79c.01-.298.24-.367.242-.367.002 0 .23.07.24.367h-.482zm.752 0h-.016l-.038-.355c.05-.006.085-.042.085-.087a.088.088 0 0 0-.09-.088h-.01l-.01-.161h.038a.016.016 0 0 0 .016-.016V7.97h-.053v.058h-.071V7.97h-.06v.058h-.072V7.97h-.05v.11c0 .009.007.019.015.019h.039L7.5 8.26h-.1l-.02-.342h.03c.01 0 .015-.005.015-.017v-.112H7.37v.053H7.3v-.053h-.055v.053h-.073v-.053H7.12V7.9c0 .006.006.014.016.017h.026l-.018.342h-.1l-.01-.161h.038c.008 0 .019-.006.019-.016V7.97H7.04v.058h-.076V7.97h-.055v.058h-.076V7.97h-.05v.11c0 .009.007.019.02.019h.034l-.008.161h-.008c-.05 0-.09.037-.09.088 0 .045.036.081.081.085l-.034.357H6.76a.09.09 0 0 0-.088.088c0 .047.041.085.088.085h1.022c.049 0 .09-.038.09-.085a.09.09 0 0 0-.09-.088zM10.145 8.79c.012-.298.24-.367.242-.367.002 0 .228.07.243.367h-.485zm.756 0h-.023l-.033-.355c.05-.006.082-.042.082-.087 0-.051-.04-.088-.088-.088h-.012l-.01-.161h.04c.009 0 .014-.006.014-.016V7.97h-.048v.058h-.078V7.97h-.053v.058h-.077V7.97h-.049v.11c0 .009.011.019.017.019h.039l-.01.161h-.099l-.018-.342h.026c.009 0 .02-.005.02-.017v-.112h-.052v.053h-.076v-.053h-.053v.053h-.076v-.053h-.05V7.9c0 .006.007.014.018.017h.028l-.019.342h-.1L10.15 8.1h.038c.007 0 .02-.006.02-.016V7.97h-.056v.058h-.073V7.97h-.052v.058H9.95V7.97h-.05v.11c0 .009.009.019.017.019h.038l-.01.161h-.008c-.049 0-.09.037-.09.088 0 .045.037.081.082.085l-.037.357h-.012a.087.087 0 0 0-.088.088c0 .047.037.085.088.085h1.022a.086.086 0 0 0 .085-.085.088.088 0 0 0-.085-.088zM13.231 8.79c.011-.298.24-.367.24-.367h.005s.226.07.24.367h-.485zm.754 0h-.016l-.037-.355c.047-.006.082-.042.082-.087a.088.088 0 0 0-.09-.088h-.01l-.009-.161h.038a.016.016 0 0 0 .015-.016V7.97h-.05v.058h-.077V7.97h-.055v.058h-.074V7.97h-.05v.11c0 .009.008.019.018.019H13.707l-.008.161h-.097l-.023-.342h.03c.01 0 .018-.005.018-.017v-.112h-.051v.053h-.077v-.053h-.053v.053h-.075v-.053h-.052V7.9c0 .006.009.014.02.017h.026l-.019.342h-.102l-.006-.161h.036c.006 0 .02-.006.02-.016V7.97h-.056v.058h-.074V7.97h-.053v.058h-.076V7.97h-.05v.11c0 .009.008.019.016.019h.038l-.01.161h-.008a.086.086 0 0 0-.089.088c0 .045.034.081.08.085l-.032.357h-.019a.088.088 0 0 0-.085.088c0 .047.038.085.085.085h1.024a.085.085 0 0 0 .088-.085.087.087 0 0 0-.088-.088zM7.031 11.99c.01-.298.24-.367.242-.367.002 0 .23.069.24.367h-.482zm.752 0h-.016l-.038-.357a.085.085 0 0 0 .085-.086.09.09 0 0 0-.09-.09h-.01l-.01-.157h.038c.008 0 .016-.006.016-.018v-.112h-.053v.057h-.071v-.057h-.06v.057h-.072v-.057h-.05v.112c0 .008.007.018.015.018h.039l-.007.157h-.1l-.02-.34h.03c.01 0 .015-.006.015-.017v-.112H7.37v.056H7.3v-.056h-.055v.056h-.073v-.056H7.12v.11c0 .009.006.017.016.02h.026l-.018.34h-.1l-.01-.158h.038c.008 0 .019-.006.019-.018v-.112H7.04v.057h-.076v-.057h-.055v.057h-.076v-.057h-.05v.112c0 .008.007.018.02.018h.034l-.008.157h-.008a.09.09 0 0 0-.09.09c0 .045.036.08.081.086l-.034.357H6.76a.087.087 0 0 0-.088.087c0 .048.041.082.088.082h1.022c.049 0 .09-.034.09-.082 0-.05-.041-.087-.09-.087zM13.231 11.99c.011-.298.24-.367.24-.367h.005s.226.069.24.367h-.485zm.754 0h-.016l-.037-.357a.085.085 0 0 0 .082-.086.09.09 0 0 0-.09-.09h-.01l-.009-.157h.038c.007 0 .015-.006.015-.018v-.112h-.05v.057h-.077v-.057h-.055v.057h-.074v-.057h-.05v.112c0 .008.008.018.018.018H13.707l-.008.157h-.097l-.023-.34h.03c.01 0 .018-.006.018-.017v-.112h-.051v.056h-.077v-.056h-.053v.056h-.075v-.056h-.052v.11c0 .009.009.017.02.02h.026l-.019.34h-.102l-.006-.158h.036c.006 0 .02-.006.02-.018v-.112h-.056v.057h-.074v-.057h-.053v.057h-.076v-.057h-.05v.112c0 .008.008.018.016.018h.038l-.01.157h-.008c-.05 0-.089.04-.089.09 0 .045.034.08.08.086l-.032.357h-.019a.085.085 0 0 0-.085.087c0 .048.038.082.085.082h1.024c.051 0 .088-.034.088-.082a.085.085 0 0 0-.088-.087zM8.158 15.314c-.204-.22-.089-.428-.089-.43.004 0 .213-.119.433.087l-.344.343zm.531-.535l-.012.015-.274-.226a.088.088 0 0 0-.006-.12c-.035-.034-.095-.034-.127 0l-.008.01-.117-.104.007-.007.02-.022c.006-.004.008-.015 0-.025l-.078-.08-.037.035.039.045-.053.054-.039-.044-.041.037.041.041-.056.053-.034-.039-.039.037.076.077c.008.007.02.007.028 0l.018-.018.009-.01.104.116-.07.067-.257-.224.025-.016c.005-.009.007-.02 0-.026l-.079-.08-.04.036.04.041-.053.051-.038-.039-.04.04.04.036-.053.057-.04-.04-.038.036.08.077c.005.007.017.007.026 0l.02-.02.227.255-.069.071-.12-.101.005-.009.021-.018c.006-.008.008-.019.002-.027l-.082-.08-.035.037.04.037-.052.057-.039-.043-.04.042.04.038-.051.051-.04-.037-.038.035.078.08c.006.004.018.006.027 0l.02-.023.006-.004.105.114-.004.008c-.037.037-.037.094 0 .125.032.032.083.032.12.008l.225.273-.012.014c-.035.031-.035.088 0 .123a.09.09 0 0 0 .127 0l.722-.72a.088.088 0 0 0 0-.122.088.088 0 0 0-.127-.005zM12.296 14.971c.222-.206.428-.087.43-.087.003.002.113.21-.088.43l-.342-.343zm-.315-.187a.088.088 0 0 0 0 .122l.723.72c.032.034.09.034.127 0 .032-.035.032-.092 0-.122l-.015-.015.23-.273c.034.024.087.024.118-.008.037-.03.037-.088 0-.125l-.004-.008.102-.114.01.004.02.023c.007.006.02.003.025 0l.079-.08-.037-.035-.04.037-.052-.05.037-.04-.037-.04-.04.042-.053-.057.04-.036-.035-.037-.08.08c-.009.008-.007.018 0 .026l.02.018.006.008-.12.102-.068-.071.227-.255.02.02c.009.006.021.006.025 0l.078-.077-.035-.037-.039.041-.053-.057.039-.037-.039-.038-.037.038-.057-.05.04-.042-.036-.036-.08.08c-.008.006-.004.018.003.026l.02.016-.258.225-.068-.068.105-.116.006.01.018.018c.009.007.023.007.025 0l.082-.077-.04-.037-.039.04-.05-.054.039-.04-.04-.038-.038.043-.053-.052.04-.045-.038-.035-.078.08c-.01.01-.007.02 0 .024l.018.022.008.006-.114.104-.01-.01a.095.095 0 0 0-.128 0 .088.088 0 0 0-.006.12l-.276.227-.01-.014a.087.087 0 0 0-.127.004z" mask="url(#d)"/>
            <path fill="#FEFEFE" d="M10.659 13.982a.1.1 0 0 0-.098.1c0 .062.042.106.098.106a.103.103 0 0 0 .102-.106c0-.05-.047-.1-.102-.1M10.1 13.986a.104.104 0 0 0-.1.1c0 .057.049.102.1.102a.1.1 0 0 0 .104-.102.1.1 0 0 0-.104-.1" mask="url(#d)"/>
            <path fill="#343676" d="M10.372 10.996a.533.533 0 0 0 .518-.548v-.734H9.857v.734c0 .365.294.548.515.548" mask="url(#d)"/>
            <path fill="#FEFEFE" d="M10.227 10.004a.12.12 0 0 0-.119-.119.118.118 0 0 0-.116.119c0 .065.052.118.116.118a.12.12 0 0 0 .119-.118M10.49 10.269a.119.119 0 0 0-.118-.119.116.116 0 0 0-.114.119c0 .063.05.116.114.116a.118.118 0 0 0 .119-.116M10.755 10.53a.117.117 0 0 0-.117-.117.117.117 0 1 0 0 .235.118.118 0 0 0 .117-.118M10.638 10.122a.118.118 0 0 0 .117-.118.118.118 0 0 0-.117-.119.119.119 0 0 0-.119.119c0 .065.054.118.12.118M10.108 10.648a.12.12 0 0 0 .119-.119.118.118 0 0 0-.119-.116.116.116 0 0 0-.116.116c0 .066.052.119.116.119" mask="url(#d)"/>
            <path fill="#343676" d="M10.372 12.773a.533.533 0 0 0 .518-.549v-.736H9.857v.736c0 .365.294.549.515.549" mask="url(#d)"/>
            <path fill="#FEFEFE" d="M10.227 11.78a.12.12 0 0 0-.119-.118.118.118 0 0 0-.116.118c0 .065.052.116.116.116a.118.118 0 0 0 .119-.116M10.49 12.043a.117.117 0 0 0-.118-.116.115.115 0 0 0-.114.116c0 .065.05.114.114.114a.115.115 0 0 0 .119-.114M10.755 12.308a.118.118 0 0 0-.117-.118.119.119 0 0 0-.119.118c0 .063.054.116.12.116a.118.118 0 0 0 .116-.116M10.638 11.896c.064 0 .117-.05.117-.116a.118.118 0 0 0-.117-.119.117.117 0 1 0 0 .235M10.108 12.424a.12.12 0 0 0 .119-.116.12.12 0 0 0-.119-.118.117.117 0 0 0 0 .234" mask="url(#d)"/>
            <path fill="#343676" d="M8.948 12.773a.532.532 0 0 0 .516-.549v-.736H8.43v.736c0 .365.292.549.518.549" mask="url(#d)"/>
            <path fill="#FEFEFE" d="M8.798 11.78a.117.117 0 1 0-.234 0c0 .065.054.116.117.116a.115.115 0 0 0 .117-.116M9.064 12.043a.116.116 0 0 0-.116-.116.117.117 0 0 0-.119.116c0 .065.053.114.119.114a.115.115 0 0 0 .116-.114M9.328 12.308a.117.117 0 0 0-.117-.118.119.119 0 0 0-.118.118c0 .063.053.116.118.116a.117.117 0 0 0 .117-.116M9.21 11.896c.067 0 .118-.05.118-.116a.117.117 0 0 0-.117-.119.118.118 0 0 0-.118.119c0 .065.053.116.118.116M8.681 12.424a.116.116 0 0 0 .117-.116.117.117 0 0 0-.117-.118.119.119 0 0 0-.117.118c0 .063.054.116.117.116" mask="url(#d)"/>
            <path fill="#343676" d="M11.799 12.773c.223 0 .52-.184.52-.549v-.736h-1.034v.736c0 .365.291.549.514.549" mask="url(#d)"/>
            <path fill="#FEFEFE" d="M11.652 11.78a.117.117 0 0 0-.118-.118.118.118 0 0 0-.116.118c0 .065.053.116.116.116a.116.116 0 0 0 .118-.116M11.918 12.043a.117.117 0 0 0-.12-.116.115.115 0 1 0 0 .23.115.115 0 0 0 .12-.114M12.181 12.308a.116.116 0 0 0-.116-.118.118.118 0 0 0-.119.118c0 .063.053.116.119.116a.116.116 0 0 0 .116-.116M12.065 11.896c.066 0 .116-.05.116-.116a.116.116 0 0 0-.116-.119.118.118 0 0 0-.119.119c0 .065.053.116.119.116M11.534 12.424a.117.117 0 1 0 0-.234.118.118 0 0 0-.116.118c0 .063.053.116.116.116" mask="url(#d)"/>
            <path fill="#343676" d="M10.372 14.55a.534.534 0 0 0 .518-.55v-.733H9.857V14c0 .363.294.55.515.55" mask="url(#d)"/>
            <path fill="#FEFEFE" d="M10.227 13.556a.12.12 0 0 0-.119-.116.117.117 0 0 0-.116.116.117.117 0 0 0 .235 0M10.49 13.821a.12.12 0 0 0-.118-.118.117.117 0 0 0-.114.118c0 .063.05.116.114.116a.118.118 0 0 0 .119-.116M10.755 14.082a.116.116 0 0 0-.117-.116.117.117 0 1 0 0 .235.118.118 0 0 0 .117-.119M10.638 13.672a.118.118 0 0 0 .117-.116.118.118 0 0 0-.236 0c0 .063.054.116.12.116M10.108 14.2a.12.12 0 0 0 .119-.118.118.118 0 0 0-.119-.116.116.116 0 0 0-.116.116c0 .066.052.118.116.118" mask="url(#d)"/>
            <path fill="#383434" d="M35.136 41.963a1.499 1.499 0 0 1-.539 1.166c-.17.145-.376.258-.618.34a2.472 2.472 0 0 1-.797.124 4.54 4.54 0 0 1-1.168-.135l.105-.932c.164.07.338.123.52.16.182.037.376.056.58.056.115 0 .223-.012.326-.037a.816.816 0 0 0 .27-.116.564.564 0 0 0 .183-.201.623.623 0 0 0 .067-.303.487.487 0 0 0-.157-.38 1.48 1.48 0 0 0-.393-.246 8.277 8.277 0 0 0-.513-.206 2.311 2.311 0 0 1-.514-.26 1.362 1.362 0 0 1-.393-.415c-.105-.169-.157-.393-.157-.672 0-.223.043-.429.128-.615.086-.187.21-.346.374-.478.163-.132.364-.235.602-.31.237-.074.509-.111.813-.111a4.779 4.779 0 0 1 .914.096l-.09.844a3.121 3.121 0 0 0-.427-.104 2.602 2.602 0 0 0-.442-.038c-.284 0-.494.056-.629.168a.542.542 0 0 0-.202.438c0 .15.053.27.16.362.107.092.24.175.4.247.159.072.332.143.518.213.187.07.36.16.52.273.158.112.292.252.398.422.108.17.161.386.161.65M37.93 40.28a7.207 7.207 0 0 1-.12-.359 4.735 4.735 0 0 1-.09-.335h-.007l-.094.335c-.033.115-.069.234-.108.359l-.503 1.432h1.424l-.502-1.432zm1.1 3.23l-.351-1.03h-1.91l-.352 1.03h-.981l1.768-5.036h1.1l1.805 5.037h-1.078zM42.199 38.168l-.157-.522 1.55-.56.217.686-1.61.396zm2.411 3.387c0 .692-.182 1.204-.547 1.538-.365.333-.883.5-1.553.5-.4 0-.727-.05-.98-.15a1.483 1.483 0 0 1-.596-.403 1.415 1.415 0 0 1-.3-.585 2.86 2.86 0 0 1-.083-.69v-3.291h.974v3.236c0 .16.015.305.045.438.03.132.085.246.164.344.08.097.188.172.323.224.134.052.307.078.516.078.375 0 .646-.088.813-.265.167-.177.251-.48.251-.908v-3.147h.973v3.081zM49 40.98c0-.268-.03-.509-.087-.723a1.4 1.4 0 0 0-.273-.544 1.175 1.175 0 0 0-.487-.34 2.051 2.051 0 0 0-.734-.115c-.115 0-.222 0-.322.003s-.19.009-.27.019v3.395a3.814 3.814 0 0 0 .532.037c.24 0 .46-.033.66-.1.199-.068.371-.172.516-.314.145-.142.259-.322.34-.541.083-.219.124-.477.124-.776m1.041-.075c0 .433-.067.814-.201 1.142a2.22 2.22 0 0 1-.573.825c-.246.221-.54.387-.882.5a3.592 3.592 0 0 1-1.125.167c-.264 0-.51-.003-.74-.011-.23-.008-.45-.016-.665-.026v-5.022a31.28 31.28 0 0 1 1.63-.037c.388 0 .74.045 1.057.134.317.09.586.234.808.433.222.199.392.454.512.765s.18.688.18 1.13M50.94 43.51v-5.036h2.748v.813h-1.775v1.232h1.685v.798h-1.685v1.365h1.775v.828zM36.926 4.663c-.313-.23-.789-.347-1.425-.347-.148 0-.288.003-.422.008a7.243 7.243 0 0 0-.367.02V7.31c.074.01.173.016.298.02.124.005.27.008.436.008.608 0 1.086-.141 1.432-.423.346-.282.519-.658.519-1.13 0-.517-.157-.891-.47-1.122zm.554 7.83l-2.532-4.047h-.236v2.951c.343.029.663.084.96.167v.929H32v-.915c.185-.047.38-.083.584-.11.204-.029.413-.052.626-.07V4.232a12.3 12.3 0 0 1-.626-.07 5.279 5.279 0 0 1-.584-.11v-.915h1.085c.093 0 .227-.002.403-.006l.619-.021a38.455 38.455 0 0 1 1.607-.028c.482 0 .925.046 1.328.139.404.092.751.238 1.043.436.293.2.517.46.675.783.157.324.236.716.236 1.178 0 .351-.06.672-.18.963-.121.291-.292.545-.515.763a2.897 2.897 0 0 1-.786.54 3.569 3.569 0 0 1-.994.298c.1.12.196.247.287.38.092.135.179.267.26.396l1.622 2.425a16.528 16.528 0 0 1 1.001.166v.943H37.48zM40.332 12.492v-.916c.185-.046.38-.083.584-.11.204-.029.412-.052.626-.07V4.22a13.236 13.236 0 0 1-.626-.069 5.57 5.57 0 0 1-.584-.11V3.14h6.217v2.23H45.45a15.52 15.52 0 0 1-.166-1.052h-2.24v2.812h1.795c.018-.156.041-.306.069-.45.028-.143.065-.28.11-.408h.947v2.827h-.946a2.69 2.69 0 0 1-.111-.423 9.21 9.21 0 0 1-.07-.437h-1.794v3.035h2.253c.019-.166.042-.342.07-.527.028-.184.065-.378.111-.582h1.099v2.328h-6.245zM52.746 4.767c-.32-.3-.823-.45-1.51-.45h-.403c-.12 0-.246.009-.375.027v3.423a3.876 3.876 0 0 0 .667.055c.64-.009 1.15-.173 1.53-.492.38-.318.57-.755.57-1.31 0-.535-.16-.953-.48-1.253m1.795 2.39a2.864 2.864 0 0 1-.737 1.005c-.32.282-.705.503-1.155.665-.45.162-.948.243-1.495.243h-.334c-.12 0-.241-.01-.361-.028v2.355c.213.02.422.042.626.07.203.028.398.064.584.11v.915h-3.923v-.914c.186-.047.38-.083.584-.11.204-.03.413-.052.626-.07V4.232a12.289 12.289 0 0 1-.626-.069 5.502 5.502 0 0 1-.584-.11v-.916h1.057c.111 0 .262-.001.452-.006s.401-.012.633-.02a34.78 34.78 0 0 1 1.46-.029c1.122 0 1.978.252 2.567.755.589.504.883 1.19.883 2.058 0 .453-.086.874-.257 1.261M59.763 2.473l-.557-.845L61.39.104l.667 1.011-2.294 1.358zm3.922 1.76v4.684c0 1.257-.322 2.19-.966 2.8-.645.61-1.589.914-2.831.914-.742 0-1.345-.093-1.808-.277-.464-.185-.826-.432-1.086-.741a2.593 2.593 0 0 1-.535-1.06 5.222 5.222 0 0 1-.146-1.248V4.233a8.157 8.157 0 0 1-.473-.069 5.26 5.26 0 0 1-.445-.097V3.14h3.478v.928a3.649 3.649 0 0 1-.522.104c-.18.023-.36.044-.535.062v4.961c0 .314.03.605.09.873.06.269.169.5.327.693.157.194.378.347.66.458.283.11.642.166 1.078.166.38 0 .71-.042.988-.125.278-.083.508-.22.688-.409a1.76 1.76 0 0 0 .404-.741c.088-.305.132-.675.132-1.109V4.233c-.176-.018-.357-.039-.542-.062a3.201 3.201 0 0 1-.515-.104V3.14h3.477v.928c-.297.074-.603.13-.918.166zM71.217 9.014a1.344 1.344 0 0 0-.473-.45 2.207 2.207 0 0 0-.716-.25 5.114 5.114 0 0 0-.918-.076h-.404a4.25 4.25 0 0 0-.243.007c-.08.005-.146.007-.202.007v2.98c.26.046.626.069 1.1.069.695 0 1.207-.15 1.536-.45.329-.3.494-.687.494-1.158 0-.268-.058-.494-.174-.679m-.09-3.935a.93.93 0 0 0-.293-.409 1.496 1.496 0 0 0-.549-.27 3.135 3.135 0 0 0-.842-.097 24.468 24.468 0 0 0-1.182.027v2.772c.12.01.246.014.376.014h.43c.706 0 1.239-.134 1.6-.402.362-.268.543-.638.543-1.109 0-.194-.028-.37-.084-.526m1.69 5.55a2.45 2.45 0 0 1-.59.928c-.279.282-.654.515-1.127.7-.473.185-1.071.277-1.795.277-.287 0-.653-.007-1.098-.021-.445-.013-.928-.02-1.447-.02h-1.21v-.915c.185-.046.38-.084.584-.11.204-.029.412-.052.626-.07V4.233a12.199 12.199 0 0 1-.626-.069 5.382 5.382 0 0 1-.584-.11v-.915h1.168c.353 0 .795-.007 1.328-.021a63.56 63.56 0 0 1 1.649-.02c1.029 0 1.804.198 2.323.595.519.397.779.956.779 1.677 0 .48-.146.914-.438 1.302-.293.388-.68.666-1.162.832v.027c.306.056.573.153.8.292.227.138.412.304.557.498a2.293 2.293 0 0 1 .438 1.344c0 .305-.059.626-.175.963M74.09 12.492v-.914c.184-.046.38-.083.583-.111.204-.028.413-.05.626-.07V4.233a12.782 12.782 0 0 1-.626-.069 5.475 5.475 0 0 1-.584-.11v-.915h3.923v.914c-.186.046-.381.084-.585.111-.204.028-.413.051-.626.07v7.011h2.128c.047-.36.112-.762.195-1.206h1.085v2.453h-6.12zM80.752 12.492v-.914c.185-.046.38-.083.583-.111.205-.028.413-.05.627-.07V4.233a12.782 12.782 0 0 1-.627-.069 5.494 5.494 0 0 1-.583-.11v-.915h3.922v.914c-.186.046-.38.084-.584.111-.204.028-.413.051-.626.07v7.163c.213.02.422.042.626.07.203.028.398.065.584.11v.915h-3.922zM91.378 5.771a7.712 7.712 0 0 1-.104-.644c-.023-.199-.044-.39-.063-.575a3.979 3.979 0 0 0-.605-.11 6.168 6.168 0 0 0-.591-.028c-.454 0-.85.085-1.19.256a2.416 2.416 0 0 0-.847.707c-.228.3-.397.66-.508 1.08-.112.42-.167.88-.167 1.38 0 .535.057 1.013.174 1.434.115.42.299.776.55 1.067.25.29.57.512.959.665.39.152.858.228 1.405.228.352 0 .716-.039 1.092-.117a5.201 5.201 0 0 0 1.008-.312l.097 1.386a9.17 9.17 0 0 1-1.224.311 7.279 7.279 0 0 1-1.321.118c-1.475 0-2.58-.4-3.318-1.199-.737-.798-1.105-1.91-1.105-3.332 0-.74.095-1.418.285-2.037.19-.619.477-1.15.863-1.594.384-.443.87-.79 1.46-1.04.588-.249 1.286-.373 2.093-.373.352 0 .714.023 1.085.069.371.046.737.11 1.099.194v2.466h-1.127zM98.388 6.09a7.859 7.859 0 0 1-.236-.706 11.744 11.744 0 0 1-.181-.735h-.028c-.046.24-.107.485-.18.735-.075.249-.158.499-.251.748l-1.015 2.785h2.935L98.388 6.09zm.862 6.402v-.914c.158-.037.33-.07.515-.097.186-.028.367-.05.543-.07l-.487-1.316h-3.714l-.472 1.317c.175.018.356.041.542.069.185.027.357.06.514.097v.914h-3.38v-.914c.12-.037.253-.067.397-.09.143-.023.28-.044.41-.063l2.99-8.286h1.823l3.032 8.286c.13.019.267.04.41.063.144.023.276.053.397.09v.914h-3.52zM37 18.091c-.32-.3-.822-.45-1.509-.45h-.403c-.12 0-.246.01-.376.027v3.423a4.055 4.055 0 0 0 .668.056c.64-.01 1.15-.173 1.53-.492.38-.319.57-.755.57-1.31 0-.535-.16-.953-.48-1.254m1.795 2.391a2.872 2.872 0 0 1-.738 1.004c-.32.282-.704.504-1.154.666-.45.161-.948.242-1.495.242h-.334c-.12 0-.241-.009-.362-.028v2.356c.213.019.422.041.626.07.204.027.399.064.584.11v.915H32v-.915c.186-.046.38-.083.584-.11.204-.029.412-.051.626-.07v-7.164a13.29 13.29 0 0 1-.626-.07 5.606 5.606 0 0 1-.584-.11v-.915h1.057a37.728 37.728 0 0 0 1.085-.028 34.779 34.779 0 0 1 1.46-.027c1.122 0 1.978.251 2.567.755.589.504.883 1.19.883 2.058 0 .453-.086.873-.257 1.261M46.232 18.55c-.48-.606-1.162-.909-2.048-.909-.363 0-.713.072-1.048.215a2.437 2.437 0 0 0-.881.646 3.316 3.316 0 0 0-.608 1.069c-.154.426-.23.92-.23 1.486 0 .528.055 1.011.167 1.45.112.44.28.815.503 1.125.224.31.508.551.853.723.345.17.75.256 1.216.256.345 0 .686-.069 1.02-.208.337-.139.637-.352.903-.639.265-.287.477-.646.635-1.076.16-.43.238-.937.238-1.52 0-1.139-.24-2.011-.72-2.617m1.965 4.55a4.621 4.621 0 0 1-.966 1.552 4.1 4.1 0 0 1-1.433.97 4.627 4.627 0 0 1-1.753.332c-.714 0-1.335-.11-1.864-.332a3.481 3.481 0 0 1-1.32-.95 3.978 3.978 0 0 1-.787-1.482c-.172-.577-.257-1.227-.257-1.947 0-.776.118-1.47.354-2.079.237-.61.56-1.124.967-1.545.408-.42.886-.741 1.433-.963a4.624 4.624 0 0 1 1.752-.332c.631 0 1.206.097 1.725.29.52.195.965.488 1.335.88.371.393.659.883.863 1.47.204.586.306 1.272.306 2.057 0 .776-.118 1.469-.355 2.079M54.368 17.987c-.314-.23-.789-.346-1.425-.346a11.6 11.6 0 0 0-.789.027v2.966c.074.01.173.017.298.02.124.006.27.008.436.008.609 0 1.086-.14 1.432-.423.346-.282.519-.658.519-1.13 0-.517-.157-.89-.47-1.122zm.554 7.83l-2.532-4.046h-.236v2.95c.343.029.663.084.96.167v.929h-3.672v-.915c.185-.046.38-.083.584-.11.204-.029.413-.051.626-.07v-7.164a12.71 12.71 0 0 1-.626-.07 5.364 5.364 0 0 1-.584-.11v-.915h1.085a44.507 44.507 0 0 0 1.022-.028 38.37 38.37 0 0 1 1.607-.027c.482 0 .925.046 1.328.138a3.04 3.04 0 0 1 1.043.437c.292.198.517.46.675.783.158.323.236.716.236 1.178 0 .35-.06.672-.18.963-.12.29-.292.545-.515.762a2.877 2.877 0 0 1-.786.54 3.547 3.547 0 0 1-.995.298c.101.12.197.247.289.381.09.134.178.266.26.395l1.621 2.425a12.241 12.241 0 0 1 1.002.166v.943h-2.212zM64.033 18.944c-.046-.24-.086-.462-.118-.666a10.809 10.809 0 0 1-.077-.568h-1.697v7.014c.214.019.422.041.626.07.204.027.4.064.584.11v.913H59.43v-.914c.185-.045.38-.082.584-.11.204-.028.413-.05.626-.07V17.71h-1.71c-.02.176-.042.365-.07.568a12.94 12.94 0 0 1-.111.666h-1.085v-2.48h7.455v2.48h-1.085zM74.034 17.558v4.684c0 1.256-.322 2.19-.967 2.799-.644.61-1.588.914-2.83.914-.743 0-1.345-.092-1.809-.276-.463-.185-.825-.432-1.085-.742a2.582 2.582 0 0 1-.535-1.06 5.222 5.222 0 0 1-.146-1.247v-5.072a8.157 8.157 0 0 1-.473-.07 5.216 5.216 0 0 1-.445-.096v-.929h3.477v.929c-.167.046-.34.08-.521.103-.18.024-.36.044-.536.063v4.96c0 .315.03.606.09.874s.17.499.327.693c.158.194.378.346.661.457.283.11.642.166 1.078.166.38 0 .71-.041.988-.124.278-.084.507-.22.688-.41.181-.189.315-.436.404-.74.087-.305.132-.675.132-1.11v-4.766c-.177-.019-.357-.04-.543-.063a3.205 3.205 0 0 1-.514-.103v-.929h3.477v.929c-.297.074-.603.13-.918.166M84.139 22.013c-.144.023-.29.044-.438.062v3.312a8.035 8.035 0 0 1-1.53.423 9.322 9.322 0 0 1-1.628.145c-.723 0-1.374-.106-1.954-.318a4.109 4.109 0 0 1-1.474-.908 3.945 3.945 0 0 1-.932-1.448c-.218-.573-.327-1.22-.327-1.94 0-.73.118-1.402.355-2.017a4.53 4.53 0 0 1 1.018-1.586 4.56 4.56 0 0 1 1.61-1.033c.632-.244 1.347-.367 2.147-.367.436 0 .866.031 1.288.092.423.06.852.142 1.288.245v2.351h-1.127a7.913 7.913 0 0 1-.111-.616c-.028-.199-.051-.39-.07-.575a7.523 7.523 0 0 0-.697-.132 4.987 4.987 0 0 0-.684-.048c-.474 0-.916.073-1.325.221-.41.148-.767.371-1.075.671-.306.3-.548.67-.725 1.113-.177.443-.265.955-.265 1.535 0 1.088.291 1.93.872 2.524.581.595 1.38.892 2.393.892.27 0 .525-.018.767-.055.242-.037.47-.092.684-.167v-2.3a12.254 12.254 0 0 1-.626-.069 4.18 4.18 0 0 1-.557-.111v-.915h3.533v.929c-.13.037-.266.067-.41.09M93.562 17.558v4.684c0 1.256-.322 2.19-.966 2.799-.644.61-1.588.914-2.831.914-.742 0-1.344-.092-1.808-.276-.464-.185-.826-.432-1.085-.742a2.577 2.577 0 0 1-.536-1.06 5.222 5.222 0 0 1-.145-1.247v-5.072a8.184 8.184 0 0 1-.474-.07 5.286 5.286 0 0 1-.445-.096v-.929h3.478v.929c-.167.046-.341.08-.522.103-.18.024-.36.044-.536.063v4.96c0 .315.03.606.09.874.061.268.17.499.328.693.157.194.378.346.66.457.284.11.643.166 1.079.166.38 0 .709-.041.987-.124.278-.084.508-.22.689-.41.18-.189.315-.436.403-.74.088-.305.132-.675.132-1.11v-4.766c-.176-.019-.357-.04-.542-.063a3.206 3.206 0 0 1-.515-.103v-.929h3.477v.929c-.296.074-.602.13-.918.166M95.426 25.817V24.9c.185-.046.38-.084.584-.111.204-.028.413-.051.626-.07v-7.176a13.295 13.295 0 0 1-.626-.068 5.59 5.59 0 0 1-.584-.11v-.903h6.218v2.231h-1.099a14.838 14.838 0 0 1-.167-1.053h-2.24v2.813h1.795a6.1 6.1 0 0 1 .069-.45c.028-.143.065-.28.112-.409h.945v2.827h-.945a2.69 2.69 0 0 1-.112-.423 9.295 9.295 0 0 1-.07-.436H98.14v3.034h2.253c.018-.166.041-.341.07-.526.027-.185.064-.379.11-.582h1.1v2.328h-6.246zM108.654 24.182c-.167.36-.403.672-.71.935-.305.263-.679.47-1.12.617a4.65 4.65 0 0 1-1.48.221c-.761 0-1.447-.08-2.06-.238v-2.353h1.114a18.383 18.383 0 0 1 .166 1.178c.13.028.27.05.418.07a3.336 3.336 0 0 0 1.168-.056 1.84 1.84 0 0 0 .605-.256c.171-.115.306-.265.404-.45.097-.184.146-.4.146-.65 0-.322-.105-.58-.313-.775a2.853 2.853 0 0 0-.772-.497c-.307-.139-.642-.27-1.009-.395a4.348 4.348 0 0 1-1.008-.49 2.777 2.777 0 0 1-.772-.769c-.209-.309-.313-.717-.313-1.224 0-.396.076-.763.229-1.1.153-.336.376-.625.668-.864.292-.24.649-.427 1.07-.56.423-.135.902-.202 1.44-.202a8.981 8.981 0 0 1 1.878.194v2.26h-1.112a5.68 5.68 0 0 1-.104-.597 56.052 56.052 0 0 1-.062-.54 3.2 3.2 0 0 0-.65-.07c-.59 0-1.031.123-1.322.368-.29.245-.436.561-.436.95 0 .313.105.565.312.754.208.19.467.354.777.492.31.139.644.275 1.005.409.36.134.695.3 1.005.5.31.198.568.45.776.754.208.305.312.702.312 1.192 0 .434-.083.831-.25 1.192M114.468 19.415a7.614 7.614 0 0 1-.236-.707 12.098 12.098 0 0 1-.182-.734h-.027c-.047.24-.107.484-.181.734s-.158.499-.25.748l-1.016 2.786h2.935l-1.043-2.827zm.862 6.402v-.915c.158-.037.33-.07.515-.097.185-.028.366-.05.542-.069l-.487-1.317h-3.713l-.473 1.317c.176.018.357.041.542.069.186.028.357.06.515.097v.915h-3.38v-.915c.12-.037.252-.066.396-.09.144-.023.28-.044.41-.062l2.99-8.287h1.823l3.032 8.287c.13.018.267.04.411.062.144.024.276.053.396.09v.915h-3.52z" mask="url(#d)"/>
        </g>
    </g>
</svg>
