<svg xmlns="http://www.w3.org/2000/svg" xmlns:xlink="http://www.w3.org/1999/xlink" width="115" height="31" viewBox="0 0 115 31">
    <defs>
        <path id="a" d="M0 31h115V0H0z"/>
    </defs>
    <g fill="none" fill-rule="evenodd">
        <path fill="#1D1D1B" d="M51.636 23.531c1.153 0 2.077-.279 2.772-.837.696-.558 1.044-1.414 1.044-2.567 0-.916-.224-1.638-.673-2.17a5.486 5.486 0 0 0-1.675-1.318 16.89 16.89 0 0 0-2.169-.933c-.778-.274-1.5-.618-2.169-1.03a5.552 5.552 0 0 1-1.675-1.592c-.448-.65-.673-1.533-.673-2.65 0-1.006.188-1.84.563-2.498a4.48 4.48 0 0 1 1.442-1.565 5.744 5.744 0 0 1 1.95-.81 9.797 9.797 0 0 1 2.086-.234c.495 0 1.02.038 1.58.11a9.532 9.532 0 0 1 1.55.33 4.16 4.16 0 0 1 1.195.563c.32.228.48.498.48.81 0 .219-.087.484-.26.796-.175.311-.417.467-.728.467-.165 0-.344-.055-.536-.165a8.52 8.52 0 0 0-.714-.357 6.895 6.895 0 0 0-1.043-.357c-.412-.11-.92-.165-1.524-.165-.512 0-.993.05-1.441.151a3.6 3.6 0 0 0-1.181.48c-.34.22-.609.513-.81.88-.202.366-.302.814-.302 1.345 0 .769.224 1.373.673 1.811.448.44 1.006.81 1.674 1.113.669.302 1.391.59 2.17.865.777.274 1.5.641 2.169 1.098a5.704 5.704 0 0 1 1.675 1.812c.448.75.672 1.749.672 2.993 0 .989-.15 1.844-.453 2.567-.301.724-.718 1.323-1.25 1.799a5.053 5.053 0 0 1-1.893 1.057 8.083 8.083 0 0 1-2.416.343c-.879 0-1.68-.105-2.403-.316-.724-.21-1.336-.475-1.84-.796-.504-.32-.892-.659-1.167-1.016-.274-.357-.412-.682-.412-.975 0-.274.105-.553.316-.837.21-.283.444-.426.7-.426.201 0 .408.115.618.344.21.229.485.485.824.768.338.284.764.54 1.276.77.513.228 1.172.342 1.978.342M63.058 7.469v8.128h3.707c1.134 0 2.022-.32 2.663-.961.64-.641.961-1.62.961-2.938v-.33c0-1.336-.32-2.32-.961-2.952-.641-.631-1.53-.947-2.663-.947h-3.707zm-2.306-1.29c0-.202.081-.385.247-.55.164-.164.393-.247.686-.247h5.189c.805 0 1.565.105 2.279.316.714.21 1.332.549 1.853 1.016.522.467.934 1.08 1.236 1.84.302.76.453 1.68.453 2.76v.246c0 1.08-.15 1.995-.453 2.746-.302.75-.723 1.364-1.263 1.84a5.038 5.038 0 0 1-1.895 1.043 7.94 7.94 0 0 1-2.32.33h-3.706v7.11c0 .275-.12.481-.357.619a1.568 1.568 0 0 1-.796.205c-.293 0-.56-.068-.797-.205a.67.67 0 0 1-.356-.619V6.18zM83.623 18.013c-.129.237-.27.402-.426.494a.936.936 0 0 1-.48.137.82.82 0 0 1-.44-.137c-.146-.092-.284-.257-.412-.494l-4.118-7.908v14.524a.67.67 0 0 1-.357.619 1.568 1.568 0 0 1-.797.205c-.292 0-.558-.069-.795-.205a.669.669 0 0 1-.358-.619V6.508c0-.421.115-.714.343-.879.229-.164.5-.247.81-.247.421 0 .77.124 1.044.37.275.248.54.61.796 1.086l4.31 8.264 4.34-8.264c.256-.477.523-.838.797-1.085s.622-.371 1.044-.371c.31 0 .58.083.81.247.228.165.343.458.343.879v18.121a.67.67 0 0 1-.357.619 1.572 1.572 0 0 1-.796.205 1.57 1.57 0 0 1-.797-.205.67.67 0 0 1-.357-.619V10.215l-4.147 7.798zM98.646 23.531c1.153 0 2.077-.279 2.773-.837.696-.558 1.043-1.414 1.043-2.567 0-.916-.224-1.638-.672-2.17a5.488 5.488 0 0 0-1.676-1.318 16.883 16.883 0 0 0-2.168-.933 11.269 11.269 0 0 1-2.17-1.03 5.57 5.57 0 0 1-1.676-1.592c-.449-.65-.673-1.533-.673-2.65 0-1.006.188-1.84.563-2.498a4.478 4.478 0 0 1 1.443-1.565 5.74 5.74 0 0 1 1.95-.81 9.793 9.793 0 0 1 2.086-.234c.495 0 1.02.038 1.58.11a9.528 9.528 0 0 1 1.55.33c.476.146.874.334 1.195.563.32.228.48.498.48.81 0 .219-.087.484-.26.796-.174.311-.417.467-.728.467a1.09 1.09 0 0 1-.535-.165 8.59 8.59 0 0 0-.714-.357 6.902 6.902 0 0 0-1.044-.357c-.411-.11-.92-.165-1.524-.165-.512 0-.993.05-1.441.151-.449.101-.842.261-1.181.48-.34.22-.609.513-.81.88-.202.366-.302.814-.302 1.345 0 .769.224 1.373.672 1.811.45.44 1.008.81 1.676 1.113.668.302 1.391.59 2.17.865.777.274 1.5.641 2.168 1.098a5.705 5.705 0 0 1 1.675 1.812c.449.75.672 1.749.672 2.993 0 .989-.15 1.844-.452 2.567-.302.724-.719 1.323-1.25 1.799a5.055 5.055 0 0 1-1.894 1.057 8.08 8.08 0 0 1-2.416.343c-.879 0-1.68-.105-2.404-.316-.723-.21-1.336-.475-1.84-.796-.504-.32-.893-.659-1.168-1.016-.274-.357-.411-.682-.411-.975 0-.274.105-.553.315-.837.21-.283.445-.426.701-.426.201 0 .408.115.619.344.21.229.485.485.823.768.34.284.765.54 1.277.77.513.228 1.172.342 1.978.342M107.625 23.015h.829c.049 0 .087.02.114.058a.233.233 0 0 1 .003.255c-.026.04-.065.059-.117.059h-.83v1.354h1.648c.05 0 .088.02.114.061.027.042.04.09.04.147 0 .05-.013.095-.038.136-.024.04-.063.06-.116.06h-1.892a.26.26 0 0 1-.138-.04.134.134 0 0 1-.064-.12V21.42c0-.053.022-.093.064-.12a.252.252 0 0 1 .138-.04h1.892c.053 0 .092.021.116.062.025.04.038.086.038.135a.26.26 0 0 1-.04.146.128.128 0 0 1-.114.061h-1.647v1.35zM110.356 21.664v1.574h.718c.219 0 .391-.063.515-.186.124-.124.186-.314.186-.569v-.064c0-.259-.062-.449-.186-.571-.124-.122-.296-.184-.515-.184h-.718zm-.447-.249c0-.039.016-.074.049-.107a.178.178 0 0 1 .132-.047h1.005c.156 0 .303.02.441.061a.92.92 0 0 1 .359.196c.1.09.18.21.239.357.058.147.087.324.087.534v.047c0 .21-.029.386-.087.532a.926.926 0 0 1-.611.558c-.14.043-.29.064-.45.064h-.717v1.376a.13.13 0 0 1-.069.12.307.307 0 0 1-.154.04.306.306 0 0 1-.154-.04.131.131 0 0 1-.07-.12v-3.57zM113.2 23.015h.828c.05 0 .088.02.114.058a.23.23 0 0 1 .003.255c-.025.04-.064.059-.117.059h-.829v1.354h1.648c.05 0 .087.02.114.061.026.042.04.09.04.147 0 .05-.013.095-.038.136-.024.04-.063.06-.116.06h-1.893a.26.26 0 0 1-.137-.04.134.134 0 0 1-.065-.12V21.42c0-.053.023-.093.065-.12a.252.252 0 0 1 .137-.04h1.893c.053 0 .092.021.116.062.025.04.037.086.037.135a.26.26 0 0 1-.04.146.128.128 0 0 1-.113.061h-1.648v1.35zM26.954 11.801l2.264-.806.355 4.463-2.619-3.657zm1.343 6.841l-3.789-3.044 5.01.748-1.221 2.296zm.266 1.441l.006-1.07.584-1.098-.59 2.168zm-.423 1.454l-1.11.534 1.12-2.228-.01 1.694zm-2.187 3.008l.78-1.872.948-.455-1.728 2.327zm-.793.83c-.108.266-.164.4-.193.476-.039.019-.09.043-.163.08l-3.806 1.915 5.026-4.551-.864 2.08zm-4.057 3.065l-.405.02 1.523-.766-1.118.746zm-.369-2.883l4.639-2.23-5.28 4.78.641-2.55zm-3.18 1.53l2.694-1.296-.654 2.599-2.04-1.303zm-.481 2.55l-3.278.032 3.34-2.358 2.15 1.373-2.212.953zm-3.296-3.313l2.878.818-3.258 2.303.38-3.121zm-.784 3.01L9.641 24.69l3.736 1.502-.384 3.141zm-3.104-.468l-.519-3.844 3.266 4.525-2.747-.68zm-2.637-1.29l1.676-2.74.517 3.837-2.193-1.097zm-2.467-3.23l3.905.084-1.747 2.86-2.158-2.944zm-.953.272l.472-.227 1.346 1.836-1.818-1.609zm-.998-1.834l1.193 1.282-.469.225-.724-1.507zm.518-1.238l.552 1.78-1.455-1.563.903-.217zm.15-3.29l-.204 2.878-.917.219 1.12-3.097zM.674 16.672l3.098-2.898c-.098.96-.154 2.658-.164 2.972l-1.54 4.258-1.394-4.332zm.08 2.144l-.032-.642.46 1.429-.428-.787zm-.352-5.65l.399-.932-.303 2.31-.096-1.377zM.6 10.726l.71-1.854-.36 1.854-.507 1.51.157-1.51zm.756.451L3.78 13.2.717 16.065l.64-4.889zm.234-2.572l1.427-1.23L1.445 9.97l.146-1.366zm1.335-1.945l.34-.083c-.253.236-.52.485-.773.716l.433-.633zm1.535-1.63l-.614.978-.41.1L4.46 5.03zm.923-.691l-.102.666-.572.408.674-1.074zm.3 2.326l-1.28-.525.948-.676.332 1.201zm4.258-2.378l-3.82 2.407-.393-1.418 4.213-.989zm-4.01-.784l1.048-.696L5.8 4.351l.132-.85zm2.014-1.28l2.597 1.497-4.556 1.07 1.96-2.567zm5.519-.875L11.07 3.546 8.512 2.07l4.953-.724zm-1.37-.669l1.032.3-3.184.465 2.152-.765zm2.69-.193l-.703.338-.811-.235 1.513-.103zm1.057-.05l1.613.783-2.619-.299 1.006-.484zm3.288.623l-.498.27-1.268-.614 1.766.344zm1.96 2.353l-2.091-1.812.666-.362 1.424 2.174zm2.58 1.005l-1.475-.075-1.563-2.383 3.038 2.458zm.658-.633l-.147.514-2.41-1.95 2.557 1.436zm.322.38l2.204 3.204-2.33-2.762.126-.443zm.143 1.403l4.26 5.048-2.329.83c-.265-.621-1.116-3.255-1.931-5.878zm1.825 6.476l2.767 3.866-5.218-.78 2.451-3.086zm-2.636 8.795l.007-5.124 3.988 3.204-3.995 1.92zm.269.33l3.653-1.756-1.426 2.835-2.227-1.08zm-.414.26l2.258 1.093-4.855 2.335 2.597-3.429zm-.331-.249l-2.775 3.662-.418-7.2 3.193 3.538zm-3.582-4.295l-2.498.503 4.34-4.828-1.842 4.325zm-2.768.98l2.723-.548.41 7.063-3.133-6.515zm-5.07 4.136l4.697-3.956 3.363 6.994-8.06-3.038zm.526.64l7.42 2.797-2.867 1.378-4.553-4.175zm-.278.308l4.01 3.676-2.597-.738-1.413-2.938zm-.724-.552l1.573 3.273-3.727-1.499 2.154-1.774zm-1.383.602l-.972.8-.005-.33.977-.47zm-1.58-3.05l2.646 2.078-2.097 1.008-.55-3.085zm.19 3.636l.006.436-2.292-.049 2.286-.387zm-.616-3.664l.579 3.25-3.905.662 3.326-3.912zm-.554.011l-3.21 3.78-.709-2.286 3.92-1.494zm-3.67-2.798L7.87 19.41 3.723 20.99l.273-3.859zm-.172-5.997l.047 1.602-2.058-1.719 2.01.117zm-1.86-1.221l2.098-3.467 1.526.626-3.624 2.84zM5.396 7.75l-1.494 2.975-2.143-.125 3.637-2.85zm1.717 4.371L4.307 10.84 5.935 7.6l1.178 4.521zm.867-3.514l-.585 2.955-1.06-4.067L7.98 8.607zm.166-.387l-1.77-1.197 4.083-2.574L8.146 8.22zm5.778-2.097l-5.221 1.98 2.456-4.002 2.765 2.022zm2.47-2.613l-4.754.075 2.457-2.257 2.296 2.182zm.49-.105L14.69 1.32l3.55.405-1.357 1.681zm.405.157l1.375-1.705 2.73 2.366-4.105-.66zm.183 2.767l4.422-1.504.19 2.395-4.612-.891zm.45 3.487L22.117 7.8l.113 3.407-4.306-1.391zm-3.449 6.374l3-6.084 4.483 1.447-7.483 4.637zm-.02.5l6.87-4.256-4.532 5.039-2.338-.782zm-.37.314l2.356.787-4.221 3.556 1.865-4.343zm-3.115-.709l2.711.6-1.905 4.435-.806-5.035zm-.375.274l.801 5.01-2.765-2.172 1.964-2.838zm-.306-.287l-2 2.892-3.83-2.251 5.83-.64zm-.348-.377l-5.91.649c.05-1.477.134-2.758.188-3.122.632.219 3.213 1.345 5.722 2.473zm-.074-.488c-1.893-.85-4.785-2.132-5.57-2.388l-.052-1.763 3.056 1.394 2.566 2.757zm.352-.23l-2.57-2.761.614-3.106 1.956 5.868zm2.834-6.576l-2.333 6.771-2.223-6.669 4.556-.102zm.159-.418l-3.8.085 4.547-1.725-.747 1.64zm1.126-2.283L11.72 3.998l4.664-.073-2.048 1.985zm2.143.25l-1.655-.145 1.824-1.77-.17 1.915zM13.81 7.872l.671-1.472 1.537.135-2.208 1.337zm-.07 8.613l-2.754-.61 2.225-6.461.529 7.07zM13.574 8.7l3.504 1.27-2.96 6.005-.544-7.275zm3.356-2.054l4.729.914-4.143 1.992-.586-2.906zm-.029-.56l.189-2.137 4.134.665-4.323 1.471zm.19 3.447L13.82 8.35l2.701-1.635.569 2.82zm6.484 6.077l-.007 5.019-3.157-3.498 3.164-1.52zm-1.147-3.545l1.097 3.11-3.047 1.465 1.95-4.575zm.046-5.178l-.17-2.126 1.605.08-1.435 2.046zm.11.563L24.22 5.12c.35 1.13 1.3 4.186 1.847 5.743L22.583 7.45zm3.63 4.435l-2.36 2.974-1.11-3.143 3.47.169zm-3.568-.589l-.11-3.312 3.557 3.48-3.447-.168zm6.963-.622l-.04-.091-4.887-7.076-4.82-2.704L15.825 0l-3.749.253-4.3 1.528-2.188 1.46-2.935 3.09-1.338 1.95L.31 10.586 0 13.052l.23 3.566.114 2.277 1.527 2.85 1.398 2.9.04.064 3.503 3.1 2.821 1.42 3.488.864 3.998-.042 4.088-1.194 4.065-2.705 3.24-4.358.035-.074 1.483-5.456.014-.107-.435-5.483z"/>
        <mask id="b" fill="#fff">
            <use xlink:href="#a"/>
        </mask>
        <path fill="#1D1D1B" d="M37.564 31h.443V0h-.443z" mask="url(#b)"/>
    </g>
</svg>
