<?xml version="1.0" encoding="UTF-8"?>
<svg width="333px" height="49px" viewBox="0 0 333 49" version="1.1" xmlns="http://www.w3.org/2000/svg" xmlns:xlink="http://www.w3.org/1999/xlink">
    <!-- Generator: Sketch 63.1 (92452) - https://sketch.com -->
    <title>logo_dgs_covid19</title>
    <desc>Created with Sketch.</desc>
    <g id="Page-1" stroke="none" stroke-width="1" fill="none" fill-rule="evenodd">
        <g id="Desktop_Microsite_DGS_07" transform="translate(-116.000000, -28.000000)" fill-rule="nonzero">
            <g id="logo_dgs_covid19" transform="translate(116.000000, 28.000000)">
                <path d="M38.1,32.8 L38.1,32.8 C38.3,32.5 38.4,32.3 38.4,32.1 C38.5,31.7 38.6,31.3 38.6,31 C38.6,31.3 38.5,31.7 38.4,32.1 C38.4,32.3 38.3,32.5 38.1,32.8" id="Path" fill="#FFFFFF"></path>
                <path d="M4.2,11.34 L4.2,11.34 C4.5,10.24 5.1,9.34 6.1,8.74 C8.1,7.54 11.1,8.54 19,9.74 C26,10.84 29,10.54 34.7,9.04 L34.7,9.04 C34.7,9.04 34.7,9.04 34.7,9.04 L34.7,9.04 C35.2,8.74 35.7,8.34 36.1,7.94 C38.4,5.44 37.4,2.64 35.5,1.44 C33.6,0.24 30.5,1.24 22.6,2.44 C16.3,3.44 13.2,3.34 8.5,2.14 C5.8,4.44 3.6,7.44 2.2,10.74 C2.8,10.94 3.5,11.14 4.2,11.34 L4.2,11.34 L4.2,11.34 L4.2,11.34 Z" id="Path_1_" fill="#FFFFFF"></path>
                <path d="M6,24.84 C10.8,26.64 16.4,27.74 23,27.24 C28.5,26.84 34.2,25.64 37.4,24.34 C38.4,23.94 39.3,23.54 39.8,23.04 C41.7,21.34 42.4,18.34 40.4,17.54 C40.4,17.54 40.3,17.54 40.2,17.54 C31.7,20.94 22.4,20.74 17.7,19.94 C13.8,19.24 9.5,18.14 6.8,16.34 C6,16.04 5.3,15.84 4.7,15.54 C3.4,14.94 2.3,14.34 1.1,13.64 C0.6,15.54 0.3,17.64 0.3,19.74 C0.3,20.54 0.3,21.44 0.4,22.24 C1.7,22.94 3.1,23.64 4.6,24.24 L4.6,24.24 C5.1,24.54 5.5,24.74 6,24.84 Z M6,22.64 C8.1,22.14 10.3,23.14 16.3,24.44 C21.5,25.54 30.5,25.74 37.4,24.44 C36,24.94 34,25.54 31.9,26.04 C31,26.24 30,26.44 29,26.54 C28.7,26.54 28.3,26.64 28,26.74 C27.3,26.84 26.7,26.94 26,27.04 C25.7,27.04 25.3,27.14 25,27.14 C24.3,27.24 23.6,27.24 22.9,27.34 C20.2,27.54 17.7,27.54 15.3,27.24 C11.3,26.74 7.7,25.74 4.5,24.44 C4.7,23.54 5.2,22.94 6,22.64 Z" id="Shape" fill="#FFFFFF"></path>
                <path d="M38.3,32.54 L38.3,32.54 C38.3,32.54 38.3,32.44 38.4,32.34 C38.3,32.44 38.3,32.54 38.3,32.54 Z" id="Path_2_" fill="#FFFFFF"></path>
                <path d="M22.6,33.54 C20.8,33.24 18.9,32.94 17.1,32.44 L17.1,32.44 C10.4,31.84 5.1,28.84 1.4,26.64 C2.5,30.14 4.4,33.34 6.9,35.94 C8.3,36.74 9.8,37.34 11.4,37.84 C12.1,38.04 12.7,38.24 13.3,38.34 L13.3,38.34 L13.3,38.34 L13.3,38.34 C20.1,39.94 25.4,38.54 29.5,37.64 C30.5,37.44 31.5,37.14 32.4,36.74 C31.5,37.14 30.5,37.44 29.5,37.64 C25.5,38.54 20.1,39.94 13.3,38.34 C12.7,37.74 12.2,37.24 12.1,36.74 C11.6,35.14 11.8,34.24 14.4,34.44 C17,34.64 24.1,37.44 33.3,36.24 C33,36.34 32.8,36.54 32.5,36.64 C32.8,36.54 33,36.34 33.3,36.24 L33.3,36.24 L33.3,36.24 L33.3,36.24 C35.5,35.14 37.3,33.74 38.1,32.64 L38.1,32.64 L38.1,32.64 C33.6,33.94 28.4,34.44 22.6,33.54 Z" id="Path_3_" fill="#FFFFFF"></path>
                <path d="M38.6,30.94 C38.6,30.94 38.6,30.84 38.6,30.84 C38.6,30.84 38.6,30.94 38.6,30.94 Z" id="Path_4_" fill="#FFFFFF"></path>
                <path d="M7.9,16.84 C8.2,16.94 8.4,17.04 8.7,17.14 C8.8,17.14 9,17.24 9.1,17.24 C15.8,19.04 24.5,19.44 29.8,18.74 C29.9,18.74 30,18.74 30,18.74 C30.3,18.74 30.5,18.64 30.7,18.64 C36,17.84 38.2,17.04 40.1,17.54 C40.2,17.54 40.3,17.54 40.4,17.64 C40.4,17.64 40.5,17.64 40.5,17.64 C42.9,16.64 44.9,15.74 46.5,14.94 C45.8,11.74 44.5,8.84 42.7,6.24 C41.1,7.04 39.4,7.64 37.9,8.04 C36.7,8.34 35.7,8.64 34.7,8.94 C34.1,9.34 33.4,9.74 32.6,10.14 C30.4,11.14 27.6,11.94 24.9,12.44 C24.5,12.54 24.1,12.64 23.6,12.74 C19.4,13.44 11.7,13.64 4.1,11.44 C3.8,12.64 4.1,14.04 5.4,15.34 C5.8,15.74 6.3,16.14 6.8,16.54 L6.8,16.54 L6.8,16.54 C7.2,16.64 7.5,16.64 7.9,16.84 Z" id="Path_6_" fill="#FFFFFF"></path>
                <path d="M34.7,9.04 L34.7,9.04 C34.7,9.04 34.7,9.04 34.7,9.04 C33.5,9.84 32,10.54 30.3,11.04 C28.2,11.74 25.8,12.34 23.6,12.64 C19.4,13.34 11.7,13.54 4.1,11.34 L4.1,11.34 C11.7,13.64 19.4,13.44 23.6,12.64 C24,12.54 24.4,12.44 24.9,12.34 C27.6,11.84 30.3,11.04 32.6,10.04 C33.3,9.84 34.1,9.44 34.7,9.04 Z" id="Path_7_" fill="#FFFFFF"></path>
                <path d="M44.4,30.64 C46,27.64 46.9,24.24 47,20.64 C45.3,21.54 43.6,22.44 41.7,23.14 C40.4,23.64 39,23.94 37.5,24.34 C34.2,25.64 28.5,26.84 23.1,27.24 C16.5,27.74 10.9,26.64 6.1,24.84 C5.6,24.64 5.2,24.44 4.7,24.34 L4.7,24.34 C4.5,25.54 4.9,26.74 6.2,27.74 C7.5,28.74 12,31.34 17.2,32.54 L17.2,32.54 C18.2,32.64 19.2,32.64 20.1,32.64 C24.2,32.64 27.7,32.04 30.5,31.34 C33.1,30.74 35,30.04 36.1,29.94 C36.3,29.94 36.4,29.94 36.5,29.94 C36.5,29.94 36.6,29.94 36.6,29.94 C36.7,29.94 36.8,29.94 36.9,29.94 C36.9,29.94 37,29.94 37,29.94 C37.2,29.94 37.4,29.94 37.6,29.94 C37.6,29.94 37.6,29.94 37.7,29.94 C37.8,29.94 37.8,29.94 37.9,29.94 C38,29.94 37.9,29.94 38,29.94 C38.1,29.94 38.1,29.94 38.2,30.04 L38.2,30.04 C38.2,30.04 38.3,30.04 38.4,30.14 L38.4,30.14 C38.4,30.14 38.5,30.14 38.5,30.24 L38.5,30.24 C38.5,30.24 38.5,30.34 38.6,30.34 L38.6,30.34 C38.6,30.34 38.6,30.44 38.7,30.54 L38.7,30.54 C38.7,30.54 38.7,30.64 38.7,30.64 L38.7,30.64 C38.7,30.64 38.7,30.74 38.7,30.84 L38.7,30.84 L38.7,30.84 C38.7,31.14 38.6,31.54 38.5,31.94 L38.5,31.94 C38.5,32.04 38.5,32.04 38.4,32.14 C38.4,32.14 38.4,32.24 38.3,32.34 C38.3,32.34 38.3,32.34 38.3,32.44 L38.3,32.44 C38.3,32.44 38.3,32.54 38.2,32.54 C40.3,32.24 42.4,31.54 44.4,30.64 Z" id="Path_8_" fill="#FFFFFF"></path>
                <path d="M33.3,36.44 C32.1,37.04 30.8,37.54 29.4,37.84 C25.4,38.74 20,40.14 13.2,38.54 C14.9,40.04 17.9,41.64 21.2,42.24 C22.7,42.54 24.3,42.84 26.2,43.04 C33.1,42.24 39.1,38.54 42.8,33.04 C39.9,34.64 36.7,36.04 33.3,36.44 C33.4,36.34 33.3,36.44 33.3,36.44 L33.3,36.44 L33.3,36.44 Z" id="Path_9_" fill="#FFFFFF"></path>
                <path d="M29.4,37.74 C30.7,37.44 32,36.94 33.3,36.34 L33.3,36.34 C32.1,37.04 30.8,37.44 29.4,37.74 C25.4,38.64 20,40.04 13.2,38.44 L13.2,38.44 L13.2,38.44 L13.2,38.44 C20.1,40.04 25.5,38.64 29.4,37.74 Z" id="Path_10_" fill="#FFFFFF"></path>
                <path d="M34.7,9.04 C32,10.84 27.6,12.04 23.7,12.74 C19.5,13.44 11.8,13.64 4.2,11.44 L4.2,11.44 L4.2,11.44 L4.2,11.44 C11.8,13.74 19.5,13.54 23.7,12.74 C25.9,12.34 28.3,11.84 30.4,11.14 C32,10.54 33.5,9.84 34.7,9.04 L34.7,9.04 Z" id="Path_11_" fill="#FFFFFF"></path>
                <path d="M29.9,18.64 C36,17.74 38.3,16.84 40.3,17.64 C40.3,17.64 40.4,17.64 40.4,17.64 L40.4,17.64 L40.4,17.64 L40.4,17.64 C40.4,17.64 40.3,17.64 40.3,17.64 C40.2,17.64 40.1,17.54 40,17.54 C38.1,17.04 35.9,17.84 30.6,18.64 C30.4,18.54 30.2,18.64 29.9,18.64 C29.8,18.64 29.7,18.64 29.7,18.64 C24.5,19.34 15.8,18.94 9,17.14 C8.9,17.14 8.7,17.04 8.6,17.04 C8.3,16.94 8.1,16.84 7.8,16.74 C7.5,16.64 7.1,16.54 6.8,16.44 C6.8,16.44 6.8,16.44 6.8,16.44 C13.9,18.84 24.1,19.44 29.9,18.64 Z" id="Path_12_" fill="#FFFFFF"></path>
                <path d="M38.6,30.84 L38.6,30.84 C38.6,30.74 38.6,30.74 38.6,30.84 C38.6,30.74 38.6,30.74 38.6,30.74 C38.6,30.74 38.6,30.74 38.6,30.84 Z" id="Path_13_" fill="#FFFFFF"></path>
                <path d="M38.1,32.84 L38.1,32.84 C38.1,32.84 38.1,32.74 38.2,32.74 L38.2,32.74 C38.1,32.74 38.1,32.74 38.1,32.84 Z" id="Path_14_" fill="#FFFFFF"></path>
                <path d="M36,29.94 C37.7,29.74 38.4,30.04 38.5,30.74 L38.5,30.74 L38.5,30.74 C38.5,30.74 38.5,30.64 38.4,30.54 L38.4,30.54 C38.4,30.54 38.4,30.44 38.3,30.44 L38.3,30.44 C38.3,30.44 38.3,30.44 38.2,30.34 L38.2,30.34 C38.2,30.34 38.1,30.24 38,30.24 L38,30.24 C38,30.24 37.9,30.24 37.8,30.14 C37.8,30.14 37.8,30.14 37.7,30.14 C37.6,30.14 37.6,30.14 37.5,30.14 C37.4,30.14 37.5,30.14 37.4,30.14 C37.2,30.14 37,30.14 36.8,30.14 C36.8,30.14 36.7,30.14 36.7,30.14 C36.6,30.14 36.5,30.14 36.4,30.14 C36.4,30.14 36.3,30.14 36.3,30.14 C36.3,29.84 36.2,29.94 36,29.94 C34.9,30.04 32.9,30.74 30.4,31.34 C27.6,32.04 24.1,32.64 20,32.64 C19,32.64 18.1,32.64 17.1,32.54 L17.1,32.54 C17.1,32.54 17.1,32.54 17.2,32.54 C26.4,33.34 33.4,30.24 36,29.94 Z" id="Path_15_" fill="#FFFFFF"></path>
                <path d="M38.6,31.04 C38.6,31.34 38.5,31.74 38.4,32.14 L38.4,32.14 L38.4,32.14 L38.4,32.14 C38.6,31.64 38.6,31.34 38.6,31.04 L38.6,31.04 C38.6,30.94 38.6,30.94 38.6,31.04 C38.6,31.04 38.6,31.04 38.6,31.04 Z" id="Path_16_" fill="#FFFFFF"></path>
                <path d="M38.3,32.44 C38.3,32.34 38.3,32.34 38.3,32.44 C38.3,32.34 38.3,32.34 38.3,32.44 C38.3,32.34 38.3,32.34 38.3,32.44 Z" id="Path_17_" fill="#FFFFFF"></path>
                <path d="M38.3,32.34 C38.3,32.24 38.3,32.24 38.4,32.14 C38.4,32.24 38.4,32.34 38.3,32.34 Z" id="Path_19_" fill="#FFFFFF"></path>
                <path d="M61.1,45 L62.5,45 C63.1,45 63.5,44.9 63.9,44.7 C64.3,44.5 64.6,44.2 64.8,43.9 C65,43.6 65.2,43.2 65.3,42.8 C65.4,42.4 65.4,42 65.4,41.5 C65.4,41.1 65.4,40.7 65.3,40.2 C65.2,39.8 65,39.4 64.8,39.1 C64.6,38.8 64.3,38.5 63.9,38.3 C63.5,38.1 63.1,38 62.5,38 L61,38 L61.1,45 L61.1,45 Z M60.4,37.6 L62.7,37.6 C63.3,37.6 63.9,37.7 64.3,37.9 C64.8,38.1 65.1,38.4 65.4,38.8 C65.7,39.2 65.9,39.6 66,40.1 C66.1,40.6 66.2,41.1 66.2,41.6 C66.2,42.1 66.1,42.6 66,43.1 C65.9,43.6 65.7,44 65.4,44.4 C65.1,44.8 64.8,45.1 64.3,45.3 C63.8,45.5 63.3,45.6 62.6,45.6 L60.4,45.6 L60.4,37.6 L60.4,37.6 Z" id="Shape_1_" fill="#FFFFFF"></path>
                <path d="M68,39.4 L68.7,39.4 L68.7,45.6 L68,45.6 L68,39.4 Z M68.3,37.9 C68.2,37.9 68,37.9 68,37.8 C67.9,37.7 67.9,37.6 67.9,37.4 C67.9,37.3 67.9,37.1 68,37 C68.1,36.9 68.2,36.9 68.3,36.9 C68.4,36.9 68.6,36.9 68.6,37 C68.7,37.1 68.7,37.2 68.7,37.4 C68.7,37.5 68.7,37.7 68.6,37.8 C68.6,37.9 68.5,37.9 68.3,37.9" id="Shape_2_" fill="#FFFFFF"></path>
                <path d="M70.8,39.4 L71.5,39.4 L71.5,40 C71.7,39.7 71.9,39.6 72.2,39.5 C72.5,39.4 72.7,39.3 73.1,39.3 C73.2,39.3 73.3,39.3 73.4,39.3 C73.5,39.3 73.6,39.3 73.7,39.4 L73.7,40 C73.6,40 73.5,40 73.4,39.9 C73.3,39.8 73.2,39.9 73.1,39.9 C72.7,39.9 72.4,40 72.2,40.1 C71.9,40.2 71.8,40.4 71.6,40.6 L71.6,45.6 L70.9,45.6 L70.8,39.4 L70.8,39.4 Z" id="Path_21_" fill="#FFFFFF"></path>
                <path d="M76.8,39.8 C76.6,39.8 76.4,39.8 76.2,39.9 C76,39.9 75.8,40.1 75.6,40.2 C75.4,40.4 75.3,40.5 75.1,40.8 C74.9,41.1 74.9,41.4 74.8,41.8 L78.3,41.8 L78.3,41.7 C78.3,41.4 78.3,41.2 78.2,41 C78.1,40.8 78,40.6 77.9,40.4 C77.8,40.2 77.6,40.1 77.4,40 C77.3,39.9 77.1,39.8 76.8,39.8 M77,45.7 C76.5,45.7 76.1,45.6 75.7,45.5 C75.3,45.3 75,45.1 74.8,44.9 C74.5,44.6 74.4,44.3 74.3,43.9 C74.2,43.5 74.1,43.1 74.1,42.6 C74.1,42.1 74.2,41.7 74.3,41.3 C74.4,40.9 74.6,40.5 74.8,40.3 C75,40 75.3,39.8 75.6,39.6 C75.9,39.4 76.3,39.3 76.7,39.3 C77.1,39.3 77.5,39.4 77.8,39.6 C78.1,39.8 78.3,40 78.5,40.2 C78.7,40.4 78.8,40.7 78.9,41 C79,41.3 79,41.6 79,41.9 L79,42.1 C79,42.2 79,42.3 79,42.4 L74.8,42.4 L74.8,42.6 C74.8,43 74.8,43.3 74.9,43.6 C75,43.9 75.1,44.2 75.3,44.4 C75.5,44.6 75.7,44.8 76,44.9 C76.3,45 76.6,45.1 77,45.1 C77.3,45.1 77.7,45.1 77.9,45 C78.1,44.9 78.4,44.8 78.7,44.7 L78.7,45.3 C78.5,45.4 78.3,45.5 78,45.6 C77.7,45.6 77.4,45.7 77,45.7" id="Shape_3_" fill="#FFFFFF"></path>
                <path d="M82,48.1 C81.9,48.1 81.7,48.1 81.6,48.1 C81.5,48.1 81.3,48.1 81.3,48 L81.3,47.6 C81.3,47.6 81.5,47.6 81.6,47.7 C81.7,47.7 81.9,47.7 82,47.7 C82.2,47.7 82.4,47.7 82.5,47.6 C82.7,47.5 82.7,47.4 82.7,47.2 C82.7,47 82.6,46.8 82.4,46.8 C82.2,46.7 82,46.7 81.8,46.7 L82.2,45.7 C81.5,45.6 81,45.2 80.6,44.7 C80.2,44.2 80,43.5 80,42.6 C80,42.1 80,41.7 80.2,41.3 C80.3,40.9 80.5,40.5 80.7,40.3 C80.9,40 81.2,39.8 81.5,39.6 C81.8,39.4 82.2,39.3 82.7,39.3 C83,39.3 83.4,39.3 83.6,39.4 C83.9,39.5 84.1,39.5 84.2,39.7 L84.2,40.3 C84,40.2 83.8,40.1 83.6,40 C83.4,39.9 83.1,39.9 82.8,39.9 C82.4,39.9 82.1,40 81.9,40.1 C81.7,40.2 81.4,40.4 81.3,40.7 C81.1,41 81,41.2 80.9,41.6 C80.8,41.9 80.8,42.3 80.8,42.7 C80.8,43.5 81,44.2 81.4,44.6 C81.8,45 82.3,45.2 83,45.2 C83.3,45.2 83.6,45.2 83.9,45.1 C84.1,45.1 84.3,45 84.5,44.8 L84.5,45.3 C84.3,45.4 84.1,45.5 83.9,45.6 C83.6,45.7 83.4,45.7 83,45.7 L82.9,45.7 L82.7,46.3 C83,46.3 83.2,46.4 83.3,46.6 C83.4,46.8 83.5,46.9 83.5,47.1 C83.5,47.4 83.4,47.6 83.2,47.8 C82.7,48 82.4,48.1 82,48.1" id="Path_22_" fill="#FFFFFF"></path>
                <path d="M87.2,45.1 C87.5,45.1 87.8,45.1 88,44.9 C88.3,44.8 88.5,44.6 88.6,44.5 L88.6,42.6 C88.5,42.6 88.4,42.6 88.3,42.6 C88.2,42.6 88,42.6 88,42.6 C87.3,42.6 86.8,42.7 86.5,42.9 C86.1,43.1 86,43.4 86,43.9 C86,44.3 86.1,44.6 86.4,44.8 C86.5,45 86.8,45.1 87.2,45.1 M85.8,37.9 C85.9,37.7 86.1,37.6 86.3,37.4 C86.5,37.3 86.7,37.2 87,37.2 C87.1,37.2 87.3,37.2 87.4,37.2 C87.5,37.2 87.6,37.3 87.7,37.3 C87.8,37.3 87.9,37.4 88,37.4 C88.1,37.4 88.2,37.4 88.3,37.4 C88.5,37.4 88.6,37.4 88.8,37.2 C89,37 89,37 89.1,36.9 L89.5,37.2 C89.4,37.4 89.2,37.5 89,37.7 C88.8,37.8 88.6,37.9 88.3,37.9 C88.2,37.9 88,37.9 88,37.9 C88,37.9 87.8,37.8 87.7,37.8 C87.6,37.8 87.5,37.7 87.4,37.7 C87.3,37.7 87.2,37.7 87.1,37.7 C86.9,37.7 86.8,37.7 86.7,37.9 C86.6,38 86.5,38.1 86.4,38.2 L85.8,37.9 Z M87.1,45.7 C86.5,45.7 86,45.5 85.7,45.2 C85.4,44.9 85.2,44.5 85.2,44 C85.2,43.4 85.5,42.9 85.9,42.6 C86.4,42.3 87,42.1 87.9,42.1 C88,42.1 88.1,42.1 88.3,42.1 C88.4,42.1 88.6,42.1 88.7,42.1 L88.7,41.2 C88.7,40.7 88.6,40.4 88.4,40.2 C88.2,40 87.8,39.9 87.3,39.9 C87,39.9 86.7,39.9 86.5,40 C86.2,40.1 86,40.2 85.9,40.3 L85.9,39.7 C86.1,39.6 86.3,39.5 86.6,39.4 C86.9,39.3 87.2,39.3 87.5,39.3 C87.8,39.3 88,39.3 88.3,39.4 C88.6,39.4 88.8,39.6 88.9,39.7 C89.1,39.8 89.2,40 89.3,40.2 C89.4,40.4 89.5,40.7 89.5,41 L89.5,44.5 C89.5,44.7 89.5,44.9 89.6,45 C89.7,45.1 89.8,45.2 90,45.2 C90,45.2 90.1,45.2 90.1,45.2 C90.1,45.2 90.2,45.2 90.2,45.2 L90.2,45.7 C90.1,45.7 90.1,45.7 90,45.7 C89.9,45.7 89.8,45.7 89.7,45.7 C89.5,45.7 89.3,45.7 89.2,45.5 C89,45.4 88.9,45.2 88.9,45 C88.7,45.2 88.5,45.3 88.2,45.5 C87.8,45.6 87.4,45.7 87.1,45.7" id="Shape_4_" fill="#FFFFFF"></path>
                <path d="M93.5,45.1 C93.9,45.1 94.2,45 94.5,44.8 C94.8,44.6 95,44.4 95.1,44.2 C95.2,44 95.4,43.7 95.4,43.4 C95.4,43.1 95.5,42.8 95.5,42.5 C95.5,42.2 95.5,41.9 95.4,41.6 C95.4,41.3 95.2,41 95.1,40.8 C95,40.6 94.8,40.3 94.5,40.2 C94.2,40.1 93.9,39.9 93.5,39.9 C93.1,39.9 92.8,40 92.5,40.2 C92.2,40.4 92.1,40.6 91.9,40.8 C91.8,41.1 91.6,41.3 91.6,41.7 C91.6,42 91.5,42.3 91.5,42.6 C91.5,42.9 91.5,43.2 91.6,43.5 C91.6,43.8 91.8,44.1 91.9,44.3 C92,44.5 92.2,44.8 92.5,44.9 C92.8,45 93.1,45.1 93.5,45.1 M93.5,45.7 C93,45.7 92.7,45.6 92.3,45.4 C91.9,45.2 91.7,45 91.5,44.7 C91.3,44.4 91.1,44.1 91,43.7 C90.9,43.3 90.9,42.9 90.9,42.4 C90.9,42 90.9,41.6 91.1,41.2 C91.2,40.8 91.4,40.5 91.6,40.2 C91.8,39.9 92.1,39.7 92.4,39.5 C92.7,39.3 93.1,39.2 93.6,39.2 C94.1,39.2 94.4,39.3 94.8,39.5 C95.1,39.7 95.4,39.9 95.6,40.2 C95.8,40.5 96,40.8 96.1,41.2 C96.2,41.6 96.3,42 96.3,42.5 C96.3,42.9 96.3,43.3 96.1,43.7 C96,44.1 95.8,44.4 95.6,44.7 C95.4,45 95.1,45.2 94.8,45.4 C94.3,45.6 94,45.7 93.5,45.7" id="Shape_5_" fill="#FFFFFF"></path>
                <rect id="Rectangle" fill="#FFFFFF" x="97.5" y="41.6" width="2.4" height="1"></rect>
                <path d="M105.1,45.7 C104.6,45.7 104.1,45.6 103.6,45.4 C103.1,45.2 102.8,45 102.4,44.6 C102.1,44.3 101.8,43.8 101.6,43.3 C101.4,42.8 101.3,42.3 101.3,41.6 C101.3,41 101.4,40.5 101.5,40 C101.7,39.5 101.9,39 102.2,38.7 C102.5,38.3 102.9,38 103.4,37.8 C103.9,37.6 104.4,37.5 105,37.5 C105.5,37.5 105.8,37.5 106.1,37.6 C106.4,37.7 106.6,37.8 106.8,37.9 L106.8,38.5 C106.6,38.4 106.3,38.3 106,38.2 C105.7,38.1 105.4,38.1 105,38.1 C104.5,38.1 104,38.2 103.6,38.4 C103.2,38.6 102.9,38.8 102.6,39.2 C102.3,39.6 102.2,39.9 102.1,40.3 C102,40.7 101.9,41.2 101.9,41.7 C101.9,42.8 102.2,43.7 102.7,44.2 C103.2,44.8 104,45 104.9,45 C105.2,45 105.5,45 105.8,44.9 C106.1,44.8 106.3,44.8 106.4,44.7 L106.4,42.1 L104.9,42.1 L104.9,41.6 L107,41.6 L107,45.2 C106.8,45.3 106.5,45.4 106.2,45.5 C106.1,45.6 105.7,45.7 105.1,45.7" id="Path_23_" fill="#FFFFFF"></path>
                <path d="M111.5,39.8 C111.3,39.8 111.1,39.8 110.9,39.9 C110.7,40 110.5,40.1 110.3,40.2 C110.1,40.4 110,40.5 109.8,40.8 C109.6,41.1 109.6,41.4 109.5,41.8 L113,41.8 L113,41.7 C113,41.4 113,41.2 112.9,41 C112.8,40.8 112.7,40.6 112.6,40.4 C112.5,40.2 112.3,40.1 112.1,40 C112,39.9 111.8,39.8 111.5,39.8 M111.7,45.7 C111.2,45.7 110.8,45.6 110.4,45.5 C110,45.3 109.7,45.1 109.5,44.9 C109.2,44.6 109.1,44.3 109,43.9 C108.9,43.5 108.8,43.1 108.8,42.6 C108.8,42.1 108.8,41.7 109,41.3 C109.1,40.9 109.3,40.5 109.5,40.3 C109.7,40 110,39.8 110.3,39.6 C110.6,39.4 111,39.3 111.4,39.3 C111.8,39.3 112.2,39.4 112.5,39.6 C112.8,39.8 113,40 113.2,40.2 C113.4,40.4 113.5,40.7 113.6,41 C113.7,41.3 113.7,41.6 113.7,41.9 L113.7,42.1 C113.7,42.2 113.7,42.3 113.7,42.4 L109.5,42.4 L109.5,42.6 C109.5,43 109.5,43.3 109.6,43.6 C109.7,43.9 109.8,44.2 110,44.4 C110.2,44.6 110.4,44.8 110.7,44.9 C111,45 111.3,45.1 111.7,45.1 C112.1,45.1 112.4,45.1 112.6,45 C112.8,44.9 113.1,44.8 113.4,44.7 L113.4,45.3 C113.2,45.4 113,45.5 112.7,45.6 C112.4,45.6 112.1,45.7 111.7,45.7" id="Shape_6_" fill="#FFFFFF"></path>
                <path d="M115.2,39.4 L115.9,39.4 L115.9,40 C116.1,39.7 116.3,39.6 116.6,39.5 C116.9,39.4 117.1,39.3 117.5,39.3 C117.6,39.3 117.7,39.3 117.8,39.3 C117.9,39.3 118,39.3 118.1,39.4 L118.1,40 C118,40 117.9,40 117.8,39.9 C117.7,39.8 117.6,39.9 117.5,39.9 C117.1,39.9 116.8,40 116.6,40.1 C116.4,40.2 116.2,40.4 116,40.6 L116,45.6 L115.3,45.6 L115.2,39.4 L115.2,39.4 Z" id="Path_24_" fill="#FFFFFF"></path>
                <path d="M120.4,45.1 C120.7,45.1 121,45.1 121.2,44.9 C121.5,44.8 121.7,44.6 121.8,44.5 L121.8,42.6 C121.7,42.6 121.6,42.6 121.5,42.6 C121.4,42.6 121.2,42.6 121.2,42.6 C120.5,42.6 120,42.7 119.6,42.9 C119.2,43.1 119.1,43.4 119.1,43.9 C119.1,44.3 119.2,44.6 119.5,44.8 C119.7,45 120,45.1 120.4,45.1 M120.3,45.7 C119.7,45.7 119.2,45.5 118.9,45.2 C118.6,44.9 118.4,44.5 118.4,44 C118.4,43.4 118.7,42.9 119.1,42.6 C119.6,42.3 120.2,42.1 121.1,42.1 C121.2,42.1 121.3,42.1 121.5,42.1 C121.6,42.1 121.8,42.1 121.9,42.1 L121.9,41.2 C121.9,40.7 121.8,40.4 121.6,40.2 C121.4,40 121,39.9 120.5,39.9 C120.2,39.9 119.9,39.9 119.7,40 C119.5,40.1 119.2,40.2 119.1,40.3 L119.1,39.7 C119.3,39.6 119.5,39.5 119.8,39.4 C120.1,39.3 120.4,39.3 120.7,39.3 C121,39.3 121.2,39.3 121.5,39.4 C121.8,39.5 122,39.6 122.1,39.7 C122.3,39.8 122.4,40 122.5,40.2 C122.6,40.4 122.7,40.7 122.7,41 L122.7,44.5 C122.7,44.7 122.7,44.9 122.8,45 C122.9,45.1 123,45.2 123.2,45.2 C123.2,45.2 123.3,45.2 123.3,45.2 C123.3,45.2 123.4,45.2 123.4,45.2 L123.4,45.7 C123.3,45.7 123.3,45.7 123.2,45.7 C123.1,45.7 123,45.7 122.9,45.7 C122.7,45.7 122.5,45.7 122.4,45.5 C122.2,45.4 122.1,45.2 122.1,45 C121.9,45.2 121.7,45.3 121.4,45.5 C121,45.6 120.6,45.7 120.3,45.7" id="Shape_7_" fill="#FFFFFF"></path>
                <rect id="Rectangle_1_" fill="#FFFFFF" x="124.6" y="36.9" width="1" height="8.7"></rect>
                <path d="M132.5,45.1 C132.8,45.1 133,45.1 133.3,45 C133.6,44.9 133.8,44.8 133.9,44.6 L133.9,40.1 C133.8,40 133.6,40 133.4,39.9 C133.2,39.9 132.9,39.8 132.7,39.8 C132.4,39.8 132,39.8 131.8,40 C131.5,40.1 131.3,40.3 131.1,40.5 C130.9,40.8 130.8,41 130.7,41.3 C130.6,41.6 130.6,42 130.6,42.4 C130.6,42.8 130.6,43.1 130.7,43.4 C130.8,43.7 130.9,44 131,44.2 C131.1,44.4 131.4,44.6 131.6,44.8 C131.8,45 132.1,45.1 132.5,45.1 M132.4,45.7 C131.6,45.7 130.9,45.4 130.5,44.9 C130,44.4 129.8,43.6 129.8,42.5 C129.8,42 129.9,41.6 130,41.2 C130.1,40.8 130.3,40.4 130.5,40.2 C130.8,39.9 131,39.7 131.4,39.5 C131.7,39.3 132.2,39.2 132.6,39.2 C132.9,39.2 133.2,39.2 133.4,39.3 C133.7,39.4 133.8,39.4 133.9,39.5 L133.9,36.8 L134.6,36.8 L134.6,45.5 L133.9,45.5 L133.9,45 C133.8,45.1 133.6,45.3 133.4,45.4 C133.1,45.6 132.8,45.7 132.4,45.7" id="Shape_8_" fill="#FFFFFF"></path>
                <path d="M138.1,45.1 C138.4,45.1 138.7,45.1 138.9,44.9 C139.2,44.8 139.4,44.6 139.5,44.5 L139.5,42.6 C139.4,42.6 139.3,42.6 139.2,42.6 C139,42.6 138.9,42.6 138.9,42.6 C138.2,42.6 137.7,42.7 137.3,42.9 C136.9,43.1 136.8,43.4 136.8,43.9 C136.8,44.3 136.9,44.6 137.1,44.8 C137.4,45 137.7,45.1 138.1,45.1 M138,45.7 C137.4,45.7 136.9,45.5 136.6,45.2 C136.3,44.9 136.1,44.5 136.1,44 C136.1,43.4 136.4,42.9 136.8,42.6 C137.3,42.3 137.9,42.1 138.8,42.1 C138.9,42.1 139,42.1 139.2,42.1 C139.3,42.1 139.5,42.1 139.6,42.1 L139.6,41.2 C139.6,40.7 139.5,40.4 139.3,40.2 C139.1,40 138.7,39.9 138.2,39.9 C137.9,39.9 137.6,39.9 137.4,40 C137.2,40.1 136.9,40.2 136.8,40.3 L136.8,39.7 C137,39.6 137.2,39.5 137.5,39.4 C137.8,39.3 138.1,39.3 138.4,39.3 C138.7,39.3 138.9,39.3 139.2,39.4 C139.5,39.5 139.7,39.6 139.8,39.7 C140,39.8 140.1,40 140.2,40.2 C140.3,40.4 140.4,40.7 140.4,41 L140.4,44.5 C140.4,44.7 140.4,44.9 140.5,45 C140.6,45.1 140.7,45.2 140.9,45.2 C140.9,45.2 141,45.2 141,45.2 C141,45.2 141.1,45.2 141.1,45.2 L141.1,45.7 C141,45.7 141,45.7 140.9,45.7 C140.8,45.7 140.7,45.7 140.6,45.7 C140.4,45.7 140.2,45.7 140.1,45.5 C139.9,45.4 139.8,45.2 139.8,45 C139.6,45.2 139.4,45.3 139.1,45.5 C138.7,45.6 138.3,45.7 138,45.7" id="Shape_9_" fill="#FFFFFF"></path>
                <path d="M147,45.7 C146.6,45.7 146.2,45.7 145.8,45.6 C145.4,45.5 145.1,45.4 144.9,45.3 L144.9,44.7 C145,44.7 145.2,44.8 145.3,44.9 C145.5,44.9 145.6,45 145.8,45 C146,45 146.1,45.1 146.3,45.1 C146.5,45.1 146.7,45.1 146.8,45.1 C147.1,45.1 147.3,45.1 147.5,45 C147.7,45 147.9,44.8 148.1,44.7 C148.3,44.6 148.4,44.4 148.5,44.2 C148.6,44 148.6,43.8 148.6,43.5 C148.6,43.2 148.6,43 148.5,42.9 C148.4,42.8 148.3,42.6 148.1,42.4 C147.9,42.2 147.7,42.1 147.5,42 C147.3,41.9 147,41.7 146.7,41.6 C146.5,41.5 146.3,41.4 146.1,41.3 C145.9,41.2 145.7,41 145.6,40.9 C145.5,40.8 145.3,40.6 145.2,40.3 C145.1,40.1 145,39.8 145,39.5 C145,38.9 145.2,38.4 145.6,38 C146,37.7 146.6,37.5 147.3,37.5 C147.7,37.5 148.1,37.5 148.4,37.6 C148.7,37.7 148.9,37.8 149.1,37.8 L149.1,38.4 C148.9,38.3 148.7,38.2 148.3,38.1 C148,38 147.7,38 147.3,38 C146.8,38 146.4,38.1 146.1,38.4 C145.8,38.7 145.6,39 145.6,39.4 C145.6,39.6 145.6,39.8 145.7,39.9 C145.8,40.1 145.9,40.2 146,40.3 C146.1,40.4 146.3,40.6 146.5,40.6 C146.7,40.7 147,40.8 147.2,40.9 C147.4,41 147.7,41.1 147.9,41.2 C148.2,41.3 148.4,41.5 148.6,41.7 C148.8,41.9 149,42.1 149.1,42.4 C149.2,42.7 149.3,43 149.3,43.3 C149.3,43.6 149.3,43.9 149.1,44.2 C149,44.5 148.8,44.7 148.6,44.9 C148.4,45.1 148.1,45.2 147.8,45.4 C147.7,45.6 147.3,45.7 147,45.7" id="Path_25_" fill="#FFFFFF"></path>
                <path d="M152.6,45.1 C152.9,45.1 153.2,45.1 153.4,44.9 C153.7,44.8 153.9,44.6 154,44.5 L154,42.6 C153.9,42.6 153.8,42.6 153.7,42.6 C153.5,42.6 153.4,42.6 153.4,42.6 C152.7,42.6 152.2,42.7 151.8,42.9 C151.4,43.1 151.3,43.4 151.3,43.9 C151.3,44.3 151.4,44.6 151.6,44.8 C151.8,45 152.2,45.1 152.6,45.1 M152.5,45.7 C151.9,45.7 151.4,45.5 151.1,45.2 C150.8,44.9 150.6,44.5 150.6,44 C150.6,43.4 150.9,42.9 151.3,42.6 C151.7,42.3 152.4,42.1 153.3,42.1 C153.4,42.1 153.5,42.1 153.7,42.1 C153.8,42.1 154,42.1 154.1,42.1 L154.1,41.2 C154.1,40.7 154,40.4 153.8,40.2 C153.6,40 153.2,39.9 152.7,39.9 C152.4,39.9 152.1,39.9 151.9,40 C151.7,40.1 151.4,40.2 151.3,40.3 L151.3,39.7 C151.5,39.6 151.7,39.5 152,39.4 C152.3,39.3 152.6,39.3 152.9,39.3 C153.2,39.3 153.4,39.3 153.7,39.4 C154,39.4 154.2,39.6 154.3,39.7 C154.5,39.8 154.6,40 154.7,40.2 C154.8,40.4 154.9,40.7 154.9,41 L154.9,44.5 C154.9,44.7 154.9,44.9 155,45 C155.1,45.1 155.2,45.2 155.4,45.2 C155.4,45.2 155.5,45.2 155.5,45.2 C155.5,45.2 155.6,45.2 155.6,45.2 L155.6,45.7 C155.5,45.7 155.5,45.7 155.4,45.7 C155.3,45.7 155.2,45.7 155.1,45.7 C154.9,45.7 154.7,45.7 154.6,45.5 C154.4,45.4 154.3,45.2 154.3,45 C154.1,45.2 153.9,45.3 153.6,45.5 C153.1,45.6 152.8,45.7 152.5,45.7" id="Shape_10_" fill="#FFFFFF"></path>
                <path d="M159.8,36.9 L160.8,36.9 L159.2,38.4 L158.6,38.4 L159.8,36.9 Z M158.7,45.7 C158.3,45.7 158,45.7 157.7,45.5 C157.4,45.4 157.2,45.2 157.1,45 C156.9,44.8 156.8,44.6 156.8,44.3 C156.7,44 156.7,43.8 156.7,43.4 L156.7,39.3 L157.3,39.3 L157.3,43.2 C157.3,43.5 157.3,43.7 157.4,43.9 C157.4,44.1 157.5,44.3 157.7,44.4 C157.8,44.6 158,44.7 158.2,44.8 C158.4,44.9 158.6,44.9 159,44.9 C159.4,44.9 159.6,44.9 159.9,44.7 C160.2,44.6 160.4,44.5 160.6,44.4 L160.6,39.2 L161.3,39.2 L161.3,45.4 L160.7,45.4 L160.7,45 C160.6,45 160.5,45.1 160.4,45.2 C160.3,45.3 160.1,45.3 160,45.4 C159.8,45.4 159.7,45.5 159.5,45.6 C159.1,45.7 158.9,45.7 158.7,45.7" id="Shape_11_" fill="#FFFFFF"></path>
                <path d="M165.4,45.1 C165.7,45.1 165.9,45.1 166.2,45 C166.5,44.9 166.7,44.8 166.8,44.6 L166.8,40.1 C166.7,40 166.5,40 166.3,39.9 C166.1,39.9 165.8,39.8 165.6,39.8 C165.2,39.8 164.9,39.8 164.7,40 C164.4,40.1 164.2,40.3 164,40.5 C163.8,40.8 163.7,41 163.6,41.3 C163.5,41.6 163.5,42 163.5,42.4 C163.5,42.8 163.5,43.1 163.6,43.4 C163.7,43.7 163.8,44 163.9,44.2 C164,44.4 164.3,44.6 164.5,44.8 C164.7,45 165,45.1 165.4,45.1 M165.2,45.7 C164.4,45.7 163.7,45.4 163.3,44.9 C162.8,44.4 162.6,43.6 162.6,42.5 C162.6,42 162.7,41.6 162.8,41.2 C162.9,40.8 163.1,40.4 163.3,40.2 C163.5,40 163.8,39.7 164.2,39.5 C164.5,39.3 165,39.2 165.4,39.2 C165.7,39.2 165.9,39.2 166.2,39.3 C166.5,39.4 166.6,39.4 166.7,39.5 L166.7,36.8 L167.4,36.8 L167.4,45.5 L166.7,45.5 L166.7,45 C166.6,45.1 166.4,45.3 166.2,45.4 C165.9,45.6 165.6,45.7 165.2,45.7" id="Shape_12_" fill="#FFFFFF"></path>
                <path d="M171.7,39.8 C171.5,39.8 171.3,39.8 171.1,39.9 C170.9,39.9 170.7,40.1 170.5,40.2 C170.3,40.4 170.2,40.5 170,40.8 C169.9,41.1 169.8,41.4 169.7,41.8 L173.2,41.8 L173.2,41.7 C173.2,41.4 173.2,41.2 173.1,41 C173,40.8 172.9,40.6 172.8,40.4 C172.7,40.2 172.5,40.1 172.3,40 C172.2,39.9 171.9,39.8 171.7,39.8 M171.9,45.7 C171.4,45.7 171,45.6 170.6,45.5 C170.3,45.3 169.9,45.1 169.7,44.9 C169.4,44.6 169.3,44.3 169.2,43.9 C169.1,43.5 169,43.1 169,42.6 C169,42.1 169,41.7 169.2,41.3 C169.3,40.9 169.5,40.5 169.7,40.3 C169.9,40 170.2,39.8 170.5,39.6 C170.8,39.4 171.2,39.3 171.6,39.3 C172,39.3 172.4,39.4 172.7,39.6 C173,39.8 173.2,40 173.4,40.2 C173.6,40.4 173.7,40.7 173.8,41 C173.9,41.3 173.9,41.6 173.9,41.9 L173.9,42.1 C173.9,42.2 173.9,42.3 173.9,42.4 L169.7,42.4 L169.7,42.6 C169.7,43 169.7,43.3 169.8,43.6 C169.9,43.9 170,44.2 170.2,44.4 C170.4,44.6 170.6,44.8 170.9,44.9 C171.2,45 171.5,45.1 171.9,45.1 C172.2,45.1 172.6,45.1 172.8,45 C173,44.9 173.3,44.8 173.6,44.7 L173.6,45.3 C173.4,45.4 173.2,45.5 172.9,45.6 C172.6,45.6 172.2,45.7 171.9,45.7" id="Shape_13_" fill="#FFFFFF"></path>
                <path d="M70,25.5 C77.1,25.5 78.8,21.2 78.8,15.8 C78.8,10.4 77.2,6.1 70.3,6.1 L67,6.1 L67,25.5 L70,25.5 Z M60.4,0.8 L70.9,0.8 C81.8,0.8 85.8,8.1 85.8,15.9 C85.8,23.3 82,31 70.8,31 L60.4,31 L60.4,0.8 L60.4,0.8 Z" id="Shape_14_" fill="#FFFFFF"></path>
                <path d="M89.8,16.2 C89.8,7.8 94.4,0.3 105.3,0.3 C109.2,0.3 111.8,1 113.8,1.9 L113.8,7.6 C111.4,6.5 108.9,5.8 105.7,5.8 C99.8,5.8 96.9,9.5 96.9,16.2 C96.9,22.7 100,26 105.6,26 C107.1,26 108.1,25.8 109.1,25.5 L109.1,19.5 L104.4,19.5 L104.4,14.5 L115.5,14.5 L115.5,29.5 C112.9,30.4 109.8,31.3 105.3,31.3 C95.2,31.4 89.8,25.2 89.8,16.2" id="Path_26_" fill="#FFFFFF"></path>
                <path d="M120.8,29.7 L120.8,23.9 C123,24.9 125.8,26 128.7,26 C132.1,26 133.7,24.8 133.7,22.6 C133.7,20 131.4,19.7 126.9,17.7 C123.8,16.3 120.9,14.1 120.9,9 C120.9,3.1 125.3,0.3 131.4,0.3 C134.7,0.3 137.4,1.1 139,1.6 L139,7.2 C137.4,6.5 134.7,5.6 131.9,5.6 C128.9,5.6 127.5,6.7 127.5,8.7 C127.5,10.8 129.2,11.4 132.2,12.5 C136.1,14.5 140.7,15.4 140.7,22.2 C140.7,28.1 136.1,31.3 129.9,31.3 C126.1,31.3 123.1,30.7 120.8,29.7" id="Path_27_" fill="#FFFFFF"></path>
                <path d="M150.8,12.5 C151.1,12.5 151.3,12.5 151.5,12.4 C151.7,12.3 151.9,12.2 152,12.1 L152,8.3 C151.9,8.3 151.7,8.2 151.6,8.1 C151.4,8.1 151.2,8 151,8 C150.7,8 150.4,8 150.2,8.2 C150,8.3 149.8,8.5 149.6,8.7 C149.4,8.9 149.3,9.1 149.2,9.4 C149.1,9.7 149.1,10 149.1,10.3 C149.1,10.6 149.1,10.9 149.2,11.1 C149.2,11.4 149.4,11.6 149.5,11.8 C149.6,12 149.8,12.2 150,12.3 C150.2,12.5 150.5,12.5 150.8,12.5 M150.7,13 C150,13 149.4,12.7 149.1,12.3 C148.7,11.8 148.6,11.2 148.6,10.3 C148.6,9.9 148.6,9.5 148.8,9.2 C148.9,8.9 149.1,8.6 149.3,8.3 C149.5,8 149.8,7.8 150.1,7.7 C150.4,7.6 150.7,7.5 151.1,7.5 C151.4,7.5 151.6,7.5 151.8,7.6 C152,7.6 152.1,7.7 152.2,7.8 L152.2,5.5 L152.7,5.5 L152.7,12.9 L152,12.9 L152,12.5 C151.9,12.6 151.7,12.7 151.5,12.8 C151.3,13 151,13 150.7,13" id="Shape_15_" fill="#FFFFFF"></path>
                <path d="M156,8 C155.8,8 155.7,8 155.5,8.1 C155.3,8.2 155.2,8.2 155,8.4 C154.8,8.5 154.7,8.7 154.6,8.9 C154.5,9.1 154.4,9.4 154.3,9.7 L157.3,9.7 L157.3,9.7 C157.3,9.5 157.3,9.3 157.2,9.1 C157.2,8.9 157.1,8.7 156.9,8.6 C156.8,8.4 156.6,8.3 156.5,8.2 C156.4,8.1 156.2,8 156,8 M156.2,13 C155.8,13 155.4,12.9 155.1,12.8 C154.8,12.7 154.6,12.5 154.3,12.3 C154.1,12 154,11.8 153.8,11.5 C153.7,11.2 153.6,10.8 153.6,10.4 C153.6,10 153.6,9.6 153.8,9.3 C153.9,9 154.1,8.7 154.3,8.4 C154.5,8.1 154.7,8 155,7.9 C155.3,7.8 155.6,7.7 156,7.7 C156.3,7.7 156.6,7.8 156.9,7.9 C157.2,8 157.3,8.2 157.5,8.4 C157.7,8.6 157.8,8.9 157.8,9.1 C157.8,9.3 157.9,9.6 157.9,9.9 L157.9,10 C157.9,10 157.9,10.1 157.9,10.2 L154.3,10.2 L154.3,10.3 C154.3,10.6 154.3,10.9 154.4,11.2 C154.5,11.5 154.6,11.7 154.7,11.9 C154.9,12.1 155,12.3 155.3,12.4 C155.6,12.5 155.8,12.6 156.1,12.6 C156.4,12.6 156.7,12.6 156.9,12.5 C157.1,12.5 157.3,12.4 157.5,12.2 L157.5,12.7 C157.4,12.8 157.2,12.8 156.9,12.9 C156.7,13 156.5,13 156.2,13" id="Shape_16_" fill="#FFFFFF"></path>
                <path d="M160.3,13 C160.1,13 159.8,13 159.5,12.9 C159.2,12.9 159,12.8 158.8,12.7 L158.8,12.2 C159,12.3 159.2,12.4 159.4,12.4 C159.7,12.5 159.9,12.5 160.2,12.5 C160.6,12.5 160.9,12.4 161.2,12.2 C161.4,12 161.5,11.8 161.5,11.4 C161.5,11.2 161.5,11.1 161.4,11 C161.4,10.9 161.3,10.8 161.1,10.7 C161,10.6 160.8,10.5 160.7,10.5 C160.5,10.5 160.4,10.4 160.2,10.3 C160,10.2 159.8,10.1 159.6,10 C159.4,9.9 159.3,9.8 159.1,9.7 C159,9.6 158.9,9.4 158.8,9.3 C158.7,9.2 158.7,9 158.7,8.8 C158.7,8.3 158.9,8 159.2,7.7 C159.5,7.5 159.9,7.4 160.4,7.4 C160.7,7.4 160.9,7.4 161.2,7.5 C161.4,7.5 161.6,7.6 161.7,7.7 L161.7,8.2 C161.6,8.2 161.4,8.1 161.2,8 C161,8 160.8,8 160.6,8 C160.2,8 160,8.1 159.8,8.2 C159.6,8.4 159.5,8.6 159.5,8.9 C159.5,9 159.5,9.2 159.6,9.3 C159.6,9.4 159.7,9.5 159.9,9.6 C160,9.7 160.1,9.7 160.2,9.8 C160.3,9.8 160.5,9.9 160.6,10 C160.8,10.1 161,10.1 161.1,10.2 C161.3,10.3 161.4,10.4 161.6,10.5 C161.8,10.6 161.9,10.8 162,10.9 C162.1,11.1 162.1,11.3 162.1,11.5 C162.1,11.8 162.1,12 162,12.1 C161.9,12.3 161.8,12.4 161.6,12.6 C161.4,12.7 161.3,12.9 161.1,12.9 C160.8,13 160.6,13 160.3,13" id="Path_28_" fill="#FFFFFF"></path>
                <path d="M165.1,12.5 C165.4,12.5 165.6,12.5 165.8,12.4 C166,12.3 166.2,12.2 166.3,12.1 L166.3,8.3 C166.2,8.3 166,8.2 165.9,8.1 C165.7,8.1 165.5,8 165.3,8 C165,8 164.7,8 164.5,8.2 C164.3,8.3 164.1,8.5 163.9,8.7 C163.7,8.9 163.6,9.1 163.5,9.4 C163.4,9.7 163.4,10 163.4,10.3 C163.4,10.6 163.4,10.9 163.5,11.1 C163.5,11.4 163.7,11.6 163.8,11.8 C163.9,12 164.1,12.2 164.3,12.3 C164.6,12.5 164.8,12.5 165.1,12.5 M165,13 C164.3,13 163.7,12.7 163.4,12.3 C163,11.8 162.9,11.2 162.9,10.3 C162.9,9.9 162.9,9.5 163.1,9.2 C163.2,8.9 163.4,8.6 163.6,8.3 C163.8,8 164.1,7.8 164.4,7.7 C164.7,7.6 165,7.5 165.4,7.5 C165.7,7.5 165.9,7.5 166.1,7.6 C166.3,7.6 166.4,7.7 166.5,7.8 L166.5,5.5 L167,5.5 L167,12.9 L166.5,12.9 L166.5,12.5 C166.4,12.6 166.2,12.7 166,12.8 C165.6,13 165.4,13 165,13" id="Shape_17_" fill="#FFFFFF"></path>
                <path d="M170.3,8 C170.1,8 170,8 169.8,8.1 C169.6,8.2 169.5,8.2 169.3,8.4 C169.1,8.5 169,8.7 168.9,8.9 C168.8,9.1 168.7,9.4 168.6,9.7 L171.6,9.7 L171.6,9.7 C171.6,9.5 171.6,9.3 171.5,9.1 C171.5,8.9 171.4,8.7 171.2,8.6 C171.1,8.4 170.9,8.3 170.8,8.2 C170.7,8.1 170.5,8 170.3,8 M170.5,13 C170.1,13 169.7,12.9 169.5,12.8 C169.2,12.7 169,12.5 168.7,12.3 C168.5,12 168.4,11.8 168.2,11.5 C168.1,11.2 168,10.8 168,10.4 C168,10 168,9.6 168.2,9.3 C168.3,9 168.5,8.7 168.7,8.4 C168.9,8.1 169.1,8 169.4,7.9 C169.7,7.8 170,7.7 170.4,7.7 C170.7,7.7 171,7.8 171.3,7.9 C171.6,8 171.7,8.2 171.9,8.4 C172.1,8.6 172.2,8.9 172.2,9.1 C172.2,9.3 172.3,9.6 172.3,9.9 L172.3,10 C172.3,10 172.3,10.1 172.3,10.2 L168.7,10.2 L168.7,10.3 C168.7,10.6 168.7,10.9 168.8,11.2 C168.9,11.5 169,11.7 169.1,11.9 C169.2,12.1 169.4,12.3 169.7,12.4 C170,12.5 170.2,12.6 170.5,12.6 C170.8,12.6 171.1,12.6 171.3,12.5 C171.5,12.5 171.7,12.4 171.9,12.2 L171.9,12.7 C171.8,12.8 171.6,12.8 171.3,12.9 C171.1,13 170.8,13 170.5,13" id="Shape_18_" fill="#FFFFFF"></path>
                <path d="M150.4,18.5 C149.9,18.8 149.1,19 148.7,19.1 L148.7,18.3 C149.2,18.2 150.2,17.9 150.6,17.5 L151.4,17.5 L151.4,25.6 L150.4,25.6 L150.4,18.5 L150.4,18.5 Z" id="Path_29_" fill="#FFFFFF"></path>
                <path d="M156.3,20.9 C156.9,20.6 157.6,20.1 157.6,19.3 C157.6,18.6 156.9,18.2 156.2,18.2 C155.4,18.2 154.8,18.6 154.8,19.3 C154.8,20.1 155.5,20.5 156.3,20.9 M157.7,23.5 C157.7,22.7 157,22.3 156,21.7 C155.2,22.1 154.5,22.5 154.5,23.5 C154.5,24.3 155.3,24.8 156.1,24.8 C157.1,24.8 157.7,24.4 157.7,23.5 M153.6,23.6 C153.6,22.5 154.4,21.9 155.4,21.4 C154.5,20.9 153.8,20.4 153.8,19.4 C153.8,18.3 154.9,17.5 156.2,17.5 C157.7,17.5 158.6,18.3 158.6,19.3 C158.6,20.4 157.8,20.9 157,21.3 C158,21.8 158.8,22.2 158.8,23.5 C158.8,24.9 157.6,25.7 156.3,25.7 C154.6,25.7 153.6,24.6 153.6,23.6" id="Shape_19_" fill="#FFFFFF"></path>
                <path d="M164.6,21.3 C164.6,21.1 164.6,21 164.6,20.8 C164.6,19.3 164,18.2 162.9,18.2 C161.8,18.2 161.3,19 161.3,20.1 C161.3,21.2 161.8,21.9 162.9,21.9 C163.6,21.9 164.2,21.6 164.6,21.3 M160.7,25.5 L160.7,24.6 C161,24.7 161.5,24.9 162.1,24.9 C163.5,24.9 164.5,24 164.6,22.1 C164.2,22.5 163.4,22.8 162.8,22.8 C161.3,22.8 160.4,21.8 160.4,20.2 C160.4,18.8 161.3,17.5 163,17.5 C164.8,17.5 165.8,19 165.8,21.4 C165.8,24.4 164.3,25.8 162.4,25.8 C161.6,25.7 161,25.5 160.7,25.5" id="Shape_20_" fill="#FFFFFF"></path>
                <path d="M171.6,21.3 C171.6,21.1 171.6,21 171.6,20.8 C171.6,19.3 171,18.2 169.9,18.2 C168.8,18.2 168.3,19 168.3,20.1 C168.3,21.2 168.8,21.9 169.9,21.9 C170.6,21.9 171.2,21.6 171.6,21.3 M167.7,25.5 L167.7,24.6 C168,24.7 168.5,24.9 169.1,24.9 C170.5,24.9 171.5,24 171.6,22.1 C171.2,22.5 170.4,22.8 169.8,22.8 C168.3,22.8 167.4,21.8 167.4,20.2 C167.4,18.8 168.3,17.5 170,17.5 C171.8,17.5 172.8,19 172.8,21.4 C172.8,24.4 171.3,25.8 169.4,25.8 C168.5,25.7 168,25.5 167.7,25.5" id="Shape_21_" fill="#FFFFFF"></path>
                <rect id="Rectangle_2_" fill="#FFFFFF" x="147.3" y="30.5" width="26.4" height="1"></rect>
                <rect id="Rectangle_3_" fill="#FFFFFF" x="147.3" y="0.8" width="26.4" height="1"></rect>
                <g id="covid19-copy-2" transform="translate(194.000000, 0.000000)">
                    <rect id="Rectangle_4_" fill="#D41C1E" x="0" y="0" width="138.593589" height="47.8188408"></rect>
                    <g id="Group" transform="translate(22.693687, 12.967821)" fill="#FFFFFF">
                        <path d="M10.374257,14.9129944 L10.374257,17.8307542 C10.374257,21.2348073 8.59118156,23.3420782 5.34922625,23.3420782 C1.94517318,23.3420782 0.324195531,21.396905 0.324195531,17.8307542 L0.324195531,6.48391061 C0.324195531,3.07985754 2.10727095,0.972586592 5.34922625,0.972586592 C8.75327933,0.972586592 10.374257,2.91775978 10.374257,6.48391061 L10.374257,8.59118156 L7.13230167,8.59118156 L7.13230167,6.32181285 C7.13230167,4.70083519 6.48391061,4.2145419 5.34922625,4.2145419 C4.2145419,4.2145419 3.56615084,4.86293296 3.56615084,6.32181285 L3.56615084,17.9928519 C3.56615084,19.6138296 4.2145419,20.1001229 5.34922625,20.1001229 C6.48391061,20.1001229 7.13230167,19.6138296 7.13230167,17.9928519 L7.13230167,14.9129944 L10.374257,14.9129944 L10.374257,14.9129944 Z" id="Path"></path>
                        <path d="M13.4541145,6.48391061 C13.4541145,3.07985754 15.2371899,0.972586592 18.641243,0.972586592 C22.0452961,0.972586592 23.8283715,2.91775978 23.8283715,6.48391061 L23.8283715,17.8307542 C23.8283715,21.2348073 22.0452961,23.3420782 18.641243,23.3420782 C15.2371899,23.3420782 13.4541145,21.396905 13.4541145,17.8307542 L13.4541145,6.48391061 Z M16.8581676,17.9928519 C16.8581676,19.6138296 17.5065587,20.1001229 18.641243,20.1001229 C19.7759274,20.1001229 20.4243184,19.4517318 20.4243184,17.9928519 L20.4243184,6.32181285 C20.4243184,4.70083519 19.7759274,4.2145419 18.641243,4.2145419 C17.5065587,4.2145419 16.8581676,4.86293296 16.8581676,6.32181285 L16.8581676,17.9928519 Z" id="Shape"></path>
                        <polygon id="Path" points="32.4195531 18.9654385 35.0131173 1.29678212 38.0929748 1.29678212 34.6889218 23.0178827 29.663891 23.0178827 26.259838 1.13468436 29.663891 1.13468436"></polygon>
                        <polygon id="Path" points="40.8486369 1.13468436 44.2526899 1.13468436 44.2526899 22.8557849 40.8486369 22.8557849"></polygon>
                        <path d="M47.9809385,1.13468436 L53.3301648,1.13468436 C56.7342179,1.13468436 58.3551955,3.07985754 58.3551955,6.48391061 L58.3551955,17.5065587 C58.3551955,20.9106117 56.7342179,22.8557849 53.3301648,22.8557849 L47.9809385,22.8557849 L47.9809385,1.13468436 Z M51.3849916,4.37663966 L51.3849916,19.9380251 L53.3301648,19.9380251 C54.4648491,19.9380251 55.1132402,19.4517318 55.1132402,17.8307542 L55.1132402,6.48391061 C55.1132402,4.86293296 54.4648491,4.37663966 53.3301648,4.37663966 L51.3849916,4.37663966 L51.3849916,4.37663966 Z" id="Shape"></path>
                    </g>
                    <g id="Group" transform="translate(84.290838, 22.693687)" fill="#FFFFFF">
                        <polygon id="Path" points="0.162097765 0.810488826 6.32181285 0.810488826 6.32181285 3.89034637 0.162097765 3.89034637"></polygon>
                    </g>
                    <g id="Group" transform="translate(94.016704, 14.048473)" fill="#FFFFFF">
                        <path d="M0.972586592,2.8096946 C3.56615084,2.8096946 4.2145419,1.51291248 4.70083519,0.0540325884 L6.97020391,0.0540325884 L6.97020391,21.7751331 L3.56615084,21.7751331 L3.56615084,5.24116108 L0.972586592,5.24116108 L0.972586592,2.8096946 L0.972586592,2.8096946 Z" id="Path"></path>
                    </g>
                    <g id="Group" transform="translate(105.363547, 12.967821)" fill="#FFFFFF">
                        <path d="M11.1847458,17.5065587 C11.1847458,21.2348073 9.56376815,23.1799804 5.99761732,23.1799804 C2.59356424,23.1799804 0.972586592,21.2348073 0.972586592,17.6686564 L0.972586592,17.1823631 L4.2145419,17.1823631 L4.2145419,17.9928519 C4.2145419,19.6138296 4.86293296,20.1001229 5.99761732,20.1001229 C7.13230167,20.1001229 7.9427905,19.4517318 7.9427905,17.5065587 L7.9427905,13.4541145 C7.29439944,14.7508966 6.32181285,15.3992877 4.70083519,15.3992877 C2.10727095,15.3992877 0.972586592,13.6162123 0.972586592,10.374257 L0.972586592,6.48391061 C0.972586592,3.07985754 2.75566201,0.972586592 6.15971508,0.972586592 C9.56376815,0.972586592 11.3468436,2.91775978 11.3468436,6.48391061 L11.3468436,17.5065587 L11.1847458,17.5065587 Z M7.78069273,10.0500614 L7.78069273,6.15971508 C7.78069273,4.53873743 7.13230167,4.05244413 5.99761732,4.05244413 C4.86293296,4.05244413 4.2145419,4.53873743 4.2145419,6.15971508 L4.2145419,10.0500614 C4.2145419,11.6710391 4.86293296,12.1573324 5.99761732,12.1573324 C7.13230167,12.1573324 7.78069273,11.6710391 7.78069273,10.0500614 Z" id="Shape"></path>
                    </g>
                </g>
            </g>
        </g>
    </g>
</svg>