<?xml version="1.0" encoding="UTF-8"?>
<svg width="23px" height="24px" viewBox="0 0 23 24" version="1.1" xmlns="http://www.w3.org/2000/svg" xmlns:xlink="http://www.w3.org/1999/xlink">
    <!-- Generator: sketchtool 63.1 (101010) - https://sketch.com -->
    <title>9948A151-26F2-4539-8788-36D0D6DA772A</title>
    <desc>Created with sketchtool.</desc>
    <g id="Page-1" stroke="none" stroke-width="1" fill="none" fill-rule="evenodd">
        <g id="Desktop_Microsite_DGS" transform="translate(-1113.000000, -86.000000)" fill="#FFFFFF" fill-rule="nonzero">
            <g id="Group-14">
                <g id="Group-2" transform="translate(1113.000000, 30.000000)">
                    <path d="M22.6503001,77.8601973 L16.9804066,71.9193905 C18.4382359,70.173507 19.2369891,67.9768283 19.2369891,65.6899905 C19.2369891,60.347014 14.9220488,56 9.61849455,56 C4.31494029,56 0,60.347014 0,65.6899905 C0,71.032967 4.31494029,75.379981 9.61849455,75.379981 C11.6095229,75.379981 13.5068755,74.7749886 15.1290555,73.6265141 L20.8420231,79.6124004 C21.0808127,79.8622336 21.4019868,80 21.7461616,80 C22.0719358,80 22.3809822,79.8748727 22.6155899,79.6473686 C23.1140788,79.164133 23.1299702,78.3628129 22.6503001,77.8601973 Z M9.61849455,58.5278236 C13.5386584,58.5278236 16.7278166,61.7406874 16.7278166,65.6899905 C16.7278166,69.6392936 13.5386584,72.8521574 9.61849455,72.8521574 C5.69833073,72.8521574 2.50917249,69.6392936 2.50917249,65.6899905 C2.50917249,61.7406874 5.69833073,58.5278236 9.61849455,58.5278236 Z" id="Shape"></path>
                </g>
            </g>
        </g>
    </g>
</svg>