<?xml version="1.0" encoding="UTF-8"?>
<svg width="24px" height="24px" viewBox="0 0 24 24" version="1.1" xmlns="http://www.w3.org/2000/svg" xmlns:xlink="http://www.w3.org/1999/xlink">
    <!-- Generator: sketchtool 63.1 (101010) - https://sketch.com -->
    <title>0EB9AC2C-019E-4D1F-B05D-94B0CF252DA1</title>
    <desc>Created with sketchtool.</desc>
    <g id="Page-1" stroke="none" stroke-width="1" fill="none" fill-rule="evenodd">
        <g id="Desktop_Microsite_DGS" transform="translate(-1330.000000, -86.000000)" fill="#FFFFFF" fill-rule="nonzero">
            <g id="Group-14">
                <g id="Group-2" transform="translate(1113.000000, 30.000000)">
                    <g id="rss" transform="translate(216.999993, 56.000000)">
                        <path d="M20.0869676,0 L3.91303102,0 C1.75528115,0 0,1.75528115 0,3.91303102 L0,20.0869207 C0,22.2447174 1.75528115,24 3.91303102,24 L20.0869207,24 C22.2447174,24 24,22.2447174 24,20.0869676 L24,3.91303102 C24,1.75528115 22.2447174,0 20.0869676,0 Z M5.73914028,20.6086863 C4.44449974,20.6086863 3.3913123,19.5554988 3.3913123,18.2608583 C3.3913123,16.9662177 4.44449974,15.9130303 5.73914028,15.9130303 C7.03378083,15.9130303 8.08696827,16.9662177 8.08696827,18.2608583 C8.08696827,19.5554988 7.03378083,20.6086863 5.73914028,20.6086863 Z M11.9999993,19.8261082 C11.13689,19.8261082 10.4347963,19.1240145 10.4347963,18.2609052 C10.4347963,15.6718116 8.32846825,13.5652492 5.73914028,13.5652492 C4.87603096,13.5652492 4.17393725,12.8631555 4.17393725,12.0000462 C4.17393725,11.1369368 4.87603096,10.4348431 5.73914028,10.4348431 C10.0546869,10.4348431 13.5652023,13.9456398 13.5652023,18.2609052 C13.5652023,19.1239676 12.8631086,19.8261082 11.9999993,19.8261082 Z M18.2608583,19.8261082 C17.397749,19.8261082 16.6956553,19.1240145 16.6956553,18.2609052 C16.6956553,12.2193743 11.7803899,7.30439019 5.73914028,7.30439019 C4.87603096,7.30439019 4.17393725,6.60229648 4.17393725,5.73918716 C4.17393725,4.87607783 4.87603096,4.17398413 5.73914028,4.17398413 C13.5066554,4.17398413 19.8261082,10.4934369 19.8261082,18.260952 C19.8261082,19.1239676 19.1239676,19.8261082 18.2608583,19.8261082 Z" id="Shape"></path>
                    </g>
                </g>
            </g>
        </g>
    </g>
</svg>