<svg xmlns="http://www.w3.org/2000/svg" xmlns:xlink="http://www.w3.org/1999/xlink" viewBox="0 0 340.72 100.11"><defs><style>.cls-1{fill:#504f51;}.cls-2{fill:url(#linear-gradient);}.cls-3{fill:url(#linear-gradient-2);}.cls-4{fill:url(#linear-gradient-3);}</style><linearGradient id="linear-gradient" x1="63.28" y1="41.08" x2="104.95" y2="17.17" gradientUnits="userSpaceOnUse"><stop offset="0" stop-color="#cd190f"/><stop offset="1" stop-color="#831216"/></linearGradient><linearGradient id="linear-gradient-2" x1="5.05" y1="88.25" x2="30.58" y2="65.6" gradientUnits="userSpaceOnUse"><stop offset="0" stop-color="#006c33"/><stop offset="0.7" stop-color="#089149"/></linearGradient><linearGradient id="linear-gradient-3" x1="9.85" y1="76.78" x2="92.79" y2="21.65" gradientUnits="userSpaceOnUse"><stop offset="0" stop-color="#007e38"/><stop offset="0.04" stop-color="#318b35"/><stop offset="0.07" stop-color="#5c9632"/><stop offset="0.12" stop-color="#83a130"/><stop offset="0.16" stop-color="#a3a92e"/><stop offset="0.21" stop-color="#bdb02d"/><stop offset="0.26" stop-color="#d2b52c"/><stop offset="0.31" stop-color="#e0b92b"/><stop offset="0.38" stop-color="#e8bb2a"/><stop offset="0.5" stop-color="#ebbc2a"/><stop offset="0.56" stop-color="#eab729"/><stop offset="0.65" stop-color="#e7a727"/><stop offset="0.74" stop-color="#e28e22"/><stop offset="0.83" stop-color="#dc6a1c"/><stop offset="0.93" stop-color="#d43d15"/><stop offset="1" stop-color="#cd190f"/></linearGradient></defs><title>sns24</title><g id="Camada_2" data-name="Camada 2"><g id="Layer_1" data-name="Layer 1"><path class="cls-1" d="M263.26,44.51V38.38a8.72,8.72,0,0,1,2.27-5.63,28.74,28.74,0,0,1,5.52-5l6.47-4.48a26.29,26.29,0,0,0,5.62-5.15,9.34,9.34,0,0,0,2.32-5.92,8.33,8.33,0,0,0-2.34-5.82,9.68,9.68,0,0,0-12.35-.6,7,7,0,0,0-2.22,5.56,1.53,1.53,0,0,1-.62,1.21,2.59,2.59,0,0,1-1.68.5c-1.32,0-2-.86-2-2.59A9.35,9.35,0,0,1,267.85,3a14.55,14.55,0,0,1,18.23.51,11.22,11.22,0,0,1,3.72,8.62,12.13,12.13,0,0,1-1.65,6.07,17.75,17.75,0,0,1-4.09,4.93q-2.44,2-5.35,4.11l-5.36,3.66a18.13,18.13,0,0,0-4.09,3.57,6.31,6.31,0,0,0-1.66,4v3.92l21,0a1.4,1.4,0,0,1,1.12.57,2,2,0,0,1,.46,1.33,2.12,2.12,0,0,1-.46,1.35,1.35,1.35,0,0,1-1.12.6l-23.36,0a2.31,2.31,0,0,1-1.38-.48,1.35,1.35,0,0,1-.65-1.17"/><path class="cls-1" d="M291.89,33.54a2,2,0,0,1,.26-1.07L308.7,1.29a2.13,2.13,0,0,1,2-1.25,2.34,2.34,0,0,1,1.41.5,1.47,1.47,0,0,1,.69,1.2,2,2,0,0,1-.2.82L297.41,31.35h12.9V19.06c0-1.06.73-1.59,2.17-1.59a2.83,2.83,0,0,1,1.52.41,1.3,1.3,0,0,1,.65,1.18V31.37h3.62a1.42,1.42,0,0,1,1.22.58,2.14,2.14,0,0,1,.42,1.32,2.1,2.1,0,0,1-.46,1.37,1.42,1.42,0,0,1-1.18.58h-3.62v9.33a1.39,1.39,0,0,1-.66,1.21,2.83,2.83,0,0,1-3.06,0,1.42,1.42,0,0,1-.62-1.22V35.21H293.59c-1.14,0-1.71-.55-1.7-1.66"/><polygon class="cls-1" points="119.44 98.48 118.5 98.48 118.5 0.64 119.44 0.68 119.44 98.48"/><path class="cls-1" d="M154.72,46.53a15.28,15.28,0,0,1-8.91-2.63V44l-1.52-1.19c-3-2.49-3.93-6.68-4.19-8.37l-.13-.86L147.18,32l.19.92c.2,1,1.52,6.18,7.35,6.18a7.57,7.57,0,0,0,5.8-2.47,6.76,6.76,0,0,0,1.14-3.21,3.58,3.58,0,0,0-.59-2.33L161,31a49.69,49.69,0,0,0-5.47-4.17,8.44,8.44,0,0,1-2.37-1.77c-4.8-3.17-8-5.48-9.2-7.18a11.92,11.92,0,0,1-2.06-6.12,12.15,12.15,0,0,1,3.32-8C148.21.65,151.34,0,155.43,0a14.12,14.12,0,0,1,8.26,2.85,15.08,15.08,0,0,1,4.93,8.76l.18.89-7.25,1.58-.18-.93c-.62-3.09-3.34-5.71-5.94-5.71-3.05,0-4,.42-4.83,1.36a4.53,4.53,0,0,0-1.25,2.83,6.06,6.06,0,0,0,.75,1.85,59.32,59.32,0,0,0,5.69,4.29c.9.62,1.78,1.23,2.63,1.85,3.21,2.28,6.77,4.85,8.13,6.55a11.38,11.38,0,0,1,2.4,7.53,12.91,12.91,0,0,1-2.72,7.56,15.39,15.39,0,0,1-11.51,5.23"/><polygon class="cls-1" points="207.14 46.3 200.66 46.3 181.31 15.74 181.31 46.3 173.94 46.3 173.94 0.43 180.42 0.43 199.61 30.67 199.61 0.43 207.14 0.43 207.14 46.3"/><path class="cls-1" d="M226.44,46.53a15.28,15.28,0,0,1-8.91-2.63V44L216,42.77c-3-2.49-3.93-6.68-4.19-8.37l-.13-.86L218.9,32l.19.92c.2,1,1.52,6.18,7.35,6.18a7.57,7.57,0,0,0,5.8-2.47,6.76,6.76,0,0,0,1.14-3.21,3.58,3.58,0,0,0-.59-2.33l-.07-.08a49.69,49.69,0,0,0-5.47-4.17,8.44,8.44,0,0,1-2.37-1.77c-4.8-3.17-8-5.48-9.2-7.18a11.82,11.82,0,0,1-2.06-6.12,12.15,12.15,0,0,1,3.32-8C219.92.65,223.06,0,227.15,0a14.12,14.12,0,0,1,8.26,2.85,15.08,15.08,0,0,1,4.93,8.76l.18.89-7.25,1.58-.18-.93c-.62-3.09-3.34-5.71-5.94-5.71-3.05,0-4,.42-4.83,1.36a4.48,4.48,0,0,0-1.25,2.83,6.06,6.06,0,0,0,.75,1.85,59.32,59.32,0,0,0,5.69,4.29c.9.62,1.78,1.23,2.63,1.85,3.21,2.28,6.77,4.85,8.12,6.55a11.33,11.33,0,0,1,2.41,7.53A12.91,12.91,0,0,1,238,41.3a15.41,15.41,0,0,1-11.51,5.23"/><path class="cls-1" d="M140.43,68V61.27a4.64,4.64,0,0,1,1.39-3.69,5.41,5.41,0,0,1,3.63-1.18,5.62,5.62,0,0,1,3.65,1.11,3.43,3.43,0,0,1,1.38,2.78,1.11,1.11,0,0,1-.24.82,1.07,1.07,0,0,1-.74.21c-.62,0-.95-.22-1-.65-.09-1.71-1.1-2.57-3-2.57s-3.1,1-3.1,3.17V68q0,3.18,3.17,3.18a4.12,4.12,0,0,0,1.51-.24,1.78,1.78,0,0,0,.9-.72,3.38,3.38,0,0,0,.39-.8,7.61,7.61,0,0,0,.16-.9c.05-.43.37-.65,1-.64a1.07,1.07,0,0,1,.75.22,1.16,1.16,0,0,1,.23.83,3.54,3.54,0,0,1-1.39,2.83,5.66,5.66,0,0,1-3.67,1.12,5.33,5.33,0,0,1-3.6-1.19A4.57,4.57,0,0,1,140.43,68"/><path class="cls-1" d="M152.68,72.08v-15a.57.57,0,0,1,.27-.5,1.16,1.16,0,0,1,.62-.18h8.29a.58.58,0,0,1,.5.25,1,1,0,0,1,.18.58,1,1,0,0,1-.19.62.57.57,0,0,1-.49.25h-7.22v5.68h3.64a.57.57,0,0,1,.48.24.84.84,0,0,1,.19.57.87.87,0,0,1-.17.52.59.59,0,0,1-.5.24h-3.64v5.71h7.23a.59.59,0,0,1,.49.26,1.05,1.05,0,0,1,.18.62,1,1,0,0,1-.17.58.6.6,0,0,1-.5.25h-8.3a1.1,1.1,0,0,1-.62-.18.59.59,0,0,1-.26-.5"/><path class="cls-1" d="M164.37,72.1l0-15c0-.44.33-.65,1-.65a1.22,1.22,0,0,1,.82.28,2.82,2.82,0,0,1,.67.91l5.79,10.89V57.07a.55.55,0,0,1,.29-.48,1.26,1.26,0,0,1,.69-.16,1.41,1.41,0,0,1,.69.16.56.56,0,0,1,.29.49l0,15a.56.56,0,0,1-.29.49,1.29,1.29,0,0,1-.69.18,1.42,1.42,0,0,1-1.23-.85l-6-11.26V72.1a.56.56,0,0,1-.29.49,1.41,1.41,0,0,1-1.38,0,.56.56,0,0,1-.29-.49"/><path class="cls-1" d="M176.29,57.26a1,1,0,0,1,.19-.58.58.58,0,0,1,.51-.25h9.49a.61.61,0,0,1,.51.25,1,1,0,0,1,.19.58,1,1,0,0,1-.2.61.59.59,0,0,1-.51.26h-3.75v14a.57.57,0,0,1-.29.5,1.31,1.31,0,0,1-.69.17,1.41,1.41,0,0,1-.69-.17.57.57,0,0,1-.29-.5l0-14H177a.61.61,0,0,1-.51-.25,1.06,1.06,0,0,1-.19-.62"/><path class="cls-1" d="M188.86,72.12v-15a.59.59,0,0,1,.2-.45.83.83,0,0,1,.5-.2h4.27a6.17,6.17,0,0,1,3.75,1A4,4,0,0,1,199,60.92q0,3.7-3.47,4.36L199,71.57a.64.64,0,0,1,.09.31.84.84,0,0,1-.37.66,1.2,1.2,0,0,1-.79.31c-.33,0-.63-.25-.89-.74l-3.51-6.56h-2.68v6.57a.54.54,0,0,1-.29.49,1.39,1.39,0,0,1-1.37,0,.54.54,0,0,1-.29-.49m2-8.14h3c2.14,0,3.21-1,3.22-2.92s-1.07-2.91-3.22-2.91h-3Z"/><path class="cls-1" d="M201.07,68.06V61.33a4.6,4.6,0,0,1,1.37-3.7,6.26,6.26,0,0,1,7.3,0,4.63,4.63,0,0,1,1.37,3.7v6.73a4.59,4.59,0,0,1-1.38,3.7,5.45,5.45,0,0,1-3.66,1.17,5.4,5.4,0,0,1-3.64-1.17,4.65,4.65,0,0,1-1.36-3.71m2,0c0,2.12,1,3.18,3.05,3.18a3.11,3.11,0,0,0,2.27-.79,3.27,3.27,0,0,0,.81-2.38V61.34a3.23,3.23,0,0,0-.8-2.38,3.09,3.09,0,0,0-2.27-.8c-2,0-3.05,1.05-3.06,3.17Z"/><path class="cls-1" d="M218.35,72.17l0-15.05a.57.57,0,0,1,.24-.46,1.06,1.06,0,0,1,.64-.19h4.13A5.47,5.47,0,0,1,227,57.65a4.65,4.65,0,0,1,1.37,3.71V68a4.6,4.6,0,0,1-1.38,3.7,5.47,5.47,0,0,1-3.66,1.17h-4.12a1,1,0,0,1-.64-.19.55.55,0,0,1-.25-.46m2-1h3.05a3.16,3.16,0,0,0,2.28-.79,3.25,3.25,0,0,0,.8-2.39V61.36a3.25,3.25,0,0,0-.8-2.39,3.09,3.09,0,0,0-2.27-.79h-3Z"/><path class="cls-1" d="M231.26,72.16l0-15a.56.56,0,0,1,.26-.5,1.18,1.18,0,0,1,.62-.17h8.29a.61.61,0,0,1,.51.25,1,1,0,0,1,.17.58,1,1,0,0,1-.19.62.56.56,0,0,1-.49.25h-7.22v5.68h3.63a.59.59,0,0,1,.49.24.88.88,0,0,1,.18.57.81.81,0,0,1-.17.52.59.59,0,0,1-.5.24h-3.63v5.71h7.22a.59.59,0,0,1,.49.26,1.06,1.06,0,0,1,.19.62,1,1,0,0,1-.18.58.58.58,0,0,1-.5.24h-8.3a1.07,1.07,0,0,1-.61-.18.57.57,0,0,1-.27-.5"/><path class="cls-1" d="M247.18,68.11V61.38a4.61,4.61,0,0,1,1.39-3.69,5.36,5.36,0,0,1,3.63-1.18,5.67,5.67,0,0,1,3.66,1.11,3.44,3.44,0,0,1,1.37,2.78,1.08,1.08,0,0,1-.24.82,1.07,1.07,0,0,1-.74.21c-.63,0-.95-.22-1-.65-.09-1.71-1.1-2.57-3-2.57s-3.1,1-3.1,3.17v6.73q0,3.18,3.17,3.18a4.08,4.08,0,0,0,1.51-.24,1.84,1.84,0,0,0,.9-.72,3.82,3.82,0,0,0,.39-.8,7.61,7.61,0,0,0,.16-.9c.05-.43.37-.65,1-.65a1.07,1.07,0,0,1,.75.23,1.16,1.16,0,0,1,.23.83,3.5,3.5,0,0,1-1.39,2.82A5.61,5.61,0,0,1,252.16,73a5.33,5.33,0,0,1-3.6-1.19,4.57,4.57,0,0,1-1.38-3.69"/><path class="cls-1" d="M259.27,68.12V61.39a4.62,4.62,0,0,1,1.36-3.7,6.27,6.27,0,0,1,7.31,0,4.63,4.63,0,0,1,1.37,3.7v6.73a4.59,4.59,0,0,1-1.38,3.7A5.45,5.45,0,0,1,264.27,73a5.4,5.4,0,0,1-3.64-1.17,4.65,4.65,0,0,1-1.36-3.71m2,0q0,3.18,3,3.18a3.11,3.11,0,0,0,2.27-.79,3.23,3.23,0,0,0,.8-2.38V61.4a3.21,3.21,0,0,0-.8-2.38,3.05,3.05,0,0,0-2.27-.8c-2,0-3.05,1.05-3.06,3.17Z"/><path class="cls-1" d="M272.17,72.21l0-15c0-.44.32-.65,1-.65a1.23,1.23,0,0,1,.83.28,2.87,2.87,0,0,1,.67.9l5.79,10.9V57.18a.52.52,0,0,1,.29-.48,1.55,1.55,0,0,1,1.37,0,.54.54,0,0,1,.29.49v15a.56.56,0,0,1-.29.49,1.31,1.31,0,0,1-.69.18,1.41,1.41,0,0,1-1.23-.86l-6.05-11.25V72.21a.56.56,0,0,1-.29.49,1.31,1.31,0,0,1-.69.18,1.27,1.27,0,0,1-.69-.18.57.57,0,0,1-.29-.49"/><path class="cls-1" d="M284.09,57.37a.92.92,0,0,1,.19-.58.58.58,0,0,1,.51-.25h9.48a.61.61,0,0,1,.52.25,1,1,0,0,1,.18.58,1,1,0,0,1-.19.61.59.59,0,0,1-.51.26h-3.75v14a.57.57,0,0,1-.29.5,1.31,1.31,0,0,1-.69.17,1.36,1.36,0,0,1-.69-.17.57.57,0,0,1-.29-.5v-14h-3.77a.61.61,0,0,1-.51-.25,1,1,0,0,1-.19-.62"/><path class="cls-1" d="M294.07,72.12a.85.85,0,0,1,.05-.18l4.78-14.87c.14-.43.54-.65,1.19-.65s1.05.22,1.19.66L306.05,72a.22.22,0,0,0,0,.08.2.2,0,0,1,0,.07.65.65,0,0,1-.38.52,1.65,1.65,0,0,1-.83.23.64.64,0,0,1-.7-.42l-1-3.32H297l-1,3.3a.66.66,0,0,1-.71.43,1.5,1.5,0,0,1-.79-.22.66.66,0,0,1-.38-.56m3.39-4.52h5.2l-2.58-8.43Z"/><path class="cls-1" d="M307.71,68.17V61.44a4.61,4.61,0,0,1,1.39-3.69,5.41,5.41,0,0,1,3.63-1.18,5.62,5.62,0,0,1,3.65,1.11,3.44,3.44,0,0,1,1.38,2.79,1.06,1.06,0,0,1-.24.81,1.09,1.09,0,0,1-.74.21c-.63,0-.95-.21-1-.65-.09-1.71-1.1-2.57-3-2.57s-3.1,1-3.1,3.17v6.73q0,3.18,3.17,3.18a4.12,4.12,0,0,0,1.51-.24,1.78,1.78,0,0,0,.9-.72,3.82,3.82,0,0,0,.39-.8,7.61,7.61,0,0,0,.16-.9c0-.43.37-.64,1-.64a1.07,1.07,0,0,1,.75.22,1.18,1.18,0,0,1,.23.83,3.54,3.54,0,0,1-1.39,2.83,5.66,5.66,0,0,1-3.67,1.12,5.33,5.33,0,0,1-3.6-1.19,4.54,4.54,0,0,1-1.38-3.69"/><path class="cls-1" d="M318.62,57.4a.92.92,0,0,1,.19-.58.61.61,0,0,1,.51-.25h9.48a.59.59,0,0,1,.51.26.89.89,0,0,1,.19.57,1,1,0,0,1-.19.61.57.57,0,0,1-.51.26h-3.75l0,14a.55.55,0,0,1-.28.49,1.31,1.31,0,0,1-.69.18,1.27,1.27,0,0,1-.69-.18.56.56,0,0,1-.29-.49v-14h-3.77a.58.58,0,0,1-.51-.25,1,1,0,0,1-.19-.62"/><path class="cls-1" d="M330.68,68.19V61.46a4.63,4.63,0,0,1,1.37-3.7,5.41,5.41,0,0,1,3.65-1.17,5.47,5.47,0,0,1,3.66,1.18,4.59,4.59,0,0,1,1.36,3.7v6.74a4.61,4.61,0,0,1-1.38,3.7,6.26,6.26,0,0,1-7.3,0,4.61,4.61,0,0,1-1.36-3.71m1.95,0q0,3.17,3.05,3.18a3.08,3.08,0,0,0,2.27-.8,3.19,3.19,0,0,0,.81-2.38V61.47a3.23,3.23,0,0,0-.8-2.38,3.12,3.12,0,0,0-2.28-.8q-3,0-3.05,3.17Z"/><path class="cls-1" d="M140.24,94.51a.79.79,0,0,1,.17-.45.48.48,0,0,1,.38-.22.6.6,0,0,1,.36.23l.52.53a2.32,2.32,0,0,0,.87.51,3.83,3.83,0,0,0,1.38.23,2.89,2.89,0,0,0,2-.64,2.36,2.36,0,0,0,.71-1.86,2.71,2.71,0,0,0-.33-1.38,2.53,2.53,0,0,0-.87-.88,7.2,7.2,0,0,0-1.18-.57L143,89.5a5.46,5.46,0,0,1-1.18-.61,2.54,2.54,0,0,1-.86-1,3.2,3.2,0,0,1-.34-1.53,3.52,3.52,0,0,1,.35-1.62,2.42,2.42,0,0,1,1-1,4.61,4.61,0,0,1,1.23-.5,5.71,5.71,0,0,1,1.33-.15,6.77,6.77,0,0,1,2.09.31c.66.21,1,.47,1,.79a.8.8,0,0,1-.15.44.47.47,0,0,1-.38.23,1.28,1.28,0,0,1-.42-.17,5,5,0,0,0-.87-.33,4.11,4.11,0,0,0-1.27-.17,3.37,3.37,0,0,0-1.9.49,1.76,1.76,0,0,0-.75,1.6,2,2,0,0,0,.45,1.31,2.42,2.42,0,0,0,1.12.75c.45.16.94.35,1.46.56a14.37,14.37,0,0,1,1.47.7,2.85,2.85,0,0,1,1.12,1.18,4,4,0,0,1,.45,2,3.52,3.52,0,0,1-1,2.78,4.14,4.14,0,0,1-2.82.92,5,5,0,0,1-2.67-.67q-1.08-.67-1.08-1.26"/><path class="cls-1" d="M149.5,95.84V83.55a.39.39,0,0,1,.17-.33.62.62,0,0,1,.38-.12h6.52c.3,0,.45.18.45.53a.68.68,0,0,1-.12.4.37.37,0,0,1-.33.17h-5.86v5h2.87a.41.41,0,0,1,.34.15.61.61,0,0,1,.12.39c0,.32-.15.49-.46.49h-2.87v5h5.86a.44.44,0,0,1,.33.16.68.68,0,0,1,.12.4q0,.54-.45.54h-6.52a.62.62,0,0,1-.38-.12.43.43,0,0,1-.17-.35"/><path class="cls-1" d="M158.29,95.84V83.54c0-.27.15-.42.45-.44H162a4.63,4.63,0,0,1,2.87.83,3.25,3.25,0,0,1,1.09,2.73,3.16,3.16,0,0,1-2.86,3.49l2.82,5.35a.36.36,0,0,1,.07.24.55.55,0,0,1-.22.42.67.67,0,0,1-.47.19c-.22,0-.44-.21-.64-.63l-2.82-5.43h-2.33v5.55a.41.41,0,0,1-.18.35.74.74,0,0,1-.42.12.75.75,0,0,1-.43-.12.4.4,0,0,1-.17-.35m1.2-6.58H162c1.83,0,2.75-.85,2.75-2.54s-.92-2.52-2.75-2.52h-2.49Z"/><path class="cls-1" d="M166.43,83.61a.4.4,0,0,1,.22-.36.84.84,0,0,1,.47-.15c.28,0,.43.1.48.31L171,94.51l3.36-11.1a.45.45,0,0,1,.46-.31.91.91,0,0,1,.5.15.45.45,0,0,1,.24.37.09.09,0,0,1,0,0s0,0,0,.06L171.71,96c-.09.3-.33.44-.74.44s-.62-.14-.71-.43l-3.81-12.26a.29.29,0,0,1,0-.12"/><path class="cls-1" d="M176.79,95.84V83.54c0-.29.2-.44.6-.44s.61.15.61.44v12.3a.4.4,0,0,1-.19.35.74.74,0,0,1-.42.12.7.7,0,0,1-.42-.12.41.41,0,0,1-.18-.35"/><path class="cls-1" d="M180.12,92.56V87A3.7,3.7,0,0,1,181.19,84a4.66,4.66,0,0,1,5.53-.06,2.72,2.72,0,0,1,1,2.14.89.89,0,0,1-.14.58.62.62,0,0,1-.47.14c-.37,0-.58-.15-.6-.45a3,3,0,0,0-.08-.52,2.23,2.23,0,0,0-.65-1.12,1.9,1.9,0,0,0-.74-.39A3.62,3.62,0,0,0,184,84.2q-2.64,0-2.64,2.76v5.61c0,1.84.9,2.77,2.71,2.77a3.39,3.39,0,0,0,1.28-.21,1.49,1.49,0,0,0,.75-.61,2.68,2.68,0,0,0,.32-.68,4.31,4.31,0,0,0,.14-.73c0-.31.24-.47.6-.47a.62.62,0,0,1,.47.15.94.94,0,0,1,.14.59,2.7,2.7,0,0,1-.86,2,3.74,3.74,0,0,1-2.31,1l-.28,1a2.1,2.1,0,0,1,1.32.38,1.18,1.18,0,0,1,.44.92,1.36,1.36,0,0,1-.42,1,1.63,1.63,0,0,1-1.21.42,3.49,3.49,0,0,1-.94-.13c-.32-.08-.49-.2-.49-.34a.6.6,0,0,1,.09-.27.23.23,0,0,1,.21-.16l.34.12a1.72,1.72,0,0,0,.68.13c.65,0,1-.23,1-.71s-.38-.69-1.15-.75l-.7-.06.41-1.52a4,4,0,0,1-2.69-1,3.73,3.73,0,0,1-1-2.9"/><path class="cls-1" d="M189.18,92.56V87a3.78,3.78,0,0,1,1-2.92A4,4,0,0,1,193,83.1a4,4,0,0,1,2.77.93,3.75,3.75,0,0,1,1,2.92v5.61a3.76,3.76,0,0,1-1,2.93,4,4,0,0,1-2.77.93,4,4,0,0,1-2.78-.93,3.79,3.79,0,0,1-1-2.93m1.21,0c0,1.84.87,2.76,2.6,2.76s2.6-.92,2.6-2.76V87c0-1.83-.87-2.75-2.6-2.75s-2.6.92-2.6,2.75Z"/><path class="cls-1" d="M202.07,95.84V83.55q0-.45.6-.45c.34,0,.66.28,1,.83l4.94,9.62v-10c0-.29.2-.44.61-.44s.6.15.6.44v12.3a.41.41,0,0,1-.18.35.74.74,0,0,1-.42.12c-.31,0-.57-.23-.81-.68l-5.09-9.78v10a.41.41,0,0,1-.18.35.74.74,0,0,1-.42.12.75.75,0,0,1-.43-.12.4.4,0,0,1-.17-.35"/><path class="cls-1" d="M211,95.81a.39.39,0,0,1,0-.13l3.83-12.27c.08-.28.32-.42.71-.42a.68.68,0,0,1,.73.42l3.81,12.3a.11.11,0,0,0,0,.05.13.13,0,0,1,0,0,.43.43,0,0,1-.24.36,1,1,0,0,1-.49.14A.44.44,0,0,1,219,96l-.84-2.79h-5.06L212.22,96c-.05.2-.22.3-.48.3a.87.87,0,0,1-.48-.14.44.44,0,0,1-.23-.36m2.35-3.62h4.43l-2.21-7.3Z"/><path class="cls-1" d="M221.27,92.56V87A3.66,3.66,0,0,1,222.34,84a4.64,4.64,0,0,1,5.52-.06,2.72,2.72,0,0,1,1,2.14.89.89,0,0,1-.14.58.59.59,0,0,1-.46.14c-.38,0-.58-.15-.61-.45a3,3,0,0,0-.07-.52,2.44,2.44,0,0,0-.22-.57,1.78,1.78,0,0,0-.43-.55,2.06,2.06,0,0,0-.74-.39,3.64,3.64,0,0,0-1.1-.16c-1.76,0-2.64.92-2.64,2.75v5.61a2.42,2.42,0,0,0,2.71,2.76,3.48,3.48,0,0,0,1.29-.21,1.49,1.49,0,0,0,.74-.6,3.43,3.43,0,0,0,.33-.68,4.66,4.66,0,0,0,.13-.73c0-.32.24-.47.61-.47a.59.59,0,0,1,.46.15.92.92,0,0,1,.14.59,2.75,2.75,0,0,1-1,2.17,4.16,4.16,0,0,1-2.8.88,3.92,3.92,0,0,1-2.73-.94,3.72,3.72,0,0,1-1-2.92"/><path class="cls-1" d="M230.47,95.84V83.54c0-.29.2-.44.61-.44s.6.15.6.44v12.3a.41.41,0,0,1-.18.35.76.76,0,0,1-.42.12.73.73,0,0,1-.43-.12.41.41,0,0,1-.18-.35"/><path class="cls-1" d="M233.8,92.56V87a3.75,3.75,0,0,1,1-2.92,4.59,4.59,0,0,1,5.54,0,3.75,3.75,0,0,1,1,2.92v5.61a3.76,3.76,0,0,1-1,2.93,4.59,4.59,0,0,1-5.54,0,3.76,3.76,0,0,1-1-2.93m1.21,0c0,1.84.87,2.76,2.6,2.76s2.6-.92,2.6-2.76V87c0-1.83-.87-2.75-2.6-2.75S235,85.12,235,87Z"/><path class="cls-1" d="M243.54,95.84V83.55c0-.3.2-.45.61-.45s.65.28.95.83L250,93.55v-10c0-.29.2-.44.6-.44s.61.15.61.44v12.3a.4.4,0,0,1-.19.35.74.74,0,0,1-.42.12c-.3,0-.57-.23-.8-.68l-5.09-9.78v10a.41.41,0,0,1-.18.35.79.79,0,0,1-.42.12.71.71,0,0,1-.43-.12.41.41,0,0,1-.18-.35"/><path class="cls-1" d="M252.51,95.81a.24.24,0,0,1,0-.13l3.82-12.27c.09-.28.32-.42.71-.42a.68.68,0,0,1,.73.42l3.82,12.3v.05a.13.13,0,0,1,0,0,.44.44,0,0,1-.23.36,1,1,0,0,1-.5.14.45.45,0,0,1-.46-.3l-.84-2.79h-5L253.69,96q-.08.3-.48.3a.92.92,0,0,1-.48-.14.42.42,0,0,1-.22-.36m2.34-3.62h4.43l-2.21-7.3Z"/><path class="cls-1" d="M262.89,95.84V83.54c0-.29.2-.44.6-.44s.6.15.6.44V95.21h5.22c.27,0,.4.18.4.54s-.13.56-.4.56h-5.87a.65.65,0,0,1-.39-.12.42.42,0,0,1-.16-.35"/><path class="cls-1" d="M274,95.86V83.53a.38.38,0,0,1,.15-.3.6.6,0,0,1,.4-.13h3.24a4,4,0,0,1,2.78.93,3.75,3.75,0,0,1,1,2.92v5.5a3.76,3.76,0,0,1-1,2.93,4,4,0,0,1-2.78.93h-3.24a.6.6,0,0,1-.4-.13.42.42,0,0,1-.15-.32m1.21-.65h2.58a2.6,2.6,0,0,0,1.93-.69,2.84,2.84,0,0,0,.68-2.07V87a2.8,2.8,0,0,0-.68-2.06,2.6,2.6,0,0,0-1.93-.69h-2.58Z"/><path class="cls-1" d="M283.73,95.84V83.55a.39.39,0,0,1,.17-.33.64.64,0,0,1,.38-.12h6.52c.3,0,.46.18.46.53a.68.68,0,0,1-.12.4.37.37,0,0,1-.34.17h-5.86v5h2.88a.39.39,0,0,1,.33.15.61.61,0,0,1,.12.39c0,.32-.15.49-.45.49h-2.88v5h5.86a.44.44,0,0,1,.33.16.68.68,0,0,1,.13.4c0,.36-.16.54-.46.54h-6.52a.64.64,0,0,1-.38-.12.43.43,0,0,1-.17-.35"/><path class="cls-1" d="M294.93,94.51a.74.74,0,0,1,.18-.45.47.47,0,0,1,.38-.22c.09,0,.21.08.36.23l.51.53a2.4,2.4,0,0,0,.87.51,3.91,3.91,0,0,0,1.38.23,2.92,2.92,0,0,0,2-.64,2.4,2.4,0,0,0,.71-1.86,2.62,2.62,0,0,0-.34-1.38,2.37,2.37,0,0,0-.87-.88A7.08,7.08,0,0,0,299,90l-1.32-.51a6,6,0,0,1-1.18-.61,2.71,2.71,0,0,1-.86-1,3.32,3.32,0,0,1-.34-1.53,3.4,3.4,0,0,1,.36-1.62,2.46,2.46,0,0,1,1-1,4.68,4.68,0,0,1,1.24-.5,5.71,5.71,0,0,1,1.33-.15,6.77,6.77,0,0,1,2.09.31c.65.21,1,.47,1,.79a.75.75,0,0,1-.16.44.45.45,0,0,1-.37.23,1.21,1.21,0,0,1-.42-.17,5,5,0,0,0-.87-.33,4.15,4.15,0,0,0-1.27-.17,3.41,3.41,0,0,0-1.91.49,1.76,1.76,0,0,0-.75,1.6,2,2,0,0,0,.45,1.31,2.45,2.45,0,0,0,1.13.75c.45.16.94.35,1.46.56a14.18,14.18,0,0,1,1.46.7,2.87,2.87,0,0,1,1.13,1.18,4,4,0,0,1,.45,2,3.55,3.55,0,0,1-1,2.78,4.14,4.14,0,0,1-2.82.92,5,5,0,0,1-2.68-.67c-.71-.45-1.08-.87-1.08-1.26"/><path class="cls-1" d="M303.19,95.81a.39.39,0,0,1,0-.13L307,83.41a.65.65,0,0,1,.71-.42.68.68,0,0,1,.73.42l3.82,12.3a.11.11,0,0,0,0,.05.2.2,0,0,0,0,0,.45.45,0,0,1-.24.36,1,1,0,0,1-.5.14.43.43,0,0,1-.45-.3l-.85-2.79h-5L304.37,96q-.08.3-.48.3a.92.92,0,0,1-.48-.14.42.42,0,0,1-.22-.36m2.34-3.62H310l-2.21-7.3Z"/><path class="cls-1" d="M313.42,92.56v-9c0-.29.2-.44.61-.44s.6.15.6.44v9a2.8,2.8,0,0,0,.69,2.06,2.56,2.56,0,0,0,1.94.7,2.61,2.61,0,0,0,2-.7,2.84,2.84,0,0,0,.68-2.06v-9c0-.29.2-.44.6-.44s.61.15.61.44v9a3.73,3.73,0,0,1-1.05,2.93,4.67,4.67,0,0,1-5.59,0,3.73,3.73,0,0,1-1.05-2.93m2.54-12a.33.33,0,0,1,.21-.33l2.05-1.1a.17.17,0,0,1,.14-.06.36.36,0,0,1,.32.16.55.55,0,0,1,.12.35.41.41,0,0,1-.22.4l-2,1a.35.35,0,0,1-.18.05.46.46,0,0,1-.33-.15.5.5,0,0,1-.15-.35"/><path class="cls-1" d="M323.32,95.86V83.53a.39.39,0,0,1,.16-.3.56.56,0,0,1,.39-.13h3.24a4.05,4.05,0,0,1,2.79.93,3.75,3.75,0,0,1,1,2.92v5.5a3.76,3.76,0,0,1-1,2.93,4.05,4.05,0,0,1-2.79.93h-3.24a.56.56,0,0,1-.39-.13.43.43,0,0,1-.16-.32m1.21-.65h2.58a2.59,2.59,0,0,0,1.93-.69,2.84,2.84,0,0,0,.69-2.07V87a2.8,2.8,0,0,0-.69-2.06,2.59,2.59,0,0,0-1.93-.69h-2.58Z"/><path class="cls-1" d="M333.06,95.84V83.55a.39.39,0,0,1,.17-.33.62.62,0,0,1,.38-.12h6.52c.3,0,.45.18.45.53a.68.68,0,0,1-.12.4.37.37,0,0,1-.33.17h-5.86v5h2.87a.41.41,0,0,1,.34.15.61.61,0,0,1,.12.39c0,.32-.15.49-.46.49h-2.87v5h5.86a.44.44,0,0,1,.33.16.68.68,0,0,1,.12.4q0,.54-.45.54h-6.52a.62.62,0,0,1-.38-.12.43.43,0,0,1-.17-.35"/><path class="cls-2" d="M48.91.4A48.9,48.9,0,0,0,2.63,33.51c3-1.33,26.87-19.93,51.58-5.38,38.2,21.64,16.17,61,14.47,66A48.93,48.93,0,0,0,48.91.4Z"/><path class="cls-3" d="M48.94,98.24a48.93,48.93,0,0,0,46.29-33.1c-3,1.32-38.32,24.41-63.83,2.87-11.33-9.58-11.79-25.57-9.3-41.37C24.17,13.56,27.47,9.5,29.16,4.55A48.93,48.93,0,0,0,48.94,98.24Z"/><path class="cls-4" d="M25.23,33.57c-9.42,11.7-8.76,26.75-16.59,28C5.58,62,.56,59.36.07,51.11A48.94,48.94,0,0,0,35.35,96.33C30.7,89.91,29,86.74,29,78.18,29,56.74,46.13,40.94,66.9,39,83.07,37.57,90.82,41.13,97.8,51c0-.52,0-1.13,0-1.67A48.44,48.44,0,0,0,83.31,14.54C80.21,11.49,48.07,5.25,25.23,33.57Z"/></g></g></svg>