<?xml version="1.0" encoding="UTF-8"?>
<svg width="197px" height="34px" viewBox="0 0 197 34" version="1.1" xmlns="http://www.w3.org/2000/svg" xmlns:xlink="http://www.w3.org/1999/xlink">
    <!-- Generator: sketchtool 63.1 (101010) - https://sketch.com -->
    <title>1F6ECAA0-E0CD-47AD-9C82-701DCE792207</title>
    <desc>Created with sketchtool.</desc>
    <defs>
        <polygon id="path-1" points="5.39999953e-05 0.000107999991 196.154983 0.000107999991 196.154983 33.5014351 5.39999953e-05 33.5014351"></polygon>
    </defs>
    <g id="Page-1" stroke="none" stroke-width="1" fill="none" fill-rule="evenodd">
        <g id="Desktop_Microsite_DGS" transform="translate(-1157.000000, -30.000000)">
            <g id="Group-14">
                <g id="Group-2" transform="translate(1113.000000, 30.000000)">
                    <g id="Group-3" transform="translate(44.000000, 0.000000)">
                        <mask id="mask-2" fill="white">
                            <use xlink:href="#path-1"></use>
                        </mask>
                        <g id="Clip-2"></g>
                        <path d="M148.905581,28.1926956 L153.380021,28.1926956 L153.380021,27.5274156 L149.694521,27.5274156 L149.694521,23.9277759 L153.034421,23.9277759 L153.034421,23.261956 L149.694521,23.261956 L149.694521,20.0570563 L153.269321,20.0570563 L153.269321,19.3912363 L148.905581,19.3912363 L148.905581,28.1926956 Z M143.076822,20.0570563 L144.358782,20.0570563 C146.084621,20.0570563 146.812001,20.9199762 146.812001,23.804116 C146.812001,26.6644957 146.084621,27.5274156 144.358782,27.5274156 L143.076822,27.5274156 L143.076822,20.0570563 Z M142.287882,28.1926956 L144.408462,28.1926956 C146.971841,28.1926956 147.600941,26.6644957 147.600941,23.792236 C147.600941,20.9199762 146.971841,19.3912363 144.408462,19.3912363 L142.287882,19.3912363 L142.287882,28.1926956 Z M138.911802,17.2344765 L137.987322,18.9721964 L138.579162,18.9721964 L139.787142,17.2344765 L138.911802,17.2344765 Z M136.002822,25.7275958 C136.002822,27.5760156 136.902462,28.3401156 138.517602,28.3401156 C140.132202,28.3401156 141.032382,27.5760156 141.032382,25.7275958 L141.032382,19.3912363 L140.243442,19.3912363 L140.243442,25.7146358 C140.243442,27.0338557 139.675902,27.6748356 138.517602,27.6748356 C137.358762,27.6748356 136.791762,27.0338557 136.791762,25.7146358 L136.791762,19.3912363 L136.002822,19.3912363 L136.002822,25.7275958 Z M130.913863,24.9629559 L132.269263,20.0079163 L132.293563,20.0079163 L133.650042,24.9629559 L130.913863,24.9629559 Z M129.187483,28.1926956 L130.026103,28.1926956 L130.740523,25.6287758 L133.822302,25.6287758 L134.537802,28.1926956 L135.375882,28.1926956 L132.774703,19.3912363 L131.788663,19.3912363 L129.187483,28.1926956 Z M128.622103,21.6473561 C128.622103,20.0813563 127.870423,19.2438163 126.230983,19.2438163 C124.702783,19.2438163 123.802603,20.1925963 123.802603,21.5733761 C123.802603,24.7658559 128.067523,23.274376 128.067523,25.8868958 C128.067523,27.1202557 127.278583,27.6748356 126.169423,27.6748356 C125.010583,27.6748356 124.418743,26.9226157 124.418743,25.8010358 L124.418743,25.4683958 L123.629803,25.4683958 L123.629803,25.7275958 C123.629803,27.4534356 124.542403,28.3401156 126.193723,28.3401156 C127.795903,28.3401156 128.856463,27.4647756 128.856463,25.7643158 C128.856463,22.670116 124.591543,24.1124559 124.591543,21.4869762 C124.591543,20.6116362 125.182843,19.9090963 126.255823,19.9090963 C127.328263,19.9090963 127.833703,20.5624962 127.833703,21.6473561 L128.622103,21.6473561 Z M115.546004,28.1926956 L120.020444,28.1926956 L120.020444,27.5274156 L116.334944,27.5274156 L116.334944,23.9277759 L119.675384,23.9277759 L119.675384,23.261956 L116.334944,23.261956 L116.334944,20.0570563 L119.909744,20.0570563 L119.909744,19.3912363 L115.546004,19.3912363 L115.546004,28.1926956 Z M109.717785,20.0570563 L110.999744,20.0570563 C112.725044,20.0570563 113.452424,20.9199762 113.452424,23.804116 C113.452424,26.6644957 112.725044,27.5274156 110.999744,27.5274156 L109.717785,27.5274156 L109.717785,20.0570563 Z M108.928845,28.1926956 L111.048884,28.1926956 C113.612804,28.1926956 114.241364,26.6644957 114.241364,23.792236 C114.241364,20.9199762 113.612804,19.3912363 111.048884,19.3912363 L108.928845,19.3912363 L108.928845,28.1926956 Z M191.717317,13.6942368 L196.155037,13.6942368 L196.155037,13.0289569 L192.506257,13.0289569 L192.506257,4.89331758 L191.717317,4.89331758 L191.717317,13.6942368 Z M186.578678,10.4650371 L187.934618,5.50945753 L187.958918,5.50945753 L189.315398,10.4650371 L186.578678,10.4650371 Z M184.852838,13.6942368 L185.691458,13.6942368 L186.405878,11.130317 L189.487658,11.130317 L190.203158,13.6942368 L191.041238,13.6942368 L188.440058,4.89331758 L187.454018,4.89331758 L184.852838,13.6942368 Z M178.937679,13.6942368 L179.726619,13.6942368 L179.726619,6.02731748 L179.751459,6.02731748 L183.116738,13.6942368 L184.176218,13.6942368 L184.176218,4.89331758 L183.387278,4.89331758 L183.387278,12.5607769 L183.363518,12.5607769 L179.997699,4.89331758 L178.937679,4.89331758 L178.937679,13.6942368 Z M172.801119,9.2937772 C172.801119,6.44635744 173.565219,5.41117753 174.822339,5.41117753 C176.079459,5.41117753 176.844099,6.44635744 176.844099,9.2937772 C176.844099,12.140657 176.079459,13.1763769 174.822339,13.1763769 C173.565219,13.1763769 172.801119,12.140657 172.801119,9.2937772 L172.801119,9.2937772 Z M172.012179,9.2937772 C172.012179,12.4495369 173.022519,13.8427368 174.822339,13.8427368 C176.622159,13.8427368 177.633039,12.4495369 177.633039,9.2937772 C177.633039,6.13801747 176.622159,4.74535759 174.822339,4.74535759 C173.022519,4.74535759 172.012179,6.13801747 172.012179,9.2937772 L172.012179,9.2937772 Z M169.867839,13.6942368 L170.656779,13.6942368 L170.656779,4.89277758 L169.867839,4.89277758 L169.867839,13.6942368 Z M167.98324,10.7112771 C167.89738,12.2275969 167.26882,13.1763769 166.15912,13.1763769 C164.902,13.1763769 164.1379,12.140657 164.1379,9.2937772 C164.1379,6.44635744 164.902,5.41117753 166.15912,5.41117753 C167.29366,5.41117753 167.89738,6.26167746 167.89738,7.45723736 L168.686319,7.45723736 C168.686319,6.01489748 167.94652,4.74535759 166.15912,4.74535759 C164.3593,4.74535759 163.34896,6.13801747 163.34896,9.2937772 C163.34896,12.4495369 164.3593,13.8427368 166.15912,13.8427368 C167.737,13.8427368 168.661479,12.7206169 168.772179,10.7112771 L167.98324,10.7112771 Z M158.28376,10.4650371 L159.64024,5.50945753 L159.66454,5.50945753 L161.02102,10.4650371 L158.28376,10.4650371 Z M156.558461,13.6942368 L157.39654,13.6942368 L158.1115,11.130317 L161.19328,11.130317 L161.9077,13.6942368 L162.74632,13.6942368 L160.14514,4.89331758 L159.1591,4.89331758 L156.558461,13.6942368 Z M150.643841,13.6942368 L151.432781,13.6942368 L151.432781,6.02731748 L151.457081,6.02731748 L154.821821,13.6942368 L155.881841,13.6942368 L155.881841,4.89331758 L155.092901,4.89331758 L155.092901,12.5607769 L155.068601,12.5607769 L151.703321,4.89331758 L150.643841,4.89331758 L150.643841,13.6942368 Z M141.549162,9.2937772 C141.549162,6.44635744 142.313262,5.41117753 143.570382,5.41117753 C144.827502,5.41117753 145.591601,6.44635744 145.591601,9.2937772 C145.591601,12.140657 144.827502,13.1763769 143.570382,13.1763769 C142.313262,13.1763769 141.549162,12.140657 141.549162,9.2937772 L141.549162,9.2937772 Z M140.760222,9.2937772 C140.760222,12.4495369 141.770562,13.8427368 143.570382,13.8427368 C145.369661,13.8427368 146.380541,12.4495369 146.380541,9.2937772 C146.380541,6.13801747 145.369661,4.74535759 143.570382,4.74535759 C141.770562,4.74535759 140.760222,6.13801747 140.760222,9.2937772 L140.760222,9.2937772 Z M136.434822,14.6926967 L136.594662,14.9022167 C136.730742,14.8163567 136.903002,14.7790967 137.137362,14.7790967 C137.470002,14.7790967 137.790762,14.9146367 137.790762,15.2224367 C137.790762,15.5183567 137.532102,15.7651366 136.940262,15.7651366 C136.669182,15.7651366 136.397562,15.6792767 136.201002,15.5804567 L136.052502,15.9627766 C136.299282,16.0853566 136.767462,16.2095566 137.149782,16.2095566 C137.716782,16.2095566 138.456042,15.8515366 138.456042,15.1614167 C138.456042,14.7051167 138.037542,14.3352168 137.507262,14.3352168 C137.346882,14.3352168 137.198922,14.3476368 137.088222,14.3967768 L137.063382,14.3848968 L137.494842,13.8178968 C138.875622,13.6818168 139.689402,12.5726569 139.787682,10.7112771 L138.998742,10.7112771 C138.912342,12.2275969 138.283782,13.1763769 137.174082,13.1763769 C135.916962,13.1763769 135.152862,12.140657 135.152862,9.2937772 C135.152862,6.44635744 135.916962,5.41117753 137.174082,5.41117753 C138.308622,5.41117753 138.912342,6.26167746 138.912342,7.45723736 L139.701282,7.45723736 C139.701282,6.01489748 138.961482,4.74535759 137.174082,4.74535759 C135.374262,4.74535759 134.363922,6.13801747 134.363922,9.2937772 C134.363922,12.3631369 135.313242,13.7563368 137.038542,13.8427368 L136.434822,14.6926967 Z M132.220123,13.6942368 L133.009063,13.6942368 L133.009063,4.89277758 L132.220123,4.89277758 L132.220123,13.6942368 Z M128.141503,13.6942368 L129.127543,13.6942368 L131.444683,4.89331758 L130.606063,4.89331758 L128.646403,12.8561569 L128.622103,12.8561569 L126.661903,4.89331758 L125.823823,4.89331758 L128.141503,13.6942368 Z M121.104224,5.55913752 L122.546563,5.55913752 C123.975943,5.55913752 124.432243,6.21253747 124.432243,7.28443737 C124.432243,8.44327727 123.704863,9.01081722 122.459623,9.01081722 L121.104224,9.01081722 L121.104224,5.55913752 Z M120.315284,13.6942368 L121.104224,13.6942368 L121.104224,9.67609717 L122.595163,9.67609717 C124.013203,9.67609717 124.296703,10.1685771 124.346383,11.722157 L124.370143,12.4614169 C124.383103,12.9295969 124.419823,13.3864368 124.605043,13.6942368 L125.529523,13.6942368 C125.221183,13.3497169 125.172043,12.8815369 125.159083,12.4003969 L125.134783,11.438657 C125.098063,10.0827171 124.728163,9.45415719 123.630883,9.35533719 L123.630883,9.3310372 C124.802143,9.10909722 125.221183,8.1592373 125.221183,7.09921739 C125.221183,5.73139751 124.407943,4.89331758 122.940763,4.89331758 L120.315284,4.89331758 L120.315284,13.6942368 Z M114.844004,13.6942368 L119.318444,13.6942368 L119.318444,13.0289569 L115.632944,13.0289569 L115.632944,9.42931719 L118.972844,9.42931719 L118.972844,8.76403725 L115.632944,8.76403725 L115.632944,5.55913752 L119.207204,5.55913752 L119.207204,4.89331758 L114.844004,4.89331758 L114.844004,13.6942368 Z M113.575544,7.14889738 C113.575544,5.58343752 112.823864,4.74535759 111.184424,4.74535759 C109.655685,4.74535759 108.755505,5.69467751 108.755505,7.07545739 C108.755505,10.2679371 113.020964,8.77591724 113.020964,11.389517 C113.020964,12.6217969 112.232024,13.1763769 111.122324,13.1763769 C109.964025,13.1763769 109.372185,12.4246969 109.372185,11.303657 L109.372185,10.9699371 L108.583245,10.9699371 L108.583245,11.229137 C108.583245,12.9549769 109.495845,13.8427368 111.147164,13.8427368 C112.749884,13.8427368 113.809904,12.9673969 113.809904,11.265857 C113.809904,8.1721973 109.544445,9.61453717 109.544445,6.9885174 C109.544445,6.11317747 110.136285,5.41117753 111.208724,5.41117753 C112.281164,5.41117753 112.786604,6.06403748 112.786604,7.14889738 L113.575544,7.14889738 Z M102.530925,25.5175358 C103.406265,24.4240359 103.972725,22.847236 103.972185,21.5155961 C104.018085,20.0149363 103.551525,18.5590964 102.698325,17.5255365 C101.981745,16.6307566 100.097685,15.2650967 98.3956055,14.0603568 C97.9463256,13.7298768 97.4803056,13.4074968 97.0051056,13.0797169 C96.0093457,12.3912169 94.9806458,11.680037 93.9940659,10.8111771 C93.8596059,10.5638571 93.5944659,10.0551771 93.5944659,9.83053715 C93.5944659,9.14311721 94.0621059,8.52481727 94.2532659,8.33311728 C94.7198258,7.83523733 95.2004258,7.61329734 96.8117857,7.61329734 C98.1882455,7.61329734 99.6278854,8.99677723 99.9562054,10.6351371 L100.053945,11.125997 L103.889565,10.2927771 L103.797225,9.81973715 C103.429485,7.93513732 102.434265,6.16177747 101.185245,5.18059755 C99.8201254,4.19293764 98.3075855,3.67021768 96.8117857,3.67021768 C94.6458459,3.67021768 92.987506,3.99475766 91.4063861,5.62177752 C90.2907462,6.83839741 89.6513863,8.38711728 89.6513863,9.87157715 C89.6513863,10.8559971 90.0553062,12.062357 90.7400262,13.1131969 C91.3680461,14.0101368 93.070126,15.2343167 95.6119058,16.9153365 C95.9116057,17.2436565 96.4699657,17.6788965 96.8674057,17.8511565 C97.6099056,18.3690164 99.4286254,19.6407163 99.7618054,20.0575963 L99.7985254,20.0980963 C99.9956254,20.2946563 100.113345,20.7568962 100.113345,21.3341562 C100.113345,21.7963961 99.8536054,22.5210761 99.5069254,23.031916 C99.0630455,23.531416 98.0878056,24.3430359 96.4370257,24.3430359 C93.353086,24.3430359 92.652166,21.6176561 92.543086,21.0711762 L92.444806,20.5803162 L88.6297064,21.4092162 L88.6982864,21.8655161 C88.8322064,22.758136 89.3165863,24.9748358 90.9128262,26.2972957 L91.7190461,26.9231557 L91.7190461,26.8956157 C93.055006,27.8195556 94.6377459,28.2861156 96.4370257,28.2861156 C99.3632854,28.2861156 101.353185,26.7946357 102.530925,25.5175358 L102.530925,25.5175358 Z M86.2169866,3.87919767 L82.2317869,3.87919767 L82.2317869,19.8896563 L72.0743878,3.87919767 L68.6443081,3.87919767 L68.6443081,28.1613756 L72.5463478,28.1613756 L72.5463478,11.985677 L82.7869069,28.1613756 L86.2169866,28.1613756 L86.2169866,3.87919767 Z M64.5597484,25.5175358 C65.4356284,24.4240359 66.0015483,22.847236 66.0015483,21.5155961 C66.0469083,20.0149363 65.5803484,18.5590964 64.7266084,17.5255365 C64.0105685,16.6307566 62.1270487,15.2650967 60.4244288,14.0603568 C59.9746088,13.7298768 59.5091289,13.4074968 59.0339289,13.0797169 C58.038709,12.3912169 57.0089291,11.680037 56.0223492,10.8111771 C55.8889692,10.5638571 55.6238292,10.0551771 55.6238292,9.83053715 C55.6238292,9.14311721 56.0909292,8.52481727 56.2826292,8.33311728 C56.7486491,7.83523733 57.2292491,7.61329734 58.8406089,7.61329734 C60.2170688,7.61329734 61.6572487,8.99677723 61.9844887,10.6351371 L62.0827687,11.125997 L65.9178483,10.2927771 L65.8255083,9.81973715 C65.4583084,7.93513732 64.4636284,6.16177747 63.2140686,5.18059755 C61.8484087,4.19293764 60.3364088,3.67021768 58.8406089,3.67021768 C56.6746691,3.67021768 55.0163293,3.99475766 53.4352094,5.62177752 C52.3201095,6.83839741 51.6796696,8.38711728 51.6796696,9.87157715 C51.6796696,10.8559971 52.0835895,12.062357 52.7693895,13.1131969 C53.3974094,14.0101368 55.0984093,15.2343167 57.640729,16.9153365 C57.940429,17.2436565 58.499329,17.6788965 58.8956889,17.8511565 C59.6381889,18.3690164 61.4574487,19.6407163 61.7911687,20.0575963 L61.8268087,20.0980963 C62.0239087,20.2946563 62.1416286,20.7568962 62.1416286,21.3341562 C62.1416286,21.7963961 61.8829687,22.5210761 61.5362887,23.031916 C61.0924087,23.531416 60.1160888,24.3430359 58.466389,24.3430359 C55.3824492,24.3430359 54.6815293,21.6176561 54.5719093,21.0711762 L54.4736293,20.5803162 L50.6585296,21.4092162 L50.7271096,21.8655161 C50.8615696,22.758136 51.3454096,24.9748358 52.9421894,26.2972957 L53.7478694,26.9231557 L53.7478694,26.8956157 C55.0843693,27.8195556 56.6671091,28.2861156 58.466389,28.2861156 C61.3921087,28.2861156 63.3825485,26.7946357 64.5597484,25.5175358 L64.5597484,25.5175358 Z M0.0243539979,17.3430165 C0.173393985,19.8054163 1.63355386,20.6899362 2.46137379,20.5641162 C3.67151368,20.3729562 4.21637364,18.8847164 4.97021357,16.8197566 C5.33795354,15.8148166 5.7613135,14.6710967 6.33695345,13.5160368 C6.35585345,11.803157 6.55565344,10.1404971 6.78515342,8.67601725 C7.32731337,5.25565755 8.0984333,3.55519769 8.71889325,2.18845781 C8.74643325,2.12635782 8.77343324,2.06641782 8.80097324,2.00701783 C3.41393371,4.91437758 5.39999953e-05,10.5595371 5.39999953e-05,16.7419966 C5.39999953e-05,16.9455765 0.0081539993,17.3430165 0.0151739987,17.3430165 L0.0243539979,17.3430165 Z M10.5646131,23.9828559 C10.3383531,24.9327159 10.2157731,25.9192958 10.2157731,26.9323357 C10.2157731,29.7370954 10.7509131,30.7863153 12.2623729,32.8847552 C13.6922928,33.2843551 15.1983527,33.5014351 16.7540926,33.5014351 C23.458732,33.5014351 29.4694715,29.5097555 32.1084512,23.437996 C29.8561114,24.6562359 24.9394119,27.0781357 19.6452523,27.0786757 C16.1789926,27.0786757 13.1296129,26.0294558 10.5646131,23.9828559 L10.5646131,23.9828559 Z M25.3697918,12.5094769 C29.0039915,12.5094769 31.3907913,13.4668968 33.4697911,15.8536966 C33.2527111,11.661677 31.5155313,7.78177733 28.5228515,4.84849758 C28.2722916,4.6011776 26.5907317,4.01041765 23.9161119,4.01041765 C20.5276122,4.01041765 14.0557128,4.98565757 8.78693324,11.519117 C7.32677337,13.3297369 6.58157343,15.3709367 5.92385349,17.1718365 C5.11655356,19.3809763 4.41941362,21.2887962 2.61959377,21.5722961 C1.96781383,21.6759761 1.1821139,21.4691562 0.536273954,20.9383362 C1.85981384,26.1190958 5.60255352,30.3942754 10.6715331,32.3636552 C9.63797317,30.7582354 9.20111321,29.4541355 9.20111321,26.9323357 C9.20003321,19.4949163 15.1513727,13.3432369 23.043472,12.6239569 C23.8793919,12.5478169 24.6613119,12.5094769 25.3697918,12.5094769 L25.3697918,12.5094769 Z M25.3697918,13.5241368 C25.0582118,13.5241368 24.7266519,13.5338568 24.3859119,13.5495168 C26.6409517,16.6118566 27.4266516,20.3454162 26.7327517,24.7296759 C29.3031515,23.8273359 31.3389513,22.708996 32.2920512,22.1797961 C32.4313712,22.1025761 32.5496312,22.0377761 32.6468312,21.9859361 C33.1198711,20.5479162 33.3931111,19.0348364 33.4622311,17.4828765 C31.3745913,14.6041367 29.1627515,13.5241368 25.3697918,13.5241368 L25.3697918,13.5241368 Z M12.1997329,6.84217741 C16.6563526,3.58489769 21.2155722,2.99575774 23.9161119,2.99575774 C24.9080919,2.99575774 25.8104318,3.07405774 26.5847917,3.19987772 C23.742232,1.1268179 20.3294322,0.0046979996 16.7427526,0.0046979996 C14.4299328,0.0046979996 12.2045929,0.489077958 10.1677131,1.36009788 C10.0116531,1.77643785 9.83507315,2.18305781 9.64229317,2.60695778 C9.15575321,3.68101768 8.57309326,4.98403757 8.0914133,7.21909738 C9.18221321,6.9760974 10.3426731,6.82057741 11.554433,6.82057741 C11.770973,6.82057741 11.985353,6.83245741 12.1997329,6.84217741 L12.1997329,6.84217741 Z M42.2145504,33.4803751 L41.7226104,33.4803751 L41.7226104,-0.000161999986 L42.2145504,0.0198179983 L42.2145504,33.4803751 Z" id="Fill-1" fill="#FFFFFF" mask="url(#mask-2)"></path>
                    </g>
                </g>
            </g>
        </g>
    </g>
</svg>