<?xml version="1.0" encoding="UTF-8"?>
<svg width="24px" height="24px" viewBox="0 0 24 24" version="1.1" xmlns="http://www.w3.org/2000/svg" xmlns:xlink="http://www.w3.org/1999/xlink">
    <!-- Generator: sketchtool 63.1 (101010) - https://sketch.com -->
    <title>ADB99431-F50F-41E9-A8B7-18B274941D49</title>
    <desc>Created with sketchtool.</desc>
    <g id="Page-1" stroke="none" stroke-width="1" fill="none" fill-rule="evenodd">
        <g id="Desktop_Microsite_DGS" transform="translate(-1150.000000, -86.000000)" fill="#FFFFFF" fill-rule="nonzero">
            <g id="Group-14">
                <g id="Group-2" transform="translate(1113.000000, 30.000000)">
                    <g id="global---coÌpia" transform="translate(37.000000, 56.000000)">
                        <path d="M20.137882,3.45507846 C17.9097757,1.22706434 14.9474307,0 11.7964802,0 C8.64552975,0 5.68318474,1.22706434 3.45507846,3.45507846 C1.22706434,5.68313866 0,8.64552975 0,11.7964802 C0,14.9474307 1.22706434,17.9098218 3.45507846,20.137882 C5.68318474,22.3658961 8.64552975,23.5929604 11.7964802,23.5929604 C14.9474307,23.5929604 17.9097757,22.3658961 20.137882,20.137882 C22.3658961,17.9098218 23.5929604,14.9474307 23.5929604,11.7964802 C23.5929604,8.64552975 22.3658961,5.68313866 20.137882,3.45507846 Z M9.55925009,1.62514947 C9.16356112,2.01005571 8.73589263,2.46873604 8.30799374,3.00261893 C7.56804109,3.92592391 6.9519054,4.91968521 6.47000075,5.96473354 L3.1725159,5.96473354 C4.64537096,3.79367431 6.91582476,2.20612612 9.55925009,1.62514947 Z M2.38210564,7.34713357 L5.92192522,7.34713357 C5.51904778,8.55055887 5.28468489,9.80932625 5.22349065,11.1052802 L1.40590082,11.1052802 C1.49395971,9.76854545 1.83504387,8.50000911 2.38210564,7.34713357 Z M1.40590082,12.4876802 L5.22349065,12.4876802 C5.28468489,13.7836342 5.5190017,15.0424015 5.92192522,16.2458268 L2.38210564,16.2458268 C1.83504387,15.0929513 1.49395971,13.824415 1.40590082,12.4876802 Z M3.1725159,17.6282269 L6.47000075,17.6282269 C6.9519054,18.6732291 7.56804109,19.6670365 8.30799374,20.5903415 C8.73584655,21.1242244 9.16351504,21.5829047 9.55925009,21.9678109 C6.91582476,21.3868343 4.64537096,19.7992861 3.1725159,17.6282269 Z M11.1052802,21.5104209 C10.6130075,21.085978 10.0009269,20.4922372 9.38672656,19.7258346 C8.84957199,19.0555549 8.38955535,18.3556458 8.00630798,17.6282269 L11.1052802,17.6282269 L11.1052802,21.5104209 Z M11.1052802,16.2458268 L7.38284557,16.2458268 C6.93351948,15.0558108 6.6747342,13.8006838 6.60764171,12.4876802 L11.1052802,12.4876802 L11.1052802,16.2458268 Z M11.1052802,11.1052802 L6.60764171,11.1052802 C6.67478028,9.79246097 6.93388812,8.53737999 7.38339853,7.34713357 L11.1052802,7.34713357 L11.1052802,11.1052802 Z M11.1052802,5.96473354 L8.00630798,5.96473354 C8.38167567,5.25224457 8.83086351,4.56615944 9.35382544,3.90832135 C9.97585937,3.12592901 10.6024091,2.51799556 11.1052802,2.08447492 L11.1052802,5.96473354 Z M22.1870596,11.1052802 L18.3694698,11.1052802 C18.3082755,9.80932625 18.0739587,8.55055887 17.6710352,7.34713357 L21.2108548,7.34713357 C21.7579165,8.50000911 22.0990468,9.76854545 22.1870596,11.1052802 Z M20.4204445,5.96473354 L17.1229597,5.96473354 C16.641055,4.91973129 16.0249193,3.92592391 15.2849667,3.00261893 C14.8571139,2.46873604 14.4294454,2.01005571 14.0337103,1.62514947 C16.6771817,2.20612612 18.9476355,3.79367431 20.4204445,5.96473354 Z M12.4876802,2.08253956 C12.9799529,2.50698244 13.5920335,3.10072325 14.2062338,3.86712583 C14.7433884,4.53740552 15.2034051,5.23731465 15.5866985,5.96473354 L12.4876802,5.96473354 L12.4876802,2.08253956 Z M12.4876802,7.34713357 L16.2101148,7.34713357 C16.659487,8.53714959 16.9182262,9.79227665 16.9853187,11.1052802 L12.4876802,11.1052802 L12.4876802,7.34713357 Z M12.4876802,12.4876802 L16.9852726,12.4876802 C16.9181341,13.8004994 16.6590262,15.0555804 16.2095158,16.2458268 L12.4876802,16.2458268 L12.4876802,12.4876802 Z M12.4876802,21.5084394 L12.4876802,17.6282269 L15.5866524,17.6282269 C15.2112847,18.3407158 14.7620969,19.026801 14.239135,19.684593 C13.617101,20.4669853 12.9905973,21.0748727 12.4876802,21.5084394 Z M14.0337564,21.9678109 C14.4294454,21.5829047 14.8571139,21.1242244 15.2850127,20.5903415 C16.0249654,19.6670365 16.6411011,18.6732752 17.1230057,17.6282269 L20.4204906,17.6282269 C18.9476355,19.7992861 16.6771817,21.3868343 14.0337564,21.9678109 Z M21.2108548,16.2458268 L17.6710352,16.2458268 C18.0739126,15.0424015 18.3082755,13.7836342 18.3694698,12.4876802 L22.1870596,12.4876802 C22.0990468,13.824415 21.7579165,15.0929513 21.2108548,16.2458268 Z" id="Shape"></path>
                    </g>
                </g>
            </g>
        </g>
    </g>
</svg>