<?xml version="1.0" encoding="UTF-8"?>
<svg width="25px" height="24px" viewBox="0 0 25 24" version="1.1" xmlns="http://www.w3.org/2000/svg" xmlns:xlink="http://www.w3.org/1999/xlink">
    <!-- Generator: sketchtool 63.1 (101010) - https://sketch.com -->
    <title>21BCAD57-ADA8-435E-9518-3E699D91CC8D</title>
    <desc>Created with sketchtool.</desc>
    <g id="Page-1" stroke="none" stroke-width="1" fill="none" fill-rule="evenodd">
        <g id="Desktop_Microsite_DGS" transform="translate(-1252.000000, -86.000000)" fill="#FFFFFF" fill-rule="nonzero">
            <g id="Group-14">
                <g id="Group-2" transform="translate(1113.000000, 30.000000)">
                    <g id="twitter-logo-on-black-background" transform="translate(139.399998, 56.000000)">
                        <path d="M21.5999987,0 L2.39999986,0 C1.07999994,0 0,1.07999994 0,2.39999986 L0,21.5999987 C0,22.9199986 1.07999994,24 2.39999986,24 L21.5999987,24 C22.9199986,24 24,22.9199986 24,21.5999987 L24,2.39999986 C24,1.07999994 22.9199986,0 21.5999987,0 Z M18.8399989,8.75999948 C18.7199989,14.2799991 15.2399991,18.1199989 9.95999941,18.3599989 C7.79999971,18.4799989 6.23999963,17.7599989 4.79999971,16.919999 C6.35999962,17.160046 8.3999995,16.5600461 9.47999943,15.5999991 C7.91999953,15.4799991 6.95999959,14.6399991 6.47999961,13.3199992 C6.95999959,13.4399992 7.43999956,13.3199992 7.79999971,13.3199992 C6.35999962,12.8399992 5.39999968,11.9999993 5.27999969,10.0799994 C5.63999966,10.3199994 6.11999964,10.4399994 6.59999961,10.4399994 C5.51999967,9.83999941 4.79999971,7.55999955 5.63999966,6.11999964 C7.19999957,7.79999954 9.11999946,9.23999945 12.2399993,9.47999943 C11.3999993,6.11999964 15.9600461,4.31999974 17.760046,6.59999961 C18.600046,6.47999961 19.2000459,6.11999964 19.8000459,5.87999965 C19.5600459,6.7199996 19.0800459,7.19999957 18.480046,7.67999954 C19.0800459,7.55999955 19.6800459,7.43999956 20.1600459,7.19999957 C20.0399988,7.79999954 19.4399988,8.27999951 18.8399989,8.75999948 Z" id="Shape"></path>
                    </g>
                </g>
            </g>
        </g>
    </g>
</svg>