<?xml version="1.0" encoding="UTF-8"?>
<svg width="25px" height="24px" viewBox="0 0 25 24" version="1.1" xmlns="http://www.w3.org/2000/svg" xmlns:xlink="http://www.w3.org/1999/xlink">
    <!-- Generator: sketchtool 63.1 (101010) - https://sketch.com -->
    <title>8E69BAD1-593F-4A27-8341-24BDB5A285F9</title>
    <desc>Created with sketchtool.</desc>
    <g id="Page-1" stroke="none" stroke-width="1" fill="none" fill-rule="evenodd">
        <g id="Desktop_Microsite_DGS" transform="translate(-1291.000000, -86.000000)" fill="#FFFFFF" fill-rule="nonzero">
            <g id="Group-14">
                <g id="Group-2" transform="translate(1113.000000, 30.000000)">
                    <g id="Group" transform="translate(178.599995, 56.000000)">
                        <polygon id="Path" points="10.3436894 14.0289657 14.1870787 11.8153841 10.3436894 9.60180243"></polygon>
                        <path d="M22.2691027,0 L1.73089588,0 C0.774902298,0 0,0.774902298 0,1.73089588 L0,22.2691027 C0,23.2250963 0.774902298,24 1.73089588,24 L22.2691027,24 C23.2250963,24 24,23.2250963 24,22.2691027 L24,1.73089588 C24,0.774902298 23.2250963,0 22.2691027,0 Z M19.4982323,12.0122674 C19.4982323,12.0122674 19.4982323,14.445922 19.189452,15.6194449 C19.0164173,16.2617788 18.5099476,16.7682485 17.8676137,16.9411001 C16.6940908,17.2499996 11.9999993,17.2499996 11.9999993,17.2499996 C11.9999993,17.2499996 7.31817585,17.2499996 6.1323849,16.928832 C5.49005095,16.7559805 4.98358123,16.2493277 4.81054659,15.6069937 C4.50164767,14.445922 4.50164767,11.9999993 4.50164767,11.9999993 C4.50164767,11.9999993 4.50164767,9.56652777 4.81054659,8.39300486 C4.98339814,7.75067091 5.50231898,7.23175007 6.1323849,7.05889852 C7.30590777,6.7499996 11.9999993,6.7499996 11.9999993,6.7499996 C11.9999993,6.7499996 16.6940908,6.7499996 17.8676137,7.07116655 C18.5099476,7.2440181 19.0164173,7.75067091 19.189452,8.39300486 C19.5106189,9.56652777 19.4982323,12.0122674 19.4982323,12.0122674 L19.4982323,12.0122674 Z" id="Shape"></path>
                    </g>
                </g>
            </g>
        </g>
    </g>
</svg>