<svg id="Layer_1" data-name="Layer 1" xmlns="http://www.w3.org/2000/svg" viewBox="0 0 28 28"><defs><style>.cls-1{fill:#203e51;}</style></defs><title>ccArtboard 1</title><path class="cls-1" d="M21.92,11.67l-1.84,1a2,2,0,0,0-.74-.88,1.74,1.74,0,0,0-.84-.24c-1.25,0-1.87.82-1.87,2.47a3,3,0,0,0,.47,1.8,1.6,1.6,0,0,0,1.4.67,1.74,1.74,0,0,0,1.72-1.2l1.75.88a4.28,4.28,0,0,1-1.55,1.61,4,4,0,0,1-2.12.59,4.07,4.07,0,0,1-3-1.15A4.34,4.34,0,0,1,14.13,14a4.28,4.28,0,0,1,1.16-3.17,3.93,3.93,0,0,1,2.94-1.18,3.87,3.87,0,0,1,3.69,2m-8.07,0-1.87,1a2,2,0,0,0-.74-.88,1.72,1.72,0,0,0-.81-.24c-1.25,0-1.88.82-1.88,2.47A3.12,3.12,0,0,0,9,15.8a1.62,1.62,0,0,0,1.41.67,1.75,1.75,0,0,0,1.72-1.2l1.73.88a4.16,4.16,0,0,1-1.53,1.61,4.11,4.11,0,0,1-2.15.59,4.05,4.05,0,0,1-3-1.15A4.32,4.32,0,0,1,6,14a4.29,4.29,0,0,1,1.17-3.17,3.92,3.92,0,0,1,2.93-1.18A3.94,3.94,0,0,1,13.85,11.67ZM14,2A11.37,11.37,0,0,0,5.55,5.47a12.54,12.54,0,0,0-2.67,4,11.69,11.69,0,0,0,0,9.14,12.46,12.46,0,0,0,6.58,6.53A11.65,11.65,0,0,0,14,26a11.93,11.93,0,0,0,4.58-.92,12.69,12.69,0,0,0,4-2.65A11.31,11.31,0,0,0,26.05,14a12.14,12.14,0,0,0-.89-4.62,11.87,11.87,0,0,0-2.6-3.88A11.62,11.62,0,0,0,14,2ZM14,0A13.68,13.68,0,0,1,24,4.1a13.51,13.51,0,0,1,3,4.51A14.13,14.13,0,0,1,28,14a14.39,14.39,0,0,1-1,5.39,12.86,12.86,0,0,1-3,4.43,14.35,14.35,0,0,1-4.65,3.1A13.85,13.85,0,0,1,14,28a13.58,13.58,0,0,1-5.32-1.06,14.15,14.15,0,0,1-4.55-3.08,14,14,0,0,1-3.06-4.53,14,14,0,0,1,0-10.67A14,14,0,0,1,4.15,4.08,13.23,13.23,0,0,1,14,0Z"/></svg>