<?xml version="1.0" encoding="UTF-8" standalone="no"?>
<svg xmlns:dc="http://purl.org/dc/elements/1.1/" xmlns:cc="http://creativecommons.org/ns#" xmlns:rdf="http://www.w3.org/1999/02/22-rdf-syntax-ns#" xmlns:svg="http://www.w3.org/2000/svg" xmlns="http://www.w3.org/2000/svg" viewBox="0 0 368.68533 90.708664" height="90.708664" width="368.68533" xml:space="preserve" id="svg2" version="1.1"><metadata id="metadata8"><rdf:RDF><cc:Work rdf:about=""><dc:format>image/svg+xml</dc:format><dc:type rdf:resource="http://purl.org/dc/dcmitype/StillImage"/></cc:Work></rdf:RDF></metadata><defs id="defs6"><clipPath id="clipPath18" clipPathUnits="userSpaceOnUse"><path id="path16" d="M 2.835,2.835 H 59.592 V 65.197 H 2.835 Z"/></clipPath><clipPath id="clipPath124" clipPathUnits="userSpaceOnUse"><path id="path122" d="M 76.535,2.835 H 273.681 V 65.197 H 76.535 Z"/></clipPath><clipPath id="clipPath142" clipPathUnits="userSpaceOnUse"><path id="path140" d="M 76.535,4.551 H 273.102 V 64.297 H 76.535 Z"/></clipPath><clipPath id="clipPath164" clipPathUnits="userSpaceOnUse"><path id="path162" d="M 76.535,2.835 H 273.681 V 65.197 H 76.535 Z"/></clipPath><clipPath id="clipPath216" clipPathUnits="userSpaceOnUse"><path id="path214" d="M 76.535,4.551 H 273.102 V 64.297 H 76.535 Z"/></clipPath><clipPath id="clipPath232" clipPathUnits="userSpaceOnUse"><path id="path230" d="M 76.535,2.835 H 273.681 V 65.197 H 76.535 Z"/></clipPath></defs><g transform="matrix(1.3333333,0,0,-1.3333333,0,90.708667)" id="g10"><g id="g12"><g clip-path="url(#clipPath18)" id="g14"><g transform="translate(79.7677,50.5221)" id="g20"><path id="path22" style="fill:#000000;fill-opacity:1;fill-rule:nonzero;stroke:none" d="m 0,0 v -20.796 c 0,-7.204 3.8,-9.265 7.792,-9.265 4.615,0 7.651,2.358 7.651,9.265 V 0 h 6.539 v -20.469 c 0,-11.684 -6.716,-14.787 -14.291,-14.787 -7.646,0 -14.245,3.279 -14.245,14.582 V 0 Z"/></g><path id="path24" style="fill:#000000;fill-opacity:1;fill-rule:nonzero;stroke:none" d="m 108.411,39.609 h 6.252 V 15.74 h -6.252 z m 0,10.932 h 6.252 v -6.112 h -6.252 z"/><g transform="translate(140.266,30.0021)" id="g26"><path id="path28" style="fill:#000000;fill-opacity:1;fill-rule:nonzero;stroke:none" d="M 0,0 C -2.759,7.958 -4.419,12.705 -5.228,15.668 H -5.279 C -6.134,12.404 -7.974,6.802 -10.19,0 Z m -11.64,-5.406 -3.065,-8.857 h -6.434 l 12.01,34.783 h 8.154 L 11.552,-14.263 H 4.671 L 1.47,-5.406 Z"/></g><g transform="translate(26.2488,43.1836)" id="g30"><path id="path32" style="fill:#000000;fill-opacity:1;fill-rule:nonzero;stroke:none" d="M 0,0 H 4.726 C 3.809,4.938 5.004,6.962 9.119,6.962 h 18.074 v 4.982 H 9.008 C 1.881,11.944 -1.63,7.768 0,0"/></g><path id="path34" style="fill:#000000;fill-opacity:1;fill-rule:nonzero;stroke:none" d="m 48.161,2.834 h 5.28 v 33.089 h -5.28 z"/><path id="path36" style="fill:#000000;fill-opacity:1;fill-rule:nonzero;stroke:none" d="m 37.348,2.834 h 5.28 v 33.089 h -5.28 z"/><path id="path38" style="fill:#000000;fill-opacity:1;fill-rule:nonzero;stroke:none" d="M 53.442,45.751 H 37.044 v -5.037 h 16.398 z"/><g transform="translate(24.9439,7.686)" id="g40"><path id="path42" style="fill:#000000;fill-opacity:1;fill-rule:nonzero;stroke:none" d="m 0,0 c -5.273,0.193 -8.771,3.235 -8.681,7.662 0.081,3.985 2.812,7.306 6.799,7.306 2.406,0 4.657,-0.513 6.278,-2.457 v 5.244 c -1.731,1.401 -4.122,2.003 -6.183,2.003 -6.182,0 -11.649,-4.806 -11.649,-11.669 0,-3.095 1.446,-5.883 3.058,-7.665 -4.462,2.216 -7.149,6.165 -7.149,12.187 0,6.983 5.683,12.311 12.665,12.311 1.188,0 2.29,-0.102 3.494,-0.423 v 5.241 c -0.927,0.211 -2.291,0.315 -3.292,0.315 -9.622,0 -17.449,-7.827 -17.449,-17.448 0,-10.852 8.011,-17.445 17.104,-17.445 L 6.857,-4.852 v 4.804 c 0,0 -4.033,0.025 -6.86,0.045 z"/></g><g transform="translate(3.2128,65.1967)" id="g44"><path id="path46" style="fill:#000000;fill-opacity:1;fill-rule:nonzero;stroke:none" d="m 0,0 -0.001,-29.954 c 1.367,1.459 2.675,2.646 4.504,3.663 V -4.535 H 50.229 V 0 Z"/></g><g transform="translate(161.9833,50.5791)" id="g48"><path id="path50" style="fill:#000000;fill-opacity:1;fill-rule:nonzero;stroke:none" d="m 0,0 v -8.867 c 0,-3.364 1.826,-4.288 3.66,-4.288 2.139,0 3.621,1.013 3.621,4.288 V 0 h 2.202 v -8.755 c 0,-4.838 -2.707,-6.196 -5.866,-6.196 -3.126,0 -5.831,1.458 -5.831,6.073 l 0,8.878 z"/></g><g transform="translate(174.4539,43.911)" id="g52"><path id="path54" style="fill:#000000;fill-opacity:1;fill-rule:nonzero;stroke:none" d="m 0,0 c 0,0.935 0,1.896 -0.021,2.726 h 2.027 c 0.052,-0.311 0.082,-1.373 0.081,-1.7 0.419,0.881 1.3,1.955 3.354,1.955 2.056,0 3.609,-1.284 3.609,-4.131 V -8.094 H 6.964 v 6.687 c 0,1.554 -0.594,2.613 -2.182,2.613 -1.892,0 -2.695,-1.39 -2.695,-3.513 v -5.787 l -2.087,0 z"/></g><path id="path56" style="fill:#000000;fill-opacity:1;fill-rule:nonzero;stroke:none" d="m 186.585,46.637 h 2.087 v -10.82 h -2.087 z m 0,4.767 h 2.087 v -2.4 h -2.087 z"/><g transform="translate(192.7785,46.6374)" id="g58"><path id="path60" style="fill:#000000;fill-opacity:1;fill-rule:nonzero;stroke:none" d="M 0,0 C 1.374,-4.278 2.399,-7.565 2.707,-8.906 H 2.728 C 3.001,-7.588 4.133,-4.344 5.625,0 H 7.736 L 3.787,-10.82 H 1.517 L -2.238,0 Z"/></g><g transform="translate(209.0102,42.2475)" id="g62"><path id="path64" style="fill:#000000;fill-opacity:1;fill-rule:nonzero;stroke:none" d="M 0,0 C -0.021,1.679 -0.84,3.037 -2.614,3.037 -4.427,3.037 -5.213,1.778 -5.389,0 Z m -5.453,-1.418 c 0.012,-2.037 1.036,-3.554 2.806,-3.554 1.621,0 2.137,0.808 2.471,1.573 H 1.922 C 1.505,-4.773 0.34,-6.685 -2.709,-6.685 c -3.434,0 -4.852,2.745 -4.852,5.541 0,3.252 1.645,5.789 4.97,5.789 3.534,0 4.701,-2.779 4.701,-5.163 0,-0.336 0,-0.605 -0.031,-0.9 z"/></g><g transform="translate(213.465,43.6985)" id="g66"><path id="path68" style="fill:#000000;fill-opacity:1;fill-rule:nonzero;stroke:none" d="M 0,0 C 0,1.428 -0.012,2.299 -0.021,2.939 H 2.025 C 2.055,2.647 2.087,1.755 2.087,0.79 2.635,2.21 3.899,3.148 5.698,3.194 V 1.138 C 3.487,1.096 2.087,0.048 2.087,-2.732 V -7.881 H 0 Z"/></g><g transform="translate(222.3265,38.9434)" id="g70"><path id="path72" style="fill:#000000;fill-opacity:1;fill-rule:nonzero;stroke:none" d="m 0,0 c 0.294,-1.121 1.136,-1.776 2.535,-1.776 1.496,0 2.078,0.63 2.078,1.55 0,0.951 -0.491,1.381 -2.456,1.859 -3.177,0.775 -3.809,1.748 -3.809,3.228 0,1.544 1.125,3.088 4,3.088 2.885,0 4.022,-1.65 4.154,-3.149 H 4.492 C 4.349,5.441 3.87,6.372 2.257,6.372 0.843,6.372 0.418,5.7 0.418,5.033 0.418,4.278 0.841,3.905 2.781,3.443 6.125,2.653 6.753,1.53 6.753,-0.074 6.753,-1.95 5.277,-3.381 2.465,-3.381 -0.431,-3.381 -1.8,-1.932 -2.069,0 Z"/></g><path id="path74" style="fill:#000000;fill-opacity:1;fill-rule:nonzero;stroke:none" d="m 231.398,46.637 h 2.087 v -10.82 h -2.087 z m 0,4.767 h 2.087 v -2.4 h -2.087 z"/><g transform="translate(235.345,46.6374)" id="g76"><path id="path78" style="fill:#000000;fill-opacity:1;fill-rule:nonzero;stroke:none" d="M 0,0 H 1.832 V 3.142 H 3.919 V 0 H 6.255 V -1.666 H 3.919 V -7.81 c 0,-1.007 0.255,-1.503 1.217,-1.503 0.242,0 0.611,0.011 0.893,0.079 v -1.534 c -0.487,-0.178 -1.162,-0.201 -1.695,-0.201 -1.766,0 -2.502,0.922 -2.502,2.738 v 6.565 l -1.832,0 z"/></g><g transform="translate(250.2705,42.2475)" id="g80"><path id="path82" style="fill:#000000;fill-opacity:1;fill-rule:nonzero;stroke:none" d="M 0,0 C -0.021,1.679 -0.841,3.037 -2.615,3.037 -4.427,3.037 -5.213,1.778 -5.39,0 Z m -5.453,-1.418 c 0.011,-2.037 1.036,-3.554 2.806,-3.554 1.621,0 2.137,0.808 2.471,1.573 H 1.922 C 1.504,-4.773 0.34,-6.685 -2.709,-6.685 c -3.434,0 -4.852,2.745 -4.852,5.541 0,3.252 1.644,5.789 4.969,5.789 3.534,0 4.701,-2.779 4.701,-5.163 0,-0.336 0,-0.605 -0.03,-0.9 z"/></g><g transform="translate(253.4653,46.6374)" id="g84"><path id="path86" style="fill:#000000;fill-opacity:1;fill-rule:nonzero;stroke:none" d="M 0,0 H 1.832 V 3.142 H 3.919 V 0 H 6.254 V -1.666 H 3.919 V -7.81 c 0,-1.007 0.255,-1.503 1.217,-1.503 0.241,0 0.61,0.011 0.892,0.079 v -1.534 c -0.487,-0.178 -1.161,-0.201 -1.694,-0.201 -1.766,0 -2.502,0.922 -2.502,2.738 v 6.565 l -1.832,0 z"/></g><g transform="translate(268.3904,42.2475)" id="g88"><path id="path90" style="fill:#000000;fill-opacity:1;fill-rule:nonzero;stroke:none" d="M 0,0 C -0.021,1.679 -0.841,3.037 -2.615,3.037 -4.427,3.037 -5.213,1.778 -5.389,0 Z m -5.453,-1.418 c 0.011,-2.037 1.036,-3.554 2.806,-3.554 1.621,0 2.137,0.808 2.471,1.573 H 1.922 C 1.505,-4.773 0.34,-6.685 -2.709,-6.685 c -3.434,0 -4.852,2.745 -4.852,5.541 0,3.252 1.645,5.789 4.969,5.789 3.534,0 4.701,-2.779 4.701,-5.163 0,-0.336 0,-0.605 -0.03,-0.9 z"/></g><g transform="translate(271.5852,46.6374)" id="g92"><path id="path94" style="fill:#000000;fill-opacity:1;fill-rule:nonzero;stroke:none" d="M 0,0 H 1.832 V 3.142 H 3.919 V 0 H 6.254 V -1.666 H 3.919 V -7.81 c 0,-1.007 0.254,-1.503 1.217,-1.503 0.241,0 0.61,0.011 0.892,0.079 v -1.534 c -0.487,-0.178 -1.161,-0.201 -1.694,-0.201 -1.766,0 -2.502,0.922 -2.502,2.738 v 6.565 l -1.832,0 z"/></g><path id="path96" style="fill:#000000;fill-opacity:1;fill-rule:nonzero;stroke:none" d="m 160.403,26.566 h 2.086 V 15.745 h -2.086 z m 0,4.767 h 2.086 v -2.4 h -2.086 z"/><g transform="translate(177.8496,21.8364)" id="g98"><path id="path100" style="fill:#000000;fill-opacity:1;fill-rule:nonzero;stroke:none" d="M 0,0 C -1.339,3.735 -2.093,5.783 -2.419,6.946 H -2.44 C -2.802,5.656 -3.642,3.194 -4.721,0 Z m -5.26,-1.855 -1.505,-4.236 h -2.173 l 5.211,14.762 h 2.713 L 4.421,-6.091 H 2.095 l -1.558,4.236 z"/></g><g transform="translate(185.7636,21.2276)" id="g102"><path id="path104" style="fill:#000000;fill-opacity:1;fill-rule:nonzero;stroke:none" d="m 0,0 c 0,-2.201 1.136,-3.662 2.819,-3.662 2.232,0 2.875,1.504 2.875,3.793 0,2.313 -0.579,3.72 -2.811,3.72 C 1.018,3.851 0,2.307 0,0 m 7.669,-4.44 c 0,-3.469 -1.403,-5.486 -5.045,-5.486 -3.41,0 -4.374,1.909 -4.552,3.331 h 2.127 c 0.295,-1.099 1.169,-1.704 2.516,-1.704 2.357,0 2.919,1.486 2.919,3.905 v 0.806 c -0.573,-1.16 -1.547,-1.826 -3.317,-1.826 -2.7,0 -4.477,2.203 -4.477,5.323 0,3.503 2.05,5.685 4.684,5.685 2.022,0 2.881,-0.953 3.11,-1.629 0.022,0.452 0.072,1.158 0.093,1.374 H 7.702 C 7.692,4.647 7.669,3.258 7.669,2.218 Z"/></g><g transform="translate(197.9818,21.1101)" id="g106"><path id="path108" style="fill:#000000;fill-opacity:1;fill-rule:nonzero;stroke:none" d="m 0,0 c 0,-2.516 1.161,-3.876 2.815,-3.876 2.439,0 2.934,1.837 2.934,4.051 0,2.298 -0.456,3.793 -2.8,3.793 C 1.106,3.968 0,2.512 0,0 M 7.754,10.223 V -2.323 c 0,-1.01 0,-2.007 0.021,-3.041 H 5.77 C 5.718,-5.07 5.677,-4.294 5.667,-3.907 5.136,-4.981 4.071,-5.619 2.328,-5.619 c -2.772,0 -4.488,2.243 -4.488,5.557 0,3.331 1.845,5.773 4.852,5.773 1.845,0 2.695,-0.73 2.975,-1.314 v 5.826 z"/></g><g transform="translate(215.6342,22.1763)" id="g110"><path id="path112" style="fill:#000000;fill-opacity:1;fill-rule:nonzero;stroke:none" d="M 0,0 C -0.021,1.679 -0.84,3.037 -2.615,3.037 -4.427,3.037 -5.213,1.778 -5.389,0 Z m -5.453,-1.418 c 0.012,-2.037 1.036,-3.554 2.806,-3.554 1.621,0 2.137,0.808 2.471,1.573 h 2.098 c -0.417,-1.373 -1.583,-3.286 -4.631,-3.286 -3.434,0 -4.852,2.745 -4.852,5.541 0,3.252 1.645,5.789 4.97,5.789 3.534,0 4.7,-2.779 4.7,-5.163 0,-0.336 0,-0.605 -0.03,-0.9 z"/></g><g transform="translate(220.0886,23.6274)" id="g114"><path id="path116" style="fill:#000000;fill-opacity:1;fill-rule:nonzero;stroke:none" d="M 0,0 C 0,1.428 -0.011,2.299 -0.021,2.939 H 2.025 C 2.056,2.647 2.087,1.755 2.087,0.79 2.636,2.21 3.899,3.147 5.698,3.194 V 1.138 C 3.488,1.096 2.087,0.048 2.087,-2.732 v -5.15 l -2.087,0 z"/></g></g></g><g id="g118"><g clip-path="url(#clipPath124)" id="g120"><g transform="translate(83.3516,50.2378)" id="g126"><path id="path128" style="fill:#000000;fill-opacity:1;fill-rule:nonzero;stroke:none" d="m 0,0 v -19.923 c 0,-6.902 3.64,-8.877 7.465,-8.877 4.422,0 7.33,2.259 7.33,8.877 V 0 h 6.265 v -19.61 c 0,-11.194 -6.434,-14.166 -13.692,-14.166 -7.325,0 -13.647,3.141 -13.647,13.969 l 0,19.807 z"/></g><path id="path130" style="fill:#000000;fill-opacity:1;fill-rule:nonzero;stroke:none" d="m 110.793,39.782 h 5.99 V 16.914 h -5.99 z m 0,10.474 h 5.99 V 44.4 h -5.99 z"/><g transform="translate(141.3118,30.5786)" id="g132"><path id="path134" style="fill:#000000;fill-opacity:1;fill-rule:nonzero;stroke:none" d="M 0,0 C -2.643,7.624 -4.233,12.172 -5.009,15.011 H -5.057 C -5.877,11.883 -7.639,6.516 -9.763,0 Z m -11.152,-5.179 -2.937,-8.485 h -6.163 l 11.506,33.323 h 7.812 L 11.068,-13.664 H 4.475 l -3.067,8.485 z"/></g></g></g><g id="g136"><g clip-path="url(#clipPath142)" id="g138"><g transform="translate(32.078,43.2072)" id="g144"><path id="path146" style="fill:#000000;fill-opacity:1;fill-rule:nonzero;stroke:none" d="M 0,0 H 4.528 C 3.649,4.731 4.795,6.67 8.737,6.67 h 17.315 v 4.773 H 8.63 C 1.802,11.443 -1.561,7.442 0,0"/></g><path id="path148" style="fill:#000000;fill-opacity:1;fill-rule:nonzero;stroke:none" d="M 53.071,4.551 H 58.13 V 36.252 H 53.071 Z"/><path id="path150" style="fill:#000000;fill-opacity:1;fill-rule:nonzero;stroke:none" d="M 42.711,4.551 H 47.77 V 36.252 H 42.711 Z"/><path id="path152" style="fill:#000000;fill-opacity:1;fill-rule:nonzero;stroke:none" d="M 58.13,45.667 H 42.42 v -4.825 h 15.71 z"/><g transform="translate(30.8278,9.1988)" id="g154"><path id="path156" style="fill:#000000;fill-opacity:1;fill-rule:nonzero;stroke:none" d="m 0,0 c -5.051,0.185 -8.403,3.1 -8.317,7.341 0.078,3.818 2.694,6.999 6.514,6.999 2.305,0 4.462,-0.491 6.015,-2.353 v 5.023 c -1.659,1.343 -3.949,1.919 -5.924,1.919 -5.923,0 -11.161,-4.604 -11.161,-11.179 0,-2.966 1.386,-5.637 2.93,-7.344 -4.275,2.123 -6.849,5.907 -6.849,11.676 0,6.69 5.445,11.795 12.134,11.795 1.138,0 2.194,-0.098 3.347,-0.406 v 5.022 c -0.888,0.201 -2.194,0.301 -3.154,0.301 -9.218,0 -16.717,-7.498 -16.717,-16.716 0,-10.397 7.676,-16.713 16.387,-16.713 L 6.569,-4.648 v 4.602 c 0,0 -3.864,0.024 -6.572,0.043 z"/></g></g></g><g id="g158"><g clip-path="url(#clipPath164)" id="g160"><g transform="translate(10.0083,64.2968)" id="g166"><path id="path168" style="fill:#000000;fill-opacity:1;fill-rule:nonzero;stroke:none" d="m 0,0 -0.001,-28.697 c 1.31,1.398 2.563,2.535 4.315,3.509 L 4.315,-4.345 H 48.122 V 0 Z"/></g><g transform="translate(162.118,50.2924)" id="g170"><path id="path172" style="fill:#000000;fill-opacity:1;fill-rule:nonzero;stroke:none" d="m 0,0 v -8.495 c 0,-3.223 1.749,-4.108 3.506,-4.108 2.05,0 3.469,0.97 3.469,4.108 V 0 h 2.111 v -8.388 c 0,-4.635 -2.594,-5.936 -5.62,-5.936 -2.996,0 -5.587,1.398 -5.587,5.818 l 0,8.506 z"/></g><g transform="translate(174.0654,43.9041)" id="g174"><path id="path176" style="fill:#000000;fill-opacity:1;fill-rule:nonzero;stroke:none" d="M 0,0 C 0,0.896 0,1.816 -0.021,2.612 H 1.922 C 1.971,2.314 2.001,1.296 1.999,0.983 2.401,1.827 3.245,2.856 5.213,2.856 7.182,2.856 8.67,1.625 8.67,-1.101 V -7.754 H 6.672 v 6.406 c 0,1.489 -0.569,2.503 -2.09,2.503 -1.813,0 -2.583,-1.331 -2.583,-3.365 V -7.754 H 0 Z"/></g><path id="path178" style="fill:#000000;fill-opacity:1;fill-rule:nonzero;stroke:none" d="m 185.688,46.516 h 1.999 V 36.15 h -1.999 z m 0,4.567 h 1.999 v -2.299 h -1.999 z"/><g transform="translate(191.6213,46.5161)" id="g180"><path id="path182" style="fill:#000000;fill-opacity:1;fill-rule:nonzero;stroke:none" d="M 0,0 C 1.316,-4.099 2.299,-7.247 2.593,-8.532 H 2.614 C 2.875,-7.27 3.96,-4.162 5.389,0 H 7.412 L 3.628,-10.366 H 1.453 L -2.144,0 Z"/></g><g transform="translate(207.172,42.3103)" id="g184"><path id="path186" style="fill:#000000;fill-opacity:1;fill-rule:nonzero;stroke:none" d="M 0,0 C -0.02,1.609 -0.805,2.91 -2.505,2.91 -4.241,2.91 -4.994,1.703 -5.163,0 Z m -5.224,-1.359 c 0.011,-1.951 0.992,-3.404 2.688,-3.404 1.553,0 2.047,0.774 2.368,1.507 h 2.01 c -0.4,-1.316 -1.516,-3.149 -4.437,-3.149 -3.29,0 -4.648,2.631 -4.648,5.309 0,3.115 1.575,5.546 4.76,5.546 3.386,0 4.504,-2.662 4.504,-4.946 0,-0.322 0,-0.58 -0.029,-0.863 z"/></g><g transform="translate(211.4399,43.7005)" id="g188"><path id="path190" style="fill:#000000;fill-opacity:1;fill-rule:nonzero;stroke:none" d="M 0,0 C 0,1.368 -0.011,2.203 -0.021,2.816 H 1.94 C 1.969,2.536 1.999,1.681 1.999,0.757 2.525,2.118 3.736,3.016 5.459,3.06 V 1.09 C 3.341,1.05 1.999,0.046 1.999,-2.617 V -7.551 H 0 Z"/></g><g transform="translate(219.9296,39.1449)" id="g192"><path id="path194" style="fill:#000000;fill-opacity:1;fill-rule:nonzero;stroke:none" d="m 0,0 c 0.281,-1.074 1.089,-1.701 2.429,-1.701 1.433,0 1.99,0.603 1.99,1.484 0,0.911 -0.47,1.324 -2.353,1.781 -3.043,0.743 -3.648,1.676 -3.648,3.094 0,1.479 1.077,2.957 3.831,2.957 2.764,0 3.854,-1.58 3.98,-3.017 H 4.304 C 4.167,5.213 3.708,6.105 2.162,6.105 0.807,6.105 0.4,5.461 0.4,4.822 0.4,4.098 0.806,3.741 2.664,3.299 5.868,2.542 6.47,1.466 6.47,-0.07 c 0,-1.798 -1.415,-3.17 -4.108,-3.17 -2.775,0 -4.087,1.389 -4.344,3.24 z"/></g><path id="path196" style="fill:#000000;fill-opacity:1;fill-rule:nonzero;stroke:none" d="m 228.62,46.516 h 1.999 V 36.15 h -1.999 z m 0,4.567 h 1.999 v -2.299 h -1.999 z"/><g transform="translate(232.402,46.5161)" id="g198"><path id="path200" style="fill:#000000;fill-opacity:1;fill-rule:nonzero;stroke:none" d="M 0,0 H 1.755 V 3.01 H 3.754 V 0 H 5.992 V -1.596 H 3.754 v -5.886 c 0,-0.965 0.245,-1.441 1.167,-1.441 0.231,0 0.585,0.011 0.855,0.076 v -1.469 c -0.467,-0.171 -1.113,-0.193 -1.624,-0.193 -1.692,0 -2.397,0.883 -2.397,2.623 v 6.29 l -1.755,0 z"/></g><g transform="translate(246.7013,42.3103)" id="g202"><path id="path204" style="fill:#000000;fill-opacity:1;fill-rule:nonzero;stroke:none" d="M 0,0 C -0.021,1.609 -0.806,2.91 -2.505,2.91 -4.241,2.91 -4.995,1.703 -5.163,0 Z m -5.225,-1.359 c 0.012,-1.951 0.993,-3.404 2.689,-3.404 1.553,0 2.047,0.774 2.367,1.507 h 2.01 c -0.4,-1.316 -1.515,-3.149 -4.437,-3.149 -3.289,0 -4.648,2.631 -4.648,5.309 0,3.115 1.575,5.546 4.761,5.546 3.386,0 4.504,-2.662 4.504,-4.946 0,-0.322 0,-0.58 -0.03,-0.863 z"/></g><g transform="translate(249.7621,46.5161)" id="g206"><path id="path208" style="fill:#000000;fill-opacity:1;fill-rule:nonzero;stroke:none" d="M 0,0 H 1.755 V 3.01 H 3.754 V 0 H 5.992 V -1.596 H 3.754 v -5.886 c 0,-0.965 0.244,-1.441 1.166,-1.441 0.232,0 0.585,0.011 0.855,0.076 v -1.469 c -0.466,-0.171 -1.112,-0.193 -1.623,-0.193 -1.692,0 -2.397,0.883 -2.397,2.623 v 6.29 l -1.755,0 z"/></g></g></g><g id="g210"><g clip-path="url(#clipPath216)" id="g212"><g transform="translate(264.0611,42.3103)" id="g218"><path id="path220" style="fill:#000000;fill-opacity:1;fill-rule:nonzero;stroke:none" d="M 0,0 C -0.021,1.609 -0.806,2.91 -2.505,2.91 -4.241,2.91 -4.995,1.703 -5.163,0 Z m -5.224,-1.359 c 0.011,-1.951 0.992,-3.404 2.688,-3.404 1.553,0 2.047,0.774 2.367,1.507 h 2.011 c -0.4,-1.316 -1.516,-3.149 -4.438,-3.149 -3.289,0 -4.648,2.631 -4.648,5.309 0,3.115 1.576,5.546 4.761,5.546 3.386,0 4.504,-2.662 4.504,-4.946 0,-0.322 0,-0.58 -0.03,-0.863 z"/></g><g transform="translate(267.1219,46.5161)" id="g222"><path id="path224" style="fill:#000000;fill-opacity:1;fill-rule:nonzero;stroke:none" d="M 0,0 H 1.755 V 3.01 H 3.754 V 0 H 5.992 V -1.596 H 3.754 v -5.886 c 0,-0.965 0.244,-1.441 1.166,-1.441 0.232,0 0.585,0.011 0.855,0.076 v -1.469 c -0.466,-0.171 -1.112,-0.193 -1.623,-0.193 -1.692,0 -2.397,0.883 -2.397,2.623 v 6.29 l -1.755,0 z"/></g></g></g><g id="g226"><g clip-path="url(#clipPath232)" id="g228"><path id="path234" style="fill:#000000;fill-opacity:1;fill-rule:nonzero;stroke:none" d="m 160.604,27.287 h 1.999 V 16.92 h -1.999 z m 0,4.567 h 1.999 v -2.299 h -1.999 z"/><g transform="translate(177.3187,22.7555)" id="g236"><path id="path238" style="fill:#000000;fill-opacity:1;fill-rule:nonzero;stroke:none" d="m 0,0 c -1.283,3.578 -2.005,5.54 -2.318,6.655 h -0.02 C -2.684,5.419 -3.489,3.06 -4.523,0 Z m -5.039,-1.777 -1.442,-4.058 h -2.082 l 4.992,14.143 h 2.599 L 4.235,-5.835 H 2.007 l -1.493,4.058 z"/></g><g transform="translate(184.9007,22.1723)" id="g240"><path id="path242" style="fill:#000000;fill-opacity:1;fill-rule:nonzero;stroke:none" d="m 0,0 c 0,-2.108 1.088,-3.508 2.701,-3.508 2.138,0 2.754,1.44 2.754,3.634 C 5.455,2.342 4.9,3.689 2.762,3.689 0.975,3.689 0,2.211 0,0 m 7.347,-4.254 c 0,-3.323 -1.344,-5.255 -4.833,-5.255 -3.267,0 -4.191,1.828 -4.362,3.191 H 0.19 c 0.283,-1.053 1.121,-1.633 2.411,-1.633 2.258,0 2.797,1.424 2.797,3.741 v 0.772 C 4.848,-4.549 3.915,-5.187 2.22,-5.187 c -2.587,0 -4.29,2.11 -4.29,5.1 0,3.356 1.965,5.446 4.488,5.446 1.938,0 2.76,-0.913 2.98,-1.56 0.021,0.433 0.068,1.109 0.089,1.316 H 7.379 C 7.369,4.452 7.347,3.121 7.347,2.125 Z"/></g><g transform="translate(196.6063,22.0597)" id="g244"><path id="path246" style="fill:#000000;fill-opacity:1;fill-rule:nonzero;stroke:none" d="m 0,0 c 0,-2.411 1.112,-3.714 2.697,-3.714 2.336,0 2.81,1.761 2.81,3.882 0,2.201 -0.436,3.634 -2.682,3.634 C 1.059,3.802 0,2.406 0,0 M 7.429,9.794 V -2.225 c 0,-0.969 0,-1.924 0.02,-2.914 H 5.528 c -0.05,0.281 -0.089,1.025 -0.098,1.396 -0.509,-1.029 -1.529,-1.64 -3.199,-1.64 -2.656,0 -4.301,2.149 -4.301,5.323 0,3.192 1.768,5.532 4.649,5.532 1.768,0 2.582,-0.7 2.851,-1.26 v 5.582 z"/></g><g transform="translate(213.5181,23.0811)" id="g248"><path id="path250" style="fill:#000000;fill-opacity:1;fill-rule:nonzero;stroke:none" d="M 0,0 C -0.021,1.609 -0.805,2.91 -2.505,2.91 -4.241,2.91 -4.995,1.703 -5.163,0 Z m -5.224,-1.359 c 0.011,-1.951 0.992,-3.404 2.688,-3.404 1.553,0 2.047,0.774 2.367,1.507 h 2.01 c -0.399,-1.316 -1.516,-3.149 -4.437,-3.149 -3.289,0 -4.648,2.63 -4.648,5.309 0,3.116 1.576,5.546 4.761,5.546 3.386,0 4.504,-2.662 4.504,-4.946 0,-0.322 0,-0.579 -0.029,-0.863 z"/></g><g transform="translate(217.7856,24.4714)" id="g252"><path id="path254" style="fill:#000000;fill-opacity:1;fill-rule:nonzero;stroke:none" d="M 0,0 C 0,1.368 -0.011,2.203 -0.02,2.816 H 1.94 C 1.97,2.536 1.999,1.681 1.999,0.757 2.525,2.117 3.736,3.015 5.459,3.06 V 1.091 C 3.342,1.05 1.999,0.046 1.999,-2.618 V -7.551 H 0 Z"/></g></g></g></g></svg>