<svg height="90.708664" viewBox="0 0 270.784 90.708664" width="270.784" xmlns="http://www.w3.org/2000/svg" xmlns:xlink="http://www.w3.org/1999/xlink"><clipPath id="a"><path d="m2.837 2.835h62.36v62.362h-62.36z"/></clipPath><clipPath id="b"><path d="m2.836 2.835h62.362v62.362h-62.362z"/></clipPath><clipPath id="c"><path d="m0 0h203.088v68.031h-203.088z"/></clipPath><g transform="matrix(1.3333333 0 0 -1.3333333 0 90.708667)"><g clip-path="url(#a)"><path d="m0 0c0-8.483 3.438-16.16 8.997-21.719 5.559-5.56 13.236-8.997 21.718-8.997 8.484.001 16.162 3.437 21.722 8.997 5.559 5.559 8.996 13.236 8.996 21.719 0 8.482-3.437 16.161-8.996 21.721-5.56 5.559-13.239 8.998-21.722 8.998-9.541 0-18.066-4.352-23.701-11.18-4.382-5.312-7.014-12.117-7.014-19.539m-.463 0c-.001 7.532 2.672 14.444 7.12 19.834 5.718 6.93 14.374 11.348 24.058 11.348 17.223 0 31.182-13.963 31.182-31.182s-13.959-31.18-31.182-31.18c-17.218 0-31.178 13.961-31.178 31.18" transform="translate(3.2995 34.0148)"/></g><g clip-path="url(#b)"><path d="m0 0c.005.407.339.733.746.728.408-.004.735-.338.73-.746s-.339-.734-.747-.73c-.407.006-.733.34-.729.748" transform="translate(9.6871 21.3663)"/><path d="m0 0c.005.407.339.733.746.728.408-.004.734-.338.729-.746-.004-.407-.339-.734-.746-.729-.407.006-.734.339-.729.747" transform="translate(56.6155 20.9259)"/><path d="m0 0c-1.143-2.693-2.772-5.111-4.85-7.191-2.078-2.075-4.496-3.707-7.19-4.848-1.06-.449-2.145-.812-3.25-1.091l-.026.45c0 .271-.307.407-.475.407l-.973-.015s-.299.073-.336.085c-.036.01-.027.049-.021.056.068.083.072.202.005.29l-.742.967.024.689c2.182.053 3.788.881 4.538 1.428.737.545.784 1.379.785 1.626 0 .036-.001.06-.001.071l-.022 1.933c.007.004.014.005.021.008v.001l2.067 1.161c.08.044.125.131.118.222l-1.358 15.127c.059.019.252.086.468.167.264.101.543.209.708.317.148.104.771.628.921.784.132.14.181.319.18.479-.003.249-.099.47-.195.645-.086.148-.203.269-.331.373.285.635.43 1.339.43 2.066 0 1.269-.304 2.267-.596 3.212-.294.946-.575 1.838-.575 2.936 0 2.039.021 3.25.021 3.252.001.062-.023.122-.066.167-.043.044-.103.069-.166.069-.684.003-1.109-.224-1.342-.476-.11-.118-.176-.235-.217-.33h-4.183c-.041.105-.109.24-.222.377-.226.28-.651.549-1.314.546-.062 0-.121-.025-.165-.069s-.068-.103-.067-.166c0-.003.013-1.537.012-3.689.001-.169-.007-.336-.021-.502-.086.136-.178.27-.276.399-.259.332-.531.624-.867.734-.303.093-.751.233-1.277.393-.193.061-.273.149-.328.246-.031.058-.049.122-.058.182l.256-.005h.013c.231.008.428.038.596.108.166.067.318.191.374.376.029.095.038.186.038.266 0 .092-.011.171-.023.229l.11.193c.036.063.04.138.013.202.051.047.078.115.073.185l-.016.238c.012.002.023.004.035.006.07.013.144.03.22.064.038.018.079.04.122.083.042.041.088.118.088.208-.001.063-.014.211-.034.444-.05.571-.141 1.539-.169 1.84.094.128.257.388.264.728.001.219-.063.477-.263.679-.194.197-.496.312-.902.317-.179.048-1.115.296-1.386.337-.201.028-.47.075-.788.075-.541.002-1.225-.144-1.968-.719-.96-.756-1.039-2.11-1.045-2.712 0-.116.004-.206.007-.259-.032-.097-.081-.296-.081-.615 0-.174.015-.384.055-.632.093-.602.465-.965.794-1.152.166-.096.323-.153.44-.187v-.441c-.182-.092-1.339-.6-2.451-1.366-.023-.022-.115-.074-.201-.172-.002-.002-.005-.003-.007-.005l-12.5-12.64c-.044-.044-.069-.106-.067-.169.001-.063.029-.123.075-.165.003-.002.862-.784 1.815-1.657.238-.217.482-.439.719-.658l-2.291-3.143c-.194-.246-.317-.602-.317-1.076.003-.959.478-2.416 1.934-4.684 1.661-2.581 2.933-3.772 3.402-4.163l-.605-.695c-.02-.021-.214-.227-.414-.491-.105-.138-.211-.291-.295-.447-.02-.039-.039-.076-.057-.115-.41.355-.809.725-1.196 1.112-2.076 2.079-3.706 4.497-4.844 7.19-1.182 2.785-1.78 5.749-1.78 8.808 0 3.051.598 6.013 1.78 8.8 1.138 2.699 2.768 5.116 4.844 7.195 2.082 2.076 4.497 3.707 7.193 4.848 2.79 1.177 5.749 1.773 8.808 1.774 3.052-.001 6.014-.597 8.804-1.774 2.694-1.141 5.112-2.772 7.19-4.848 2.079-2.079 3.707-4.496 4.85-7.194 1.177-2.788 1.774-5.75 1.774-8.801 0-3.059-.597-6.023-1.774-8.808m-20.945-13.814c1.325.228 2.496.662 3.353 1.28l.728-.21c.026-.007.054-.01.082-.01 0 0 .678.038.734.042.193.012.279-.102.281-.143.001-.04.006-.091.006-.091s.008-.12-.071-.198c-.072-.072-.595-.217-.786-.277-1.383-.262-2.795-.395-4.226-.395-.034 0-.068.002-.101.002m-13.324 6.154c.084-.002.177-.003.281-.004 1.841.001 6.745.424 10.318 4.635 2.941 3.491 3.678 10.154 3.793 11.319l.921.066c-.032-.477-.114-1.607-.257-3.135-.192-2.049-.494-4.806-.931-7.641-.439-2.836-.966-5.646-1.384-7.747-.309-1.554-.558-2.716-.666-3.218-.01-.044-.067-.128-.175-.128-.255 0-.513-.023-.773-.023-.846 0-1.719.08-2.581.246-.451.1-.9.211-1.344.339-3.196 1.007-5.051 2.431-6.109 3.583-.53.579-.86 1.092-1.057 1.459-.032.059-.06.113-.085.163-.027.055.003.088.049.086m.112.539c.058.066 6.308 7.242 6.308 7.242.023.026.04.058.049.091 0 0 1.849 6.824 1.862 6.872.012.049.061.061.061.061s3.278.897 3.404.934c.127.036.308.051.308.051l1.82.128c-.021-.212-.059-.554-.119-.992-.31-2.307-1.254-7.284-3.56-9.995-3.434-4.057-8.185-4.472-9.964-4.471-.039 0-.077 0-.113.001-.068 0-.115.011-.056.078m18.355 30.595v-1.81c-.156-.086-.276-.162-.341-.201-.21-.133-.492-.386-.546-.433l-.001-.002c.081.618.139 1.398.147 2.446zm1.053 0v-1.383c-.203-.044-.404-.115-.59-.195v1.578zm1.018 0v-1.424c-.167.062-.354.083-.554.085v1.339zm.885-2.983c-.027.083-.079.207-.238.26-.041.012-.085.023-.126.033-.001.146-.003.349-.003.508.003.112-.017.219-.054.316v1.866h.727c.013-1.912.18-3.047.346-3.87.176-.858.338-1.352.338-2.038 0-.737-.284-1.44-.751-1.953-.192-.212-.415-.39-.66-.528v4.511c.016.002.034.004.048.005.023.002.043.005.058.006.014.001.019.001.019.001.087 0 .148.042.179.072.099.11.097.174.123.265.018.086.028.183.028.281 0 .088-.007.175-.034.265m-1.439-5.71v4.657c.213.052.399.099.468.117h.086v-4.671c-.177-.055-.362-.09-.554-.103m-1.054.118v4.342c.042.003.082.004.113.004.096.002.193.024.34.053.043.01.089.02.137.031v-4.539c-.202.018-.399.055-.59.109m-1.937 2.094c.541.664 1.139 1.48 1.474 1.944v-3.869c-.232.107-.448.242-.637.403-.437.374-.744.879-.837 1.522m.09-8.486.169.034c.107.022.185.118.185.227l.008 3.008c.618-.25 1.339-.394 2.158-.394h.007c.526-.001 1.015.058 1.467.163l.216-18.634.001-.011s.001-.013.001-.047c.001-.191-.049-.858-.595-1.251-.678-.495-2.196-1.285-4.249-1.339zm-7.752 5.363c-.366.502-1.432 1.996-1.792 4.717.025-.029.05-.057.076-.084.386-.404.823-.673 1.084-.807 2.323-1.245 6.054-2.714 6.058-2.715.002 0 .005-.001.007-.002.033-.156.076-.308.126-.461l-3.501-.214s-.41-.018-.707-.103c-.358-.1-1.176-.333-1.231-.351-.069-.022-.108.003-.12.02m-1.425-5.854s1.508 5.212 1.529 5.282c.02.07.09.09.09.09s1.103.309 1.279.367c.176.056.465.078.465.078l3.793.232c.199-.444.47-.865.821-1.234.307-.325.674-.608 1.099-.838 0 0-.008-2.885-.008-2.94s-.026-.116-.148-.126-3.816-.268-4.736-.334c-.131-.008-.287-.031-.428-.07-.141-.04-3.357-.92-3.357-.92s-.11-.017-.165.025c-.055.044-.084.067-.183.145-.099.08-.051.243-.051.243m8.087-19.122s.601-.779.624-.814c.024-.035.005-.076-.011-.089-.911-.744-2.386-1.263-4.073-1.449.266 1.226 1.29 6.053 2.05 10.968.782 5.067 1.13 9.878 1.197 10.878 0 0 .609.041.716.051.106.01.12-.053.117-.117-.002-.066-.668-19.279-.668-19.279-.002-.054.015-.106.048-.149m7.466 7.532s.008-.067-.046-.098c-.055-.031-1.685-.946-1.685-.946l-.188 16.29c.184.061.362.131.532.208zm-.681 16.097c-.125.177-.166.296-.165.374 0 .027.004.052.012.08h.001c.018.043.157.193.281.298.125.109.237.194.238.195.065.039.107.145.102.207-.004.092-.028.124-.042.16-.016.034-.033.062-.045.088-.016.035-.026.112.044.181.079.08.19.048.213.037.085-.034.227-.099.363-.18.202-.117.406-.284.481-.423.076-.13.137-.301.135-.417-.001-.077-.032-.136-.07-.178-.075-.085-.756-.657-.826-.7-.073-.052-.365-.176-.612-.268-.072-.027-.142-.052-.204-.075-.085-.036-.098.021-.098.021s-.018.05.016.083c.039.031.078.068.116.109.041.053.101.104.11.249.001.049-.015.11-.05.159m-6.44 12.835c0 .102.036.119.053.116.353-.056.545-.209.669-.355.076-.092.122-.185.149-.253.013-.034.021-.062.026-.08.002-.009.004-.015.004-.019h.001c.019-.112.116-.193.229-.193h4.523c.115 0 .213.083.23.198.004.022.04.168.185.307.121.114.321.238.682.283.049.01.057-.038.057-.081 0-.479-.017-1.477-.017-2.926 0-1.18.305-2.131.596-3.073.293-.944.575-1.88.575-3.075 0-.639-.122-1.25-.358-1.803-.208.116-.382.187-.478.214-.033.009-.066.012-.097.012-.183-.008-.301-.089-.418-.17-.114-.092-.201-.157-.267-.3-.018-.048-.026-.097-.026-.142.003-.127.046-.214.08-.281-.048-.04-.105-.087-.163-.139-.075-.067-.154-.141-.222-.218-.068-.079-.129-.15-.168-.265-.022-.07-.034-.144-.034-.218.001-.142.04-.273.106-.403-.702-.407-1.582-.647-2.645-.648-1.547.001-2.655.532-3.391 1.304-.547.576-.887 1.293-1.024 2.036.228.193.629.546 1.138 1.056.086.087.181.19.28.302.164-.581.49-1.065.916-1.426.594-.505 1.373-.777 2.179-.802.014-.002.029-.004.044-.004.006 0 .012.001.018.002.019-.001.037-.003.056-.003 1.742.005 3.047 1.547 3.051 3.255-.001.768-.18 1.303-.347 2.13-.168.83-.338 1.981-.338 4.011 0 .06-.024.12-.068.163-.043.044-.102.068-.164.068h-4.466c-.061 0-.121-.024-.164-.068-.042-.043-.068-.103-.068-.163 0-1.453-.093-2.385-.213-3.081l-1.049-.797c.083.302.158.608.217.92.004.014.006.027.008.04.074.403.121.818.123 1.247 0 1.524-.006 2.741-.01 3.322m-7.265-3.536c.354.002.671-.102.855-.288.301-.302.626-.711.873-1.044s.414-.585.415-.586c.017-.026.038-.047.063-.064l2.779-1.871c.082-.057.191-.053.27.007l3.538 2.689.015.012s.078.071.181.157c.102.085.231.187.311.237.184.121.965.584 1.461.598.044.002.086.003.126.003.24.002.416-.04.504-.098.084-.061.122-.109.128-.282 0-.283.005-.701.005-.701.001-.112.082-.187.192-.206.088 0 .205-.025.205-.159 0-.154-.105-.177-.155-.183-.084-.01-.164-.02-.196-.025l-.219.001-.058-.007c-.001 0-.299-.078-.62-.155-.16-.038-.325-.077-.459-.105-.067-.013-.127-.026-.172-.033-.022-.004-.041-.007-.055-.008-.013-.002-.017-.002-.017-.002-.204-.001-.521-.036-.526-.037-.066-.007-.126-.042-.164-.096-.001-.001-.392-.557-.884-1.213-.49-.655-1.084-1.414-1.464-1.794-.395-.395-.723-.694-.951-.893-.071-.062-.133-.114-.183-.156-.026-.023-.089-.05-.155-.023-.34.139-1.065.429-1.937.803-1.218.52-2.723 1.196-3.865 1.807-.228.116-.63.365-.963.716-.037.037-.071.077-.105.117-.011.013-.022.026-.033.039-.025.031-.05.063-.074.095-.018.025-.036.051-.053.076-.015.022-.03.044-.044.066-.016.026-.032.052-.048.079-.006.011-.012.022-.018.033-.031.056-.059.114-.084.173-.004.009-.007.016-.011.025-.014.035-.027.069-.039.104v.001c0 .001 0 .001-.001.002-.021.062-.037.125-.051.191-.005.028-.011.055-.015.084-.004.021-.007.043-.009.064-.006.054-.01.107-.01.163 0 .037.002.074.004.11.003.031.006.063.011.094 0 .005 0 .01.001.015.011.075.026.151.048.228v.001.001c.013.046.028.094.045.143.001.003.002.004.003.007.016.044.035.091.055.136.003.007.006.014.008.02.02.042.041.086.064.13.005.009.01.019.015.029.028.052.059.105.093.16.21.352.815.619 1.37.613m2.269-.443c.041-.033.091-.049.143-.049h.015l2.699.183c.088.006.166.062.199.145.034.082.017.175-.042.241l-.485.544c.282-.087.525-.162.713-.219.145-.037.41-.27.634-.573.213-.277.408-.606.535-.871-.095-.479-.232-.951-.378-1.426l-1.196-.909-2.603 1.754c-.132.195-.737 1.077-1.32 1.662-.309.306-.746.425-1.183.425-.081 0-.162-.005-.243-.013.114.062.228.123.34.182.169.09.332.174.477.249zm2.688 3.849s.003-.073-.058-.107c-.062-.034-.104-.095-.115-.164-.011-.07.019-.136.056-.193.009-.014.011-.043-.005-.071-.015-.028-.045-.081-.045-.081-.033-.057-.04-.124-.019-.186l.002-.01c.008-.027.025-.103.024-.183 0-.045-.036-.174-.126-.214-.086-.037-.233-.066-.425-.072l-.489.009c-.113.003-.212-.078-.232-.189-.002-.011-.013-.074-.013-.169 0-.128.018-.317.122-.511.039-.075.093-.148.161-.216.001 0 .001-.002.002-.003l.825-.924-2.138-.146-1.455 1.139c.072.036.113.057.113.057.079.039.129.119.129.207v.673l.935.936c.057.058.08.143.06.221-.02.08-.081.142-.158.166-.043.029-.323.119-.332.691.003.094.026.106.047.128.007.006.015.012.022.015l.608.005c.071.001.139.035.183.091 0 0 .972 1.286 1.04 1.37.066.084.168.09.168.09l1.318.144s.067.004.077-.078c.012-.122.026-.269.04-.429.003-.068-.041-.093-.067-.094-.167-.005-.342-.01-.527-.017-.195-.007-.408-.096-.548-.215-.104-.087-.107-.25-.01-.343.053-.051.169-.069.295-.107.16-.048.338-.109.427-.081.113.037.156.137.164.247.008.122.082.206.206.206.052 0 .084-.043.088-.087.024-.231.066-.523.08-.689.007-.081.014-.157.019-.22.002-.083-.071-.089-.108-.093-.077-.01-.137-.012-.137-.013-.063-.002-.121-.03-.163-.077s-.062-.107-.058-.17zm-3.546 1.771c-.041.119-.167.183-.286.146.101.091.201.178.298.26l.996.13c.127.018.216.134.199.261-.016.127-.133.216-.26.2l-.152-.02c.312.183.631.331.893.44.178.073.33.128.436.166.107.036.166.053.166.054.123.036.193.165.157.288-.037.122-.166.192-.289.156-.007-.003-.395-.117-.895-.343.072.104.047.249-.057.322-.105.073-.249.048-.323-.056l-.533-.758c-.047-.031-.096-.063-.142-.095-.069-.049-.144-.105-.224-.168l.054.106c.059.113.014.254-.1.312s-.254.013-.312-.101l-.584-1.136c-.145-.134-.28-.261-.395-.37.018.606.182 1.673.862 2.182.669.512 1.223.621 1.685.623.272 0 .511-.042.723-.072.101-.013.457-.099.767-.178.313-.08.594-.154.594-.155l.061-.007c.342-.002.511-.09.602-.181.092-.092.128-.215.128-.352.002-.117-.049-.248-.106-.347-.02-.037-.04-.066-.058-.091l-1.731-.19c-.063-.007-.12-.039-.159-.089l-1.091-1.437-.533-.004-.048-.006c-.022-.005-.12-.027-.228-.117-.109-.087-.217-.261-.214-.484-.001-.433.147-.73.312-.902.017-.019.034-.036.051-.051l-.711-.712c-.11.029-.289.091-.458.209-.215.152-.411.375-.475.765-.036.226-.049.411-.049.559 0 .157.014.27.028.349.003.003.006.004.009.006 0 .001.104.103.267.259l.981.335c.121.042.186.174.144.294m-12.171-24.29c.13-.025.252-.037.366-.037.408-.002.706.155.888.314.182.158.258.313.267.332l.001.002v.002c.002.003.003.006.006.012l.013.031 7.057 16.503c.015-.11.047-.324.077-.426.11-1.854.535-3.152.983-4.149.258-.577.521-1.019.727-1.329.104-.155.193-.279.259-.368.022-.031.042-.058.058-.079l-1.645-5.685c-.026-.09.005-.188.078-.246l.392-.311s.049-.046.026-.132c-.023-.085-1.831-6.757-1.831-6.757l-5.739-6.59c-.425.352-1.671 1.505-3.317 4.064-1.435 2.227-1.863 3.632-1.86 4.433 0 .399.1.641.217.791.002.001.004.003.005.005l.006.008c.007.008.014.018.021.026.132.146.293.196.414.196.016 0 .03 0 .045-.003.638-.073 1.54-.419 2.486-.607m-3.092 6.298 11.475 11.604-6.879-16.151c-.103.269-.284.564-.586.855-.643.624-3.295 3.04-4.01 3.692m3.687-4.024c.473-.463.558-.865.56-1.136 0-.11-.016-.198-.03-.256-.008-.029-.015-.051-.02-.064-.001-.004-.002-.007-.003-.008-.021-.032-.206-.383-.736-.383-.082 0-.174.008-.277.029-.898.174-1.785.522-2.518.613-.012.001-.026 0-.039.002l1.762 2.416c.575-.529 1.073-.993 1.301-1.213m.192-13.69c-.034.029-.093.127-.064.202.013.03.03.064.049.098.1.186.262.402.397.565.24-.517.819-1.517 2.041-2.596-.844.523-1.652 1.1-2.423 1.731m35.597 26.497c-1.167 2.752-2.83 5.22-4.951 7.341-2.119 2.117-4.587 3.783-7.337 4.947-2.847 1.201-5.871 1.81-8.984 1.81-3.118 0-6.142-.609-8.99-1.81-2.749-1.164-5.216-2.831-7.338-4.947-2.119-2.121-3.783-4.589-4.944-7.342-1.206-2.844-1.817-5.869-1.817-8.981 0-3.12.611-6.146 1.817-8.989 1.161-2.747 2.825-5.218 4.943-7.337 2.123-2.119 4.59-3.785 7.339-4.948.862-.365 1.74-.674 2.632-.928.007-.003.014-.006.022-.009.448-.139.902-.25 1.359-.34 1.623-.356 3.285-.537 4.977-.537 1.029 0 2.05.069 3.057.201h.007c.587.034 1.001.123 1.273.207 1.59.301 3.144.77 4.647 1.406 2.75 1.163 5.218 2.829 7.337 4.948l-.163.163.163-.163c2.121 2.119 3.784 4.59 4.95 7.337 1.202 2.843 1.811 5.869 1.811 8.989 0 3.112-.609 6.137-1.81 8.982" transform="translate(54.9166 25.1843)"/><path d="m0 0c.266.035.494.032.684-.007.191-.041.352-.119.483-.234.132-.117.237-.271.314-.465.077-.193.134-.426.169-.699.03-.233.034-.448.01-.645-.024-.198-.083-.371-.177-.523-.093-.15-.223-.275-.389-.373-.168-.097-.564-.182-.564-.182-.039-.008-.101-.018-.139-.023l-2.045-.268c-.038-.004-.071-.039-.074-.079l-.017-.301c-.002-.039-.035-.075-.074-.08l-.09-.011c-.038-.005-.073.022-.079.06l-.18 1.378c-.005.039.022.074.061.079l.09.012c.038.004.079-.022.092-.058l.093-.282c.012-.037.053-.062.092-.057l2.29.299c.28.037.49.149.63.338s.189.448.145.779c-.044.342-.16.579-.348.712s-.758.129-.758.129c-.039 0-.101-.006-.139-.01l-2.079-.273c-.038-.004-.071-.039-.073-.079l-.018-.3c-.002-.04-.035-.075-.074-.08l-.09-.012c-.038-.005-.073.023-.078.061l-.162 1.235c-.005.039.022.074.06.079l.091.012c.038.006.079-.021.091-.057l.095-.288c.012-.036.053-.062.091-.057z" transform="translate(7.6275 32.05)"/><path d="m0 0c.003.039.033.086.066.105l2.89 1.722-2.419.178c-.038.003-.078-.025-.088-.062l-.078-.287c-.01-.036-.05-.064-.089-.062l-.09.007c-.039.003-.068.037-.065.075l.09 1.188c.003.039.037.068.076.065l.09-.007c.039-.003.074-.037.078-.075l.034-.3c.004-.039.039-.072.078-.075l3.424-.26c.038-.003.068-.037.065-.076l-.026-.337c-.003-.038-.032-.086-.065-.106l-3.339-1.957 2.813-.213c.038-.004.078.024.089.062l.078.286c.009.037.049.065.088.062l.091-.007c.038-.002.067-.036.064-.074l-.09-1.189c-.003-.038-.037-.068-.075-.065l-.091.007c-.039.003-.074.037-.078.076l-.034.3c-.004.038-.039.072-.077.074l-3.079.234c-.038.003-.078-.025-.088-.063l-.079-.291c-.01-.037-.049-.066-.088-.062l-.091.006c-.038.003-.067.037-.064.076z" transform="translate(5.1575 35.2541)"/><path d="m0 0c.038-.009.066-.049.064-.087l-.016-.296c-.002-.039.027-.079.064-.088l2.996-.748c.037-.01.081.012.097.046l.125.27c.016.035.06.056.098.046l.088-.022c.038-.01.061-.048.051-.084l-.336-1.35c-.01-.036-.048-.06-.085-.05l-.089.023c-.037.009-.066.048-.064.087l.016.295c.002.039-.027.078-.064.088l-2.996.747c-.037.01-.08-.01-.097-.045l-.125-.27c-.016-.034-.06-.056-.098-.047l-.088.024c-.037.008-.06.045-.051.083l.337 1.348c.009.039.047.061.085.052z" transform="translate(6.3441 41.6678)"/><path d="m0 0c.027-.027.038-.078.023-.114l-.163-.382c-.015-.035-.059-.062-.097-.06l-3.636.246c-.039.002-.089-.021-.112-.052l-.133-.183c-.023-.032-.07-.045-.106-.03l-.084.036c-.035.015-.052.056-.037.092l.499 1.172c.015.036.056.052.091.037l.084-.036c.036-.014.059-.058.052-.096l-.043-.233c-.006-.039.019-.072.057-.075l2.921-.226-2.145 2.052c-.027.026-.068.021-.09-.01l-.161-.236c-.021-.032-.068-.046-.104-.031l-.084.035c-.035.016-.052.057-.037.093l.45 1.055c.015.036.056.052.092.037l.084-.036c.035-.015.058-.058.05-.095l-.057-.275c-.008-.037.008-.091.036-.117z" transform="translate(11.0379 43.9412)"/><path d="m0 0c.088.023.179.058.273.102.095.045.171.09.23.133.21.155.34.321.392.498.051.177.015.35-.11.519-.074.1-.16.169-.256.208-.097.037-.199.057-.308.059-.108.002-.221-.007-.337-.029s-.232-.041-.347-.059c-.174-.023-.332-.044-.474-.062-.142-.019-.271-.02-.389-.006-.117.013-.225.049-.324.105-.099.057-.194.146-.283.267-.098.133-.157.271-.176.414-.02.143-.004.288.047.432.05.145.133.287.25.429.117.141.263.276.437.405.064.048.138.096.22.142.081.047.165.091.25.134.085.042.169.081.253.115s.162.059.162.059c.037.011.074.014.084.006.01-.007.033-.042.052-.075l.293-.515c.019-.033.008-.08-.022-.103l-.193-.142c-.03-.023-.081-.021-.11.003l-.359.301c-.063-.001-.137-.019-.222-.052s-.178-.086-.278-.16c-.18-.134-.292-.281-.336-.444s-.011-.318.098-.465c.07-.095.145-.16.226-.196.082-.036.168-.054.26-.055.092 0 .187.009.286.03.098.02.2.04.305.059.145.02.297.043.455.071.157.027.31.038.459.031.148-.006.288-.036.419-.09s.244-.151.338-.291c.12-.181.188-.353.204-.517s-.005-.321-.066-.47c-.06-.15-.157-.294-.289-.433s-.287-.274-.463-.405c-.16-.117-.327-.219-.501-.305-.174-.085-.4-.177-.4-.177-.036-.014-.072-.019-.08-.01-.009.008-.032.044-.051.076l-.296.512c-.019.034-.009.081.022.103l.192.143c.031.023.081.021.11-.004z" transform="translate(18.3433 53.9198)"/><path d="m0 0c.018-.034.009-.082-.021-.106l-.231-.187c-.029-.025-.039-.073-.021-.106l1.462-2.721c.018-.034.063-.051.1-.04l.284.089c.037.011.081-.007.1-.041l.043-.08c.018-.034.005-.077-.029-.096l-1.224-.657c-.034-.019-.076-.006-.095.028l-.043.081c-.019.033-.008.081.021.105l.23.188c.031.024.04.071.022.106l-1.462 2.719c-.018.035-.063.053-.1.041l-.283-.088c-.037-.012-.082.007-.101.04l-.043.081c-.018.034-.005.077.029.095l1.224.658c.034.018.077.005.095-.029z" transform="translate(21.1109 59.6126)"/><path d="m0 0c.008.023.045.051.081.064l2.857 1.039c.036.014.081.02.099.013.019-.006.045-.04.06-.076l.246-.612c.015-.035-.003-.075-.04-.088l-.229-.084c-.037-.013-.084.002-.106.034l-.201.298c-.021.032-.069.049-.106.038l-.299-.088c-.037-.011-.097-.031-.133-.044l-.291-.105 1.073-2.953c.014-.036.055-.061.093-.054l.293.046c.039.006.08-.018.094-.054l.031-.086c.013-.037-.006-.077-.042-.09l-1.306-.475c-.036-.013-.077.006-.09.042l-.031.086c-.013.036.003.082.036.101l.255.153c.033.02.05.066.036.102l-1.074 2.953-.29-.107c-.036-.013-.095-.036-.131-.052l-.285-.125c-.036-.015-.062-.059-.058-.098l.038-.356c.004-.039-.022-.081-.059-.094l-.23-.083c-.036-.014-.076.005-.087.043l-.197.605c-.012.036-.015.085-.007.107" transform="translate(22.6314 60.501)"/><path d="m0 0-.292-1.624 1.076.203zm.928-1.68-1.276-.241-.197-1.17c-.007-.037.019-.069.058-.07l.265-.005c.038-.001.076-.032.082-.071l.018-.089c.007-.038-.019-.075-.056-.082l-1.117-.211c-.038-.006-.075.019-.082.056l-.017.09c-.007.038.016.081.052.096l.228.097c.036.015.071.058.078.096l.705 3.672c.007.038.044.075.082.082l.489.092c.038.007.085-.014.104-.048l1.817-3.193c.019-.034.066-.062.105-.063l.242-.008c.039-.001.076-.033.083-.071l.017-.089c.007-.038-.018-.075-.056-.082l-1.278-.242c-.038-.006-.075.018-.083.056l-.016.09c-.007.038.016.081.051.096l.229.098c.035.014.05.054.031.088z" transform="translate(28.6996 61.7784)"/><path d="m0 0c.084-.033.178-.059.281-.078.102-.02.191-.03.264-.029.261.001.464.057.61.17s.219.273.218.483c0 .125-.028.231-.084.319-.055.088-.126.165-.213.23-.086.066-.183.124-.29.176-.106.05-.211.103-.314.158-.154.084-.294.16-.419.23-.125.068-.231.143-.317.224-.087.08-.153.172-.2.277-.046.105-.07.232-.07.382-.001.166.033.312.103.439.069.127.166.234.293.32.126.088.277.154.455.198.178.045.375.068.592.069.08 0 .167-.005.261-.015.094-.011.188-.025.281-.041.094-.016.185-.035.273-.056.088-.022.165-.048.165-.048.036-.013.069-.033.072-.044.002-.013.001-.054-.003-.093l-.069-.588c-.004-.038-.039-.07-.078-.07h-.239c-.039-.001-.078.03-.087.067l-.112.455c-.052.036-.122.066-.21.09-.088.023-.194.035-.319.034-.224 0-.402-.054-.533-.159-.132-.105-.197-.25-.196-.433 0-.118.022-.215.067-.292.044-.077.103-.143.177-.197.074-.055.156-.104.248-.145.092-.042.186-.087.282-.134.128-.069.264-.139.408-.211.143-.07.273-.152.389-.245.116-.094.211-.201.284-.322.074-.12.108-.266.101-.434-.01-.217-.057-.396-.14-.538-.084-.142-.194-.255-.331-.34-.138-.086-.301-.144-.49-.179-.189-.034-.393-.051-.613-.051-.198-.002-.393.015-.584.049-.19.034-.428.093-.428.093-.036.01-.069.028-.07.04-.002.011.001.053.005.092l.064.588c.004.038.039.069.077.069l.24.002c.039 0 .078-.031.087-.068z" transform="translate(33.1629 59.3112)"/><path d="m0 0c-.102.323-.325.539-.671.652-.349.113-.659.072-.93-.122s-.495-.563-.671-1.108c-.18-.552-.219-.989-.119-1.311s.325-.539.674-.652.659-.073.93.121.495.563.671 1.108c.179.552.218.989.116 1.312m-.347-2.774c-.419-.225-.916-.245-1.488-.06-.276.09-.509.21-.699.361-.191.15-.335.328-.434.534s-.151.438-.154.695c-.003.258.045.539.143.843.103.318.236.583.397.798.162.213.347.375.555.486.207.111.435.171.683.181s.508-.029.78-.117c.273-.088.505-.208.697-.359s.338-.33.438-.539c.101-.208.153-.442.157-.702.005-.26-.043-.544-.142-.851-.202-.622-.513-1.045-.933-1.27" transform="translate(43.4862 60.5237)"/><path d="m0 0c.058-.069.128-.138.208-.204.081-.067.153-.118.218-.152.229-.125.435-.173.617-.144.182.028.323.134.423.318.06.11.087.216.08.32-.006.104-.032.205-.075.305-.045.099-.101.196-.17.292-.07.096-.136.192-.2.29-.095.148-.181.282-.257.403s-.133.237-.17.35c-.038.112-.051.224-.042.339.01.114.051.236.122.369.079.144.18.257.301.334.122.079.259.126.411.141.153.015.318 0 .495-.046.178-.047.361-.121.551-.224.072-.039.146-.085.222-.139.078-.054.153-.112.227-.17.075-.06.145-.12.212-.181.067-.062.122-.122.122-.122.025-.028.045-.061.041-.074-.003-.012-.024-.047-.046-.079l-.343-.482c-.022-.032-.069-.042-.102-.025l-.21.115c-.034.018-.054.064-.044.102l.12.452c-.028.056-.074.117-.14.179-.066.063-.154.125-.263.184-.197.106-.379.146-.545.117s-.292-.125-.38-.286c-.056-.103-.083-.199-.081-.288s.021-.175.06-.258c.038-.083.087-.165.148-.247.06-.08.121-.164.182-.252.079-.122.165-.249.257-.38.091-.132.166-.266.222-.404.057-.137.089-.277.096-.418.006-.142-.034-.285-.121-.43-.113-.185-.24-.319-.382-.404-.141-.083-.293-.129-.454-.138s-.333.018-.515.079c-.181.061-.369.144-.562.249-.175.094-.337.202-.488.324s-.33.288-.33.288c-.028.027-.048.057-.043.068.004.012.026.047.048.078l.339.486c.022.031.068.041.102.023l.21-.114c.034-.018.054-.064.044-.101z" transform="translate(45.4032 56.6165)"/><path d="m0 0c-.024-.031-.018-.075.012-.099l.474-.372c.031-.024.082-.061.114-.082l.251-.174c.033-.022.083-.02.113.004l.309.249c.03.024.079.024.109.001l.193-.152c.031-.023.036-.067.011-.096l-.411-.487c-.025-.029-.056-.064-.069-.077-.014-.012-.05-.003-.081.021l-2.055 1.611c-.03.024-.036.068-.012.099l.056.071c.024.03.072.041.106.023l.264-.135c.034-.018.082-.008.106.023l1.905 2.429c.023.031.022.079-.003.108l-.195.225c-.025.029-.027.078-.003.108l.056.071c.024.03.068.036.099.013l1.089-.855c.03-.023.036-.068.012-.098l-.057-.072c-.023-.03-.071-.04-.105-.023l-.264.136c-.034.018-.082.007-.106-.023z" transform="translate(49.4143 54.0858)"/><path d="m0 0c.077.329-.005.63-.245.902-.242.275-.53.398-.862.37-.332-.029-.713-.233-1.143-.612-.435-.384-.691-.74-.769-1.067-.078-.328.004-.63.247-.905.242-.275.53-.399.862-.37s.713.233 1.142.612c.436.384.692.74.768 1.07m-1.711-2.211c-.476.02-.913.257-1.311.708-.191.218-.331.439-.418.666-.087.226-.121.453-.101.68.019.228.093.454.221.677.129.223.313.441.553.652.25.222.5.383.748.484.248.102.49.147.725.136.234-.01.461-.075.68-.192.219-.118.423-.284.612-.499.189-.214.328-.435.416-.663.089-.228.123-.457.103-.687s-.094-.459-.222-.685c-.129-.226-.315-.445-.557-.66-.49-.431-.973-.637-1.449-.617" transform="translate(55.6851 51.971)"/><path d="m0 0c.029.024.037.072.017.106l-.418.711-1.376-.83.45-.757c.02-.033.054-.086.075-.118l.173-.253c.022-.033.069-.048.106-.037l.376.125c.036.012.083-.006.102-.039l.128-.215c.019-.033.008-.076-.026-.094l-.559-.306c-.033-.018-.075-.039-.093-.046-.017-.006-.047.016-.066.048l-1.447 2.435c-.019.033-.008.076.025.096l.078.047c.034.02.081.012.107-.017l.198-.222c.025-.029.073-.036.106-.017l2.655 1.577c.033.02.049.066.036.102l-.101.279c-.012.036.004.082.037.102l.078.046c.034.02.077.009.096-.024l1.379-2.321c.02-.033.035-.076.032-.098-.002-.02-.03-.054-.062-.074l-.555-.356c-.032-.021-.075-.011-.095.023l-.125.21c-.02.033-.013.082.015.108l.3.284c.029.026.038.076.02.11l-.143.278c-.017.034-.048.089-.068.122l-.405.687-1.217-.726.42-.707c.019-.033.065-.05.1-.036l.278.105c.036.013.082-.004.102-.037l.105-.177c.019-.034.008-.077-.024-.097l-.898-.532c-.033-.02-.076-.009-.096.024l-.105.177c-.02.033-.012.081.017.106z" transform="translate(57.2634 47.3379)"/><path d="m0 0c-.035.015-.082.001-.103-.031l-.453-.689 1.351-.869.481.738c.021.032.054.087.073.12l.151.266c.019.034.013.084-.015.111l-.276.283c-.028.027-.032.076-.012.108l.137.211c.022.032.064.04.096.018l.521-.367c.032-.022.068-.05.082-.063.014-.012.007-.049-.014-.081l-1.546-2.373c-.021-.031-.065-.041-.096-.019l-.077.049c-.032.021-.047.068-.032.103l.112.276c.015.035 0 .081-.032.103l-2.587 1.686c-.032.02-.081.014-.107-.013l-.206-.213c-.027-.028-.076-.033-.108-.012l-.077.05c-.031.021-.041.064-.02.097l1.474 2.261c.021.032.054.065.074.072.019.007.062-.003.095-.023l.564-.341c.033-.02.043-.062.022-.095l-.134-.205c-.021-.032-.068-.047-.104-.034l-.387.144c-.036.014-.085-.001-.108-.032l-.186-.25c-.023-.031-.059-.082-.08-.115l-.437-.667 1.189-.771.449.689c.021.031.015.08-.012.106l-.217.203c-.027.026-.033.075-.012.106l.112.173c.022.033.065.042.098.021l.874-.57c.033-.021.042-.065.021-.097l-.113-.173c-.021-.033-.067-.046-.103-.031z" transform="translate(11.7704 48.9828)"/><path d="m0 0c.012-.036.004-.092-.018-.123l-1.971-2.73 2.293.799c.036.013.062.055.056.093l-.042.294c-.006.038.02.079.056.092l.086.029c.037.014.077-.006.089-.043l.389-1.125c.014-.037-.007-.077-.043-.09l-.086-.029c-.036-.013-.082.004-.101.037l-.15.263c-.02.033-.065.05-.102.038l-3.246-1.123c-.036-.013-.076.007-.089.043l-.11.32c-.013.037-.005.092.018.123l2.287 3.126-2.668-.924c-.036-.013-.061-.054-.056-.093l.042-.293c.006-.039-.019-.08-.056-.093l-.086-.029c-.036-.014-.077.006-.089.042l-.389 1.127c-.013.036.006.077.042.089l.087.029c.036.014.082-.004.101-.037l.15-.262c.019-.034.065-.051.102-.038l2.917 1.009c.037.012.062.054.056.092l-.043.299c-.006.038.019.08.056.092l.086.031c.036.012.077-.007.089-.044z" transform="translate(60.9646 44.3039)"/><path d="m0 0c-.02-.087-.034-.183-.039-.288s-.002-.194.008-.267c.037-.257.121-.45.253-.579.132-.131.302-.18.509-.15.123.018.224.06.304.128.08.067.146.148.199.242s.097.199.133.311.073.224.113.333c.062.165.119.314.17.447.051.134.111.248.178.346.068.096.151.175.248.236.096.059.22.1.368.122.164.023.313.01.449-.042.135-.05.255-.133.358-.245.104-.113.19-.254.258-.424.07-.17.12-.362.15-.577.012-.08.019-.166.021-.26.003-.094.003-.189 0-.284-.004-.095-.01-.188-.019-.278-.01-.09-.025-.17-.025-.17-.007-.038-.022-.073-.034-.078-.012-.004-.053-.01-.091-.01l-.592-.013c-.039-.001-.075.03-.081.068l-.033.237c-.006.038.019.08.055.096l.434.173c.029.056.05.129.061.22.011.09.007.197-.01.321-.032.221-.11.39-.231.506-.123.116-.276.16-.457.134-.116-.017-.209-.052-.28-.107-.07-.055-.127-.122-.171-.202s-.08-.17-.109-.266-.06-.196-.093-.297c-.051-.137-.102-.282-.152-.433-.051-.152-.114-.291-.19-.419-.077-.128-.17-.237-.279-.327-.11-.09-.248-.144-.417-.16-.215-.02-.4.001-.551.065-.152.064-.28.157-.383.281s-.185.278-.244.46c-.06.182-.106.382-.137.6-.028.196-.038.391-.031.585s.034.436.034.436c.004.039.017.074.028.076.012.004.053.007.092.008l.591.018c.039.001.075-.029.08-.067l.034-.237c.006-.039-.019-.082-.054-.096z" transform="translate(58.9385 38.3989)"/><path d="m0 0c-.039 0-.077.031-.084.068l-.058.292c-.007.037-.045.069-.083.069l-3.087-.014c-.039 0-.077-.031-.084-.069l-.054-.292c-.008-.038-.045-.069-.084-.069l-.09-.001c-.039 0-.071.031-.071.07l-.006 1.389c-.001.039.032.071.07.071h.09c.04 0 .077-.03.084-.068l.058-.292c.007-.037.045-.068.083-.067l3.088.012c.039 0 .076.032.083.069l.054.292c.008.039.045.07.084.07l.091.001c.039 0 .07-.032.07-.071l.007-1.389c0-.039-.032-.07-.07-.07z" transform="translate(62.6451 33.1978)"/><path d="m0 0c-.046-.078-.087-.166-.122-.265-.036-.098-.06-.183-.071-.256-.04-.257-.016-.467.072-.629.087-.162.234-.26.441-.293.124-.019.233-.009.329.033.095.039.182.099.261.172.078.076.152.161.219.258.067.098.136.193.206.286.108.139.205.264.294.378.088.112.179.204.272.276.093.074.195.124.306.153.11.03.239.033.388.009.164-.025.302-.082.416-.171.115-.088.205-.202.27-.34.066-.139.107-.299.123-.482.016-.182.007-.381-.027-.594-.012-.08-.032-.165-.056-.256-.025-.092-.054-.182-.085-.271-.03-.09-.064-.176-.099-.26s-.074-.155-.074-.155c-.018-.034-.043-.063-.055-.065-.013 0-.053.008-.091.017l-.569.162c-.037.011-.062.051-.057.088l.037.238c.007.036.043.071.082.074l.466.038c.044.045.085.11.122.192.037.084.065.187.085.31.035.221.011.405-.073.552-.082.147-.214.235-.396.263-.116.018-.215.011-.298-.02-.084-.032-.158-.079-.224-.143-.065-.064-.126-.138-.182-.222s-.115-.17-.177-.257c-.089-.116-.18-.239-.273-.369-.093-.131-.195-.246-.305-.346-.11-.098-.231-.175-.362-.229s-.279-.064-.445-.03c-.213.045-.382.119-.509.223-.126.107-.22.234-.283.382-.062.15-.094.319-.098.512-.003.191.012.396.046.614.031.196.079.385.143.568.064.182.16.407.16.407.015.036.037.064.05.064.012 0 .053-.009.09-.019l.57-.157c.038-.01.063-.05.057-.089l-.037-.236c-.006-.039-.042-.072-.081-.075z" transform="translate(59.112 30.8466)"/><path d="m0 0c.035-.015.081-.004.103.029l1.589 2.283-2.959-1.676c-.034-.018-.086-.014-.116.01l-.118.096c-.03.025-.047.076-.037.113l.856 3.196-1.796-1.958c-.028-.027-.032-.074-.009-.106l.18-.244c.023-.032.02-.08-.006-.109l-.062-.066c-.026-.027-.071-.03-.099-.003l-.876.817c-.028.026-.03.07-.004.099l.063.066c.026.028.074.034.107.014l.252-.159c.033-.02.082-.015.109.012l2.033 2.255c.025.029.025.076.001.106l-.193.228c-.024.03-.025.079-.001.109l.057.07c.025.03.069.034.099.01l.917-.744c.03-.025.046-.075.036-.112l-.728-2.813 2.508 1.365c.033.019.086.014.115-.01l.878-.714c.03-.024.035-.068.011-.098l-.058-.071c-.024-.03-.072-.039-.105-.021l-.264.142c-.033.019-.08.008-.103-.023l-1.733-2.463c-.022-.032-.018-.081.008-.11l.204-.219c.026-.027.029-.076.006-.107l-.053-.073c-.023-.032-.067-.038-.098-.015l-1.127.826c-.031.022-.038.066-.015.097l.054.074c.022.031.07.042.104.026z" transform="translate(17.4466 10.964)"/><path d="m0 0c.038.213.033.405-.015.578s-.139.327-.272.463c-.134.137-.465.334-.465.334-.033.021-.088.051-.122.068l-.351.181-1.488-2.911.334-.172c.161-.082.317-.149.467-.199.15-.049.294-.073.433-.069.22.018.436.105.648.26s.406.406.583.752c.127.263.21.502.248.715m-.628 1.625c.273-.138.51-.295.713-.469.203-.173.356-.368.459-.583s.149-.454.137-.718c-.013-.263-.1-.551-.262-.869-.152-.296-.329-.533-.533-.708-.204-.176-.425-.293-.664-.352-.239-.058-.494-.064-.763-.017-.27.047-.768.262-.768.262-.036.015-.093.042-.128.06l-1.336.683c-.034.017-.048.061-.03.095l.041.08c.017.034.062.055.099.043l.287-.084c.037-.011.082.009.099.043l1.402 2.742c.017.034.007.082-.024.106l-.235.183c-.031.024-.041.071-.024.105l.042.081c.018.034.06.049.094.031z" transform="translate(24.7035 9.5357)"/><path d="m0 0c-.008.129-.005.152-.008.243-.006.113-.042.155-.155.228-.044.028-.094.051-.146.074-.083.038-.177.066-.282.085-.192.035-.373.033-.54-.005-.168-.038-.32-.114-.455-.228-.134-.113-.25-.264-.346-.453s-.168-.416-.216-.678c-.101-.559-.061-.994.12-1.306.181-.313.494-.51.94-.59.131-.024.272-.033.425-.027.131.005.281.023.452.044.09.011.098-.054.098-.054l.01-.07s.009-.082-.059-.107c-.15-.056-.322-.097-.515-.123-.223-.031-.466-.021-.731.026-.254.047-.485.123-.694.232-.209.11-.381.254-.516.435-.136.181-.229.4-.28.66-.05.258-.044.56.019.907.064.349.17.641.319.874s.329.416.54.547.448.214.711.248.541.024.835-.029c.199-.037.382-.089.55-.158.116-.049.225-.098.329-.149.142-.071.105-.191.105-.191l-.153-.506s-.037-.11-.135-.094c-.087.015-.139.025-.139.025s-.074.011-.083.14" transform="translate(30.6605 8.4501)"/><path d="m0 0c-.039.123-.04.146-.066.235-.032.106-.077.14-.204.183-.049.017-.103.029-.159.038-.09.018-.188.022-.294.016-.196-.011-.37-.056-.524-.133-.154-.078-.283-.187-.388-.328-.104-.142-.18-.317-.229-.523-.048-.207-.065-.443-.049-.71.034-.567.176-.981.426-1.242.249-.259.6-.376 1.053-.349.133.008.272.032.419.075.126.034.267.088.429.15.084.032.108-.03.108-.03l.026-.066s.027-.076-.032-.118c-.133-.09-.29-.17-.471-.241-.209-.082-.449-.132-.717-.148-.258-.015-.5.005-.729.061-.228.057-.43.158-.605.3-.174.144-.316.336-.427.574-.11.241-.176.536-.197.887-.02.354.014.663.104.925.089.261.221.482.395.659s.385.313.632.409c.247.095.52.152.817.17.203.012.393.004.572-.024.125-.019.243-.041.355-.065.155-.035.148-.162.148-.162l-.029-.528s-.009-.117-.108-.123c-.089-.006-.142-.007-.142-.007s-.075-.008-.114.115" transform="translate(36.5281 8.319)"/><path d="m0 0c-.064.113-.07.135-.113.215-.055.1-.106.121-.238.137-.052.007-.107.006-.164.005-.091-.003-.189-.018-.291-.047-.188-.052-.35-.132-.484-.24-.135-.108-.238-.241-.31-.402-.073-.16-.11-.348-.115-.559-.004-.212.03-.447.101-.705.152-.547.377-.922.676-1.124s.667-.243 1.104-.121c.128.035.259.089.394.16.115.062.243.144.388.237.075.05.112-.006.112-.006l.038-.059s.044-.069-.006-.122c-.11-.116-.247-.227-.41-.334-.187-.126-.41-.224-.669-.296-.249-.068-.491-.1-.726-.091-.235.007-.454.061-.654.165-.201.104-.38.262-.538.472-.159.211-.285.486-.378.825-.096.342-.127.651-.094.926.033.276.115.517.248.727.133.21.31.388.532.533.222.144.476.258.764.338.195.053.383.086.564.096.126.007.246.01.361.009.159 0 .178-.125.178-.125l.082-.522s.016-.116-.08-.144c-.085-.024-.136-.037-.136-.037s-.072-.023-.136.089" transform="translate(42.251 9.5269)"/><path d="m0 0-1.7.77c-.035.016-.094.02-.13.01l-.256-.08c-.037-.012-.082.006-.102.04l-.044.079c-.019.034-.008.077.026.096l1.223.696c.033.019.077.007.096-.025l.045-.08c.019-.034.011-.082-.017-.108l-.152-.139c-.029-.027-.023-.062.012-.078l1.211-.576.149 1.352c.004.038-.023.061-.059.049l-.212-.066c-.037-.012-.083.005-.102.039l-.044.078c-.02.034-.008.078.026.097l.968.551c.034.019.076.008.096-.026l.045-.079c.019-.033.011-.081-.018-.108l-.221-.194c-.03-.025-.056-.077-.06-.116l-.188-1.719 1.883-.876c.035-.016.093-.02.131-.009l.26.082c.036.011.082-.007.101-.04l.045-.079c.019-.033.007-.077-.027-.095l-1.227-.7c-.034-.018-.076-.008-.095.026l-.045.079c-.02.034-.012.082.017.108l.165.148c.029.026.024.061-.011.077l-1.414.677-.172-1.581c-.005-.039.022-.06.059-.049l.202.06c.037.012.082-.006.102-.039l.045-.079c.019-.033.007-.076-.027-.096l-.973-.554c-.033-.019-.076-.007-.095.026l-.045.078c-.019.034-.011.082.017.108l.222.195c.029.025.056.077.061.115z" transform="translate(47.0138 10.4606)"/><path d="m0 0c.025-.03.027-.078.004-.108l-.183-.236c-.024-.031-.022-.08.003-.109l2.037-2.309c.025-.029.074-.037.107-.017l.257.152c.033.02.081.012.106-.017l.061-.068c.025-.028.022-.073-.006-.099l-1.048-.924c-.029-.025-.073-.023-.099.007l-.06.067c-.025.029-.027.079-.003.108l.183.237c.023.03.022.079-.004.108l-2.037 2.309c-.025.029-.073.037-.106.017l-.258-.152c-.033-.019-.081-.012-.106.017l-.061.068c-.025.03-.022.073.007.099l1.047.924c.029.025.074.022.099-.007z" transform="translate(51.2256 15.6288)"/><path d="m0 0c-.027-.029-.046-.046-.046-.046l-1.112 1.052.199.206c.027.029.071.073.098.1 0 0 .122.119.207.182s.173.104.262.123.181.012.275-.019c.094-.031.192-.095.293-.191.221-.211.325-.415.313-.614s-.265-.544-.265-.544c-.022-.031-.063-.08-.089-.107zm2.376-.391c.038-.007.091.01.117.039l.583.611c.026.029.025.073-.003.099l-.065.063c-.029.027-.077.03-.109.009l-.222-.154c-.031-.023-.088-.035-.127-.029l-1.738.282c-.038.007-.056.04-.039.075 0 0 .212.459.204.698-.009.238-.116.455-.32.65-.147.139-.294.22-.442.243-.149.022-.294.006-.435-.047-.142-.052-.278-.131-.409-.237-.132-.106-.317-.289-.317-.289-.028-.027-.072-.072-.099-.099l-1.022-1.075c-.027-.028-.026-.073.002-.099l.066-.063c.028-.026.077-.03.108-.008l.246.177c.031.022.079.019.107-.007l2.237-2.129c.027-.027.033-.075.013-.107l-.164-.254c-.022-.033-.015-.081.012-.108l.066-.063c.029-.026.073-.025.1.003l.958 1.007c.026.027.025.072-.003.099l-.066.063c-.028.026-.076.03-.108.007l-.241-.172c-.032-.023-.08-.02-.108.007l-1.031.981.153.16c.027.028.08.045.117.038z" transform="translate(14.1166 52.2063)"/></g><g clip-path="url(#c)"><path d="m0 0c0-.736.112-1.376.336-1.92s.541-1 .952-1.368.904-.643 1.48-.824 1.216-.272 1.92-.272 1.344.091 1.92.272 1.069.456 1.48.824.728.824.952 1.368.336 1.184.336 1.92v7.312h-2v-6.656c0-.384-.019-.773-.056-1.168s-.144-.749-.32-1.064-.443-.573-.8-.776-.861-.304-1.512-.304-1.155.101-1.512.304-.624.461-.8.776-.283.669-.32 1.064-.056.784-.056 1.168v6.656h-2zm12-4.112h1.904v8.4h.048l5.2-8.4h2.112v11.424h-1.904v-8.416h-.032l-5.216 8.416h-2.112zm12.032 0h2v11.424h-2zm7.36 0h2.224l3.904 11.424h-2.032l-2.928-9.04h-.032l-2.864 9.04h-2.08zm7.663 0h8.336v1.728h-6.336v3.344h5.76v1.632h-5.76v2.992h6.224v1.728h-8.224zm10.48 0h2v4.704h2.944c.459 0 .835-.059 1.128-.176s.525-.301.696-.552.288-.565.352-.944.096-.83.096-1.352c0-.278.013-.565.04-.864s.115-.571.264-.816h2.144c-.213.234-.371.626-.472 1.176-.101.549-.152 1.16-.152 1.832 0 .448-.056.821-.168 1.12-.112.298-.253.541-.424.728-.171.186-.355.322-.552.408-.197.085-.381.138-.552.16v.032c.096.032.248.096.456.192s.419.253.632.472.4.506.56.864c.16.357.24.808.24 1.352 0 .971-.315 1.728-.944 2.272s-1.573.816-2.832.816h-5.456zm2 9.792h3.248c.256 0 .504-.021.744-.064s.453-.128.64-.256.333-.307.44-.536c.107-.23.16-.525.16-.888 0-.608-.165-1.064-.496-1.368s-.816-.456-1.456-.456h-3.28zm8.976-5.984c.011-.704.144-1.315.4-1.832.256-.518.597-.941 1.024-1.272s.928-.576 1.504-.736 1.189-.24 1.84-.24c.565 0 1.12.067 1.664.2s1.029.344 1.456.632.771.659 1.032 1.112.392 1 .392 1.64c0 .299-.045.597-.136.896s-.229.578-.416.84c-.187.261-.419.493-.696.696s-.603.363-.976.48c-.149.043-.397.109-.744.2-.347.09-.701.184-1.064.28s-.691.184-.984.264-.461.125-.504.136c-.405.117-.733.291-.984.52s-.376.547-.376.952c0 .288.067.528.2.72s.301.344.504.456.427.192.672.24.485.072.72.072c.693 0 1.264-.152 1.712-.456s.699-.824.752-1.56h2c0 .597-.117 1.123-.352 1.576s-.552.834-.952 1.144c-.4.309-.864.541-1.392.696s-1.091.232-1.688.232c-.512 0-1.019-.067-1.52-.2s-.949-.339-1.344-.616-.712-.627-.952-1.048-.36-.92-.36-1.496c0-.299.04-.592.12-.88s.216-.56.408-.816.451-.488.776-.696.733-.376 1.224-.504c.789-.213 1.453-.387 1.992-.52.539-.134 1.011-.275 1.416-.424.235-.085.451-.232.648-.44s.296-.531.296-.968c0-.214-.043-.424-.128-.632s-.224-.392-.416-.552-.443-.291-.752-.392-.683-.152-1.12-.152c-.405 0-.781.045-1.128.136s-.653.234-.92.432c-.267.197-.475.451-.624.76s-.224.682-.224 1.12zm11.456-3.808h2v11.424h-2zm3.76 9.696h3.616v-9.696h2v9.696h3.632v1.728h-9.248zm10.976-9.696h8.336v1.728h-6.336v3.344h5.76v1.632h-5.76v2.992h6.224v1.728h-8.224zm9.392 9.696h3.616v-9.696h2v9.696h3.632v1.728h-9.248zm10.975-9.696h8.336v1.728h-6.336v3.344h5.76v1.632h-5.76v2.992h6.224v1.728h-8.224zm9.392 9.696h3.616v-9.696h2v9.696h3.632v1.728h-9.248z" transform="translate(74.5432 43.5043)"/><path d="m74.671 17.14h2v11.424h-2zm16.136 9.696c.443-.245.803-.573 1.08-.984.277-.41.483-.877.616-1.4.133-.522.2-1.056.2-1.6s-.067-1.077-.2-1.6c-.133-.522-.339-.989-.616-1.4-.277-.41-.637-.738-1.08-.984-.443-.245-.968-.368-1.576-.368s-1.133.123-1.576.368c-.443.246-.803.574-1.08.984-.277.411-.483.878-.616 1.4-.133.523-.2 1.056-.2 1.6s.067 1.078.2 1.6c.133.523.339.99.616 1.4.277.411.637.739 1.08.984.443.246.968.368 1.576.368s1.133-.122 1.576-.368m-3.872 1.52c-.677-.32-1.251-.752-1.72-1.296s-.829-1.178-1.08-1.904c-.251-.725-.376-1.493-.376-2.304 0-.821.125-1.594.376-2.32.251-.725.611-1.36 1.08-1.904s1.043-.973 1.72-1.288c.677-.314 1.443-.472 2.296-.472s1.619.158 2.296.472c.677.315 1.251.744 1.72 1.288s.829 1.179 1.08 1.904c.251.726.376 1.499.376 2.32 0 .811-.125 1.579-.376 2.304-.251.726-.611 1.36-1.08 1.904s-1.043.976-1.72 1.296-1.443.48-2.296.48-1.619-.16-2.296-.48m9.304-7.408c.011-.704.144-1.314.4-1.832.256-.517.597-.941 1.024-1.272.427-.33.928-.576 1.504-.736s1.189-.24 1.84-.24c.565 0 1.12.067 1.664.2.544.134 1.029.344 1.456.632s.771.659 1.032 1.112c.261.454.392 1 .392 1.64 0 .299-.045.598-.136.896-.091.299-.229.579-.416.84-.187.262-.419.494-.696.696-.277.203-.603.363-.976.48-.149.043-.397.11-.744.2-.347.091-.701.184-1.064.28s-.691.184-.984.264-.461.126-.504.136c-.405.118-.733.291-.984.52-.251.23-.376.547-.376.952 0 .288.067.528.2.72s.301.344.504.456.427.192.672.24.485.072.72.072c.693 0 1.264-.152 1.712-.456s.699-.824.752-1.56h2c0 .598-.117 1.123-.352 1.576-.235.454-.552.835-.952 1.144-.4.31-.864.542-1.392.696-.528.155-1.091.232-1.688.232-.512 0-1.019-.066-1.52-.2-.501-.133-.949-.338-1.344-.616-.395-.277-.712-.626-.952-1.048-.24-.421-.36-.92-.36-1.496 0-.298.04-.592.12-.88s.216-.56.408-.816.451-.488.776-.696.733-.376 1.224-.504c.789-.213 1.453-.386 1.992-.52.539-.133 1.011-.274 1.416-.424.235-.085.451-.232.648-.44s.296-.53.296-.968c0-.213-.043-.424-.128-.632s-.224-.392-.416-.552-.443-.29-.752-.392c-.309-.101-.683-.152-1.12-.152-.405 0-.781.046-1.128.136-.347.091-.653.235-.92.432-.267.198-.475.451-.624.76-.149.31-.224.683-.224 1.12zm11.456-3.808h7.808v1.728h-5.808v9.696h-2zm16.024 9.696c.442-.245.802-.573 1.08-.984.277-.41.482-.877.616-1.4.133-.522.2-1.056.2-1.6s-.067-1.077-.2-1.6c-.134-.522-.339-.989-.616-1.4-.278-.41-.638-.738-1.08-.984-.443-.245-.968-.368-1.576-.368s-1.134.123-1.576.368c-.443.246-.803.574-1.08.984-.278.411-.483.878-.616 1.4-.134.523-.2 1.056-.2 1.6s.066 1.078.2 1.6c.133.523.338.99.616 1.4.277.411.637.739 1.08.984.442.246.968.368 1.576.368s1.133-.122 1.576-.368m-3.872 1.52c-.678-.32-1.251-.752-1.72-1.296-.47-.544-.83-1.178-1.08-1.904-.251-.725-.376-1.493-.376-2.304 0-.821.125-1.594.376-2.32.25-.725.61-1.36 1.08-1.904.469-.544 1.042-.973 1.72-1.288.677-.314 1.442-.472 2.296-.472.853 0 1.618.158 2.296.472.677.315 1.25.744 1.72 1.288.469.544.829 1.179 1.08 1.904.25.726.376 1.499.376 2.32 0 .811-.126 1.579-.376 2.304-.251.726-.611 1.36-1.08 1.904-.47.544-1.043.976-1.72 1.296-.678.32-1.443.48-2.296.48-.854 0-1.619-.16-2.296-.48"/></g></g></svg>