<?xml version="1.0" encoding="UTF-8" standalone="no"?>
<svg xmlns:dc="http://purl.org/dc/elements/1.1/" xmlns:cc="http://creativecommons.org/ns#" xmlns:rdf="http://www.w3.org/1999/02/22-rdf-syntax-ns#" xmlns:svg="http://www.w3.org/2000/svg" xmlns="http://www.w3.org/2000/svg" viewBox="0 0 445.98401 90.708664" height="90.708664" width="445.98401" xml:space="preserve" id="svg2" version="1.1"><metadata id="metadata8"><rdf:RDF><cc:Work rdf:about=""><dc:format>image/svg+xml</dc:format><dc:type rdf:resource="http://purl.org/dc/dcmitype/StillImage"/></cc:Work></rdf:RDF></metadata><defs id="defs6"><clipPath id="clipPath18" clipPathUnits="userSpaceOnUse"><path id="path16" d="M 76.545,37.927 H 331.654 V 51.024 H 76.545 Z"/></clipPath><clipPath id="clipPath34" clipPathUnits="userSpaceOnUse"><path id="path32" d="M 76.535,37.927 H 331.653 V 51.024 H 76.535 Z"/></clipPath><clipPath id="clipPath54" clipPathUnits="userSpaceOnUse"><path id="path52" d="M 76.545,37.927 H 331.654 V 51.024 H 76.545 Z"/></clipPath><clipPath id="clipPath70" clipPathUnits="userSpaceOnUse"><path id="path68" d="M 76.535,37.927 H 331.653 V 51.024 H 76.535 Z"/></clipPath><clipPath id="clipPath138" clipPathUnits="userSpaceOnUse"><path id="path136" d="M 76.535,17.008 H 331.653 V 32.292 H 76.535 Z"/></clipPath><clipPath id="clipPath270" clipPathUnits="userSpaceOnUse"><path id="path268" d="M 2.835,2.835 H 54.219 V 65.013 H 2.835 Z"/></clipPath></defs><g transform="matrix(1.3333333,0,0,-1.3333333,0,90.708667)" id="g10"><g id="g12"><g clip-path="url(#clipPath18)" id="g14"><g transform="translate(130.5703,50.9565)" id="g20"><path id="path22" style="fill:#000000;fill-opacity:1;fill-rule:nonzero;stroke:none" d="M 0,0 H 5.73 C 5.338,-0.205 5.148,-0.305 4.778,-0.499 6.783,-2.716 8.728,-4.865 10.85,-7.212 v 1.117 c 0,1.604 0.018,3.209 -0.012,4.813 -0.008,0.42 -0.166,0.836 -0.264,1.292 h 4.414 c -1.024,-0.319 -0.857,-0.98 -0.858,-1.574 -0.002,-3.315 0.006,-6.629 -0.008,-9.943 -0.002,-0.514 0.036,-0.946 0.642,-1.164 h -4.551 c 0.17,0.189 0.437,0.354 0.44,0.523 0.002,0.189 -0.214,0.4 -0.37,0.57 -2.148,2.343 -4.301,4.68 -6.564,7.14 -0.03,-0.357 -0.063,-0.571 -0.064,-0.786 -0.004,-2.078 0.012,-4.157 -0.012,-6.234 -0.007,-0.553 0.066,-0.986 0.679,-1.221 h -4.509 c 0.631,0.304 0.607,0.844 0.604,1.422 C 0.4,-7.89 0.42,-4.523 0.391,-1.156 0.388,-0.79 0.151,-0.426 0,0"/></g><g transform="translate(80.9681,48.1078)" id="g24"><path id="path26" style="fill:#000000;fill-opacity:1;fill-rule:nonzero;stroke:none" d="m 0,0 v -6.956 c 1.361,0 2.681,-0.11 3.975,0.026 1.792,0.189 2.745,1.488 2.74,3.45 C 6.71,-1.536 5.729,-0.206 3.961,-0.026 2.666,0.106 1.346,0 0,0 m -4.116,2.88 c -0.004,-10e-4 0.141,0.028 0.286,0.028 2.684,-0.002 5.368,0.03 8.051,-0.021 3.647,-0.069 5.869,-2.33 6.066,-6.086 0.176,-3.366 -2.049,-6.264 -5.403,-6.527 -3.042,-0.238 -6.116,-0.05 -9.317,-0.05 0.763,0.252 0.749,0.786 0.746,1.366 -0.018,3.368 0.003,6.736 -0.026,10.104 -0.003,0.366 -0.241,0.73 -0.403,1.186"/></g></g></g><g id="g28"><g clip-path="url(#clipPath34)" id="g30"><g transform="translate(236.7427,48.773)" id="g36"><path id="path38" style="fill:#000000;fill-opacity:1;fill-rule:nonzero;stroke:none" d="M 0,0 C -0.772,-2.07 -1.461,-3.918 -2.166,-5.809 H 2.363 C 1.581,-3.889 0.828,-2.035 0,0 M -2.667,2.218 H 3.136 C 3.183,1.738 3.128,1.253 3.286,0.854 4.652,-2.585 6.05,-6.011 7.457,-9.433 7.609,-9.801 7.876,-10.12 8.124,-10.515 H 3.652 c -0.035,0.462 -0.008,0.908 -0.118,1.316 -0.128,0.473 -0.359,0.922 -0.59,1.358 -0.042,0.08 -0.292,0.069 -0.447,0.07 -1.578,0.004 -3.156,0.025 -4.732,-0.02 -0.248,-0.007 -0.572,-0.27 -0.71,-0.504 -0.223,-0.377 -0.361,-0.819 -0.457,-1.251 -0.062,-0.281 0.013,-0.593 0.03,-0.967 h -3.9 c 0.319,0.686 0.691,1.38 0.971,2.108 1.226,3.183 2.432,6.374 3.62,9.571 0.1,0.269 0.014,0.606 0.014,1.052"/></g><g transform="translate(319.4006,45.6602)" id="g40"><path id="path42" style="fill:#000000;fill-opacity:1;fill-rule:nonzero;stroke:none" d="m 0,0 c -1.155,-2.231 -2.308,-4.462 -3.527,-6.821 -1.168,2.33 -2.284,4.56 -3.401,6.79 -0.054,-0.007 -0.109,-0.014 -0.164,-0.021 v -2.303 c 0,-1.263 0.017,-2.526 -0.008,-3.788 -0.01,-0.528 10e-4,-0.996 0.627,-1.242 h -3.553 c 0.122,0.457 0.34,0.908 0.346,1.362 0.033,2.657 0.03,5.314 0,7.971 -0.005,0.405 -0.221,0.808 -0.351,1.253 h 4.79 c 0.046,-0.39 0,-0.821 0.152,-1.166 0.5,-1.148 1.072,-2.265 1.69,-3.543 0.723,1.413 1.391,2.678 2.006,3.969 0.083,0.174 -0.106,0.477 -0.179,0.758 H 3.369 C 3.263,2.722 3.083,2.259 3.079,1.793 3.05,-0.838 3.052,-3.469 3.079,-6.099 3.083,-6.514 3.273,-6.928 3.391,-7.394 h -3.999 c 0.963,0.369 0.785,1.053 0.785,1.669 0.005,1.89 0.001,3.78 0.001,5.669 C 0.118,-0.037 0.06,-0.019 0,0"/></g><g transform="translate(282.6699,40.5596)" id="g44"><path id="path46" style="fill:#000000;fill-opacity:1;fill-rule:nonzero;stroke:none" d="M 0,0 C 0.787,0 1.491,-0.007 2.197,0.001 4.625,0.031 5.676,1.348 5.21,3.99 5.067,4.799 4.636,5.383 3.865,5.696 2.606,6.206 1.308,5.982 0,6.034 Z m -3.81,8.253 c 0.009,0.025 0.019,0.071 0.027,0.071 C -0.924,8.293 1.94,8.354 4.789,8.186 6.225,8.101 7.301,7.149 7.892,5.799 8.704,3.948 8.71,2.069 7.892,0.221 7.141,-1.476 5.698,-2.259 3.936,-2.324 1.417,-2.417 -1.11,-2.355 -3.635,-2.355 c -0.063,0 -0.128,0.052 -0.025,0.008 0.144,0.54 0.37,1.01 0.376,1.482 0.036,2.602 0.035,5.206 0.002,7.808 -0.007,0.449 -0.229,0.894 -0.351,1.341 -0.06,-0.01 -0.119,-0.021 -0.177,-0.031"/></g></g></g><g id="g48"><g clip-path="url(#clipPath54)" id="g50"><g transform="translate(167.6436,44.3289)" id="g56"><path id="path58" style="fill:#000000;fill-opacity:1;fill-rule:nonzero;stroke:none" d="M 0,0 C 1.42,0 2.755,-0.049 4.084,0.02 4.78,0.057 5.131,0.591 5.126,1.285 5.121,1.961 4.72,2.436 4.083,2.469 2.732,2.539 1.375,2.49 0,2.49 Z m -3.414,4.481 c 2.816,0 5.788,0.112 8.744,-0.044 C 7.018,4.348 7.932,3.258 8.168,1.739 8.388,0.322 7.723,-0.907 6.308,-1.688 6.058,-1.827 5.8,-1.951 5.466,-2.123 6.559,-3.382 7.035,-5.053 8.599,-6.061 H 3.584 c 0.929,0.464 0.402,0.991 0.132,1.505 -0.171,0.326 -0.361,0.64 -0.544,0.959 -0.957,1.664 -1.137,1.744 -3.193,1.365 0,-1.004 -0.034,-2.024 0.023,-3.04 0.015,-0.259 0.316,-0.503 0.508,-0.788 h -3.902 c 0.095,0.476 0.274,0.975 0.28,1.475 0.029,2.603 0.028,5.205 -10e-4,7.808 -0.005,0.433 -0.202,0.863 -0.301,1.258"/></g><g transform="translate(158.0406,43.587)" id="g60"><path id="path62" style="fill:#000000;fill-opacity:1;fill-rule:nonzero;stroke:none" d="m 0,0 c -0.011,1.705 -1.406,2.931 -3.334,2.93 -1.96,0 -3.366,-1.266 -3.34,-3.007 0.024,-1.687 1.458,-2.913 3.377,-2.886 C -1.354,-2.937 0.011,-1.71 0,0 m 3.159,-0.048 c 0,-1.851 -0.766,-3.296 -2.314,-4.312 -2.414,-1.586 -6.045,-1.558 -8.44,0.056 -3.012,2.029 -3.022,6.521 -0.018,8.561 2.408,1.635 6.092,1.655 8.506,0.035 1.539,-1.033 2.283,-2.489 2.266,-4.34"/></g></g></g><g id="g64"><g clip-path="url(#clipPath70)" id="g66"><g transform="translate(93.8696,38.233)" id="g72"><path id="path74" style="fill:#000000;fill-opacity:1;fill-rule:nonzero;stroke:none" d="M 0,0 C 0.688,0.356 0.619,0.932 0.617,1.504 0.607,4.057 0.608,6.61 0.616,9.163 c 0.002,0.567 0.087,1.152 -0.609,1.501 0.273,0.013 0.547,0.039 0.82,0.039 3.158,0.003 6.316,-0.009 9.474,0.013 0.443,0.003 0.884,0.162 1.361,0.255 V 8.262 C 11.168,8.365 10.663,8.551 10.154,8.562 8.365,8.599 6.575,8.576 4.786,8.576 H 3.89 V 6.707 C 5.352,6.346 8.577,6.548 9.1,7.1 V 4.235 C 8.662,4.337 8.234,4.511 7.8,4.524 6.516,4.563 5.23,4.538 3.843,4.538 3.843,3.826 3.811,3.173 3.866,2.528 3.88,2.374 4.184,2.124 4.357,2.122 6.462,2.095 8.568,2.088 10.672,2.129 c 0.307,0.005 0.609,0.284 0.965,0.462 V -0.306 C 11.144,-0.218 10.64,-0.055 10.135,-0.051 7.029,-0.027 3.924,-0.04 0.818,-0.037 0.546,-0.037 0.273,-0.013 0,0"/></g><g transform="translate(207.6327,48.9376)" id="g76"><path id="path78" style="fill:#000000;fill-opacity:1;fill-rule:nonzero;stroke:none" d="m 0,0 h 0.675 c 3.211,0 6.422,-0.009 9.632,0.013 0.368,0.003 0.735,0.184 1.146,0.294 v -2.768 c -0.456,0.111 -0.91,0.31 -1.367,0.318 -2.101,0.034 -4.202,0.015 -6.369,0.015 V -4.027 C 5.522,-4.349 8.371,-4.159 8.93,-3.638 V -6.453 C 8.434,-6.36 7.928,-6.197 7.416,-6.18 6.208,-6.139 4.998,-6.167 3.72,-6.167 v -2.436 h 3.959 c 0.816,0 1.634,-0.038 2.446,0.016 0.42,0.029 0.829,0.223 1.303,0.36 v -2.746 c -0.519,0.071 -1.098,0.214 -1.678,0.219 -3.026,0.023 -6.052,0.011 -9.079,0.011 h -0.836 c 0.772,0.432 0.587,1.121 0.587,1.738 0.003,2.553 0.019,5.106 -0.016,7.658 C 0.4,-0.932 0.164,-0.52 0,0"/></g><g transform="translate(294.0211,48.9376)" id="g80"><path id="path82" style="fill:#000000;fill-opacity:1;fill-rule:nonzero;stroke:none" d="m 0,0 h 0.668 c 3.21,0 6.421,-0.009 9.633,0.012 0.368,0.002 0.736,0.166 1.156,0.268 v -2.758 c -0.422,0.111 -0.874,0.324 -1.332,0.333 -1.84,0.04 -3.683,0.017 -5.525,0.017 H 3.712 v -1.878 c 1.597,-0.35 4.69,-0.151 5.222,0.389 v -2.862 c -0.429,0.108 -0.832,0.286 -1.241,0.298 -1.308,0.038 -2.619,0.014 -3.978,0.014 v -2.436 h 1.983 c 1.42,0 2.843,-0.03 4.261,0.017 0.493,0.016 0.978,0.221 1.512,0.351 v -2.77 c -0.49,0.088 -0.965,0.247 -1.444,0.25 -3.13,0.023 -6.263,0.012 -9.395,0.012 H 0.008 c 0.163,0.554 0.407,1.014 0.414,1.478 0.038,2.657 0.034,5.316 0,7.973 C 0.417,-0.901 0.175,-0.514 0,0"/></g><g transform="translate(198.0151,43.2238)" id="g84"><path id="path86" style="fill:#000000;fill-opacity:1;fill-rule:nonzero;stroke:none" d="m 0,0 c -0.643,-0.764 -1.182,-1.41 -1.728,-2.051 -0.508,-0.599 -0.268,-2.405 0.497,-2.903 h -4.306 c 0.096,0.486 0.282,1.011 0.288,1.538 0.031,2.63 0.028,5.26 -0.002,7.889 -0.004,0.373 -0.218,0.744 -0.351,1.165 H -1.12 C -2.15,5.305 -1.95,4.614 -1.954,4.003 -1.962,2.9 -1.956,1.796 -1.956,0.455 -0.198,2.023 1.422,3.468 3.115,4.977 2.774,5.244 2.58,5.395 2.281,5.63 H 6.995 C 5.499,4.325 4.007,3.024 2.452,1.67 3.973,-0.576 5.461,-2.772 6.951,-4.972 H 2.002 c 1.276,0.546 0.569,1.114 0.226,1.644 C 1.572,-2.315 0.887,-1.32 0,0"/></g><g transform="translate(253.1438,43.2238)" id="g88"><path id="path90" style="fill:#000000;fill-opacity:1;fill-rule:nonzero;stroke:none" d="m 0,0 c -0.643,-0.764 -1.183,-1.41 -1.728,-2.051 -0.509,-0.599 -0.269,-2.405 0.497,-2.903 h -4.306 c 0.095,0.486 0.282,1.011 0.288,1.538 0.03,2.63 0.027,5.26 -0.002,7.889 -0.004,0.377 -0.221,0.751 -0.352,1.165 H -1.12 C -2.15,5.305 -1.951,4.614 -1.954,4.003 -1.962,2.9 -1.957,1.796 -1.957,0.455 -0.197,2.023 1.422,3.468 3.115,4.977 2.774,5.243 2.581,5.394 2.281,5.63 H 6.995 C 5.499,4.325 4.006,3.024 2.452,1.67 3.973,-0.576 5.461,-2.772 6.95,-4.972 H 2.001 c 1.277,0.546 0.571,1.114 0.226,1.644 C 1.572,-2.315 0.886,-1.32 0,0"/></g><g transform="translate(178.2755,38.8687)" id="g92"><path id="path94" style="fill:#000000;fill-opacity:1;fill-rule:nonzero;stroke:none" d="M 0,0 C 0.278,0.899 0.602,1.943 0.888,2.867 1.409,2.52 1.819,2.055 2.301,1.962 3.711,1.693 5.145,1.505 6.577,1.422 7.22,1.384 8.118,1.496 8.178,2.357 8.24,3.253 7.329,3.223 6.725,3.339 5.54,3.567 4.338,3.709 3.145,3.898 2.887,3.939 2.631,4.009 2.384,4.095 1.377,4.447 0.474,4.95 0.293,6.119 0.109,7.32 0.61,8.295 1.546,9.013 3.086,10.195 4.89,10.327 6.73,10.16 7.748,10.068 8.753,9.84 9.769,9.714 10.215,9.658 10.674,9.705 11.273,9.705 10.817,8.739 10.352,7.752 9.83,6.646 9.325,7.623 8.449,7.765 7.626,7.848 6.618,7.951 5.59,7.922 4.576,7.862 4.058,7.832 3.446,7.639 3.446,6.983 3.446,6.279 4.139,6.257 4.618,6.167 5.753,5.954 6.908,5.847 8.046,5.648 8.584,5.555 9.125,5.402 9.626,5.186 11.665,4.306 12.016,1.921 10.327,0.445 9.191,-0.548 7.775,-0.843 6.35,-0.784 4.838,-0.722 3.338,-0.398 1.831,-0.198 1.249,-0.121 0.663,-0.071 0,0"/></g><g transform="translate(270.845,42.17)" id="g96"><path id="path98" style="fill:#000000;fill-opacity:1;fill-rule:nonzero;stroke:none" d="M 0,0 C -0.684,1.424 -1.332,2.772 -2.039,4.247 -2.739,2.753 -3.368,1.407 -4.026,0 Z m 1.31,-3.911 c 0.456,0.971 -0.25,2.129 -1.296,2.13 -1.341,10e-4 -2.682,10e-4 -4.021,0 -1.013,-0.001 -1.738,-1.176 -1.259,-2.138 h -3.493 c 0.258,0.449 0.54,0.863 0.742,1.314 1.221,2.729 2.433,5.463 3.624,8.206 0.128,0.294 0.096,0.657 0.153,1.099 H 0.382 C 0.455,6.287 0.442,5.867 0.6,5.524 1.93,2.642 3.286,-0.229 4.65,-3.095 4.785,-3.377 5.033,-3.606 5.268,-3.911 Z"/></g><g transform="translate(108.2865,46.0779)" id="g100"><path id="path102" style="fill:#000000;fill-opacity:1;fill-rule:nonzero;stroke:none" d="m 0,0 v 3.146 c 0.464,-0.099 0.901,-0.27 1.339,-0.274 2.971,-0.024 5.942,-0.023 8.913,0 0.437,0.003 0.873,0.171 1.347,0.27 v -3.171 c -1.32,0.819 -2.737,0.19 -4.191,0.444 0,-0.784 0,-1.459 0,-2.133 0,-1.578 -0.027,-3.156 0.017,-4.732 0.012,-0.453 0.229,-0.9 0.359,-1.375 H 3.817 c 0.128,0.496 0.347,0.97 0.356,1.447 C 4.21,-4.174 4.189,-1.97 4.189,0.387 2.764,0.21 1.355,0.727 0,0"/></g><g transform="translate(326.7238,48.8655)" id="g104"><path id="path106" style="fill:#000000;fill-opacity:1;fill-rule:nonzero;stroke:none" d="M 0,0 H 4.665 C 3.821,-0.236 3.93,-0.885 3.933,-1.508 3.944,-4.059 3.933,-6.61 3.941,-9.16 3.944,-9.734 3.703,-10.465 4.93,-10.397 4.845,-10.466 4.759,-10.534 4.674,-10.603 H 0.003 c 0.847,0.261 0.701,0.934 0.701,1.543 -0.001,2.55 0.004,5.101 -0.003,7.652 C 0.7,-0.851 0.891,-0.172 0,0"/></g></g></g><g id="g132"><g clip-path="url(#clipPath138)" id="g134"><g transform="translate(269.1325,27.2617)" id="g140"><path id="path142" style="fill:#000000;fill-opacity:1;fill-rule:nonzero;stroke:none" d="m 0,0 c 0,-0.388 0.003,-0.887 -0.001,-1.386 -0.002,-0.181 -0.018,-0.363 -0.021,-0.408 -0.457,0.102 -0.882,0.271 -1.309,0.279 -1.789,0.031 -3.579,0.013 -5.369,0.013 H -7.414 V -4.26 c 1.615,0 3.207,-0.013 4.799,0.019 0.182,0.004 0.358,0.264 0.579,0.438 v -1.99 c -0.377,0.112 -0.727,0.297 -1.082,0.306 -1.408,0.035 -2.818,0.014 -4.279,0.014 v -3.034 h 0.943 c 1.832,0 3.664,-0.016 5.495,0.013 0.367,0.006 0.729,0.182 1.125,0.288 v -2.048 c -0.336,0.737 -0.904,0.577 -1.413,0.578 -2.464,0.006 -4.927,0.002 -7.391,0.004 -0.22,0 -0.438,0.02 -0.511,0.024 0.112,0.442 0.299,0.84 0.303,1.239 0.028,2.317 0.026,4.633 0,6.949 -0.003,0.342 -0.183,0.682 -0.307,1.107 0.054,0.002 0.262,0.02 0.471,0.021 2.527,0.002 5.054,-0.01 7.58,0.015 C -0.761,-0.314 -0.423,-0.127 0,0"/></g><g transform="translate(103.1985,22.9863)" id="g144"><path id="path146" style="fill:#000000;fill-opacity:1;fill-rule:nonzero;stroke:none" d="M 0,0 C 1.573,0 3.083,-0.019 4.592,0.007 5.562,0.024 5.907,0.415 5.911,1.374 5.914,2.367 5.547,2.795 4.583,2.814 3.155,2.843 1.726,2.83 0.298,2.83 0.202,2.829 0.106,2.788 0,2.764 Z M 4.784,-1.269 C 5.702,-2.66 6.586,-4.002 7.463,-5.332 H 5.569 c -0.057,0.333 -0.03,0.66 -0.166,0.89 -0.577,0.977 -1.195,1.931 -1.818,2.88 -0.102,0.155 -0.302,0.341 -0.462,0.346 -1.025,0.031 -2.051,0.016 -3.137,0.016 0,-1.201 -0.024,-2.333 0.021,-3.461 0.009,-0.223 0.286,-0.435 0.464,-0.687 h -2.258 c 0.612,0.299 0.466,0.851 0.466,1.344 0.004,2.252 0.016,4.504 -0.013,6.756 -0.004,0.373 -0.198,0.744 -0.317,1.159 -0.023,-0.003 0.107,0.031 0.238,0.031 2,0.003 3.999,0.02 5.999,-0.005 C 6.206,3.916 7.13,3.179 7.271,1.841 7.46,0.052 6.691,-1.037 5.036,-1.161 4.978,-1.165 4.924,-1.207 4.784,-1.269"/></g><g transform="translate(146.1667,23.0329)" id="g148"><path id="path150" style="fill:#000000;fill-opacity:1;fill-rule:nonzero;stroke:none" d="M 0,0 C 1.708,0 3.382,-0.038 5.053,0.02 5.662,0.041 5.919,0.584 5.899,1.423 5.88,2.224 5.59,2.708 4.919,2.73 3.29,2.785 1.659,2.748 0,2.748 Z m -1.805,-5.378 c 0.563,0.239 0.478,0.719 0.477,1.167 -10e-4,2.358 0.012,4.715 -0.015,7.072 -0.003,0.313 -0.2,0.624 -0.329,1.001 -0.076,-0.029 0.007,0.03 0.09,0.03 C 0.523,3.895 2.628,3.935 4.732,3.877 6.66,3.825 7.655,2.453 7.228,0.57 7.008,-0.397 6.393,-0.954 5.435,-1.151 5.236,-1.192 5.035,-1.22 4.733,-1.271 5.689,-2.696 6.591,-4.043 7.495,-5.392 H 5.558 c -0.069,0.349 -0.055,0.716 -0.211,0.984 -0.551,0.943 -1.151,1.859 -1.756,2.769 -0.112,0.169 -0.331,0.37 -0.507,0.376 -1.007,0.036 -2.016,0.017 -3.094,0.017 0,-1.216 -0.019,-2.386 0.02,-3.554 0.007,-0.184 0.279,-0.359 0.462,-0.578 z"/></g><g transform="translate(274.668,23.0136)" id="g152"><path id="path154" style="fill:#000000;fill-opacity:1;fill-rule:nonzero;stroke:none" d="M 0,0 C 1.673,0 3.289,-0.03 4.902,0.014 5.604,0.033 5.898,0.506 5.898,1.356 5.899,2.23 5.595,2.733 4.875,2.757 3.265,2.809 1.652,2.773 0,2.773 Z m 4.734,-1.251 c 0.95,-1.423 1.849,-2.77 2.749,-4.117 H 5.359 c 0.482,0.395 0.156,0.735 -0.065,1.083 -0.552,0.87 -1.121,1.731 -1.652,2.613 -0.196,0.325 -0.412,0.469 -0.803,0.457 -0.923,-0.029 -1.848,-0.01 -2.854,-0.01 0,-1.211 -0.02,-2.379 0.019,-3.545 0.008,-0.186 0.278,-0.362 0.46,-0.584 h -2.268 c 0.541,0.234 0.475,0.701 0.474,1.152 -0.004,2.294 -0.007,4.589 0.003,6.883 10e-4,0.459 0.036,0.908 -0.482,1.204 0.112,0.011 0.226,0.03 0.339,0.03 C 0.551,3.917 2.571,3.941 4.593,3.908 6.553,3.876 7.506,2.731 7.258,0.785 7.13,-0.225 6.458,-0.935 5.442,-1.13 5.242,-1.168 5.041,-1.199 4.734,-1.251"/></g><g transform="translate(324.1964,25.7954)" id="g156"><path id="path158" style="fill:#000000;fill-opacity:1;fill-rule:nonzero;stroke:none" d="m 0,0 v -2.792 c 1.627,0 3.217,-0.026 4.806,0.012 0.769,0.018 1.083,0.457 1.093,1.32 0.01,0.932 -0.32,1.426 -1.114,1.447 C 3.213,0.03 1.639,0 0,0 m -1.643,-8.131 c 0.109,0.354 0.296,0.681 0.298,1.01 0.027,2.357 0.016,4.714 0.012,7.071 -0.001,0.422 0.143,0.922 -0.648,1.005 0.057,0.047 0.113,0.095 0.169,0.143 0.195,0.012 0.389,0.035 0.584,0.036 C 0.604,1.136 2.435,1.136 4.265,1.135 4.454,1.134 4.645,1.134 4.833,1.119 6.393,0.996 7.215,0.204 7.273,-1.227 7.341,-2.909 6.73,-3.669 5.08,-3.958 5,-3.972 4.926,-4.007 4.761,-4.061 5.681,-5.453 6.573,-6.804 7.458,-8.144 H 5.559 c -0.06,0.342 -0.035,0.668 -0.17,0.899 -0.578,0.977 -1.198,1.929 -1.818,2.881 -0.093,0.144 -0.263,0.333 -0.403,0.337 -1.045,0.028 -2.091,0.015 -3.193,0.015 0,-1.204 -0.02,-2.336 0.019,-3.465 0.007,-0.21 0.261,-0.411 0.425,-0.654 z"/></g><g transform="translate(209.4641,25.7666)" id="g160"><path id="path162" style="fill:#000000;fill-opacity:1;fill-rule:nonzero;stroke:none" d="m 0,0 c -0.22,-0.502 -0.477,-1.088 -0.78,-1.779 -0.403,1.065 -1.251,1.436 -2.12,1.6 -0.933,0.175 -1.937,0.288 -2.861,0.135 -1.816,-0.301 -2.938,-1.883 -2.881,-3.753 0.05,-1.636 1.229,-2.898 3.017,-3.222 1.077,-0.196 2.139,-0.11 3.182,0.204 1.129,0.339 1.225,0.51 1.007,1.805 -0.833,-0.209 -1.797,0.4 -2.589,-0.54 v 1.825 c 0.685,-0.046 1.406,-0.113 2.128,-0.138 0.725,-0.024 1.452,-0.005 2.193,-0.005 -0.389,-0.911 -0.394,-1.735 0.004,-2.628 -1.614,-1.406 -3.541,-1.931 -5.684,-1.759 -0.416,0.033 -0.835,0.119 -1.237,0.235 -2.155,0.624 -3.451,2.382 -3.411,4.598 0.037,2.042 1.548,3.892 3.658,4.466 C -4.626,1.52 -2.96,1.231 -1.337,0.505 -0.933,0.324 -0.507,0.189 0,0"/></g><g transform="translate(88.8744,22.3185)" id="g164"><path id="path166" style="fill:#000000;fill-opacity:1;fill-rule:nonzero;stroke:none" d="M 0,0 C -0.02,-2.123 1.648,-3.681 3.949,-3.686 6.218,-3.692 7.893,-2.173 7.924,-0.082 7.955,1.994 6.302,3.528 4,3.56 1.721,3.592 0.02,2.077 0,0 m 4.043,-4.872 c -2.168,0.101 -3.92,0.767 -4.919,2.699 -1.486,2.877 0.349,6.32 3.644,6.768 C 3.704,4.723 4.711,4.684 5.632,4.48 7.907,3.974 9.385,2.013 9.302,-0.17 9.214,-2.486 7.586,-4.319 5.245,-4.726 4.811,-4.801 4.371,-4.833 4.043,-4.872"/></g><g transform="translate(187.8066,22.2823)" id="g168"><path id="path170" style="fill:#000000;fill-opacity:1;fill-rule:nonzero;stroke:none" d="m 0,0 c -0.003,-2.096 1.641,-3.626 3.922,-3.65 2.288,-0.023 4,1.534 4.002,3.641 C 7.926,2.069 6.251,3.594 3.963,3.597 1.672,3.6 0.003,2.085 0,0 m 4.043,-4.836 c -2.168,0.102 -3.92,0.767 -4.919,2.7 -1.486,2.877 0.349,6.32 3.644,6.768 C 3.704,4.759 4.712,4.721 5.632,4.516 7.907,4.01 9.386,2.049 9.302,-0.134 9.213,-2.45 7.586,-4.283 5.245,-4.69 4.811,-4.765 4.37,-4.797 4.043,-4.836"/></g><g transform="translate(127.9883,24.5448)" id="g172"><path id="path174" style="fill:#000000;fill-opacity:1;fill-rule:nonzero;stroke:none" d="m 0,0 c -0.406,0.321 -0.704,0.674 -1.083,0.834 -1.188,0.501 -2.446,0.615 -3.712,0.38 -0.376,-0.07 -0.776,-0.252 -1.063,-0.5 -0.717,-0.618 -0.529,-1.691 0.368,-1.957 0.757,-0.225 1.565,-0.281 2.352,-0.399 0.913,-0.136 1.841,-0.201 2.74,-0.402 C 0.49,-2.242 1.2,-2.739 1.307,-3.747 1.425,-4.854 1.153,-5.879 0.093,-6.368 -0.706,-6.738 -1.62,-6.92 -2.502,-7.037 c -1.423,-0.188 -2.794,0.155 -4.142,0.615 -0.388,0.132 -0.83,0.109 -1.303,0.163 0.213,0.559 0.475,1.246 0.736,1.932 0.255,-0.719 0.857,-0.915 1.436,-1.111 1.443,-0.488 2.913,-0.635 4.406,-0.257 0.281,0.071 0.621,0.152 0.792,0.35 0.266,0.31 0.581,0.734 0.559,1.09 -0.02,0.323 -0.407,0.79 -0.729,0.894 -0.749,0.242 -1.555,0.316 -2.341,0.437 -0.913,0.141 -1.841,0.205 -2.74,0.404 -0.864,0.191 -1.564,0.675 -1.702,1.641 -0.149,1.05 0.116,1.973 1.027,2.612 0.92,0.645 1.994,0.838 3.067,0.748 C -2.422,2.396 -1.428,2.092 -0.421,1.907 -0.111,1.851 0.212,1.87 0.661,1.848 0.452,1.264 0.211,0.59 0,0"/></g><g transform="translate(171.2356,26.8656)" id="g176"><path id="path178" style="fill:#000000;fill-opacity:1;fill-rule:nonzero;stroke:none" d="M 0,0 C -0.117,-0.389 -0.305,-0.757 -0.325,-1.134 -0.372,-2.049 -0.34,-2.968 -0.34,-4.038 1.328,-2.796 2.879,-1.64 4.502,-0.431 4.229,-0.268 4.07,-0.173 3.76,0.012 H 7.042 C 5.62,-1.036 4.216,-2.071 2.782,-3.128 4.135,-4.994 5.449,-6.82 6.786,-8.629 6.947,-8.847 7.237,-8.971 7.559,-9.206 H 4.69 c 0.319,0.145 0.47,0.213 0.779,0.354 -1.225,1.68 -2.425,3.328 -3.657,5.018 -0.684,-0.531 -1.34,-1.017 -1.962,-1.544 -0.129,-0.109 -0.177,-0.366 -0.182,-0.557 -0.02,-0.736 -0.043,-1.475 0.007,-2.209 0.025,-0.355 0.21,-0.699 0.33,-1.074 h -2.228 c 0.765,0.348 0.587,0.957 0.589,1.505 0.004,2.23 0.014,4.461 -0.012,6.691 C -1.65,-0.689 -1.839,-0.358 -1.951,0 Z"/></g><g transform="translate(134.4062,22.8712)" id="g180"><path id="path182" style="fill:#000000;fill-opacity:1;fill-rule:nonzero;stroke:none" d="M 0,0 C 1.425,0 2.789,-0.031 4.15,0.01 5.102,0.039 5.616,0.596 5.625,1.466 5.633,2.329 5.118,2.871 4.147,2.916 3.119,2.964 2.088,2.942 1.058,2.949 0.711,2.951 0.364,2.949 0,2.949 Z m -0.016,-1.211 c 0,-1.167 -0.025,-2.237 0.019,-3.305 0.009,-0.231 0.264,-0.452 0.422,-0.702 h -2.07 c 0.109,0.371 0.308,0.739 0.312,1.109 0.029,2.357 0.012,4.714 0.017,7.071 0.001,0.412 0.041,0.825 -0.715,0.928 0.293,0.106 0.378,0.164 0.461,0.163 C 0.512,4.032 2.6,4.09 4.674,3.951 6.28,3.844 7.017,2.928 7.018,1.447 7.018,0.205 6.025,-0.96 4.663,-1.103 3.434,-1.232 2.186,-1.183 0.946,-1.21 0.654,-1.216 0.361,-1.211 -0.016,-1.211"/></g><g transform="translate(163.1572,21.553)" id="g184"><path id="path186" style="fill:#000000;fill-opacity:1;fill-rule:nonzero;stroke:none" d="M 0,0 C -0.726,1.505 -1.407,2.919 -2.146,4.453 -2.847,2.884 -3.476,1.474 -4.135,0 Z M 3.415,-3.905 H 0.799 c 0.311,0.179 0.661,0.278 0.673,0.409 0.024,0.267 -0.139,0.549 -0.215,0.827 -0.327,1.212 -1.061,1.672 -2.342,1.503 -1.014,-0.133 -2.059,-0.044 -3.09,-0.017 -0.356,0.009 -0.528,-0.115 -0.649,-0.435 -0.164,-0.431 -0.354,-0.856 -0.573,-1.261 -0.244,-0.453 -0.343,-0.82 0.319,-1.022 h -2.168 c 0.296,0.543 0.658,1.116 0.932,1.729 0.961,2.147 1.888,4.309 2.834,6.462 0.179,0.41 0.418,0.819 -0.277,1.03 H -0.41 C -1.037,5.043 -0.837,4.656 -0.638,4.237 0.46,1.922 1.538,-0.403 2.645,-2.714 c 0.202,-0.422 0.51,-0.794 0.77,-1.191"/></g><g transform="translate(289.5123,26.0128)" id="g188"><path id="path190" style="fill:#000000;fill-opacity:1;fill-rule:nonzero;stroke:none" d="M 0,0 C -0.703,-1.574 -1.337,-2.996 -1.988,-4.454 H 2.136 C 1.426,-2.976 0.749,-1.563 0,0 m 2.995,-8.365 c 0.783,0.453 0.703,0.425 0.397,1.298 -0.396,1.133 -1.042,1.591 -2.27,1.44 C 0.086,-5.753 -0.979,-5.669 -2.03,-5.643 -2.385,-5.635 -2.56,-5.756 -2.68,-6.077 -2.845,-6.508 -3.036,-6.932 -3.254,-7.338 -3.497,-7.79 -3.603,-8.16 -2.935,-8.36 h -2.168 c 0.295,0.541 0.657,1.115 0.932,1.727 0.961,2.147 1.883,4.311 2.837,6.461 0.189,0.429 0.372,0.809 -0.28,1.032 H 1.733 C 1.11,0.583 1.305,0.198 1.505,-0.222 2.603,-2.538 3.68,-4.863 4.788,-7.174 4.991,-7.598 5.3,-7.972 5.557,-8.365 Z"/></g><g transform="translate(308.3175,26.8875)" id="g192"><path id="path194" style="fill:#000000;fill-opacity:1;fill-rule:nonzero;stroke:none" d="M 0,0 H 1.889 C 1.785,-0.41 1.614,-0.795 1.605,-1.184 1.572,-2.7 1.586,-4.216 1.593,-5.732 c 0.006,-1.433 0.51,-2.162 1.921,-2.352 1.022,-0.137 2.102,-0.099 3.122,0.068 1.207,0.198 1.689,0.921 1.696,2.145 0.009,1.58 0.021,3.159 -0.01,4.738 -0.007,0.366 -0.179,0.729 -0.282,1.125 h 1.813 c -0.074,-0.455 -0.211,-0.926 -0.22,-1.4 -0.027,-1.6 -0.019,-3.2 -0.007,-4.8 C 9.635,-7.437 9.09,-8.331 7.977,-8.807 5.988,-9.659 3.967,-9.656 1.972,-8.822 0.825,-8.342 0.282,-7.425 0.285,-6.18 0.29,-4.433 0.298,-2.685 0.274,-0.938 0.269,-0.645 0.108,-0.355 0,0"/></g><g transform="translate(76.678,26.9306)" id="g196"><path id="path198" style="fill:#000000;fill-opacity:1;fill-rule:nonzero;stroke:none" d="m 0,0 c 1.68,0 3.359,0 5.039,0 0.925,0 1.852,-0.025 2.776,0.015 0.299,0.013 0.59,0.197 0.914,0.314 v -1.762 c -0.465,0.082 -0.972,0.24 -1.481,0.25 -1.784,0.031 -3.569,0.012 -5.402,0.012 v -2.86 c 1.406,0 2.809,-0.015 4.211,0.017 0.199,0.004 0.393,0.236 0.629,0.388 v -1.83 c -0.409,0.081 -0.84,0.229 -1.275,0.242 -1.173,0.034 -2.347,0.012 -3.595,0.012 0,-1.206 -0.019,-2.355 0.02,-3.501 0.006,-0.179 0.282,-0.347 0.469,-0.561 h -2.438 c 0.809,0.314 0.606,0.958 0.609,1.52 0.008,2.188 0.005,4.376 0.002,6.564 -0.001,0.429 0.101,0.913 -0.621,1.012 C -0.095,-0.112 -0.048,-0.056 0,0"/></g><g transform="translate(300.1947,25.8168)" id="g200"><path id="path202" style="fill:#000000;fill-opacity:1;fill-rule:nonzero;stroke:none" d="M 0,0 C -1.4,-0.277 -2.774,0.363 -4.047,-0.463 V 1.434 C -3.658,1.325 -3.284,1.132 -2.907,1.128 -0.487,1.1 1.934,1.103 4.354,1.127 4.689,1.13 5.022,1.308 5.397,1.417 V -0.371 C 5.004,-0.265 4.622,-0.09 4.232,-0.072 3.312,-0.027 2.389,-0.057 1.432,-0.057 1.407,-0.276 1.374,-0.438 1.374,-0.599 1.371,-2.766 1.356,-4.934 1.387,-7.101 c 0.004,-0.35 0.209,-0.697 0.33,-1.067 h -2.42 C 0.058,-7.891 0.004,-7.391 0.003,-6.9 -0.003,-4.859 0,-2.818 0,-0.776 Z"/></g><g transform="translate(251.4507,17.6617)" id="g204"><path id="path206" style="fill:#000000;fill-opacity:1;fill-rule:nonzero;stroke:none" d="M 0,0 C 0.116,0.362 0.33,0.73 0.336,1.1 0.37,3.225 0.354,5.351 0.351,7.476 0.351,7.66 0.325,7.843 0.303,8.131 -1.032,7.919 -2.392,8.45 -3.683,7.732 V 9.561 C -3.244,9.466 -2.788,9.288 -2.331,9.282 -0.016,9.253 2.299,9.266 4.613,9.271 5.038,9.272 5.535,9.132 5.765,9.734 V 7.811 C 5.338,7.907 4.916,8.064 4.486,8.085 3.606,8.128 2.723,8.098 1.806,8.098 1.775,7.925 1.727,7.787 1.727,7.648 1.723,5.418 1.71,3.187 1.739,0.957 1.743,0.646 1.957,0.339 2.085,0 Z"/></g><g transform="translate(242.561,25.7595)" id="g208"><path id="path210" style="fill:#000000;fill-opacity:1;fill-rule:nonzero;stroke:none" d="m 0,0 v -5.408 c 0,-0.547 -0.042,-1.099 0.015,-1.64 0.036,-0.355 0.215,-0.695 0.337,-1.066 h -2.218 c 0.565,0.251 0.494,0.75 0.494,1.213 0.003,2.063 0.001,4.125 0.001,6.188 V 0.018 C -2.737,-0.16 -4.088,0.332 -5.394,-0.333 V 1.463 C -5.003,1.367 -4.607,1.189 -4.208,1.184 -1.81,1.158 0.589,1.159 2.989,1.185 3.328,1.188 3.664,1.372 4.029,1.481 V -0.514 C 3.612,0.157 2.987,-0.008 2.414,-0.002 1.64,0.006 0.866,0 0,0"/></g><g transform="translate(228.974,19.3127)" id="g212"><path id="path214" style="fill:#000000;fill-opacity:1;fill-rule:nonzero;stroke:none" d="m 0,0 v -1.956 c -0.428,0.077 -0.857,0.217 -1.286,0.221 -2.401,0.022 -4.801,0.011 -7.202,0.011 H -9.17 c 0.639,0.407 0.462,1.016 0.464,1.564 0.004,2.211 0.015,4.422 -0.012,6.633 -0.005,0.353 -0.193,0.704 -0.305,1.083 h 2.265 C -7.539,7.246 -7.41,6.678 -7.411,6.16 -7.414,4.117 -7.398,2.075 -7.423,0.033 c -0.005,-0.479 0.144,-0.607 0.611,-0.601 1.915,0.024 3.832,0.01 5.748,0.01 0.434,0 0.885,-0.028 0.891,0.692 C -0.115,0.089 -0.058,0.045 0,0"/></g><g transform="translate(234.134,17.623)" id="g216"><path id="path218" style="fill:#000000;fill-opacity:1;fill-rule:nonzero;stroke:none" d="m 0,0 h -2.068 c 0.106,0.464 0.294,0.917 0.3,1.373 0.031,2.29 0.026,4.581 -0.002,6.872 -0.002,0.318 -0.203,0.634 -0.324,0.988 H 0.089 C -0.632,8.885 -0.466,8.279 -0.466,7.73 -0.47,5.502 -0.469,3.275 -0.467,1.047 -0.467,0.649 -0.55,0.204 0.169,0.171 0.112,0.114 0.057,0.057 0,0"/></g><g transform="translate(162.5328,30.1864)" id="g220"><path id="path222" style="fill:#000000;fill-opacity:1;fill-rule:nonzero;stroke:none" d="M 0,0 C -0.008,0.695 -0.586,1.28 -1.275,1.289 -1.992,1.3 -2.61,0.696 -2.611,-0.015 c -0.002,-0.719 0.602,-1.323 1.32,-1.322 0.715,0 1.299,0.606 1.291,1.337 m -1.318,-2.147 c -1.224,0.013 -2.132,0.957 -2.109,2.191 0.023,1.17 0.989,2.083 2.18,2.061 1.166,-0.022 2.133,-1.02 2.099,-2.164 -0.035,-1.184 -0.988,-2.101 -2.17,-2.088"/></g></g></g><g id="g264"><g clip-path="url(#clipPath270)" id="g266"><g transform="translate(7.7905,10.7738)" id="g272"><path id="path274" style="fill:#000000;fill-opacity:1;fill-rule:nonzero;stroke:none" d="M 0,0 C 1.427,8.839 5.002,18.243 11.486,23.636 11.689,22.207 12.595,20.59 13.76,19.668 7.463,15.267 2.928,7.675 -0.002,0.003"/></g><g transform="translate(54.0454,60.104)" id="g276"><path id="path278" style="fill:#000000;fill-opacity:1;fill-rule:nonzero;stroke:none" d="M 0,0 -0.193,0.655 -0.543,1.27 -0.802,1.446 -0.95,1.462 -1.254,1.389 -1.578,1.167 -2.554,-0.073 -4.205,-1.909 -6.116,-3.57 -8.241,-5.1 l -3.088,-1.866 -1.635,-0.859 -3.382,-1.635 -8.513,-3.82 -3.166,-1.544 -2.942,-1.719 -2.741,-1.896 -2.534,-2.042 -1.199,-1.083 -1.151,-1.119 -2.126,-2.333 -0.994,-1.224 -1.838,-2.537 -1.633,-2.65 -1.444,-2.771 -0.638,-1.416 -0.599,-1.457 -1.048,-2.96 -0.45,-1.532 -0.765,-3.091 -0.565,-3.159 -0.38,-3.253 -0.118,-1.634 -0.021,-0.72 2.218,-3.85 0.195,3.199 0.292,3.208 0.423,3.119 0.567,3.051 0.745,3.002 0.452,1.472 1.064,2.958 1.329,2.931 1.57,2.946 0.892,1.455 1.532,2.132 1.165,1.323 1.326,1.214 1.502,1.091 1.709,0.919 0.931,0.392 0.029,-0.727 0.101,-0.683 0.145,-0.642 0.206,-0.615 0.261,-0.582 0.308,-0.524 0.725,-0.952 0.893,-0.787 0.495,-0.318 1.033,-0.527 1.122,-0.349 0.585,-0.102 1.181,-0.057 0.599,0.043 1.164,0.219 1.126,0.426 0.537,0.288 1.018,0.743 0.466,0.452 0.834,1.045 0.672,1.288 0.259,0.728 0.412,-0.348 1.224,-0.905 1.212,-0.701 0.815,-0.35 1.181,-0.378 0.772,-0.161 0.757,-0.069 h 0.731 l 0.715,0.069 0.682,0.132 0.658,0.188 0.643,0.266 0.584,0.303 0.564,0.379 0.526,0.424 0.481,0.467 0.815,1.063 0.628,1.225 0.395,1.341 0.113,0.713 0.046,0.749 -0.016,0.752 -0.086,0.775 -0.157,0.789 -0.237,0.801 -0.702,1.604 -0.478,0.818 0.455,0.233 1.293,0.812 1.18,0.994 1.08,1.15 0.657,0.832 0.581,0.892 0.542,0.93 0.451,0.978 0.394,1.008 0.321,1.032 0.249,1.038 0.159,1.062 0.073,1.064 v 1.066 z"/></g><g transform="translate(6.2638,26.764)" id="g280"><path id="path282" style="fill:#000000;fill-opacity:1;fill-rule:nonzero;stroke:none" d="m 0,0 -0.631,0.183 c 1.002,6.13 2.615,11.263 4.034,15.799 0.255,0.822 0.503,1.619 0.736,2.386 l 0.081,0.269 0.277,-0.039 c 3.094,-0.418 6.786,4.334 8.203,8.772 1.173,3.752 3.692,7.793 6.457,7.793 1.024,0 1.984,-0.544 2.85,-1.62 1.865,1.455 3.757,1.597 5.749,1.748 2.181,0.166 4.437,0.339 6.839,2.346 l 0.74,0.612 -0.21,-0.936 C 34.572,34.77 30.179,28.667 26.475,26.658 20.468,23.334 5.845,14.088 0,0 M 4.693,17.92 C 4.482,17.228 4.257,16.52 4.026,15.789 2.825,11.923 1.482,7.624 0.484,2.653 c 6.49,12.931 19.95,21.42 25.678,24.584 3.082,1.673 6.792,6.491 7.984,9.233 -2.236,-1.522 -4.312,-1.682 -6.344,-1.835 -1.973,-0.15 -3.847,-0.29 -5.636,-1.816 l -0.271,-0.225 -0.209,0.285 c -0.791,1.081 -1.646,1.625 -2.531,1.625 -2.32,0 -4.686,-3.688 -5.828,-7.33 -1.45,-4.548 -5.19,-9.445 -8.634,-9.254"/></g></g></g></g></svg>
