<?xml version="1.0" encoding="UTF-8" standalone="no"?>
<svg
   xmlns:dc="http://purl.org/dc/elements/1.1/"
   xmlns:cc="http://creativecommons.org/ns#"
   xmlns:rdf="http://www.w3.org/1999/02/22-rdf-syntax-ns#"
   xmlns:svg="http://www.w3.org/2000/svg"
   xmlns="http://www.w3.org/2000/svg"
   viewBox="0 0 351.86667 90.708664"
   height="90.708664"
   width="351.86667"
   xml:space="preserve"
   id="svg2"
   version="1.1"><metadata
     id="metadata8"><rdf:RDF><cc:Work
         rdf:about=""><dc:format>image/svg+xml</dc:format><dc:type
           rdf:resource="http://purl.org/dc/dcmitype/StillImage" /></cc:Work></rdf:RDF></metadata><defs
     id="defs6"><clipPath
       id="clipPath18"
       clipPathUnits="userSpaceOnUse"><path
         id="path16"
         d="M 2.835,2.835 H 65.197 V 65.197 H 2.835 Z" /></clipPath><clipPath
       id="clipPath46"
       clipPathUnits="userSpaceOnUse"><path
         id="path44"
         d="M 0,0 H 263.9 V 68.031 H 0 Z" /></clipPath></defs><g
     transform="matrix(1.3333333,0,0,-1.3333333,0,90.708667)"
     id="g10"><g
       id="g12"><g
         clip-path="url(#clipPath18)"
         id="g14"><g
           transform="translate(34.0156,16.1506)"
           id="g20"><path
             id="path22"
             style="fill:none;stroke:#020404;stroke-width:0.44;stroke-linecap:butt;stroke-linejoin:miter;stroke-miterlimit:4;stroke-dasharray:none;stroke-opacity:1"
             d="M 0,0 C 9.867,0 17.865,7.999 17.865,17.865 17.865,27.732 9.867,35.73 0,35.73 -9.866,35.73 -17.865,27.732 -17.865,17.865 -17.865,7.999 -9.866,0 0,0 Z m 0,0.998 c 9.316,0 16.867,7.552 16.867,16.867 0,9.316 -7.551,16.867 -16.867,16.867 -9.315,0 -16.867,-7.551 -16.867,-16.867 C -16.867,8.55 -9.315,0.998 0,0.998 Z m 0,-12.535 c 16.238,0 29.402,13.164 29.402,29.402 0,16.238 -13.164,29.402 -29.402,29.402 -16.238,0 -29.402,-13.164 -29.402,-29.402 0,-16.238 13.164,-29.402 29.402,-29.402 z m 0,-1.559 c 17.099,0 30.961,13.862 30.961,30.961 0,17.1 -13.862,30.961 -30.961,30.961 -17.099,0 -30.961,-13.861 -30.961,-30.961 0,-17.099 13.862,-30.961 30.961,-30.961 z" /></g><g
           transform="translate(34.0953,13.8027)"
           id="g24"><path
             id="path26"
             style="fill:none;stroke:#020404;stroke-width:1.98000002;stroke-linecap:butt;stroke-linejoin:miter;stroke-miterlimit:4;stroke-dasharray:none;stroke-opacity:1"
             d="m 0,0 c 11.163,0 20.213,9.05 20.213,20.213 0,11.163 -9.05,20.213 -20.213,20.213 -11.163,0 -20.213,-9.05 -20.213,-20.213 C -20.213,9.05 -11.163,0 0,0 Z" /></g><g
           transform="translate(35.1942,50.916)"
           id="g28"><path
             id="path30"
             style="fill:none;stroke:#020404;stroke-width:0.44;stroke-linecap:butt;stroke-linejoin:miter;stroke-miterlimit:4;stroke-dasharray:none;stroke-opacity:1"
             d="M 0,0 C 0.075,-12.632 3.595,-18.879 13.847,-24.827 M -0.865,0.001 C -0.788,-13.07 2.856,-19.536 13.466,-25.69 M -2.264,0.044 C -2.339,-12.587 -5.859,-18.835 -16.111,-24.783 M -1.399,0.045 C -1.476,-13.026 -5.12,-19.492 -15.73,-25.646 m 15.636,-8.108 c 0.074,12.632 3.584,18.88 13.804,24.827 M -0.957,-33.755 c 0.077,13.072 3.71,19.537 14.287,25.692 M -2.353,-33.798 c -0.074,12.632 -3.584,18.88 -13.804,24.827 M -1.49,-33.799 c -0.077,13.072 -3.71,19.537 -14.287,25.691" /></g><g
           transform="translate(56.3524,44.1697)"
           id="g32"><path
             id="path34"
             style="fill:#000000;fill-opacity:1;fill-rule:nonzero;stroke:none"
             d="m 0,0 c -0.297,-0.133 -0.423,-0.498 -0.287,-0.803 0.129,-0.289 0.481,-0.431 0.778,-0.298 0.314,0.14 0.452,0.501 0.323,0.79 C 0.677,-0.006 0.313,0.14 0,0 m -2.798,0.768 c 0.349,-0.55 0.63,-0.777 1.016,-0.532 0.075,0.048 0.137,0.098 0.231,0.179 -0.188,0.016 -0.326,0.168 -0.392,0.272 l -0.828,1.298 c 0,0 0.849,0.583 1.626,1.068 0.147,-0.23 0.297,-0.5 0.467,-0.767 C -0.446,1.923 -0.151,1.672 0.213,1.904 0.287,1.951 0.364,2.011 0.451,2.087 0.232,2.136 0.119,2.314 0.015,2.477 l -0.591,0.928 c 0.467,0.298 1.32,0.81 1.727,1.038 L 1.538,3.771 C 1.708,3.472 1.779,3.017 1.584,2.83 L 1.693,2.66 C 2.056,2.745 2.386,2.997 2.53,3.328 L 1.637,4.68 0.847,5.919 0.654,5.879 C 0.556,5.639 0.543,5.579 -0.064,5.171 L -3.463,3.005 c 0,0 -0.277,-0.187 -0.546,-0.338 z m -4.928,5.931 0.938,-0.941 c 0.075,0.211 0.941,1.087 1.602,1.746 l 0.361,0.36 C -4.926,6.968 -5.289,5.164 -5.465,4.43 l 1.131,-1.134 c -0.05,0.174 0.391,3.185 0.56,4.212 1.176,-0.046 1.861,-0.072 2.383,-0.085 0.417,-0.007 0.716,0.042 1.034,0.172 -0.037,0.15 -0.168,0.331 -0.354,0.518 -0.224,0.224 -0.491,0.417 -0.628,0.455 L -1.495,8.5 C -1.507,8.437 -1.545,8.388 -1.595,8.338 -1.669,8.263 -1.8,8.195 -1.974,8.183 -2.677,8.141 -3.854,8.099 -4.631,8.057 c 0.754,0.726 1.514,1.435 1.975,1.844 -0.087,0.249 -0.255,0.418 -0.397,0.561 -0.286,0.287 -0.641,0.468 -0.641,0.468 l -0.18,-0.081 C -3.906,10.656 -3.893,10.495 -4.367,10.022 -7.259,7.14 -7.514,6.898 -7.726,6.699 m -2.699,1.685 c 1.043,-0.672 2.17,-0.467 2.68,0.325 0.949,1.471 -1.198,3.191 -0.602,4.116 0.267,0.414 0.725,0.296 0.999,0.12 0.333,-0.215 0.722,-0.78 0.556,-1.395 l 0.146,-0.147 c 0.28,0.061 0.499,0.286 0.618,0.471 0.066,0.104 0.116,0.197 0.137,0.278 -0.143,0.281 -0.395,0.8 -1.061,1.229 -0.999,0.643 -1.959,0.258 -2.393,-0.415 -0.887,-1.376 1.038,-3.099 0.528,-3.89 -0.324,-0.503 -0.886,-0.319 -1.256,-0.081 -0.399,0.258 -0.902,0.907 -0.779,1.309 -0.153,-0.059 -0.266,-0.153 -0.338,-0.264 -0.276,-0.429 0.033,-1.184 0.765,-1.656 m -3.299,5.874 c 0.224,0.574 0.436,1.143 0.541,1.376 l 0.168,-0.053 c 0.815,-0.257 0.923,-1.076 0.662,-1.777 -0.209,-0.561 -0.74,-0.955 -1.457,-0.688 -0.099,0.037 -0.207,0.077 -0.296,0.139 z m -1.255,-3.599 c 0.064,0.399 0.381,1.276 0.688,2.101 0.055,-0.03 0.113,-0.051 0.167,-0.081 0.031,-0.068 0.073,-0.158 0.101,-0.235 0.292,-0.728 0.665,-1.693 0.71,-2.405 l 1.451,-0.541 c 0,0 -0.221,0.515 -0.41,1.017 -0.234,0.632 -0.392,1.141 -0.566,1.657 -0.033,0.088 -0.08,0.189 -0.138,0.286 0.773,0.032 1.471,0.42 1.741,1.145 0.486,1.303 -0.392,2.099 -1.28,2.412 l -1.78,0.616 -0.131,-0.149 c 0.093,-0.279 0.007,-0.613 -0.129,-0.976 l -1.517,-4.074 -0.128,-0.318 z m -4.15,6.968 c 1.365,-0.153 2.391,-1.268 2.176,-3.184 -0.232,-1.762 -1.53,-2.989 -3.366,-2.784 -1.181,0.132 -2.285,1.265 -2.069,3.189 0.205,1.837 1.58,2.967 3.259,2.779 m -0.702,-5.403 c 0.744,-0.083 1.405,0.844 1.542,2.068 0.159,1.417 -0.411,2.649 -1.216,2.739 -0.752,0.085 -1.422,-0.832 -1.558,-2.048 -0.148,-1.329 0.375,-2.663 1.232,-2.759 m -5.088,1.78 c 0.034,-0.181 0.194,-0.653 0.194,-0.653 0,0 -0.262,0.444 -0.481,0.608 -0.387,0.295 -3.505,2.646 -4.025,3.077 -0.292,-0.019 -0.692,-0.174 -0.799,-0.275 l -0.035,-0.195 c 0.227,-0.208 0.323,-0.387 0.409,-0.845 0,0 0.114,-0.605 0.272,-1.444 0.157,-0.839 0.368,-1.964 0.57,-3.09 l 0.026,-0.138 0.761,0.143 c -0.171,0.532 -0.362,1.454 -0.554,2.474 -0.081,0.433 -0.13,0.791 -0.209,1.214 -0.025,0.13 -0.071,0.328 -0.106,0.419 0.09,-0.144 0.463,-0.513 0.463,-0.513 l 3.883,-2.942 0.753,0.141 c -0.102,0.402 -0.23,0.987 -0.353,1.644 -0.255,1.358 -0.504,2.968 -0.668,4.128 -0.089,0.046 -0.253,0.06 -0.408,0.031 -0.173,-0.033 -0.482,-0.153 -0.557,-0.23 l -0.044,-0.196 c 0.18,-0.146 0.363,-0.362 0.459,-0.872 0.512,-2.725 0.449,-2.486 0.449,-2.486 m -9.744,-5.743 c -0.144,0.252 -0.32,0.557 -2.45,4.04 -0.128,0.211 -0.235,0.352 -0.322,0.443 l -0.661,-0.404 c -0.36,-0.22 -0.517,-0.554 -0.409,-0.797 l -0.173,-0.106 c -0.273,0.277 -0.496,0.574 -0.431,1.026 l 1.173,0.645 1.516,0.927 1.109,0.751 c 0.432,-0.149 0.595,-0.483 0.717,-0.852 l -0.173,-0.105 c -0.167,0.207 -0.536,0.219 -0.896,-0.002 l -0.661,-0.404 c 0.374,-0.679 0.919,-1.604 1.47,-2.505 0.487,-0.796 1.137,-1.842 1.325,-1.964 z M -37.197,6.37 c 0.481,0.439 0.658,0.755 0.349,1.093 -0.059,0.065 -0.119,0.118 -0.215,0.197 0.016,-0.188 -0.109,-0.35 -0.201,-0.433 l -1.138,-1.038 c 0,0 -0.719,0.737 -1.329,1.419 0.201,0.184 0.441,0.379 0.675,0.592 0.318,0.291 0.514,0.624 0.224,0.943 -0.059,0.065 -0.131,0.131 -0.221,0.203 -0.011,-0.224 -0.167,-0.366 -0.31,-0.496 l -0.812,-0.741 c -0.374,0.409 -1.025,1.162 -1.319,1.524 l 0.596,0.496 c 0.265,0.218 0.702,0.366 0.919,0.207 l 0.149,0.136 c -0.146,0.343 -0.451,0.625 -0.802,0.71 l -1.178,-1.111 -1.086,-0.99 0.072,-0.184 c 0.253,-0.055 0.315,-0.058 0.82,-0.586 l 2.716,-2.978 c 0,0 0.232,-0.241 0.426,-0.481 z M -41.686,2.123 -42.172,1.4 c -0.404,0.25 -0.855,0.542 -1.373,0.891 -0.869,0.584 -2.174,1.513 -2.51,1.739 l 0.164,0.261 c 0.585,0.932 2.03,1 3.279,0.161 1.11,-0.746 1.309,-1.76 0.926,-2.329 m 0.416,-0.407 c 0.957,1.424 0.458,3.096 -0.996,4.072 -1.555,1.046 -3.117,0.41 -3.91,-0.818 l -1.151,-1.792 0.114,-0.161 c 0.329,0.033 0.692,-0.201 0.992,-0.402 l 3.447,-2.316 c 0.095,-0.064 0.251,-0.179 0.37,-0.27 z m -4.061,-3.241 c 0.3,-0.125 0.652,0.033 0.781,0.342 0.122,0.292 -0.017,0.646 -0.317,0.771 -0.317,0.132 -0.674,-0.015 -0.796,-0.307 -0.128,-0.309 0.015,-0.674 0.332,-0.806" /></g><g
           transform="translate(61.7178,40.8684)"
           id="g36"><path
             id="path38"
             style="fill:#000000;fill-opacity:1;fill-rule:nonzero;stroke:none"
             d="M 0,0 -0.339,1.285 C -0.51,1.14 -1.699,0.817 -2.601,0.579 c -1.234,-0.326 -2.64,-0.652 -3.392,-0.804 -0.05,-0.259 0.011,-0.489 0.062,-0.685 0.104,-0.391 0.319,-0.726 0.319,-0.726 l 0.197,-0.021 c 0.124,0.151 0.195,0.297 0.841,0.468 C -0.626,-0.147 -0.283,-0.066 0,0 m 0.956,-5.51 c -0.25,0.068 -0.569,0.125 -0.819,0.193 l -3.329,1.191 -0.499,0.119 0.5,0.049 c 0.597,0.052 1.511,0.084 2.417,0.124 0.272,0.012 0.563,0.017 0.862,0.03 L 0.66,-3.788 0.601,-2.46 c -0.157,-0.051 -0.402,-0.08 -0.56,-0.096 -1.501,-0.119 -3.74,-0.271 -5.362,-0.255 0.059,-0.543 0.061,-1.363 0.454,-1.504 0.099,-0.03 0.384,-0.115 1.913,-0.628 0.591,-0.203 1.535,-0.434 2.572,-0.785 -1.129,-0.561 -3.789,-1.753 -4.606,-2.001 -0.116,-0.173 -0.129,-0.464 -0.117,-0.736 0.014,-0.317 0.079,-0.587 0.157,-0.777 l 0.189,-0.071 c 0.016,0.027 0.055,0.134 0.304,0.286 0.713,0.005 3.214,0.037 5.161,0.018 l 0.185,-0.01 -0.035,0.792 C 0.752,-8.258 0.498,-8.287 0.357,-8.294 -0.206,-8.301 -1.728,-8.351 -2.59,-8.38 c -0.22,-0.01 -0.668,-0.039 -0.878,-0.057 0.995,0.414 2.713,1.186 3.671,1.634 0.191,0.061 0.569,0.281 0.66,0.804 z m -0.733,-6.598 c 0.135,0.637 0.094,0.996 -0.354,1.091 -0.086,0.018 -0.165,0.026 -0.289,0.034 0.122,-0.143 0.115,-0.348 0.09,-0.469 l -0.319,-1.507 c 0,0 -1.014,0.179 -1.908,0.376 0.056,0.267 0.137,0.565 0.203,0.875 0.089,0.422 0.053,0.807 -0.369,0.896 -0.086,0.018 -0.182,0.03 -0.298,0.036 0.122,-0.187 0.079,-0.394 0.039,-0.583 l -0.228,-1.077 c -0.542,0.115 -1.509,0.346 -1.96,0.468 l 0.194,0.751 c 0.088,0.332 0.356,0.707 0.626,0.704 l 0.041,0.198 c -0.319,0.193 -0.731,0.244 -1.065,0.108 l -0.309,-1.59 -0.303,-1.438 0.166,-0.107 c 0.237,0.103 0.289,0.137 1.008,0.003 l 3.943,-0.832 c 0,0 0.329,-0.061 0.627,-0.142 z m -2.74,-6.48 -0.363,-0.792 c -0.44,0.183 -0.931,0.399 -1.499,0.66 -0.951,0.437 -2.388,1.146 -2.756,1.315 l 0.121,0.283 c 0.427,1.015 1.842,1.313 3.21,0.685 1.215,-0.559 1.574,-1.527 1.287,-2.151 m 0.476,-0.335 c 0.716,1.56 -0.044,3.129 -1.635,3.86 -1.703,0.783 -3.143,-0.095 -3.729,-1.434 l -0.849,-1.953 0.138,-0.141 c 0.32,0.085 0.716,-0.087 1.043,-0.238 l 3.775,-1.734 c 0.104,-0.048 0.276,-0.136 0.408,-0.207 z m -5.102,-3.542 -0.982,-1.265 -1.29,2.026 z m -1.976,1.946 c -0.169,0.054 -0.514,0.199 -0.735,0.315 -0.401,-0.602 -0.512,-1.218 -0.136,-1.71 l 2.797,-4.678 0.512,0.66 c 0,0 -0.048,0.038 -0.095,0.108 l -1.014,1.578 1.236,1.592 1.486,-0.497 c 0.242,-0.076 0.395,-0.195 0.395,-0.195 l 0.863,1.113 c -0.216,0.022 -0.469,0.085 -0.803,0.2 z m -2.402,-9.613 1.03,0.839 c -0.203,0.096 -0.988,1.045 -1.578,1.768 l -0.322,0.396 c 0.881,-0.19 2.64,-0.732 3.353,-0.979 l 1.241,1.012 c -0.178,-0.032 -3.13,0.706 -4.135,0.977 0.163,1.166 0.257,1.844 0.322,2.363 0.049,0.414 0.029,0.716 -0.069,1.045 -0.152,-0.022 -0.345,-0.134 -0.549,-0.301 -0.246,-0.2 -0.465,-0.446 -0.516,-0.579 l 0.052,-0.161 c 0.061,-0.019 0.107,-0.061 0.151,-0.116 0.067,-0.082 0.122,-0.219 0.117,-0.393 -0.028,-0.704 -0.104,-1.879 -0.139,-2.657 -0.648,0.823 -1.277,1.65 -1.639,2.15 -0.257,-0.062 -0.441,-0.212 -0.598,-0.34 -0.314,-0.256 -0.529,-0.59 -0.529,-0.59 l 0.062,-0.188 c 0.189,-0.05 0.351,-0.054 0.774,-0.573 2.58,-3.164 2.796,-3.443 2.972,-3.673 m -4.55,0.293 -1.438,-0.704 -0.267,2.388 z m -0.918,2.618 c -0.129,0.123 -0.374,0.404 -0.522,0.606 -0.625,-0.364 -0.995,-0.869 -0.875,-1.476 l 0.454,-5.431 0.751,0.367 c 0,0 -0.027,0.056 -0.038,0.138 l -0.217,1.864 1.81,0.886 1.117,-1.1 c 0.183,-0.175 0.268,-0.349 0.268,-0.349 l 1.265,0.619 c -0.184,0.116 -0.383,0.283 -0.633,0.533 z m -4.737,-5.417 c 0.032,0.019 0.091,0.036 0.158,0.055 0.127,0.037 0.647,0.17 0.85,0.229 0.634,0.185 1.189,0.355 1.039,1.091 -0.093,-0.119 -0.55,-0.252 -1.149,-0.426 -0.398,-0.116 -1.082,-0.315 -1.092,-0.281 z m -2.847,-2.398 c 1.23,0.164 1.955,1.051 1.83,1.984 -0.232,1.736 -2.982,1.653 -3.127,2.743 -0.065,0.489 0.36,0.696 0.682,0.74 0.393,0.052 1.056,-0.126 1.328,-0.702 l 0.207,-0.017 c 0.173,0.227 0.194,0.541 0.165,0.759 -0.017,0.122 -0.039,0.226 -0.076,0.3 -0.291,0.122 -0.819,0.353 -1.605,0.248 -1.177,-0.157 -1.658,-1.074 -1.552,-1.868 0.216,-1.622 2.799,-1.685 2.924,-2.619 0.079,-0.593 -0.468,-0.817 -0.904,-0.875 -0.471,-0.063 -1.275,0.105 -1.442,0.491 -0.078,-0.144 -0.103,-0.289 -0.086,-0.42 0.068,-0.506 0.792,-0.88 1.656,-0.764 m -5.55,3.853 c 0.044,0.614 0.079,1.229 0.111,1.483 l 0.177,-0.001 c 0.854,-0.005 1.199,-0.765 1.156,-1.512 -0.034,-0.597 -0.426,-1.13 -1.19,-1.087 -0.106,0.006 -0.22,0.013 -0.324,0.045 z m -0.138,-3.809 c -0.056,0.4 -0.012,1.331 0.038,2.21 0.114,-0.015 0.219,-0.03 0.333,-0.037 1.186,-0.067 2.276,0.646 2.339,1.744 0.079,1.389 -0.994,1.899 -1.935,1.935 l -1.883,0.064 -0.081,-0.181 c 0.172,-0.239 0.188,-0.583 0.165,-0.97 0.003,0.053 -0.153,-2.697 -0.248,-4.349 l -0.028,-0.342 z m -4.484,3.345 -1.543,0.428 1.384,1.963 z m 1.05,2.568 c -0.015,0.177 -0.012,0.551 0.012,0.8 -0.71,0.142 -1.321,0.01 -1.634,-0.524 l -3.265,-4.364 0.806,-0.223 c 0,0 0.016,0.059 0.063,0.128 l 1.074,1.538 1.942,-0.539 0.106,-1.563 c 0.021,-0.253 -0.031,-0.439 -0.031,-0.439 l 1.357,-0.376 c -0.061,0.208 -0.099,0.466 -0.12,0.818 z m -9.788,-1.385 1.163,-0.641 c 0.013,0.224 0.6,1.307 1.05,2.124 l 0.247,0.447 c 0.153,-0.889 0.308,-2.722 0.345,-3.476 l 1.403,-0.773 c -0.097,0.154 -0.515,3.168 -0.639,4.201 1.141,0.285 1.806,0.451 2.311,0.584 0.402,0.11 0.676,0.241 0.944,0.455 -0.077,0.133 -0.253,0.27 -0.484,0.397 -0.278,0.153 -0.588,0.264 -0.73,0.262 l -0.131,-0.109 c 0.006,-0.063 -0.016,-0.121 -0.05,-0.183 -0.051,-0.093 -0.158,-0.195 -0.322,-0.255 -0.663,-0.237 -1.781,-0.606 -2.515,-0.864 0.52,0.909 1.052,1.801 1.381,2.323 -0.153,0.215 -0.361,0.33 -0.539,0.428 -0.354,0.195 -0.745,0.27 -0.745,0.27 l -0.151,-0.128 c 0.024,-0.194 0.081,-0.346 -0.242,-0.932 -1.971,-3.576 -2.148,-3.88 -2.296,-4.13 m -3.315,2.515 c 0.943,-0.806 2.087,-0.755 2.699,-0.04 1.139,1.331 -0.757,3.324 -0.042,4.16 0.321,0.374 0.759,0.196 1.006,-0.016 0.301,-0.257 0.611,-0.87 0.363,-1.457 l 0.125,-0.165 c 0.286,0.022 0.533,0.216 0.676,0.384 0.08,0.093 0.142,0.179 0.173,0.256 -0.104,0.298 -0.284,0.846 -0.886,1.361 -0.902,0.772 -1.906,0.519 -2.427,-0.089 -1.064,-1.244 0.612,-3.21 -0.001,-3.926 -0.389,-0.454 -0.921,-0.196 -1.255,0.09 -0.361,0.309 -0.772,1.02 -0.596,1.402 -0.159,-0.038 -0.284,-0.116 -0.37,-0.216 -0.332,-0.388 -0.127,-1.177 0.535,-1.744 m -1.253,4.563 c -0.149,-0.11 -0.503,-0.459 -0.503,-0.459 0,0 0.285,0.429 0.338,0.698 0.096,0.476 0.855,4.307 1.016,4.963 -0.144,0.254 -0.458,0.547 -0.595,0.599 l -0.191,-0.053 c -0.088,-0.295 -0.207,-0.46 -0.582,-0.737 0,0 -0.496,-0.366 -1.183,-0.873 -0.686,-0.507 -1.607,-1.187 -2.532,-1.859 l -0.113,-0.084 0.46,-0.623 c 0.404,0.386 1.151,0.96 1.986,1.576 0.354,0.262 0.655,0.462 1.002,0.718 0.106,0.079 0.263,0.206 0.331,0.278 -0.091,-0.144 -0.26,-0.641 -0.26,-0.641 l -0.958,-4.777 0.455,-0.615 c 0.317,0.267 0.788,0.636 1.326,1.033 1.112,0.821 2.452,1.746 3.425,2.399 0.003,0.1 -0.056,0.254 -0.15,0.381 -0.105,0.142 -0.348,0.367 -0.449,0.401 l -0.196,-0.046 c -0.053,-0.225 -0.167,-0.484 -0.585,-0.793 -2.23,-1.647 -2.042,-1.486 -2.042,-1.486 m -5.718,5.144 c 0.257,-0.598 0.498,-0.868 0.919,-0.687 0.08,0.035 0.15,0.074 0.256,0.139 -0.183,0.046 -0.295,0.218 -0.344,0.331 l -0.608,1.415 c 0,0 0.932,0.439 1.776,0.793 0.108,-0.251 0.213,-0.541 0.338,-0.832 0.171,-0.396 0.422,-0.69 0.818,-0.52 0.081,0.035 0.166,0.081 0.264,0.143 -0.208,0.082 -0.291,0.276 -0.368,0.454 l -0.434,1.011 c 0.509,0.219 1.433,0.588 1.872,0.748 l 0.273,-0.726 c 0.12,-0.322 0.117,-0.783 -0.105,-0.936 l 0.08,-0.186 c 0.372,0.026 0.738,0.222 0.933,0.526 l -0.664,1.477 -0.581,1.35 -0.197,-0.008 c -0.135,-0.221 -0.158,-0.279 -0.822,-0.584 l -3.703,-1.592 c 0,0 -0.303,-0.141 -0.593,-0.246 z m -1.503,6.872 -0.158,0.857 c 0.464,0.104 0.99,0.21 1.604,0.324 1.03,0.191 2.613,0.439 3.011,0.513 l 0.065,-0.302 c 0.234,-1.075 -0.751,-2.134 -2.23,-2.408 -1.316,-0.244 -2.167,0.341 -2.292,1.016 m -0.581,0 c 0.312,-1.687 1.838,-2.532 3.56,-2.214 1.843,0.342 2.514,1.889 2.222,3.32 l -0.431,2.086 -0.194,0.036 c -0.213,-0.254 -0.635,-0.341 -0.99,-0.407 l -4.084,-0.756 c -0.113,-0.021 -0.305,-0.047 -0.453,-0.066 z m -0.39,5.87 -0.009,-1.329 c 0.203,0.095 1.435,0.096 2.368,0.09 1.276,-0.008 2.719,-0.061 3.484,-0.11 0.116,0.237 0.118,0.475 0.119,0.677 0.002,0.405 -0.118,0.784 -0.118,0.784 l -0.185,0.072 c -0.159,-0.114 -0.265,-0.236 -0.934,-0.232 -4.083,0.026 -4.435,0.037 -4.725,0.048 m 0.217,3.972 0.213,0.525 c 0.198,0.491 0.625,0.618 0.825,0.635 1.264,0.204 2.732,0.451 3.995,0.647 1.082,0.14 1.332,0.38 1.359,0.429 l 0.167,-0.112 c 0.032,-0.211 0.03,-0.515 -0.023,-0.801 -0.05,-0.268 -0.144,-0.537 -0.322,-0.674 -1.266,-0.025 -4.414,-0.543 -5.009,-0.666 1.066,-0.475 2.267,-1.386 3.366,-1.974 0.164,-0.084 0.334,-0.179 0.524,-0.214 0.191,-0.035 0.385,10e-4 0.538,0.098 l 0.128,-0.078 c 0.043,-0.205 0.054,-0.386 0.017,-0.585 -0.035,-0.19 -0.1,-0.348 -0.218,-0.505 -0.309,0.075 -0.854,0.319 -1.126,0.495 l -3.681,2.4 z" /></g></g></g><g
       id="g40"><g
         clip-path="url(#clipPath46)"
         id="g42"><g
           transform="translate(83.3601,17.0079)"
           id="g48"><path
             id="path50"
             style="fill:#000000;fill-opacity:1;fill-rule:nonzero;stroke:none"
             d="m 0,0 -1.126,0.232 c -1.054,0.215 -1.465,1.019 -1.572,1.412 -0.875,2.447 -1.911,5.288 -2.769,7.735 -0.679,2.109 -1.25,2.52 -1.358,2.555 l 0.161,0.375 c 0.411,0.143 1.018,0.251 1.608,0.251 0.554,0 1.126,-0.09 1.465,-0.393 0.518,-2.52 2.716,-8.612 3.18,-9.755 0.554,2.305 1.93,5.038 2.698,7.45 0.107,0.357 0.232,0.732 0.232,1.125 0,0.393 -0.143,0.769 -0.393,1.037 l 0.107,0.285 c 0.393,0.161 0.751,0.251 1.161,0.251 0.394,0 0.733,-0.072 1.09,-0.251 C 4.449,11.666 4.163,10.487 3.913,9.88 L 0.482,1.644 Z M 6.271,0.447 H 8.968 C 8.772,0.858 8.754,3.359 8.754,5.253 c 0,2.59 0.089,5.52 0.179,7.074 -0.483,0.233 -0.965,0.233 -1.376,0.233 -0.822,0 -1.59,-0.251 -1.59,-0.251 L 5.824,11.934 C 6.056,11.613 6.306,11.398 6.306,10.04 6.306,1.751 6.288,1.036 6.271,0.447 m 10.183,0 c 3.484,0 5.735,2.733 5.735,6.288 0,3.806 -2.841,5.717 -5.807,5.664 l -4.323,-0.09 -0.143,-0.375 c 0.429,-0.518 0.447,-1.393 0.447,-2.126 V 1.376 c 0,-0.233 -0.018,-0.626 -0.036,-0.929 z m 0.214,1.161 h -1.769 c -0.035,0.965 -0.053,2.054 -0.053,3.323 0,2.126 0.089,5.377 0.089,6.199 l 0.625,0.018 c 2.234,0.072 3.985,-2.287 3.985,-5.342 0,-2.715 -1.483,-4.198 -2.877,-4.198 M 29.263,0.447 c 1.322,0 2.019,0.232 2.019,1.161 0,0.179 -0.018,0.339 -0.054,0.589 C 30.996,1.894 30.585,1.822 30.335,1.822 h -3.126 c 0,0 -0.072,2.091 -0.054,3.949 0.554,0 1.179,-0.036 1.822,-0.036 0.876,0 1.626,0.232 1.626,1.108 0,0.178 -0.018,0.375 -0.054,0.607 -0.321,-0.322 -0.75,-0.322 -1.143,-0.322 h -2.233 c 0,1.126 0.054,3.145 0.107,4.092 l 1.572,-0.072 c 0.697,-0.036 1.555,-0.411 1.662,-0.947 h 0.411 c 0.25,0.715 0.178,1.555 -0.233,2.162 l -3.287,-0.054 h -2.983 l -0.143,-0.375 c 0.303,-0.429 0.393,-0.518 0.428,-2.001 V 1.751 c 0,0 0.018,-0.679 -0.017,-1.304 z m 13.578,4.448 c 0,-0.375 0.143,-1.375 0.143,-1.375 0,0 -0.357,0.982 -0.733,1.393 -0.661,0.733 -6.002,6.592 -6.878,7.647 -0.589,0.071 -1.447,-0.09 -1.697,-0.251 l -0.143,-0.375 c 0.375,-0.5 0.5,-0.893 0.5,-1.84 V 7.111 c 0,-1.733 0,-4.056 -0.018,-6.379 V 0.447 h 1.572 c -0.142,1.125 -0.178,3.037 -0.178,5.145 0,0.893 0.036,1.626 0.036,2.501 0,0.268 -0.018,0.679 -0.054,0.876 0.125,-0.322 0.732,-1.197 0.732,-1.197 l 6.646,-7.325 h 1.555 c -0.054,0.839 -0.09,2.054 -0.09,3.412 0,2.805 0.108,6.11 0.215,8.486 -0.161,0.125 -0.483,0.215 -0.804,0.215 -0.357,0 -1.018,-0.126 -1.197,-0.251 l -0.161,-0.375 c 0.304,-0.357 0.59,-0.857 0.59,-1.911 0,-5.628 -0.036,-5.128 -0.036,-5.128 m 7.182,-4.681 c 2.519,0 4.216,1.59 4.216,3.502 0,3.555 -5.556,4.127 -5.556,6.36 0,1.001 0.911,1.304 1.572,1.304 0.804,0 2.09,-0.536 2.483,-1.768 l 0.411,-0.09 c 0.411,0.411 0.536,1.037 0.536,1.483 0,0.25 -0.018,0.465 -0.071,0.626 -0.554,0.321 -1.554,0.929 -3.162,0.929 -2.412,0 -3.627,-1.716 -3.627,-3.341 0,-3.323 5.181,-4.145 5.181,-6.057 0,-1.215 -1.161,-1.518 -2.055,-1.518 -0.964,0 -2.536,0.553 -2.769,1.375 -0.196,-0.268 -0.286,-0.554 -0.286,-0.822 0,-1.036 1.358,-1.983 3.127,-1.983 m 6.628,0.233 h 2.698 c -0.197,0.411 -0.215,2.912 -0.215,4.806 v 1.036 c 1.144,-1.43 3.216,-4.538 4.02,-5.842 h 3.252 c -0.322,0.178 -4.02,5.127 -5.253,6.842 1.751,1.626 2.769,2.573 3.537,3.305 0.608,0.59 0.965,1.09 1.233,1.733 -0.268,0.161 -0.714,0.233 -1.25,0.233 -0.644,0 -1.305,-0.108 -1.555,-0.251 l -0.125,-0.321 c 0.072,-0.107 0.09,-0.232 0.09,-0.375 0,-0.215 -0.09,-0.501 -0.322,-0.769 -0.947,-1.071 -2.573,-2.822 -3.627,-4.001 0.036,2.126 0.107,4.234 0.179,5.484 -0.482,0.233 -0.965,0.233 -1.376,0.233 -0.822,0 -1.59,-0.251 -1.59,-0.251 l -0.143,-0.375 c 0.233,-0.321 0.483,-0.536 0.483,-1.894 0,-8.289 -0.018,-9.004 -0.036,-9.593 M 73.48,11.095 c -0.125,0.339 -0.321,1.072 -0.411,1.572 -1.465,-0.107 -2.59,-0.697 -2.912,-1.912 L 66.137,0.447 h 1.698 c 0,0 0,0.125 0.053,0.285 l 1.269,3.591 h 4.091 L 74.302,1.322 C 74.481,0.84 74.481,0.447 74.481,0.447 h 2.858 C 77.107,0.822 76.892,1.304 76.66,1.983 Z M 72.819,5.503 h -3.251 l 1.643,4.591 z m 8.843,-5.056 c -0.16,0.804 -0.178,2.697 -0.178,4.484 0.232,-0.018 0.446,-0.036 0.679,-0.036 2.411,0 4.538,1.572 4.538,3.806 0,2.822 -2.234,3.733 -4.145,3.698 l -3.824,-0.09 -0.142,-0.375 c 0.375,-0.464 0.446,-1.161 0.446,-1.947 V 1.143 L 79.018,0.447 Z m -0.16,7.735 c 0.017,1.251 0.017,2.502 0.053,3.02 l 0.358,0.018 c 1.732,0.089 2.519,-1.412 2.519,-2.93 0,-1.215 -0.733,-2.341 -2.287,-2.341 -0.215,0 -0.447,0 -0.661,0.054 z m 9.915,-7.968 c 2.519,0 4.216,1.59 4.216,3.502 0,3.555 -5.556,4.127 -5.556,6.36 0,1.001 0.911,1.304 1.572,1.304 0.804,0 2.09,-0.536 2.483,-1.768 l 0.411,-0.09 c 0.411,0.411 0.536,1.037 0.536,1.483 0,0.25 -0.018,0.465 -0.071,0.626 -0.554,0.321 -1.555,0.929 -3.162,0.929 -2.412,0 -3.627,-1.716 -3.627,-3.341 0,-3.323 5.181,-4.145 5.181,-6.057 0,-1.215 -1.161,-1.518 -2.055,-1.518 -0.964,0 -2.537,0.553 -2.769,1.375 C 88.38,2.751 88.29,2.465 88.29,2.197 c 0,-1.036 1.358,-1.983 3.127,-1.983 m 5.181,3.913 c 0.071,0.018 0.196,0.018 0.339,0.018 0.268,0 1.358,-0.036 1.787,-0.036 1.34,0 2.519,0.018 2.644,1.537 -0.25,-0.179 -1.215,-0.179 -2.483,-0.179 -0.84,0 -2.287,0 -2.287,0.071 z m 12.434,6.968 c -0.125,0.339 -0.322,1.072 -0.411,1.572 -1.465,-0.107 -2.59,-0.697 -2.912,-1.912 l -4.02,-10.308 h 1.697 c 0,0 0,0.125 0.054,0.285 l 1.269,3.591 h 4.091 l 1.054,-3.001 c 0.179,-0.482 0.179,-0.875 0.179,-0.875 h 2.858 c -0.232,0.375 -0.447,0.857 -0.679,1.536 z m -0.661,-5.592 h -3.252 l 1.644,4.591 z m 6.217,-5.056 h 2.698 c -0.197,0.411 -0.215,2.912 -0.215,4.806 v 1.036 c 1.144,-1.43 3.216,-4.538 4.02,-5.842 h 3.252 c -0.322,0.178 -4.02,5.127 -5.253,6.842 1.751,1.626 2.769,2.573 3.538,3.305 0.607,0.59 0.964,1.09 1.232,1.733 -0.268,0.161 -0.714,0.233 -1.25,0.233 -0.643,0 -1.304,-0.108 -1.555,-0.251 l -0.125,-0.321 c 0.072,-0.107 0.09,-0.232 0.09,-0.375 0,-0.215 -0.09,-0.501 -0.322,-0.769 -0.947,-1.071 -2.573,-2.822 -3.627,-4.001 0.036,2.126 0.108,4.234 0.179,5.484 -0.482,0.233 -0.965,0.233 -1.376,0.233 -0.821,0 -1.59,-0.251 -1.59,-0.251 l -0.143,-0.375 c 0.233,-0.321 0.483,-0.536 0.483,-1.894 0,-8.289 -0.018,-9.004 -0.036,-9.593 m 16.829,10.648 c -0.125,0.339 -0.321,1.072 -0.411,1.572 -1.465,-0.107 -2.59,-0.697 -2.912,-1.912 l -4.02,-10.308 h 1.698 c 0,0 0,0.125 0.053,0.285 l 1.269,3.591 h 4.091 l 1.054,-3.001 c 0.179,-0.482 0.179,-0.875 0.179,-0.875 h 2.858 c -0.232,0.375 -0.446,0.857 -0.679,1.536 z m -0.661,-5.592 h -3.251 l 1.643,4.591 z m 10.308,-5.056 c 3.484,0 5.735,2.733 5.735,6.288 0,3.806 -2.84,5.717 -5.806,5.664 l -4.323,-0.09 -0.143,-0.375 c 0.428,-0.518 0.446,-1.393 0.446,-2.126 V 1.376 c 0,-0.233 -0.018,-0.626 -0.035,-0.929 z m 0.215,1.161 h -1.769 c -0.036,0.965 -0.053,2.054 -0.053,3.323 0,2.126 0.089,5.377 0.089,6.199 l 0.625,0.018 c 2.233,0.072 3.984,-2.287 3.984,-5.342 0,-2.715 -1.483,-4.198 -2.876,-4.198 m 12.595,-1.161 c 1.322,0 2.019,0.232 2.019,1.161 0,0.179 -0.018,0.339 -0.054,0.589 -0.232,-0.303 -0.643,-0.375 -0.893,-0.375 h -3.127 c 0,0 -0.071,2.091 -0.053,3.949 0.554,0 1.179,-0.036 1.822,-0.036 0.875,0 1.626,0.232 1.626,1.108 0,0.178 -0.018,0.375 -0.054,0.607 -0.321,-0.322 -0.75,-0.322 -1.143,-0.322 h -2.233 c 0,1.126 0.053,3.145 0.107,4.092 l 1.572,-0.072 c 0.697,-0.036 1.554,-0.411 1.661,-0.947 h 0.411 c 0.25,0.715 0.179,1.555 -0.232,2.162 l -3.287,-0.054 h -2.984 l -0.143,-0.375 c 0.304,-0.429 0.393,-0.518 0.429,-2.001 V 1.751 c 0,0 0.018,-0.679 -0.018,-1.304 z M 165.486,0 c 0.161,0.5 0.304,1.143 0.465,1.644 l 2.715,6.646 0.286,1 0.054,-1.018 c 0.054,-1.215 0.036,-3.073 0.036,-4.913 0,-0.554 -0.018,-1.144 -0.018,-1.751 l -0.018,-1.161 h 2.698 c -0.09,0.321 -0.125,0.821 -0.143,1.143 -0.107,3.055 -0.215,7.611 -0.036,10.898 -1.108,-0.071 -2.769,0 -3.091,-0.786 -0.071,-0.197 -0.268,-0.768 -1.447,-3.823 -0.464,-1.179 -1.018,-3.073 -1.822,-5.146 -1.036,2.341 -3.216,7.843 -3.645,9.523 -0.339,0.25 -0.929,0.304 -1.483,0.304 -0.643,0 -1.197,-0.108 -1.59,-0.251 l -0.16,-0.375 c 0.053,-0.035 0.268,-0.125 0.553,-0.643 -0.053,-1.447 -0.214,-6.521 -0.428,-10.469 l -0.036,-0.375 h 1.608 c -0.054,0.214 -0.09,0.732 -0.09,1.018 0.036,1.143 0.072,4.234 0.09,5.985 0,0.447 -0.018,1.358 -0.036,1.787 0.75,-2.055 2.162,-5.61 2.984,-7.593 0.107,-0.393 0.518,-1.179 1.572,-1.412 z m 9.523,0.447 h 2.697 c -0.196,0.411 -0.214,2.912 -0.214,4.806 0,2.59 0.089,5.52 0.179,7.074 -0.483,0.233 -0.965,0.233 -1.376,0.233 -0.822,0 -1.59,-0.251 -1.59,-0.251 l -0.143,-0.375 c 0.232,-0.321 0.482,-0.536 0.482,-1.894 0,-8.289 -0.018,-9.004 -0.035,-9.593" /></g><g
           transform="translate(82.3239,38.8933)"
           id="g52"><path
             id="path54"
             style="fill:#000000;fill-opacity:1;fill-rule:nonzero;stroke:none"
             d="m 0,0 c 3.484,0 5.735,2.733 5.735,6.289 0,3.805 -2.841,5.717 -5.806,5.663 l -4.324,-0.089 -0.143,-0.375 c 0.429,-0.519 0.447,-1.394 0.447,-2.126 V 0.929 C -4.091,0.697 -4.109,0.304 -4.127,0 Z m 0.214,1.161 h -1.768 c -0.036,0.965 -0.054,2.055 -0.054,3.323 0,2.126 0.089,5.378 0.089,6.2 l 0.626,0.018 C 1.34,10.773 3.091,8.415 3.091,5.36 3.091,2.644 1.608,1.161 0.214,1.161 M 12.809,0 c 1.322,0 2.019,0.232 2.019,1.161 0,0.179 -0.018,0.34 -0.053,0.59 C 14.542,1.447 14.131,1.376 13.881,1.376 h -3.126 c 0,0 -0.072,2.09 -0.054,3.948 0.554,0 1.179,-0.036 1.823,-0.036 0.875,0 1.625,0.232 1.625,1.108 0,0.179 -0.018,0.375 -0.053,0.607 C 13.774,6.682 13.345,6.682 12.952,6.682 h -2.233 c 0,1.125 0.054,3.144 0.107,4.091 l 1.572,-0.071 c 0.697,-0.036 1.555,-0.411 1.662,-0.947 h 0.411 c 0.25,0.714 0.179,1.554 -0.232,2.161 L 10.951,11.863 H 7.968 L 7.825,11.488 C 8.129,11.059 8.218,10.969 8.254,9.487 V 1.304 c 0,0 0.018,-0.679 -0.018,-1.304 z m 6.593,0 c 0.018,0.59 0.035,1.304 0.035,9.594 0,0.5 -0.035,0.857 -0.089,1.108 h -1.572 c -0.858,0 -1.483,-0.411 -1.554,-0.947 h -0.411 c -0.179,0.768 -0.25,1.518 0.339,2.233 l 2.716,-0.125 h 3.609 l 2.715,0.125 c 0.59,-0.715 0.518,-1.465 0.34,-2.233 h -0.411 c -0.072,0.536 -0.697,0.947 -1.555,0.947 H 21.992 C 21.921,9.129 21.885,6.95 21.885,4.806 21.885,2.912 21.903,0.411 22.099,0 Z m 22.349,4.449 c 0,-0.376 0.143,-1.376 0.143,-1.376 0,0 -0.357,0.982 -0.732,1.393 -0.661,0.733 -6.003,6.593 -6.879,7.647 -0.589,0.071 -1.447,-0.089 -1.697,-0.25 l -0.143,-0.375 c 0.376,-0.501 0.501,-0.894 0.501,-1.841 V 6.664 c 0,-1.733 0,-4.056 -0.018,-6.378 V 0 h 1.572 c -0.143,1.126 -0.179,3.037 -0.179,5.145 0,0.894 0.036,1.626 0.036,2.501 0,0.268 -0.018,0.679 -0.054,0.876 C 34.426,8.2 35.034,7.325 35.034,7.325 L 41.68,0 h 1.554 c -0.053,0.84 -0.089,2.055 -0.089,3.412 0,2.805 0.107,6.11 0.214,8.486 -0.161,0.126 -0.482,0.215 -0.804,0.215 -0.357,0 -1.018,-0.125 -1.197,-0.25 l -0.161,-0.375 c 0.304,-0.358 0.59,-0.858 0.59,-1.912 0,-5.628 -0.036,-5.127 -0.036,-5.127 m 9.648,-3.431 c 1.518,0 2.644,2.019 2.644,4.52 0,2.895 -1.429,5.253 -3.073,5.253 -1.536,0 -2.68,-2.001 -2.68,-4.484 0,-2.716 1.358,-5.289 3.109,-5.289 m 0.196,11.059 c 2.787,0 5.11,-2.019 5.11,-5.931 -0.072,-3.609 -2.412,-6.378 -6.164,-6.378 -2.412,0 -4.895,2.036 -4.895,5.967 0,3.752 2.519,6.342 5.949,6.342 M 61.832,0 C 61.671,0.804 61.653,2.698 61.653,4.484 61.779,4.466 61.904,4.466 62.029,4.449 62.136,4.341 62.279,4.198 62.386,4.073 63.458,2.894 64.851,1.322 65.441,0 h 3.144 c 0,0 -0.786,0.822 -1.5,1.644 -0.894,1.036 -1.555,1.893 -2.251,2.751 -0.126,0.143 -0.286,0.304 -0.465,0.447 1.447,0.607 2.501,1.84 2.501,3.412 0,2.823 -2.233,3.716 -4.145,3.68 L 58.902,11.845 58.759,11.47 c 0.375,-0.465 0.447,-1.162 0.447,-1.948 V 0.697 L 59.188,0 Z m -0.161,7.736 c 0.018,1.25 0.018,2.483 0.054,3.001 l 0.357,0.018 c 1.733,0.089 2.519,-1.393 2.519,-2.912 0,-1.215 -0.732,-2.34 -2.287,-2.34 -0.214,0 -0.446,0 -0.661,0.053 z m 10.737,-7.968 c 2.519,0 4.217,1.59 4.217,3.501 0,3.556 -5.557,4.127 -5.557,6.361 0,1 0.912,1.304 1.573,1.304 0.804,0 2.09,-0.536 2.483,-1.769 l 0.411,-0.089 c 0.411,0.411 0.536,1.036 0.536,1.483 0,0.25 -0.018,0.464 -0.072,0.625 -0.553,0.321 -1.554,0.929 -3.162,0.929 -2.412,0 -3.627,-1.715 -3.627,-3.341 0,-3.323 5.181,-4.145 5.181,-6.056 0,-1.215 -1.161,-1.519 -2.054,-1.519 -0.965,0 -2.537,0.554 -2.769,1.376 -0.197,-0.268 -0.286,-0.554 -0.286,-0.822 0,-1.036 1.358,-1.983 3.126,-1.983 M 79.036,0 h 2.698 C 81.538,0.411 81.52,2.912 81.52,4.806 V 5.842 C 82.663,4.413 84.736,1.304 85.54,0 h 3.251 c -0.322,0.179 -4.02,5.127 -5.252,6.843 1.75,1.625 2.769,2.572 3.537,3.305 0.607,0.589 0.965,1.089 1.233,1.733 -0.268,0.16 -0.715,0.232 -1.251,0.232 -0.643,0 -1.304,-0.107 -1.554,-0.25 l -0.125,-0.322 c 0.071,-0.107 0.089,-0.232 0.089,-0.375 0,-0.214 -0.089,-0.5 -0.322,-0.768 C 84.2,9.326 82.574,7.575 81.52,6.396 c 0.036,2.126 0.107,4.234 0.178,5.485 -0.482,0.232 -0.964,0.232 -1.375,0.232 -0.822,0 -1.59,-0.25 -1.59,-0.25 L 78.59,11.488 c 0.232,-0.322 0.482,-0.536 0.482,-1.894 0,-8.29 -0.018,-9.004 -0.036,-9.594 m 15.901,0 c 1.322,0 2.018,0.232 2.018,1.161 0,0.179 -0.017,0.34 -0.053,0.59 C 96.67,1.447 96.259,1.376 96.009,1.376 h -3.127 c 0,0 -0.071,2.09 -0.054,3.948 0.554,0 1.18,-0.036 1.823,-0.036 0.875,0 1.626,0.232 1.626,1.108 0,0.179 -0.018,0.375 -0.054,0.607 C 95.901,6.682 95.473,6.682 95.08,6.682 h -2.234 c 0,1.125 0.054,3.144 0.108,4.091 l 1.572,-0.071 c 0.696,-0.036 1.554,-0.411 1.661,-0.947 h 0.411 c 0.25,0.714 0.179,1.554 -0.232,2.161 l -3.287,-0.053 h -2.984 l -0.143,-0.375 c 0.304,-0.429 0.393,-0.519 0.429,-2.001 V 1.304 c 0,0 0.018,-0.679 -0.018,-1.304 z" /></g></g></g></g></svg>