<?xml version="1.0" encoding="UTF-8" standalone="no"?>
<svg
   xmlns:dc="http://purl.org/dc/elements/1.1/"
   xmlns:cc="http://creativecommons.org/ns#"
   xmlns:rdf="http://www.w3.org/1999/02/22-rdf-syntax-ns#"
   xmlns:svg="http://www.w3.org/2000/svg"
   xmlns="http://www.w3.org/2000/svg"
   viewBox="0 0 424.44135 90.708664"
   height="90.708664"
   width="424.44135"
   xml:space="preserve"
   id="svg2"
   version="1.1"><metadata
     id="metadata8"><rdf:RDF><cc:Work
         rdf:about=""><dc:format>image/svg+xml</dc:format><dc:type
           rdf:resource="http://purl.org/dc/dcmitype/StillImage" /></cc:Work></rdf:RDF></metadata><defs
     id="defs6"><clipPath
       id="clipPath18"
       clipPathUnits="userSpaceOnUse"><path
         id="path16"
         d="m 76.535,12.068 h 238.961 v 36.83 H 76.535 Z" /></clipPath><clipPath
       id="clipPath66"
       clipPathUnits="userSpaceOnUse"><path
         id="path64"
         d="m 76.535,14.428 h 238.959 v 32.11 H 76.535 Z" /></clipPath><clipPath
       id="clipPath82"
       clipPathUnits="userSpaceOnUse"><path
         id="path80"
         d="m 76.535,12.068 h 238.961 v 36.83 H 76.535 Z" /></clipPath><clipPath
       id="clipPath94"
       clipPathUnits="userSpaceOnUse"><path
         id="path92"
         d="m 76.535,14.428 h 238.959 v 32.11 H 76.535 Z" /></clipPath><clipPath
       id="clipPath110"
       clipPathUnits="userSpaceOnUse"><path
         id="path108"
         d="M 2.838,2.835 H 51.596 V 65.194 H 2.838 Z" /></clipPath><clipPath
       id="clipPath126"
       clipPathUnits="userSpaceOnUse"><path
         id="path124"
         d="M 2.835,2.835 H 51.596 V 65.197 H 2.835 Z" /></clipPath></defs><g
     transform="matrix(1.3333333,0,0,-1.3333333,0,90.708667)"
     id="g10"><g
       id="g12"><g
         clip-path="url(#clipPath18)"
         id="g14"><g
           transform="translate(95.8322,21.1553)"
           id="g20"><path
             id="path22"
             style="fill:#000000;fill-opacity:1;fill-rule:nonzero;stroke:none"
             d="m 0,0 h -3.67 c -3.97,6.195 -7.981,12.452 -11.992,18.709 -0.11,-0.022 -0.22,-0.043 -0.329,-0.065 -0.015,-1.208 -0.036,-2.415 -0.043,-3.623 -0.007,-1.251 -0.002,-2.502 -0.002,-3.754 V 7.664 3.91 0.065 h -3.261 v 24.731 c 1.103,0 2.149,0.083 3.171,-0.042 0.394,-0.048 0.823,-0.508 1.077,-0.887 1.06,-1.578 2.06,-3.195 3.081,-4.799 2.552,-4.01 5.101,-8.021 7.656,-12.028 0.253,-0.397 0.543,-0.772 0.816,-1.157 0.098,0.031 0.197,0.061 0.296,0.091 v 18.699 c 0.508,0.058 0.846,0.122 1.185,0.131 0.641,0.018 1.283,0.005 1.882,0.005 C 0.211,23.613 0.309,2.236 0,0" /></g><g
           transform="translate(231.3011,21.21)"
           id="g24"><path
             id="path26"
             style="fill:#000000;fill-opacity:1;fill-rule:nonzero;stroke:none"
             d="M 0,0 C -0.409,-0.046 -0.646,-0.093 -0.886,-0.096 -1.632,-0.107 -2.378,-0.1 -3.289,-0.1 c -0.025,0.569 -0.064,1.051 -0.066,1.533 -0.006,2.903 -10e-4,5.806 -0.004,8.709 0,0.5 0.006,1.002 -0.029,1.501 -0.189,2.799 -2.403,4.279 -5.064,3.395 -2.077,-0.69 -3.159,-2.175 -3.16,-4.342 -0.002,-3.004 -10e-4,-6.007 -10e-4,-9.01 v -1.701 h -3.291 c -0.032,0.508 -0.093,1.03 -0.094,1.553 -0.01,2.903 -0.002,5.806 -0.008,8.709 -10e-4,0.55 -0.007,1.104 -0.07,1.649 -0.286,2.475 -2.119,3.81 -4.563,3.287 -1.498,-0.32 -2.635,-1.214 -3.373,-2.539 -0.224,-0.404 -0.248,-0.955 -0.251,-1.439 -0.021,-3.204 -0.011,-6.407 -0.011,-9.61 V 0.009 h -3.259 v 17.755 h 3.116 c 0.075,-0.492 0.147,-0.967 0.24,-1.572 3.773,2.703 7.392,3.121 10.763,-0.811 0.257,0.228 0.541,0.47 0.813,0.724 1.796,1.673 3.937,2.349 6.348,2.076 2.7,-0.305 4.759,-2.375 5.139,-5.108 0.102,-0.74 0.107,-1.497 0.109,-2.247 C 0.008,7.773 0,4.72 0,1.667 Z" /></g><g
           transform="translate(301.0426,32.0558)"
           id="g28"><path
             id="path30"
             style="fill:#000000;fill-opacity:1;fill-rule:nonzero;stroke:none"
             d="M 0,0 C 0.078,2.651 -2.121,4.809 -4.688,4.711 -7.165,4.616 -9.061,2.714 -9.187,0 Z M 3.717,-2.725 H -9.302 c -0.217,-2.411 1.19,-4.71 3.247,-5.478 2.416,-0.902 4.408,-0.095 6.591,2.765 0.857,-0.354 1.755,-0.725 2.84,-1.174 -0.395,-0.644 -0.663,-1.226 -1.059,-1.699 -2.421,-2.888 -5.561,-3.622 -9.07,-2.705 -3.617,0.945 -5.391,3.624 -5.955,7.146 -0.353,2.199 -0.156,4.387 0.786,6.462 1.554,3.42 4.743,5.206 8.526,4.752 3.57,-0.429 6.296,-3.06 6.879,-6.719 0.162,-1.013 0.15,-2.054 0.234,-3.35" /></g><g
           transform="translate(273.1138,32.0633)"
           id="g32"><path
             id="path34"
             style="fill:#000000;fill-opacity:1;fill-rule:nonzero;stroke:none"
             d="M 0,0 H 9.205 C 9.181,2.633 7.494,4.515 5.078,4.681 2.359,4.868 0.418,3.121 0,0 M 12.801,-2.709 H -0.023 c -0.253,-2.342 1.097,-4.641 3.085,-5.453 2.429,-0.994 4.491,-0.19 6.735,2.719 0.858,-0.358 1.758,-0.734 2.844,-1.188 -0.435,-0.68 -0.739,-1.304 -1.176,-1.812 -2.378,-2.763 -5.454,-3.46 -8.848,-2.623 -3.553,0.877 -5.401,3.456 -6.035,6.927 -0.421,2.305 -0.227,4.591 0.763,6.762 1.578,3.457 4.951,5.271 8.713,4.688 3.636,-0.563 6.304,-3.331 6.728,-7.059 0.103,-0.919 0.015,-1.859 0.015,-2.961" /></g><g
           transform="translate(190.4357,29.6938)"
           id="g36"><path
             id="path38"
             style="fill:#000000;fill-opacity:1;fill-rule:nonzero;stroke:none"
             d="m 0,0 c -0.957,-0.08 -1.657,-0.096 -2.343,-0.203 -1.517,-0.237 -3.081,-0.316 -4.45,-1.134 -1.109,-0.661 -1.588,-1.611 -1.402,-2.733 0.181,-1.094 1.003,-1.89 2.209,-2.141 2.052,-0.428 4.633,0.669 5.72,2.443 0.125,0.206 0.248,0.453 0.254,0.684 C 0.016,-2.101 0,-1.117 0,0 M 3.215,-8.502 C 2.795,-8.534 2.458,-8.576 2.121,-8.582 1.482,-8.594 0.842,-8.586 0.158,-8.586 c -0.097,0.602 -0.173,1.075 -0.27,1.677 -0.466,-0.315 -0.823,-0.566 -1.191,-0.802 -2.056,-1.323 -4.27,-1.653 -6.596,-0.923 -2.111,0.664 -3.349,2.153 -3.586,4.352 -0.237,2.199 0.655,3.897 2.582,5.011 1.588,0.917 3.345,1.282 5.139,1.501 1.183,0.145 2.369,0.274 3.526,0.407 0.495,2.068 -0.364,3.585 -2.33,4.215 -2.635,0.845 -4.405,-0.167 -5.709,-3.321 h -2.88 c 0.08,2.025 0.881,3.594 2.427,4.771 2.51,1.911 6.901,1.959 9.467,0.119 C 2.202,7.37 3.026,5.915 3.195,4.136 3.302,2.995 3.284,1.84 3.289,0.691 3.302,-1.859 3.297,-4.409 3.29,-6.959 3.288,-7.447 3.244,-7.935 3.215,-8.502" /></g><g
           transform="translate(110.8563,29.7103)"
           id="g40"><path
             id="path42"
             style="fill:#000000;fill-opacity:1;fill-rule:nonzero;stroke:none"
             d="m 0,0 c -1.14,-0.118 -2.085,-0.153 -3.005,-0.326 -1.167,-0.219 -2.358,-0.436 -3.459,-0.862 -1.344,-0.52 -1.935,-1.623 -1.771,-2.809 0.171,-1.248 1.117,-2.105 2.586,-2.281 2.06,-0.247 3.686,0.605 5.034,2.084 C 0.526,-2.943 -0.129,-1.493 0,0 m -8.267,3.44 c -0.634,0 -1.227,-0.01 -1.82,0.004 -0.344,0.008 -0.687,0.055 -1.135,0.093 0.232,2.415 1.247,4.256 3.402,5.318 2.643,1.303 5.343,1.236 7.939,-0.101 2.04,-1.05 3.024,-2.89 3.095,-5.147 0.081,-2.55 0.043,-5.104 0.052,-7.656 0.006,-1.446 10e-4,-2.892 10e-4,-4.445 H 0.154 c -0.074,0.456 -0.151,0.931 -0.256,1.572 -0.437,-0.289 -0.786,-0.524 -1.139,-0.753 -2.147,-1.402 -4.458,-1.747 -6.877,-0.909 -2.032,0.704 -3.195,2.215 -3.402,4.35 -0.209,2.14 0.668,3.803 2.525,4.907 1.579,0.938 3.339,1.309 5.134,1.534 1.19,0.149 2.384,0.267 3.571,0.399 0.639,1.811 -0.268,3.53 -2.205,4.196 C -5.196,7.73 -7.174,6.637 -8.267,3.44" /></g><g
           transform="translate(142.584,30.0636)"
           id="g44"><path
             id="path46"
             style="fill:#000000;fill-opacity:1;fill-rule:nonzero;stroke:none"
             d="m 0,0 c 0.293,-1.157 0.452,-2.365 0.907,-3.449 0.809,-1.929 2.396,-2.943 4.48,-2.969 2.078,-0.025 3.676,0.934 4.596,2.819 1.143,2.343 1.15,4.756 0.033,7.101 C 9.098,5.431 7.516,6.448 5.332,6.399 3.134,6.349 1.638,5.213 0.83,3.245 0.42,2.247 0.281,1.139 0,0 m 14.261,0.044 c -0.149,-0.985 -0.215,-1.992 -0.463,-2.953 -1.055,-4.085 -4.483,-6.624 -8.636,-6.459 -4.177,0.166 -7.385,2.94 -8.178,7.062 -0.327,1.697 -0.313,3.389 0.12,5.062 1.136,4.391 4.793,6.982 9.284,6.597 4.054,-0.348 7.289,-3.68 7.707,-7.945 0.044,-0.448 0.058,-0.899 0.086,-1.348 0.026,-0.005 0.053,-0.011 0.08,-0.016" /></g><g
           transform="translate(175.6741,21.198)"
           id="g48"><path
             id="path50"
             style="fill:#000000;fill-opacity:1;fill-rule:nonzero;stroke:none"
             d="m 0,0 h -3.051 c -0.024,0.531 -0.068,1.06 -0.069,1.589 -0.007,3.001 0.008,6.003 -0.007,9.004 -0.018,3.836 -2.813,5.727 -6.382,4.271 -0.764,-0.312 -1.443,-0.878 -2.099,-1.404 -0.74,-0.592 -1.033,-1.381 -1.015,-2.373 0.053,-3.101 0.019,-6.203 0.019,-9.304 V 0.026 h -3.252 V 17.76 h 3.096 c 0.081,-0.49 0.166,-1.006 0.274,-1.66 0.365,0.24 0.682,0.438 0.988,0.651 1.857,1.289 3.931,1.727 6.135,1.419 3.196,-0.446 5.395,-2.714 5.508,-5.966 C 0.282,8.258 0.171,4.303 0.161,0.352 0.16,0.264 0.084,0.177 0,0" /></g><g
           transform="translate(235.281,38.9726)"
           id="g52"><path
             id="path54"
             style="fill:#000000;fill-opacity:1;fill-rule:nonzero;stroke:none"
             d="m 0,0 h 3.054 c 0.034,-0.523 0.091,-1.004 0.092,-1.485 0.009,-2.803 0.003,-5.607 0.006,-8.411 0,-0.45 -0.019,-0.905 0.033,-1.35 0.209,-1.781 1.04,-3.165 2.789,-3.75 1.917,-0.642 3.774,-0.476 5.317,0.982 0.927,0.874 1.223,2.032 1.221,3.282 -0.004,3.004 0,6.008 0.002,9.012 v 1.71 h 3.263 c 0.035,-0.564 0.095,-1.093 0.096,-1.623 0.009,-2.904 -0.09,-5.811 0.026,-8.711 0.204,-5.174 -3.358,-7.822 -7.639,-7.929 -1.516,-0.038 -3.001,0.124 -4.393,0.778 -2.428,1.142 -3.89,3.073 -3.992,5.731 -0.144,3.749 -0.04,7.508 -0.034,11.263 0,0.137 0.085,0.274 0.159,0.501" /></g><g
           transform="translate(116.273,25.979)"
           id="g56"><path
             id="path58"
             style="fill:#000000;fill-opacity:1;fill-rule:nonzero;stroke:none"
             d="M 0,0 C 0.939,0.389 1.715,0.711 2.585,1.071 2.85,0.597 3.083,0.175 3.32,-0.244 4.561,-2.44 6.795,-2.969 9.172,-2.287 c 1.014,0.29 1.755,0.972 1.869,2.114 0.12,1.208 -0.48,2.054 -1.531,2.497 C 8.365,2.806 7.149,3.118 5.978,3.543 4.949,3.915 3.868,4.219 2.936,4.768 0.305,6.316 0.03,9.893 2.312,11.919 5.597,14.837 11.638,13.641 13.544,9.691 13.627,9.518 13.652,9.318 13.738,9.012 12.923,8.628 12.125,8.253 11.246,7.839 11.073,8.102 10.936,8.288 10.821,8.487 9.717,10.398 8.009,11.191 5.894,10.717 5.045,10.527 4.271,10.175 4.009,9.212 3.738,8.214 4.092,7.366 5.181,6.916 6.189,6.499 7.28,6.288 8.321,5.944 9.455,5.57 10.648,5.285 11.684,4.721 14.907,2.965 15.193,-1.633 12.285,-3.866 8.514,-6.762 2.335,-5.275 0.33,-0.986 0.208,-0.725 0.144,-0.436 0,0" /></g></g></g><g
       id="g60"><g
         clip-path="url(#clipPath66)"
         id="g62"><g
           transform="translate(253.3403,25.9796)"
           id="g68"><path
             id="path70"
             style="fill:#000000;fill-opacity:1;fill-rule:nonzero;stroke:none"
             d="M 0,0 C 0.9,0.371 1.717,0.708 2.595,1.07 2.819,0.661 3.008,0.32 3.193,-0.024 4.536,-2.521 6.627,-2.848 8.939,-2.38 c 1.222,0.246 2.039,1.214 2.141,2.246 0.104,1.06 -0.45,1.985 -1.738,2.535 C 8.245,2.87 7.067,3.144 5.942,3.551 4.913,3.923 3.834,4.234 2.904,4.787 0.352,6.303 0.053,9.849 2.231,11.852 c 3.272,3.009 9.467,1.807 11.336,-2.205 0.08,-0.17 0.098,-0.37 0.17,-0.655 C 12.904,8.611 12.102,8.244 11.225,7.842 11.028,8.161 10.864,8.395 10.732,8.646 9.64,10.715 7.518,11.122 5.574,10.627 4.506,10.355 3.977,9.661 3.939,8.735 3.897,7.719 4.489,7.144 5.347,6.84 6.331,6.49 7.36,6.264 8.354,5.936 9.488,5.561 10.681,5.272 11.714,4.702 14.88,2.955 15.188,-1.534 12.367,-3.802 8.342,-7.036 1.783,-5.132 0,0" /></g><g
           transform="translate(314.2069,23.0538)"
           id="g72"><path
             id="path74"
             style="fill:#000000;fill-opacity:1;fill-rule:nonzero;stroke:none"
             d="m 0,0 c -0.572,-1.025 -1.032,-1.848 -1.545,-2.766 -2.172,0.973 -3.261,2.639 -3.605,4.828 -0.14,0.885 -0.142,1.796 -0.149,2.696 -0.021,2.253 -0.005,4.506 -0.012,6.759 -0.002,0.489 -0.044,0.978 -0.072,1.581 h -3.193 v 2.843 c 1.076,0.049 2.058,0.093 3.215,0.145 0.018,1.091 0.039,2.122 0.053,3.154 0.018,1.406 0.013,1.412 1.373,1.882 0.56,0.193 1.133,0.353 1.82,0.565 0.426,-1.876 -0.036,-3.726 0.3,-5.601 1.035,-0.047 2.016,-0.092 3.104,-0.142 V 13.136 H -1.815 C -1.862,12.583 -1.929,12.155 -1.931,11.727 -1.941,9.324 -1.898,6.919 -1.949,4.517 -1.986,2.728 -1.728,1.103 0,0" /></g></g></g><g
       id="g76"><g
         clip-path="url(#clipPath82)"
         id="g78"><g
           transform="translate(197.6616,46.0732)"
           id="g84"><path
             id="path86"
             style="fill:#000000;fill-opacity:1;fill-rule:nonzero;stroke:none"
             d="M 0,0 H 3.103 V -24.886 C 2.576,-24.914 2.091,-24.95 1.606,-24.963 1.109,-24.976 0.612,-24.966 0.141,-24.966 -0.19,-23.823 -0.306,-2.758 0,0" /></g></g></g><g
       id="g88"><g
         clip-path="url(#clipPath94)"
         id="g90"><g
           transform="translate(133.127,38.9708)"
           id="g96"><path
             id="path98"
             style="fill:#000000;fill-opacity:1;fill-rule:nonzero;stroke:none"
             d="m 0,0 h 3.27 c 0.033,-0.575 0.084,-1.06 0.085,-1.545 0.006,-5.203 0.015,-10.407 -0.007,-15.61 -0.004,-0.946 -0.084,-1.902 -0.241,-2.835 -0.346,-2.057 -1.49,-3.545 -3.494,-4.553 -0.521,0.884 -1.02,1.73 -1.603,2.717 2.007,1.272 1.996,3.296 1.993,5.328 C -0.006,-11.595 0,-6.691 0,-1.788 Z" /></g><g
           transform="translate(134.7522,41.9758)"
           id="g100"><path
             id="path102"
             style="fill:#000000;fill-opacity:1;fill-rule:nonzero;stroke:none"
             d="m 0,0 c -1.279,0.003 -2.268,0.993 -2.268,2.269 0,1.273 0.992,2.282 2.254,2.293 C 1.309,4.573 2.391,3.498 2.355,2.209 2.32,0.972 1.28,-0.003 0,0" /></g></g></g><g
       id="g104"><g
         clip-path="url(#clipPath110)"
         id="g106"><g
           transform="translate(35.7293,23.4616)"
           id="g112"><path
             id="path114"
             style="fill:#000000;fill-opacity:1;fill-rule:nonzero;stroke:none"
             d="m 0,0 h -2.944 c -0.999,0 -1.998,0.015 -2.996,-0.009 -0.288,-0.007 -0.431,0.102 -0.572,0.325 -1.432,2.243 -2.871,4.482 -4.31,6.721 -1.835,2.857 -3.672,5.714 -5.508,8.572 -1.308,2.035 -2.615,4.071 -3.922,6.107 -1.915,2.983 -3.829,5.967 -5.743,8.95 -0.392,0.611 -0.785,1.221 -1.178,1.832 -0.037,0.057 -0.079,0.111 -0.166,0.23 V 0.011 h -5.553 v 41.715 h 0.331 c 1.866,0 3.733,-0.008 5.6,0.009 0.29,0.003 0.419,-0.11 0.56,-0.335 0.807,-1.284 1.633,-2.556 2.45,-3.835 1.632,-2.556 3.26,-5.115 4.894,-7.671 1.653,-2.587 3.311,-5.171 4.965,-7.757 1.414,-2.211 2.824,-4.424 4.236,-6.636 1.361,-2.133 2.722,-4.268 4.083,-6.402 0.048,-0.075 0.103,-0.146 0.196,-0.278 V 41.708 H 0 Z" /></g><g
           transform="translate(8.3053,16.3716)"
           id="g116"><path
             id="path118"
             style="fill:#000000;fill-opacity:1;fill-rule:nonzero;stroke:none"
             d="m 0,0 v -2.242 c 2.649,2.033 5.594,2.908 8.88,2.493 3.289,-0.415 5.906,-2.017 7.92,-4.578 0.516,0.537 1,1.092 1.537,1.591 1.626,1.513 3.544,2.458 5.726,2.879 1.75,0.337 3.485,0.274 5.203,-0.177 2.089,-0.549 3.888,-1.602 5.403,-3.146 1.322,-1.348 2.265,-2.919 2.832,-4.716 0.337,-1.072 0.519,-2.172 0.53,-3.296 0.008,-0.774 0.002,-1.549 0.002,-2.345 h -5.35 c 0,0.122 0.003,0.231 0,0.339 -0.024,0.96 0.021,1.928 -0.088,2.878 -0.332,2.884 -2.656,5.198 -5.537,5.586 -1.828,0.247 -3.544,-0.043 -5.085,-1.106 -1.504,-1.037 -2.382,-2.485 -2.693,-4.27 -0.094,-0.538 -0.102,-1.093 -0.12,-1.641 -0.019,-0.587 -0.004,-1.175 -0.004,-1.785 h -5.348 c 0,0.12 0.002,0.229 0,0.337 -0.025,0.96 0.02,1.928 -0.09,2.878 -0.338,2.911 -2.68,5.219 -5.589,5.594 C 6.306,-4.492 4.6,-4.792 3.074,-5.855 1.586,-6.89 0.709,-8.33 0.404,-10.108 c -0.09,-0.529 -0.1,-1.075 -0.117,-1.614 -0.019,-0.596 -0.005,-1.193 -0.005,-1.814 H -5.471 V 0 Z" /></g></g></g><g
       id="g120"><g
         clip-path="url(#clipPath126)"
         id="g122"><g
           transform="translate(51.5958,27.7416)"
           id="g128"><path
             id="path130"
             style="fill:#000000;fill-opacity:1;fill-rule:nonzero;stroke:none"
             d="m 0,0 v -5.056 c -3.247,0.09 -5.891,1.363 -7.888,3.915 -2.439,3.116 -2.738,7.537 -0.764,10.979 1.993,3.474 5.608,5.103 8.641,5.013 V 9.826 C -1.685,9.759 -3.041,9.066 -4.011,7.69 -4.686,6.735 -4.949,5.655 -4.859,4.489 -4.696,2.371 -2.959,0.12 0,0" /></g><g
           transform="translate(42.6014,45.0509)"
           id="g132"><path
             id="path134"
             style="fill:#000000;fill-opacity:1;fill-rule:nonzero;stroke:none"
             d="M 0,0 C -0.082,5.179 4.139,9.541 8.985,9.865 V 4.809 C 6.553,4.129 5.215,2.542 5.02,0 Z" /></g></g></g></g></svg>