<?xml version="1.0" encoding="UTF-8" standalone="no"?>
<svg
   xmlns:dc="http://purl.org/dc/elements/1.1/"
   xmlns:cc="http://creativecommons.org/ns#"
   xmlns:rdf="http://www.w3.org/1999/02/22-rdf-syntax-ns#"
   xmlns:svg="http://www.w3.org/2000/svg"
   xmlns="http://www.w3.org/2000/svg"
   viewBox="0 0 235.744 90.708664"
   height="90.708664"
   width="235.744"
   xml:space="preserve"
   id="svg2"
   version="1.1"><metadata
     id="metadata8"><rdf:RDF><cc:Work
         rdf:about=""><dc:format>image/svg+xml</dc:format><dc:type
           rdf:resource="http://purl.org/dc/dcmitype/StillImage" /></cc:Work></rdf:RDF></metadata><defs
     id="defs6"><clipPath
       id="clipPath26"
       clipPathUnits="userSpaceOnUse"><path
         id="path24"
         d="M 2.835,2.822 H 81.638 V 65.197 H 2.835 Z" /></clipPath><clipPath
       id="clipPath190"
       clipPathUnits="userSpaceOnUse"><path
         id="path188"
         d="m 90.141,2.828 h 83.833 V 65.203 H 90.141 Z" /></clipPath></defs><g
     transform="matrix(1.3333333,0,0,-1.3333333,0,90.708667)"
     id="g10"><g
       transform="translate(11.1618,16.2981)"
       id="g12"><path
         id="path14"
         style="fill:#000000;fill-opacity:1;fill-rule:nonzero;stroke:none"
         d="M 0,0 V -9.082 L -5.733,0 h -2.594 v -13.414 h 2.404 V -4.2 l 5.81,-9.214 H 2.402 L 2.402,0 Z" /></g><g
       transform="translate(39.15,17.9281)"
       id="g16"><path
         id="path18"
         style="fill:#000000;fill-opacity:1;fill-rule:nonzero;stroke:none"
         d="M 0,0 V 13.415 H -3.124 L -6.66,3.86 l -3.521,9.555 h -3.293 V 0 h 2.365 V 9.688 L -7.648,0.19 h 1.8 l 3.483,9.385 0,-9.575 z" /></g><g
       id="g20"><g
         clip-path="url(#clipPath26)"
         id="g22"><g
           transform="translate(78.5228,65.1969)"
           id="g28"><path
             id="path30"
             style="fill:#000000;fill-opacity:1;fill-rule:nonzero;stroke:none"
             d="m 0,0 v -8.23 c 0,-1.912 -0.87,-3.217 -2.82,-3.217 -1.946,0 -2.816,1.305 -2.816,3.217 V 0 h -2.443 v -8.267 c 0,-3.199 1.798,-5.394 5.259,-5.394 3.465,0 5.261,2.195 5.261,5.394 l 0,8.267 z" /></g><g
           transform="translate(53.58,39.1748)"
           id="g32"><path
             id="path34"
             style="fill:#000000;fill-opacity:1;fill-rule:nonzero;stroke:none"
             d="m 0,0 h -3.009 v 3.727 h 3.085 c 1.285,0 2.29,-0.508 2.29,-1.947 C 2.366,0.417 1.134,0 0,0 M -3.009,9.139 H 0 C 1.097,9.139 2.083,8.723 2.083,7.436 2.083,6.17 1.156,5.772 0.057,5.772 H -3.009 Z M 4.56,7.588 c 0,1.154 -0.568,2.271 -1.552,2.914 -0.907,0.586 -2.024,0.738 -3.101,0.738 H -5.431 V -2.193 h 5.338 c 1.286,0 2.534,0.113 3.574,0.907 0.965,0.738 1.362,1.816 1.362,3.009 0,1.25 -0.66,2.441 -1.928,3.026 1.136,0.512 1.645,1.742 1.645,2.839" /></g><g
           transform="translate(71.275,25.0577)"
           id="g36"><path
             id="path38"
             style="fill:#000000;fill-opacity:1;fill-rule:nonzero;stroke:none"
             d="m 0,0 h -17.557 v 5.938 h -2.339 V 0 h -5.983 v -2.34 h 5.983 v -17.556 h -29.528 v -2.34 h 30.697 c 0.646,0 1.17,0.524 1.17,1.17 V -2.34 H 1.17 c 0.646,0 1.17,0.523 1.17,1.17 V 20.606 H 0 Z" /></g><g
           transform="translate(31.2516,36.9327)"
           id="g40"><path
             id="path42"
             style="fill:#000000;fill-opacity:1;fill-rule:nonzero;stroke:none"
             d="m 0,0 h 2.34 v 5.912 h 5.868 v 2.34 H 2.34 v 17.555 h 29.263 v 2.341 H 1.17 C 0.524,28.148 0,27.624 0,26.978 V 8.252 h -18.725 c -0.647,0 -1.171,-0.524 -1.171,-1.17 v -21.891 h 2.341 V 5.912 L 0,5.912 Z" /></g><g
           transform="translate(106.283,45.1834)"
           id="g44"><path
             id="path46"
             style="fill:#000000;fill-opacity:1;fill-rule:nonzero;stroke:none"
             d="M 0,0 -3.847,5.9 V 0 h -1.318 v 7.79 h 1.681 L 0.055,2.263 V 7.79 h 1.318 l 0,-7.79 z" /></g><g
           transform="translate(113.3505,47.8641)"
           id="g48"><path
             id="path50"
             style="fill:#000000;fill-opacity:1;fill-rule:nonzero;stroke:none"
             d="m 0,0 c 0,1.11 -0.704,1.681 -1.495,1.681 -0.78,0 -1.494,-0.571 -1.494,-1.681 0,-1.11 0.714,-1.703 1.494,-1.703 C -0.704,-1.703 0,-1.12 0,0 m 1.285,0 c 0,-1.648 -1.175,-2.845 -2.78,-2.845 -1.592,0 -2.769,1.197 -2.769,2.845 0,1.637 1.177,2.835 2.769,2.835 1.605,0 2.78,-1.198 2.78,-2.835" /></g><g
           transform="translate(119.1001,49.2704)"
           id="g52"><path
             id="path54"
             style="fill:#000000;fill-opacity:1;fill-rule:nonzero;stroke:none"
             d="m 0,0 c -0.143,0.022 -0.287,0.033 -0.418,0.033 -0.988,0 -1.44,-0.571 -1.44,-1.571 v -2.549 h -1.275 v 5.351 h 1.242 V 0.407 c 0.253,0.582 0.845,0.922 1.55,0.922 0.152,0 0.286,-0.022 0.341,-0.032 z" /></g><g
           transform="translate(123.7393,48.4467)"
           id="g56"><path
             id="path58"
             style="fill:#000000;fill-opacity:1;fill-rule:nonzero;stroke:none"
             d="M 0,0 C -0.024,0.626 -0.439,1.187 -1.32,1.187 -2.12,1.187 -2.583,0.571 -2.626,0 Z M 1.218,-1.736 C 0.934,-2.67 0.086,-3.428 -1.199,-3.428 c -1.449,0 -2.736,1.055 -2.736,2.867 0,1.692 1.254,2.813 2.605,2.813 1.648,0 2.615,-1.087 2.615,-2.78 0,-0.209 -0.022,-0.384 -0.034,-0.406 H -2.66 c 0.034,-0.813 0.671,-1.395 1.461,-1.395 0.769,0 1.166,0.406 1.34,0.933 z" /></g><g
           transform="translate(130.0358,48.0289)"
           id="g60"><path
             id="path62"
             style="fill:#000000;fill-opacity:1;fill-rule:nonzero;stroke:none"
             d="M 0,0 C 0,0.912 -0.583,1.505 -1.375,1.505 -2.187,1.505 -2.77,0.912 -2.77,0 c 0,-0.934 0.561,-1.516 1.395,-1.516 C -0.561,-1.516 0,-0.923 0,0 m -2.891,-2.835 c 0.088,-0.659 0.606,-1.153 1.341,-1.153 1.01,0 1.516,0.516 1.516,1.604 v 0.56 c -0.231,-0.417 -0.768,-0.78 -1.549,-0.78 -1.428,0 -2.472,1.099 -2.472,2.604 0,1.428 0.999,2.604 2.472,2.604 0.835,0 1.351,-0.34 1.583,-0.78 V 2.505 H 1.23 V -2.34 c 0,-1.428 -0.736,-2.758 -2.746,-2.758 -1.419,0 -2.407,0.879 -2.55,1.956 z" /></g><g
           transform="translate(133.5639,46.9414)"
           id="g64"><path
             id="path66"
             style="fill:#000000;fill-opacity:1;fill-rule:nonzero;stroke:none"
             d="m 0,0 c 0.044,-0.484 0.407,-0.912 1.089,-0.912 0.526,0 0.8,0.286 0.8,0.615 0,0.286 -0.196,0.506 -0.625,0.594 L 0.473,0.472 c -0.945,0.209 -1.44,0.824 -1.44,1.56 0,0.935 0.858,1.726 1.968,1.726 1.495,0 1.977,-0.967 2.065,-1.495 L 1.989,1.955 C 1.944,2.263 1.715,2.758 1.001,2.758 0.55,2.758 0.232,2.472 0.232,2.142 0.232,1.857 0.44,1.648 0.769,1.582 L 1.583,1.417 c 1.011,-0.22 1.538,-0.834 1.538,-1.626 0,-0.813 -0.659,-1.714 -2.022,-1.714 -1.55,0 -2.142,1.011 -2.209,1.616 z" /></g><g
           transform="translate(140.8854,45.1834)"
           id="g68"><path
             id="path70"
             style="fill:#000000;fill-opacity:1;fill-rule:nonzero;stroke:none"
             d="M 0,0 V 5.351 H 1.22 V 4.67 c 0.308,0.549 0.977,0.835 1.583,0.835 0.702,0 1.318,-0.319 1.602,-0.945 0.418,0.703 1.044,0.945 1.736,0.945 0.967,0 1.891,-0.616 1.891,-2.033 V 0 H 6.799 v 3.263 c 0,0.626 -0.316,1.099 -1.03,1.099 -0.671,0 -1.111,-0.527 -1.111,-1.187 V 0 H 3.407 v 3.263 c 0,0.615 -0.308,1.099 -1.034,1.099 -0.68,0 -1.11,-0.505 -1.11,-1.187 L 1.263,0 Z" /></g><path
           id="path72"
           style="fill:#000000;fill-opacity:1;fill-rule:nonzero;stroke:none"
           d="m 150.579,50.534 h 1.264 v -5.351 h -1.264 z m 0.625,2.714 c 0.464,0 0.837,-0.374 0.837,-0.835 0,-0.462 -0.373,-0.824 -0.837,-0.824 -0.448,0 -0.824,0.362 -0.824,0.824 0,0.461 0.376,0.835 0.824,0.835" /><path
           id="path74"
           style="fill:#000000;fill-opacity:1;fill-rule:nonzero;stroke:none"
           d="m 153.589,53.138 h 1.275 v -7.954 h -1.275 z" /><g
           transform="translate(157.2386,53.2591)"
           id="g76"><path
             id="path78"
             style="fill:#000000;fill-opacity:1;fill-rule:nonzero;stroke:none"
             d="m 0,0 c 0.463,0 0.835,-0.374 0.835,-0.835 0,-0.451 -0.372,-0.824 -0.835,-0.824 -0.449,0 -0.824,0.373 -0.824,0.824 C -0.824,-0.374 -0.449,0 0,0 m -0.626,-2.725 h 1.275 v -5.889 c 0,-1 -0.604,-1.714 -1.593,-1.714 -0.429,0 -0.671,0.077 -0.726,0.099 v 1.054 c 0.055,-0.01 0.242,-0.032 0.385,-0.032 0.482,0 0.659,0.253 0.659,0.692 z" /></g><g
           transform="translate(163.4916,47.8641)"
           id="g80"><path
             id="path82"
             style="fill:#000000;fill-opacity:1;fill-rule:nonzero;stroke:none"
             d="M 0,0 C 0,0.352 -0.078,0.66 -0.198,0.901 L -2.144,-1.56 c 0.198,-0.099 0.418,-0.143 0.649,-0.143 C -0.704,-1.703 0,-1.12 0,0 m -2.781,-0.934 1.957,2.462 c -0.21,0.098 -0.441,0.153 -0.671,0.153 -0.78,0 -1.494,-0.571 -1.494,-1.681 0,-0.374 0.076,-0.681 0.208,-0.934 M -0.078,2.472 0.494,3.186 1.175,2.626 0.604,1.912 C 1.032,1.418 1.285,0.747 1.285,0 c 0,-1.648 -1.175,-2.845 -2.78,-2.845 -0.549,0 -1,0.131 -1.384,0.351 l -0.55,-0.692 -0.692,0.56 0.549,0.693 c -0.439,0.494 -0.692,1.164 -0.692,1.933 0,1.637 1.177,2.835 2.769,2.835 0.528,0 1.01,-0.132 1.417,-0.363" /></g><path
           id="path84"
           style="fill:#000000;fill-opacity:1;fill-rule:nonzero;stroke:none"
           d="m 165.779,48.963 h 3.099 v -1.132 h -3.099 z" /><g
           transform="translate(176.4402,47.8641)"
           id="g86"><path
             id="path88"
             style="fill:#000000;fill-opacity:1;fill-rule:nonzero;stroke:none"
             d="M 0,0 C 0,1.11 -0.704,1.681 -1.495,1.681 -2.276,1.681 -2.99,1.11 -2.99,0 c 0,-1.11 0.714,-1.703 1.495,-1.703 C -0.704,-1.703 0,-1.12 0,0 m 1.285,0 c 0,-1.648 -1.175,-2.845 -2.78,-2.845 -1.593,0 -2.77,1.197 -2.77,2.845 0,1.637 1.177,2.835 2.77,2.835 1.605,0 2.78,-1.198 2.78,-2.835" /></g><g
           transform="translate(182.7385,48.0289)"
           id="g90"><path
             id="path92"
             style="fill:#000000;fill-opacity:1;fill-rule:nonzero;stroke:none"
             d="M 0,0 C 0,0.912 -0.582,1.505 -1.375,1.505 -2.187,1.505 -2.77,0.912 -2.77,0 c 0,-0.934 0.561,-1.516 1.395,-1.516 C -0.561,-1.516 0,-0.923 0,0 m -2.891,-2.835 c 0.088,-0.659 0.606,-1.153 1.342,-1.153 1.01,0 1.516,0.516 1.516,1.604 v 0.56 c -0.232,-0.417 -0.769,-0.78 -1.55,-0.78 -1.428,0 -2.471,1.099 -2.471,2.604 0,1.428 0.998,2.604 2.471,2.604 0.836,0 1.352,-0.34 1.583,-0.78 V 2.505 H 1.23 V -2.34 c 0,-1.428 -0.736,-2.758 -2.746,-2.758 -1.418,0 -2.407,0.879 -2.55,1.956 z" /></g><g
           transform="translate(103.69,34.8907)"
           id="g94"><path
             id="path96"
             style="fill:#000000;fill-opacity:1;fill-rule:nonzero;stroke:none"
             d="m 0,0 c -0.814,0 -1.44,-0.604 -1.44,-1.67 0,-1.054 0.626,-1.692 1.44,-1.692 0.836,0 1.44,0.638 1.44,1.692 C 1.44,-0.604 0.845,0 0,0 m -2.681,-4.362 v 7.955 h 1.253 V 0.33 c 0.241,0.417 0.857,0.802 1.681,0.802 1.605,0 2.471,-1.22 2.471,-2.791 0,-1.615 -0.955,-2.835 -2.516,-2.835 -0.757,0 -1.34,0.33 -1.648,0.846 v -0.714 z" /></g><path
           id="path98"
           style="fill:#000000;fill-opacity:1;fill-rule:nonzero;stroke:none"
           d="m 107.747,35.88 h 1.263 v -5.351 h -1.263 z m 0.625,2.713 c 0.463,0 0.836,-0.373 0.836,-0.835 0,-0.461 -0.373,-0.823 -0.836,-0.823 -0.449,0 -0.824,0.362 -0.824,0.823 0,0.462 0.375,0.835 0.824,0.835" /><g
           transform="translate(114.604,33.2098)"
           id="g100"><path
             id="path102"
             style="fill:#000000;fill-opacity:1;fill-rule:nonzero;stroke:none"
             d="m 0,0 c 0,1.11 -0.704,1.681 -1.495,1.681 -0.78,0 -1.494,-0.571 -1.494,-1.681 0,-1.11 0.714,-1.703 1.494,-1.703 C -0.704,-1.703 0,-1.12 0,0 m 1.285,0 c 0,-1.648 -1.175,-2.845 -2.78,-2.845 -1.592,0 -2.769,1.197 -2.769,2.845 0,1.637 1.177,2.835 2.769,2.835 1.605,0 2.78,-1.198 2.78,-2.835" /></g><g
           transform="translate(119.8139,30.5291)"
           id="g104"><path
             id="path106"
             style="fill:#000000;fill-opacity:1;fill-rule:nonzero;stroke:none"
             d="M 0,0 H -1.275 L -3.45,5.351 h 1.406 l 1.418,-3.824 1.383,3.824 h 1.342 z" /></g><path
           id="path108"
           style="fill:#000000;fill-opacity:1;fill-rule:nonzero;stroke:none"
           d="m 122.947,35.88 h 1.263 v -5.351 h -1.263 z m 0.625,2.713 c 0.463,0 0.836,-0.373 0.836,-0.835 0,-0.461 -0.373,-0.823 -0.836,-0.823 -0.449,0 -0.824,0.362 -0.824,0.823 0,0.462 0.375,0.835 0.824,0.835" /><g
           transform="translate(127.586,35.8798)"
           id="g110"><path
             id="path112"
             style="fill:#000000;fill-opacity:1;fill-rule:nonzero;stroke:none"
             d="M 0,0 H 1.108 V -1.132 H 0 v -2.483 c 0,-0.472 0.208,-0.67 0.681,-0.67 0.174,0 0.384,0.033 0.439,0.044 v -1.055 c -0.077,-0.033 -0.321,-0.12 -0.781,-0.12 -0.988,0 -1.604,0.593 -1.604,1.592 v 2.692 H -2.254 V 0 h 0.275 c 0.572,0 0.824,0.362 0.824,0.835 v 0.802 l 1.155,0 z" /></g><g
           transform="translate(130.828,32.2869)"
           id="g114"><path
             id="path116"
             style="fill:#000000;fill-opacity:1;fill-rule:nonzero;stroke:none"
             d="m 0,0 c 0.043,-0.484 0.406,-0.912 1.089,-0.912 0.526,0 0.8,0.286 0.8,0.615 0,0.286 -0.196,0.506 -0.626,0.594 l -0.79,0.175 c -0.946,0.209 -1.44,0.825 -1.44,1.561 0,0.934 0.857,1.725 1.968,1.725 1.494,0 1.977,-0.967 2.065,-1.494 L 1.989,1.956 C 1.944,2.264 1.715,2.758 1.001,2.758 0.549,2.758 0.232,2.472 0.232,2.142 0.232,1.857 0.44,1.648 0.769,1.582 L 1.583,1.417 c 1.01,-0.22 1.538,-0.834 1.538,-1.626 0,-0.813 -0.659,-1.714 -2.022,-1.714 -1.55,0 -2.142,1.011 -2.209,1.616 z" /></g><g
           transform="translate(138.125,33.6162)"
           id="g118"><path
             id="path120"
             style="fill:#000000;fill-opacity:1;fill-rule:nonzero;stroke:none"
             d="M 0,0 2.242,-3.087 H 0.681 L -0.891,-0.901 -1.55,-1.593 V -3.087 H -2.813 V 4.867 H -1.55 V 0.099 l 2.056,2.165 h 1.691 z" /></g><g
           transform="translate(144.323,32.7484)"
           id="g122"><path
             id="path124"
             style="fill:#000000;fill-opacity:1;fill-rule:nonzero;stroke:none"
             d="M 0,0 V 0.242 L -1.394,0.033 c -0.397,-0.066 -0.714,-0.286 -0.714,-0.725 0,-0.363 0.274,-0.692 0.78,-0.692 C -0.614,-1.384 0,-1.044 0,0 m -1.769,0.846 1.375,0.209 C -0.086,1.099 0,1.252 0,1.439 0,1.89 -0.306,2.252 -1.01,2.252 c -0.671,0 -1.043,-0.428 -1.098,-0.966 l -1.165,0.263 c 0.101,0.923 0.933,1.747 2.251,1.747 1.65,0 2.276,-0.934 2.276,-2 v -2.658 c 0,-0.484 0.055,-0.802 0.066,-0.857 H 0.134 c -0.012,0.032 -0.055,0.252 -0.055,0.681 -0.253,-0.407 -0.781,-0.846 -1.65,-0.846 -1.12,0 -1.812,0.769 -1.812,1.615 0,0.956 0.705,1.483 1.614,1.615" /></g><g
           transform="translate(149.9514,34.8687)"
           id="g126"><path
             id="path128"
             style="fill:#000000;fill-opacity:1;fill-rule:nonzero;stroke:none"
             d="m 0,0 c -0.834,0 -1.438,-0.659 -1.438,-1.659 0,-1.022 0.604,-1.681 1.438,-1.681 0.847,0 1.44,0.659 1.44,1.681 C 1.44,-0.659 0.857,0 0,0 m -2.691,-6.427 v 7.438 h 1.229 V 0.286 c 0.265,0.461 0.881,0.846 1.705,0.846 1.581,0 2.471,-1.208 2.471,-2.791 0,-1.604 -0.976,-2.813 -2.516,-2.813 -0.769,0 -1.352,0.33 -1.626,0.736 v -2.691 z" /></g><path
           id="path130"
           style="fill:#000000;fill-opacity:1;fill-rule:nonzero;stroke:none"
           d="m 153.898,38.484 h 1.275 V 30.53 h -1.275 z" /><g
           transform="translate(160.4379,33.7924)"
           id="g132"><path
             id="path134"
             style="fill:#000000;fill-opacity:1;fill-rule:nonzero;stroke:none"
             d="M 0,0 C -0.024,0.626 -0.439,1.187 -1.32,1.187 -2.12,1.187 -2.583,0.571 -2.627,0 Z M 1.218,-1.736 C 0.934,-2.67 0.086,-3.428 -1.199,-3.428 c -1.449,0 -2.736,1.055 -2.736,2.867 0,1.692 1.254,2.813 2.605,2.813 1.648,0 2.615,-1.087 2.615,-2.78 0,-0.209 -0.022,-0.384 -0.034,-0.406 H -2.66 c 0.033,-0.813 0.671,-1.395 1.461,-1.395 0.769,0 1.166,0.406 1.34,0.933 z" /></g><g
           transform="translate(166.7251,33.3745)"
           id="g136"><path
             id="path138"
             style="fill:#000000;fill-opacity:1;fill-rule:nonzero;stroke:none"
             d="M 0,0 C 0,0.912 -0.583,1.505 -1.375,1.505 -2.188,1.505 -2.77,0.912 -2.77,0 c 0,-0.934 0.561,-1.516 1.395,-1.516 C -0.561,-1.516 0,-0.923 0,0 m -2.892,-2.835 c 0.089,-0.659 0.606,-1.153 1.342,-1.153 1.01,0 1.516,0.516 1.516,1.604 v 0.56 c -0.231,-0.417 -0.769,-0.78 -1.549,-0.78 -1.428,0 -2.472,1.099 -2.472,2.604 0,1.428 0.999,2.604 2.472,2.604 0.835,0 1.351,-0.34 1.583,-0.78 V 2.505 H 1.229 V -2.34 c 0,-1.428 -0.735,-2.758 -2.746,-2.758 -1.418,0 -2.406,0.879 -2.55,1.956 z" /></g><g
           transform="translate(173.1334,33.7924)"
           id="g140"><path
             id="path142"
             style="fill:#000000;fill-opacity:1;fill-rule:nonzero;stroke:none"
             d="M 0,0 C -0.024,0.626 -0.44,1.187 -1.32,1.187 -2.121,1.187 -2.584,0.571 -2.627,0 Z M 1.218,-1.736 C 0.933,-2.67 0.086,-3.428 -1.199,-3.428 c -1.449,0 -2.736,1.055 -2.736,2.867 0,1.692 1.253,2.813 2.605,2.813 1.647,0 2.614,-1.087 2.614,-2.78 0,-0.209 -0.021,-0.384 -0.033,-0.406 H -2.66 c 0.033,-0.813 0.671,-1.395 1.461,-1.395 0.769,0 1.165,0.406 1.34,0.933 z" /></g><g
           transform="translate(102.9761,15.7207)"
           id="g144"><path
             id="path146"
             style="fill:#000000;fill-opacity:1;fill-rule:nonzero;stroke:none"
             d="m 0,0 c -1.275,0 -2.022,0.945 -2.022,2.132 v 3.373 h 1.275 V 2.363 c 0,-0.66 0.308,-1.22 1.076,-1.22 0.736,0 1.12,0.494 1.12,1.197 V 5.505 H 2.724 V 1.132 c 0,-0.44 0.034,-0.78 0.055,-0.978 H 1.559 C 1.538,0.275 1.516,0.528 1.516,0.747 1.251,0.264 0.626,0 0,0" /></g><g
           transform="translate(108.7256,15.8748)"
           id="g148"><path
             id="path150"
             style="fill:#000000;fill-opacity:1;fill-rule:nonzero;stroke:none"
             d="m 0,0 h -1.275 v 5.351 h 1.242 V 4.636 C 0.318,5.252 0.955,5.505 1.55,5.505 2.856,5.505 3.484,4.56 3.484,3.384 V 0 H 2.209 V 3.164 C 2.209,3.823 1.913,4.351 1.11,4.351 0.384,4.351 0,3.79 0,3.087 Z" /></g><path
           id="path152"
           style="fill:#000000;fill-opacity:1;fill-rule:nonzero;stroke:none"
           d="m 113.857,21.225 h 1.263 v -5.351 h -1.263 z m 0.625,2.714 c 0.463,0 0.836,-0.374 0.836,-0.835 0,-0.461 -0.373,-0.824 -0.836,-0.824 -0.449,0 -0.823,0.363 -0.823,0.824 0,0.461 0.374,0.835 0.823,0.835" /><g
           transform="translate(119.6062,15.8748)"
           id="g154"><path
             id="path156"
             style="fill:#000000;fill-opacity:1;fill-rule:nonzero;stroke:none"
             d="M 0,0 H -1.275 L -3.45,5.351 h 1.406 l 1.418,-3.824 1.383,3.824 h 1.342 z" /></g><g
           transform="translate(126.1129,19.1381)"
           id="g158"><path
             id="path160"
             style="fill:#000000;fill-opacity:1;fill-rule:nonzero;stroke:none"
             d="M 0,0 C -0.024,0.626 -0.44,1.186 -1.321,1.186 -2.121,1.186 -2.584,0.571 -2.627,0 Z M 1.218,-1.736 C 0.933,-2.67 0.086,-3.428 -1.199,-3.428 c -1.449,0 -2.736,1.055 -2.736,2.867 0,1.692 1.253,2.813 2.605,2.813 1.648,0 2.615,-1.087 2.615,-2.78 0,-0.209 -0.022,-0.384 -0.034,-0.406 H -2.66 c 0.033,-0.813 0.671,-1.396 1.461,-1.396 0.769,0 1.165,0.407 1.34,0.934 z" /></g><g
           transform="translate(131.85,19.9618)"
           id="g162"><path
             id="path164"
             style="fill:#000000;fill-opacity:1;fill-rule:nonzero;stroke:none"
             d="m 0,0 c -0.143,0.022 -0.286,0.033 -0.418,0.033 -0.988,0 -1.439,-0.571 -1.439,-1.571 v -2.549 h -1.275 v 5.351 h 1.241 V 0.407 c 0.253,0.582 0.846,0.922 1.55,0.922 0.153,0 0.286,-0.021 0.341,-0.032 z" /></g><g
           transform="translate(133.6629,17.6326)"
           id="g166"><path
             id="path168"
             style="fill:#000000;fill-opacity:1;fill-rule:nonzero;stroke:none"
             d="m 0,0 c 0.043,-0.484 0.406,-0.912 1.088,-0.912 0.526,0 0.8,0.286 0.8,0.615 0,0.286 -0.196,0.506 -0.625,0.594 L 0.472,0.472 c -0.945,0.209 -1.439,0.825 -1.439,1.561 0,0.934 0.857,1.725 1.967,1.725 1.495,0 1.977,-0.967 2.065,-1.494 L 1.989,1.956 C 1.943,2.264 1.714,2.758 1,2.758 0.549,2.758 0.231,2.472 0.231,2.142 0.231,1.857 0.439,1.648 0.768,1.582 L 1.582,1.417 C 2.593,1.197 3.12,0.582 3.12,-0.209 c 0,-0.813 -0.659,-1.714 -2.022,-1.714 -1.55,0 -2.142,1.011 -2.209,1.616 z" /></g><path
           id="path170"
           style="fill:#000000;fill-opacity:1;fill-rule:nonzero;stroke:none"
           d="m 138.158,21.225 h 1.264 v -5.351 h -1.264 z m 0.626,2.714 c 0.463,0 0.836,-0.374 0.836,-0.835 0,-0.461 -0.373,-0.824 -0.836,-0.824 -0.449,0 -0.824,0.363 -0.824,0.824 0,0.461 0.375,0.835 0.824,0.835" /><g
           transform="translate(142.7852,21.2255)"
           id="g172"><path
             id="path174"
             style="fill:#000000;fill-opacity:1;fill-rule:nonzero;stroke:none"
             d="M 0,0 H 1.109 V -1.132 H 0 v -2.483 c 0,-0.472 0.208,-0.67 0.681,-0.67 0.175,0 0.385,0.033 0.439,0.044 V -5.296 C 1.044,-5.329 0.801,-5.417 0.34,-5.417 c -0.989,0 -1.605,0.594 -1.605,1.593 v 2.692 H -2.253 V 0 h 0.274 c 0.573,0 0.824,0.362 0.824,0.835 v 0.802 l 1.155,0 z" /></g><g
           transform="translate(148.7766,19.1381)"
           id="g176"><path
             id="path178"
             style="fill:#000000;fill-opacity:1;fill-rule:nonzero;stroke:none"
             d="M 0,0 C -0.024,0.626 -0.44,1.186 -1.32,1.186 -2.121,1.186 -2.583,0.571 -2.627,0 Z M 1.218,-1.736 C 0.934,-2.67 0.086,-3.428 -1.199,-3.428 c -1.449,0 -2.736,1.055 -2.736,2.867 0,1.692 1.253,2.813 2.605,2.813 1.648,0 2.615,-1.087 2.615,-2.78 0,-0.209 -0.022,-0.384 -0.034,-0.406 H -2.66 c 0.033,-0.813 0.671,-1.396 1.461,-1.396 0.769,0 1.166,0.407 1.34,0.934 z" /></g><g
           transform="translate(152.9978,21.2255)"
           id="g180"><path
             id="path182"
             style="fill:#000000;fill-opacity:1;fill-rule:nonzero;stroke:none"
             d="M 0,0 H 1.108 V -1.132 H 0 v -2.483 c 0,-0.472 0.208,-0.67 0.681,-0.67 0.174,0 0.384,0.033 0.439,0.044 V -5.296 C 1.043,-5.329 0.799,-5.417 0.339,-5.417 c -0.988,0 -1.604,0.594 -1.604,1.593 v 2.692 H -2.254 V 0 h 0.275 c 0.573,0 0.824,0.362 0.824,0.835 v 0.802 l 1.155,0 z" /></g></g></g><g
       id="g184"><g
         clip-path="url(#clipPath190)"
         id="g186"><g
           transform="translate(68.529,65.2035)"
           id="g192"><path
             id="path194"
             style="fill:#000000;fill-opacity:1;fill-rule:nonzero;stroke:none"
             d="m 0,0 v -8.23 c 0,-1.912 -0.87,-3.217 -2.82,-3.217 -1.946,0 -2.816,1.305 -2.816,3.217 V 0 h -2.443 v -8.267 c 0,-3.199 1.798,-5.394 5.259,-5.394 3.465,0 5.261,2.195 5.261,5.394 l 0,8.267 z" /></g><g
           transform="translate(43.5862,39.1814)"
           id="g196"><path
             id="path198"
             style="fill:#000000;fill-opacity:1;fill-rule:nonzero;stroke:none"
             d="m 0,0 h -3.009 v 3.727 h 3.085 c 1.285,0 2.29,-0.508 2.29,-1.947 C 2.366,0.417 1.134,0 0,0 M -3.009,9.139 H 0 C 1.097,9.139 2.083,8.723 2.083,7.436 2.083,6.17 1.156,5.772 0.057,5.772 H -3.009 Z M 4.56,7.588 c 0,1.154 -0.568,2.271 -1.552,2.914 -0.907,0.586 -2.024,0.738 -3.101,0.738 H -5.431 V -2.193 h 5.338 c 1.286,0 2.534,0.113 3.574,0.907 0.965,0.738 1.362,1.816 1.362,3.009 0,1.25 -0.66,2.441 -1.928,3.026 1.136,0.512 1.645,1.742 1.645,2.839" /></g><g
           transform="translate(61.2813,25.0644)"
           id="g200"><path
             id="path202"
             style="fill:#000000;fill-opacity:1;fill-rule:nonzero;stroke:none"
             d="m 0,0 h -17.557 v 5.938 h -2.339 V 0 h -5.983 v -2.34 h 5.983 v -17.556 h -29.528 v -2.34 h 30.697 c 0.646,0 1.17,0.524 1.17,1.17 V -2.34 H 1.17 c 0.646,0 1.17,0.523 1.17,1.17 V 20.606 H 0 Z" /></g><g
           transform="translate(21.2579,36.9394)"
           id="g204"><path
             id="path206"
             style="fill:#000000;fill-opacity:1;fill-rule:nonzero;stroke:none"
             d="m 0,0 h 2.34 v 5.912 h 5.868 v 2.34 H 2.34 v 17.555 h 29.263 v 2.341 H 1.17 C 0.524,28.148 0,27.624 0,26.978 V 8.252 h -18.725 c -0.647,0 -1.171,-0.524 -1.171,-1.17 v -21.891 h 2.341 V 5.912 L 0,5.912 Z" /></g><g
           transform="translate(96.2892,45.1901)"
           id="g208"><path
             id="path210"
             style="fill:#000000;fill-opacity:1;fill-rule:nonzero;stroke:none"
             d="M 0,0 -3.847,5.9 V 0 h -1.318 v 7.79 h 1.681 L 0.055,2.263 V 7.79 h 1.318 l 0,-7.79 z" /></g><g
           transform="translate(103.3567,47.8708)"
           id="g212"><path
             id="path214"
             style="fill:#000000;fill-opacity:1;fill-rule:nonzero;stroke:none"
             d="m 0,0 c 0,1.11 -0.704,1.681 -1.495,1.681 -0.78,0 -1.494,-0.571 -1.494,-1.681 0,-1.11 0.714,-1.703 1.494,-1.703 C -0.704,-1.703 0,-1.12 0,0 m 1.285,0 c 0,-1.648 -1.175,-2.845 -2.78,-2.845 -1.592,0 -2.769,1.197 -2.769,2.845 0,1.637 1.177,2.835 2.769,2.835 1.605,0 2.78,-1.198 2.78,-2.835" /></g><g
           transform="translate(109.1063,49.2771)"
           id="g216"><path
             id="path218"
             style="fill:#000000;fill-opacity:1;fill-rule:nonzero;stroke:none"
             d="m 0,0 c -0.143,0.022 -0.287,0.033 -0.418,0.033 -0.988,0 -1.44,-0.571 -1.44,-1.571 v -2.549 h -1.275 v 5.351 h 1.242 V 0.407 c 0.253,0.582 0.845,0.922 1.55,0.922 0.152,0 0.286,-0.022 0.341,-0.032 z" /></g><g
           transform="translate(113.7455,48.4534)"
           id="g220"><path
             id="path222"
             style="fill:#000000;fill-opacity:1;fill-rule:nonzero;stroke:none"
             d="M 0,0 C -0.024,0.626 -0.439,1.187 -1.32,1.187 -2.12,1.187 -2.583,0.571 -2.626,0 Z M 1.218,-1.736 C 0.934,-2.67 0.086,-3.428 -1.199,-3.428 c -1.449,0 -2.736,1.055 -2.736,2.867 0,1.692 1.254,2.813 2.605,2.813 1.648,0 2.615,-1.087 2.615,-2.78 0,-0.209 -0.022,-0.384 -0.034,-0.406 H -2.66 c 0.034,-0.813 0.671,-1.395 1.461,-1.395 0.769,0 1.166,0.406 1.34,0.933 z" /></g><g
           transform="translate(120.0421,48.0356)"
           id="g224"><path
             id="path226"
             style="fill:#000000;fill-opacity:1;fill-rule:nonzero;stroke:none"
             d="M 0,0 C 0,0.912 -0.583,1.505 -1.375,1.505 -2.187,1.505 -2.77,0.912 -2.77,0 c 0,-0.934 0.561,-1.516 1.395,-1.516 C -0.561,-1.516 0,-0.923 0,0 m -2.891,-2.835 c 0.088,-0.659 0.606,-1.153 1.341,-1.153 1.01,0 1.516,0.516 1.516,1.604 v 0.56 c -0.231,-0.417 -0.768,-0.78 -1.549,-0.78 -1.428,0 -2.472,1.099 -2.472,2.604 0,1.428 0.999,2.604 2.472,2.604 0.835,0 1.351,-0.34 1.583,-0.78 V 2.505 H 1.23 V -2.34 c 0,-1.428 -0.736,-2.758 -2.746,-2.758 -1.419,0 -2.407,0.879 -2.55,1.956 z" /></g><g
           transform="translate(123.5701,46.948)"
           id="g228"><path
             id="path230"
             style="fill:#000000;fill-opacity:1;fill-rule:nonzero;stroke:none"
             d="m 0,0 c 0.044,-0.484 0.407,-0.912 1.089,-0.912 0.526,0 0.8,0.286 0.8,0.615 0,0.286 -0.196,0.506 -0.625,0.594 L 0.473,0.472 c -0.945,0.209 -1.44,0.824 -1.44,1.56 0,0.935 0.858,1.726 1.968,1.726 1.495,0 1.977,-0.967 2.065,-1.495 L 1.989,1.955 C 1.944,2.263 1.715,2.758 1.001,2.758 0.55,2.758 0.232,2.472 0.232,2.142 0.232,1.857 0.44,1.648 0.769,1.582 L 1.583,1.417 c 1.011,-0.22 1.538,-0.834 1.538,-1.626 0,-0.813 -0.659,-1.714 -2.022,-1.714 -1.55,0 -2.142,1.011 -2.209,1.616 z" /></g><g
           transform="translate(130.8916,45.1901)"
           id="g232"><path
             id="path234"
             style="fill:#000000;fill-opacity:1;fill-rule:nonzero;stroke:none"
             d="M 0,0 V 5.351 H 1.22 V 4.67 c 0.308,0.549 0.977,0.835 1.583,0.835 0.702,0 1.318,-0.319 1.602,-0.945 0.418,0.703 1.044,0.945 1.736,0.945 0.967,0 1.891,-0.616 1.891,-2.033 V 0 H 6.799 v 3.263 c 0,0.626 -0.316,1.099 -1.03,1.099 -0.671,0 -1.111,-0.527 -1.111,-1.187 V 0 H 3.407 v 3.263 c 0,0.615 -0.308,1.099 -1.034,1.099 -0.68,0 -1.11,-0.505 -1.11,-1.187 L 1.263,0 Z" /></g><path
           id="path236"
           style="fill:#000000;fill-opacity:1;fill-rule:nonzero;stroke:none"
           d="m 140.585,50.541 h 1.264 V 45.19 h -1.264 z m 0.626,2.713 c 0.463,0 0.836,-0.373 0.836,-0.835 0,-0.461 -0.373,-0.823 -0.836,-0.823 -0.449,0 -0.824,0.362 -0.824,0.823 0,0.462 0.375,0.835 0.824,0.835" /><path
           id="path238"
           style="fill:#000000;fill-opacity:1;fill-rule:nonzero;stroke:none"
           d="m 143.596,53.145 h 1.275 v -7.954 h -1.275 z" /><g
           transform="translate(147.2448,53.2657)"
           id="g240"><path
             id="path242"
             style="fill:#000000;fill-opacity:1;fill-rule:nonzero;stroke:none"
             d="m 0,0 c 0.463,0 0.835,-0.374 0.835,-0.835 0,-0.451 -0.372,-0.824 -0.835,-0.824 -0.449,0 -0.824,0.373 -0.824,0.824 C -0.824,-0.374 -0.449,0 0,0 m -0.626,-2.725 h 1.275 v -5.889 c 0,-1 -0.604,-1.714 -1.593,-1.714 -0.429,0 -0.671,0.077 -0.726,0.099 v 1.054 c 0.055,-0.01 0.242,-0.032 0.385,-0.032 0.482,0 0.659,0.253 0.659,0.692 z" /></g><g
           transform="translate(153.4978,47.8708)"
           id="g244"><path
             id="path246"
             style="fill:#000000;fill-opacity:1;fill-rule:nonzero;stroke:none"
             d="M 0,0 C 0,0.352 -0.078,0.66 -0.198,0.901 L -2.144,-1.56 c 0.198,-0.099 0.418,-0.143 0.649,-0.143 C -0.704,-1.703 0,-1.12 0,0 m -2.781,-0.934 1.957,2.462 c -0.21,0.098 -0.441,0.153 -0.671,0.153 -0.78,0 -1.494,-0.571 -1.494,-1.681 0,-0.374 0.076,-0.681 0.208,-0.934 M -0.078,2.472 0.494,3.186 1.175,2.626 0.604,1.912 C 1.032,1.418 1.285,0.747 1.285,0 c 0,-1.648 -1.175,-2.845 -2.78,-2.845 -0.549,0 -1,0.131 -1.384,0.351 l -0.55,-0.692 -0.692,0.56 0.549,0.693 c -0.439,0.494 -0.692,1.164 -0.692,1.933 0,1.637 1.177,2.835 2.769,2.835 0.528,0 1.01,-0.132 1.417,-0.363" /></g><path
           id="path248"
           style="fill:#000000;fill-opacity:1;fill-rule:nonzero;stroke:none"
           d="m 155.785,48.97 h 3.099 v -1.132 h -3.099 z" /><g
           transform="translate(166.4465,47.8708)"
           id="g250"><path
             id="path252"
             style="fill:#000000;fill-opacity:1;fill-rule:nonzero;stroke:none"
             d="M 0,0 C 0,1.11 -0.704,1.681 -1.495,1.681 -2.276,1.681 -2.99,1.11 -2.99,0 c 0,-1.11 0.714,-1.703 1.495,-1.703 C -0.704,-1.703 0,-1.12 0,0 m 1.285,0 c 0,-1.648 -1.175,-2.845 -2.78,-2.845 -1.593,0 -2.77,1.197 -2.77,2.845 0,1.637 1.177,2.835 2.77,2.835 1.605,0 2.78,-1.198 2.78,-2.835" /></g><g
           transform="translate(172.7447,48.0356)"
           id="g254"><path
             id="path256"
             style="fill:#000000;fill-opacity:1;fill-rule:nonzero;stroke:none"
             d="M 0,0 C 0,0.912 -0.582,1.505 -1.375,1.505 -2.187,1.505 -2.77,0.912 -2.77,0 c 0,-0.934 0.561,-1.516 1.395,-1.516 C -0.561,-1.516 0,-0.923 0,0 m -2.891,-2.835 c 0.088,-0.659 0.606,-1.153 1.342,-1.153 1.01,0 1.516,0.516 1.516,1.604 v 0.56 c -0.232,-0.417 -0.769,-0.78 -1.55,-0.78 -1.428,0 -2.471,1.099 -2.471,2.604 0,1.428 0.998,2.604 2.471,2.604 0.836,0 1.352,-0.34 1.583,-0.78 V 2.505 H 1.23 V -2.34 c 0,-1.428 -0.736,-2.758 -2.746,-2.758 -1.418,0 -2.407,0.879 -2.55,1.956 z" /></g><g
           transform="translate(93.6962,34.8974)"
           id="g258"><path
             id="path260"
             style="fill:#000000;fill-opacity:1;fill-rule:nonzero;stroke:none"
             d="m 0,0 c -0.814,0 -1.44,-0.604 -1.44,-1.67 0,-1.054 0.626,-1.692 1.44,-1.692 0.836,0 1.44,0.638 1.44,1.692 C 1.44,-0.604 0.845,0 0,0 m -2.681,-4.362 v 7.955 h 1.253 V 0.33 c 0.241,0.417 0.857,0.802 1.681,0.802 1.605,0 2.471,-1.22 2.471,-2.791 0,-1.615 -0.955,-2.835 -2.516,-2.835 -0.757,0 -1.34,0.33 -1.648,0.846 v -0.714 z" /></g><path
           id="path262"
           style="fill:#000000;fill-opacity:1;fill-rule:nonzero;stroke:none"
           d="m 97.753,35.886 h 1.263 v -5.351 h -1.263 z m 0.625,2.714 c 0.464,0 0.836,-0.374 0.836,-0.835 0,-0.461 -0.372,-0.824 -0.836,-0.824 -0.448,0 -0.823,0.363 -0.823,0.824 0,0.461 0.375,0.835 0.823,0.835" /><g
           transform="translate(104.6102,33.2164)"
           id="g264"><path
             id="path266"
             style="fill:#000000;fill-opacity:1;fill-rule:nonzero;stroke:none"
             d="m 0,0 c 0,1.11 -0.704,1.681 -1.495,1.681 -0.78,0 -1.494,-0.571 -1.494,-1.681 0,-1.11 0.714,-1.703 1.494,-1.703 C -0.704,-1.703 0,-1.12 0,0 m 1.285,0 c 0,-1.648 -1.175,-2.845 -2.78,-2.845 -1.592,0 -2.769,1.197 -2.769,2.845 0,1.637 1.177,2.835 2.769,2.835 1.605,0 2.78,-1.198 2.78,-2.835" /></g><g
           transform="translate(109.8201,30.5358)"
           id="g268"><path
             id="path270"
             style="fill:#000000;fill-opacity:1;fill-rule:nonzero;stroke:none"
             d="M 0,0 H -1.275 L -3.45,5.351 h 1.406 l 1.418,-3.824 1.383,3.824 h 1.342 z" /></g><path
           id="path272"
           style="fill:#000000;fill-opacity:1;fill-rule:nonzero;stroke:none"
           d="m 112.953,35.886 h 1.263 v -5.351 h -1.263 z m 0.625,2.714 c 0.464,0 0.836,-0.374 0.836,-0.835 0,-0.461 -0.372,-0.824 -0.836,-0.824 -0.449,0 -0.823,0.363 -0.823,0.824 0,0.461 0.374,0.835 0.823,0.835" /><g
           transform="translate(117.5922,35.8865)"
           id="g274"><path
             id="path276"
             style="fill:#000000;fill-opacity:1;fill-rule:nonzero;stroke:none"
             d="M 0,0 H 1.108 V -1.132 H 0 v -2.483 c 0,-0.472 0.208,-0.67 0.681,-0.67 0.174,0 0.384,0.033 0.439,0.044 v -1.055 c -0.077,-0.033 -0.321,-0.12 -0.781,-0.12 -0.988,0 -1.604,0.593 -1.604,1.592 v 2.692 H -2.254 V 0 h 0.275 c 0.572,0 0.824,0.362 0.824,0.835 v 0.802 l 1.155,0 z" /></g><g
           transform="translate(120.8342,32.2936)"
           id="g278"><path
             id="path280"
             style="fill:#000000;fill-opacity:1;fill-rule:nonzero;stroke:none"
             d="m 0,0 c 0.043,-0.484 0.406,-0.912 1.089,-0.912 0.526,0 0.8,0.286 0.8,0.615 0,0.286 -0.196,0.506 -0.626,0.594 l -0.79,0.175 c -0.946,0.209 -1.44,0.825 -1.44,1.561 0,0.934 0.857,1.725 1.968,1.725 1.494,0 1.977,-0.967 2.065,-1.494 L 1.989,1.956 C 1.944,2.264 1.715,2.758 1.001,2.758 0.549,2.758 0.232,2.472 0.232,2.142 0.232,1.857 0.44,1.648 0.769,1.582 L 1.583,1.417 c 1.01,-0.22 1.538,-0.834 1.538,-1.626 0,-0.813 -0.659,-1.714 -2.022,-1.714 -1.55,0 -2.142,1.011 -2.209,1.616 z" /></g><g
           transform="translate(128.1312,33.6229)"
           id="g282"><path
             id="path284"
             style="fill:#000000;fill-opacity:1;fill-rule:nonzero;stroke:none"
             d="M 0,0 2.242,-3.087 H 0.681 L -0.891,-0.901 -1.55,-1.593 V -3.087 H -2.813 V 4.867 H -1.55 V 0.099 l 2.056,2.165 h 1.691 z" /></g><g
           transform="translate(134.3293,32.7551)"
           id="g286"><path
             id="path288"
             style="fill:#000000;fill-opacity:1;fill-rule:nonzero;stroke:none"
             d="M 0,0 V 0.242 L -1.394,0.033 c -0.397,-0.066 -0.714,-0.286 -0.714,-0.725 0,-0.363 0.274,-0.692 0.78,-0.692 C -0.614,-1.384 0,-1.044 0,0 m -1.769,0.846 1.375,0.209 C -0.086,1.099 0,1.252 0,1.439 0,1.89 -0.306,2.252 -1.01,2.252 c -0.671,0 -1.043,-0.428 -1.098,-0.966 l -1.165,0.263 c 0.101,0.923 0.933,1.747 2.251,1.747 1.65,0 2.276,-0.934 2.276,-2 v -2.658 c 0,-0.484 0.055,-0.802 0.066,-0.857 H 0.134 c -0.012,0.032 -0.055,0.252 -0.055,0.681 -0.253,-0.407 -0.781,-0.846 -1.65,-0.846 -1.12,0 -1.812,0.769 -1.812,1.615 0,0.956 0.705,1.483 1.614,1.615" /></g><g
           transform="translate(139.9576,34.8754)"
           id="g290"><path
             id="path292"
             style="fill:#000000;fill-opacity:1;fill-rule:nonzero;stroke:none"
             d="m 0,0 c -0.834,0 -1.438,-0.659 -1.438,-1.659 0,-1.022 0.604,-1.681 1.438,-1.681 0.847,0 1.44,0.659 1.44,1.681 C 1.44,-0.659 0.857,0 0,0 m -2.691,-6.427 v 7.438 h 1.229 V 0.286 c 0.265,0.461 0.881,0.846 1.705,0.846 1.581,0 2.471,-1.208 2.471,-2.791 0,-1.604 -0.976,-2.813 -2.516,-2.813 -0.769,0 -1.352,0.33 -1.626,0.736 v -2.691 z" /></g><path
           id="path294"
           style="fill:#000000;fill-opacity:1;fill-rule:nonzero;stroke:none"
           d="m 143.904,38.49 h 1.275 v -7.954 h -1.275 z" /><g
           transform="translate(150.4441,33.7991)"
           id="g296"><path
             id="path298"
             style="fill:#000000;fill-opacity:1;fill-rule:nonzero;stroke:none"
             d="M 0,0 C -0.024,0.626 -0.439,1.187 -1.32,1.187 -2.12,1.187 -2.583,0.571 -2.627,0 Z M 1.218,-1.736 C 0.934,-2.67 0.086,-3.428 -1.199,-3.428 c -1.449,0 -2.736,1.055 -2.736,2.867 0,1.692 1.254,2.813 2.605,2.813 1.648,0 2.615,-1.087 2.615,-2.78 0,-0.209 -0.022,-0.384 -0.034,-0.406 H -2.66 c 0.033,-0.813 0.671,-1.395 1.461,-1.395 0.769,0 1.166,0.406 1.34,0.933 z" /></g><g
           transform="translate(156.7313,33.3812)"
           id="g300"><path
             id="path302"
             style="fill:#000000;fill-opacity:1;fill-rule:nonzero;stroke:none"
             d="M 0,0 C 0,0.912 -0.583,1.505 -1.375,1.505 -2.188,1.505 -2.77,0.912 -2.77,0 c 0,-0.934 0.561,-1.516 1.395,-1.516 C -0.561,-1.516 0,-0.923 0,0 m -2.892,-2.835 c 0.089,-0.659 0.606,-1.153 1.342,-1.153 1.01,0 1.516,0.516 1.516,1.604 v 0.56 c -0.231,-0.417 -0.769,-0.78 -1.549,-0.78 -1.428,0 -2.472,1.099 -2.472,2.604 0,1.428 0.999,2.604 2.472,2.604 0.835,0 1.351,-0.34 1.583,-0.78 V 2.505 H 1.229 V -2.34 c 0,-1.428 -0.735,-2.758 -2.746,-2.758 -1.418,0 -2.406,0.879 -2.55,1.956 z" /></g><g
           transform="translate(163.1396,33.7991)"
           id="g304"><path
             id="path306"
             style="fill:#000000;fill-opacity:1;fill-rule:nonzero;stroke:none"
             d="M 0,0 C -0.024,0.626 -0.44,1.187 -1.32,1.187 -2.121,1.187 -2.584,0.571 -2.627,0 Z M 1.218,-1.736 C 0.933,-2.67 0.086,-3.428 -1.199,-3.428 c -1.449,0 -2.736,1.055 -2.736,2.867 0,1.692 1.253,2.813 2.605,2.813 1.647,0 2.614,-1.087 2.614,-2.78 0,-0.209 -0.021,-0.384 -0.033,-0.406 H -2.66 c 0.033,-0.813 0.671,-1.395 1.461,-1.395 0.769,0 1.165,0.406 1.34,0.933 z" /></g><g
           transform="translate(92.9823,15.7274)"
           id="g308"><path
             id="path310"
             style="fill:#000000;fill-opacity:1;fill-rule:nonzero;stroke:none"
             d="m 0,0 c -1.275,0 -2.022,0.945 -2.022,2.132 v 3.373 h 1.275 V 2.363 c 0,-0.66 0.308,-1.22 1.076,-1.22 0.736,0 1.12,0.494 1.12,1.197 V 5.505 H 2.724 V 1.132 c 0,-0.44 0.034,-0.78 0.055,-0.978 H 1.559 C 1.538,0.275 1.516,0.528 1.516,0.747 1.251,0.264 0.626,0 0,0" /></g><g
           transform="translate(98.7318,15.8815)"
           id="g312"><path
             id="path314"
             style="fill:#000000;fill-opacity:1;fill-rule:nonzero;stroke:none"
             d="m 0,0 h -1.275 v 5.351 h 1.242 V 4.636 C 0.318,5.252 0.955,5.505 1.55,5.505 2.856,5.505 3.484,4.56 3.484,3.384 V 0 H 2.209 V 3.164 C 2.209,3.823 1.913,4.351 1.11,4.351 0.384,4.351 0,3.79 0,3.087 Z" /></g><path
           id="path316"
           style="fill:#000000;fill-opacity:1;fill-rule:nonzero;stroke:none"
           d="m 103.863,21.232 h 1.263 v -5.351 h -1.263 z m 0.625,2.714 c 0.464,0 0.836,-0.374 0.836,-0.835 0,-0.462 -0.372,-0.824 -0.836,-0.824 -0.448,0 -0.823,0.362 -0.823,0.824 0,0.461 0.375,0.835 0.823,0.835" /><g
           transform="translate(109.6124,15.8815)"
           id="g318"><path
             id="path320"
             style="fill:#000000;fill-opacity:1;fill-rule:nonzero;stroke:none"
             d="M 0,0 H -1.275 L -3.45,5.351 h 1.406 l 1.418,-3.824 1.383,3.824 h 1.342 z" /></g><g
           transform="translate(116.1191,19.1447)"
           id="g322"><path
             id="path324"
             style="fill:#000000;fill-opacity:1;fill-rule:nonzero;stroke:none"
             d="M 0,0 C -0.024,0.626 -0.44,1.186 -1.321,1.186 -2.121,1.186 -2.584,0.571 -2.627,0 Z M 1.218,-1.736 C 0.933,-2.67 0.086,-3.428 -1.199,-3.428 c -1.449,0 -2.736,1.055 -2.736,2.867 0,1.692 1.253,2.813 2.605,2.813 1.648,0 2.615,-1.087 2.615,-2.78 0,-0.209 -0.022,-0.384 -0.034,-0.406 H -2.66 c 0.033,-0.813 0.671,-1.396 1.461,-1.396 0.769,0 1.165,0.407 1.34,0.934 z" /></g><g
           transform="translate(121.8562,19.9684)"
           id="g326"><path
             id="path328"
             style="fill:#000000;fill-opacity:1;fill-rule:nonzero;stroke:none"
             d="m 0,0 c -0.143,0.022 -0.286,0.033 -0.418,0.033 -0.988,0 -1.439,-0.571 -1.439,-1.571 v -2.549 h -1.275 v 5.351 h 1.241 V 0.407 c 0.253,0.582 0.846,0.922 1.55,0.922 0.153,0 0.286,-0.021 0.341,-0.032 z" /></g><g
           transform="translate(123.6692,17.6393)"
           id="g330"><path
             id="path332"
             style="fill:#000000;fill-opacity:1;fill-rule:nonzero;stroke:none"
             d="m 0,0 c 0.043,-0.484 0.406,-0.912 1.088,-0.912 0.526,0 0.8,0.286 0.8,0.615 0,0.286 -0.196,0.506 -0.625,0.594 L 0.472,0.472 c -0.945,0.209 -1.439,0.825 -1.439,1.561 0,0.934 0.857,1.725 1.967,1.725 1.495,0 1.977,-0.967 2.065,-1.494 L 1.989,1.956 C 1.943,2.264 1.714,2.758 1,2.758 0.549,2.758 0.231,2.472 0.231,2.142 0.231,1.857 0.439,1.648 0.768,1.582 L 1.582,1.417 C 2.593,1.197 3.12,0.582 3.12,-0.209 c 0,-0.813 -0.659,-1.714 -2.022,-1.714 -1.55,0 -2.142,1.011 -2.209,1.616 z" /></g><path
           id="path334"
           style="fill:#000000;fill-opacity:1;fill-rule:nonzero;stroke:none"
           d="m 128.164,21.232 h 1.264 v -5.351 h -1.264 z m 0.626,2.714 c 0.463,0 0.836,-0.374 0.836,-0.835 0,-0.462 -0.373,-0.824 -0.836,-0.824 -0.448,0 -0.824,0.362 -0.824,0.824 0,0.461 0.376,0.835 0.824,0.835" /><g
           transform="translate(132.7914,21.2322)"
           id="g336"><path
             id="path338"
             style="fill:#000000;fill-opacity:1;fill-rule:nonzero;stroke:none"
             d="M 0,0 H 1.109 V -1.132 H 0 v -2.483 c 0,-0.472 0.208,-0.67 0.681,-0.67 0.175,0 0.385,0.033 0.439,0.044 V -5.296 C 1.044,-5.329 0.801,-5.417 0.34,-5.417 c -0.989,0 -1.605,0.594 -1.605,1.593 v 2.692 H -2.253 V 0 h 0.274 c 0.573,0 0.824,0.362 0.824,0.835 v 0.802 l 1.155,0 z" /></g><g
           transform="translate(138.7828,19.1447)"
           id="g340"><path
             id="path342"
             style="fill:#000000;fill-opacity:1;fill-rule:nonzero;stroke:none"
             d="M 0,0 C -0.024,0.626 -0.44,1.186 -1.32,1.186 -2.121,1.186 -2.583,0.571 -2.627,0 Z M 1.218,-1.736 C 0.934,-2.67 0.086,-3.428 -1.199,-3.428 c -1.449,0 -2.736,1.055 -2.736,2.867 0,1.692 1.253,2.813 2.605,2.813 1.648,0 2.615,-1.087 2.615,-2.78 0,-0.209 -0.022,-0.384 -0.034,-0.406 H -2.66 c 0.033,-0.813 0.671,-1.396 1.461,-1.396 0.769,0 1.166,0.407 1.34,0.934 z" /></g><g
           transform="translate(143.004,21.2322)"
           id="g344"><path
             id="path346"
             style="fill:#000000;fill-opacity:1;fill-rule:nonzero;stroke:none"
             d="M 0,0 H 1.108 V -1.132 H 0 v -2.483 c 0,-0.472 0.208,-0.67 0.681,-0.67 0.174,0 0.384,0.033 0.439,0.044 V -5.296 C 1.043,-5.329 0.799,-5.417 0.339,-5.417 c -0.988,0 -1.604,0.594 -1.604,1.593 v 2.692 H -2.254 V 0 h 0.275 c 0.573,0 0.824,0.362 0.824,0.835 v 0.802 l 1.155,0 z" /></g></g></g></g></svg>