<?xml version="1.0" encoding="UTF-8" standalone="no"?>
<svg
   xmlns:dc="http://purl.org/dc/elements/1.1/"
   xmlns:cc="http://creativecommons.org/ns#"
   xmlns:rdf="http://www.w3.org/1999/02/22-rdf-syntax-ns#"
   xmlns:svg="http://www.w3.org/2000/svg"
   xmlns="http://www.w3.org/2000/svg"
   viewBox="0 0 366.28934 90.708664"
   height="90.708664"
   width="366.28934"
   xml:space="preserve"
   id="svg2"
   version="1.1"><metadata
     id="metadata8"><rdf:RDF><cc:Work
         rdf:about=""><dc:format>image/svg+xml</dc:format><dc:type
           rdf:resource="http://purl.org/dc/dcmitype/StillImage" /></cc:Work></rdf:RDF></metadata><defs
     id="defs6"><clipPath
       id="clipPath18"
       clipPathUnits="userSpaceOnUse"><path
         id="path16"
         d="M 75.213,34.795 H 271.882 V 55.842 H 75.213 Z" /></clipPath><clipPath
       id="clipPath30"
       clipPathUnits="userSpaceOnUse"><path
         id="path28"
         d="M 43.855,55.842 H 69.091 V 34.795 H 43.855 Z" /></clipPath><clipPath
       id="clipPath42"
       clipPathUnits="userSpaceOnUse"><path
         id="path40"
         d="m 74.873,12.118 h 35.078 V 33.164 H 74.873 Z" /></clipPath><clipPath
       id="clipPath54"
       clipPathUnits="userSpaceOnUse"><path
         id="path52"
         d="m -155.796,33.165 h 25.236 V 12.118 h -25.236 z" /></clipPath><clipPath
       id="clipPath66"
       clipPathUnits="userSpaceOnUse"><path
         id="path64"
         d="M 2.835,2.835 H 73.701 V 65.197 H 2.835 Z" /></clipPath><clipPath
       id="clipPath78"
       clipPathUnits="userSpaceOnUse"><path
         id="path76"
         d="M 2.835,7.798 H 65.706 V 60.234 H 2.835 Z" /></clipPath></defs><g
     transform="matrix(1.3333333,0,0,-1.3333333,0,90.708667)"
     id="g10"><g
       id="g12"><g
         clip-path="url(#clipPath18)"
         id="g14"><g
           transform="translate(80.3301,51.1425)"
           id="g20"><path
             id="path22"
             style="fill:#000000;fill-opacity:1;fill-rule:nonzero;stroke:none"
             d="m 0,0 c -2.146,0 -4.189,-1.226 -4.189,-3.269 0,-2.248 1.43,-2.963 3.984,-3.577 1.328,-0.306 1.738,-0.817 1.738,-1.429 0,-0.614 -0.614,-1.022 -1.431,-1.022 -0.817,0 -1.737,0.408 -1.941,1.532 H -4.7 c 0.204,-2.452 2.043,-3.576 4.904,-3.576 2.248,0 4.291,1.124 4.291,3.27 0,1.737 -1.021,2.861 -3.372,3.473 -1.838,0.409 -2.349,0.818 -2.349,1.533 0,0.715 0.408,1.022 1.124,1.022 0.919,0 1.43,-0.613 1.532,-1.533 H 4.291 C 4.087,-1.634 2.861,0 0,0 m 11.954,-0.306 c -0.613,0.102 -1.022,0.102 -1.737,0.102 H 6.028 v -11.035 h 2.861 v 3.781 h 1.328 c 0.715,0 1.124,0 1.737,0.101 1.635,0.205 3.065,1.329 3.065,3.475 0,2.145 -1.43,3.371 -3.065,3.576 M 10.83,-5.21 H 10.013 8.889 v 2.656 h 1.124 0.817 c 0.715,-0.102 1.124,-0.511 1.124,-1.328 0.102,-0.817 -0.307,-1.227 -1.124,-1.328 m 10.728,-3.168 0.92,-2.861 h 3.167 L 21.66,-0.306 h -3.474 l -3.984,-11.035 h 3.065 l 0.919,2.861 h 3.372 z m -1.635,5.62 1.022,-3.372 h -2.043 z m 15.326,-5.824 c -0.205,1.328 -0.613,2.145 -1.737,2.554 1.43,0.409 2.248,1.329 2.248,2.759 0,1.941 -1.431,2.758 -2.963,2.963 -0.613,0.102 -1.022,0.102 -1.737,0.102 h -4.394 v -11.035 h 2.861 v 4.19 h 0.613 0.92 c 0.715,0 1.226,-0.716 1.328,-1.942 0.102,-0.817 0.204,-1.431 0.511,-2.248 h 3.167 c -0.408,0.614 -0.613,1.431 -0.817,2.657 m -5.722,3.576 v 2.554 h 1.124 0.817 c 0.716,-0.102 1.329,-0.306 1.329,-1.226 0,-0.92 -0.715,-1.226 -1.431,-1.226 h -0.817 -1.022 z m 16.45,-4.087 h -5.619 v 2.146 h 5.108 v 2.248 h -5.108 v 2.145 h 5.414 v 2.248 h -8.276 v -11.035 h 8.481 z m 8.991,3.78 c 1.124,0.409 1.635,1.124 1.635,2.146 0,1.43 -1.022,2.554 -2.861,2.758 -0.613,0.103 -0.818,0.103 -1.431,0.103 h -4.495 v -11.035 h 4.393 c 0.715,0 1.022,0 1.635,0.102 1.532,0.205 3.167,1.226 3.167,3.27 -0.102,1.328 -0.715,2.248 -2.043,2.656 m -4.292,2.861 h 1.329 0.715 c 0.511,-0.102 0.92,-0.409 0.92,-1.022 0,-0.613 -0.409,-0.919 -0.92,-1.021 h -0.715 -1.329 z m 2.248,-6.539 h -0.715 -1.533 v 2.35 h 1.431 0.715 c 0.613,0 1.124,-0.408 1.124,-1.124 0,-0.817 -0.511,-1.226 -1.022,-1.226 m 11.955,0.613 0.919,-2.861 h 3.167 L 64.879,-0.306 H 61.404 L 57.42,-11.341 h 3.065 l 0.919,2.861 h 3.475 z m -1.737,5.62 1.021,-3.372 H 62.12 Z m 17.369,-8.481 V -0.306 H 77.65 v -4.7 c 0,-0.613 0,-1.737 0.102,-2.861 l -4.189,7.561 h -3.576 v -11.035 h 2.861 v 4.598 c 0,0.613 0,1.634 -0.102,2.758 l 3.984,-7.254 z m 7.867,5.824 4.802,5.211 h -3.474 l -4.189,-4.905 v 4.803 h -2.861 v -11.035 h 2.861 v 3.372 l 0.817,0.817 3.065,-4.291 h 3.576 z M 98.391,0 c -2.146,0 -4.189,-1.226 -4.189,-3.269 0,-2.248 1.43,-2.963 3.984,-3.577 1.328,-0.306 1.737,-0.817 1.737,-1.429 0,-0.614 -0.613,-1.022 -1.43,-1.022 -0.818,0 -1.737,0.408 -1.942,1.532 h -2.86 c 0.204,-2.452 2.043,-3.576 4.904,-3.576 2.248,0 4.291,1.124 4.291,3.27 0,1.737 -1.022,2.861 -3.372,3.473 -1.839,0.409 -2.35,0.818 -2.35,1.533 0,0.715 0.409,1.022 1.124,1.022 0.92,0 1.431,-0.613 1.533,-1.533 h 2.861 C 102.477,-1.634 101.251,0 98.391,0 m 15.019,-2.452 v 2.146 h -10.013 v -2.248 h 3.576 v -8.787 h 2.861 v 8.787 h 3.576 z m 3.984,2.146 h -2.861 V -11.34 h 2.861 z m 5.109,-2.146 h 5.415 v 2.146 h -8.276 v -11.035 h 2.861 v 4.394 h 4.904 v 2.248 h -4.904 z m 15.836,0 v 2.146 h -10.012 v -2.248 h 3.576 v -8.787 h 2.86 v 8.787 h 3.576 z m 9.605,-6.641 h -5.62 v 2.146 h 5.109 v 2.248 h -5.109 v 2.145 h 5.415 v 2.248 h -8.276 v -11.035 h 8.481 z m 10.217,0.204 h -5.62 v 8.583 h -2.861 v -11.035 h 8.481 z M 163.576,0 c -2.146,0 -4.189,-1.226 -4.189,-3.269 0,-2.248 1.43,-2.963 3.984,-3.577 1.329,-0.306 1.737,-0.817 1.737,-1.429 0,-0.614 -0.613,-1.022 -1.43,-1.022 -0.817,0 -1.737,0.408 -1.941,1.532 h -2.861 c 0.204,-2.452 2.043,-3.576 4.904,-3.576 2.248,0 4.291,1.124 4.291,3.27 0,1.737 -1.022,2.861 -3.371,3.473 -1.839,0.409 -2.35,0.818 -2.35,1.533 0,0.715 0.408,1.022 1.124,1.022 0.919,0 1.43,-0.613 1.532,-1.533 h 2.861 C 167.765,-1.634 166.539,0 163.576,0 m 14.61,-9.093 h -5.619 v 2.146 h 5.108 v 2.248 h -5.108 v 2.145 h 5.415 v 2.248 h -8.276 v -11.035 h 8.48 z m 12.261,-2.146 v 10.933 h -2.861 v -4.7 c 0,-0.613 0,-1.737 0.102,-2.861 l -4.189,7.561 h -3.576 v -11.035 h 2.861 v 4.598 c 0,0.613 0,1.634 -0.102,2.758 l 3.984,-7.254 z m 10.523,10.933 c -0.511,0.102 -0.817,0.102 -1.43,0.102 h -4.087 v -11.035 h 4.189 c 0.613,0 0.817,0 1.43,0.103 2.555,0.306 4.7,2.145 4.7,5.619 -0.102,3.372 -2.247,4.904 -4.802,5.211 m -0.715,-8.685 h -1.022 -0.919 v 6.539 h 0.919 1.022 c 1.431,-0.102 2.452,-1.226 2.452,-3.167 0,-1.941 -1.021,-3.27 -2.452,-3.372 m 17.676,-2.248 v 10.933 h -2.861 v -4.7 c 0,-0.613 0,-1.737 0.102,-2.861 l -4.189,7.561 h -3.576 v -11.035 h 2.861 v 4.598 c 0,0.613 0,1.634 -0.102,2.758 l 3.984,-7.254 z m 9.297,5.926 c 1.124,0.409 1.635,1.124 1.635,2.146 0,1.43 -1.022,2.554 -2.861,2.758 -0.511,0.103 -0.817,0.103 -1.43,0.103 h -4.496 v -11.035 h 4.394 c 0.715,0 1.021,0 1.634,0.102 1.533,0.205 3.168,1.226 3.168,3.27 0,1.328 -0.716,2.248 -2.044,2.656 m -4.291,2.861 h 1.328 0.715 c 0.511,-0.102 0.92,-0.409 0.92,-1.022 0,-0.613 -0.409,-0.919 -0.92,-1.021 h -0.715 -1.328 z m 2.248,-6.539 h -0.715 -1.533 v 2.35 h 1.431 0.715 c 0.613,0 1.124,-0.408 1.124,-1.124 0,-0.817 -0.511,-1.226 -1.022,-1.226" /></g><g
           id="g24"><g
             clip-path="url(#clipPath30)"
             id="g26"><g
               transform="translate(45.2851,43.1734)"
               id="g32"><path
                 id="path34"
                 style="fill:none;stroke:#000000;stroke-width:2.96300006;stroke-linecap:butt;stroke-linejoin:miter;stroke-miterlimit:10;stroke-dasharray:none;stroke-opacity:1"
                 d="M 0,0 C 0.613,4.7 3.678,8.889 8.481,10.626 13.895,12.567 19.821,9.808 21.865,4.393 22.58,2.248 22.478,0 21.558,-2.043 c -0.919,-2.044 -2.656,-3.576 -4.7,-4.292 -0.715,-0.306 -1.532,-0.408 -2.35,-0.408 -1.021,0 -1.941,0.204 -2.861,0.613 -1.634,0.817 -2.86,2.145 -3.473,3.882 -1.022,2.759 0.408,5.824 3.065,6.948" /></g></g></g></g></g><g
       id="g36"><g
         clip-path="url(#clipPath42)"
         id="g38"><g
           transform="translate(-119.3211,28.4653)"
           id="g44"><path
             id="path46"
             style="fill:#000000;fill-opacity:1;fill-rule:nonzero;stroke:none"
             d="m 0,0 c -2.146,0 -4.189,-1.226 -4.189,-3.269 0,-2.248 1.43,-2.963 3.984,-3.577 1.328,-0.306 1.738,-0.817 1.738,-1.429 0,-0.614 -0.614,-1.022 -1.431,-1.022 -0.817,0 -1.737,0.408 -1.941,1.532 H -4.7 c 0.204,-2.452 2.043,-3.576 4.904,-3.576 2.248,0 4.291,1.124 4.291,3.27 0,1.737 -1.021,2.861 -3.372,3.473 -1.838,0.409 -2.349,0.818 -2.349,1.533 0,0.715 0.408,1.022 1.124,1.022 0.919,0 1.43,-0.613 1.532,-1.533 H 4.291 C 4.087,-1.634 2.861,0 0,0 m 11.954,-0.306 c -0.613,0.102 -1.022,0.102 -1.737,0.102 H 6.028 v -11.035 h 2.861 v 3.781 h 1.328 c 0.715,0 1.124,0 1.737,0.101 1.635,0.205 3.065,1.329 3.065,3.475 0,2.145 -1.43,3.371 -3.065,3.576 M 10.83,-5.21 H 10.013 8.889 v 2.656 h 1.124 0.817 c 0.715,-0.102 1.124,-0.511 1.124,-1.328 0.102,-0.817 -0.307,-1.227 -1.124,-1.328 m 10.728,-3.168 0.92,-2.861 h 3.167 L 21.66,-0.306 h -3.474 l -3.984,-11.035 h 3.065 l 0.919,2.861 h 3.372 z m -1.635,5.62 1.022,-3.372 h -2.043 z m 15.326,-5.824 c -0.205,1.328 -0.613,2.145 -1.737,2.554 1.43,0.409 2.248,1.329 2.248,2.759 0,1.941 -1.431,2.758 -2.963,2.963 -0.613,0.102 -1.022,0.102 -1.737,0.102 h -4.394 v -11.035 h 2.861 v 4.19 h 0.613 0.92 c 0.715,0 1.226,-0.716 1.328,-1.942 0.102,-0.817 0.204,-1.431 0.511,-2.248 h 3.167 c -0.408,0.614 -0.613,1.431 -0.817,2.657 m -5.722,3.576 v 2.554 h 1.124 0.817 c 0.716,-0.102 1.329,-0.306 1.329,-1.226 0,-0.92 -0.715,-1.226 -1.431,-1.226 h -0.817 -1.022 z m 16.45,-4.087 h -5.619 v 2.146 h 5.108 v 2.248 h -5.108 v 2.145 h 5.414 v 2.248 h -8.276 v -11.035 h 8.481 z m 8.991,3.78 c 1.124,0.409 1.635,1.124 1.635,2.146 0,1.43 -1.022,2.554 -2.861,2.758 -0.613,0.103 -0.818,0.103 -1.431,0.103 h -4.495 v -11.035 h 4.393 c 0.715,0 1.022,0 1.635,0.102 1.532,0.205 3.167,1.226 3.167,3.27 -0.102,1.328 -0.715,2.248 -2.043,2.656 m -4.292,2.861 h 1.329 0.715 c 0.511,-0.102 0.92,-0.409 0.92,-1.022 0,-0.613 -0.409,-0.919 -0.92,-1.021 h -0.715 -1.329 z m 2.248,-6.539 h -0.715 -1.533 v 2.35 h 1.431 0.715 c 0.613,0 1.124,-0.408 1.124,-1.124 0,-0.817 -0.511,-1.226 -1.022,-1.226 m 11.955,0.613 0.919,-2.861 h 3.167 L 64.879,-0.306 H 61.404 L 57.42,-11.341 h 3.065 l 0.919,2.861 h 3.475 z m -1.737,5.62 1.021,-3.372 H 62.12 Z m 17.369,-8.481 V -0.306 H 77.65 v -4.7 c 0,-0.613 0,-1.737 0.102,-2.861 l -4.189,7.561 h -3.576 v -11.035 h 2.861 v 4.598 c 0,0.613 0,1.634 -0.102,2.758 l 3.984,-7.254 z m 7.867,5.824 4.802,5.211 h -3.474 l -4.189,-4.905 v 4.803 h -2.861 v -11.035 h 2.861 v 3.372 l 0.817,0.817 3.065,-4.291 h 3.576 z M 98.391,0 c -2.146,0 -4.189,-1.226 -4.189,-3.269 0,-2.248 1.43,-2.963 3.984,-3.577 1.328,-0.306 1.737,-0.817 1.737,-1.429 0,-0.614 -0.613,-1.022 -1.43,-1.022 -0.818,0 -1.737,0.408 -1.942,1.532 h -2.86 c 0.204,-2.452 2.043,-3.576 4.904,-3.576 2.248,0 4.291,1.124 4.291,3.27 0,1.737 -1.022,2.861 -3.372,3.473 -1.839,0.409 -2.35,0.818 -2.35,1.533 0,0.715 0.409,1.022 1.124,1.022 0.92,0 1.431,-0.613 1.533,-1.533 h 2.861 C 102.477,-1.634 101.251,0 98.391,0 m 15.019,-2.452 v 2.146 h -10.013 v -2.248 h 3.576 v -8.787 h 2.861 v 8.787 h 3.576 z m 3.984,2.146 h -2.861 V -11.34 h 2.861 z m 5.109,-2.146 h 5.415 v 2.146 h -8.276 v -11.035 h 2.861 v 4.394 h 4.904 v 2.248 h -4.904 z m 15.836,0 v 2.146 h -10.012 v -2.248 h 3.576 v -8.787 h 2.86 v 8.787 h 3.576 z m 9.605,-6.641 h -5.62 v 2.146 h 5.109 v 2.248 h -5.109 v 2.145 h 5.415 v 2.248 h -8.276 v -11.035 h 8.481 z m 10.217,0.204 h -5.62 v 8.583 h -2.861 v -11.035 h 8.481 z M 163.576,0 c -2.146,0 -4.189,-1.226 -4.189,-3.269 0,-2.248 1.43,-2.963 3.984,-3.577 1.329,-0.306 1.737,-0.817 1.737,-1.429 0,-0.614 -0.613,-1.022 -1.43,-1.022 -0.817,0 -1.737,0.408 -1.941,1.532 h -2.861 c 0.204,-2.452 2.043,-3.576 4.904,-3.576 2.248,0 4.291,1.124 4.291,3.27 0,1.737 -1.022,2.861 -3.371,3.473 -1.839,0.409 -2.35,0.818 -2.35,1.533 0,0.715 0.408,1.022 1.124,1.022 0.919,0 1.43,-0.613 1.532,-1.533 h 2.861 C 167.765,-1.634 166.539,0 163.576,0 m 14.61,-9.093 h -5.619 v 2.146 h 5.108 v 2.248 h -5.108 v 2.145 h 5.415 v 2.248 h -8.276 v -11.035 h 8.48 z m 12.261,-2.146 v 10.933 h -2.861 v -4.7 c 0,-0.613 0,-1.737 0.102,-2.861 l -4.189,7.561 h -3.576 v -11.035 h 2.861 v 4.598 c 0,0.613 0,1.634 -0.102,2.758 l 3.984,-7.254 z m 10.523,10.933 c -0.511,0.102 -0.817,0.102 -1.43,0.102 h -4.087 v -11.035 h 4.189 c 0.613,0 0.817,0 1.43,0.103 2.555,0.306 4.7,2.145 4.7,5.619 -0.102,3.372 -2.247,4.904 -4.802,5.211 m -0.715,-8.685 h -1.022 -0.919 v 6.539 h 0.919 1.022 c 1.431,-0.102 2.452,-1.226 2.452,-3.167 0,-1.941 -1.021,-3.27 -2.452,-3.372 m 17.676,-2.248 v 10.933 h -2.861 v -4.7 c 0,-0.613 0,-1.737 0.102,-2.861 l -4.189,7.561 h -3.576 v -11.035 h 2.861 v 4.598 c 0,0.613 0,1.634 -0.102,2.758 l 3.984,-7.254 z m 9.297,5.926 c 1.124,0.409 1.635,1.124 1.635,2.146 0,1.43 -1.022,2.554 -2.861,2.758 -0.511,0.103 -0.817,0.103 -1.43,0.103 h -4.496 v -11.035 h 4.394 c 0.715,0 1.021,0 1.634,0.102 1.533,0.205 3.168,1.226 3.168,3.27 0,1.328 -0.716,2.248 -2.044,2.656 m -4.291,2.861 h 1.328 0.715 c 0.511,-0.102 0.92,-0.409 0.92,-1.022 0,-0.613 -0.409,-0.919 -0.92,-1.021 h -0.715 -1.328 z m 2.248,-6.539 h -0.715 -1.533 v 2.35 h 1.431 0.715 c 0.613,0 1.124,-0.408 1.124,-1.124 0,-0.817 -0.511,-1.226 -1.022,-1.226" /></g><g
           id="g48"><g
             clip-path="url(#clipPath54)"
             id="g50"><g
               transform="translate(-154.3661,20.4962)"
               id="g56"><path
                 id="path58"
                 style="fill:none;stroke:#000000;stroke-width:2.96300006;stroke-linecap:butt;stroke-linejoin:miter;stroke-miterlimit:10;stroke-dasharray:none;stroke-opacity:1"
                 d="M 0,0 C 0.613,4.7 3.678,8.889 8.481,10.626 13.895,12.567 19.821,9.808 21.865,4.393 22.58,2.248 22.478,0 21.558,-2.043 c -0.919,-2.044 -2.656,-3.576 -4.7,-4.292 -0.715,-0.306 -1.532,-0.408 -2.35,-0.408 -1.021,0 -1.941,0.204 -2.861,0.613 -1.634,0.817 -2.86,2.145 -3.473,3.882 -1.022,2.759 0.408,5.824 3.065,6.948" /></g></g></g></g></g><g
       id="g60"><g
         clip-path="url(#clipPath66)"
         id="g62"><g
           transform="translate(93.7063,48.5243)"
           id="g68"><path
             id="path70"
             style="fill:#000000;fill-opacity:1;fill-rule:nonzero;stroke:none"
             d="m 0,0 c -5.346,0 -10.437,-3.054 -10.437,-8.145 0,-5.6 3.564,-7.381 9.927,-8.91 3.309,-0.763 4.328,-2.036 4.328,-3.562 0,-1.529 -1.527,-2.546 -3.565,-2.546 -2.035,0 -4.326,1.017 -4.836,3.819 h -7.126 c 0.508,-6.11 5.091,-8.909 12.217,-8.909 5.601,0 10.692,2.799 10.692,8.146 0,4.326 -2.546,7.126 -8.401,8.653 -4.581,1.019 -5.854,2.037 -5.854,3.818 0,1.782 1.018,2.545 2.8,2.545 2.291,0 3.564,-1.526 3.818,-3.818 H 10.69 C 10.182,-4.072 7.127,0 0,0 m 29.781,-0.763 c -1.528,0.255 -2.546,0.255 -4.327,0.255 H 15.018 V -28 h 7.127 v 9.419 h 3.309 c 1.781,0 2.799,0 4.327,0.253 4.073,0.51 7.636,3.31 7.636,8.656 0,5.346 -3.563,8.399 -7.636,8.909 m -2.8,-12.218 h -2.036 -2.8 v 6.617 h 2.8 2.036 c 1.782,-0.253 2.8,-1.272 2.8,-3.308 0.255,-2.036 -0.763,-3.055 -2.8,-3.309 M 53.708,-20.873 56,-28 h 7.89 l -9.927,27.237 h -8.655 l -9.927,-27.49 h 7.637 l 2.29,7.126 h 8.4 z m -4.072,14.001 2.545,-8.401 h -5.09 z M 87.818,-21.38 c -0.51,3.308 -1.528,5.344 -4.328,6.362 3.563,1.018 5.6,3.31 5.6,6.873 0,4.836 -3.564,6.872 -7.382,7.382 -1.527,0.255 -2.546,0.255 -4.327,0.255 H 66.435 V -28 h 7.128 v 10.438 h 1.527 2.291 c 1.781,0 3.054,-1.782 3.309,-4.837 0.254,-2.036 0.509,-3.565 1.272,-5.601 h 7.892 c -1.018,1.529 -1.528,3.565 -2.036,6.62 m -14.255,8.908 v 6.363 h 2.8 2.036 c 1.782,-0.255 3.309,-0.763 3.309,-3.054 0,-2.291 -1.781,-3.055 -3.564,-3.055 h -2.036 -2.545 z m 40.982,-10.181 h -14 v 5.345 h 12.727 v 5.6 h -12.727 v 5.344 h 13.49 v 5.601 H 93.417 v -27.49 h 21.128 z m 22.399,9.418 c 2.8,1.017 4.073,2.8 4.073,5.345 0,3.564 -2.545,6.364 -7.128,6.872 -1.526,0.255 -2.036,0.255 -3.563,0.255 h -11.2 v -27.49 h 10.945 c 1.782,0 2.545,0 4.073,0.253 3.818,0.51 7.891,3.055 7.891,8.146 -0.255,3.309 -1.782,5.601 -5.091,6.619 m -10.691,7.126 h 3.31 1.781 c 1.272,-0.255 2.292,-1.018 2.292,-2.545 0,-1.528 -1.02,-2.291 -2.292,-2.546 h -1.781 -3.31 z m 5.6,-16.29 h -1.782 -3.818 v 5.854 h 3.564 1.781 c 1.528,0 2.801,-1.017 2.801,-2.799 0,-2.036 -1.273,-3.055 -2.546,-3.055 m 29.782,1.526 2.291,-7.127 h 7.891 l -10.182,27.237 h -8.655 l -9.927,-27.49 h 7.636 l 2.291,7.126 h 8.655 z m -4.327,14.001 2.545,-8.401 h -5.091 z M 200.58,-28 v 27.237 h -7.127 v -11.709 c 0,-1.528 0,-4.327 0.255,-7.128 l -10.437,18.837 h -8.909 v -27.49 h 7.127 v 11.454 c 0,1.526 0,4.072 -0.254,6.872 L 191.162,-28 Z m 19.6,14.51 11.964,12.982 h -8.655 l -10.436,-12.219 v 11.964 h -7.127 v -27.49 h 7.127 v 8.399 l 2.036,2.036 7.636,-10.691 h 8.91 z M 245.125,0 c -5.345,0 -10.436,-3.054 -10.436,-8.145 0,-5.6 3.564,-7.381 9.927,-8.91 3.309,-0.763 4.328,-2.036 4.328,-3.562 0,-1.529 -1.528,-2.546 -3.564,-2.546 -2.036,0 -4.327,1.017 -4.836,3.819 h -7.128 c 0.509,-6.11 5.091,-8.909 12.218,-8.909 5.6,0 10.691,2.799 10.691,8.146 0,4.326 -2.545,7.126 -8.4,8.653 -4.581,1.019 -5.854,2.037 -5.854,3.818 0,1.782 1.018,2.545 2.8,2.545 2.291,0 3.563,-1.526 3.818,-3.818 h 7.127 C 255.307,-4.072 252.253,0 245.125,0 m 37.418,-6.109 v 5.346 h -24.945 v -5.601 h 8.909 v -21.889 h 7.127 v 21.889 h 8.909 z m 9.928,5.346 h -7.127 v -27.49 h 7.127 z m 12.727,-5.346 h 13.491 v 5.346 h -20.618 v -27.49 h 7.127 v 10.945 h 12.218 v 5.6 h -12.218 z m 39.454,0 v 5.346 h -24.945 v -5.601 h 8.909 v -21.889 h 7.127 v 21.889 h 8.909 z m 23.927,-16.544 h -14 v 5.345 h 12.728 v 5.6 h -12.728 v 5.344 h 13.491 v 5.601 h -20.618 v -27.49 h 21.127 z m 25.455,0.507 h -14 v 21.383 h -7.128 v -27.49 h 21.128 z M 407.524,0 c -5.345,0 -10.436,-3.054 -10.436,-8.145 0,-5.6 3.564,-7.381 9.927,-8.91 3.309,-0.763 4.328,-2.036 4.328,-3.562 0,-1.529 -1.528,-2.546 -3.564,-2.546 -2.036,0 -4.327,1.017 -4.836,3.819 h -7.128 c 0.51,-6.11 5.091,-8.909 12.219,-8.909 5.6,0 10.69,2.799 10.69,8.146 0,4.326 -2.545,7.126 -8.4,8.653 -4.581,1.019 -5.854,2.037 -5.854,3.818 0,1.782 1.018,2.545 2.8,2.545 2.291,0 3.564,-1.526 3.818,-3.818 h 7.127 C 417.961,-4.072 414.906,0 407.524,0 m 36.4,-22.653 h -14 v 5.345 h 12.728 v 5.6 h -12.728 v 5.344 h 13.491 v 5.601 h -20.618 v -27.49 h 21.127 z M 474.47,-28 v 27.237 h -7.128 v -11.709 c 0,-1.528 0,-4.327 0.255,-7.128 l -10.436,18.837 h -8.909 v -27.49 h 7.127 v 11.454 c 0,1.526 0,4.072 -0.255,6.872 L 465.051,-28 Z m 26.218,27.237 c -1.273,0.255 -2.037,0.255 -3.564,0.255 H 486.942 V -28 h 10.437 c 1.527,0 2.036,0 3.563,0.256 6.364,0.763 11.709,5.345 11.709,13.999 -0.254,8.401 -5.6,12.219 -11.963,12.982 m -1.782,-21.636 h -2.546 -2.291 v 16.29 h 2.291 2.546 c 3.563,-0.255 6.109,-3.054 6.109,-7.891 0,-4.835 -2.546,-8.146 -6.109,-8.399 M 542.942,-28 v 27.237 h -7.127 v -11.709 c 0,-1.528 0,-4.327 0.254,-7.128 l -10.436,18.837 h -8.909 v -27.49 h 7.127 v 11.454 c 0,1.526 0,4.072 -0.255,6.872 L 533.524,-28 Z m 23.163,14.765 c 2.8,1.017 4.073,2.8 4.073,5.345 0,3.564 -2.545,6.364 -7.127,6.872 -1.273,0.255 -2.036,0.255 -3.564,0.255 h -11.2 v -27.49 h 10.946 c 1.782,0 2.545,0 4.072,0.253 3.819,0.51 7.891,3.055 7.891,8.146 0,3.309 -1.782,5.601 -5.091,6.619 m -10.69,7.126 h 3.309 1.781 c 1.273,-0.255 2.291,-1.018 2.291,-2.545 0,-1.528 -1.018,-2.291 -2.291,-2.546 h -1.781 -3.309 z m 5.6,-16.29 h -1.782 -3.818 v 5.854 h 3.563 1.782 c 1.527,0 2.8,-1.017 2.8,-2.799 0,-2.036 -1.273,-3.055 -2.545,-3.055" /></g></g></g><g
       id="g72"><g
         clip-path="url(#clipPath78)"
         id="g74"><g
           transform="translate(6.3969,28.6704)"
           id="g80"><path
             id="path82"
             style="fill:none;stroke:#000000;stroke-width:7.38199997;stroke-linecap:butt;stroke-linejoin:miter;stroke-miterlimit:10;stroke-dasharray:none;stroke-opacity:1"
             d="M 0,0 C 1.528,11.709 9.164,22.146 21.128,26.472 34.618,31.308 49.381,24.436 54.472,10.945 56.254,5.6 56,0 53.709,-5.091 51.418,-10.182 47.091,-14 42,-15.782 c -1.781,-0.763 -3.818,-1.017 -5.854,-1.017 -2.546,0 -4.836,0.507 -7.128,1.526 -4.072,2.036 -7.127,5.345 -8.654,9.673 C 17.818,1.273 21.382,8.909 28,11.709" /></g></g></g></g></svg>