<?xml version="1.0" encoding="UTF-8" standalone="no"?>
<svg
   xmlns:dc="http://purl.org/dc/elements/1.1/"
   xmlns:cc="http://creativecommons.org/ns#"
   xmlns:rdf="http://www.w3.org/1999/02/22-rdf-syntax-ns#"
   xmlns:svg="http://www.w3.org/2000/svg"
   xmlns="http://www.w3.org/2000/svg"
   viewBox="0 0 386.26801 90.708664"
   height="90.708664"
   width="386.26801"
   xml:space="preserve"
   id="svg2"
   version="1.1"><metadata
     id="metadata8"><rdf:RDF><cc:Work
         rdf:about=""><dc:format>image/svg+xml</dc:format><dc:type
           rdf:resource="http://purl.org/dc/dcmitype/StillImage" /></cc:Work></rdf:RDF></metadata><defs
     id="defs6"><clipPath
       id="clipPath18"
       clipPathUnits="userSpaceOnUse"><path
         id="path16"
         d="M 2.835,2.835 H 71.149 V 65.197 H 2.835 Z" /></clipPath><clipPath
       id="clipPath46"
       clipPathUnits="userSpaceOnUse"><path
         id="path44"
         d="m 71.15,4.677 h 215.716 v 60.52 H 71.15 Z" /></clipPath><clipPath
       id="clipPath58"
       clipPathUnits="userSpaceOnUse"><path
         id="path56"
         d="m -16.15,-1.984 h 83.077 v 70.44 H -16.15 Z" /></clipPath></defs><g
     transform="matrix(1.3333333,0,0,-1.3333333,0,90.708667)"
     id="g10"><g
       id="g12"><g
         clip-path="url(#clipPath18)"
         id="g14"><g
           transform="translate(27.7133,33.4913)"
           id="g20"><path
             id="path22"
             style="fill:#000000;fill-opacity:1;fill-rule:nonzero;stroke:none"
             d="m 0,0 c 1.158,-0.924 2.41,-1.778 3.487,-2.74 l -5.209,-2.999 c -0.564,0.359 -1.105,1.081 -1.674,1.544 h -6.974 c -0.176,0.434 -0.2,0.957 -0.352,1.413 1.44,0.057 2.927,0.021 4.414,0.041 l 0.042,0.048 -0.268,0.882 -4.277,0.046 c -0.064,0.594 -0.206,1.158 -0.354,1.719 v 0.045 H 0 m 18.581,14.297 c 0.504,-0.543 1.16,-1.127 1.584,-1.678 l -3.442,-0.042 c 0.138,-0.295 0.403,-0.558 0.62,-0.882 h 3.842 c 0.344,-0.507 0.726,-0.999 0.88,-1.635 l -5.206,0.048 c -0.894,-0.64 -1.805,-1.311 -2.651,-2.032 -0.012,0.007 -3.041,2.272 -4.365,3.398 1.64,0.925 3.283,1.872 4.943,2.823 h 3.795 m 13.104,-20.96 c 0,0.709 0.582,1.296 1.325,1.28 0.709,0.016 1.296,-0.569 1.279,-1.279 0.017,-0.741 -0.57,-1.327 -1.279,-1.325 -0.745,-0.002 -1.327,0.584 -1.327,1.326 m -52.289,-0.091 c -0.013,0.719 0.573,1.306 1.282,1.325 0.742,-0.019 1.327,-0.606 1.32,-1.325 0.006,-0.729 -0.579,-1.316 -1.321,-1.32 -0.709,0.004 -1.295,0.591 -1.282,1.32" /></g><g
           transform="translate(52.4736,31.7715)"
           id="g24"><path
             id="path26"
             style="fill:#000000;fill-opacity:1;fill-rule:nonzero;stroke:none"
             d="M 0,0 C 0.128,0.522 0.191,1.164 0.222,1.762 L 0.134,1.855 h -14.519 l -12.004,-6.707 -7.898,0.041 c 0.382,-0.579 0.71,-1.241 1.059,-1.849 l 4.281,0.042 c 0.274,-0.264 0.433,-0.628 0.66,-0.931 l -0.085,-0.085 -4.323,0.045 c 0.434,-0.679 0.894,-1.42 1.634,-1.724 l 4.366,-0.04 c 0.62,-0.521 1.037,-0.959 1.674,-1.194 l 15.844,-0.042 c 0.456,0.106 0.626,0.511 0.972,0.747 l 3.662,-0.044 0.309,0.134 c 0.129,0.201 0.273,0.397 0.219,0.661 -1.168,1.789 -2.864,3.221 -4.852,3.927 -1.537,0.743 -3.727,0.472 -5.298,0.442 l 2.564,2.338 11.074,-0.045 c 0.157,0.471 0.351,0.915 0.398,1.412 -1.65,0.016 -4.909,0.007 -4.898,0 0.125,0.297 0.185,0.667 0.22,0.975 l 4.808,0.044 m -12.179,-5.959 c 1.891,0.298 3.495,-0.358 4.899,-1.37 0.452,-0.329 0.947,-0.82 1.235,-1.233 -0.73,-0.085 -1.745,-0.003 -2.604,-0.087 l -0.53,-0.664 -2.998,0.043 c -0.018,-0.012 -0.018,2.337 0,3.314 z m -0.971,-1.633 c -0.013,-1.006 -0.823,-1.815 -1.813,-1.812 -1.005,-0.003 -1.816,0.806 -1.806,1.812 -0.01,0.993 0.801,1.801 1.806,1.809 0.991,-0.008 1.8,-0.816 1.813,-1.808 z M -0.18,6.264 -4.768,6.308 c -0.068,0.341 -0.104,0.571 -0.219,1.018 l 4.543,0.041 c -0.207,0.704 -0.43,1.424 -0.924,1.985 h -9.842 l -8.605,6.664 -9.708,0.043 c -0.611,-0.493 -1.103,-1.161 -1.634,-1.764 h 4.457 c -0.161,-0.278 -0.359,-0.636 -0.574,-0.882 h -4.81 c -0.286,-0.336 -0.895,-1.117 -0.969,-1.587 h 9.84 l 2.291,-2.515 -6.482,-0.045 c -2.243,-0.209 -4.189,-1.314 -5.737,-3.001 -0.388,-0.47 -1.069,-0.877 -1.059,-1.544 0.097,-0.199 0.124,-0.476 0.397,-0.529 h 3.93 c 0.473,-0.134 0.461,-0.725 0.749,-1.061 h 19.503 c 0.269,0.508 0.583,1.055 0.972,1.457 H 0.09 C 0.036,5.152 -0.099,5.697 -0.177,6.266 m -25.64,-1.633 h -2.603 c -0.296,0.256 -0.345,0.636 -0.664,0.838 h -2.956 c 0.986,1.349 2.483,2.084 4.014,2.469 h 2.209 z m 3.045,-0.179 c -0.983,-0.022 -1.793,0.788 -1.812,1.766 0.019,1.019 0.829,1.829 1.812,1.808 1.016,0.021 1.825,-0.79 1.812,-1.809 0.013,-0.979 -0.796,-1.788 -1.812,-1.766 z" /></g><g
           transform="translate(13.8457,23.0913)"
           id="g28"><path
             id="path30"
             style="fill:#000000;fill-opacity:1;fill-rule:nonzero;stroke:none"
             d="m 0,0 -0.509,-0.319 0.053,-0.104 c 0.383,-0.736 0.419,-0.798 -0.42,-1.308 L -4.88,-4.195 c -0.824,-0.506 -0.885,-0.469 -1.41,0.191 l -0.072,0.089 -0.573,-0.351 2.127,-3.264 0.574,0.352 -0.058,0.107 c -0.376,0.721 -0.409,0.783 0.427,1.3 l 4.004,2.462 c 0.845,0.515 0.887,0.463 1.402,-0.186 l 0.071,-0.09 0.654,0.409 -1.183,1.617 c -0.541,0.75 -0.9,1.495 -0.901,1.504 L 0.119,0.074 -0.003,-0.005 m 51.99,16.386 -1.829,-0.011 -0.711,-0.003 0.041,-0.654 0.091,-0.018 c 0.473,-0.096 0.935,-0.209 1.145,-0.394 0.173,-0.129 0.297,-0.286 0.35,-1.233 0,0 0.009,-0.155 0.015,-0.272 -0.235,-0.015 -5.375,-0.311 -5.375,-0.311 -0.936,-0.05 -0.948,0.02 -1.073,0.923 l -0.015,0.112 -0.598,-0.036 0.207,-2.033 c 0.08,-0.942 0.031,-1.859 0.031,-1.866 l -0.007,-0.141 0.599,0.041 0.001,0.115 c 0.019,0.988 0.06,1.032 0.957,1.082 0,0 4.596,0.263 5.375,0.31 l 0.026,-0.402 c 0.005,-0.138 0.011,-0.259 0.011,-0.367 0,-0.385 -0.055,-0.592 -0.182,-0.745 -0.172,-0.194 -0.544,-0.374 -1.121,-0.541 l -0.1,-0.031 0.07,-0.641 2.647,0.303 v 0.116 l -0.011,0.348 -0.085,0.022 c -0.264,0.066 -0.297,0.258 -0.314,0.569 0,-0.01 -0.031,2.319 -0.031,2.319 -0.063,1.234 -0.237,2.355 -0.237,2.371 -0.023,0.331 -0.005,0.453 0.231,0.543 l 0.099,0.034 -0.104,0.489 h -0.103 m -2.075,6.87 -0.494,-0.163 0.023,-0.111 c 0.181,-0.746 0.195,-0.805 -0.705,-1.105 l -4.74,-1.531 c -0.856,-0.275 -0.904,-0.257 -1.275,0.63 l -0.043,0.105 -0.633,-0.207 0.064,-0.128 c 0.008,-0.013 0.687,-1.375 1.151,-2.883 0.461,-1.515 0.661,-2.722 0.665,-2.737 l 0.016,-0.108 0.108,0.006 c 0.354,0.018 1.47,0.141 2.006,0.228 l 0.116,0.02 -0.08,0.641 -0.102,0.008 c -0.527,0.04 -0.841,0.14 -1.151,0.278 -0.338,0.144 -0.512,0.5 -0.688,1.026 l -0.07,0.21 c -0.083,0.248 -0.158,0.464 -0.158,0.634 0,0.043 0.005,0.081 0.016,0.116 0.051,0.189 0.127,0.289 0.649,0.458 0,0 1.756,0.565 1.966,0.632 l 0.205,-0.622 c 0.114,-0.36 0.191,-0.588 0.191,-0.761 0,-0.255 -0.161,-0.377 -0.571,-0.599 l -0.093,-0.046 0.204,-0.614 2.458,0.805 -0.198,0.612 -0.106,-0.01 c -0.727,-0.101 -0.797,-0.044 -1.099,0.869 0,0 -0.133,0.411 -0.203,0.622 0.213,0.068 2.555,0.824 2.555,0.824 0.273,0.088 0.273,0.088 0.381,-0.248 l 0.175,-0.531 c 0.188,-0.571 0.216,-0.881 0.094,-1.097 -0.105,-0.218 -0.371,-0.463 -0.764,-0.713 l -0.091,-0.057 0.289,-0.596 0.778,0.337 1.049,0.423 -0.024,0.104 -0.762,2.636 c -0.366,1.139 -0.947,2.557 -0.955,2.572 l -0.041,0.103 -0.109,-0.033 m -4.318,7.034 -1.221,-0.661 -0.88,-0.478 0.342,-0.557 0.093,0.031 c 0.46,0.138 0.921,0.26 1.192,0.194 0.215,-0.031 0.401,-0.112 0.892,-0.92 0,0 0.081,-0.137 0.145,-0.236 -0.204,-0.119 -4.591,-2.814 -4.591,-2.814 -0.801,-0.489 -0.844,-0.428 -1.386,0.306 l -0.063,0.092 -0.555,-0.342 1.116,-1.611 1.051,-1.835 0.111,0.075 0.386,0.271 -0.05,0.098 c -0.19,0.375 -0.299,0.601 -0.299,0.773 0,0.231 0.19,0.362 0.635,0.634 0,0 4.388,2.689 4.589,2.814 0.075,-0.125 0.209,-0.341 0.209,-0.341 0.303,-0.495 0.389,-0.743 0.389,-0.931 10e-4,-0.046 -0.004,-0.092 -0.013,-0.137 -0.062,-0.254 -0.299,-0.583 -0.729,-1.005 l -0.074,-0.076 0.365,-0.529 2.162,1.486 -0.057,0.098 -0.176,0.305 -0.067,0.005 c -0.276,0.016 -0.325,0.09 -0.468,0.322 -0.021,0.037 -0.677,1.33 -1.156,2.064 l -1.306,1.964 c 0,-0.004 -0.132,0.189 -0.132,0.189 -0.116,0.154 -0.151,0.201 -0.083,0.351 l 0.032,0.068 -0.305,0.379 -0.091,-0.049 m -5.431,5.288 -0.369,-0.368 0.073,-0.082 c 0.499,-0.589 0.539,-0.637 -0.126,-1.31 -0.006,0 -3.358,-3.41 -3.358,-3.41 -0.638,-0.644 -0.69,-0.644 -1.424,-0.022 l -0.088,0.072 -0.563,-0.589 0.115,-0.084 c 0.009,-0.01 1.139,-0.808 2.33,-1.859 1.186,-1.05 2.05,-2.126 2.057,-2.139 l 0.065,-0.082 0.092,0.051 c 0.308,0.18 1.13,0.72 1.562,1.044 l 0.096,0.071 -0.364,0.536 -0.091,-0.04 c -0.477,-0.202 -0.767,-0.277 -1.114,-0.294 -0.369,-0.025 -0.687,0.197 -1.105,0.586 -0.31,0.284 -0.548,0.505 -0.572,0.758 -0.008,0.031 -0.008,0.062 -0.008,0.095 0,0.166 0.057,0.366 0.312,0.641 0,0 1.182,1.162 1.51,1.481 0.121,-0.118 0.463,-0.462 0.463,-0.462 0.387,-0.382 0.564,-0.571 0.564,-0.785 0,-0.153 -0.098,-0.325 -0.287,-0.596 l -0.057,-0.088 0.455,-0.451 1.827,1.833 -0.458,0.454 -0.085,-0.056 c -0.603,-0.419 -0.693,-0.4 -1.373,0.274 0,0 -0.311,0.314 -0.466,0.465 0.15,0.164 1.835,1.941 1.835,1.941 0.046,0.042 0.157,0.153 0.194,0.153 0.051,0 0.174,-0.124 0.253,-0.206 l 0.398,-0.393 c 0.426,-0.425 0.59,-0.687 0.586,-0.935 0,-0.244 -0.124,-0.581 -0.361,-0.985 l -0.055,-0.091 0.525,-0.398 1.295,1.488 -0.07,0.082 c -0.011,0.013 -1.023,1.1 -1.845,1.863 -0.825,0.764 -2.188,1.842 -2.203,1.855 l -0.085,0.069 -0.08,-0.082 m -7.459,4.214 -0.64,-1.055 -0.609,-1 0.58,-0.303 0.068,0.067 c 0.324,0.355 0.659,0.693 0.923,0.777 0.202,0.082 0.4,0.104 1.237,-0.341 l 0.241,-0.127 c -0.106,-0.207 -2.52,-4.758 -2.52,-4.758 -0.44,-0.828 -0.506,-0.797 -1.342,-0.443 l -0.104,0.046 -0.304,-0.574 1.829,-0.846 1.739,-1.048 0.065,0.116 0.243,0.461 -0.098,0.06 c -0.492,0.315 -0.703,0.464 -0.703,0.695 0,0.158 0.097,0.361 0.269,0.688 0,0 2.414,4.549 2.521,4.757 l 0.357,-0.188 c 0.565,-0.297 0.782,-0.48 0.866,-0.722 0.025,-0.08 0.035,-0.186 0.035,-0.303 0,-0.236 -0.05,-0.548 -0.153,-0.936 l -0.026,-0.101 0.589,-0.269 1.021,2.235 -0.088,0.061 -0.293,0.196 -0.058,-0.021 c -0.173,-0.063 -0.244,-0.022 -0.421,0.08 l -2.199,1.235 -2.083,1.036 c 0.008,-0.001 -0.189,0.092 -0.189,0.092 -0.183,0.079 -0.235,0.1 -0.256,0.267 l -0.007,0.069 -0.437,0.195 -0.057,-0.096 m -4.925,1.492 -0.137,-0.462 0.108,-0.044 c 0.708,-0.282 0.732,-0.624 0.452,-1.588 l -1.264,-4.282 c -0.253,-0.878 -0.318,-0.887 -1.113,-0.736 l -0.109,0.022 -0.186,-0.63 0.133,-0.026 c 0.013,0 0.982,-0.174 1.738,-0.403 l 1.737,-0.578 0.038,0.124 0.139,0.46 -0.102,0.046 c -0.74,0.289 -0.802,0.312 -0.535,1.212 l 1.251,4.294 c 0.289,0.997 0.473,1.248 1.195,1.109 l 0.114,-0.021 0.177,0.614 -1.812,0.581 -1.8,0.433 -0.033,-0.114 m -6.112,0.135 c -0.453,-0.411 -0.72,-0.987 -0.75,-1.617 -0.054,-1.171 0.75,-1.884 1.971,-2.593 0.92,-0.558 1.272,-0.995 1.246,-1.555 -0.018,-0.353 -0.136,-0.641 -0.347,-0.83 -0.188,-0.173 -0.449,-0.256 -0.746,-0.243 -1.029,0.05 -1.629,1.337 -1.82,2.09 l -0.031,0.126 -0.632,-0.184 0.003,-0.103 c 0.046,-0.637 0.149,-1.706 0.262,-2.037 l 0.017,-0.052 0.746,-0.317 c 0.36,-0.132 0.775,-0.209 1.2,-0.229 0.912,-0.045 1.731,0.211 2.3,0.726 0.468,0.423 0.743,1.004 0.774,1.639 0.063,1.309 -0.928,2.039 -2.007,2.638 -1.012,0.58 -1.329,0.943 -1.303,1.499 0.014,0.301 0.131,0.567 0.329,0.747 0.194,0.176 0.449,0.256 0.728,0.248 0.684,-0.037 1.148,-0.561 1.423,-1.605 l 0.028,-0.112 0.636,0.117 -0.077,0.911 -0.079,0.979 -0.099,0.044 C 25.203,41.807 24.56,42.061 23.825,42.096 22.962,42.139 22.192,41.9 21.668,41.42 M 9.361,40.126 6.788,38.975 C 5.447,38.362 4.224,37.625 4.215,37.617 L 4.122,37.56 4.384,36.985 4.489,37.024 c 0.725,0.261 0.783,0.283 1.176,-0.582 L 7.696,31.958 C 8.069,31.137 8.049,31.089 7.215,30.618 L 7.116,30.563 7.391,29.96 7.51,30.037 c 0.014,0.008 1.365,0.902 2.65,1.546 1.288,0.642 2.638,1.107 2.653,1.111 l 0.103,0.034 -0.408,1.963 -0.121,-0.037 -0.511,-0.123 0.002,-0.102 c 0.023,-0.542 -0.058,-0.841 -0.16,-1.156 -0.102,-0.336 -0.45,-0.519 -0.97,-0.754 -0.393,-0.181 -0.784,-0.262 -1.016,-0.213 -0.192,0.037 -0.309,0.177 -0.446,0.528 0,0 -0.588,1.448 -0.754,1.851 0.154,0.072 0.605,0.274 0.605,0.274 0.857,0.391 0.95,0.41 1.389,-0.228 l 0.06,-0.083 0.585,0.266 -1.075,2.355 -0.58,-0.268 0.02,-0.101 c 0.052,-0.203 0.083,-0.353 0.083,-0.475 0,-0.304 -0.202,-0.425 -0.83,-0.711 0,0 -0.386,-0.178 -0.59,-0.271 -0.085,0.221 -1.005,2.552 -1.005,2.552 -0.027,0.058 -0.08,0.174 -0.08,0.227 0,0.006 0.002,0.012 0.002,0.017 0.017,0.043 0.177,0.115 0.281,0.162 l 0.507,0.233 c 0.55,0.252 0.854,0.31 1.087,0.217 0.223,-0.083 0.496,-0.318 0.785,-0.682 l 0.073,-0.085 0.558,0.351 -0.94,1.744 -0.106,-0.047 m -5.728,-2.867 -1.07,-0.729 -1.296,-0.941 0.09,-0.1 0.335,-0.407 0.095,0.057 c 0.37,0.24 0.568,0.323 0.679,0.286 0.123,-0.041 0.229,-0.286 0.357,-0.622 0,-10e-4 0.325,-0.772 0.325,-0.772 C 3.545,33.1 4.076,31.832 4.52,30.59 3.373,31.259 2.227,31.928 1.082,32.599 l -0.866,0.513 c -0.16,0.095 -0.294,0.183 -0.305,0.259 v 0.015 c 0,0.117 0.2,0.353 0.373,0.549 l 0.071,0.08 -0.415,0.504 -1.383,-1.233 -1.348,-1.356 0.077,-0.082 0.34,-0.41 0.091,0.061 c 0.557,0.38 0.764,0.373 1.572,-0.066 l 1.744,-0.919 c 1.26,-0.658 2.828,-1.473 4.086,-2.196 l 0.072,-0.042 0.578,0.478 -0.026,0.081 c -0.73,2.133 -1.443,4.537 -1.79,5.694 l -0.119,0.41 c -0.337,1.116 -0.269,1.313 0.225,1.816 L 4.136,36.836 3.724,37.33 3.632,37.265 m -7.028,-6.036 -1.054,-1.284 -1.213,-1.628 0.104,-0.072 0.426,-0.301 0.073,0.082 c 0.524,0.613 0.567,0.662 1.334,0.122 l 4.031,-2.815 c 0.746,-0.529 0.73,-0.593 0.329,-1.295 l -0.058,-0.095 0.532,-0.379 0.065,0.113 c 0.009,0.009 0.55,0.886 1.03,1.468 l 1.193,1.39 -0.11,0.078 L 2.744,27.005 2.67,26.919 C 2.153,26.317 2.112,26.269 1.343,26.812 l -3.871,2.752 c -0.768,0.545 -0.735,0.598 -0.339,1.289 l 0.057,0.096 -0.516,0.367 -0.072,-0.087 m -3.175,-4.335 -0.652,-1.105 -0.817,-1.586 0.609,-0.232 0.044,0.109 c 0.341,0.761 0.566,0.842 0.965,0.734 0.477,-0.121 1.405,-0.389 2.291,-0.724 0,0 1.237,-0.478 1.641,-0.631 -0.492,-0.171 -6.884,-2.452 -6.884,-2.452 l -0.264,-0.85 -0.289,-0.959 0.107,-0.04 0.725,-0.276 0.05,0.1 c 0.22,0.446 0.377,0.61 0.667,0.701 0.295,0.093 0.67,-0.051 1.339,-0.309 0.03,-0.009 2.302,-0.879 2.302,-0.879 0.883,-0.339 1.342,-0.579 1.674,-0.755 l 0.079,-0.04 c 0.333,-0.168 0.474,-0.377 0.278,-1.022 l -0.035,-0.108 0.622,-0.245 0.442,1.491 0.534,1.473 -0.116,0.041 -0.373,0.129 -0.047,-0.104 c -0.344,-0.771 -0.565,-0.806 -0.985,-0.695 10e-4,0 -0.061,0.014 -0.061,0.014 l -1.72,0.564 c 0,0 -1.54,0.592 -2.173,0.834 l 6.985,2.386 0.39,0.617 -4.598,1.762 -1.644,0.724 -0.128,0.061 c -0.257,0.136 -0.37,0.27 -0.37,0.506 0,0.123 0.03,0.28 0.09,0.476 l 0.038,0.108 -0.665,0.27 -0.048,-0.092 m -3.672,-8.923 -0.267,-1.38 -0.235,-1.643 0.133,-0.009 0.662,-0.052 0.016,0.118 c 0.104,0.758 0.341,0.933 0.68,0.96 0.375,0.036 0.83,0.055 1.659,-0.004 l 1.283,-0.094 c 1.222,-0.091 2.054,-0.386 2.474,-0.875 0.27,-0.31 0.38,-0.701 0.341,-1.193 -0.112,-1.445 -1.617,-1.643 -2.859,-1.551 l -2.616,0.193 c -1.073,0.076 -1.074,0.157 -1.09,0.928 l -10e-4,0.107 -0.873,0.119 -0.076,-1.893 0.006,-1.902 0.117,-0.006 0.529,-0.037 0.022,0.109 c 0.135,0.771 0.151,0.852 1.227,0.776 l 2.831,-0.205 c 1.438,-0.104 2.395,0.143 3.007,0.787 0.467,0.503 0.738,1.2 0.808,2.079 0.067,0.883 -0.202,1.718 -0.74,2.297 -0.626,0.658 -1.529,0.982 -3.018,1.091 l -1.307,0.095 c -0.863,0.062 -1.298,0.146 -1.642,0.223 -0.238,0.051 -0.547,0.198 -0.535,0.9 l 0.004,0.114 -0.515,0.062 -0.023,-0.113 m 30.993,-28.472 c -11.861,0.006 -21.514,9.662 -21.518,21.52 0.004,11.888 9.657,21.555 21.518,21.563 5.765,0 11.179,-2.245 15.249,-6.315 4.069,-4.071 6.311,-9.484 6.314,-15.248 -0.005,-11.858 -9.677,-21.514 -21.563,-21.521 m 0,41.617 C 9.703,31.101 0.709,22.091 0.702,11.017 0.71,-0.033 9.704,-9.025 20.754,-9.032 c 11.072,0.007 20.085,8.999 20.092,20.048 -0.002,5.371 -2.089,10.415 -5.881,14.21 -3.793,3.792 -8.84,5.881 -14.21,5.886 z" /></g><g
           transform="translate(29.5709,10.9855)"
           id="g32"><path
             id="path34"
             style="fill:#000000;fill-opacity:1;fill-rule:nonzero;stroke:none"
             d="m 0,0 c -0.372,0.519 -0.705,0.733 -1.699,1.09 -0.002,0 -1.762,0.604 -1.762,0.604 L -5.157,2.409 -5.212,2.287 -5.404,1.749 -5.3,1.699 C -4.565,1.355 -4.536,1.271 -4.829,0.421 L -6.352,-3.956 C -6.663,-4.852 -6.76,-4.862 -7.557,-4.659 l -0.111,0.026 -0.242,-0.636 1.75,-0.703 1.867,-0.64 0.043,0.116 0.205,0.564 -0.104,0.049 c -0.476,0.221 -0.673,0.33 -0.673,0.61 0,0.159 0.064,0.375 0.18,0.704 0,0 0.404,1.172 0.534,1.547 0.045,-0.022 0.091,-0.039 0.091,-0.039 0.305,-0.106 0.433,-0.278 0.487,-0.653 l 0.099,-0.632 0.236,-1.396 0.038,-0.18 c 0.088,-0.487 0.186,-1.039 1.357,-1.412 l 0.083,-0.028 c 0.404,-0.132 0.66,-0.205 0.781,-0.194 0.123,0.015 0.227,0.095 0.263,0.211 0.007,0.024 0.013,0.052 0.013,0.08 0,0.064 -0.029,0.121 -0.073,0.163 -0.121,0.097 -0.308,0.259 -0.436,0.545 -0.134,0.323 -0.228,0.648 -0.338,1.441 l -0.151,1.025 c 0,0 -0.09,0.604 -0.119,0.784 1.033,0.085 1.721,0.551 2.022,1.417 0.086,0.255 0.133,0.503 0.133,0.749 0,0.408 -0.128,0.795 -0.382,1.142 m -1.64,-1.405 c -0.201,-0.582 -0.495,-0.928 -0.932,-1.086 -0.269,-0.111 -0.631,-0.076 -1.117,0.097 0,0 -0.091,0.034 -0.17,0.062 0.073,0.217 0.918,2.655 0.918,2.655 0.082,0.23 0.129,0.289 0.178,0.307 0.024,0.012 0.128,0.045 0.452,-0.067 0.581,-0.208 1.064,-0.837 0.67,-1.966 z M 4.708,0.265 H 4.698 C 3.53,0.297 2.505,-0.073 1.736,-0.807 0.939,-1.562 0.463,-2.673 0.433,-3.849 0.375,-6.279 2.021,-8.086 4.349,-8.15 c 1.118,-0.031 2.146,0.348 2.907,1.067 0.803,0.763 1.247,1.84 1.276,3.108 0.06,2.355 -1.585,4.177 -3.825,4.24 m 1.8,-4.507 C 6.477,-5.493 6.156,-6.469 5.604,-6.99 5.314,-7.269 4.957,-7.412 4.575,-7.402 c -1.301,0.035 -2.172,1.571 -2.116,3.736 0.027,1.205 0.374,2.208 0.944,2.753 0.308,0.289 0.676,0.439 1.056,0.431 H 4.467 C 5.762,-0.52 6.562,-1.996 6.505,-4.245 Z m 23.239,14.888 c -0.949,0.708 -2.161,0.943 -3.342,0.684 -0.129,0.34 -0.258,0.681 -0.386,1.021 l -0.113,-0.039 -0.561,-0.173 c 0,0 0.307,-0.898 0.359,-1.053 -0.592,-0.271 -1.14,-0.712 -1.583,-1.308 -0.634,-0.851 -0.904,-1.74 -0.904,-2.583 0,-1.346 0.689,-2.568 1.681,-3.302 1.019,-0.762 2.3,-1.018 3.462,-0.721 l 0.335,-0.951 0.662,0.224 c 0,0 -0.262,0.832 -0.313,0.98 0.587,0.27 1.143,0.718 1.574,1.296 0.613,0.822 0.912,1.721 0.912,2.598 0,1.25 -0.607,2.448 -1.78,3.324 M 25.95,5.583 c -1.077,0.802 -1.668,1.773 -1.668,2.622 0,0.358 0.1,0.691 0.318,0.979 0.349,0.472 0.884,0.722 1.505,0.712 C 26.688,8.175 27.272,6.454 27.856,4.733 27.233,4.852 26.53,5.148 25.95,5.58 Z M 30.145,5.334 C 29.801,4.875 29.259,4.614 28.676,4.624 28.624,4.777 27.047,9.359 26.9,9.781 c 0.597,-0.143 1.263,-0.446 1.879,-0.909 1.108,-0.827 1.7,-1.739 1.7,-2.554 0,-0.351 -0.109,-0.684 -0.333,-0.985 z M 4.696,46.732 c -0.044,0.102 -0.162,0.159 -0.34,0.244 l -0.557,0.327 c -0.381,0.294 -0.666,0.588 -1.202,1.171 -0.28,0.286 -0.51,0.692 -0.693,1.021 0,0 -0.167,0.264 -0.247,0.393 0.688,0.515 1.045,1.124 1.045,1.833 0,0.153 -0.015,0.311 -0.05,0.471 -0.145,0.719 -0.541,1.237 -1.153,1.498 -0.583,0.251 -1.207,0.218 -2.15,0.069 l -1.58,-0.311 -1.802,-0.484 0.026,-0.115 0.106,-0.531 0.119,0.014 c 0.756,0.087 0.845,0.065 1.028,-0.848 l 0.918,-4.575 c 0.192,-0.94 0.111,-0.997 -0.656,-1.249 l -0.108,-0.036 0.135,-0.661 1.799,0.542 1.83,0.36 -0.007,0.119 -0.059,0.45 -0.125,-0.015 c -0.797,-0.096 -0.875,-0.077 -1.069,0.867 0,0 -0.245,1.234 -0.325,1.616 0.051,0.008 0.099,0.02 0.099,0.02 0.306,0.068 0.496,-0.012 0.729,-0.305 L 1.679,47.202 1.99,46.865 c 0.512,-0.548 0.789,-0.851 2.182,-0.695 0.221,0.024 0.422,0.179 0.505,0.317 0.029,0.049 0.046,0.105 0.046,0.152 0,0.031 -0.007,0.061 -0.019,0.087 M 0.58,50.175 c -0.17,-0.235 -0.49,-0.4 -0.979,-0.51 0,0 -0.089,-0.019 -0.171,-0.036 -0.048,0.226 -0.556,2.767 -0.556,2.767 -0.023,0.112 -0.039,0.194 -0.039,0.257 0,0.048 0.011,0.085 0.031,0.109 0.02,0.029 0.093,0.113 0.413,0.181 0.305,0.067 0.612,0.013 0.862,-0.149 0.332,-0.219 0.57,-0.63 0.681,-1.187 0.036,-0.18 0.057,-0.349 0.057,-0.507 0,-0.363 -0.1,-0.672 -0.296,-0.925 z M 21.112,5.91 C 20.854,5.824 20.18,5.608 19.578,5.163 18.854,4.628 18.399,3.94 18.296,3.215 18.21,2.6 18.368,2.006 18.756,1.49 19.471,0.547 20.574,0.517 22.01,0.758 c 1.099,0.168 1.664,0.056 2.005,-0.398 0.215,-0.279 0.309,-0.578 0.266,-0.859 -0.035,-0.26 -0.188,-0.495 -0.438,-0.681 -0.855,-0.628 -2.169,-0.021 -2.81,0.438 l -0.107,0.079 -0.387,-0.554 0.075,-0.075 c 0.387,-0.408 1.209,-1.218 1.53,-1.412 l 0.051,-0.033 0.799,0.235 c 0.369,0.136 0.752,0.344 1.102,0.606 0.768,0.564 1.249,1.301 1.363,2.08 0.092,0.634 -0.066,1.242 -0.454,1.755 -0.804,1.06 -2.068,0.983 -3.319,0.744 -1.181,-0.207 -1.671,-0.131 -2.009,0.32 -0.187,0.24 -0.264,0.519 -0.226,0.783 0.037,0.26 0.187,0.499 0.42,0.67 0.572,0.42 1.283,0.318 2.177,-0.317 L 22.142,4.073 22.576,4.576 21.908,5.243 21.213,5.946 21.112,5.913 M 17.026,3.32 15.98,2.751 14.861,2.218 14.853,2.142 c 0,0 -0.429,-4.84 -0.478,-5.358 -0.344,0.391 -3.585,4.038 -3.585,4.038 L 9.581,0.536 8.208,0.321 l 0.044,-0.14 0.291,-0.83 0.111,0.022 c 0.856,0.215 0.944,0.201 1.277,-1.099 l 0.557,-2.291 c 0.308,-1.233 0.382,-1.687 0.426,-2.049 0.05,-0.36 -0.03,-0.577 -0.606,-0.841 l -0.099,-0.044 0.199,-0.602 1.425,0.286 1.52,0.371 -0.043,0.126 -0.165,0.508 -0.11,-0.03 c -0.7,-0.176 -0.909,-0.009 -1.092,0.417 -0.181,0.392 -0.368,0.964 -0.6,1.809 0,0.006 -0.473,1.699 -0.708,2.535 0.517,-0.619 3.885,-4.665 3.885,-4.665 l 0.447,0.159 c 0,0 0.396,5.449 0.455,6.297 0.254,-0.762 1.288,-3.854 1.288,-3.854 0.154,-0.448 0.246,-0.755 0.246,-0.983 0,-0.303 -0.164,-0.467 -0.553,-0.652 l -0.099,-0.051 0.209,-0.628 1.779,0.762 1.569,0.76 -0.034,0.101 -0.17,0.5 -0.108,-0.027 c -0.795,-0.186 -0.826,-0.196 -1.175,0.803 l -1.487,4.178 c -0.315,0.893 -0.307,0.918 0.461,1.276 l 0.098,0.047 -0.289,0.9 -0.133,-0.071 m -28.146,2.93 -0.732,-1.044 -0.752,-1.07 0.553,-0.368 0.073,0.07 c 0.353,0.34 0.718,0.658 0.991,0.723 0.201,0.068 0.399,0.072 1.198,-0.457 0,0 0.132,-0.088 0.231,-0.156 -0.124,-0.197 -2.907,-4.704 -2.907,-4.704 -0.504,-0.818 -0.568,-0.783 -1.371,-0.345 l -0.105,0.061 -0.323,-0.542 1.647,-1.168 1.77,-1.083 0.06,0.108 0.253,0.426 -0.087,0.069 c -0.448,0.352 -0.647,0.519 -0.647,0.746 0,0.172 0.118,0.378 0.33,0.722 0,0 2.474,4.014 2.9,4.701 0.123,-0.079 0.334,-0.22 0.334,-0.22 0.537,-0.356 0.741,-0.565 0.806,-0.825 0.007,-0.057 0.016,-0.122 0.016,-0.198 0,-0.259 -0.081,-0.615 -0.239,-1.075 l -0.029,-0.096 0.563,-0.33 1.248,2.289 -0.114,0.062 -0.327,0.16 -0.047,-0.012 c -0.244,-0.069 -0.358,-0.051 -0.588,0.1 -0.024,0.014 -1.033,0.533 -2.09,1.226 -1.116,0.737 -1.83,1.376 -1.838,1.38 -0.255,0.17 -0.317,0.286 -0.324,0.578 l -0.002,0.052 -0.368,0.341 -0.085,-0.119" /></g><g
           transform="translate(127.746,44.9461)"
           id="g36"><path
             id="path38"
             style="fill:#000000;fill-opacity:1;fill-rule:nonzero;stroke:none"
             d="M 0,0 V -25.305 H -4.64 V 0 H -9.567 V 4.183 H 4.971 V 0 H 0 m -20.125,4.141 h 4.842 v -4.846 h -4.842 z m 0.248,-8.199 h 4.39 v -21.246 h -4.39 z m -9.312,-19.427 c -1.407,-1.447 -3.272,-2.152 -5.467,-2.152 -2.195,0 -4.1,0.705 -5.507,2.152 -1.287,1.326 -2.03,3.191 -2.03,5.428 v 22.24 h 4.639 v -22.49 c 0,-2.11 1.325,-3.147 2.898,-3.147 1.575,0 2.856,1.037 2.856,3.147 v 22.49 h 4.641 v -22.24 c 0,-2.237 -0.745,-4.102 -2.03,-5.428 m 137.693,8.48 v -10.23 h -1.249 v 10.23 h -1.739 v 1.24 h 4.714 v -1.24 h -1.726 m -9.611,-10.23 v 11.47 h 3.985 v -1.24 h -2.734 v -3.852 h 2.363 v -1.238 h -2.363 v -3.9 h 2.734 v -1.24 h -3.985 m -4.695,10.23 v -10.23 h -1.242 v 10.23 H 91.21 v 1.24 h 4.715 v -1.24 h -1.727 m -7.214,-10.23 h 1.242 v 11.47 h -1.242 z m -3.927,0.577 c -0.389,-0.417 -1.005,-0.692 -1.829,-0.692 -0.797,0 -1.406,0.245 -1.81,0.692 -0.48,0.533 -0.639,1.196 -0.639,2.42 h 1.244 c 0,-0.758 0.077,-1.178 0.353,-1.501 0.172,-0.211 0.459,-0.355 0.852,-0.355 0.42,0 0.695,0.144 0.884,0.372 0.276,0.339 0.334,0.773 0.334,1.528 0,1.322 -0.173,1.726 -1.015,2.113 l -1.176,0.532 c -1.053,0.486 -1.404,1.129 -1.404,2.873 0,0.996 0.26,1.818 0.784,2.347 0.408,0.421 0.955,0.661 1.639,0.661 0.752,0 1.32,-0.24 1.712,-0.661 0.52,-0.563 0.676,-1.303 0.676,-2.347 h -1.244 c 0,0.609 -0.058,1.028 -0.318,1.384 -0.177,0.24 -0.452,0.384 -0.842,0.384 -0.362,0 -0.625,-0.144 -0.801,-0.354 -0.245,-0.305 -0.357,-0.774 -0.357,-1.369 0,-1.13 0.155,-1.467 0.985,-1.852 l 1.159,-0.533 c 1.171,-0.533 1.451,-1.337 1.451,-3.143 0,-1.19 -0.144,-1.948 -0.638,-2.497 m -8.438,-0.578 -1.419,4.928 h -1.129 v -4.928 h -1.248 v 11.47 h 2.334 c 1.565,0 2.438,-0.754 2.438,-3.269 0,-1.596 -0.353,-2.531 -1.251,-2.997 l 1.582,-5.205 h -1.307 m -1.447,10.23 h -1.101 v -4.075 h 1.101 c 0.956,0 1.172,0.821 1.172,2.047 0,1.208 -0.216,2.028 -1.172,2.028 m -9.596,-10.229 v 11.47 h 3.987 v -1.24 h -2.738 v -3.852 h 2.36 v -1.239 h -2.36 v -3.899 h 2.738 v -1.24 h -3.987 m -4.956,0 h -1.276 l -2.229,11.47 h 1.378 l 1.493,-9.231 1.505,9.231 h 1.361 l -2.232,-11.47 m -7.491,0 h 1.248 v 11.47 h -1.248 z m -4.739,0 -2.665,7.844 v -7.844 h -1.246 v 11.47 h 1.16 l 2.65,-7.845 -0.015,7.845 h 1.248 v -11.47 H 46.39 m -8.083,0.63 c -0.45,-0.499 -1.058,-0.759 -1.726,-0.759 -0.667,0 -1.263,0.26 -1.711,0.759 -0.42,0.466 -0.666,1.144 -0.666,1.982 v 8.858 h 1.245 v -8.94 c 0,-0.903 0.509,-1.419 1.132,-1.419 0.622,0 1.146,0.516 1.146,1.419 v 8.94 h 1.246 v -8.858 c 0,-0.839 -0.247,-1.516 -0.666,-1.982 M 139.095,-7.29 V 4.18 h 3.986 V 2.937 h -2.743 v -3.848 h 2.364 v -1.242 h -2.364 v -3.899 h 2.743 V -7.29 h -3.986 m -4.129,-0.003 -1.83,5.185 -0.897,-1.981 v -3.204 h -1.243 V 4.178 h 1.243 v -5.815 l 2.493,5.817 h 1.277 l -2.087,-4.738 2.392,-6.732 h -1.348 m -7.899,0.578 c -0.39,-0.421 -1.002,-0.694 -1.828,-0.694 -0.795,0 -1.406,0.243 -1.81,0.694 -0.482,0.532 -0.638,1.192 -0.638,2.415 h 1.245 c 0,-0.755 0.077,-1.174 0.349,-1.496 0.177,-0.211 0.462,-0.354 0.854,-0.354 0.423,0 0.697,0.145 0.886,0.369 0.272,0.341 0.33,0.775 0.33,1.531 0,1.321 -0.171,1.725 -1.015,2.112 l -1.171,0.531 c -1.055,0.484 -1.408,1.129 -1.408,2.868 0,1 0.262,1.821 0.783,2.354 0.408,0.417 0.956,0.658 1.64,0.658 0.754,0 1.321,-0.241 1.711,-0.658 0.523,-0.565 0.678,-1.307 0.678,-2.354 h -1.243 c 0,0.612 -0.06,1.031 -0.319,1.386 -0.175,0.24 -0.449,0.386 -0.842,0.386 -0.361,0 -0.624,-0.146 -0.797,-0.357 -0.249,-0.305 -0.359,-0.771 -0.359,-1.367 0,-1.131 0.156,-1.467 0.981,-1.854 l 1.159,-0.533 c 1.173,-0.532 1.454,-1.337 1.454,-3.14 0,-1.193 -0.147,-1.951 -0.64,-2.497 m -8.757,-0.58 h 1.25 v 11.47 h -1.25 z M 113.622,2.933 V -7.295 h -1.251 V 2.933 h -1.738 v 1.242 h 4.714 V 2.936 h -1.725 m -6.512,-10.23 -1.825,5.185 -0.898,-1.981 v -3.205 h -1.246 v 11.47 h 1.246 v -5.817 l 2.494,5.817 h 1.276 l -2.088,-4.738 2.395,-6.732 h -1.354 m -8.505,0.002 -1.419,4.93 h -1.13 v -4.93 H 94.808 V 4.178 h 2.332 c 1.57,0 2.436,-0.759 2.436,-3.272 0,-1.596 -0.346,-2.528 -1.244,-2.998 l 1.575,-5.202 h -1.302 m -1.449,10.23 h -1.1 V -1.14 h 1.1 c 0.955,0 1.176,0.821 1.176,2.046 0,1.208 -0.221,2.029 -1.176,2.029 z M 90.754,-7.291 90.26,-4.585 h -2.393 l -0.493,-2.707 h -1.303 l 2.405,11.471 h 1.203 L 92.07,-7.292 H 90.754 M 89.07,1.94 88.098,-3.344 h 1.925 z M 78.548,-6.711 c -0.394,-0.422 -0.999,-0.695 -1.826,-0.695 -0.796,0 -1.406,0.244 -1.81,0.695 -0.482,0.531 -0.639,1.191 -0.639,2.414 h 1.245 c 0,-0.754 0.072,-1.174 0.35,-1.496 0.172,-0.21 0.462,-0.354 0.854,-0.354 0.423,0 0.696,0.145 0.885,0.37 0.275,0.34 0.331,0.774 0.331,1.53 0,1.321 -0.176,1.725 -1.014,2.112 l -1.172,0.531 c -1.061,0.484 -1.408,1.129 -1.408,2.868 0,1 0.262,1.821 0.783,2.355 0.403,0.417 0.959,0.657 1.639,0.657 0.75,0 1.318,-0.24 1.707,-0.657 C 79,3.053 79.156,2.312 79.156,1.265 h -1.244 c 0,0.612 -0.06,1.031 -0.318,1.386 -0.176,0.241 -0.449,0.386 -0.846,0.386 -0.358,0 -0.62,-0.145 -0.793,-0.357 C 75.706,2.374 75.59,1.908 75.59,1.313 c 0,-1.13 0.162,-1.467 0.99,-1.854 l 1.156,-0.533 c 1.174,-0.53 1.454,-1.337 1.454,-3.141 0,-1.192 -0.152,-1.949 -0.642,-2.495 M 67.404,-7.288 V 4.182 H 71.39 V 2.938 H 68.649 V -0.91 h 2.363 v -1.243 h -2.363 v -3.9 H 71.39 V -7.292 H 67.404 M 61.65,-7.417 c -0.823,0 -1.376,0.336 -1.769,0.822 -0.71,0.868 -0.752,2.175 -0.752,5.041 0,2.869 0.042,4.174 0.752,5.045 0.393,0.482 0.946,0.821 1.769,0.821 0.724,0 1.277,-0.275 1.671,-0.709 0.476,-0.549 0.707,-1.338 0.722,-2.27 h -1.247 c 0,0.769 -0.189,1.739 -1.146,1.739 -0.404,0 -0.664,-0.179 -0.84,-0.436 -0.362,-0.549 -0.435,-1.467 -0.435,-4.19 0,-2.724 0.073,-3.639 0.435,-4.19 0.176,-0.256 0.436,-0.433 0.84,-0.433 0.724,0 1.146,0.661 1.146,1.595 v 2.288 H 61.65 v 1.159 h 2.393 v -3.399 c 0,-1.902 -1.044,-2.882 -2.393,-2.882 m -6.764,0.131 -1.421,4.929 h -1.132 v -4.932 h -1.245 v 11.47 h 2.333 c 1.568,0 2.436,-0.759 2.436,-3.272 0,-1.594 -0.348,-2.527 -1.247,-2.996 l 1.579,-5.202 h -1.303 m -1.45,10.231 h -1.103 v -4.079 h 1.103 c 0.957,0 1.174,0.821 1.174,2.046 0,1.208 -0.217,2.029 -1.174,2.029 z m -6.435,-9.539 c -0.393,-0.487 -0.957,-0.821 -1.784,-0.821 -0.825,0 -1.377,0.336 -1.768,0.822 -0.712,0.869 -0.755,2.176 -0.755,5.041 0,2.87 0.043,4.175 0.755,5.045 0.391,0.482 0.943,0.823 1.768,0.823 0.827,0 1.391,-0.34 1.784,-0.821 0.71,-0.871 0.737,-2.176 0.737,-5.045 0,-2.865 -0.027,-4.172 -0.737,-5.041 m -0.942,9.227 c -0.175,0.258 -0.435,0.436 -0.842,0.436 -0.406,0 -0.665,-0.178 -0.839,-0.435 -0.363,-0.549 -0.436,-1.467 -0.436,-4.19 0,-2.724 0.073,-3.639 0.436,-4.19 0.174,-0.256 0.433,-0.432 0.839,-0.432 0.407,0 0.667,0.177 0.842,0.433 0.363,0.551 0.433,1.466 0.433,4.19 0,2.723 -0.07,3.641 -0.433,4.19 z M 38.204,-7.29 35.537,0.557 V -7.29 H 34.291 V 4.18 h 1.158 l 2.652,-7.846 -0.012,7.847 h 1.246 V -7.29 H 38.204 M 22.804,4.05 12.007,-25.478 h 2.062 L 24.865,4.051 h -2.061" /></g></g></g><g
       id="g40"><g
         clip-path="url(#clipPath46)"
         id="g42"><g
           transform="translate(11.9513,32.6438)"
           id="g48"><path
             id="path50"
             style="fill:#000000;fill-opacity:1;fill-rule:nonzero;stroke:none"
             d="m 0,0 c 1.308,-1.043 2.722,-2.008 3.939,-3.095 l -5.884,-3.387 c -0.638,0.405 -1.248,1.221 -1.891,1.743 h -7.878 c -0.198,0.491 -0.225,1.082 -0.397,1.596 1.627,0.065 3.306,0.024 4.985,0.047 l 0.049,0.054 -0.303,0.996 -4.832,0.053 c -0.072,0.67 -0.232,1.307 -0.399,1.941 v 0.051 H 0 m 20.988,16.149 c 0.569,-0.613 1.31,-1.273 1.789,-1.896 L 18.89,14.205 c 0.155,-0.333 0.455,-0.63 0.7,-0.997 h 4.34 c 0.388,-0.571 0.819,-1.128 0.994,-1.846 l -5.881,0.054 c -1.01,-0.723 -2.039,-1.481 -2.994,-2.295 -0.014,0.008 -3.436,2.566 -4.931,3.838 1.853,1.046 3.708,2.115 5.583,3.189 h 4.287 M 35.789,-7.528 c 0,0.802 0.657,1.465 1.497,1.447 0.801,0.018 1.464,-0.643 1.445,-1.445 0.019,-0.838 -0.644,-1.499 -1.445,-1.497 -0.841,-0.002 -1.498,0.659 -1.498,1.498 m -59.063,-0.103 c -0.015,0.813 0.647,1.475 1.447,1.496 0.839,-0.021 1.499,-0.683 1.491,-1.496 0.008,-0.823 -0.653,-1.486 -1.491,-1.491 -0.801,0.005 -1.463,0.668 -1.448,1.491" /></g><g
           id="g52"><g
             clip-path="url(#clipPath58)"
             id="g54"><g
               transform="translate(39.9191,30.7012)"
               id="g60"><path
                 id="path62"
                 style="fill:#000000;fill-opacity:1;fill-rule:nonzero;stroke:none"
                 d="M 0,0 C 0.145,0.59 0.216,1.315 0.25,1.99 L 0.151,2.095 h -16.4 l -13.558,-7.575 -8.921,0.046 c 0.431,-0.654 0.801,-1.402 1.196,-2.089 l 4.835,0.047 c 0.31,-0.297 0.49,-0.709 0.746,-1.051 l -0.097,-0.096 -4.882,0.051 c 0.49,-0.767 1.009,-1.604 1.845,-1.947 l 4.932,-0.046 c 0.7,-0.588 1.171,-1.082 1.89,-1.348 l 17.897,-0.048 c 0.515,0.12 0.707,0.578 1.098,0.844 l 4.137,-0.05 0.348,0.151 c 0.146,0.227 0.309,0.449 0.248,0.747 -1.319,2.021 -3.235,3.638 -5.48,4.436 -1.737,0.84 -4.211,0.533 -5.985,0.499 l 2.896,2.642 12.508,-0.052 c 0.178,0.532 0.398,1.034 0.451,1.595 -1.864,0.018 -5.545,0.009 -5.534,0 0.142,0.335 0.21,0.754 0.249,1.102 l 5.431,0.05 m -13.757,-6.732 c 2.136,0.337 3.948,-0.404 5.534,-1.548 0.51,-0.371 1.069,-0.926 1.395,-1.392 -0.825,-0.096 -1.971,-0.003 -2.941,-0.098 l -0.599,-0.75 -3.386,0.049 c -0.02,-0.014 -0.02,2.639 0,3.743 z m -1.097,-1.844 c -0.014,-1.137 -0.929,-2.051 -2.047,-2.047 -1.136,-0.004 -2.052,0.91 -2.04,2.047 -0.012,1.121 0.904,2.034 2.04,2.043 1.119,-0.009 2.033,-0.922 2.047,-2.042 z m 14.65,15.648 -5.183,0.05 C -5.463,7.51 -5.503,7.77 -5.633,8.275 l 5.131,0.046 c -0.233,0.796 -0.485,1.609 -1.043,2.243 h -11.118 l -9.719,7.526 -10.965,0.049 c -0.691,-0.556 -1.247,-1.311 -1.847,-1.992 h 5.036 c -0.183,-0.314 -0.407,-0.719 -0.649,-0.996 h -5.433 c -0.324,-0.38 -1.011,-1.262 -1.095,-1.793 h 11.115 l 2.588,-2.841 -7.323,-0.05 c -2.533,-0.237 -4.731,-1.484 -6.479,-3.391 -0.439,-0.53 -1.208,-0.99 -1.196,-1.743 0.109,-0.225 0.139,-0.538 0.448,-0.598 h 4.439 c 0.534,-0.151 0.521,-0.819 0.846,-1.199 h 22.029 c 0.305,0.574 0.659,1.193 1.099,1.647 H 0.102 C 0.041,5.819 -0.112,6.435 -0.2,7.077 M -29.162,5.233 h -2.94 c -0.334,0.289 -0.389,0.719 -0.749,0.947 h -3.339 c 1.113,1.523 2.804,2.354 4.534,2.788 h 2.494 z m 3.44,-0.201 c -1.11,-0.026 -2.026,0.889 -2.046,1.994 0.02,1.151 0.936,2.066 2.046,2.042 1.147,0.024 2.062,-0.893 2.046,-2.044 0.016,-1.106 -0.899,-2.019 -2.046,-1.994 z" /></g><g
               transform="translate(-3.7128,20.8966)"
               id="g64"><path
                 id="path66"
                 style="fill:#000000;fill-opacity:1;fill-rule:nonzero;stroke:none"
                 d="m 0,0 -0.574,-0.36 0.059,-0.118 c 0.433,-0.831 0.473,-0.901 -0.475,-1.477 l -4.523,-2.783 c -0.93,-0.572 -0.999,-0.531 -1.592,0.215 l -0.081,0.101 -0.648,-0.397 2.403,-3.687 0.648,0.398 -0.065,0.121 c -0.425,0.815 -0.462,0.885 0.483,1.468 l 4.522,2.781 c 0.954,0.582 1.002,0.523 1.583,-0.21 L 1.821,-4.05 2.559,-3.587 1.224,-1.761 C 0.613,-0.914 0.207,-0.072 0.206,-0.062 L 0.134,0.084 -0.004,-0.005 m 58.726,18.508 -2.067,-0.012 -0.802,-0.004 0.046,-0.738 0.103,-0.021 c 0.534,-0.108 1.056,-0.235 1.293,-0.445 0.196,-0.146 0.335,-0.323 0.396,-1.392 0,0 0.009,-0.175 0.016,-0.308 -0.265,-0.017 -6.071,-0.351 -6.071,-0.351 -1.057,-0.057 -1.071,0.023 -1.212,1.043 l -0.017,0.126 -0.675,-0.041 0.234,-2.296 c 0.09,-1.064 0.035,-2.1 0.035,-2.108 l -0.009,-0.159 0.678,0.047 10e-4,0.13 c 0.021,1.116 0.068,1.165 1.081,1.221 0,0 5.191,0.297 6.07,0.351 l 0.029,-0.455 c 0.007,-0.156 0.013,-0.292 0.013,-0.414 0,-0.436 -0.061,-0.669 -0.205,-0.842 -0.195,-0.218 -0.614,-0.422 -1.266,-0.611 l -0.114,-0.035 0.079,-0.724 2.99,0.343 v 0.131 l -0.012,0.393 -0.096,0.024 c -0.298,0.075 -0.336,0.292 -0.354,0.643 0,-0.011 -0.035,2.62 -0.035,2.62 -0.072,1.393 -0.268,2.66 -0.268,2.678 -0.027,0.374 -0.006,0.511 0.261,0.613 l 0.112,0.039 -0.118,0.552 h -0.117 m -2.344,7.76 -0.557,-0.184 0.026,-0.125 c 0.205,-0.844 0.22,-0.91 -0.797,-1.249 l -5.354,-1.729 c -0.966,-0.311 -1.02,-0.29 -1.44,0.712 l -0.049,0.118 -0.715,-0.234 0.073,-0.145 c 0.009,-0.014 0.775,-1.553 1.301,-3.256 0.52,-1.711 0.745,-3.075 0.75,-3.091 l 0.019,-0.122 0.122,0.006 c 0.399,0.021 1.66,0.16 2.265,0.258 l 0.131,0.023 -0.091,0.724 -0.114,0.008 c -0.595,0.046 -0.95,0.159 -1.3,0.314 -0.382,0.163 -0.578,0.566 -0.777,1.159 l -0.079,0.238 c -0.095,0.28 -0.179,0.524 -0.179,0.716 0,0.049 0.005,0.092 0.018,0.13 0.058,0.214 0.143,0.327 0.733,0.518 0,0 1.984,0.639 2.221,0.714 l 0.232,-0.702 c 0.128,-0.408 0.215,-0.665 0.215,-0.86 0,-0.288 -0.181,-0.426 -0.645,-0.676 l -0.105,-0.053 0.23,-0.694 2.776,0.91 -0.223,0.692 -0.12,-0.012 c -0.82,-0.114 -0.9,-0.05 -1.241,0.982 0,0 -0.15,0.464 -0.229,0.702 0.24,0.077 2.885,0.931 2.885,0.931 0.31,0.1 0.31,0.1 0.431,-0.28 l 0.198,-0.6 c 0.213,-0.645 0.244,-0.995 0.106,-1.239 -0.118,-0.247 -0.419,-0.523 -0.863,-0.806 l -0.103,-0.064 0.327,-0.673 0.879,0.381 1.185,0.477 -0.028,0.118 -0.861,2.977 c -0.413,1.287 -1.069,2.889 -1.078,2.905 l -0.046,0.117 -0.124,-0.038 m -4.877,7.946 -1.379,-0.747 -0.994,-0.54 0.386,-0.629 0.105,0.035 c 0.52,0.156 1.04,0.294 1.347,0.219 0.242,-0.034 0.452,-0.126 1.008,-1.039 0,0 0.091,-0.154 0.163,-0.267 -0.23,-0.134 -5.186,-3.178 -5.186,-3.178 -0.905,-0.552 -0.953,-0.484 -1.565,0.345 l -0.072,0.105 -0.627,-0.387 1.261,-1.819 1.187,-2.074 0.126,0.086 0.436,0.306 -0.056,0.111 c -0.215,0.423 -0.339,0.678 -0.339,0.873 0,0.26 0.215,0.408 0.718,0.715 0,0 4.956,3.038 5.184,3.179 0.084,-0.141 0.236,-0.385 0.236,-0.385 0.342,-0.559 0.438,-0.839 0.438,-1.051 0.001,-0.052 -0.004,-0.104 -0.014,-0.155 -0.07,-0.287 -0.337,-0.659 -0.824,-1.136 l -0.082,-0.085 0.411,-0.597 2.442,1.677 -0.064,0.111 -0.198,0.345 -0.077,0.005 c -0.311,0.019 -0.367,0.102 -0.528,0.365 -0.024,0.041 -0.765,1.501 -1.305,2.331 l -1.476,2.218 c 0,-0.005 -0.149,0.214 -0.149,0.214 -0.131,0.173 -0.171,0.226 -0.093,0.396 l 0.035,0.076 -0.344,0.429 -0.103,-0.056 m -6.135,5.974 -0.417,-0.416 0.083,-0.093 c 0.563,-0.665 0.609,-0.719 -0.143,-1.479 -0.006,0 -3.793,-3.852 -3.793,-3.852 -0.72,-0.728 -0.779,-0.728 -1.608,-0.025 l -0.099,0.082 -0.636,-0.665 0.13,-0.096 c 0.01,-0.011 1.286,-0.912 2.632,-2.1 1.34,-1.186 2.315,-2.401 2.323,-2.416 l 0.073,-0.092 0.105,0.057 c 0.348,0.203 1.276,0.814 1.764,1.18 L 45.9,30.34 45.489,30.945 45.386,30.9 C 44.847,30.672 44.52,30.586 44.128,30.568 43.711,30.54 43.352,30.79 42.88,31.23 c -0.35,0.32 -0.619,0.57 -0.647,0.855 -0.009,0.036 -0.009,0.071 -0.009,0.109 0,0.187 0.065,0.413 0.353,0.723 0,0 1.335,1.313 1.706,1.673 0.137,-0.133 0.522,-0.522 0.522,-0.522 0.438,-0.432 0.638,-0.644 0.638,-0.887 0,-0.172 -0.111,-0.367 -0.325,-0.673 l -0.064,-0.1 0.515,-0.509 2.063,2.071 -0.518,0.513 -0.095,-0.064 c -0.681,-0.472 -0.783,-0.451 -1.551,0.31 0,0 -0.352,0.355 -0.527,0.525 0.17,0.185 2.073,2.193 2.073,2.193 0.052,0.047 0.177,0.173 0.219,0.173 0.058,0 0.196,-0.141 0.285,-0.233 l 0.451,-0.444 c 0.481,-0.48 0.666,-0.776 0.662,-1.056 0,-0.275 -0.141,-0.656 -0.409,-1.113 l -0.061,-0.103 0.593,-0.449 1.463,1.681 -0.079,0.092 c -0.013,0.015 -1.156,1.243 -2.085,2.105 -0.932,0.863 -2.471,2.08 -2.489,2.095 l -0.095,0.078 -0.091,-0.092 m -8.424,4.759 -0.724,-1.192 -0.687,-1.129 0.654,-0.342 0.077,0.075 c 0.366,0.401 0.745,0.783 1.043,0.878 0.228,0.093 0.451,0.118 1.397,-0.385 l 0.272,-0.143 c -0.12,-0.234 -2.847,-5.375 -2.847,-5.375 -0.496,-0.935 -0.571,-0.901 -1.515,-0.5 l -0.117,0.052 -0.344,-0.649 2.066,-0.955 1.964,-1.184 0.074,0.131 0.274,0.52 -0.111,0.068 c -0.555,0.356 -0.794,0.524 -0.794,0.785 0,0.179 0.11,0.409 0.304,0.777 0,0 2.727,5.139 2.848,5.373 l 0.403,-0.212 c 0.639,-0.335 0.884,-0.541 0.978,-0.815 0.029,-0.091 0.04,-0.21 0.04,-0.342 0,-0.267 -0.056,-0.62 -0.173,-1.057 l -0.029,-0.114 0.665,-0.305 1.153,2.525 -0.099,0.069 -0.331,0.222 -0.066,-0.024 c -0.195,-0.072 -0.275,-0.026 -0.475,0.09 l -2.485,1.395 -2.352,1.17 c 0.009,-0.001 -0.214,0.104 -0.214,0.104 -0.206,0.089 -0.265,0.113 -0.289,0.302 l -0.007,0.078 -0.494,0.22 -0.064,-0.108 m -5.563,1.685 -0.155,-0.522 0.122,-0.05 c 0.799,-0.318 0.827,-0.705 0.51,-1.794 L 30.435,39.425 C 30.15,38.434 30.076,38.424 29.179,38.594 l -0.124,0.025 -0.21,-0.711 0.151,-0.029 c 0.014,0 1.109,-0.197 1.962,-0.456 l 1.963,-0.653 0.043,0.14 0.157,0.52 -0.116,0.051 c -0.835,0.327 -0.906,0.353 -0.604,1.369 l 1.413,4.851 c 0.326,1.126 0.535,1.41 1.35,1.253 l 0.129,-0.024 0.199,0.693 -2.047,0.657 -2.032,0.488 -0.038,-0.128 m -6.904,0.152 c -0.511,-0.464 -0.813,-1.114 -0.846,-1.826 -0.062,-1.323 0.846,-2.128 2.226,-2.929 1.039,-0.63 1.437,-1.124 1.408,-1.756 -0.022,-0.399 -0.155,-0.725 -0.393,-0.937 -0.212,-0.196 -0.507,-0.29 -0.843,-0.276 -1.162,0.057 -1.839,1.511 -2.056,2.362 l -0.035,0.142 -0.713,-0.208 0.003,-0.116 c 0.052,-0.72 0.169,-1.928 0.297,-2.301 l 0.019,-0.06 0.842,-0.358 c 0.407,-0.148 0.876,-0.235 1.356,-0.258 1.03,-0.051 1.955,0.238 2.597,0.82 0.529,0.478 0.84,1.135 0.875,1.851 0.071,1.48 -1.048,2.304 -2.267,2.98 -1.144,0.656 -1.501,1.066 -1.472,1.694 0.015,0.339 0.148,0.64 0.372,0.843 0.219,0.199 0.507,0.289 0.822,0.28 0.773,-0.041 1.297,-0.633 1.608,-1.813 l 0.031,-0.126 0.719,0.132 -0.087,1.03 -0.09,1.105 -0.112,0.049 c -0.264,0.107 -0.991,0.394 -1.82,0.434 -0.975,0.048 -1.845,-0.222 -2.437,-0.764 M 10.574,45.324 7.667,44.024 C 6.153,43.331 4.772,42.499 4.761,42.491 L 4.656,42.425 4.952,41.777 5.071,41.82 c 0.818,0.295 0.884,0.32 1.328,-0.658 L 8.693,36.098 C 9.115,35.17 9.092,35.116 8.15,34.585 l -0.112,-0.063 0.31,-0.681 0.135,0.087 c 0.016,0.009 1.542,1.019 2.993,1.746 1.455,0.726 2.98,1.251 2.997,1.256 l 0.116,0.037 -0.46,2.218 -0.137,-0.041 -0.577,-0.14 0.001,-0.115 c 0.027,-0.612 -0.065,-0.95 -0.18,-1.306 -0.115,-0.379 -0.508,-0.586 -1.095,-0.852 -0.445,-0.204 -0.886,-0.295 -1.149,-0.24 -0.216,0.042 -0.348,0.2 -0.503,0.597 0,0 -0.664,1.635 -0.852,2.09 0.174,0.082 0.684,0.31 0.684,0.31 0.968,0.441 1.073,0.463 1.568,-0.257 l 0.068,-0.095 0.661,0.301 -1.214,2.66 -0.656,-0.303 0.023,-0.114 c 0.059,-0.229 0.094,-0.398 0.094,-0.536 0,-0.344 -0.228,-0.481 -0.937,-0.804 0,0 -0.436,-0.201 -0.667,-0.305 -0.096,0.249 -1.135,2.882 -1.135,2.882 -0.03,0.065 -0.091,0.197 -0.091,0.257 0,0.006 0.003,0.013 0.003,0.019 0.019,0.048 0.199,0.13 0.318,0.182 l 0.571,0.264 c 0.623,0.284 0.965,0.35 1.228,0.245 0.253,-0.094 0.561,-0.359 0.888,-0.77 l 0.082,-0.097 0.63,0.397 -1.062,1.97 -0.119,-0.053 M 4.104,42.092 2.895,41.269 1.432,40.206 1.533,40.093 1.911,39.634 2.019,39.697 c 0.417,0.272 0.641,0.365 0.766,0.324 0.14,-0.047 0.259,-0.324 0.404,-0.703 0,-10e-4 0.367,-0.871 0.367,-0.871 0.448,-1.059 1.049,-2.492 1.549,-3.894 -1.295,0.755 -2.589,1.511 -3.883,2.269 l -0.978,0.579 c -0.181,0.108 -0.332,0.207 -0.345,0.293 v 0.017 c 0,0.133 0.227,0.399 0.421,0.62 l 0.081,0.091 -0.469,0.569 -1.562,-1.393 -1.522,-1.531 0.087,-0.093 0.383,-0.464 0.103,0.069 c 0.63,0.43 0.863,0.422 1.776,-0.074 l 1.97,-1.038 C 2.59,33.723 4.361,32.803 5.782,31.986 l 0.081,-0.047 0.653,0.54 -0.029,0.092 c -0.824,2.408 -1.63,5.124 -2.022,6.431 l -0.134,0.463 c -0.381,1.261 -0.305,1.483 0.253,2.052 l 0.087,0.091 -0.465,0.558 -0.103,-0.074 m -7.939,-6.817 -1.19,-1.451 -1.37,-1.839 0.117,-0.08 0.481,-0.341 0.083,0.093 c 0.591,0.693 0.64,0.748 1.507,0.137 l 4.553,-3.18 c 0.842,-0.597 0.824,-0.669 0.371,-1.462 l -0.065,-0.107 0.601,-0.428 0.073,0.128 c 0.01,0.01 0.621,1 1.163,1.657 L 3.835,29.973 3.711,30.061 3.099,30.503 3.015,30.407 C 2.432,29.727 2.385,29.672 1.517,30.286 l -4.372,3.107 c -0.868,0.616 -0.831,0.676 -0.383,1.457 l 0.064,0.108 -0.583,0.415 -0.082,-0.098 m -3.585,-4.897 -0.737,-1.249 -0.922,-1.79 0.687,-0.263 0.05,0.123 c 0.385,0.86 0.639,0.951 1.09,0.83 0.539,-0.137 1.587,-0.44 2.587,-0.818 0,0 1.398,-0.54 1.854,-0.713 -0.555,-0.193 -7.775,-2.77 -7.775,-2.77 l -0.299,-0.96 -0.326,-1.083 0.121,-0.045 0.818,-0.312 0.057,0.113 c 0.248,0.504 0.425,0.689 0.754,0.792 0.333,0.105 0.756,-0.058 1.511,-0.349 0.034,-0.011 2.602,-0.993 2.602,-0.993 0.996,-0.383 1.515,-0.654 1.89,-0.852 l 0.089,-0.046 c 0.376,-0.19 0.535,-0.426 0.314,-1.155 l -0.039,-0.122 0.703,-0.276 0.499,1.684 0.603,1.664 -0.132,0.046 -0.421,0.146 -0.053,-0.118 c -0.388,-0.871 -0.638,-0.91 -1.112,-0.784 0.001,0 -0.069,0.015 -0.069,0.015 l -1.943,0.637 c 0,0 -1.74,0.669 -2.454,0.942 l 7.889,2.696 0.441,0.696 -5.194,1.99 -1.857,0.819 -0.145,0.069 c -0.29,0.153 -0.418,0.304 -0.418,0.571 0,0.139 0.034,0.316 0.102,0.538 l 0.043,0.122 -0.751,0.304 -0.055,-0.103 m -4.147,-10.079 -0.301,-1.559 -0.266,-1.856 0.15,-0.01 0.748,-0.059 0.018,0.133 c 0.118,0.857 0.385,1.054 0.768,1.084 0.424,0.041 0.938,0.063 1.874,-0.004 l 1.449,-0.107 c 1.38,-0.101 2.32,-0.435 2.795,-0.987 0.305,-0.351 0.429,-0.792 0.385,-1.348 -0.126,-1.632 -1.827,-1.856 -3.229,-1.751 l -2.955,0.217 c -1.212,0.085 -1.214,0.177 -1.231,1.048 l -0.002,0.121 -0.986,0.134 -0.086,-2.137 0.008,-2.148 0.131,-0.008 0.598,-0.042 0.025,0.123 c 0.153,0.871 0.17,0.963 1.386,0.877 l 3.198,-0.232 c 1.624,-0.116 2.705,0.163 3.396,0.889 0.528,0.569 0.833,1.356 0.913,2.349 0.076,0.997 -0.228,1.941 -0.836,2.595 -0.708,0.742 -1.727,1.109 -3.409,1.231 l -1.476,0.108 c -0.975,0.07 -1.467,0.164 -1.855,0.252 -0.269,0.057 -0.618,0.224 -0.604,1.016 l 0.005,0.129 -0.582,0.07 -0.026,-0.127 m 35.007,-32.161 c -13.398,0.007 -24.3,10.914 -24.305,24.308 0.005,13.428 10.907,24.347 24.305,24.356 6.512,0 12.628,-2.536 17.225,-7.133 4.596,-4.598 7.128,-10.712 7.132,-17.223 C 47.792,-0.951 36.867,-11.858 23.441,-11.866 m 0,47.008 C 10.96,35.13 0.801,24.953 0.793,12.444 0.802,-0.038 10.961,-10.194 23.442,-10.202 c 12.506,0.008 22.687,10.164 22.696,22.646 -0.003,6.066 -2.36,11.764 -6.644,16.049 -4.284,4.284 -9.985,6.644 -16.051,6.649 z" /></g><g
               transform="translate(14.0495,7.2225)"
               id="g68"><path
                 id="path70"
                 style="fill:#000000;fill-opacity:1;fill-rule:nonzero;stroke:none"
                 d="m 0,0 c -0.42,0.586 -0.797,0.828 -1.919,1.232 -0.002,0 -1.991,0.682 -1.991,0.682 L -5.825,2.721 -5.888,2.584 -6.104,1.975 -5.987,1.919 C -5.156,1.531 -5.124,1.436 -5.454,0.476 L -7.175,-4.469 C -7.526,-5.48 -7.636,-5.491 -8.536,-5.262 l -0.125,0.029 -0.273,-0.719 1.976,-0.794 2.109,-0.722 0.048,0.13 0.232,0.638 -0.118,0.055 c -0.537,0.25 -0.76,0.373 -0.76,0.689 0,0.179 0.073,0.423 0.204,0.795 0,0 0.456,1.324 0.603,1.747 0.051,-0.024 0.103,-0.044 0.103,-0.044 0.344,-0.12 0.488,-0.313 0.55,-0.737 l 0.111,-0.714 0.267,-1.576 0.043,-0.204 c 0.1,-0.55 0.21,-1.173 1.532,-1.595 l 0.094,-0.032 c 0.457,-0.148 0.746,-0.231 0.882,-0.219 0.14,0.017 0.257,0.107 0.298,0.238 0.008,0.028 0.014,0.059 0.014,0.09 0,0.073 -0.032,0.137 -0.081,0.185 -0.138,0.11 -0.348,0.293 -0.493,0.615 -0.152,0.366 -0.258,0.733 -0.382,1.628 l -0.171,1.157 c 0,0 -0.102,0.683 -0.134,0.887 1.167,0.096 1.943,0.622 2.284,1.601 0.097,0.288 0.15,0.567 0.15,0.845 0,0.462 -0.145,0.899 -0.431,1.29 m -1.853,-1.587 c -0.227,-0.657 -0.56,-1.048 -1.053,-1.227 -0.303,-0.125 -0.712,-0.085 -1.261,0.11 0,0 -0.103,0.038 -0.192,0.07 0.082,0.245 1.037,2.999 1.037,2.999 0.093,0.26 0.145,0.326 0.201,0.346 0.027,0.014 0.144,0.052 0.511,-0.075 0.655,-0.235 1.201,-0.945 0.756,-2.22 z M 5.318,0.299 H 5.307 C 3.987,0.335 2.83,-0.083 1.961,-0.911 1.06,-1.765 0.523,-3.019 0.489,-4.347 0.423,-7.093 2.282,-9.134 4.912,-9.206 6.175,-9.24 7.336,-8.813 8.196,-8.001 9.103,-7.139 9.605,-5.922 9.638,-4.49 9.705,-1.83 7.847,0.228 5.317,0.299 M 7.35,-4.792 C 7.316,-6.205 6.954,-7.307 6.33,-7.896 6.003,-8.21 5.6,-8.372 5.167,-8.361 c -1.469,0.04 -2.453,1.774 -2.39,4.22 0.031,1.361 0.423,2.494 1.067,3.109 0.348,0.327 0.763,0.496 1.193,0.488 H 5.045 C 6.508,-0.587 7.412,-2.255 7.347,-4.795 Z M 33.6,12.025 c -1.072,0.8 -2.441,1.066 -3.775,0.773 -0.146,0.384 -0.292,0.768 -0.437,1.153 L 29.26,13.907 28.627,13.711 c 0,0 0.347,-1.013 0.406,-1.188 -0.668,-0.307 -1.288,-0.805 -1.788,-1.479 -0.717,-0.961 -1.022,-1.965 -1.022,-2.917 0,-1.52 0.779,-2.901 1.899,-3.73 1.151,-0.861 2.598,-1.15 3.91,-0.815 l 0.379,-1.073 0.748,0.253 c 0,0 -0.296,0.94 -0.353,1.107 0.662,0.305 1.29,0.81 1.777,1.463 0.693,0.929 1.031,1.944 1.031,2.935 0,1.412 -0.686,2.766 -2.012,3.755 m -4.29,-5.716 c -1.217,0.907 -1.884,2.003 -1.884,2.962 0,0.404 0.113,0.78 0.358,1.105 0.395,0.533 0.999,0.816 1.701,0.805 C 30.145,9.234 30.805,7.29 31.465,5.346 30.761,5.48 29.967,5.814 29.312,6.303 Z M 34.05,6.025 C 33.661,5.506 33.049,5.212 32.391,5.224 c -0.059,0.172 -1.84,5.347 -2.006,5.824 0.674,-0.162 1.427,-0.503 2.122,-1.026 1.252,-0.934 1.921,-1.964 1.921,-2.886 0,-0.396 -0.123,-0.772 -0.377,-1.112 z M 5.305,52.786 c -0.05,0.115 -0.183,0.179 -0.385,0.275 l -0.629,0.37 c -0.431,0.332 -0.752,0.665 -1.358,1.322 -0.316,0.324 -0.576,0.783 -0.782,1.154 0,0 -0.189,0.298 -0.279,0.444 0.777,0.582 1.18,1.269 1.18,2.07 0,0.173 -0.016,0.352 -0.056,0.533 -0.164,0.812 -0.611,1.397 -1.302,1.691 -0.66,0.283 -1.364,0.247 -2.429,0.078 l -1.785,-0.351 -2.036,-0.547 0.03,-0.129 0.12,-0.6 0.134,0.015 c 0.854,0.099 0.954,0.074 1.161,-0.957 l 1.037,-5.168 c 0.217,-1.061 0.126,-1.127 -0.741,-1.411 l -0.122,-0.04 0.153,-0.748 2.032,0.613 2.067,0.406 -0.008,0.135 -0.067,0.508 -0.141,-0.017 c -0.9,-0.108 -0.989,-0.086 -1.208,0.979 0,0 -0.276,1.395 -0.366,1.826 0.058,0.009 0.111,0.023 0.111,0.023 0.346,0.076 0.561,-0.014 0.824,-0.344 l 1.437,-1.599 0.351,-0.381 c 0.578,-0.619 0.891,-0.961 2.464,-0.785 0.25,0.027 0.477,0.202 0.571,0.358 0.033,0.055 0.051,0.119 0.051,0.172 0,0.035 -0.007,0.069 -0.021,0.098 M 0.655,56.675 C 0.463,56.41 0.102,56.223 -0.451,56.099 c 0,0 -0.1,-0.022 -0.192,-0.041 -0.055,0.255 -0.629,3.125 -0.629,3.125 -0.026,0.127 -0.044,0.22 -0.044,0.291 0,0.054 0.013,0.096 0.035,0.123 0.023,0.033 0.106,0.128 0.466,0.205 0.345,0.075 0.692,0.014 0.974,-0.169 0.375,-0.248 0.644,-0.711 0.769,-1.341 0.041,-0.203 0.064,-0.394 0.064,-0.572 0,-0.41 -0.112,-0.759 -0.334,-1.045 z M 23.846,6.676 C 23.555,6.578 22.794,6.335 22.115,5.832 21.296,5.227 20.783,4.45 20.666,3.631 c -0.097,-0.694 0.081,-1.365 0.52,-1.948 0.808,-1.065 2.053,-1.099 3.675,-0.827 1.242,0.19 1.88,0.064 2.265,-0.449 0.243,-0.316 0.349,-0.654 0.301,-0.97 -0.04,-0.294 -0.213,-0.56 -0.495,-0.77 -0.966,-0.709 -2.45,-0.024 -3.174,0.495 l -0.121,0.089 -0.437,-0.626 0.084,-0.084 c 0.437,-0.461 1.366,-1.376 1.729,-1.595 l 0.057,-0.038 0.902,0.266 c 0.418,0.154 0.85,0.389 1.246,0.684 0.867,0.638 1.411,1.47 1.539,2.35 0.105,0.716 -0.074,1.403 -0.513,1.982 -0.908,1.197 -2.336,1.111 -3.749,0.841 -1.334,-0.235 -1.887,-0.148 -2.269,0.361 -0.211,0.271 -0.298,0.586 -0.255,0.884 0.041,0.294 0.211,0.565 0.474,0.757 0.646,0.475 1.449,0.359 2.459,-0.358 L 25.011,4.6 25.501,5.168 24.746,5.922 23.962,6.717 23.846,6.679 M 19.232,3.75 18.05,3.107 16.786,2.505 16.777,2.42 c 0,0 -0.485,-5.468 -0.54,-6.052 -0.388,0.441 -4.049,4.561 -4.049,4.561 L 10.822,0.606 9.271,0.363 9.32,0.204 9.65,-0.734 9.775,-0.708 c 0.967,0.243 1.066,0.227 1.443,-1.242 l 0.628,-2.588 c 0.348,-1.392 0.432,-1.905 0.482,-2.314 0.056,-0.407 -0.034,-0.651 -0.684,-0.95 l -0.112,-0.049 0.225,-0.681 1.608,0.323 1.718,0.42 -0.048,0.142 -0.187,0.573 -0.124,-0.033 c -0.792,-0.199 -1.027,-0.01 -1.234,0.471 -0.205,0.443 -0.416,1.088 -0.677,2.043 0,0.007 -0.535,1.919 -0.801,2.863 0.584,-0.698 4.389,-5.268 4.389,-5.268 l 0.504,0.179 c 0,0 0.448,6.154 0.514,7.113 0.287,-0.861 1.456,-4.353 1.456,-4.353 0.173,-0.506 0.278,-0.853 0.278,-1.111 0,-0.342 -0.185,-0.528 -0.625,-0.736 l -0.112,-0.058 0.236,-0.709 2.01,0.86 1.772,0.859 -0.038,0.114 -0.192,0.565 -0.122,-0.031 c -0.899,-0.21 -0.934,-0.221 -1.328,0.907 l -1.679,4.72 c -0.356,1.008 -0.347,1.036 0.52,1.44 L 19.706,2.815 19.379,3.832 19.23,3.751 m -31.793,3.31 -0.826,-1.179 -0.85,-1.209 0.624,-0.416 0.084,0.079 c 0.398,0.384 0.81,0.744 1.118,0.817 0.228,0.077 0.451,0.082 1.353,-0.516 0,0 0.15,-0.1 0.262,-0.177 -0.141,-0.222 -3.284,-5.312 -3.284,-5.312 -0.569,-0.925 -0.642,-0.885 -1.549,-0.391 l -0.118,0.069 -0.365,-0.612 1.86,-1.319 2,-1.224 0.067,0.123 0.286,0.481 -0.098,0.078 c -0.506,0.397 -0.731,0.586 -0.731,0.842 0,0.195 0.134,0.427 0.373,0.816 0,0 2.794,4.534 3.275,5.31 0.139,-0.089 0.378,-0.249 0.378,-0.249 0.606,-0.402 0.836,-0.637 0.91,-0.931 0.008,-0.065 0.019,-0.138 0.019,-0.224 0,-0.292 -0.093,-0.695 -0.271,-1.215 l -0.033,-0.107 0.636,-0.374 1.41,2.586 -0.129,0.07 -0.37,0.181 -0.052,-0.014 C -6.86,2.966 -6.989,2.987 -7.248,3.157 c -0.028,0.016 -1.167,0.602 -2.361,1.385 -1.261,0.832 -2.067,1.554 -2.076,1.559 -0.288,0.191 -0.359,0.323 -0.366,0.652 l -0.002,0.059 -0.416,0.386 -0.096,-0.135" /></g></g></g><g
           transform="translate(124.9427,45.5825)"
           id="g72"><path
             id="path74"
             style="fill:#000000;fill-opacity:1;fill-rule:nonzero;stroke:none"
             d="M 0,0 V -28.583 H -5.241 V 0 h -5.565 V 4.725 H 5.615 L 5.615,0 H 0 m -22.732,4.678 h 5.47 v -5.474 h -5.47 z m 0.28,-9.262 h 4.959 v -23.999 h -4.959 z m -10.519,-21.944 c -1.589,-1.633 -3.695,-2.43 -6.174,-2.43 -2.48,0 -4.632,0.797 -6.221,2.43 -1.454,1.499 -2.293,3.605 -2.293,6.132 V 4.725 h 5.24 v -25.403 c 0,-2.384 1.497,-3.555 3.274,-3.555 1.778,0 3.226,1.171 3.226,3.555 V 4.725 h 5.241 v -25.121 c 0,-2.527 -0.84,-4.633 -2.293,-6.132 m 155.531,9.579 v -11.555 h -1.411 v 11.555 h -1.964 v 1.401 h 5.325 v -1.401 h -1.95 m -10.856,-11.555 v 12.956 h 4.501 v -1.401 h -3.088 V -21.3 h 2.669 v -1.399 h -2.669 v -4.404 h 3.088 v -1.401 h -4.501 m -5.303,11.555 v -11.555 h -1.403 v 11.555 h -1.972 v 1.401 h 5.325 v -1.401 h -1.95 m -8.148,-11.555 h 1.402 v 12.956 h -1.402 z m -4.437,0.652 c -0.439,-0.472 -1.134,-0.782 -2.065,-0.782 -0.901,0 -1.589,0.276 -2.045,0.782 -0.542,0.602 -0.721,1.35 -0.721,2.733 h 1.404 c 0,-0.856 0.088,-1.33 0.399,-1.695 0.195,-0.238 0.519,-0.401 0.963,-0.401 0.474,0 0.784,0.163 0.998,0.419 0.312,0.384 0.377,0.874 0.377,1.727 0,1.493 -0.195,1.95 -1.146,2.387 l -1.328,0.601 c -1.19,0.549 -1.586,1.275 -1.586,3.245 0,1.125 0.294,2.053 0.885,2.65 0.461,0.476 1.079,0.748 1.852,0.748 0.849,0 1.491,-0.272 1.933,-0.748 0.587,-0.636 0.764,-1.471 0.764,-2.65 h -1.405 c 0,0.688 -0.066,1.161 -0.36,1.563 -0.2,0.271 -0.51,0.434 -0.95,0.434 -0.409,0 -0.706,-0.163 -0.905,-0.401 -0.277,-0.344 -0.403,-0.874 -0.403,-1.546 0,-1.276 0.175,-1.657 1.112,-2.091 l 1.309,-0.602 c 1.323,-0.602 1.639,-1.511 1.639,-3.55 0,-1.345 -0.163,-2.201 -0.721,-2.821 m -9.531,-0.653 -1.602,5.567 h -1.275 v -5.567 h -1.41 v 12.956 h 2.636 c 1.768,0 2.754,-0.852 2.754,-3.693 0,-1.802 -0.399,-2.859 -1.414,-3.385 l 1.787,-5.879 h -1.476 m -1.634,11.555 h -1.243 v -4.603 h 1.243 c 1.08,0 1.323,0.928 1.323,2.312 0,1.364 -0.243,2.291 -1.323,2.291 M 71.812,-28.503 v 12.956 h 4.503 v -1.401 h -3.092 v -4.351 h 2.665 v -1.399 h -2.665 v -4.404 h 3.092 v -1.401 h -4.503 m -5.598,0 h -1.441 l -2.518,12.956 h 1.557 l 1.686,-10.427 1.7,10.427 h 1.537 l -2.521,-12.956 m -8.462,0 h 1.41 v 12.956 h -1.41 z m -5.353,0 -3.01,8.86 v -8.86 h -1.407 v 12.956 h 1.31 l 2.993,-8.862 -0.017,8.862 h 1.41 v -12.956 h -1.279 m -9.13,0.712 c -0.508,-0.564 -1.195,-0.857 -1.949,-0.857 -0.753,0 -1.426,0.293 -1.933,0.857 -0.474,0.526 -0.752,1.292 -0.752,2.238 v 10.006 h 1.407 v -10.098 c 0,-1.02 0.574,-1.603 1.278,-1.603 0.703,0 1.294,0.583 1.294,1.603 v 10.098 h 1.408 v -10.006 c 0,-0.947 -0.279,-1.712 -0.753,-2.238 M 157.114,-8.235 V 4.721 h 4.503 V 3.318 h -3.099 v -4.347 h 2.671 v -1.402 h -2.671 v -4.405 h 3.099 v -1.399 h -4.503 m -4.663,-0.003 -2.067,5.856 -1.015,-2.236 v -3.62 h -1.403 V 4.719 h 1.403 v -6.568 l 2.817,6.571 h 1.442 l -2.357,-5.352 2.702,-7.605 h -1.522 m -8.923,0.654 c -0.441,-0.476 -1.131,-0.784 -2.065,-0.784 -0.898,0 -1.588,0.274 -2.044,0.784 -0.545,0.6 -0.721,1.345 -0.721,2.727 h 1.406 c 0,-0.852 0.087,-1.326 0.394,-1.69 0.2,-0.237 0.522,-0.399 0.965,-0.399 0.478,0 0.787,0.163 1.001,0.417 0.308,0.384 0.373,0.874 0.373,1.729 0,1.492 -0.194,1.948 -1.146,2.385 l -1.324,0.6 c -1.191,0.547 -1.59,1.275 -1.59,3.24 0,1.129 0.296,2.056 0.884,2.659 0.461,0.471 1.08,0.743 1.853,0.743 0.851,0 1.492,-0.272 1.933,-0.743 0.591,-0.639 0.765,-1.477 0.765,-2.659 h -1.404 c 0,0.691 -0.067,1.164 -0.36,1.565 -0.198,0.272 -0.507,0.437 -0.951,0.437 -0.408,0 -0.705,-0.165 -0.901,-0.404 -0.281,-0.344 -0.405,-0.871 -0.405,-1.545 0,-1.276 0.176,-1.656 1.108,-2.093 l 1.31,-0.602 c 1.325,-0.601 1.642,-1.511 1.642,-3.547 0,-1.348 -0.166,-2.204 -0.723,-2.821 m -9.891,-0.654 h 1.412 V 4.72 h -1.412 z M 128.341,3.313 V -8.24 h -1.412 V 3.313 h -1.964 v 1.403 h 5.325 v -1.4 h -1.949 m -7.355,-11.555 -2.061,5.856 -1.016,-2.237 v -3.62 h -1.407 V 4.716 h 1.407 v -6.571 l 2.818,6.571 h 1.442 l -2.359,-5.352 2.705,-7.604 h -1.529 m -9.607,0.002 -1.603,5.569 H 108.5 v -5.569 h -1.41 V 4.719 h 2.634 c 1.773,0 2.752,-0.857 2.752,-3.696 0,-1.802 -0.391,-2.855 -1.406,-3.386 l 1.78,-5.876 h -1.471 M 109.742,3.316 H 108.5 v -4.604 h 1.242 c 1.079,0 1.328,0.927 1.328,2.311 0,1.365 -0.249,2.292 -1.328,2.292 z m -7.231,-11.551 -0.559,3.056 H 99.25 L 98.693,-8.237 H 97.221 L 99.938,4.72 h 1.358 l 2.701,-12.957 h -1.486 m -1.903,10.429 -1.098,-5.97 h 2.176 z M 88.724,-7.581 c -0.445,-0.476 -1.129,-0.784 -2.062,-0.784 -0.901,0 -1.59,0.275 -2.046,0.784 -0.544,0.6 -0.721,1.346 -0.721,2.727 h 1.406 c 0,-0.852 0.082,-1.325 0.395,-1.689 0.195,-0.238 0.523,-0.4 0.966,-0.4 0.476,0 0.786,0.163 0.999,0.417 0.311,0.385 0.374,0.875 0.374,1.729 0,1.492 -0.199,1.948 -1.146,2.385 l -1.324,0.601 c -1.198,0.546 -1.591,1.274 -1.591,3.239 0,1.129 0.297,2.057 0.885,2.659 0.456,0.472 1.083,0.743 1.852,0.743 0.847,0 1.489,-0.271 1.928,-0.743 0.596,-0.639 0.771,-1.476 0.771,-2.658 h -1.405 c 0,0.691 -0.067,1.165 -0.359,1.566 -0.198,0.271 -0.508,0.436 -0.956,0.436 -0.404,0 -0.7,-0.165 -0.896,-0.404 -0.28,-0.345 -0.411,-0.872 -0.411,-1.544 0,-1.277 0.182,-1.657 1.117,-2.094 l 1.306,-0.602 c 1.326,-0.599 1.643,-1.51 1.643,-3.548 0,-1.347 -0.172,-2.201 -0.725,-2.818 M 76.136,-8.232 V 4.724 h 4.503 V 3.319 h -3.097 v -4.347 h 2.67 v -1.404 h -2.67 v -4.406 h 3.097 v -1.398 h -4.503 m -6.5,-0.141 c -0.929,0 -1.554,0.378 -1.998,0.927 -0.802,0.981 -0.849,2.458 -0.849,5.694 0,3.241 0.047,4.716 0.849,5.699 0.444,0.545 1.069,0.928 1.998,0.928 0.819,0 1.443,-0.312 1.888,-0.802 0.538,-0.619 0.799,-1.51 0.816,-2.563 h -1.409 c 0,0.868 -0.213,1.964 -1.295,1.964 -0.456,0 -0.75,-0.202 -0.949,-0.493 -0.408,-0.619 -0.491,-1.656 -0.491,-4.732 0,-3.077 0.083,-4.111 0.491,-4.733 0.199,-0.289 0.493,-0.489 0.949,-0.489 0.819,0 1.295,0.746 1.295,1.802 v 2.583 h -1.295 v 1.31 h 2.704 v -3.839 c 0,-2.149 -1.179,-3.256 -2.704,-3.256 m -7.64,0.148 -1.605,5.568 H 59.113 V -8.232 H 57.706 V 4.724 h 2.635 c 1.771,0 2.752,-0.857 2.752,-3.696 0,-1.801 -0.394,-2.855 -1.409,-3.384 l 1.785,-5.876 H 61.996 M 60.358,3.324 h -1.245 v -4.607 h 1.245 c 1.081,0 1.326,0.927 1.326,2.311 0,1.365 -0.245,2.292 -1.326,2.292 z M 53.089,-7.451 C 52.646,-8 52.009,-8.378 51.075,-8.378 c -0.932,0 -1.556,0.379 -1.997,0.928 -0.804,0.982 -0.853,2.458 -0.853,5.695 0,3.242 0.049,4.716 0.853,5.699 0.441,0.544 1.065,0.928 1.997,0.928 0.934,0 1.571,-0.383 2.014,-0.927 0.802,-0.983 0.834,-2.457 0.834,-5.698 0,-3.236 -0.032,-4.713 -0.834,-5.694 M 52.026,2.975 c -0.198,0.291 -0.492,0.492 -0.951,0.492 -0.459,0 -0.751,-0.201 -0.948,-0.491 -0.41,-0.62 -0.492,-1.657 -0.492,-4.733 0,-3.076 0.082,-4.11 0.492,-4.732 0.197,-0.289 0.489,-0.488 0.948,-0.488 0.459,0 0.753,0.2 0.951,0.489 0.41,0.622 0.489,1.656 0.489,4.733 0,3.076 -0.079,4.113 -0.489,4.732 z M 43.153,-8.235 40.141,0.629 V -8.235 H 38.734 V 4.721 h 1.308 l 2.995,-8.862 -0.014,8.864 h 1.408 V -8.234 H 43.153 M 25.758,4.575 13.562,-28.778 h 2.329 L 28.087,4.576 h -2.329" /></g></g></g></g></svg>