<svg xmlns="http://www.w3.org/2000/svg" viewBox="0 0 24.01 19.97"><defs><style>.cls-1{fill:#2980b7;}</style></defs><title>Ativo 51</title><g id="Camada_2" data-name="Camada 2"><g id="Camada_1-2" data-name="Camada 1"><path class="cls-1" d="M23.63,2.32A9.51,9.51,0,0,1,22,2.88,5.16,5.16,0,0,0,23.34.71h0a.27.27,0,0,0-.4-.32h0a9.55,9.55,0,0,1-2.53,1l-.16,0a.67.67,0,0,1-.44-.17A5.18,5.18,0,0,0,16.38,0a5.54,5.54,0,0,0-1.64.25,5,5,0,0,0-3.38,3.61,5.52,5.52,0,0,0-.12,1.91.19.19,0,0,1,0,.15.19.19,0,0,1-.14.06h0A13.57,13.57,0,0,1,1.7,1h0a.27.27,0,0,0-.44,0h0A5.18,5.18,0,0,0,2.1,7.33,4.64,4.64,0,0,1,.92,6.87h0a.27.27,0,0,0-.4.23h0a5.18,5.18,0,0,0,3,4.78H3.43a4.66,4.66,0,0,1-.87-.08h0a.27.27,0,0,0-.31.35h0a5.19,5.19,0,0,0,4.1,3.53A9.55,9.55,0,0,1,1,17.3H.4a.4.4,0,0,0-.39.3.41.41,0,0,0,.2.45A14.21,14.21,0,0,0,7.35,20a14.4,14.4,0,0,0,6.1-1.29,13.47,13.47,0,0,0,4.46-3.35,14.67,14.67,0,0,0,2.73-4.58,14.46,14.46,0,0,0,.93-5V5.67A.88.88,0,0,1,21.91,5,10.23,10.23,0,0,0,24,2.72h0a.27.27,0,0,0-.33-.4Z"/></g></g></svg>