<svg xmlns="http://www.w3.org/2000/svg" viewBox="0 0 53.24 16.09"><defs><style>.cls-1{fill:#2980b7;}</style></defs><title>Ativo 19</title><g id="Camada_2" data-name="Camada 2"><g id="Camada_1-2" data-name="Camada 1"><path class="cls-1" d="M44.2,15.84H40a.25.25,0,0,1-.26-.15l-2.68-5L37,10.47h0c0,.05,0,.11,0,.16q0,2.51,0,5c0,.19,0,.19-.19.19H33.46c-.13,0-.16,0-.16-.16q0-7.63,0-15.26c0-.13,0-.16.17-.16h3.27c.13,0,.16,0,.16.17q0,4.49,0,9v.17l0,0,.11-.14,2.82-4.27A.29.29,0,0,1,40.15,5h3.74l-.09.13-3.44,4.7a.19.19,0,0,0,0,.27L44.1,15.7Z"/><path class="cls-1" d="M8.16,2.72c-.3,0-.58-.1-.87-.11a2.41,2.41,0,0,0-.68,0,1,1,0,0,0-.76.81,4.1,4.1,0,0,0-.11.73c0,.22,0,.43,0,.65s0,.18.17.18H8.11c.19,0,.19,0,.19.19,0,.75,0,1.49,0,2.24,0,.13,0,.17-.17.17H5.93c-.2,0-.2,0-.2.19q0,3.93,0,7.85c0,.18,0,.18-.18.18H2.32c-.17,0-.17,0-.17-.18q0-3.9,0-7.8c0-.25,0-.25-.25-.25H.15C0,7.62,0,7.59,0,7.47Q0,6.32,0,5.18C0,5.06,0,5,.15,5H2c.13,0,.17,0,.17-.17,0-.45,0-.9,0-1.34A4.47,4.47,0,0,1,2.73,1.7a3,3,0,0,1,2-1.49A6.43,6.43,0,0,1,6.81,0c.48,0,1,.11,1.45.17.08,0,.12,0,.12.14,0,.37-.06.75-.09,1.12s-.07.76-.1,1.14C8.18,2.63,8.17,2.68,8.16,2.72Z"/><path class="cls-1" d="M31.42,8a9.06,9.06,0,0,0-.85-.36,3.56,3.56,0,0,0-2.4,0,2.57,2.57,0,0,0-1.62,1.9A3,3,0,0,0,26.84,12a2.81,2.81,0,0,0,2,1.36,4.6,4.6,0,0,0,2.69-.4l.1,0c0,.27,0,.52,0,.78,0,.59,0,1.18.06,1.77a.21.21,0,0,1-.17.25,8.84,8.84,0,0,1-2,.37,10.72,10.72,0,0,1-1.34,0,6,6,0,0,1-4.12-1.8,5.12,5.12,0,0,1-1.31-2.71,6.33,6.33,0,0,1-.07-1.67A5.18,5.18,0,0,1,26.2,5.24a6.45,6.45,0,0,1,1.95-.43A7.26,7.26,0,0,1,31,5.1c.19.07.38.15.57.23s.08.06.08.14c0,.43-.08.85-.12,1.28S31.47,7.62,31.42,8Z"/><path class="cls-1" d="M10.22,8q0-3.81,0-7.61c0-.18,0-.18.18-.18h3.25c.13,0,.17,0,.17.17q0,7.63,0,15.26c0,.13,0,.16-.17.16H10.39c-.14,0-.17,0-.17-.17Q10.23,11.86,10.22,8Z"/><path class="cls-1" d="M45.6,15.85V5h3.12c.13,0,.15,0,.15.16,0,.56,0,1.12,0,1.68,0,.05,0,.1,0,.15h0L49,6.89c.19-.31.35-.64.56-.93a2.87,2.87,0,0,1,2.51-1.19c.38,0,.77.06,1.17.09l-.18,3.08c-.39,0-.78-.06-1.17-.07a2.38,2.38,0,0,0-1.75.61,2.9,2.9,0,0,0-.8,1.47,5.88,5.88,0,0,0-.15,1.44q0,2.14,0,4.27c0,.18,0,.18-.18.18H45.6Z"/><path class="cls-1" d="M20.53,10.44q0,2.61,0,5.23c0,.18,0,.18-.17.18H17.11c-.13,0-.16,0-.16-.17q0-5.24,0-10.49c0-.13,0-.17.17-.17h3.25c.14,0,.17,0,.17.17Q20.53,7.82,20.53,10.44Z"/><path class="cls-1" d="M18.75.5H20.4c.1,0,.14,0,.14.13q0,1.23,0,2.46c0,.11,0,.13-.14.13H17.09c-.1,0-.13,0-.13-.13q0-1.24,0-2.47c0-.1,0-.13.13-.13Z"/></g></g></svg>