<svg xmlns="http://www.w3.org/2000/svg" viewBox="0 0 20 20"><defs><style>.cls-1{fill:#2980b7;}</style></defs><title>Ativo 53</title><g id="Camada_2" data-name="Camada 2"><g id="Camada_1-2" data-name="Camada 1"><g id="_Grupo_" data-name="&lt;Grupo&gt;"><path id="_Caminho_composto_" data-name="&lt;Caminho composto&gt;" class="cls-1" d="M14,0H6A6,6,0,0,0,0,6V14a6,6,0,0,0,6,6H14a6,6,0,0,0,6-6V6A6,6,0,0,0,14,0ZM18,14A4,4,0,0,1,14,18H6A4,4,0,0,1,2,14V6A4,4,0,0,1,6,2H14A4,4,0,0,1,18,6V14Z"/><path id="_Caminho_composto_2" data-name="&lt;Caminho composto&gt;" class="cls-1" d="M10,4.83A5.17,5.17,0,1,0,15.17,10,5.18,5.18,0,0,0,10,4.83Zm0,8.33A3.16,3.16,0,1,1,13.16,10,3.16,3.16,0,0,1,10,13.16Z"/><circle id="_Caminho_" data-name="&lt;Caminho&gt;" class="cls-1" cx="15.18" cy="4.87" r="1.24"/></g></g></g></svg>