<svg xmlns="http://www.w3.org/2000/svg" viewBox="0 0 19.94 19.94"><defs><style>.cls-1{fill:#2980b7;}</style></defs><title>Ativo 50</title><g id="Camada_2" data-name="Camada 2"><g id="Camada_1-2" data-name="Camada 1"><path class="cls-1" d="M17.25,0H2.69A2.69,2.69,0,0,0,0,2.69V17.25a2.69,2.69,0,0,0,2.69,2.69H9.87V12.81H8a.44.44,0,0,1-.44-.44v-2.3A.44.44,0,0,1,8,9.64H9.87V7.42a3.63,3.63,0,0,1,3.87-4h1.88a.44.44,0,0,1,.44.44V5.82a.44.44,0,0,1-.44.44H14.47c-1.25,0-1.49.59-1.49,1.46V9.64h2.75a.44.44,0,0,1,.43.49l-.27,2.3a.44.44,0,0,1-.43.39H13v7.12h4.27a2.69,2.69,0,0,0,2.69-2.69V2.69A2.69,2.69,0,0,0,17.25,0Z"/></g></g></svg>