<svg xmlns="http://www.w3.org/2000/svg" viewBox="0 0 46.75 61.95"><defs><style>.cls-1{fill:#0055a3;fill-rule:evenodd;}</style></defs><title>Ativo 47</title><g id="Camada_2" data-name="Camada 2"><g id="Camada_1-2" data-name="Camada 1"><path class="cls-1" d="M33.13,49.84H38l1.9,7.37,1.89-7.37h4.91V61.95H43.69V52.71l-2.37,9.23H38.55l-2.36-9.23v9.23H33.13M20.94,49.84H31v2.59H24.69v1.93h5.82v2.47H24.69V59.2h6.46v2.74H20.94Zm-14.06,0h3.5l4.56,6.7v-6.7h3.53V61.95H14.94L10.4,55.3v6.65H6.88Zm-6.46,0H4.17V61.95H.42Z"/><path class="cls-1" d="M23.22,39.63a3.66,3.66,0,0,0,.35-.6L23.5,42M23.23,32a1.25,1.25,0,0,1,.47-.58l-.15,4.22-.22-.39ZM24.07,27c-.06.65-.08,1.26-.14,1.92a6.23,6.23,0,0,1-1.57,2.76,2.66,2.66,0,0,0,0,3.17c1.66,2.21,1.43,2.64.91,4.42A3.61,3.61,0,0,0,23.78,37a13.55,13.55,0,0,0-1.08-2.58,3.18,3.18,0,0,1,.54-2.89c1.51-1.39,2.22-2.25,1.58-3.61Zm-1.12-3.9a4.58,4.58,0,0,1,1-1.39l-.15,4.89c0,.79-.1,1.58-.2,2.36A2.45,2.45,0,0,1,23.14,30Q23,26.54,22.95,23.05Zm1.47-7.54-.08,2.64C24.19,19.49,23,21,21.52,22.45a2.34,2.34,0,0,0,.08,3.45L22.79,27l-.08-1.75a2.37,2.37,0,0,1,.16-2.72c.88-1.29,2.4-2.45,3-3.85C26.2,17.65,25.61,16.57,24.41,15.52Zm-2-6.73a3.58,3.58,0,0,0,1.9-.08L24,18.28a5.6,5.6,0,0,1-1.19,2.26ZM23.6,7.73c0-1.21-1.42-.13-.32,0Zm-1.87.43a3,3,0,0,0,2.85.18C24,6.87,23,6,21.3,6.46c-1.55.51-2.43,1.67-2.62,3.7-.23,2.44,1.51,4.26,3.74,6l-.13-2.77a5.47,5.47,0,0,1-1.77-3.2A2.45,2.45,0,0,1,21.73,8.16Zm.65-2.07q0-.58,0-1.15a1,1,0,1,1,2.06,0c0,.81,0,1.64,0,2.45A2.68,2.68,0,0,0,22.38,6.09ZM16.55,0H29.93V11.35l9.89-5.72L46.58,17l-9.93,5.72,10,5.69L39.91,39.83l-10-5.54v11.2H16.61V34.16l-9.9,5.69L0,28.48l9.89-5.72L0,17.06,6.69,5.63l9.86,5.62Z"/><path class="cls-1" d="M34,42.2h.41a.67.67,0,0,0,.4-.09.3.3,0,0,0,.06-.4.31.31,0,0,0-.14-.11,1.06,1.06,0,0,0-.34,0H34m-.34,1.83V41.28h.73a1.78,1.78,0,0,1,.54.06.53.53,0,0,1,.27.2.54.54,0,0,1,.1.31.56.56,0,0,1-.17.4.65.65,0,0,1-.44.19.57.57,0,0,1,.18.11,2.43,2.43,0,0,1,.31.42l.26.41H35l-.19-.33a1.71,1.71,0,0,0-.36-.49.44.44,0,0,0-.27-.07H34v.9Zm.86-2.73a1.67,1.67,0,0,0-.81.21,1.52,1.52,0,0,0-.61.61,1.64,1.64,0,0,0,0,1.64,1.54,1.54,0,0,0,.61.61,1.63,1.63,0,0,0,1.63,0,1.53,1.53,0,0,0,.61-.61,1.64,1.64,0,0,0,0-1.64,1.51,1.51,0,0,0-.61-.61A1.68,1.68,0,0,0,34.52,40.66Zm0-.33a2,2,0,0,1,1,.25,1.81,1.81,0,0,1,.73.73,2,2,0,0,1,.26,1,2,2,0,0,1-.26,1,1.82,1.82,0,0,1-.73.73,2,2,0,0,1-2,0,1.82,1.82,0,0,1-.73-.73,2,2,0,0,1-.26-1,2,2,0,0,1,.26-1,1.81,1.81,0,0,1,.74-.73A2,2,0,0,1,34.52,40.34Z"/></g></g></svg>