<?xml version="1.0" encoding="utf-8"?>
<!-- Generator: Adobe Illustrator 19.2.0, SVG Export Plug-In . SVG Version: 6.00 Build 0)  -->
<svg version="1.1" id="Layer_1" xmlns="http://www.w3.org/2000/svg" xmlns:xlink="http://www.w3.org/1999/xlink" x="0px" y="0px"
	 viewBox="0 0 120 50" style="enable-background:new 0 0 120 50;" xml:space="preserve">
<style type="text/css">
	.st0{fill:none;stroke:#373737;}
	.st1{fill:#006420;}
	.st2{fill:#FF1D21;}
	.st3{fill:#00B725;}
	.st4{fill:#FFAD00;}
	.st5{fill:#FFF600;}
	.st6{fill-rule:evenodd;clip-rule:evenodd;fill:#FFF600;}
	.st7{fill:#FFFFFF;}
	.st8{fill-rule:evenodd;clip-rule:evenodd;fill:#FFFFFF;}
	.st9{fill:#004288;}
	.st10{fill:#373737;}
</style>
<g>
	<line class="st0" x1="33.4" y1="35.6" x2="116.2" y2="35.6"/>
	<g>
		<path class="st1" d="M12.9,4.9c-6.3,2-9.5,7.4-9.5,15.7v12.5c0,0,1.1-8.1,9.5-10.4V4.9z"/>
		<path class="st2" d="M13.6,7.3c0,0,4.8-1.8,11.6-2.2c0,0,0,5.7-0.2,10.3C24.5,30.1,11.4,22.6,5,30.3c1.3-3.4,5.7-5.8,8.7-6.4V7.3z
			"/>
		<path class="st1" d="M11.9,28.2c0,0-7,0.6-7.6,4.5c-0.5,3.1,7.6,3.2,7.6,3.2V28.2z"/>
		<path class="st3" d="M3.7,16.5c1.4-3.4,3.9-6.8,9.2-9V4.9C7.7,6.6,4.6,10.6,3.7,16.5z"/>
		<g>
			<path class="st4" d="M8,12.9L8,12.9C8,12.9,8,12.9,8,12.9C8,12.9,8,12.9,8,12.9C8,12.9,8,12.9,8,12.9L8,12.9
				C8,12.9,8,12.9,8,12.9C8,12.9,8,12.9,8,12.9C8,12.9,8,12.9,8,12.9L8,12.9C8,12.9,8,12.9,8,12.9L8,12.9L8,12.9c0.1,0,0.1,0,0.2,0
				h0c0,0,0.1,0,0.1,0l0,0l0,0c0,0,0,0,0,0c0,0,0,0,0,0c0,0,0,0,0.1,0l0,0c0,0,0,0,0,0l0,0c0,0,0,0,0.1,0l0,0c0,0,0,0,0,0h0
				c0,0,0,0,0.1,0l0,0c0.1,0,0.2,0,0.3,0.1l0,0l0,0c0,0,0,0,0,0c0,0,0,0,0,0c0,0,0,0,0,0c0,0,0,0,0,0c0,0,0.1,0,0.1,0c0,0,0,0,0,0
				c0,0,0,0,0,0c0,0,0,0,0,0c0,0,0,0,0,0c0,0,0,0,0,0c0,0,0,0,0,0c0,0,0,0,0,0c0,0,0,0,0,0c0,0,0,0,0,0c0,0,0,0,0,0c0,0,0,0,0,0
				c0,0,0,0,0,0c0,0,0,0,0,0c0,0,0,0,0,0c0,0,0,0,0,0c0,0,0,0,0,0c0,0,0,0,0,0V13v-0.2c-0.1,0-0.1,0-0.2,0c0,0-0.1,0-0.1,0l0,0
				c0,0,0,0,0,0c0,0,0,0,0,0c0,0,0,0,0,0c0,0,0,0,0,0c0,0,0,0,0,0c0,0,0,0,0,0c0,0,0,0,0,0c-0.1,0-0.2-0.1-0.3-0.1c0,0,0,0,0,0
				c0,0,0,0,0,0c0,0,0,0,0,0c0,0,0,0,0,0c0,0,0,0,0,0c0,0,0,0,0,0l0,0c0,0,0,0,0,0c0,0,0,0,0,0c0,0,0,0,0,0c0,0,0,0,0,0c0,0,0,0,0,0
				c0,0,0,0,0,0c0,0,0,0,0,0l0,0c0,0,0.1,0,0.1,0v0c0,0,0,0,0,0h0c0.2-0.1,0.4-0.1,0.6-0.1v-0.2c0,0,0,0,0,0c0,0,0,0,0,0v-0.2
				c-0.1,0.1-0.2,0.2-0.3,0.3c-0.2,0.1-0.5,0.1-0.6,0.2c1-1.4,2.6-2.3,4.4-2.4l0-0.2c-1.9,0.1-3.7,1.1-4.7,2.6c-0.1,0-0.2,0-0.2,0.1
				c0,0,0,0,0,0l-0.1,0.2c0,0,0,0,0,0.1C7.9,13,7.9,12.9,8,12.9z M8.3,12.7C8.3,12.7,8.3,12.7,8.3,12.7C8.3,12.7,8.3,12.7,8.3,12.7
				L8.3,12.7z M12.8,10.8c-1.1,0.1-2,0.5-2.8,1.1H9.7c0.9-0.7,1.9-1.2,3.1-1.3L12.8,10.8z M7.4,13.9c0,0,0-0.1,0-0.1l0.1-0.1
				c0,0,0,0,0,0c0,0,0.1,0,0.1,0c0,0,0,0,0,0c0,0,0,0,0,0l0,0c0,0,0,0,0,0c0,0,0.1,0,0.1,0l0,0c0.1,0,0.2,0,0.4,0.1c0,0,0.1,0,0.2,0
				l0,0c0,0,0,0,0.1,0l0,0c0,0,0,0,0,0l0,0c0,0,0,0,0,0l0,0c0,0,0,0,0,0c0,0,0,0,0,0c0,0,0,0,0,0h0c0,0,0,0,0,0h0c0,0,0,0,0,0l0,0
				c0,0,0,0,0,0h0c0,0,0,0,0,0h0c0,0,0,0,0,0c0,0,0,0,0,0c0,0,0,0,0,0c0,0,0,0,0,0c0,0,0,0,0,0c0,0,0,0,0,0c0,0,0,0,0,0c0,0,0,0,0,0
				c0,0,0,0,0,0c0,0,0,0,0,0c0,0,0,0,0,0c0,0,0,0,0,0c0,0,0,0,0,0c0,0,0,0,0,0c0,0,0,0,0,0c0,0,0,0,0,0c0,0,0,0,0,0c0,0,0,0,0,0
				c0,0,0,0,0,0c0,0,0,0,0,0c0,0,0,0,0,0c0,0,0,0,0,0c0,0,0,0,0,0c0,0,0,0,0,0c0,0,0,0,0,0c0,0,0,0,0,0c0,0,0,0,0,0c0,0,0,0,0,0
				c0,0,0,0,0,0c0,0,0,0,0,0c0,0,0,0,0,0c0,0,0,0,0,0c0,0,0,0,0,0c0,0,0,0,0,0c0,0,0,0,0,0c0,0,0,0,0,0c0,0,0,0,0,0c0,0,0,0,0,0
				c0,0,0,0,0,0c0,0,0,0,0,0c0,0,0,0,0,0c0,0,0,0,0,0c0,0,0,0,0,0v0.2c-0.4-0.2-0.8-0.3-1.1-0.4l0,0l0,0c-0.1,0-0.1,0-0.2,0h0
				c-0.1,0-0.3-0.1-0.4-0.1c0,0,0,0,0,0c0,0,0,0,0,0c0,0,0,0,0,0c0,0,0,0,0,0c0,0,0,0,0,0c0,0,0,0,0,0c0,0,0,0,0,0c0,0,0,0,0,0
				c0,0,0,0,0,0c0,0,0,0,0,0c0,0,0,0,0,0c0,0,0,0,0,0c0,0,0,0,0,0c0,0,0,0,0,0c0,0,0,0-0.1,0l0,0C7.5,13.8,7.4,13.8,7.4,13.9z
				 M9.3,20.3c0.9,0.9,2.1,1.5,3.5,1.6l0,0.2c-1.7-0.1-3.2-1-4.2-2.4c0.1,0,0.2,0,0.2,0C9,19.9,9.1,20.1,9.3,20.3
				C9.3,20.3,9.3,20.3,9.3,20.3L9.3,20.3z M13.5,10.1L13.5,10.1L13.5,10.1c0-0.1,0-0.1,0-0.1c0,0,0,0,0,0h0.1c0,0,0,0,0,0v0.1
				c2,0.1,3.7,1.1,4.8,2.7c0.1,0,0.1,0.1,0.2,0.1c0,0,0,0,0,0c0,0,0.1,0.2,0.1,0.2c0,0,0,0.1,0,0.1c0,0,0,0,0-0.1c0,0,0,0-0.1,0l0,0
				l0,0c0,0,0,0,0,0l0,0c0,0,0,0,0,0l0,0c-0.1,0-0.2-0.1-0.3-0.1l0,0l0,0c0,0,0,0,0,0c0,0,0,0,0,0c0,0,0,0,0,0c0,0,0,0,0,0
				c0,0,0,0,0,0l0,0c0,0,0,0,0,0c0,0,0,0,0,0c0,0,0,0,0,0l0,0c0,0,0,0,0,0c0,0,0,0,0,0c0,0,0,0,0,0c0,0,0,0,0,0c0,0,0,0-0.1,0
				c0,0,0,0,0,0c0,0,0,0,0,0h0c0,0,0,0,0,0h0c0,0,0,0,0,0c0,0,0,0,0,0c0,0,0,0,0,0l0,0c0,0,0,0,0,0c0,0,0,0,0,0c0,0,0,0,0,0
				c0,0,0,0,0,0c-0.1,0-0.2-0.1-0.3-0.1l0,0l0,0c0,0,0,0-0.1,0l0,0c0,0,0,0-0.1,0l0,0c0,0,0,0-0.1,0c0,0,0,0,0,0c0,0,0,0-0.1,0h0
				v-0.2l0,0v-0.2c0.1,0.1,0.2,0.2,0.3,0.3c0.2,0.1,0.5,0.1,0.6,0.2c-1.1-1.4-2.7-2.3-4.5-2.4v0.4c1.2,0.1,2.4,0.5,3.3,1.3h-0.3
				c-0.9-0.6-1.9-1-3-1.1v1.1h-0.2v-1.1v-0.2v-0.4V10.1z M18.8,13.3c0.1,0,0.1,0.1,0.1,0.1c0,0,0.1,0.1,0.1,0.2c0,0,0,0.1,0,0.1
				c0,0,0,0,0-0.1c0,0,0,0-0.1,0l0,0c0,0,0,0,0,0c-0.2-0.1-0.4-0.2-0.7-0.3v0c-0.1,0-0.2,0-0.2-0.1v0c-0.2-0.1-0.5-0.1-0.7-0.2v-0.2
				c0,0,0.1,0,0.1,0c0,0,0,0,0,0c0,0,0,0,0,0c0,0,0,0,0,0c0,0,0,0,0,0c0,0,0,0,0,0c0,0,0,0,0,0c0,0,0,0,0,0c0,0,0,0,0,0c0,0,0,0,0,0
				c0,0,0,0,0,0c0,0,0,0,0,0c0,0,0,0,0,0c0,0,0,0,0,0c0,0,0,0,0,0c0,0,0,0,0,0c0,0,0,0,0,0c0,0,0,0,0,0c0,0,0,0,0,0c0,0,0,0,0,0
				c0,0,0,0,0,0c0,0,0,0,0,0c0,0,0,0,0,0c0,0,0,0,0,0c0,0,0,0,0,0c0,0,0,0,0,0c0,0,0,0,0,0c0,0,0,0,0,0c0.1,0,0.2,0,0.2,0.1
				c0,0,0,0,0,0l0,0c0,0,0.1,0,0.1,0l0,0c0,0,0.1,0,0.1,0l0,0c0.1,0,0.2,0.1,0.3,0.1l0,0C18.6,13.3,18.7,13.3,18.8,13.3
				C18.8,13.3,18.8,13.3,18.8,13.3L18.8,13.3z M12.9,10.1C12.9,10.1,12.9,10.1,12.9,10.1C12.9,10.1,12.9,10.1,12.9,10.1z M6.9,16.2
				V16c0,0,0,0,0,0c0,0,0-0.1,0.1-0.1c0-0.7,0.2-1.3,0.4-1.9c0,0,0,0,0,0c0,0,0,0,0,0c0,0,0,0,0,0v0c0,0,0,0,0-0.1c0,0,0,0,0,0
				c0,0,0.1,0,0.2,0.1c-0.3,0.6-0.4,1.2-0.5,1.9c0.1-0.1,0.2-0.1,0.4-0.2c0.1-0.5,0.2-1,0.4-1.5c0,0,0.1,0.1,0.1,0.1
				C8,14.3,8,14.4,8,14.5c0,0,0,0,0,0c-0.1,0.3-0.2,0.7-0.3,1.1c0.4-0.1,0.9-0.3,1.4-0.4c0.1,0,0.1,0,0.2,0v0.2c-0.1,0-0.1,0-0.2,0
				c0,0,0,0,0,0h0c0,0,0,0,0,0c0,0,0,0,0,0c0,0,0,0,0,0h0c0,0,0,0,0,0h0c0,0,0,0,0,0c0,0,0,0,0,0c0,0,0,0,0,0c0,0,0,0,0,0
				c0,0,0,0,0,0c0,0,0,0,0,0c0,0,0,0,0,0h0c0,0,0,0,0,0h0c0,0,0,0,0,0c0,0,0,0,0,0c0,0,0,0,0,0l0,0c0,0,0,0,0,0c0,0,0,0,0,0
				c0,0,0,0,0,0c0,0,0,0,0,0c0,0,0,0,0,0l0,0c0,0,0,0,0,0h0c0,0,0,0,0,0c0,0,0,0,0,0c0,0,0,0,0,0c0,0,0,0,0,0c0,0-0.1,0-0.1,0l0,0
				c0,0,0,0,0,0h0c0,0,0,0,0,0c0,0,0,0,0,0c0,0,0,0,0,0l0,0c0,0,0,0,0,0h0c0,0,0,0,0,0c0,0,0,0,0,0c0,0-0.1,0-0.1,0h0c0,0,0,0,0,0h0
				c0,0,0,0,0,0c0,0,0,0,0,0c0,0-0.1,0-0.1,0l0,0c0,0,0,0,0,0c0,0,0,0,0,0c0,0,0,0,0,0l0,0l0,0c-0.1,0-0.1,0-0.2,0.1l0,0l0,0
				c0,0,0,0,0,0c0,0,0,0,0,0c0,0,0,0,0,0c0,0,0,0,0,0c0,0,0,0,0,0h0c0,0,0,0,0,0c0,0,0,0,0,0c0,0,0,0,0,0l0,0c0,0,0,0,0,0l0,0
				c0,0,0,0,0,0l0,0c0,0,0,0,0,0h0c0,0,0,0,0,0h0c0,0,0,0,0,0h0c0,0,0,0,0,0l0,0c0,0,0,0,0,0c0,0,0,0,0,0c0,0,0,0,0,0l0,0l0,0
				C7.1,16,7,16.1,6.9,16.2C7,16.1,7,16.1,6.9,16.2L6.9,16.2C7,16.2,6.9,16.2,6.9,16.2C6.9,16.2,6.9,16.2,6.9,16.2z M12.9,10.6v-0.4
				v-0.2V10c0,0,0,0,0,0h0.1c0,0,0,0,0,0V10v0v0.2v0.4v0.2v1.1l-0.2,0V10.6z M18.4,20.1C18.4,20.1,18.4,20.2,18.4,20.1
				c0,0.1-0.1,0.2-0.1,0.2c0,0-0.1,0.1-0.1,0.1c0,0,0.1,0,0.1-0.2l0,0l0,0c0,0,0,0,0,0c0,0,0-0.1-0.1-0.1h0
				c-0.1-0.1-0.1-0.2-0.2-0.3l0,0c0,0-0.1-0.1-0.1-0.1l0,0c-0.2-0.2-0.6-0.5-1-0.8c0-0.1,0.1-0.1,0.1-0.2l0,0l0,0
				c0.5,0.4,0.9,0.7,1.2,1l0,0c0,0,0,0,0.1,0.1c0,0,0,0,0,0c0,0,0,0,0,0c0,0,0,0,0,0c0,0,0,0,0,0c0,0,0,0,0,0c0,0,0,0,0,0
				c0,0,0,0,0,0c0,0,0,0,0,0c0,0,0,0,0,0c0,0,0,0,0,0c0,0,0,0,0,0c0,0,0,0,0,0v0c0,0,0,0,0,0l0,0c0,0,0,0,0,0c0,0,0,0,0,0
				c0,0,0,0,0,0c0,0,0,0,0,0C18.3,19.9,18.4,20,18.4,20.1C18.4,20,18.4,20.1,18.4,20.1L18.4,20.1L18.4,20.1
				C18.4,20.1,18.4,20.1,18.4,20.1C18.4,20.1,18.4,20.1,18.4,20.1z M18.2,20.3C18.2,20.3,18.2,20.3,18.2,20.3L18.2,20.3
				c-0.1,0.1-0.1,0.1-0.1,0.1c-1.1,1.3-2.7,2.2-4.5,2.3v0.1c0,0,0,0,0,0c0,0,0,0,0,0h-0.1c0,0,0,0,0,0v0v-0.1v-0.2v-0.4V22V21
				c0.1,0,0.1,0,0.2,0V22c1.4-0.1,2.7-0.7,3.6-1.6l0,0c0,0,0,0,0,0c0,0,0,0,0,0c0,0,0,0,0,0c0.1-0.1,0.2-0.2,0.3-0.4
				c0.1,0,0.1,0,0.2,0.1c-1,1.2-2.5,2-4.1,2.1v0.4c1.8-0.1,3.4-1,4.5-2.3C18.2,20.2,18.2,20.2,18.2,20.3z M19.6,16.8
				C19.6,16.8,19.6,16.8,19.6,16.8L19.6,16.8c-0.1,0.9-0.3,1.7-0.6,2.4c0,0.1,0.1,0.2,0,0.2c0,0-0.1,0.1-0.1,0.1c0,0,0,0.1-0.1,0.1
				c0,0,0.1-0.1,0.1-0.2l0,0c0,0,0,0,0,0h0l0,0c0,0,0-0.1,0-0.1c0-0.1-0.1-0.1-0.2-0.2h0c0,0,0,0,0,0c0,0,0,0,0,0c0,0,0,0,0,0v0
				c-0.1-0.1-0.2-0.2-0.3-0.3c0,0,0,0,0,0c0,0,0,0,0,0c0,0,0,0,0,0c0,0-0.1-0.1-0.1-0.1c0,0,0,0,0,0c0,0,0,0,0,0c0,0,0,0,0,0
				c0,0-0.1-0.1-0.1-0.1c0,0,0,0,0,0c0,0,0,0,0,0c0,0,0,0,0,0c0,0-0.1-0.1-0.1-0.1c0,0,0,0,0,0c0,0,0,0,0,0c0,0,0,0,0,0c0,0,0,0,0,0
				v0c0,0,0,0-0.1-0.1c0,0,0,0,0,0c0,0,0,0,0,0c0,0,0,0,0,0c0,0,0,0,0,0c0,0,0,0,0,0c0,0,0,0,0,0l0,0c0,0,0,0,0,0c0,0,0,0,0,0
				c0,0,0,0,0,0c0,0,0,0,0,0c0,0,0,0,0,0c0,0,0,0,0,0c0,0,0,0,0,0c0,0,0,0,0,0c0,0,0,0,0,0c0,0,0,0,0,0c0,0,0,0,0,0c0,0,0,0,0,0
				c0,0,0,0,0,0c0,0,0,0,0,0c0,0,0,0,0,0c0,0,0,0,0,0c0,0,0,0,0,0c0,0,0,0,0,0c0,0,0,0,0,0c0,0,0,0,0,0c0,0,0,0,0,0c0,0,0,0,0,0
				c0,0,0,0,0,0c0-0.1,0-0.1,0-0.2c0.5,0.4,0.9,0.7,1.3,1c0.2-0.5,0.3-0.9,0.4-1.4l0,0c0,0,0,0,0,0v0c0,0,0,0,0-0.1v0c0,0,0,0,0-0.1
				c0,0,0,0,0,0c0,0,0,0,0,0c0,0,0,0,0,0c0,0,0,0,0,0c0,0,0,0,0,0c0,0,0,0,0,0c0,0,0,0,0,0c0,0,0,0,0-0.1c0,0,0.1,0,0.2,0
				c0,0.7-0.2,1.4-0.5,2c0.1,0.1,0.2,0.2,0.3,0.3c0.3-0.7,0.5-1.5,0.6-2.3C19.5,16.7,19.5,16.7,19.6,16.8z M19.7,16L19.7,16v0.2
				c0,0,0,0,0,0c0,0,0-0.1,0-0.1l0,0l0,0C19.6,16.2,19.6,16.1,19.7,16C19.6,16.1,19.6,16.1,19.7,16c-0.1,0-0.2,0-0.3,0l0,0h0
				c0,0,0,0,0,0c0,0,0,0,0,0c0,0,0,0,0,0c0,0,0,0,0,0c0,0,0,0,0,0l0,0c0,0,0,0,0,0l0,0c0,0,0,0,0,0h0c0,0,0,0,0,0l0,0c0,0,0,0,0,0
				c0,0,0,0,0,0c0,0,0,0,0,0c0,0,0,0,0,0c0,0,0,0,0,0l0,0c0,0,0,0,0,0h0c0,0,0,0,0,0c0,0,0,0,0,0c0,0,0,0,0,0h0c0,0,0,0,0,0h0
				c0,0,0,0,0,0l0,0c0,0,0,0,0,0c0,0,0,0,0,0c-0.1,0-0.1-0.1-0.2-0.1l0,0l0,0c0,0,0,0,0,0c0,0,0,0,0,0c0,0,0,0,0,0c0,0,0,0,0,0
				c0,0,0,0,0,0h0c0,0,0,0,0,0h0c0,0,0,0,0,0l0,0c0,0,0,0,0,0c0,0,0,0,0,0c0,0-0.1,0-0.1,0c0,0,0,0,0,0c0,0,0,0,0,0c0,0,0,0,0,0
				c0,0,0,0,0,0h0c0,0,0,0,0,0h0c0,0,0,0,0,0c0,0,0,0,0,0c0,0,0,0,0,0c0,0,0,0,0,0c0,0-0.1,0-0.1,0c0,0,0,0,0,0c0,0,0,0,0,0
				c0,0,0,0,0,0c0,0,0,0,0,0h0c0,0,0,0,0,0l0,0c0,0,0,0,0,0l0,0c0,0,0,0,0,0c0,0,0,0,0,0c0,0,0,0,0,0l0,0c0,0,0,0,0,0c0,0,0,0,0,0
				c0,0,0,0,0,0c0,0,0,0,0,0c0,0,0,0,0,0c0,0,0,0,0,0c0,0,0,0,0,0h0c0,0,0,0,0,0c0,0,0,0,0,0c0,0,0,0,0,0c0,0,0,0,0,0c0,0,0,0,0,0h0
				c0,0,0,0,0,0h0c0,0,0,0,0,0c0,0,0,0,0,0c0,0,0,0,0,0h0c0,0,0,0,0,0c-0.1,0-0.1,0-0.2,0v-0.2c0.1,0,0.1,0,0.2,0
				c0.5,0.1,1,0.2,1.4,0.4c-0.1-0.6-0.3-1.2-0.5-1.7l0,0c-0.1-0.1-0.1-0.2-0.2-0.3c0,0,0,0,0,0c0,0,0,0,0,0c0,0,0.1,0,0.2,0
				c0.4,0.6,0.6,1.4,0.7,2.1c0.1,0.1,0.3,0.1,0.4,0.2c-0.1-0.8-0.3-1.6-0.7-2.3c0.1,0,0.1,0,0.2,0v0c0,0,0,0,0,0.1l0,0
				c0.3,0.7,0.5,1.5,0.6,2.3C19.6,16,19.6,16,19.7,16z M19.7,16.6L19.7,16.6v0.2c0,0,0,0,0,0.1c0,0,0-0.1,0-0.1
				C19.6,16.7,19.6,16.7,19.7,16.6L19.7,16.6c-0.1,0.1-0.1,0.1-0.1,0.1c0,0,0,0,0,0l0,0c0,0,0,0,0,0c0,0-0.1-0.1-0.1-0.1l0,0
				c-0.1-0.1-0.2-0.1-0.3-0.2l0,0c0,0,0,0,0,0c0,0-0.1,0-0.1,0c0,0,0,0,0,0c-0.4-0.2-1-0.3-1.5-0.4c-0.1,0-0.1,0-0.2,0v-0.2
				c0.1,0,0.1,0,0.2,0c0,0,0,0,0.1,0c0,0,0,0,0,0c0,0,0,0,0,0c0,0,0,0,0,0c0,0,0,0,0,0c0,0,0,0,0,0c0,0,0,0,0,0c0,0,0,0,0,0
				c0,0,0,0,0,0c0,0,0,0,0,0c0,0,0,0,0,0c0,0,0,0,0,0c0,0,0,0,0,0c0,0,0,0,0,0c0,0,0,0,0,0c0,0,0,0,0,0c0,0,0,0,0,0c0,0,0,0,0,0
				c0,0,0,0,0,0c0,0,0,0,0,0c0,0,0,0,0,0c0,0,0,0,0,0c0,0,0,0,0,0c0,0,0,0,0,0c0,0,0,0,0,0c0,0,0,0,0,0c0,0,0,0,0,0c0,0,0,0,0,0
				c0,0,0,0,0,0c0,0,0,0,0,0c0,0,0,0,0,0c0,0,0,0,0,0c0,0,0,0,0,0c0,0,0,0,0,0c0,0,0,0,0,0c0,0,0,0,0,0c0,0,0,0,0,0c0,0,0,0,0,0
				c0,0,0,0,0,0c0,0,0,0,0,0c0,0,0,0,0,0c0,0,0,0,0,0c0,0,0,0,0,0c0,0,0,0,0,0c0,0,0,0,0,0c0,0,0,0,0,0c0,0,0,0,0,0c0,0,0,0,0,0
				c0,0,0,0,0,0c0,0,0,0,0,0c0,0,0,0,0,0c0,0,0,0,0,0c0,0,0.1,0,0.1,0c0,0,0,0,0,0c0,0,0,0,0,0c0,0,0,0,0,0c0,0,0,0,0,0c0,0,0,0,0,0
				c0,0,0,0,0,0c0,0,0,0,0,0c0,0,0,0,0,0c0.1,0,0.1,0,0.2,0.1c0,0,0,0,0,0c0,0,0,0,0,0c0,0,0,0,0,0c0,0,0,0,0,0c0,0,0,0,0,0
				c0,0,0,0,0,0c0,0,0,0,0,0c0,0,0,0,0,0c0,0,0,0,0,0c0,0,0,0,0,0c0,0,0,0,0,0c0,0,0,0,0,0c0,0,0,0,0,0c0,0,0,0,0,0c0,0,0,0,0,0
				c0,0,0,0,0,0c0,0,0,0,0,0c0,0,0,0,0,0c0,0,0,0,0,0c0,0,0,0,0,0c0,0,0,0,0,0c0,0,0,0,0,0c0,0,0,0,0,0c0,0,0,0,0,0c0,0,0,0,0,0
				c0,0,0,0,0,0c0,0,0,0,0,0c0.1,0,0.1,0.1,0.2,0.1l0,0c0,0,0,0,0,0C19.6,16.5,19.6,16.6,19.7,16.6z M7,16.7L7,16.7
				C7,16.7,7,16.7,7,16.7c0,0.1-0.1,0.1,0,0.1C6.9,16.8,6.9,16.8,7,16.7L7,16.7C6.9,16.6,6.9,16.6,7,16.7c-0.1-0.1-0.1-0.2,0-0.2
				c0,0,0,0,0,0l0,0c0,0,0.1-0.1,0.2-0.1c0,0,0,0,0,0c0,0,0,0,0,0c0,0,0,0,0,0c0,0,0,0,0,0c0,0,0,0,0,0c0,0,0,0,0,0c0,0,0,0,0,0
				c0,0,0,0,0,0c0,0,0,0,0,0c0,0,0,0,0,0c0,0,0,0,0,0c0,0,0,0,0,0c0,0,0,0,0,0c0,0,0,0,0,0c0,0,0,0,0,0c0,0,0,0,0,0c0,0,0,0,0,0
				c0,0,0,0,0,0c0,0,0,0,0,0c0,0,0,0,0,0c0,0,0,0,0,0c0,0,0,0,0.1,0l0,0c0.1,0,0.1,0,0.2-0.1c0,0,0,0,0,0c0,0,0,0,0,0c0,0,0,0,0,0
				c0,0,0,0,0,0c0,0,0,0,0,0l0,0c0,0,0,0,0,0c0,0,0,0,0,0c0,0,0,0,0,0c0,0,0,0,0,0c0,0,0,0,0,0c0,0,0,0,0,0c0,0,0,0,0,0c0,0,0,0,0,0
				c0,0,0,0,0,0c0,0,0,0,0,0c0,0,0,0,0,0c0,0,0,0,0,0c0,0,0,0,0,0c0,0,0,0,0,0c0,0,0,0,0,0c0,0,0,0,0,0c0,0,0,0,0,0c0,0,0,0,0,0
				c0,0,0,0,0,0c0,0,0,0,0,0c0,0,0,0,0,0c0,0,0,0,0,0c0,0,0,0,0,0c0,0,0,0,0,0c0,0,0,0,0,0c0,0,0,0,0,0c0,0,0,0,0,0c0,0,0,0,0,0
				c0,0,0,0,0,0c0,0,0,0,0,0c0,0,0,0,0,0c0,0,0,0,0,0c0,0,0,0,0,0c0,0,0,0,0,0c0,0,0,0,0,0c0,0,0,0,0,0c0,0,0,0,0,0c0,0,0,0,0,0
				c0,0,0,0,0,0c0,0,0,0,0,0c0,0,0,0,0,0c0,0,0,0,0,0c0,0,0,0,0,0c0,0,0,0,0,0c0,0,0,0,0,0c0,0,0,0,0,0c0,0,0,0,0,0c0,0,0,0,0,0
				c0,0,0,0,0,0c0,0,0,0,0,0c0,0,0,0,0,0c0,0,0,0,0,0c0,0,0,0,0,0c0,0,0,0,0,0c0,0,0,0,0,0c0,0,0,0,0,0c0,0,0,0,0.1,0
				c0.1,0,0.1,0,0.2,0l0,0l0,0v0.2c-0.1,0-0.1,0-0.2,0c-0.5,0.1-1.1,0.2-1.5,0.4l0,0c-0.1,0-0.1,0-0.2,0.1l0,0
				c-0.1,0.1-0.3,0.1-0.4,0.2l0,0C7.1,16.6,7.1,16.6,7,16.7L7,16.7C7,16.7,7,16.7,7,16.7z M8,19.8C8,19.8,8,19.9,8,19.8
				C8,19.9,8,19.9,8,19.8c-0.1,0-0.1-0.1-0.1-0.1v0c0,0,0,0,0-0.1c0,0,0,0,0,0l0,0c0,0,0.1-0.1,0.1-0.1c0,0,0,0,0,0c0,0,0,0,0,0
				c0,0,0,0,0,0c0,0,0,0,0,0c0,0,0,0,0,0h0c0,0,0,0,0,0l0,0c0,0,0,0,0,0l0,0c0,0,0,0,0,0c0,0,0,0,0,0c0,0,0,0,0,0c0,0,0,0,0,0
				c0,0,0.1,0,0.1,0l0,0c0,0,0,0,0.1,0l0,0c0,0,0.1,0,0.2-0.1c0,0,0,0,0.1,0l0,0c0,0,0,0,0,0l0,0c0,0,0,0,0.1,0h0c0,0,0,0,0,0
				c0,0,0,0,0,0c0,0,0,0,0.1,0c0,0,0,0,0,0c0,0,0,0,0,0c0,0,0,0,0,0c0,0,0,0,0.1,0c0,0,0,0,0,0c0,0,0,0,0,0c0,0,0,0,0,0
				c0,0,0,0,0.1,0c0,0,0,0,0,0c0,0,0,0,0,0c0,0,0,0,0,0c0,0,0,0,0,0c0.3-0.1,0.5-0.1,0.7-0.2c0,0.1,0.1,0.1,0.1,0.2
				c-0.3,0.1-0.5,0.1-0.8,0.2C8.7,19.4,8.1,19.6,8,19.8z M7.7,19.4C7.7,19.4,7.7,19.4,7.7,19.4c-0.1,0-0.1-0.2-0.1-0.2c0,0,0,0,0,0
				c0,0,0-0.1,0-0.1c-0.4-0.7-0.6-1.6-0.7-2.4c0.1,0,0.1,0,0.2-0.1c0,0.8,0.3,1.6,0.6,2.4C7.9,19,8,19,8.1,18.9
				c-0.3-0.7-0.5-1.5-0.6-2.3c0.1,0,0.1,0,0.2,0c0,0.8,0.2,1.5,0.6,2.2c0.2-0.1,0.4-0.2,0.7-0.2c0.2-0.1,0.4-0.1,0.7-0.2
				c0,0.1,0,0.1,0.1,0.2c-0.2,0.1-0.5,0.1-0.7,0.2c0,0,0,0,0,0c0,0,0,0,0,0c0,0,0,0,0,0c0,0,0,0,0,0c0,0,0,0,0,0c0,0,0,0,0,0
				c0,0,0,0,0,0c0,0,0,0,0,0c0,0-0.1,0-0.1,0c0,0,0,0,0,0c0,0,0,0,0,0c0,0,0,0,0,0c0,0,0,0,0,0h0c0,0,0,0,0,0l0,0c0,0-0.1,0-0.1,0h0
				c-0.1,0-0.1,0-0.2,0.1l0,0l0,0c-0.1,0-0.1,0-0.2,0.1l0,0l0,0c0,0,0,0,0,0h0c0,0,0,0,0,0l0,0c0,0,0,0,0,0l0,0c0,0-0.1,0-0.1,0.1
				l0,0c0,0,0,0,0,0c0,0,0,0,0,0c0,0,0,0,0,0h0c0,0,0,0,0,0l0,0c0,0-0.1,0-0.1,0.1l0,0l0,0C7.8,19.3,7.8,19.3,7.7,19.4
				C7.7,19.3,7.7,19.3,7.7,19.4L7.7,19.4L7.7,19.4L7.7,19.4C7.7,19.4,7.7,19.4,7.7,19.4C7.7,19.4,7.7,19.4,7.7,19.4z M12.9,22.6
				L12.9,22.6c-2-0.1-3.7-1.2-4.8-2.7c0,0,0,0,0,0v0c0.1,0,0.1,0,0.2-0.1c1,1.5,2.7,2.5,4.6,2.7L12.9,22.6z M13.1,22.6L13.1,22.6
				L13.1,22.6c0,0.1,0,0.1,0,0.1h-0.1c0,0,0,0,0,0v-0.1v-0.2v-0.4V21c0.1,0,0.1,0,0.2,0V22v0.2v0.4V22.6z"/>
			<path class="st5" d="M8.4,12.6c1-1.4,2.6-2.3,4.4-2.4l-0.1,0.4c-1.2,0.1-2.3,0.6-3.1,1.3H9.3v0.3c-0.1,0.1-0.2,0.2-0.3,0.3
				C8.8,12.5,8.6,12.6,8.4,12.6z M18.7,13.6c-0.2,0-0.3,0-0.4,0c0.4,0.6,0.6,1.4,0.7,2.1c0.1,0.1,0.3,0.1,0.4,0.2
				C19.3,15,19.1,14.2,18.7,13.6z M13.6,10.6c1.2,0.1,2.4,0.5,3.3,1.3h0.3v0.3c0.1,0.1,0.2,0.2,0.3,0.3c0.2,0.1,0.5,0.1,0.6,0.2
				c-1.1-1.4-2.7-2.3-4.5-2.4V10.6z M8.6,19.7c-0.1,0-0.2,0-0.4,0.1c1,1.5,2.7,2.5,4.6,2.7l-0.1-0.4C11.1,22,9.6,21.1,8.6,19.7z
				 M13.6,22.1v0.4c1.8-0.1,3.4-1,4.5-2.3C18,20.1,17.9,20,17.8,20C16.8,21.2,15.3,22,13.6,22.1z M8.1,18.9
				c-0.3-0.7-0.5-1.5-0.6-2.3c-0.1,0-0.2,0-0.4,0.1c0,0.8,0.3,1.6,0.6,2.4C7.9,19,8,19,8.1,18.9z M18.6,18.7
				c0.1,0.1,0.2,0.2,0.3,0.3c0.3-0.7,0.5-1.5,0.6-2.3c-0.1,0-0.3-0.1-0.3-0.1C19,17.4,18.8,18,18.6,18.7z M7.5,15.6
				c0.1-0.5,0.2-1,0.4-1.5C7.8,14,7.7,14,7.6,13.9c-0.3,0.6-0.4,1.2-0.5,1.9C7.3,15.7,7.4,15.7,7.5,15.6z"/>
			<g>
				<path class="st5" d="M18.6,13c-0.3-0.2-0.9-0.4-1.4-0.5v0.3c0.7,0.1,1.3,0.3,1.6,0.5L18.6,13z"/>
				<path class="st5" d="M9,12.9c0.1,0,0.2,0,0.3-0.1v-0.3c-0.3,0.1-0.6,0.1-0.8,0.2C8.7,12.8,8.8,12.8,9,12.9z"/>
				<g>
					<g>
						<path class="st6" d="M9.3,15.3c-0.1,0-0.1,0-0.2,0c-0.9,0.2-1.9,0.5-2.2,0.8c0,0,0,0,0,0v0.3c0.3-0.2,1.1-0.6,2.2-0.8
							c0.1,0,0.1,0,0.2,0V15.3z"/>
						<path class="st6" d="M19.6,16.1c-0.3-0.3-1.3-0.6-2.2-0.8c-0.1,0-0.1,0-0.2,0v0.4c0.1,0,0.1,0,0.2,0c1.1,0.2,1.9,0.5,2.2,0.8
							L19.6,16.1C19.6,16.1,19.6,16.1,19.6,16.1z"/>
					</g>
					<path class="st6" d="M9.6,18.6c-0.2,0.1-0.5,0.1-0.7,0.2c-0.5,0.2-1.1,0.4-1.2,0.6c0,0,0,0,0,0l0.2,0.3
						c0.1-0.1,0.5-0.4,1.1-0.5c0.3-0.1,0.5-0.1,0.7-0.2C9.7,18.8,9.7,18.7,9.6,18.6z"/>
					<g>
						<rect x="13.1" y="10" class="st6" width="0.4" height="1.8"/>
						<path class="st6" d="M13.3,21c-0.1,0-0.1,0-0.2,0v1.7h0.4V21C13.4,21,13.3,21,13.3,21z"/>
					</g>
					<g>
						<path class="st6" d="M18.8,19.2c-0.2-0.4-0.9-0.9-1.6-1.5c-0.1,0.3-0.1,0.6-0.3,0.9c0.8,0.6,1.4,1.1,1.5,1.4l0.5-0.7
							C18.8,19.3,18.8,19.3,18.8,19.2z"/>
						<path class="st6" d="M9.3,13.2c-0.5-0.2-1-0.3-1.2-0.3h0c-0.1,0-0.1,0-0.2,0l-0.4,0.8c0,0,0,0,0,0c0.3,0,0.9,0.2,1.7,0.6
							L9.3,13.2z"/>
					</g>
				</g>
			</g>
			<path d="M17.2,13.4v0.7c0.4-0.1,0.8-0.2,1.1-0.3c-0.1-0.1-0.1-0.2-0.2-0.4c0.1,0,0.4,0,0.8,0.1v0c0,0,0,0,0,0.1c0,0,0,0,0,0
				c0,0,0,0,0,0c0,0,0,0,0-0.1c0,0,0,0-0.1,0l0,0c-0.2-0.1-0.6-0.2-1-0.3c0,0,0,0,0,0C17.7,13.3,17.5,13.4,17.2,13.4z M19.6,16.3
				C19.6,16.2,19.6,16.2,19.6,16.3L19.6,16.3C19.6,16.3,19.6,16.3,19.6,16.3C19.6,16.3,19.6,16.3,19.6,16.3z M18.7,13.1
				C18.8,13.1,18.8,13.1,18.7,13.1C18.7,13,18.7,13,18.6,13L18.7,13.1C18.7,13.2,18.7,13.1,18.7,13.1z M18.7,19.5
				C18.8,19.5,18.8,19.5,18.7,19.5C18.8,19.5,18.8,19.5,18.7,19.5c0.1,0,0.1-0.1,0.1-0.2L18.7,19.5z M19.6,16.7L19.6,16.7
				C19.6,16.7,19.6,16.7,19.6,16.7L19.6,16.7L19.6,16.7L19.6,16.7C19.6,16.7,19.6,16.7,19.6,16.7L19.6,16.7L19.6,16.7L19.6,16.7
				L19.6,16.7L19.6,16.7L19.6,16.7L19.6,16.7L19.6,16.7L19.6,16.7L19.6,16.7L19.6,16.7L19.6,16.7L19.6,16.7
				C19.6,16.7,19.6,16.7,19.6,16.7L19.6,16.7L19.6,16.7C19.6,16.7,19.6,16.7,19.6,16.7C19.6,16.7,19.6,16.7,19.6,16.7L19.6,16.7
				C19.6,16.7,19.6,16.7,19.6,16.7c-0.1-0.1-0.1-0.1-0.1-0.1c-0.1-0.1-0.3-0.2-0.5-0.3c0,0-0.1,0-0.1-0.1c0,0,0,0,0,0c0,0,0,0,0,0
				c-0.6,0.2-1.3,0.3-1.7,0.4v0.4c0,0.1,0,0.2,0,0.3c0.6-0.1,1.2-0.2,1.6-0.3c0-0.2,0-0.3,0-0.5C19,16.6,19.3,16.6,19.6,16.7
				c-0.1,0.1-0.1,0.1-0.1,0.1C19.6,16.8,19.6,16.8,19.6,16.7C19.6,16.8,19.6,16.8,19.6,16.7L19.6,16.7z M18.3,20.2L18.3,20.2
				L18.3,20.2L18.3,20.2C18.3,20.2,18.3,20.2,18.3,20.2L18.3,20.2C18.3,20.2,18.2,20.2,18.3,20.2c-0.1-0.2-0.2-0.4-0.5-0.6
				c0,0,0,0,0,0l0,0v0c-0.2-0.2-0.6-0.5-1-0.8c-0.2,0.4-0.4,0.7-0.8,1c-0.4,0.4-0.8,0.6-1.2,0.8c0.6-0.1,1.2-0.1,1.6-0.2
				c0.2,0,0.4-0.1,0.8-0.2c0.1-0.1,0.3-0.3,0.4-0.4C18,20,18.2,20.2,18.3,20.2c-0.1,0.1-0.1,0.1-0.1,0.1c0,0,0,0,0,0c0,0,0,0,0,0
				C18.2,20.4,18.3,20.3,18.3,20.2C18.3,20.2,18.3,20.2,18.3,20.2z"/>
			<path d="M7.9,13.1C7.9,13.1,7.8,13,7.9,13.1c0-0.1,0-0.2,0.1-0.2L7.9,13.1z M7,16.3v-0.1C6.9,16.2,6.9,16.2,7,16.3
				C6.9,16.3,7,16.3,7,16.3z M12.9,10.1C12.9,10.1,12.9,10.1,12.9,10.1l-0.2,0.7c0.1,0,0.1,0,0.2,0V10.1z M7.4,14
				c0-0.1,0-0.1,0.1-0.2c0.1,0,0.4,0.1,0.6,0.4c0,0.1-0.1,0.2-0.1,0.3c0.2,0.2,0.5,0.4,0.9,0.7c0.1,0,0.2,0,0.3-0.1
				c0.1,0,0.1,0,0.2,0v-0.8c-0.4-0.2-0.8-0.3-1.1-0.4c0,0,0,0,0,0c0,0,0,0,0,0c0,0,0,0,0,0c0,0,0,0,0,0c-0.3-0.1-0.5-0.1-0.6-0.1
				c0,0,0,0-0.1,0c0,0,0,0,0,0l0,0c0,0,0,0,0,0h0c0,0,0,0,0,0l0,0v0C7.4,13.8,7.4,13.9,7.4,14c0-0.1,0-0.1,0-0.1S7.4,13.9,7.4,14
				C7.4,14,7.4,14,7.4,14z M9.3,17.1v-0.4c-0.4-0.1-1.1-0.2-1.7-0.4c0,0,0,0,0,0c0,0,0,0,0,0c-0.1,0-0.1,0.1-0.2,0.1
				c-0.1,0-0.1,0-0.1,0.1c0,0,0,0,0,0c0,0,0,0,0,0c-0.1,0.1-0.2,0.1-0.3,0.2c0,0,0,0,0,0c0,0,0,0,0,0l0,0c0,0,0,0,0,0l0,0l0,0h0l0,0
				l0,0v0h0c0,0,0,0,0,0l0,0v0v0h0h0v0v0l0,0h0v0c0,0,0,0,0,0v0v0h0v0h0v0v0l0,0c0,0,0,0,0,0l0,0l0,0v0v0l0,0v0l0,0c0,0,0,0,0,0v0v0
				h0v0v0v0v0l0,0v0v0l0,0v0l0,0v0v0l0,0v0v0h0l0,0v0l0,0h0c0,0,0,0,0,0l0,0v0c0,0,0,0,0.1,0c0,0,0-0.1,0-0.1
				c0.3-0.1,0.6-0.1,0.7-0.1c0,0.2,0,0.3,0,0.5c0.4,0.1,1,0.2,1.6,0.3C9.3,17.3,9.3,17.2,9.3,17.1z M12.9,22.6
				C12.9,22.6,12.9,22.6,12.9,22.6l0.1-0.7c-0.1,0-0.1,0-0.2,0L12.9,22.6z M10.5,19.9C10.5,19.9,10.5,19.9,10.5,19.9
				c-0.6-0.1-1.2-0.2-1.9-0.4c0,0,0,0,0,0c-0.3,0.1-0.5,0.2-0.6,0.4c0,0,0,0.1,0,0.1c0,0,0,0,0,0c0,0,0.1,0,0.1,0c0,0,0-0.1-0.1-0.1
				c0.3-0.2,0.7-0.1,0.8-0.1c0.1,0.2,0.3,0.4,0.5,0.6c0.7,0.2,1.5,0.3,2.4,0.4C11.3,20.5,10.8,20.2,10.5,19.9z M7.7,19.4
				C7.7,19.4,7.7,19.4,7.7,19.4C7.7,19.4,7.7,19.4,7.7,19.4C7.7,19.4,7.7,19.4,7.7,19.4C7.7,19.4,7.8,19.4,7.7,19.4L7.7,19.4z"/>
			<g>
				<g>
					<path class="st7" d="M13.3,21.1c-2.4,0-4-2-4-3.9v-5.4h8v5.4C17.2,19.1,15.6,21.1,13.3,21.1L13.3,21.1z"/>
					<path class="st2" d="M9.5,12.1v5.1c0,1.8,1.5,3.6,3.7,3.6c2.2,0,3.7-1.9,3.7-3.6v-5.1H9.5z M15.5,17.2c0,0.9-0.8,2.1-2.2,2.1
						c-1.4,0-2.2-1.2-2.2-2.1c0-0.5,0-3.6,0-3.6h4.4C15.5,13.6,15.5,16.7,15.5,17.2z"/>
				</g>
				<g>
					<path class="st6" d="M10.8,13.3L10.8,13.3l-0.1-0.3c0,0,0.1,0,0.1-0.1c0,0,0-0.1-0.1-0.1h0l0-0.2h0h0c0,0,0,0,0,0v-0.1h-0.1
						v0.1h-0.1v-0.1h-0.1v0.1h-0.1v-0.1h0v0.1c0,0,0,0,0,0h0h0l0,0.2h-0.1l0-0.3h0c0,0,0,0,0,0v-0.1h-0.1v0.1h-0.1v-0.1h-0.1v0.1
						h-0.1v-0.1h0v0.1c0,0,0,0,0,0h0l0,0.3h-0.1l0-0.2h0h0c0,0,0,0,0,0v-0.1h0v0.1H10v-0.1H10v0.1H9.9v-0.1h0v0.1c0,0,0,0,0,0h0h0
						l0,0.2h0c0,0-0.1,0-0.1,0.1c0,0,0,0.1,0.1,0.1l0,0.3h0c0,0-0.1,0-0.1,0.1c0,0,0,0.1,0.1,0.1h1C10.8,13.4,10.9,13.4,10.8,13.3
						C10.9,13.3,10.8,13.3,10.8,13.3z M10.1,13.3c0-0.3,0.2-0.3,0.2-0.3l0,0c0,0,0.2,0.1,0.2,0.3H10.1z"/>
					<path class="st6" d="M13.8,13.3L13.8,13.3l-0.1-0.3c0,0,0.1,0,0.1-0.1c0,0,0-0.1-0.1-0.1h0l0-0.2h0h0c0,0,0,0,0,0v-0.1h0v0.1
						h-0.1v-0.1h-0.1v0.1h-0.1v-0.1h0v0.1c0,0,0,0,0,0h0h0l0,0.2h-0.1l0-0.3h0c0,0,0,0,0,0v-0.1h0v0.1h-0.1v-0.1h-0.1v0.1h-0.1v-0.1
						h0v0.1c0,0,0,0,0,0h0l0,0.3h-0.1l0-0.2h0h0c0,0,0,0,0,0v-0.1h-0.1v0.1H13v-0.1h0v0.1h-0.1v-0.1h0v0.1c0,0,0,0,0,0h0h0l0,0.2h0
						c0,0-0.1,0-0.1,0.1c0,0,0,0.1,0.1,0.1l0,0.3h0c0,0-0.1,0-0.1,0.1c0,0,0,0.1,0.1,0.1h1C13.8,13.4,13.8,13.4,13.8,13.3
						C13.8,13.3,13.8,13.3,13.8,13.3z M13,13.3c0-0.3,0.2-0.3,0.2-0.3l0,0c0,0,0.2,0.1,0.2,0.3H13z"/>
					<path class="st6" d="M16.7,13.3L16.7,13.3l-0.1-0.3c0,0,0.1,0,0.1-0.1c0,0,0-0.1-0.1-0.1h0l0-0.2h0h0c0,0,0,0,0,0v-0.1h0v0.1
						h-0.1v-0.1h-0.1v0.1h-0.1v-0.1h0v0.1c0,0,0,0,0,0h0h0l0,0.2h-0.1l0-0.3h0c0,0,0,0,0,0v-0.1h0v0.1h-0.1v-0.1h-0.1v0.1h-0.1v-0.1
						h0v0.1c0,0,0,0,0,0h0l0,0.3H16l0-0.2h0h0c0,0,0,0,0,0v-0.1H16v0.1h-0.1v-0.1h-0.1v0.1h-0.1v-0.1h0v0.1c0,0,0,0,0,0h0h0l0,0.2h0
						c0,0-0.1,0-0.1,0.1c0,0,0,0.1,0.1,0.1l0,0.3h0c0,0-0.1,0-0.1,0.1c0,0,0,0.1,0.1,0.1h1C16.7,13.4,16.8,13.4,16.7,13.3
						C16.8,13.3,16.7,13.3,16.7,13.3z M16,13.3c0-0.3,0.2-0.3,0.2-0.3h0c0,0,0.2,0.1,0.2,0.3H16z"/>
					<path class="st6" d="M10.8,16.3L10.8,16.3L10.8,16c0,0,0.1,0,0.1-0.1c0,0,0-0.1-0.1-0.1h0l0-0.1h0h0c0,0,0,0,0,0v-0.1h-0.1v0.1
						h-0.1v-0.1h-0.1v0.1h-0.1v-0.1h0v0.1c0,0,0,0,0,0h0h0l0,0.1h-0.1l0-0.3h0c0,0,0,0,0,0v-0.1h-0.1v0.1h-0.1v-0.1h-0.1v0.1h-0.1
						v-0.1h0v0.1c0,0,0,0,0,0h0l0,0.3h-0.1l0-0.1h0h0c0,0,0,0,0,0v-0.1h0v0.1H10v-0.1H10v0.1H9.9v-0.1h0v0.1c0,0,0,0,0,0h0h0l0,0.1
						h0c0,0-0.1,0-0.1,0.1c0,0,0,0.1,0.1,0.1l0,0.3h0c0,0-0.1,0-0.1,0.1c0,0,0,0.1,0.1,0.1h1C10.8,16.5,10.9,16.4,10.8,16.3
						C10.9,16.3,10.8,16.3,10.8,16.3z M10.1,16.3c0-0.3,0.2-0.3,0.2-0.3l0,0c0,0,0.2,0.1,0.2,0.3H10.1z"/>
					<path class="st6" d="M16.7,16.3L16.7,16.3L16.6,16c0,0,0.1,0,0.1-0.1c0,0,0-0.1-0.1-0.1h0l0-0.1h0h0c0,0,0,0,0,0v-0.1h0v0.1
						h-0.1v-0.1h-0.1v0.1h-0.1v-0.1h0v0.1c0,0,0,0,0,0h0h0l0,0.1h-0.1l0-0.3h0c0,0,0,0,0,0v-0.1h0v0.1h-0.1v-0.1h-0.1v0.1h-0.1v-0.1
						h0v0.1c0,0,0,0,0,0h0l0,0.3H16l0-0.1h0h0c0,0,0,0,0,0v-0.1H16v0.1h-0.1v-0.1h-0.1v0.1h-0.1v-0.1h0v0.1c0,0,0,0,0,0h0h0l0,0.1h0
						c0,0-0.1,0-0.1,0.1c0,0,0,0.1,0.1,0.1l0,0.3h0c0,0-0.1,0-0.1,0.1c0,0,0,0.1,0.1,0.1h1C16.7,16.5,16.8,16.4,16.7,16.3
						C16.8,16.3,16.7,16.3,16.7,16.3z M16,16.3c0-0.3,0.2-0.3,0.2-0.3h0c0,0,0.2,0.1,0.2,0.3H16z"/>
					<path class="st6" d="M11.7,19L11.7,19l-0.3-0.2c0,0,0-0.1,0-0.1c0,0-0.1,0-0.1,0l0,0l-0.1-0.1l0,0l0,0c0,0,0,0,0,0l-0.1-0.1
						l0,0l0,0L11,18.6l0,0l0,0l0,0L11,18.6l0,0l0,0l0.1,0.1c0,0,0,0,0,0l0,0l0,0l0.1,0.1L11,18.9l-0.2-0.2l0,0c0,0,0,0,0,0l-0.1-0.1
						l0,0l0,0l-0.1,0l0,0l0,0l0,0l-0.1,0.1l0,0l0,0l0.1,0.1c0,0,0,0,0,0l0,0l0.2,0.2l-0.1,0.1L10.7,19l0,0l0,0c0,0,0,0,0,0l-0.1-0.1
						l0,0l0,0l0,0.1l0,0l0,0l0,0l0,0l0,0l0,0l0.1,0.1c0,0,0,0,0,0l0,0l0,0l0.1,0.1l0,0c0,0,0,0.1,0,0.1c0,0,0.1,0,0.1,0l0.2,0.3l0,0
						c0,0,0,0.1,0,0.1c0,0,0.1,0,0.1,0l0.7-0.7c0,0,0-0.1,0-0.1C11.7,18.9,11.7,18.9,11.7,19z M11.2,19.5c-0.2-0.2-0.1-0.4-0.1-0.4
						v0c0,0,0.2-0.1,0.4,0.1L11.2,19.5z"/>
					<path class="st6" d="M14.8,19c0,0,0,0.1,0,0.1l0.7,0.7c0,0,0.1,0,0.1,0c0,0,0-0.1,0-0.1l0,0l0.2-0.3c0,0,0.1,0,0.1,0
						c0,0,0-0.1,0-0.1l0,0l0.1-0.1l0,0l0,0c0,0,0,0,0,0l0.1-0.1l0,0l0,0L16,19l0,0l0,0l0,0L15.9,19l0,0l0,0L15.8,19c0,0,0,0,0,0l0,0
						l0,0l-0.1,0.1L15.7,19l0.2-0.2l0,0c0,0,0,0,0,0l0.1-0.1l0,0l0,0l-0.1-0.1l0,0l0,0l0,0l-0.1,0l0,0l0,0l-0.1,0.1c0,0,0,0,0,0l0,0
						l-0.2,0.2l-0.1-0.1l0.1-0.1l0,0l0,0c0,0,0,0,0,0l0.1-0.1l0,0l0,0l0-0.1l0,0l0,0l0,0l-0.1-0.1l0,0l0,0l-0.1,0.1c0,0,0,0,0,0l0,0
						l0,0l-0.1,0.1l0,0c0,0-0.1,0-0.1,0c0,0,0,0.1,0,0.1L14.9,19l0,0C14.9,18.9,14.8,18.9,14.8,19z M15.1,19.2
						c0.2-0.2,0.4-0.1,0.4-0.1l0,0c0,0,0.1,0.2-0.1,0.4L15.1,19.2z"/>
				</g>
				<g>
					<path class="st8" d="M13.5,18.2C13.5,18.2,13.4,18.3,13.5,18.2c-0.1,0.2-0.1,0.2,0,0.2C13.6,18.4,13.6,18.4,13.5,18.2
						C13.6,18.3,13.6,18.2,13.5,18.2"/>
					<path class="st8" d="M13,18.2C13,18.2,12.9,18.3,13,18.2c-0.1,0.1,0,0.2,0,0.2C13.1,18.4,13.1,18.4,13,18.2
						C13.1,18.3,13.1,18.2,13,18.2"/>
					<g>
						<path class="st9" d="M13.3,15.4c0.2,0,0.5-0.2,0.5-0.5c0-0.4,0-0.7,0-0.7h-1c0,0,0,0.3,0,0.7C12.8,15.2,13.1,15.4,13.3,15.4z"
							/>
						<g>
							<circle class="st8" cx="13" cy="14.4" r="0.1"/>
							<circle class="st8" cx="13.3" cy="14.7" r="0.1"/>
							<circle class="st8" cx="13.5" cy="14.9" r="0.1"/>
							<circle class="st8" cx="13.5" cy="14.4" r="0.1"/>
							<circle class="st8" cx="13" cy="14.9" r="0.1"/>
						</g>
					</g>
					<g>
						<path class="st9" d="M13.3,17.1c0.2,0,0.5-0.2,0.5-0.5c0-0.4,0-0.7,0-0.7h-1c0,0,0,0.3,0,0.7C12.8,16.9,13.1,17.1,13.3,17.1z"
							/>
						<g>
							<circle class="st8" cx="13" cy="16.1" r="0.1"/>
							<circle class="st8" cx="13.3" cy="16.4" r="0.1"/>
							<circle class="st8" cx="13.5" cy="16.6" r="0.1"/>
							<circle class="st8" cx="13.5" cy="16.1" r="0.1"/>
							<circle class="st8" cx="13" cy="16.6" r="0.1"/>
						</g>
					</g>
					<g>
						<path class="st9" d="M11.9,17.1c0.2,0,0.5-0.2,0.5-0.5c0-0.4,0-0.7,0-0.7h-1c0,0,0,0.3,0,0.7C11.4,16.9,11.7,17.1,11.9,17.1z"
							/>
						<g>
							<circle class="st8" cx="11.7" cy="16.1" r="0.1"/>
							<circle class="st8" cx="11.9" cy="16.4" r="0.1"/>
							<circle class="st8" cx="12.2" cy="16.6" r="0.1"/>
							<circle class="st8" cx="12.2" cy="16.1" r="0.1"/>
							<circle class="st8" cx="11.7" cy="16.6" r="0.1"/>
						</g>
					</g>
					<g>
						<path class="st9" d="M14.6,17.1c0.2,0,0.5-0.2,0.5-0.5c0-0.4,0-0.7,0-0.7h-1c0,0,0,0.3,0,0.7C14.1,16.9,14.4,17.1,14.6,17.1z"
							/>
						<g>
							<circle class="st8" cx="14.4" cy="16.1" r="0.1"/>
							<ellipse class="st8" cx="14.6" cy="16.4" rx="0.1" ry="0.1"/>
							<circle class="st8" cx="14.9" cy="16.6" r="0.1"/>
							<circle class="st8" cx="14.9" cy="16.1" r="0.1"/>
							<circle class="st8" cx="14.4" cy="16.6" r="0.1"/>
						</g>
					</g>
					<g>
						<path class="st9" d="M13.3,18.8c0.2,0,0.5-0.2,0.5-0.5c0-0.4,0-0.7,0-0.7h-1c0,0,0,0.3,0,0.7C12.8,18.6,13.1,18.8,13.3,18.8z"
							/>
						<g>
							<circle class="st8" cx="13" cy="17.8" r="0.1"/>
							<circle class="st8" cx="13.3" cy="18.1" r="0.1"/>
							<circle class="st8" cx="13.5" cy="18.3" r="0.1"/>
							<circle class="st8" cx="13.5" cy="17.8" r="0.1"/>
							<circle class="st8" cx="13" cy="18.3" r="0.1"/>
						</g>
					</g>
				</g>
			</g>
		</g>
	</g>
	<path class="st10" d="M54.6,42.4"/>
	<path class="st10" d="M36.8,44.9c0,0.2,0,0.4-0.1,0.6c-0.1,0.2-0.2,0.4-0.4,0.5c-0.2,0.1-0.4,0.2-0.6,0.3c-0.2,0.1-0.5,0.1-0.8,0.1
		c-0.4,0-0.8,0-1.1-0.1l0.1-0.9c0.2,0.1,0.3,0.1,0.5,0.2c0.2,0,0.4,0.1,0.6,0.1c0.1,0,0.2,0,0.3,0c0.1,0,0.2-0.1,0.3-0.1
		c0.1,0,0.1-0.1,0.2-0.2c0-0.1,0.1-0.2,0.1-0.3c0-0.2,0-0.3-0.1-0.4c-0.1-0.1-0.2-0.2-0.4-0.2c-0.1-0.1-0.3-0.1-0.5-0.2
		c-0.2-0.1-0.3-0.1-0.5-0.2c-0.1-0.1-0.3-0.2-0.4-0.4c-0.1-0.2-0.1-0.4-0.1-0.6c0-0.2,0-0.4,0.1-0.6c0.1-0.2,0.2-0.3,0.4-0.5
		c0.2-0.1,0.3-0.2,0.6-0.3c0.2-0.1,0.5-0.1,0.8-0.1c0.1,0,0.3,0,0.4,0c0.2,0,0.3,0,0.4,0.1l-0.1,0.8c-0.1,0-0.3-0.1-0.4-0.1
		c-0.1,0-0.3,0-0.4,0c-0.3,0-0.5,0.1-0.6,0.2c-0.1,0.1-0.2,0.2-0.2,0.4c0,0.1,0.1,0.3,0.2,0.3c0.1,0.1,0.2,0.2,0.4,0.2
		c0.2,0.1,0.3,0.1,0.5,0.2c0.2,0.1,0.3,0.2,0.5,0.3c0.2,0.1,0.3,0.2,0.4,0.4C36.7,44.4,36.8,44.6,36.8,44.9z"/>
	<path class="st10" d="M40.5,46.3l-0.3-1h-1.8l-0.3,1H37l1.7-4.8h1l1.7,4.8H40.5z M39.4,43.3c0-0.1-0.1-0.2-0.1-0.3
		c0-0.1-0.1-0.2-0.1-0.3h0c0,0.1-0.1,0.2-0.1,0.3c0,0.1-0.1,0.2-0.1,0.3l-0.5,1.4h1.4L39.4,43.3z"/>
	<path class="st10" d="M45.7,44.5c0,0.7-0.2,1.1-0.5,1.5c-0.3,0.3-0.8,0.5-1.5,0.5c-0.4,0-0.7,0-0.9-0.1c-0.2-0.1-0.4-0.2-0.6-0.4
		c-0.1-0.2-0.2-0.3-0.3-0.6c-0.1-0.2-0.1-0.4-0.1-0.7v-3.1h0.9v3.1c0,0.2,0,0.3,0,0.4c0,0.1,0.1,0.2,0.2,0.3
		c0.1,0.1,0.2,0.2,0.3,0.2c0.1,0,0.3,0.1,0.5,0.1c0.4,0,0.6-0.1,0.8-0.3c0.2-0.2,0.2-0.5,0.2-0.9v-3h0.9V44.5z M43.5,41.2l-0.1-0.5
		l1.5-0.5l0.2,0.7L43.5,41.2z"/>
	<path class="st10" d="M50.9,43.9c0,0.4-0.1,0.8-0.2,1.1c-0.1,0.3-0.3,0.6-0.5,0.8c-0.2,0.2-0.5,0.4-0.8,0.5
		c-0.3,0.1-0.7,0.2-1.1,0.2c-0.3,0-0.5,0-0.7,0c-0.2,0-0.4,0-0.6,0v-4.8c0.2,0,0.4,0,0.7,0c0.3,0,0.6,0,0.9,0c0.4,0,0.7,0,1,0.1
		c0.3,0.1,0.6,0.2,0.8,0.4c0.2,0.2,0.4,0.4,0.5,0.7C50.8,43.1,50.9,43.4,50.9,43.9z M49.9,43.9c0-0.3,0-0.5-0.1-0.7
		c-0.1-0.2-0.1-0.4-0.3-0.5c-0.1-0.1-0.3-0.2-0.5-0.3c-0.2-0.1-0.4-0.1-0.7-0.1c-0.1,0-0.2,0-0.3,0c-0.1,0-0.2,0-0.3,0v3.2
		c0.1,0,0.1,0,0.2,0c0.1,0,0.2,0,0.3,0c0.2,0,0.4,0,0.6-0.1c0.2-0.1,0.4-0.2,0.5-0.3c0.1-0.1,0.2-0.3,0.3-0.5
		C49.9,44.5,49.9,44.2,49.9,43.9z"/>
	<path class="st10" d="M51.7,46.3v-4.8h2.6v0.8h-1.7v1.2h1.6v0.8h-1.6v1.3h1.7v0.8H51.7z"/>
	<path class="st10" d="M39,16.8l-2.4-3.9h-0.2v2.8c0.3,0,0.6,0.1,0.9,0.2v0.9h-3.5v-0.9c0.2,0,0.4-0.1,0.6-0.1c0.2,0,0.4,0,0.6-0.1
		V8.9c-0.2,0-0.4,0-0.6-0.1c-0.2,0-0.4-0.1-0.6-0.1V7.9h1c0.1,0,0.2,0,0.4,0c0.2,0,0.4,0,0.6,0c0.2,0,0.5,0,0.7,0c0.3,0,0.5,0,0.8,0
		c0.5,0,0.9,0,1.3,0.1c0.4,0.1,0.7,0.2,1,0.4c0.3,0.2,0.5,0.4,0.6,0.7c0.1,0.3,0.2,0.7,0.2,1.1c0,0.3-0.1,0.6-0.2,0.9
		c-0.1,0.3-0.3,0.5-0.5,0.7c-0.2,0.2-0.5,0.4-0.7,0.5c-0.3,0.1-0.6,0.2-0.9,0.3c0.1,0.1,0.2,0.2,0.3,0.4c0.1,0.1,0.2,0.3,0.2,0.4
		l1.5,2.3c0.1,0,0.3,0,0.4,0.1c0.2,0,0.3,0.1,0.5,0.1v0.9H39z M38.5,9.3C38.2,9.1,37.7,9,37.1,9c-0.1,0-0.3,0-0.4,0
		c-0.1,0-0.2,0-0.3,0v2.8c0.1,0,0.2,0,0.3,0c0.1,0,0.3,0,0.4,0c0.6,0,1-0.1,1.4-0.4c0.3-0.3,0.5-0.6,0.5-1.1
		C38.9,9.9,38.8,9.6,38.5,9.3z"/>
	<path class="st10" d="M41.7,16.8v-0.9c0.2,0,0.4-0.1,0.6-0.1c0.2,0,0.4,0,0.6-0.1V8.9c-0.2,0-0.4,0-0.6-0.1c-0.2,0-0.4-0.1-0.6-0.1
		V7.9h5.9V10h-1c0-0.2-0.1-0.4-0.1-0.5s0-0.3-0.1-0.5h-2.1v2.7H46c0-0.1,0-0.3,0.1-0.4c0-0.1,0.1-0.3,0.1-0.4H47v2.7h-0.9
		c0-0.1-0.1-0.3-0.1-0.4s0-0.3-0.1-0.4h-1.7v2.9h2.1c0-0.2,0-0.3,0.1-0.5s0.1-0.4,0.1-0.6h1v2.2H41.7z"/>
	<path class="st10" d="M55.2,11.7c-0.2,0.4-0.4,0.7-0.7,1c-0.3,0.3-0.7,0.5-1.1,0.6c-0.4,0.2-0.9,0.2-1.4,0.2c-0.1,0-0.2,0-0.3,0
		c-0.1,0-0.2,0-0.3,0v2.2c0.2,0,0.4,0,0.6,0.1c0.2,0,0.4,0.1,0.6,0.1v0.9h-3.7v-0.9c0.2,0,0.4-0.1,0.6-0.1c0.2,0,0.4,0,0.6-0.1V8.9
		c-0.2,0-0.4,0-0.6-0.1c-0.2,0-0.4-0.1-0.6-0.1V7.9h1c0.1,0,0.2,0,0.4,0c0.2,0,0.4,0,0.6,0c0.2,0,0.4,0,0.7,0c0.2,0,0.5,0,0.7,0
		c1.1,0,1.9,0.2,2.4,0.7c0.6,0.5,0.8,1.1,0.8,2C55.4,10.9,55.3,11.3,55.2,11.7z M53.5,9.4C53.2,9.1,52.7,9,52,9c-0.1,0-0.3,0-0.4,0
		c-0.1,0-0.2,0-0.4,0v3.3c0.1,0,0.2,0,0.3,0c0.1,0,0.2,0,0.3,0c0.6,0,1.1-0.2,1.5-0.5c0.4-0.3,0.5-0.7,0.5-1.2
		C53.9,10.1,53.8,9.7,53.5,9.4z"/>
	<path class="st10" d="M63.8,8.9v4.5c0,1.2-0.3,2.1-0.9,2.7c-0.6,0.6-1.5,0.9-2.7,0.9c-0.7,0-1.3-0.1-1.7-0.3
		c-0.4-0.2-0.8-0.4-1-0.7c-0.2-0.3-0.4-0.6-0.5-1c-0.1-0.4-0.1-0.8-0.1-1.2V8.9c-0.1,0-0.3,0-0.4-0.1c-0.1,0-0.3-0.1-0.4-0.1V7.9
		h3.3v0.9c-0.2,0-0.3,0.1-0.5,0.1c-0.2,0-0.3,0-0.5,0.1v4.7c0,0.3,0,0.6,0.1,0.8c0.1,0.3,0.2,0.5,0.3,0.7c0.1,0.2,0.4,0.3,0.6,0.4
		c0.3,0.1,0.6,0.2,1,0.2c0.4,0,0.7,0,0.9-0.1c0.3-0.1,0.5-0.2,0.7-0.4c0.2-0.2,0.3-0.4,0.4-0.7c0.1-0.3,0.1-0.6,0.1-1.1V8.9
		c-0.2,0-0.3,0-0.5-0.1c-0.2,0-0.3-0.1-0.5-0.1V7.9h3.3v0.9C64.4,8.8,64.1,8.9,63.8,8.9z M60.1,7.3l-0.5-0.8L61.7,5l0.6,1L60.1,7.3z
		"/>
	<path class="st10" d="M72.5,15c-0.1,0.3-0.3,0.6-0.6,0.9c-0.3,0.3-0.6,0.5-1.1,0.7c-0.4,0.2-1,0.3-1.7,0.3c-0.3,0-0.6,0-1,0
		c-0.4,0-0.9,0-1.4,0h-1.1v-0.9c0.2,0,0.4-0.1,0.6-0.1c0.2,0,0.4,0,0.6-0.1V8.9c-0.2,0-0.4,0-0.6-0.1c-0.2,0-0.4-0.1-0.6-0.1V7.9
		h1.1c0.3,0,0.8,0,1.3,0c0.5,0,1,0,1.6,0c1,0,1.7,0.2,2.2,0.6c0.5,0.4,0.7,0.9,0.7,1.6c0,0.5-0.1,0.9-0.4,1.2S71.4,11.9,71,12v0
		c0.3,0.1,0.5,0.1,0.8,0.3c0.2,0.1,0.4,0.3,0.5,0.5c0.1,0.2,0.2,0.4,0.3,0.6c0.1,0.2,0.1,0.4,0.1,0.7C72.7,14.4,72.6,14.7,72.5,15z
		 M70.9,9.7c-0.1-0.1-0.1-0.3-0.3-0.4c-0.1-0.1-0.3-0.2-0.5-0.3C69.9,9,69.6,9,69.3,9c-0.2,0-0.4,0-0.6,0c-0.2,0-0.4,0-0.5,0v2.6
		c0.1,0,0.2,0,0.4,0c0.1,0,0.3,0,0.4,0c0.7,0,1.2-0.1,1.5-0.4c0.3-0.3,0.5-0.6,0.5-1.1C71,10,71,9.9,70.9,9.7z M71,13.5
		c-0.1-0.2-0.3-0.3-0.4-0.4c-0.2-0.1-0.4-0.2-0.7-0.2c-0.3,0-0.6-0.1-0.9-0.1c0,0-0.1,0-0.2,0c-0.1,0-0.1,0-0.2,0
		c-0.1,0-0.2,0-0.2,0c-0.1,0-0.1,0-0.2,0v2.8c0.2,0,0.6,0.1,1,0.1c0.7,0,1.1-0.1,1.5-0.4c0.3-0.3,0.5-0.7,0.5-1.1
		C71.2,13.9,71.1,13.7,71,13.5z"/>
	<path class="st10" d="M73.7,16.8v-0.9c0.2,0,0.4-0.1,0.6-0.1c0.2,0,0.4,0,0.6-0.1V8.9c-0.2,0-0.4,0-0.6-0.1c-0.2,0-0.4-0.1-0.6-0.1
		V7.9h3.7v0.9c-0.2,0-0.4,0.1-0.6,0.1c-0.2,0-0.4,0-0.6,0.1v6.7h2c0-0.3,0.1-0.7,0.2-1.1h1v2.3H73.7z"/>
	<path class="st10" d="M80,16.8v-0.9c0.2,0,0.4-0.1,0.6-0.1c0.2,0,0.4,0,0.6-0.1V8.9c-0.2,0-0.4,0-0.6-0.1c-0.2,0-0.4-0.1-0.6-0.1
		V7.9h3.7v0.9c-0.2,0-0.4,0.1-0.6,0.1c-0.2,0-0.4,0-0.6,0.1v6.8c0.2,0,0.4,0,0.6,0.1c0.2,0,0.4,0.1,0.6,0.1v0.9H80z"/>
	<path class="st10" d="M90.1,10.4c0-0.2-0.1-0.4-0.1-0.6c0-0.2,0-0.4-0.1-0.5c-0.2-0.1-0.4-0.1-0.6-0.1c-0.2,0-0.4,0-0.6,0
		c-0.4,0-0.8,0.1-1.1,0.2c-0.3,0.2-0.6,0.4-0.8,0.7c-0.2,0.3-0.4,0.6-0.5,1c-0.1,0.4-0.2,0.8-0.2,1.3c0,0.5,0.1,1,0.2,1.4
		c0.1,0.4,0.3,0.7,0.5,1c0.2,0.3,0.5,0.5,0.9,0.6c0.4,0.1,0.8,0.2,1.3,0.2c0.3,0,0.7,0,1-0.1c0.4-0.1,0.7-0.2,1-0.3l0.1,1.3
		c-0.4,0.1-0.8,0.2-1.2,0.3c-0.4,0.1-0.8,0.1-1.3,0.1c-1.4,0-2.4-0.4-3.1-1.1c-0.7-0.8-1-1.8-1-3.2c0-0.7,0.1-1.4,0.3-1.9
		c0.2-0.6,0.5-1.1,0.8-1.5c0.4-0.4,0.8-0.8,1.4-1c0.6-0.2,1.2-0.4,2-0.4c0.3,0,0.7,0,1,0.1c0.4,0,0.7,0.1,1,0.2v2.3H90.1z"/>
	<path class="st10" d="M97.6,16.8v-0.9c0.1,0,0.3-0.1,0.5-0.1c0.2,0,0.3,0,0.5-0.1l-0.5-1.3h-3.5l-0.4,1.3c0.2,0,0.3,0,0.5,0.1
		c0.2,0,0.3,0.1,0.5,0.1v0.9h-3.2v-0.9c0.1,0,0.2-0.1,0.4-0.1c0.1,0,0.3,0,0.4-0.1l2.8-7.9h1.7l2.9,7.9c0.1,0,0.3,0,0.4,0.1
		c0.1,0,0.3,0.1,0.4,0.1v0.9H97.6z M96.8,10.7c-0.1-0.2-0.2-0.5-0.2-0.7c-0.1-0.2-0.1-0.5-0.2-0.7h0c0,0.2-0.1,0.5-0.2,0.7
		c-0.1,0.2-0.1,0.5-0.2,0.7l-1,2.7h2.8L96.8,10.7z"/>
	<path class="st10" d="M40.2,24.4c-0.2,0.4-0.4,0.7-0.7,1c-0.3,0.3-0.7,0.5-1.1,0.6c-0.4,0.2-0.9,0.2-1.4,0.2c-0.1,0-0.2,0-0.3,0
		c-0.1,0-0.2,0-0.3,0v2.2c0.2,0,0.4,0,0.6,0.1c0.2,0,0.4,0.1,0.6,0.1v0.9h-3.7v-0.9c0.2,0,0.4-0.1,0.6-0.1c0.2,0,0.4,0,0.6-0.1v-6.8
		c-0.2,0-0.4,0-0.6-0.1c-0.2,0-0.4-0.1-0.6-0.1v-0.9h1c0.1,0,0.2,0,0.4,0c0.2,0,0.4,0,0.6,0c0.2,0,0.4,0,0.7,0c0.2,0,0.5,0,0.7,0
		c1.1,0,1.9,0.2,2.4,0.7c0.6,0.5,0.8,1.1,0.8,2C40.5,23.6,40.4,24,40.2,24.4z M38.5,22.1c-0.3-0.3-0.8-0.4-1.4-0.4
		c-0.1,0-0.3,0-0.4,0c-0.1,0-0.2,0-0.4,0V25c0.1,0,0.2,0,0.3,0c0.1,0,0.2,0,0.3,0c0.6,0,1.1-0.2,1.5-0.5c0.4-0.3,0.5-0.7,0.5-1.2
		C39,22.8,38.8,22.4,38.5,22.1z"/>
	<path class="st10" d="M49.1,26.9c-0.2,0.6-0.5,1.1-0.9,1.5c-0.4,0.4-0.8,0.7-1.4,0.9c-0.5,0.2-1.1,0.3-1.7,0.3
		c-0.7,0-1.3-0.1-1.8-0.3c-0.5-0.2-0.9-0.5-1.3-0.9c-0.3-0.4-0.6-0.9-0.7-1.4c-0.2-0.5-0.2-1.2-0.2-1.9c0-0.7,0.1-1.4,0.3-2
		c0.2-0.6,0.5-1.1,0.9-1.5c0.4-0.4,0.8-0.7,1.4-0.9c0.5-0.2,1.1-0.3,1.7-0.3c0.6,0,1.1,0.1,1.6,0.3c0.5,0.2,0.9,0.5,1.3,0.8
		c0.4,0.4,0.6,0.8,0.8,1.4c0.2,0.6,0.3,1.2,0.3,2C49.5,25.7,49.4,26.3,49.1,26.9z M47.3,22.6c-0.5-0.6-1.1-0.9-1.9-0.9
		c-0.3,0-0.7,0.1-1,0.2c-0.3,0.1-0.6,0.3-0.8,0.6s-0.4,0.6-0.6,1c-0.1,0.4-0.2,0.9-0.2,1.4c0,0.5,0.1,1,0.2,1.4
		c0.1,0.4,0.3,0.8,0.5,1.1c0.2,0.3,0.5,0.5,0.8,0.7c0.3,0.2,0.7,0.2,1.2,0.2c0.3,0,0.6-0.1,1-0.2c0.3-0.1,0.6-0.3,0.9-0.6
		c0.3-0.3,0.5-0.6,0.6-1s0.2-0.9,0.2-1.4C48,24,47.7,23.1,47.3,22.6z"/>
	<path class="st10" d="M55.5,29.5l-2.4-3.9h-0.2v2.8c0.3,0,0.6,0.1,0.9,0.2v0.9h-3.5v-0.9c0.2,0,0.4-0.1,0.6-0.1
		c0.2,0,0.4,0,0.6-0.1v-6.8c-0.2,0-0.4,0-0.6-0.1c-0.2,0-0.4-0.1-0.6-0.1v-0.9h1c0.1,0,0.2,0,0.4,0c0.2,0,0.4,0,0.6,0
		c0.2,0,0.5,0,0.7,0c0.3,0,0.5,0,0.8,0c0.5,0,0.9,0,1.3,0.1c0.4,0.1,0.7,0.2,1,0.4c0.3,0.2,0.5,0.4,0.6,0.7c0.1,0.3,0.2,0.7,0.2,1.1
		c0,0.3-0.1,0.6-0.2,0.9c-0.1,0.3-0.3,0.5-0.5,0.7c-0.2,0.2-0.5,0.4-0.7,0.5c-0.3,0.1-0.6,0.2-0.9,0.3c0.1,0.1,0.2,0.2,0.3,0.4
		c0.1,0.1,0.2,0.3,0.2,0.4l1.5,2.3c0.1,0,0.3,0,0.4,0.1c0.2,0,0.3,0.1,0.5,0.1v0.9H55.5z M55,22c-0.3-0.2-0.7-0.3-1.4-0.3
		c-0.1,0-0.3,0-0.4,0c-0.1,0-0.2,0-0.3,0v2.8c0.1,0,0.2,0,0.3,0c0.1,0,0.3,0,0.4,0c0.6,0,1-0.1,1.4-0.4c0.3-0.3,0.5-0.6,0.5-1.1
		C55.4,22.6,55.3,22.2,55,22z"/>
	<path class="st10" d="M64.2,22.9c0-0.2-0.1-0.4-0.1-0.6c0-0.2-0.1-0.4-0.1-0.5h-1.6v6.7c0.2,0,0.4,0,0.6,0.1c0.2,0,0.4,0.1,0.6,0.1
		v0.9h-3.7v-0.9c0.2,0,0.4-0.1,0.6-0.1c0.2,0,0.4,0,0.6-0.1v-6.7h-1.6c0,0.2,0,0.3-0.1,0.5c0,0.2-0.1,0.4-0.1,0.6h-1v-2.4h7.1v2.4
		H64.2z"/>
	<path class="st10" d="M73.7,21.6v4.5c0,1.2-0.3,2.1-0.9,2.7c-0.6,0.6-1.5,0.9-2.7,0.9c-0.7,0-1.3-0.1-1.7-0.3
		c-0.4-0.2-0.8-0.4-1-0.7c-0.2-0.3-0.4-0.6-0.5-1c-0.1-0.4-0.1-0.8-0.1-1.2v-4.8c-0.1,0-0.3,0-0.4-0.1c-0.1,0-0.3-0.1-0.4-0.1v-0.9
		h3.3v0.9c-0.2,0-0.3,0.1-0.5,0.1s-0.3,0-0.5,0.1v4.7c0,0.3,0,0.6,0.1,0.8c0.1,0.3,0.2,0.5,0.3,0.7c0.1,0.2,0.4,0.3,0.6,0.4
		c0.3,0.1,0.6,0.2,1,0.2c0.4,0,0.7,0,0.9-0.1c0.3-0.1,0.5-0.2,0.7-0.4c0.2-0.2,0.3-0.4,0.4-0.7c0.1-0.3,0.1-0.6,0.1-1.1v-4.5
		c-0.2,0-0.3,0-0.5-0.1s-0.3-0.1-0.5-0.1v-0.9h3.3v0.9C74.2,21.5,74,21.6,73.7,21.6z"/>
	<path class="st10" d="M83.2,25.9c-0.1,0-0.3,0-0.4,0.1v3.2c-0.4,0.2-0.9,0.3-1.5,0.4c-0.5,0.1-1,0.1-1.5,0.1
		c-0.7,0-1.3-0.1-1.9-0.3c-0.5-0.2-1-0.5-1.4-0.9c-0.4-0.4-0.7-0.8-0.9-1.4c-0.2-0.5-0.3-1.2-0.3-1.8c0-0.7,0.1-1.3,0.3-1.9
		c0.2-0.6,0.5-1.1,1-1.5c0.4-0.4,0.9-0.7,1.5-1c0.6-0.2,1.3-0.3,2-0.3c0.4,0,0.8,0,1.2,0.1c0.4,0.1,0.8,0.1,1.2,0.2V23h-1.1
		c0-0.2-0.1-0.4-0.1-0.6c0-0.2,0-0.4-0.1-0.5c-0.2-0.1-0.4-0.1-0.7-0.1c-0.2,0-0.4,0-0.6,0c-0.4,0-0.9,0.1-1.3,0.2
		c-0.4,0.1-0.7,0.4-1,0.6c-0.3,0.3-0.5,0.6-0.7,1.1c-0.2,0.4-0.3,0.9-0.3,1.5c0,1,0.3,1.8,0.8,2.4c0.6,0.6,1.3,0.8,2.3,0.8
		c0.3,0,0.5,0,0.7-0.1c0.2,0,0.4-0.1,0.6-0.2v-2.2c-0.2,0-0.4,0-0.6-0.1c-0.2,0-0.4-0.1-0.5-0.1v-0.9h3.4v0.9
		C83.5,25.8,83.4,25.8,83.2,25.9z"/>
	<path class="st10" d="M92.2,21.6v4.5c0,1.2-0.3,2.1-0.9,2.7c-0.6,0.6-1.5,0.9-2.7,0.9c-0.7,0-1.3-0.1-1.7-0.3
		c-0.4-0.2-0.8-0.4-1-0.7c-0.2-0.3-0.4-0.6-0.5-1c-0.1-0.4-0.1-0.8-0.1-1.2v-4.8c-0.1,0-0.3,0-0.4-0.1c-0.1,0-0.3-0.1-0.4-0.1v-0.9
		h3.3v0.9c-0.2,0-0.3,0.1-0.5,0.1c-0.2,0-0.3,0-0.5,0.1v4.7c0,0.3,0,0.6,0.1,0.8s0.2,0.5,0.3,0.7c0.1,0.2,0.4,0.3,0.6,0.4
		c0.3,0.1,0.6,0.2,1,0.2c0.4,0,0.7,0,0.9-0.1c0.3-0.1,0.5-0.2,0.7-0.4c0.2-0.2,0.3-0.4,0.4-0.7c0.1-0.3,0.1-0.6,0.1-1.1v-4.5
		c-0.2,0-0.3,0-0.5-0.1c-0.2,0-0.3-0.1-0.5-0.1v-0.9h3.3v0.9C92.8,21.5,92.5,21.6,92.2,21.6z"/>
	<path class="st10" d="M94,29.5v-0.9c0.2,0,0.4-0.1,0.6-0.1c0.2,0,0.4,0,0.6-0.1v-6.8c-0.2,0-0.4,0-0.6-0.1c-0.2,0-0.4-0.1-0.6-0.1
		v-0.9h5.9v2.1h-1c0-0.2-0.1-0.4-0.1-0.5c0-0.2,0-0.3-0.1-0.5h-2.1v2.7h1.7c0-0.1,0-0.3,0.1-0.4c0-0.1,0.1-0.3,0.1-0.4h0.9v2.7h-0.9
		c0-0.1-0.1-0.3-0.1-0.4c0-0.1,0-0.3-0.1-0.4h-1.7v2.9h2.1c0-0.2,0-0.3,0.1-0.5c0-0.2,0.1-0.4,0.1-0.6h1v2.2H94z"/>
	<path class="st10" d="M106.5,27.9c-0.2,0.3-0.4,0.6-0.7,0.9c-0.3,0.3-0.6,0.4-1.1,0.6c-0.4,0.1-0.9,0.2-1.4,0.2
		c-0.7,0-1.4-0.1-2-0.2v-2.2h1.1c0,0.2,0.1,0.4,0.1,0.6c0,0.2,0,0.4,0.1,0.5c0.1,0,0.3,0,0.4,0.1c0.1,0,0.3,0,0.4,0
		c0.3,0,0.5,0,0.7-0.1c0.2-0.1,0.4-0.1,0.6-0.2c0.2-0.1,0.3-0.3,0.4-0.4s0.1-0.4,0.1-0.6c0-0.3-0.1-0.6-0.3-0.7
		c-0.2-0.2-0.4-0.3-0.7-0.5c-0.3-0.1-0.6-0.3-1-0.4c-0.3-0.1-0.7-0.3-1-0.5c-0.3-0.2-0.5-0.4-0.7-0.7c-0.2-0.3-0.3-0.7-0.3-1.2
		c0-0.4,0.1-0.7,0.2-1s0.4-0.6,0.6-0.8c0.3-0.2,0.6-0.4,1-0.5c0.4-0.1,0.9-0.2,1.4-0.2c0.3,0,0.6,0,0.9,0c0.3,0,0.6,0.1,0.9,0.1v2.2
		h-1.1c0-0.2-0.1-0.4-0.1-0.6c0-0.2,0-0.4-0.1-0.5c-0.1,0-0.2,0-0.3,0c-0.1,0-0.2,0-0.3,0c-0.6,0-1,0.1-1.3,0.3
		c-0.3,0.2-0.4,0.5-0.4,0.9c0,0.3,0.1,0.5,0.3,0.7c0.2,0.2,0.4,0.3,0.7,0.5c0.3,0.1,0.6,0.3,1,0.4c0.3,0.1,0.7,0.3,1,0.5
		c0.3,0.2,0.5,0.4,0.7,0.7c0.2,0.3,0.3,0.7,0.3,1.1C106.7,27.2,106.7,27.6,106.5,27.9z"/>
	<path class="st10" d="M112.8,29.5v-0.9c0.1,0,0.3-0.1,0.5-0.1c0.2,0,0.3,0,0.5-0.1l-0.5-1.3h-3.5l-0.4,1.3c0.2,0,0.3,0,0.5,0.1
		c0.2,0,0.3,0.1,0.5,0.1v0.9h-3.2v-0.9c0.1,0,0.2-0.1,0.4-0.1c0.1,0,0.3,0,0.4-0.1l2.8-7.9h1.7l2.9,7.9c0.1,0,0.3,0,0.4,0.1
		c0.1,0,0.3,0.1,0.4,0.1v0.9H112.8z M112,23.4c-0.1-0.2-0.2-0.5-0.2-0.7c-0.1-0.2-0.1-0.5-0.2-0.7h0c0,0.2-0.1,0.5-0.2,0.7
		c-0.1,0.2-0.1,0.5-0.2,0.7l-1,2.7h2.8L112,23.4z"/>
</g>
</svg>
