<svg id="Layer_1" data-name="Layer 1" xmlns="http://www.w3.org/2000/svg" xmlns:xlink="http://www.w3.org/1999/xlink" viewBox="0 0 230 38"><defs><style>.cls-1{fill:url(#linear-gradient);}.cls-2{fill:url(#linear-gradient-2);}.cls-3{fill:url(#linear-gradient-3);}.cls-4{fill:url(#linear-gradient-4);}.cls-5{fill:#09934b;}.cls-6{fill:url(#linear-gradient-5);}.cls-7{fill:url(#linear-gradient-6);}.cls-8{fill:#515052;}</style><linearGradient id="linear-gradient" x1="49.47" y1="16.4" x2="63.17" y2="8.54" gradientUnits="userSpaceOnUse"><stop offset="0" stop-color="#ca232d"/><stop offset="1" stop-color="#80191d"/></linearGradient><linearGradient id="linear-gradient-2" x1="39.79" y1="33.28" x2="44.25" y2="20.53" gradientUnits="userSpaceOnUse"><stop offset="0" stop-color="#0d703c"/><stop offset="0.7" stop-color="#09934b"/></linearGradient><linearGradient id="linear-gradient-3" x1="31.91" y1="28.13" x2="59.17" y2="10.01" gradientUnits="userSpaceOnUse"><stop offset="0" stop-color="#09934b"/><stop offset="0.03" stop-color="#2d9948"/><stop offset="0.07" stop-color="#58a143"/><stop offset="0.11" stop-color="#7fa840"/><stop offset="0.15" stop-color="#9fad3d"/><stop offset="0.2" stop-color="#b9b23a"/><stop offset="0.25" stop-color="#ceb638"/><stop offset="0.31" stop-color="#dcb837"/><stop offset="0.38" stop-color="#e4ba36"/><stop offset="0.5" stop-color="#e7ba36"/><stop offset="0.57" stop-color="#e6b536"/><stop offset="0.65" stop-color="#e3a535"/><stop offset="0.75" stop-color="#de8c33"/><stop offset="0.85" stop-color="#d76831"/><stop offset="0.95" stop-color="#cf3b2e"/><stop offset="1" stop-color="#ca232d"/></linearGradient><linearGradient id="linear-gradient-4" x1="3220.74" y1="-712.05" x2="3234.19" y2="-696.75" gradientTransform="translate(2903.76 1608.91) rotate(-138.88)" gradientUnits="userSpaceOnUse"><stop offset="0" stop-color="#0d703c"/><stop offset="0" stop-color="#0e713c"/><stop offset="0.1" stop-color="#4f873a"/><stop offset="0.19" stop-color="#869939"/><stop offset="0.28" stop-color="#b0a738"/><stop offset="0.35" stop-color="#ceb237"/><stop offset="0.42" stop-color="#e0b836"/><stop offset="0.46" stop-color="#e7ba36"/><stop offset="0.51" stop-color="#e6b536"/><stop offset="0.56" stop-color="#e3a735"/><stop offset="0.62" stop-color="#df9033"/><stop offset="0.68" stop-color="#d96f32"/><stop offset="0.74" stop-color="#d1452f"/><stop offset="0.78" stop-color="#ca232d"/><stop offset="0.83" stop-color="#c6222c"/><stop offset="0.88" stop-color="#ba212a"/><stop offset="0.93" stop-color="#a61e25"/><stop offset="0.98" stop-color="#8a1a1f"/><stop offset="1" stop-color="#80191d"/></linearGradient><linearGradient id="linear-gradient-5" x1="10.78" y1="21.77" x2="22.42" y2="35.02" gradientUnits="userSpaceOnUse"><stop offset="0.31" stop-color="#0d703c"/><stop offset="0.57" stop-color="#09934b"/></linearGradient><linearGradient id="linear-gradient-6" x1="11.2" y1="9.53" x2="30.11" y2="32.07" gradientUnits="userSpaceOnUse"><stop offset="0" stop-color="#ca232d"/><stop offset="0.04" stop-color="#cf3b2e"/><stop offset="0.11" stop-color="#d76831"/><stop offset="0.19" stop-color="#de8c33"/><stop offset="0.26" stop-color="#e3a535"/><stop offset="0.32" stop-color="#e6b536"/><stop offset="0.37" stop-color="#e7ba36"/><stop offset="0.44" stop-color="#e1b937"/><stop offset="0.52" stop-color="#d1b638"/><stop offset="0.62" stop-color="#b6b13b"/><stop offset="0.72" stop-color="#91ab3e"/><stop offset="0.83" stop-color="#61a243"/><stop offset="0.95" stop-color="#279848"/><stop offset="1" stop-color="#09934b"/></linearGradient></defs><title>40sns_comprido_cor</title><path class="cls-1" d="M44.74,3A16.09,16.09,0,0,0,29.53,13.91c1-.44,8.84-6.55,17-1.77C59,19.26,51.8,32.2,51.24,33.83A16.09,16.09,0,0,0,44.74,3Z"/><path class="cls-2" d="M44.75,35.19A16.07,16.07,0,0,0,60,24.31c-1,.43-12.59,8-21,.94-3.73-3.15-3.88-8.41-3.06-13.6.68-4.3,1.77-5.63,2.32-7.26a16.09,16.09,0,0,0,6.5,30.8Z"/><path class="cls-3" d="M37,13.93c-3.1,3.84-2.88,8.79-5.45,9.2-1,.16-2.66-.72-2.82-3.43a16.08,16.08,0,0,0,11.6,14.86c-1.53-2.11-2.1-3.15-2.1-6,0-7,5.64-12.24,12.47-12.86,5.31-.48,7.86.68,10.16,3.92,0-.17,0-.37,0-.54A15.94,15.94,0,0,0,56.05,7.67C55,6.67,44.47,4.62,37,13.93Z"/><path class="cls-4" d="M12.39,8.66S6.46,15.8,3,20.17c-3.31,4.21-1.64,7.92,1.79,7.92h5.92c-4.69-2.4-.61-6.57.65-8,1.12-1.29,3.58-4.21,5.46-6.46C16.57,11.33,15.62,8.4,12.39,8.66Z"/><path class="cls-5" d="M28.77,28.08a18.4,18.4,0,0,1-2.15-6.25H23.69v6.26h5.08Z"/><path class="cls-6" d="M9.92,21.83,9.83,22,9.76,22l-.06.09c-1.29,1.86-2.17,4.32,1,6h6.21V21.83Z"/><path class="cls-7" d="M12.39,8.66s2.82-3.33,3.67-4.32c2-2.3,7.63-2.12,7.63,3.22V35.23H16.94V15.53C16.94,13.61,16.68,8.32,12.39,8.66Z"/><path class="cls-8" d="M9.53,31.31c-.87,0-1.25.61-1.25,2s.38,2,1.25,2,1.25-.61,1.25-2S10.4,31.31,9.53,31.31Zm0,3.46c-.36,0-.64-.22-.64-1.52s.28-1.49.64-1.49.65.22.65,1.49S9.89,34.77,9.53,34.77ZM92.47,20.6a6.27,6.27,0,0,1,1.32,4.14,7.07,7.07,0,0,1-1.5,4.15,8.64,8.64,0,0,1-11.21,1.43v0l-.83-.65A7.63,7.63,0,0,1,78,25.1l-.07-.47,4-.86.1.51a4,4,0,0,0,4,3.39,4.14,4.14,0,0,0,3.18-1.36,3.66,3.66,0,0,0,.63-1.76,1.91,1.91,0,0,0-.33-1.28l0,0a27.22,27.22,0,0,0-3-2.29,4.7,4.7,0,0,1-1.3-1c-2.64-1.74-4.4-3-5.05-3.94a6.54,6.54,0,0,1-1.13-3.37,6.65,6.65,0,0,1,1.82-4.4c1.64-1.69,3.36-2,5.6-2A7.8,7.8,0,0,1,90.9,7.8a8.35,8.35,0,0,1,2.71,4.81l.09.49-4,.87-.11-.51a3.81,3.81,0,0,0-3.26-3.14c-1.67,0-2.17.23-2.65.75A2.47,2.47,0,0,0,83,12.62a3.41,3.41,0,0,0,.41,1A32.25,32.25,0,0,0,86.56,16c.5.34,1,.68,1.45,1A27.6,27.6,0,0,1,92.47,20.6Zm39.37,0a6.28,6.28,0,0,1,1.33,4.14,7.07,7.07,0,0,1-1.5,4.15,8.64,8.64,0,0,1-11.21,1.43v0l-.84-.65a7.66,7.66,0,0,1-2.29-4.6l-.07-.47,3.95-.86.1.51a4.05,4.05,0,0,0,4,3.39,4.16,4.16,0,0,0,3.19-1.36,3.64,3.64,0,0,0,.62-1.76,2,2,0,0,0-.32-1.28l0,0a28.22,28.22,0,0,0-3-2.29,4.7,4.7,0,0,1-1.3-1c-2.64-1.74-4.4-3-5.06-3.94a6.54,6.54,0,0,1-1.13-3.37,6.7,6.7,0,0,1,1.82-4.4c1.64-1.69,3.36-2,5.61-2a7.82,7.82,0,0,1,4.54,1.57,8.34,8.34,0,0,1,2.7,4.81l.1.49-4,.87-.1-.51a3.81,3.81,0,0,0-3.26-3.14c-1.67,0-2.17.23-2.65.75a2.47,2.47,0,0,0-.69,1.55,3.45,3.45,0,0,0,.42,1A32.25,32.25,0,0,0,125.94,16c.49.34,1,.68,1.44,1A27.15,27.15,0,0,1,131.84,20.6ZM69.1,1.64h.51V36.36H69.1Zm41.52,4.81h4.13V31.63H111.2L100.58,14.86V31.63h-4V6.45h3.56l10.53,16.6ZM138,14.07V13.8h.82v.35a1.72,1.72,0,0,0,1.81,1.94,1.74,1.74,0,0,0,2-1.85c0-2.71-4.42-1.16-4.42-4.48a2.3,2.3,0,0,1,2.52-2.41,2.19,2.19,0,0,1,2.47,2.49h-.81c0-1.12-.53-1.8-1.64-1.8a1.59,1.59,0,0,0-1.73,1.63c0,2.73,4.43,1.23,4.43,4.44a2.49,2.49,0,0,1-2.76,2.67A2.4,2.4,0,0,1,138,14.07Zm80.7-.1h3.2l.74,2.66h.87l-2.7-9.13h-1L217,16.63h.87Zm1.59-5.83h0l1.41,5.14h-2.84Zm-8.52,8.49h-.81V7.5H212l3.49,8h0V7.5h.82v9.13h-1.1l-3.49-7.95h0ZM7.16,31.38h.57v3.78H7L5.9,32.27h0v2.89H5.32V31.38h.74l1.09,2.81h0Zm199.48-14.6c1.87,0,2.91-1.44,2.91-4.71s-1-4.72-2.91-4.72-2.92,1.44-2.92,4.72S204.77,16.78,206.64,16.78Zm0-8.74c1.3,0,2.1,1.07,2.1,4s-.8,4-2.1,4-2.1-1.07-2.1-4S205.34,8,206.64,8Zm22.12,8.59h-4.6V7.5H225v8.44h3.78Zm-65.48,0h-.82V7.5h.82ZM3.15,31.38,2.07,35.16H2.7L3,34.23h1.1l.23.93h.63l-1-3.78Zm-.09,2.37.45-1.86h0L4,33.75ZM202.32,16.63h-.82V7.5h.82Zm-7.58-4.56c0-3.28,1-4.72,2.92-4.72a2.52,2.52,0,0,1,2.62,2.81h-.82c0-1.24-.63-2.12-1.8-2.12s-2.1,1.07-2.1,4,.79,4,2.1,4c1.15,0,1.8-1,1.89-2.55h.81c-.11,2.08-1.07,3.24-2.7,3.24C195.79,16.78,194.74,15.34,194.74,12.07Zm-181.09,22c0,.81-.48,1.14-1.25,1.14a1,1,0,0,1-1.14-1.15V34h.6v.09c0,.46.2.69.62.69a.53.53,0,0,0,.57-.55.64.64,0,0,0-.54-.67l-.41-.14a1,1,0,0,1-.79-1,1,1,0,0,1,1.17-1.06c1,0,1.07.6,1.07,1v.08H13v-.07c0-.35-.15-.55-.53-.55a.48.48,0,0,0-.51.55c0,.32.17.48.57.64l.41.14A1,1,0,0,1,13.65,34.09ZM186.18,7.5H187v9.13h-1.1l-3.49-7.95h0v8h-.82V7.5h1.1l3.49,8h0ZM199.3,26.14c0,.73-.17,1-.6,1s-.59-.29-.59-1,.06-1.06.59-1.06S199.29,25.53,199.3,26.14Zm-6.05-9.51h.87l-2.7-9.13h-1l-2.7,9.13h.87l.74-2.66h3.2Zm-3.76-3.35,1.4-5.14h0l1.41,5.14ZM175.1,22.54h-2.2v9.12h2.2c2.66,0,3.31-1.58,3.31-4.56S177.76,22.54,175.1,22.54Zm0,8.43h-1.33V23.23h1.33c1.79,0,2.54.89,2.54,3.88S176.84,31,175.05,31Zm5.53,0h3.82v.69h-4.64V22.54h4.53v.69h-3.71v3.32H184v.69h-3.46Zm-3.44-18.9c0-3.28-1-4.72-2.91-4.72s-2.91,1.44-2.91,4.72,1,4.71,2.91,4.71S177.14,15.34,177.14,12.07Zm-5,0c0-3,.8-4,2.1-4s2.1,1.07,2.1,4-.8,4-2.1,4S172.13,15,172.13,12.07Zm17.76,10.46v9.15h38.88V22.53Zm5.85,7.2h-1.09V25.94h-1.07v-.71h.1c.71,0,1.15-.27,1.26-.86h.8Zm2.9.11a1.31,1.31,0,0,1-1.5-1.36h1.05c0,.41.13.65.49.65.58,0,.67-.58.67-1.37v-.25h0a1.19,1.19,0,0,1-1,.45c-1,0-1.32-.71-1.32-1.68,0-1.22.54-1.91,1.74-1.91,1.5,0,1.69,1.19,1.69,2.51C200.44,28.4,200.41,29.84,198.64,29.84ZM204,25.31a9.86,9.86,0,0,0-1.58,4.42H201.3A9.38,9.38,0,0,1,203,25.41h-2.26v-.94H204Zm1.9,4.53a1.31,1.31,0,0,1-1.5-1.36h1.05c0,.41.13.65.49.65.58,0,.67-.58.67-1.37v-.25h0a1.18,1.18,0,0,1-1,.45c-.95,0-1.31-.71-1.31-1.68,0-1.22.54-1.91,1.74-1.91,1.5,0,1.69,1.19,1.69,2.51C207.72,28.4,207.69,29.84,205.92,29.84ZM210.3,28h-2.14V27.1h2.14Zm3.77,1.74h-3.3A3,3,0,0,1,212,27.38l.44-.41a1.32,1.32,0,0,0,.56-1.22c0-.45-.19-.67-.53-.67-.55,0-.6.48-.61,1.05h-1v-.21c0-1,.52-1.55,1.66-1.55s1.61.53,1.61,1.46a2.08,2.08,0,0,1-.83,1.71l-.61.56a1.74,1.74,0,0,0-.55.79h2Zm2,.11c-1.3,0-1.69-.7-1.69-2.61,0-1.48.09-2.86,1.69-2.86,1.3,0,1.68.7,1.68,2.6C217.77,28.47,217.69,29.84,216.09,29.84Zm4.29-.11h-1.09V25.94h-1.07v-.71h.1c.71,0,1.15-.27,1.26-.86h.8Zm2.89.11a1.31,1.31,0,0,1-1.49-1.36h1.05c0,.41.13.65.49.65.58,0,.67-.58.67-1.37v-.25h0a1.18,1.18,0,0,1-1,.45c-1,0-1.31-.71-1.31-1.68,0-1.22.54-1.91,1.74-1.91,1.5,0,1.69,1.19,1.69,2.51C225.08,28.4,225.05,29.84,223.27,29.84Zm.66-3.7c0,.73-.16,1-.59,1s-.6-.29-.6-1,.06-1.06.6-1.06S223.93,25.53,223.93,26.14Zm-17.35,0c0,.73-.17,1-.6,1s-.6-.29-.6-1,.07-1.06.6-1.06S206.57,25.53,206.58,26.14Zm10.1.6v.58c0,1.38-.11,1.81-.59,1.81s-.59-.31-.59-1.66v-.59c0-1.38.11-1.8.59-1.8S216.68,25.39,216.68,26.74Zm-45.9-4.2h.82v6.57c0,1.91-.94,2.71-2.61,2.71s-2.61-.8-2.61-2.71V22.54h.82v6.55c0,1.37.59,2,1.79,2s1.79-.67,1.79-2ZM146,31h3.82v.69h-4.64V22.54h4.52v.69H146v3.32h3.46v.69H146Zm13-1.82a2.49,2.49,0,0,1-2.76,2.67,2.41,2.41,0,0,1-2.66-2.71v-.27h.82v.34a1.72,1.72,0,0,0,1.81,1.95,1.74,1.74,0,0,0,2-1.86c0-2.71-4.42-1.16-4.42-4.47a2.31,2.31,0,0,1,2.52-2.42,2.2,2.2,0,0,1,2.48,2.5h-.82c0-1.13-.52-1.81-1.64-1.81a1.59,1.59,0,0,0-1.72,1.64C154.55,27.43,159,25.94,159,29.15Zm-4.68-14.57,0,.77a2.74,2.74,0,0,0,.24,1.28h1a2,2,0,0,1-.38-1.34l0-1c0-1.41-.42-2.06-1.56-2.16v0a2.07,2.07,0,0,0,1.65-2.31,2.12,2.12,0,0,0-2.36-2.29h-2.73v9.13h.82V12.46h1.55C154,12.46,154.24,13,154.29,14.58Zm-1.95-2.81h-1.41V8.19h1.5c1.48,0,1.95.68,1.95,1.79S153.63,11.77,152.34,11.77ZM140.5,22.54h-2.19v9.12h2.19c2.66,0,3.32-1.58,3.32-4.56S143.16,22.54,140.5,22.54ZM140.45,31h-1.33V23.23h1.33c1.79,0,2.55.89,2.55,3.88S142.24,31,140.45,31Zm8.63-14.34h-4.64V7.5H149v.69h-3.71v3.33h3.46v.69h-3.46v3.73h3.82Zm19.36,5.47,1-1.8h.91l-1.26,1.8Zm-1-5.32c-1.79-.09-2.78-1.53-2.78-4.71s1-4.72,2.92-4.72a2.52,2.52,0,0,1,2.62,2.81h-.82c0-1.24-.63-2.12-1.8-2.12s-2.1,1.07-2.1,4,.79,4,2.1,4c1.15,0,1.8-1,1.89-2.55h.82c-.1,1.93-.95,3.08-2.38,3.22l-.45.58,0,0a1.11,1.11,0,0,1,.43-.07.93.93,0,0,1,1,.86c0,.72-.77,1.09-1.36,1.09a3,3,0,0,1-1.14-.26l.16-.4a1.64,1.64,0,0,0,.76.2c.62,0,.89-.26.89-.57s-.34-.46-.68-.46a1,1,0,0,0-.56.13l-.17-.22Zm-5.8-9.28-2.41,9.13h-1l-2.4-9.13h.87l2,8.26h0l2-8.26Zm.35,15-2.69,9.12h.86l.75-2.65h3.19l.74,2.65h.87L163,22.54Zm-.91,5.77,1.41-5.13h0l1.4,5.13Z"/></svg>