<?xml version="1.0" encoding="utf-8"?>
<!-- Generator: Adobe Illustrator 19.2.0, SVG Export Plug-In . SVG Version: 6.00 Build 0)  -->
<svg version="1.1" id="Layer_1" xmlns="http://www.w3.org/2000/svg" xmlns:xlink="http://www.w3.org/1999/xlink" x="0px" y="0px"
	 viewBox="0 0 105 30" style="enable-background:new 0 0 105 30;" xml:space="preserve">
<style type="text/css">
	.st0{fill:#59595B;}
	.st1{fill:url(#SVGID_1_);}
</style>
<g>
	<g>
		<g>
			<g>
				<g>
					<path class="st0" d="M47.3,22.1c1,0,1.8-0.2,2.5-0.7c0.6-0.5,0.9-1.3,0.9-2.3c0-0.8-0.2-1.4-0.6-1.9c-0.4-0.5-0.9-0.9-1.5-1.2
						c-0.6-0.3-1.2-0.6-1.9-0.8c-0.7-0.2-1.3-0.5-1.9-0.9c-0.6-0.4-1.1-0.8-1.5-1.4c-0.4-0.6-0.6-1.4-0.6-2.3c0-0.9,0.2-1.6,0.5-2.2
						c0.3-0.6,0.8-1,1.3-1.4c0.5-0.3,1.1-0.6,1.7-0.7C46.8,6.1,47.4,6,48,6c0.4,0,0.9,0,1.4,0.1c0.5,0.1,1,0.2,1.4,0.3
						c0.4,0.1,0.8,0.3,1.1,0.5c0.3,0.2,0.4,0.4,0.4,0.7c0,0.2-0.1,0.4-0.2,0.7c-0.2,0.3-0.4,0.4-0.6,0.4c-0.1,0-0.3,0-0.5-0.1
						c-0.2-0.1-0.4-0.2-0.6-0.3c-0.3-0.1-0.6-0.2-0.9-0.3C49,7.8,48.6,7.8,48,7.8c-0.5,0-0.9,0-1.3,0.1c-0.4,0.1-0.7,0.2-1,0.4
						c-0.3,0.2-0.5,0.5-0.7,0.8c-0.2,0.3-0.3,0.7-0.3,1.2c0,0.7,0.2,1.2,0.6,1.6c0.4,0.4,0.9,0.7,1.5,1c0.6,0.3,1.2,0.5,1.9,0.8
						c0.7,0.2,1.3,0.6,1.9,1c0.6,0.4,1.1,0.9,1.5,1.6c0.4,0.7,0.6,1.5,0.6,2.6c0,0.9-0.1,1.6-0.4,2.3c-0.3,0.6-0.6,1.2-1.1,1.6
						c-0.5,0.4-1,0.7-1.7,0.9c-0.6,0.2-1.4,0.3-2.1,0.3c-0.8,0-1.5-0.1-2.1-0.3c-0.6-0.2-1.2-0.4-1.6-0.7c-0.4-0.3-0.8-0.6-1-0.9
						c-0.2-0.3-0.4-0.6-0.4-0.9c0-0.2,0.1-0.5,0.3-0.7c0.2-0.3,0.4-0.4,0.6-0.4c0.2,0,0.4,0.1,0.5,0.3c0.2,0.2,0.4,0.4,0.7,0.7
						c0.3,0.3,0.7,0.5,1.1,0.7C46,22,46.6,22.1,47.3,22.1z"/>
					<path class="st0" d="M55.4,6.8c0-0.2,0.1-0.3,0.2-0.5S55.9,6,56.2,6h4.6c0.7,0,1.4,0.1,2,0.3c0.6,0.2,1.2,0.5,1.6,0.9
						c0.5,0.4,0.8,1,1.1,1.6c0.3,0.7,0.4,1.5,0.4,2.4v0.2c0,1-0.1,1.8-0.4,2.4c-0.3,0.7-0.6,1.2-1.1,1.6c-0.5,0.4-1,0.7-1.7,0.9
						c-0.6,0.2-1.3,0.3-2.1,0.3h-3.3v6.3c0,0.2-0.1,0.4-0.3,0.5c-0.2,0.1-0.4,0.2-0.7,0.2c-0.3,0-0.5-0.1-0.7-0.2
						c-0.2-0.1-0.3-0.3-0.3-0.5V6.8z M57.4,7.9v7.2h3.3c1,0,1.8-0.3,2.4-0.9c0.6-0.6,0.9-1.4,0.9-2.6v-0.3c0-1.2-0.3-2.1-0.9-2.6
						c-0.6-0.6-1.4-0.8-2.4-0.8H57.4z"/>
					<path class="st0" d="M75.6,17.2c-0.1,0.2-0.2,0.4-0.4,0.4c-0.1,0.1-0.3,0.1-0.4,0.1c-0.1,0-0.3,0-0.4-0.1
						c-0.1-0.1-0.3-0.2-0.4-0.4l-3.6-7v12.9c0,0.2-0.1,0.4-0.3,0.5c-0.2,0.1-0.4,0.2-0.7,0.2c-0.3,0-0.5-0.1-0.7-0.2
						c-0.2-0.1-0.3-0.3-0.3-0.5V7c0-0.4,0.1-0.6,0.3-0.8C68.9,6.1,69.1,6,69.4,6c0.4,0,0.7,0.1,0.9,0.3c0.2,0.2,0.5,0.5,0.7,1
						l3.8,7.3l3.8-7.3c0.2-0.4,0.5-0.7,0.7-1C79.6,6.2,79.9,6,80.3,6c0.3,0,0.5,0.1,0.7,0.2c0.2,0.1,0.3,0.4,0.3,0.8v16
						c0,0.2-0.1,0.4-0.3,0.5c-0.2,0.1-0.4,0.2-0.7,0.2c-0.3,0-0.5-0.1-0.7-0.2c-0.2-0.1-0.3-0.3-0.3-0.5V10.3L75.6,17.2z"/>
					<path class="st0" d="M88.9,22.1c1,0,1.8-0.2,2.5-0.7c0.6-0.5,0.9-1.3,0.9-2.3c0-0.8-0.2-1.4-0.6-1.9c-0.4-0.5-0.9-0.9-1.5-1.2
						c-0.6-0.3-1.2-0.6-1.9-0.8c-0.7-0.2-1.3-0.5-1.9-0.9c-0.6-0.4-1.1-0.8-1.5-1.4c-0.4-0.6-0.6-1.4-0.6-2.3c0-0.9,0.2-1.6,0.5-2.2
						c0.3-0.6,0.8-1,1.3-1.4c0.5-0.3,1.1-0.6,1.7-0.7C88.4,6.1,89,6,89.6,6c0.4,0,0.9,0,1.4,0.1c0.5,0.1,1,0.2,1.4,0.3
						c0.4,0.1,0.8,0.3,1.1,0.5c0.3,0.2,0.4,0.4,0.4,0.7c0,0.2-0.1,0.4-0.2,0.7c-0.2,0.3-0.4,0.4-0.6,0.4c-0.1,0-0.3,0-0.5-0.1
						c-0.2-0.1-0.4-0.2-0.6-0.3C91.7,8.1,91.3,8,91,7.9c-0.4-0.1-0.8-0.1-1.3-0.1c-0.5,0-0.9,0-1.3,0.1c-0.4,0.1-0.7,0.2-1,0.4
						c-0.3,0.2-0.5,0.5-0.7,0.8c-0.2,0.3-0.3,0.7-0.3,1.2c0,0.7,0.2,1.2,0.6,1.6c0.4,0.4,0.9,0.7,1.5,1c0.6,0.3,1.2,0.5,1.9,0.8
						c0.7,0.2,1.3,0.6,1.9,1c0.6,0.4,1.1,0.9,1.5,1.6c0.4,0.7,0.6,1.5,0.6,2.6c0,0.9-0.1,1.6-0.4,2.3c-0.3,0.6-0.6,1.2-1.1,1.6
						c-0.5,0.4-1,0.7-1.7,0.9C90.5,23.9,89.8,24,89,24c-0.8,0-1.5-0.1-2.1-0.3c-0.6-0.2-1.2-0.4-1.6-0.7c-0.4-0.3-0.8-0.6-1-0.9
						c-0.2-0.3-0.4-0.6-0.4-0.9c0-0.2,0.1-0.5,0.3-0.7c0.2-0.3,0.4-0.4,0.6-0.4c0.2,0,0.4,0.1,0.5,0.3c0.2,0.2,0.4,0.4,0.7,0.7
						c0.3,0.3,0.7,0.5,1.1,0.7C87.6,22,88.2,22.1,88.9,22.1z"/>
				</g>
				<g>
					<g>
						<path class="st0" d="M96.8,21.6h0.7c0,0,0.1,0,0.1,0.1c0,0,0,0.1,0,0.1c0,0,0,0.1,0,0.1c0,0-0.1,0.1-0.1,0.1h-0.7v1.2h1.5
							c0,0,0.1,0,0.1,0.1c0,0,0,0.1,0,0.1c0,0,0,0.1,0,0.1c0,0-0.1,0.1-0.1,0.1h-1.7c0,0-0.1,0-0.1,0c0,0-0.1-0.1-0.1-0.1v-3.2
							c0,0,0-0.1,0.1-0.1c0,0,0.1,0,0.1,0h1.7c0,0,0.1,0,0.1,0.1c0,0,0,0.1,0,0.1c0,0.1,0,0.1,0,0.1c0,0-0.1,0.1-0.1,0.1h-1.5V21.6z
							"/>
						<path class="st0" d="M98.9,20.2C98.9,20.2,98.9,20.2,98.9,20.2c0.1-0.1,0.1-0.1,0.2-0.1h0.9c0.1,0,0.3,0,0.4,0.1
							c0.1,0,0.2,0.1,0.3,0.2c0.1,0.1,0.2,0.2,0.2,0.3c0.1,0.1,0.1,0.3,0.1,0.5v0c0,0.2,0,0.3-0.1,0.5c-0.1,0.1-0.1,0.2-0.2,0.3
							c-0.1,0.1-0.2,0.1-0.3,0.2c-0.1,0-0.3,0.1-0.4,0.1h-0.6v1.2c0,0,0,0.1-0.1,0.1c0,0-0.1,0-0.1,0c-0.1,0-0.1,0-0.1,0
							c0,0-0.1-0.1-0.1-0.1V20.2z M99.3,20.5v1.4h0.6c0.2,0,0.3-0.1,0.5-0.2c0.1-0.1,0.2-0.3,0.2-0.5v-0.1c0-0.2-0.1-0.4-0.2-0.5
							c-0.1-0.1-0.3-0.2-0.5-0.2H99.3z"/>
						<path class="st0" d="M101.8,21.6h0.7c0,0,0.1,0,0.1,0.1c0,0,0,0.1,0,0.1c0,0,0,0.1,0,0.1c0,0-0.1,0.1-0.1,0.1h-0.7v1.2h1.5
							c0,0,0.1,0,0.1,0.1c0,0,0,0.1,0,0.1c0,0,0,0.1,0,0.1c0,0-0.1,0.1-0.1,0.1h-1.7c0,0-0.1,0-0.1,0c0,0-0.1-0.1-0.1-0.1v-3.2
							c0,0,0-0.1,0.1-0.1c0,0,0.1,0,0.1,0h1.7c0,0,0.1,0,0.1,0.1c0,0,0,0.1,0,0.1c0,0.1,0,0.1,0,0.1c0,0-0.1,0.1-0.1,0.1h-1.5V21.6z
							"/>
					</g>
				</g>
			</g>
			<linearGradient id="SVGID_1_" gradientUnits="userSpaceOnUse" x1="20.8643" y1="11.2782" x2="4.7644" y2="20.2173">
				<stop  offset="0" style="stop-color:#E32532"/>
				<stop  offset="7.452269e-02" style="stop-color:#E42E31"/>
				<stop  offset="0.1961" style="stop-color:#E84630"/>
				<stop  offset="0.3496" style="stop-color:#EF6E2D"/>
				<stop  offset="0.5272" style="stop-color:#F7A52A"/>
				<stop  offset="0.6" style="stop-color:#FBBD28"/>
				<stop  offset="0.6349" style="stop-color:#E1B72D"/>
				<stop  offset="0.7347" style="stop-color:#9BA63B"/>
				<stop  offset="0.8247" style="stop-color:#649946"/>
				<stop  offset="0.9017" style="stop-color:#3C8F4E"/>
				<stop  offset="0.9627" style="stop-color:#248953"/>
				<stop  offset="1" style="stop-color:#1B8755"/>
			</linearGradient>
			<path class="st1" d="M27.8,10.7L27.8,10.7l-4.4-6.3L19.2,2l-3.6-0.7l-3.3,0.2L8.5,2.9L6.6,4.2L4,6.9L2.8,8.6l-0.9,2l-0.3,2.2
				L1.8,16l0.1,2l1.4,2.5l1.2,2.6l0,0.1l3.1,2.7l2.5,1.3l3.1,0.8l3.5,0l3.6-1.1l3.6-2.4l2.9-3.9l0-0.1l1.3-4.8l0-0.1L27.8,10.7z
				 M21.7,11.3l-0.1-2.9l3.1,3.1L21.7,11.3z M24.8,11.8l-2.1,2.6l-1-2.8L24.8,11.8z M21.6,7.9l1.4-2.1c0.3,1,1.2,3.7,1.6,5.1
				L21.6,7.9z M21.5,7.4l-0.2-1.9l1.4,0.1L21.5,7.4z M21.5,12l1,2.8L19.7,16L21.5,12z M22.5,15.1l0,4.4l-2.8-3.1L22.5,15.1z
				 M16.7,9.7l-2.9-1l2.4-1.4L16.7,9.7z M16.6,6.7l0.2-1.9l3.7,0.6L16.6,6.7z M16.6,7.2L20.8,8l-3.7,1.8L16.6,7.2z M13.6,9l3.1,1.1
				l-2.6,5.3L13.6,9z M13.8,15.9l-2.4-0.5l2-5.7L13.8,15.9z M13.8,8.3l0.6-1.3l1.4,0.1L13.8,8.3z M16.2,6.7l-1.5-0.1L16.4,5
				L16.2,6.7z M14.3,6.5L12,4.8l4.1-0.1L14.3,6.5z M13.3,8.5L10,8.6l4-1.5L13.3,8.5z M13.2,8.9l-2.1,6L9.1,9L13.2,8.9z M10.7,14.7
				l-2.3-2.4l0.5-2.7L10.7,14.7z M10.4,14.9c-1.7-0.8-4.2-1.9-4.9-2.1l0-1.6l2.7,1.2L10.4,14.9z M10.4,15.4l-5.2,0.6
				c0-1.3,0.1-2.4,0.2-2.8C5.9,13.4,8.2,14.4,10.4,15.4z M10.7,15.7L9,18.3l-3.4-2L10.7,15.7z M11,15.9l0.7,4.4l-2.4-1.9L11,15.9z
				 M11.3,15.7l2.4,0.5L12,20.2L11.3,15.7z M14.1,16.3l2.1,0.7l-3.7,3.1L14.1,16.3z M14.4,16.1l6.1-3.8l-4,4.5L14.4,16.1z
				 M14.4,15.6l2.7-5.4l4,1.3L14.4,15.6z M17.5,10l3.7-1.8l0.1,3L17.5,10z M17.1,6.9L21,5.6l0.2,2.1L17.1,6.9z M16.9,4.4l1.2-1.5
				L20.6,5L16.9,4.4z M16.6,4.3l-1.9-1.8l3.1,0.4L16.6,4.3z M16.1,4.4l-4.2,0.1l2.2-2L16.1,4.4z M13.9,6.7L9.3,8.5l2.2-3.5L13.9,6.7
				z M8.8,8.6L7.3,7.5l3.6-2.3L8.8,8.6z M8.7,8.9l-0.5,2.6L7.2,7.9L8.7,8.9z M7.9,12l-2.5-1.1L6.9,8L7.9,12z M6.4,8.1l-1.3,2.6
				l-1.9-0.1L6.4,8.1z M3.4,10.1L5.2,7l1.4,0.6L3.4,10.1z M5,11.1l0,1.4L3.2,11L5,11.1z M5.2,16.4l3.4,2l-3.7,1.4L5.2,16.4z
				 M8.4,18.9l-2.8,3.3l-0.6-2L8.4,18.9z M8.9,18.9l0.5,2.9L6,22.4L8.9,18.9z M9.4,22.2l0,0.4l-2,0L9.4,22.2z M9.3,18.9l2.3,1.8
				l-1.9,0.9L9.3,18.9z M10.7,21.6l-0.9,0.7l0-0.3L10.7,21.6z M11.9,21.1l1.4,2.9L10,22.7L11.9,21.1z M12.5,21.6l3.5,3.3l-2.3-0.7
				L12.5,21.6z M12.8,21.3l6.6,2.5L16.8,25L12.8,21.3z M12.3,20.7l4.2-3.5l3,6.2L12.3,20.7z M16.8,17.1l2.4-0.5l0.4,6.2L16.8,17.1z
				 M19.3,16.2L17,16.7l3.8-4.3L19.3,16.2z M22.4,20L20,23.3l-0.4-6.4L22.4,20z M22.7,20.2l2,1l-4.3,2.1L22.7,20.2z M23.1,20
				l3.2-1.6L25.1,21L23.1,20z M22.8,19.7l0-4.5l3.5,2.8L22.8,19.7z M25.2,11.9l2.4,3.4L23,14.7L25.2,11.9z M23.6,6.2l3.8,4.5
				l-2.1,0.7C25,10.9,24.3,8.5,23.6,6.2z M23.4,5l1.9,2.8l-2.1-2.4L23.4,5z M23.2,4.6L23,5.1l-2.1-1.7L23.2,4.6z M22.6,5.2l-1.3-0.1
				L19.9,3L22.6,5.2z M20.3,4.3l-1.8-1.6L19,2.4L20.3,4.3z M18.6,2.2l-0.4,0.2L17,1.9L18.6,2.2z M15.6,1.7l1.4,0.7l-2.3-0.3
				L15.6,1.7z M14.7,1.7L14.1,2l-0.7-0.2L14.7,1.7z M12.3,1.9l0.9,0.3l-2.8,0.4L12.3,1.9z M13.5,2.5l-2.1,1.9L9.2,3.1L13.5,2.5z
				 M8.7,3.3L11,4.6l-4,0.9L8.7,3.3z M6.9,4.4l0.9-0.6l-1,1.4L6.9,4.4z M10.4,5.1L7,7.2L6.7,6L10.4,5.1z M6.7,7.2L5.5,6.7l0.8-0.6
				L6.7,7.2z M6.4,5.1L6.3,5.7L5.8,6.1L6.4,5.1z M5.6,5.7L5,6.6L4.7,6.7L5.6,5.7z M4.2,7.2l0.3-0.1C4.3,7.3,4.1,7.5,3.8,7.7L4.2,7.2
				z M3,8.9l1.3-1.1l-1.4,2.3L3,8.9z M2.8,11.2L5,13l-2.7,2.5L2.8,11.2z M2.2,10.8l0.6-1.6l-0.3,1.6L2,12.1L2.2,10.8z M2,12.9
				l0.4-0.8l-0.3,2L2,12.9z M2.3,17.9l0-0.6l0.4,1.3L2.3,17.9z M2.2,16L5,13.5c-0.1,0.8-0.1,2.4-0.1,2.6l-1.4,3.8L2.2,16z M4.7,17.4
				L4.5,20l-0.8,0.2L4.7,17.4z M4.6,20.3l0.5,1.6l-1.3-1.4L4.6,20.3z M4.1,21.4l1.1,1.1l-0.4,0.2L4.1,21.4z M5,23.1l0.4-0.2l1.2,1.6
				L5,23.1z M5.9,22.8l3.5,0.1l-1.5,2.5L5.9,22.8z M8,25.7l1.5-2.4l0.5,3.4L8,25.7z M10.4,26.8l-0.5-3.4l2.9,4L10.4,26.8z
				 M13.1,27.2l-3-4.1l3.3,1.3L13.1,27.2z M13.8,24.6l2.5,0.7l-2.9,2L13.8,24.6z M16.7,27.5l-2.9,0l3-2.1l1.9,1.2L16.7,27.5z
				 M17.2,25.3l2.4-1.1L19,26.4L17.2,25.3z M20,23.9l4.1-2l-4.7,4.2L20,23.9z M20.3,26.4l-0.4,0c0.4-0.2,0.9-0.4,1.3-0.7L20.3,26.4z
				 M23.9,23.7c-0.1,0.2-0.1,0.4-0.2,0.4c0,0-0.1,0-0.1,0.1l-3.4,1.7l4.4-4L23.9,23.7z M24.6,23c0.2-0.6,0.5-1.2,0.7-1.7l0.8-0.4
				L24.6,23z M26.5,20.3l-1,0.5l1-2L26.5,20.3z M26.9,19.1l0-0.9l0.5-1L26.9,19.1z M26.7,17.8l-3.4-2.7l4.4,0.7L26.7,17.8z
				 M25.5,11.7l2-0.7l0.3,3.9L25.5,11.7z"/>
		</g>
		<g>
			<g>
				<g>
					<rect x="34.9" y="1.3" class="st0" width="0.4" height="27.4"/>
				</g>
			</g>
		</g>
	</g>
</g>
</svg>
