<?xml version="1.0" encoding="UTF-8" standalone="no"?>
<!-- Generator: Adobe Illustrator 16.0.0, SVG Export Plug-In . SVG Version: 6.00 Build 0)  -->
<!DOCTYPE svg  PUBLIC '-//W3C//DTD SVG 1.1//EN'  'http://www.w3.org/Graphics/SVG/1.1/DTD/svg11.dtd'>
<svg id="Layer_1" xmlns="http://www.w3.org/2000/svg" xml:space="preserve" height="67px" viewBox="0 0 67 67" width="67px" version="1.1" y="0px" x="0px" xmlns:xlink="http://www.w3.org/1999/xlink" enable-background="new 0 0 67 67">
<path d="m38.167 22.283c-2.619 0.953-4.274 3.411-4.086 6.101l0.063 1.038-1.048-0.127c-3.813-0.487-7.145-2.139-9.974-4.915l-1.383-1.377-0.356 1.017c-0.754 2.267-0.272 4.661 1.299 6.271 0.838 0.89 0.649 1.017-0.796 0.487-0.503-0.169-0.943-0.296-0.985-0.233-0.146 0.149 0.356 2.076 0.754 2.839 0.545 1.06 1.655 2.097 2.871 2.712l1.027 0.487-1.215 0.021c-1.173 0-1.215 0.021-1.089 0.467 0.419 1.378 2.074 2.84 3.918 3.476l1.299 0.444-1.131 0.678c-1.676 0.977-3.646 1.525-5.616 1.566-0.944 0.021-1.719 0.106-1.719 0.169 0 0.212 2.557 1.397 4.044 1.865 4.463 1.377 9.765 0.782 13.746-1.568 2.829-1.674 5.657-5 6.978-8.221 0.713-1.715 1.426-4.852 1.426-6.354 0-0.975 0.063-1.102 1.236-2.267 0.691-0.678 1.34-1.419 1.467-1.631 0.209-0.403 0.188-0.403-0.881-0.043-1.781 0.636-2.033 0.551-1.152-0.402 0.65-0.678 1.426-1.907 1.426-2.267 0-0.063-0.314 0.042-0.671 0.233-0.377 0.212-1.216 0.53-1.845 0.72l-1.131 0.361-1.026-0.7c-0.566-0.381-1.361-0.805-1.781-0.932-1.07-0.296-2.705-0.254-3.669 0.085zm-4.667 41.717c-16.844 0-30.5-13.655-30.5-30.5s13.656-30.5 30.5-30.5c16.845 0 30.5 13.655 30.5 30.5s-13.655 30.5-30.5 30.5z" fill="#666"/>
</svg>
