<?xml version="1.0" encoding="utf-8"?>
<!-- Generator: Adobe Illustrator 22.1.0, SVG Export Plug-In . SVG Version: 6.00 Build 0)  -->
<svg version="1.1" id="Layer_1" xmlns="http://www.w3.org/2000/svg" xmlns:xlink="http://www.w3.org/1999/xlink" x="0px" y="0px"
	 viewBox="0 0 351.7 108.5" style="enable-background:new 0 0 351.7 108.5;" xml:space="preserve">
<style type="text/css">
	.st0{fill:#FFFFFF;}
</style>
<title>Artboard 1</title>
<path class="st0" d="M81.5,32.8c-0.4,4.2-4.1,7.3-8.3,6.9c-4.2-0.4-7.3-4.1-6.9-8.3c0.4-4.2,4.1-7.3,8.3-6.9
	C78.8,24.9,81.9,28.6,81.5,32.8C81.5,32.8,81.5,32.8,81.5,32.8 M83.1,22.7L83.1,22.7C71.5,11,48.2,8.3,2.9,27.9
	C2.7,28,2,28.3,2,28.3c-1.2,0.8-2,2.1-2,3.6c-0.1,2.3,1.7,4.2,4,4.2c0.1,0,0.1,0,0.2,0c0.7-0.1,1.4-0.3,2-0.6
	c6.7-2.4,39.4-11.4,56.7,4.2c0.6,0.5,1.1,0.9,1.6,1.4s1,1,1.4,1.6c15.5,17.3,6.6,50.1,4.1,56.7c-0.3,0.6-0.5,1.3-0.6,2
	c-0.1,2.3,1.7,4.2,4,4.2c0.1,0,0.2,0,0.2,0c1.5,0,2.8-0.8,3.6-2c0.2-0.3,0.3-0.6,0.4-0.9C97.4,57.6,94.7,34.3,83.1,22.7"/>
<path class="st0" d="M105.6,10.8c-0.5,5.4-5.3,9.5-10.7,9c-5.4-0.5-9.5-5.3-9-10.7c0.5-5.4,5.3-9.5,10.7-9
	C102.1,0.5,106.1,5.3,105.6,10.8"/>
<path class="st0" d="M60.5,51.2c-0.3,2.9-2.8,5-5.6,4.7s-5-2.8-4.7-5.6c0.3-2.9,2.8-5,5.6-4.7c0,0,0,0,0,0
	C58.6,45.8,60.7,48.3,60.5,51.2C60.5,51.2,60.5,51.2,60.5,51.2"/>
<path class="st0" d="M45.9,64.3c-0.2,2.1-2.1,3.7-4.2,3.6c-2.1-0.2-3.7-2.1-3.6-4.2c0.2-2.1,2.1-3.7,4.2-3.6c0,0,0,0,0,0
	C44.5,60.3,46.1,62.2,45.9,64.3"/>
<path class="st0" d="M186.6,23.1h-6.3c-2,0.1-3.6,1.8-3.5,3.8v50.2l-38.9-52.8c-1.6-2.2-2.8-2.4-4.2-2.4h-0.8
	c-2,0.1-3.5,1.7-3.5,3.7v78c-0.1,2,1.5,3.7,3.5,3.8h6.2c2-0.1,3.6-1.8,3.5-3.8V51.9l39,54.4c1.5,2.1,2.8,2.3,4.2,2.3h0.9
	c2-0.1,3.5-1.7,3.5-3.7v-78C190.1,24.9,188.5,23.2,186.6,23.1z"/>
<path class="st0" d="M214.9,23.1h-6.5c-2,0.1-3.5,1.8-3.5,3.8v76.7c-0.1,2,1.5,3.7,3.5,3.8h6.5c2-0.1,3.5-1.8,3.5-3.8V26.9
	C218.4,24.9,216.9,23.2,214.9,23.1z"/>
<path class="st0" d="M259.8,23.1h-22.6c-2,0.1-3.6,1.8-3.5,3.8v76.7c-0.1,2,1.5,3.7,3.5,3.8h6.4c2-0.1,3.5-1.8,3.5-3.8V78h12.7
	c13.1,0,23.7-12.4,23.7-27.7C283.5,35.3,272.9,23.1,259.8,23.1z M270.1,50.2c0,7.4-4.6,13.2-10.6,13.2h-12.5V37.9h12.5
	C265.5,37.9,270.1,43.3,270.1,50.2z"/>
<path class="st0" d="M348.2,23.1h-6.5c-2,0.1-3.6,1.8-3.5,3.8v30.7h-33V26.9c0.1-2-1.5-3.7-3.5-3.8h-6.5c-2,0.1-3.5,1.8-3.5,3.8
	v76.7c-0.1,2,1.5,3.7,3.5,3.8h6.5c2-0.1,3.6-1.8,3.5-3.8V71.7h33v31.9c-0.1,2,1.5,3.7,3.5,3.8h6.5c2-0.1,3.5-1.8,3.5-3.8V26.9
	C351.8,24.9,350.2,23.2,348.2,23.1z"/>
</svg>
