<?xml version="1.0" encoding="UTF-8" standalone="no"?>
<svg
   xmlns:dc="http://purl.org/dc/elements/1.1/"
   xmlns:cc="http://creativecommons.org/ns#"
   xmlns:rdf="http://www.w3.org/1999/02/22-rdf-syntax-ns#"
   xmlns:svg="http://www.w3.org/2000/svg"
   xmlns="http://www.w3.org/2000/svg"
   viewBox="0 0 272.12534 90.708664"
   height="90.708664"
   width="272.12534"
   xml:space="preserve"
   id="svg2"
   version="1.1"><metadata
     id="metadata8"><rdf:RDF><cc:Work
         rdf:about=""><dc:format>image/svg+xml</dc:format><dc:type
           rdf:resource="http://purl.org/dc/dcmitype/StillImage" /></cc:Work></rdf:RDF></metadata><defs
     id="defs6"><clipPath
       id="clipPath18"
       clipPathUnits="userSpaceOnUse"><path
         id="path16"
         d="M 2.835,17.008 H 57.827 V 51.024 H 2.835 Z" /></clipPath><clipPath
       id="clipPath130"
       clipPathUnits="userSpaceOnUse"><path
         id="path128"
         d="m 76.535,12.472 h 127.56 V 51.023 H 76.535 Z" /></clipPath><clipPath
       id="clipPath234"
       clipPathUnits="userSpaceOnUse"><path
         id="path232"
         d="m 76.535,12.472 h 127.49 V 51.023 H 76.535 Z" /></clipPath></defs><g
     transform="matrix(1.3333333,0,0,-1.3333333,0,90.708667)"
     id="g10"><g
       id="g12"><g
         clip-path="url(#clipPath18)"
         id="g14"><g
           transform="translate(66.1494,50.4531)"
           id="g20"><path
             id="path22"
             style="fill:#000000;fill-opacity:1;fill-rule:nonzero;stroke:none"
             d="m 0,0 h 1.579 v -6.236 c 0,-1.164 0.616,-1.873 1.874,-1.873 1.271,0 1.9,0.722 1.9,1.846 V 0 H 6.918 V -6.316 C 6.918,-8.35 5.527,-9.568 3.453,-9.568 1.379,-9.568 0,-8.35 0,-6.316 Z" /></g><g
           transform="translate(75.009,48.1782)"
           id="g24"><path
             id="path26"
             style="fill:#000000;fill-opacity:1;fill-rule:nonzero;stroke:none"
             d="m 0,0 h 1.472 v -0.683 h 0.027 c 0.375,0.482 1.111,0.884 1.913,0.884 1.553,0 2.53,-0.977 2.53,-2.65 V -7.092 H 4.43 v 4.242 c 0,1.043 -0.375,1.646 -1.379,1.646 -0.937,0 -1.526,-0.576 -1.526,-1.486 V -7.092 H 0 Z" /></g><path
           id="path28"
           style="fill:#000000;fill-opacity:1;fill-rule:nonzero;stroke:none"
           d="m 82.918,48.178 h 1.525 v -7.092 h -1.525 z m -0.027,2.676 h 1.579 v -1.512 h -1.579 z" /><g
           transform="translate(85.6749,48.1782)"
           id="g30"><path
             id="path32"
             style="fill:#000000;fill-opacity:1;fill-rule:nonzero;stroke:none"
             d="m 0,0 h 1.579 l 1.9,-4.898 H 3.506 L 5.406,0 H 6.972 L 4.122,-7.092 H 2.85 Z" /></g><g
           transform="translate(98.1203,45.3279)"
           id="g34"><path
             id="path36"
             style="fill:#000000;fill-opacity:1;fill-rule:nonzero;stroke:none"
             d="M 0,0 C -0.054,0.95 -0.602,1.7 -1.74,1.7 -2.837,1.7 -3.399,0.816 -3.453,0 Z m 1.271,-2.783 c -0.548,-0.884 -1.445,-1.66 -2.944,-1.66 -1.927,0 -3.332,1.446 -3.332,3.747 0,2.302 1.405,3.747 3.265,3.747 1.847,0 3.225,-1.419 3.225,-3.747 v -0.455 h -4.951 c 0.04,-1.151 0.643,-1.94 1.767,-1.94 1.083,0 1.565,0.722 1.873,1.204 z" /></g><g
           transform="translate(101.1448,48.1782)"
           id="g38"><path
             id="path40"
             style="fill:#000000;fill-opacity:1;fill-rule:nonzero;stroke:none"
             d="M 0,0 H 1.445 V -0.75 H 1.472 C 1.753,-0.201 2.342,0.134 2.944,0.134 3.199,0.134 3.412,0.067 3.573,0 L 3.332,-1.486 c -0.147,0.041 -0.321,0.108 -0.562,0.108 -0.803,0 -1.245,-0.536 -1.245,-1.767 V -7.092 H 0 Z" /></g><g
           transform="translate(106.846,43.789)"
           id="g42"><path
             id="path44"
             style="fill:#000000;fill-opacity:1;fill-rule:nonzero;stroke:none"
             d="m 0,0 c 0.12,-1.044 0.709,-1.619 1.713,-1.619 0.964,0 1.499,0.361 1.499,0.91 0,0.562 -0.442,0.696 -1.954,1.124 -1.606,0.455 -2.382,1.003 -2.382,2.074 0,1.071 0.91,2.101 2.61,2.101 1.699,0 2.582,-0.883 2.903,-2.074 L 3.105,2.141 C 2.878,2.81 2.462,3.319 1.486,3.319 0.683,3.319 0.268,2.944 0.268,2.556 0.268,2.088 0.562,1.967 2.355,1.459 4.149,0.95 4.59,0.294 4.59,-0.736 c 0,-0.99 -0.816,-2.168 -2.824,-2.168 -2.087,0 -2.984,1.285 -3.158,2.57 z" /></g><path
           id="path46"
           style="fill:#000000;fill-opacity:1;fill-rule:nonzero;stroke:none"
           d="m 112.935,48.178 h 1.525 v -7.092 h -1.525 z m -0.026,2.676 h 1.579 v -1.512 h -1.579 z" /><g
           transform="translate(116.8298,46.8666)"
           id="g48"><path
             id="path50"
             style="fill:#000000;fill-opacity:1;fill-rule:nonzero;stroke:none"
             d="M 0,0 H -1.07 V 1.312 H 0.04 V 3.051 H 1.485 V 1.312 h 1.78 V 0 H 1.499 v -3.252 c 0,-0.736 0.147,-1.057 0.923,-1.057 H 2.984 V -5.781 H 2.302 C 0.522,-5.781 0,-4.978 0,-3.412 Z" /></g><g
           transform="translate(125.8363,45.3279)"
           id="g52"><path
             id="path54"
             style="fill:#000000;fill-opacity:1;fill-rule:nonzero;stroke:none"
             d="M 0,0 C -0.053,0.95 -0.602,1.7 -1.74,1.7 -2.837,1.7 -3.399,0.816 -3.452,0 Z m 1.271,-2.783 c -0.548,-0.884 -1.445,-1.66 -2.943,-1.66 -1.928,0 -3.333,1.446 -3.333,3.747 0,2.302 1.405,3.747 3.265,3.747 1.848,0 3.226,-1.419 3.226,-3.747 v -0.455 h -4.952 c 0.04,-1.151 0.643,-1.94 1.767,-1.94 1.084,0 1.566,0.722 1.873,1.204 z" /></g><g
           transform="translate(129.1959,46.8666)"
           id="g56"><path
             id="path58"
             style="fill:#000000;fill-opacity:1;fill-rule:nonzero;stroke:none"
             d="M 0,0 H -1.071 V 1.312 H 0.04 V 3.051 H 1.485 V 1.312 h 1.78 V 0 H 1.499 v -3.252 c 0,-0.736 0.147,-1.057 0.923,-1.057 H 2.984 V -5.781 H 2.302 C 0.522,-5.781 0,-4.978 0,-3.412 Z" /></g><g
           transform="translate(138.2019,45.3279)"
           id="g60"><path
             id="path62"
             style="fill:#000000;fill-opacity:1;fill-rule:nonzero;stroke:none"
             d="M 0,0 C -0.054,0.95 -0.602,1.7 -1.74,1.7 -2.837,1.7 -3.398,0.816 -3.453,0 Z m 1.271,-2.783 c -0.548,-0.884 -1.445,-1.66 -2.944,-1.66 -1.927,0 -3.332,1.446 -3.332,3.747 0,2.302 1.405,3.747 3.265,3.747 1.847,0 3.225,-1.419 3.225,-3.747 v -0.455 h -4.951 c 0.04,-1.151 0.643,-1.94 1.767,-1.94 1.083,0 1.565,0.722 1.873,1.204 z" /></g><g
           transform="translate(141.5615,46.8666)"
           id="g64"><path
             id="path66"
             style="fill:#000000;fill-opacity:1;fill-rule:nonzero;stroke:none"
             d="M 0,0 H -1.071 V 1.312 H 0.04 V 3.051 H 1.485 V 1.312 h 1.78 V 0 H 1.499 v -3.252 c 0,-0.736 0.146,-1.057 0.923,-1.057 H 2.984 V -5.781 H 2.302 C 0.522,-5.781 0,-4.978 0,-3.412 Z" /></g><path
           id="path68"
           style="fill:#000000;fill-opacity:1;fill-rule:nonzero;stroke:none"
           d="m 66.35,32.804 h 1.525 V 25.712 H 66.35 Z m -0.027,2.676 h 1.58 v -1.512 h -1.58 z" /><g
           transform="translate(73.2426,29.2308)"
           id="g70"><path
             id="path72"
             style="fill:#000000;fill-opacity:1;fill-rule:nonzero;stroke:none"
             d="m 0,0 c 0.227,-1.499 0.682,-2.262 2.114,-2.262 1.151,0 1.82,0.495 1.82,1.272 0,0.762 -0.321,1.07 -2.476,1.739 -2.007,0.629 -2.743,1.486 -2.743,2.703 0,1.352 1.097,2.596 3.078,2.596 1.659,0 3.105,-0.789 3.412,-2.569 L 3.666,3.104 C 3.439,3.934 2.984,4.577 1.793,4.577 0.736,4.577 0.267,4.081 0.267,3.466 c 0,-0.602 0.308,-0.817 2.369,-1.513 2.262,-0.762 2.85,-1.472 2.85,-2.85 0,-1.579 -1.258,-2.823 -3.385,-2.823 -2.141,0 -3.48,1.124 -3.76,3.359 z" /></g><g
           transform="translate(81.9668,27.3037)"
           id="g74"><path
             id="path76"
             style="fill:#000000;fill-opacity:1;fill-rule:nonzero;stroke:none"
             d="m 0,0 c 0.295,-0.281 0.683,-0.415 1.124,-0.415 1.031,0 1.767,0.83 1.767,2.369 0,0.562 -0.107,1.017 -0.294,1.378 z m 2.209,3.894 c -0.295,0.281 -0.67,0.428 -1.085,0.428 -1.004,0 -1.779,-0.803 -1.779,-2.368 0,-0.576 0.093,-1.044 0.268,-1.406 z m -3.547,-4.577 c -0.522,0.63 -0.829,1.513 -0.829,2.637 0,2.422 1.539,3.747 3.291,3.747 0.723,0 1.406,-0.241 1.968,-0.683 L 3.6,5.687 4.108,5.259 3.56,4.563 C 4.069,3.934 4.39,3.051 4.39,1.954 c 0,-2.422 -1.433,-3.747 -3.266,-3.747 -0.763,0 -1.458,0.227 -2.007,0.655 l -0.495,-0.642 -0.508,0.415 z" /></g><g
           transform="translate(87.9632,32.8037)"
           id="g78"><path
             id="path80"
             style="fill:#000000;fill-opacity:1;fill-rule:nonzero;stroke:none"
             d="m 0,0 h 1.445 v -0.75 h 0.027 c 0.281,0.549 0.87,0.884 1.471,0.884 0.255,0 0.469,-0.067 0.63,-0.134 L 3.332,-1.485 c -0.148,0.04 -0.321,0.106 -0.562,0.106 -0.803,0 -1.245,-0.535 -1.245,-1.766 v -3.947 l -1.525,0 z" /></g><g
           transform="translate(93.8112,27.6918)"
           id="g82"><path
             id="path84"
             style="fill:#000000;fill-opacity:1;fill-rule:nonzero;stroke:none"
             d="m 0,0 c 0,-0.576 0.401,-0.856 1.165,-0.856 1.217,0 1.726,0.588 1.726,1.19 V 1.753 H 2.864 C 2.784,1.579 2.65,1.392 1.245,1.017 0.161,0.749 0,0.388 0,0 M 3.064,-1.271 H 3.038 c -0.067,-0.108 -0.629,-0.91 -2.007,-0.91 -1.767,0 -2.503,1.003 -2.503,2.074 0,1.244 0.696,1.793 2.408,2.208 1.539,0.388 1.901,0.548 1.901,1.057 0,0.455 -0.388,0.843 -1.298,0.843 -1.084,0 -1.406,-0.616 -1.579,-1.245 l -1.298,0.496 c 0.281,1.124 1.191,2.061 2.837,2.061 1.579,0 2.863,-0.75 2.863,-2.704 v -4.59 H 3.064 Z" /></g><g
           transform="translate(99.9136,32.8037)"
           id="g86"><path
             id="path88"
             style="fill:#000000;fill-opacity:1;fill-rule:nonzero;stroke:none"
             d="m 0,0 h 1.526 v -4.416 c 0,-1.057 0.361,-1.419 1.244,-1.419 0.856,0 1.459,0.455 1.459,1.526 V 0 H 5.754 V -7.092 H 4.282 V -6.41 H 4.255 C 4.095,-6.638 3.533,-7.293 2.422,-7.293 0.763,-7.293 0,-6.25 0,-4.59 Z" /></g><g
           transform="translate(108.4252,28.4142)"
           id="g90"><path
             id="path92"
             style="fill:#000000;fill-opacity:1;fill-rule:nonzero;stroke:none"
             d="m 0,0 c 0.12,-1.044 0.709,-1.619 1.713,-1.619 0.964,0 1.499,0.361 1.499,0.91 0,0.562 -0.442,0.696 -1.954,1.124 -1.606,0.455 -2.382,1.003 -2.382,2.074 0,1.071 0.91,2.101 2.61,2.101 1.699,0 2.582,-0.883 2.903,-2.074 L 3.105,2.141 C 2.878,2.81 2.462,3.319 1.486,3.319 0.683,3.319 0.268,2.944 0.268,2.556 0.268,2.088 0.562,1.967 2.355,1.459 4.149,0.95 4.59,0.294 4.59,-0.736 c 0,-0.99 -0.816,-2.168 -2.824,-2.168 -2.087,0 -2.984,1.285 -3.158,2.57 z" /></g><g
           transform="translate(114.7556,31.4921)"
           id="g94"><path
             id="path96"
             style="fill:#000000;fill-opacity:1;fill-rule:nonzero;stroke:none"
             d="M 0,0 H -1.071 V 1.312 H 0.04 V 3.051 H 1.485 V 1.312 h 1.78 V 0 H 1.499 v -3.252 c 0,-0.736 0.147,-1.057 0.923,-1.057 H 2.984 V -5.781 H 2.302 C 0.522,-5.781 0,-4.978 0,-3.412 Z" /></g><path
           id="path98"
           style="fill:#000000;fill-opacity:1;fill-rule:nonzero;stroke:none"
           d="m 119.627,30.769 h 4.403 v -1.217 h -4.403 z" /><g
           transform="translate(126.3047,35.0786)"
           id="g100"><path
             id="path102"
             style="fill:#000000;fill-opacity:1;fill-rule:nonzero;stroke:none"
             d="m 0,0 h 1.646 l 3.72,-6.624 H 5.393 V 0 H 6.972 V -9.367 H 5.366 l -3.76,6.623 H 1.579 V -9.367 H 0 Z" /></g><g
           transform="translate(139.9415,29.2575)"
           id="g104"><path
             id="path106"
             style="fill:#000000;fill-opacity:1;fill-rule:nonzero;stroke:none"
             d="m 0,0 c 0,1.539 -0.736,2.368 -1.767,2.368 -1.03,0 -1.779,-0.802 -1.779,-2.368 0,-1.579 0.736,-2.369 1.779,-2.369 C -0.736,-2.369 0,-1.539 0,0 m -5.058,0 c 0,2.422 1.539,3.747 3.291,3.747 1.74,0 3.266,-1.325 3.266,-3.747 0,-2.422 -1.433,-3.747 -3.266,-3.747 -1.847,0 -3.291,1.325 -3.291,3.747" /></g><g
           transform="translate(143.0059,32.8037)"
           id="g108"><path
             id="path110"
             style="fill:#000000;fill-opacity:1;fill-rule:nonzero;stroke:none"
             d="M 0,0 H 1.445 V -0.75 H 1.472 C 1.753,-0.201 2.342,0.134 2.944,0.134 3.199,0.134 3.412,0.067 3.573,0 L 3.332,-1.485 c -0.147,0.04 -0.321,0.106 -0.562,0.106 -0.803,0 -1.245,-0.535 -1.245,-1.766 v -3.947 l -1.525,0 z" /></g><g
           transform="translate(152.1861,29.9531)"
           id="g112"><path
             id="path114"
             style="fill:#000000;fill-opacity:1;fill-rule:nonzero;stroke:none"
             d="M 0,0 C -0.053,0.95 -0.601,1.7 -1.74,1.7 -2.837,1.7 -3.399,0.816 -3.452,0 Z m 1.272,-2.784 c -0.549,-0.883 -1.446,-1.658 -2.944,-1.658 -1.928,0 -3.332,1.445 -3.332,3.746 0,2.302 1.404,3.747 3.264,3.747 1.848,0 3.226,-1.418 3.226,-3.747 v -0.455 h -4.951 c 0.04,-1.151 0.642,-1.94 1.766,-1.94 1.084,0 1.566,0.722 1.874,1.204 z" /></g><g
           transform="translate(159.8548,30.0872)"
           id="g116"><path
             id="path118"
             style="fill:#000000;fill-opacity:1;fill-rule:nonzero;stroke:none"
             d="m 0,0 c 0,0.789 -0.602,1.538 -1.633,1.538 -1.11,0 -1.886,-0.816 -1.886,-2.368 0,-1.552 0.762,-2.368 1.886,-2.368 0.991,0 1.633,0.682 1.633,1.485 z m -3.346,-5.019 c 0.349,-0.749 0.803,-1.231 1.754,-1.231 0.936,0 1.592,0.495 1.592,1.62 v 0.91 h -0.027 c -0.281,-0.415 -0.936,-0.857 -1.833,-0.857 -1.78,0 -3.185,1.365 -3.185,3.747 0,2.382 1.513,3.747 3.158,3.747 0.95,0 1.566,-0.428 1.914,-0.883 h 0.026 v 0.682 h 1.472 v -7.132 c 0,-2.114 -1.324,-3.172 -3.117,-3.172 -1.539,0 -2.516,0.79 -2.931,1.82 z" /></g><g
           transform="translate(2.8346,50.4461)"
           id="g120"><path
             id="path122"
             style="fill:#000000;fill-opacity:1;fill-rule:nonzero;stroke:none"
             d="m 0,0 h 5.485 v -20.448 c 0,-2.696 0.215,-4.676 1.378,-6.794 1.536,-2.796 4.233,-4.427 8.518,-4.427 6.91,0 9.107,3.618 9.107,6.665 0,4.138 -5.461,6.001 -10.642,8.408 -4.595,2.135 -5.625,5.626 -4.873,9.608 0.789,4.177 4.629,7.566 11.186,7.566 4.688,0 7.241,-0.465 10.235,-0.856 L 48.082,-23.582 V 0 l 6.417,-0.001 V -1.667 H 50.056 V -33.053 H 48.504 L 29.139,-7.666 v -9.556 c -0.496,0.642 -1.144,1.269 -1.973,1.89 v 10.378 c -0.648,2.085 -2.695,3.847 -6.914,3.953 -3.447,0.087 -6.475,-1.514 -7.013,-4.993 -0.707,-4.573 3.367,-5.685 8.73,-8.281 5.848,-2.831 7.287,-5.593 7.287,-8.726 0,-4.41 -4.827,-10.437 -13.92,-10.437 -4.984,0 -9.109,1.469 -11.791,4.204 C 0.618,-26.25 0,-23.732 0,-19.033 Z" /></g></g></g><g
       id="g124"><g
         clip-path="url(#clipPath130)"
         id="g126"><g
           transform="translate(77.0496,50.2629)"
           id="g132"><path
             id="path134"
             style="fill:#000000;fill-opacity:1;fill-rule:nonzero;stroke:none"
             d="m 0,0 h 2.106 v -8.315 c 0,-1.552 0.82,-2.498 2.498,-2.498 1.694,0 2.533,0.964 2.533,2.463 V 0 h 2.088 v -8.422 c 0,-2.712 -1.856,-4.335 -4.621,-4.335 -2.766,0 -4.604,1.623 -4.604,4.335 z" /></g><g
           transform="translate(88.8624,47.2297)"
           id="g136"><path
             id="path138"
             style="fill:#000000;fill-opacity:1;fill-rule:nonzero;stroke:none"
             d="m 0,0 h 1.963 v -0.91 h 0.035 c 0.501,0.642 1.482,1.178 2.552,1.178 2.07,0 3.372,-1.303 3.372,-3.533 V -9.457 H 5.906 V -3.8 c 0,1.391 -0.5,2.194 -1.837,2.194 -1.25,0 -2.035,-0.767 -2.035,-1.98 V -9.457 H 0 Z" /></g><path
           id="path140"
           style="fill:#000000;fill-opacity:1;fill-rule:nonzero;stroke:none"
           d="m 99.408,47.23 h 2.034 v -9.457 h -2.034 z m -0.036,3.568 h 2.106 v -2.016 h -2.106 z" /><g
           transform="translate(103.0836,47.2297)"
           id="g142"><path
             id="path144"
             style="fill:#000000;fill-opacity:1;fill-rule:nonzero;stroke:none"
             d="M 0,0 H 2.106 L 4.639,-6.53 H 4.675 L 7.209,0 h 2.087 l -3.8,-9.457 H 3.8 Z" /></g><g
           transform="translate(119.6774,43.4293)"
           id="g146"><path
             id="path148"
             style="fill:#000000;fill-opacity:1;fill-rule:nonzero;stroke:none"
             d="M 0,0 C -0.072,1.267 -0.803,2.266 -2.319,2.266 -3.783,2.266 -4.532,1.088 -4.604,0 Z m 1.695,-3.711 c -0.731,-1.178 -1.927,-2.213 -3.925,-2.213 -2.569,0 -4.443,1.927 -4.443,4.996 0,3.069 1.874,4.996 4.354,4.996 2.462,0 4.299,-1.891 4.299,-4.996 v -0.606 h -6.601 c 0.053,-1.535 0.856,-2.588 2.355,-2.588 1.445,0 2.087,0.964 2.498,1.606 z" /></g><g
           transform="translate(123.7102,47.2297)"
           id="g150"><path
             id="path152"
             style="fill:#000000;fill-opacity:1;fill-rule:nonzero;stroke:none"
             d="M 0,0 H 1.927 V -0.999 H 1.963 C 2.338,-0.268 3.123,0.178 3.925,0.178 4.265,0.178 4.55,0.089 4.764,0 L 4.443,-1.981 c -0.196,0.054 -0.428,0.143 -0.749,0.143 -1.071,0 -1.66,-0.714 -1.66,-2.355 V -9.457 H 0 Z" /></g><g
           transform="translate(131.3117,41.3774)"
           id="g154"><path
             id="path156"
             style="fill:#000000;fill-opacity:1;fill-rule:nonzero;stroke:none"
             d="m 0,0 c 0.161,-1.392 0.946,-2.159 2.284,-2.159 1.285,0 1.998,0.482 1.998,1.213 0,0.75 -0.588,0.928 -2.605,1.499 -2.14,0.607 -3.175,1.338 -3.175,2.766 0,1.427 1.213,2.801 3.479,2.801 2.266,0 3.443,-1.178 3.871,-2.766 L 4.14,2.855 C 3.837,3.747 3.283,4.425 1.981,4.425 0.91,4.425 0.357,3.925 0.357,3.408 0.357,2.784 0.749,2.623 3.141,1.945 5.532,1.267 6.12,0.392 6.12,-0.981 c 0,-1.321 -1.088,-2.891 -3.765,-2.891 -2.783,0 -3.979,1.713 -4.21,3.426 z" /></g><path
           id="path158"
           style="fill:#000000;fill-opacity:1;fill-rule:nonzero;stroke:none"
           d="m 139.431,47.23 h 2.034 v -9.457 h -2.034 z m -0.036,3.568 h 2.106 v -2.016 h -2.106 z" /><g
           transform="translate(144.6234,45.4809)"
           id="g160"><path
             id="path162"
             style="fill:#000000;fill-opacity:1;fill-rule:nonzero;stroke:none"
             d="m 0,0 h -1.427 v 1.749 h 1.48 V 4.068 H 1.98 V 1.749 H 4.353 V 0 H 1.998 v -4.335 c 0,-0.982 0.197,-1.41 1.232,-1.41 H 3.979 V -7.708 H 3.069 C 0.696,-7.708 0,-6.637 0,-4.549 Z" /></g><g
           transform="translate(156.6321,43.4293)"
           id="g164"><path
             id="path166"
             style="fill:#000000;fill-opacity:1;fill-rule:nonzero;stroke:none"
             d="M 0,0 C -0.071,1.267 -0.803,2.266 -2.319,2.266 -3.783,2.266 -4.532,1.088 -4.603,0 Z m 1.695,-3.711 c -0.731,-1.178 -1.927,-2.213 -3.925,-2.213 -2.569,0 -4.443,1.927 -4.443,4.996 0,3.069 1.874,4.996 4.354,4.996 2.462,0 4.3,-1.891 4.3,-4.996 v -0.606 h -6.602 c 0.053,-1.535 0.856,-2.588 2.355,-2.588 1.445,0 2.088,0.964 2.498,1.606 z" /></g><g
           transform="translate(161.1116,45.4809)"
           id="g168"><path
             id="path170"
             style="fill:#000000;fill-opacity:1;fill-rule:nonzero;stroke:none"
             d="M 0,0 H -1.428 V 1.749 H 0.053 V 4.068 H 1.98 V 1.749 H 4.353 V 0 H 1.998 v -4.335 c 0,-0.982 0.197,-1.41 1.232,-1.41 H 3.979 V -7.708 H 3.069 C 0.696,-7.708 0,-6.637 0,-4.549 Z" /></g><g
           transform="translate(173.1196,43.4293)"
           id="g172"><path
             id="path174"
             style="fill:#000000;fill-opacity:1;fill-rule:nonzero;stroke:none"
             d="M 0,0 C -0.072,1.267 -0.803,2.266 -2.319,2.266 -3.782,2.266 -4.531,1.088 -4.604,0 Z m 1.695,-3.711 c -0.731,-1.178 -1.927,-2.213 -3.925,-2.213 -2.569,0 -4.443,1.927 -4.443,4.996 0,3.069 1.874,4.996 4.354,4.996 2.462,0 4.299,-1.891 4.299,-4.996 v -0.606 h -6.601 c 0.053,-1.535 0.856,-2.588 2.355,-2.588 1.445,0 2.087,0.964 2.498,1.606 z" /></g><g
           transform="translate(177.5991,45.4809)"
           id="g176"><path
             id="path178"
             style="fill:#000000;fill-opacity:1;fill-rule:nonzero;stroke:none"
             d="M 0,0 H -1.428 V 1.749 H 0.053 V 4.068 H 1.98 V 1.749 H 4.353 V 0 H 1.998 v -4.335 c 0,-0.982 0.196,-1.41 1.232,-1.41 H 3.979 V -7.708 H 3.069 C 0.696,-7.708 0,-6.637 0,-4.549 Z" /></g><path
           id="path180"
           style="fill:#000000;fill-opacity:1;fill-rule:nonzero;stroke:none"
           d="m 77.317,26.73 h 2.034 v -9.457 h -2.034 z m -0.036,3.569 h 2.106 v -2.016 h -2.106 z" /><g
           transform="translate(86.5072,21.9665)"
           id="g182"><path
             id="path184"
             style="fill:#000000;fill-opacity:1;fill-rule:nonzero;stroke:none"
             d="m 0,0 c 0.303,-1.999 0.909,-3.016 2.819,-3.016 1.534,0 2.426,0.66 2.426,1.695 0,1.017 -0.428,1.428 -3.301,2.32 -2.676,0.839 -3.657,1.98 -3.657,3.604 0,1.802 1.463,3.462 4.103,3.462 2.213,0 4.14,-1.054 4.55,-3.426 L 4.888,4.139 C 4.585,5.245 3.978,6.102 2.39,6.102 0.981,6.102 0.356,5.441 0.356,4.621 c 0,-0.803 0.411,-1.088 3.158,-2.017 3.016,-1.016 3.801,-1.962 3.801,-3.8 0,-2.105 -1.678,-3.764 -4.514,-3.764 -2.855,0 -4.64,1.498 -5.014,4.478 z" /></g><g
           transform="translate(98.1395,19.397)"
           id="g186"><path
             id="path188"
             style="fill:#000000;fill-opacity:1;fill-rule:nonzero;stroke:none"
             d="m 0,0 c 0.393,-0.375 0.91,-0.553 1.499,-0.553 1.375,0 2.356,1.106 2.356,3.158 0,0.749 -0.144,1.356 -0.392,1.838 z M 2.945,5.192 C 2.552,5.566 2.052,5.763 1.499,5.763 c -1.338,0 -2.373,-1.07 -2.373,-3.158 0,-0.767 0.125,-1.392 0.358,-1.874 z M -1.784,-0.91 c -0.696,0.839 -1.106,2.016 -1.106,3.515 0,3.23 2.052,4.996 4.389,4.996 0.964,0 1.874,-0.321 2.623,-0.91 L 4.8,7.583 5.478,7.012 4.746,6.084 C 5.425,5.246 5.853,4.068 5.853,2.605 c 0,-3.229 -1.91,-4.996 -4.354,-4.996 -1.017,0 -1.944,0.303 -2.677,0.874 l -0.659,-0.856 -0.678,0.553 z" /></g><g
           transform="translate(106.1346,26.7304)"
           id="g190"><path
             id="path192"
             style="fill:#000000;fill-opacity:1;fill-rule:nonzero;stroke:none"
             d="M 0,0 H 1.926 V -0.999 H 1.962 C 2.337,-0.268 3.122,0.178 3.925,0.178 4.264,0.178 4.549,0.089 4.764,0 L 4.442,-1.981 c -0.196,0.054 -0.428,0.143 -0.749,0.143 -1.071,0 -1.66,-0.714 -1.66,-2.355 V -9.457 H 0 Z" /></g><g
           transform="translate(113.932,19.9146)"
           id="g194"><path
             id="path196"
             style="fill:#000000;fill-opacity:1;fill-rule:nonzero;stroke:none"
             d="m 0,0 c 0,-0.767 0.535,-1.142 1.553,-1.142 1.623,0 2.301,0.785 2.301,1.588 V 2.337 H 3.818 C 3.711,2.105 3.533,1.856 1.66,1.356 0.214,0.999 0,0.518 0,0 M 4.086,-1.695 H 4.05 C 3.961,-1.838 3.212,-2.908 1.374,-2.908 c -2.355,0 -3.336,1.338 -3.336,2.765 0,1.659 0.927,2.391 3.211,2.944 2.052,0.517 2.534,0.732 2.534,1.41 0,0.606 -0.518,1.124 -1.731,1.124 -1.445,0 -1.874,-0.821 -2.106,-1.66 l -1.73,0.661 c 0.375,1.499 1.588,2.747 3.782,2.747 2.106,0 3.818,-0.999 3.818,-3.604 v -6.12 h -1.73 z" /></g><g
           transform="translate(122.0685,26.7304)"
           id="g198"><path
             id="path200"
             style="fill:#000000;fill-opacity:1;fill-rule:nonzero;stroke:none"
             d="m 0,0 h 2.035 v -5.888 c 0,-1.41 0.481,-1.892 1.659,-1.892 1.141,0 1.945,0.607 1.945,2.034 V 0 H 7.672 V -9.457 H 5.71 v 0.91 H 5.674 C 5.46,-8.85 4.711,-9.724 3.23,-9.724 1.017,-9.724 0,-8.333 0,-6.12 Z" /></g><g
           transform="translate(133.4173,20.8777)"
           id="g202"><path
             id="path204"
             style="fill:#000000;fill-opacity:1;fill-rule:nonzero;stroke:none"
             d="m 0,0 c 0.161,-1.391 0.946,-2.159 2.284,-2.159 1.285,0 1.998,0.482 1.998,1.213 0,0.75 -0.588,0.928 -2.605,1.499 -2.14,0.607 -3.175,1.338 -3.175,2.766 0,1.427 1.213,2.801 3.479,2.801 2.266,0 3.443,-1.177 3.871,-2.766 L 4.14,2.855 C 3.837,3.747 3.283,4.425 1.981,4.425 0.91,4.425 0.357,3.926 0.357,3.408 0.357,2.784 0.749,2.623 3.141,1.945 5.532,1.267 6.12,0.393 6.12,-0.981 c 0,-1.32 -1.088,-2.89 -3.765,-2.89 -2.783,0 -3.979,1.712 -4.21,3.425 z" /></g><g
           transform="translate(141.8579,24.9816)"
           id="g206"><path
             id="path208"
             style="fill:#000000;fill-opacity:1;fill-rule:nonzero;stroke:none"
             d="M 0,0 H -1.428 V 1.749 H 0.053 V 4.068 H 1.98 V 1.749 H 4.353 V 0 H 1.998 v -4.336 c 0,-0.981 0.197,-1.409 1.232,-1.409 H 3.979 V -7.708 H 3.069 C 0.696,-7.708 0,-6.637 0,-4.55 Z" /></g><path
           id="path210"
           style="fill:#000000;fill-opacity:1;fill-rule:nonzero;stroke:none"
           d="m 148.353,24.018 h 5.87 v -1.623 h -5.87 z" /><g
           transform="translate(157.2567,29.7636)"
           id="g212"><path
             id="path214"
             style="fill:#000000;fill-opacity:1;fill-rule:nonzero;stroke:none"
             d="m 0,0 h 2.195 l 4.96,-8.832 H 7.191 V 0 H 9.296 V -12.49 H 7.155 L 2.141,-3.658 H 2.106 V -12.49 H 0 Z" /></g><g
           transform="translate(175.439,22.0021)"
           id="g216"><path
             id="path218"
             style="fill:#000000;fill-opacity:1;fill-rule:nonzero;stroke:none"
             d="m 0,0 c 0,2.052 -0.981,3.158 -2.356,3.158 -1.373,0 -2.372,-1.07 -2.372,-3.158 0,-2.106 0.981,-3.158 2.372,-3.158 C -0.981,-3.158 0,-2.052 0,0 m -6.745,0 c 0,3.229 2.052,4.996 4.389,4.996 2.32,0 4.354,-1.767 4.354,-4.996 0,-3.229 -1.91,-4.996 -4.354,-4.996 -2.462,0 -4.389,1.767 -4.389,4.996" /></g><g
           transform="translate(179.5249,26.7304)"
           id="g220"><path
             id="path222"
             style="fill:#000000;fill-opacity:1;fill-rule:nonzero;stroke:none"
             d="M 0,0 H 1.927 V -0.999 H 1.963 C 2.338,-0.268 3.123,0.178 3.925,0.178 4.265,0.178 4.55,0.089 4.764,0 L 4.443,-1.981 c -0.196,0.054 -0.428,0.143 -0.749,0.143 -1.071,0 -1.66,-0.714 -1.66,-2.355 V -9.457 H 0 Z" /></g><g
           transform="translate(191.7652,22.9297)"
           id="g224"><path
             id="path226"
             style="fill:#000000;fill-opacity:1;fill-rule:nonzero;stroke:none"
             d="M 0,0 C -0.071,1.267 -0.802,2.266 -2.319,2.266 -3.783,2.266 -4.532,1.088 -4.603,0 Z m 1.695,-3.711 c -0.731,-1.178 -1.927,-2.212 -3.925,-2.212 -2.569,0 -4.442,1.927 -4.442,4.995 0,3.069 1.873,4.996 4.353,4.996 2.462,0 4.3,-1.891 4.3,-4.996 V -1.534 H -4.62 c 0.053,-1.535 0.856,-2.587 2.354,-2.587 1.446,0 2.088,0.963 2.499,1.605 z" /></g></g></g><g
       id="g228"><g
         clip-path="url(#clipPath234)"
         id="g230"><g
           transform="translate(201.9902,23.1084)"
           id="g236"><path
             id="path238"
             style="fill:#000000;fill-opacity:1;fill-rule:nonzero;stroke:none"
             d="m 0,0 c 0,1.053 -0.803,2.051 -2.177,2.051 -1.481,0 -2.516,-1.088 -2.516,-3.157 0,-2.07 1.017,-3.158 2.516,-3.158 1.321,0 2.177,0.91 2.177,1.98 z m -4.461,-6.691 c 0.465,-0.999 1.071,-1.642 2.338,-1.642 1.249,0 2.123,0.66 2.123,2.159 v 1.214 h -0.036 c -0.375,-0.553 -1.249,-1.142 -2.444,-1.142 -2.373,0 -4.247,1.819 -4.247,4.996 0,3.175 2.017,4.996 4.211,4.996 1.267,0 2.088,-0.572 2.552,-1.178 h 0.035 v 0.91 h 1.963 v -9.51 c 0,-2.819 -1.766,-4.229 -4.157,-4.229 -2.052,0 -3.355,1.053 -3.908,2.427 z" /></g><g
           transform="translate(-7.3702,50.2536)"
           id="g240"><path
             id="path242"
             style="fill:#000000;fill-opacity:1;fill-rule:nonzero;stroke:none"
             d="m 0,0 h 7.313 l 0.001,-27.264 c 0,-3.595 0.287,-6.235 1.837,-9.059 2.047,-3.727 5.643,-5.902 11.356,-5.902 9.214,0 12.144,4.823 12.144,8.886 0,5.518 -7.282,8.002 -14.189,11.211 -6.127,2.847 -7.501,7.502 -6.498,12.811 1.052,5.569 6.172,10.087 14.915,10.087 6.25,0 9.654,-0.619 13.647,-1.141 L 64.109,-31.443 V 0 l 8.556,-0.001 V -2.223 H 66.742 V -44.07 h -2.071 l -25.819,33.849 v -12.742 c -0.662,0.856 -1.525,1.692 -2.631,2.52 v 13.837 c -0.864,2.78 -3.593,5.13 -9.219,5.272 -4.595,0.116 -8.633,-2.019 -9.35,-6.658 -0.943,-6.097 4.489,-7.579 11.64,-11.042 7.798,-3.774 9.716,-7.457 9.716,-11.634 0,-5.881 -6.436,-13.916 -18.561,-13.916 -6.644,0 -12.145,1.958 -15.721,5.605 C 0.824,-35 0,-31.643 0,-25.377 Z" /></g></g></g></g></svg>